<svg width="15" height="13" viewBox="0 0 15 13" fill="none" xmlns="http://www.w3.org/2000/svg">
<g id="Frame 4" clip-path="url(#clip0_3180_3008)">
<g id="Group 3">
<path id="Subtract" fill-rule="evenodd" clip-rule="evenodd" d="M-3.55494 0.471069C-3.80074 0.471069 -4 0.67033 -4 0.916131V2.69388V4.56096V9.06339C-4 9.26403 -3.86575 9.43986 -3.67219 9.49273L-0.531995 10.3503C-0.493784 10.3608 -0.454351 10.3661 -0.414741 10.3661H8.60019C8.64841 10.0334 8.78329 9.72881 8.9812 9.47593H-0.355061L-3.10988 8.72357V5.00602H-1.59231H0.959096H3.31424H5.86565H8.2208H10.6729L10.72 6.29245C10.7287 6.53176 10.9253 6.72123 11.1647 6.72123H13.8599V9.47593H11.9587C12.1567 9.72881 12.2915 10.0334 12.3398 10.3661H14.3049C14.5507 10.3661 14.75 10.1668 14.75 9.92099V6.27617C14.75 6.21919 14.7391 6.16274 14.7178 6.10989L12.5589 0.749852C12.491 0.581403 12.3277 0.471069 12.1461 0.471069H10.9685H-3.55494ZM-3.10988 2.24881V1.36119H10.5331L10.5527 2.24881H8.2208H5.86565H3.31424H0.959096H-1.59231H-3.10988ZM11.4525 2.67774L11.4235 1.36119H11.8455L13.6459 5.83111H11.5938L11.5467 4.54467L11.5467 4.54467L11.5464 4.53853L11.4525 2.67774ZM-2.03738 4.11589H-3.10988V3.13894H-2.03738V4.11589ZM-1.14725 4.11589V3.13894H0.514034V4.11589H-1.14725ZM1.40416 4.11589V3.13894H2.86918V4.11589H1.40416ZM3.75931 4.11589V3.13894H5.42059V4.11589H3.75931ZM6.31072 4.11589V3.13894H7.77574V4.11589H6.31072ZM8.66586 4.11589V3.13894H10.5846L10.6339 4.11589H8.66586Z" fill="#1C1B1B"/>
<circle id="Ellipse 5" cx="10.4695" cy="10.1667" r="1.44435" stroke="#1C1B1B" stroke-width="0.890123"/>
</g>
</g>
<defs>
<clipPath id="clip0_3180_3008">
<rect width="14.25" height="12" fill="white" transform="translate(0.5 0.5)"/>
</clipPath>
</defs>
</svg>
