<svg width="16" height="10" viewBox="0 0 16 10" fill="none" xmlns="http://www.w3.org/2000/svg">
<g id="Frame 6" clip-path="url(#clip0_3180_2703)">
<g id="Group">
<g id="Group_2">
<path id="Vector" d="M0.225561 6.38452C1.12158 6.38452 1.85059 7.10831 1.85059 7.99799C1.85059 8.88764 1.12162 9.61146 0.225561 9.61146C-0.670456 9.61146 -1.39947 8.88767 -1.39947 7.99799C-1.39943 7.10835 -0.670456 6.38452 0.225561 6.38452ZM0.225561 8.96606C0.76311 8.96606 1.20057 8.53172 1.20057 7.99799C1.20057 7.46426 0.76311 7.02992 0.225561 7.02992C-0.311988 7.02992 -0.749447 7.46426 -0.749447 7.99799C-0.749447 8.53172 -0.311988 8.96606 0.225561 8.96606Z" fill="black"/>
</g>
</g>
<g id="Group_3">
<g id="Group_4">
<path id="Vector_2" d="M11.2734 6.38452C12.1694 6.38452 12.8984 7.10831 12.8984 7.99799C12.8984 8.88764 12.1695 9.61146 11.2734 9.61146C10.3774 9.61146 9.64839 8.88767 9.64839 7.99799C9.64839 7.10835 10.3774 6.38452 11.2734 6.38452ZM11.2734 8.96606C11.811 8.96606 12.2484 8.53172 12.2484 7.99799C12.2484 7.46426 11.811 7.02992 11.2734 7.02992C10.7359 7.02992 10.2984 7.46426 10.2984 7.99799C10.2984 8.53172 10.7359 8.96606 11.2734 8.96606Z" fill="black"/>
</g>
</g>
<g id="Group_5">
<g id="Group_6">
<path id="Vector_3" d="M-3.67516 6.38453V4.44839C-3.67516 4.3093 -3.58578 4.18602 -3.45285 4.14216L-1.61885 3.53518C-0.928232 2.37383 0.0211058 1.2686 2.11901 0.903646C2.12289 0.903003 2.12682 0.90236 2.1307 0.901717C6.00472 0.36992 8.91352 1.23763 10.781 3.48163C12.94 3.51261 15.175 4.18863 15.175 5.41646V6.38453C15.3544 6.38453 15.5 6.5291 15.5 6.70721V7.99796C15.5 8.17608 15.3544 8.32064 15.175 8.32064H13.875C13.6956 8.32064 13.55 8.17608 13.55 7.99796C13.55 6.75236 12.5295 5.73914 11.275 5.73914C10.0205 5.73914 9.00001 6.7524 9.00001 7.99796C9.00001 8.17608 8.85441 8.32064 8.67502 8.32064H2.82498C2.64559 8.32064 2.49999 8.17608 2.49999 7.99796C2.49999 6.75236 1.47947 5.73914 0.224982 5.73914C-1.02954 5.73914 -2.05002 6.7524 -2.05002 7.99796C-2.05002 8.17608 -2.19563 8.32064 -2.37501 8.32064H-3.67501C-3.8544 8.32064 -4 8.17608 -4 7.99796V6.70721C-4.00015 6.5291 -3.85455 6.38453 -3.67516 6.38453ZM0.533977 2.14308C-0.0305376 2.48675 -0.451125 2.94046 -0.816067 3.48031H0.546658L0.533977 2.14308ZM4.44993 1.3954C3.75474 1.38606 3.01537 1.43219 2.22527 1.54061C1.83397 1.60902 1.49013 1.70616 1.18072 1.82683L1.19664 3.48061H4.44993V1.3954ZM5.09991 1.42285V3.48065H9.90281C8.69803 2.24666 7.10941 1.56481 5.09991 1.42285ZM-3.35014 7.67532H-2.68225C-2.52008 6.22514 -1.27824 5.09378 0.224906 5.09378C1.72806 5.09378 2.9699 6.22514 3.13207 7.67532H8.36782C8.52999 6.22514 9.77183 5.09378 11.275 5.09378C12.7781 5.09378 14.02 6.22514 14.1821 7.67532H14.85V7.02993C14.6706 7.02993 14.525 6.88536 14.525 6.70725V5.73918H14.2C14.0206 5.73918 13.875 5.59461 13.875 5.4165C13.875 5.23839 14.0206 5.09382 14.2 5.09382H14.3683C13.9286 4.6198 12.5834 4.12574 10.625 4.12574H-1.34714L-3.02514 4.6811V5.09382H-2.70016C-2.52077 5.09382 -2.37517 5.23839 -2.37517 5.4165C-2.37517 5.59461 -2.52077 5.73918 -2.70016 5.73918H-3.02514V6.70725C-3.02514 6.88536 -3.17075 7.02993 -3.35014 7.02993V7.67532Z" fill="black"/>
</g>
</g>
</g>
<defs>
<clipPath id="clip0_3180_2703">
<rect width="15" height="9.75" fill="white" transform="matrix(-1 0 0 1 15.5 0)"/>
</clipPath>
</defs>
</svg>
