<svg width="15" height="15" viewBox="0 0 15 15" fill="none" xmlns="http://www.w3.org/2000/svg">
<g id="Frame 7" clip-path="url(#clip0_3180_3108)">
<path id="Subtract" fill-rule="evenodd" clip-rule="evenodd" d="M-6.49609 1.24736C-6.49609 0.972677 -6.27342 0.75 -5.99873 0.75H7.51826C7.79294 0.75 8.01562 0.972677 8.01562 1.24736V3.21671H12.0239C12.2313 3.21671 12.4169 3.34538 12.4897 3.53957L13.8706 7.22512H14.4269C14.7016 7.22512 14.9243 7.4478 14.9243 7.72248V11.7309C14.9243 12.0056 14.7016 12.2283 14.4269 12.2283H12.9174C12.9226 12.166 12.9253 12.1029 12.9253 12.0392C12.9253 11.7544 12.8716 11.4825 12.7739 11.2335H13.9296V8.21985H13.5258H11.1228C10.9886 8.21985 10.8601 8.16564 10.7665 8.06954L9.86539 7.14453C9.67372 6.94777 9.67784 6.63288 9.8746 6.44121C10.0714 6.24953 10.3862 6.25365 10.5779 6.45041L11.3326 7.22512H12.8083L11.6791 4.21144H8.01562V10.1892V11.2335H8.8714C8.77376 11.4825 8.72002 11.7544 8.72002 12.0392C8.72002 12.1029 8.72271 12.166 8.72797 12.2283H7.51826H-1.21546C-1.2102 12.166 -1.20751 12.1029 -1.20751 12.0392C-1.20751 11.7544 -1.26125 11.4825 -1.35889 11.2335H7.02089V10.6866H-1.67155C-2.05695 10.1952 -2.64778 9.88083 -3.31015 9.88083C-3.97251 9.88083 -4.56335 10.1952 -4.94875 10.6866H-5.99873C-6.27342 10.6866 -6.49609 10.4639 -6.49609 10.1892V1.24736ZM-5.41279 12.0392C-5.41279 12.1029 -5.4101 12.1659 -5.40484 12.2282C-5.67636 12.2245 -5.89534 12.0033 -5.89534 11.7309C-5.89534 11.4562 -5.67266 11.2335 -5.39797 11.2335H-5.26141C-5.35905 11.4825 -5.41279 11.7544 -5.41279 12.0392ZM7.02089 9.69183V3.71408V1.74473H-5.50137V9.69183H7.02089Z" fill="#1C1B1B"/>
<path id="Ellipse 9" d="M12.4276 12.0392C12.4276 12.9689 11.6968 13.7002 10.8224 13.7002C9.94798 13.7002 9.21709 12.9689 9.21709 12.0392C9.21709 11.1095 9.94798 10.3782 10.8224 10.3782C11.6968 10.3782 12.4276 11.1095 12.4276 12.0392Z" stroke="#1C1B1B" stroke-width="0.994728"/>
</g>
<defs>
<clipPath id="clip0_3180_3108">
<rect width="14.25" height="13.5" fill="white" transform="translate(0.586914 0.75)"/>
</clipPath>
</defs>
</svg>
