<svg width="16" height="13" viewBox="0 0 16 13" fill="none" xmlns="http://www.w3.org/2000/svg">
<g id="Frame 5" clip-path="url(#clip0_3180_2737)">
<g id="Group">
<g id="Group_2">
<path id="Vector" d="M-7.28312 8.36381L-7.01335 8.09403V1.38355C-7.01335 1.17293 -6.8428 1.00198 -6.63178 1.00198H10.5394C10.6638 1.00198 10.7806 1.06266 10.8519 1.16493L13.4933 4.938C14.2709 5.58326 14.994 6.41967 15.1093 8.08486L15.3878 8.36381C15.4599 8.43513 15.5 8.53243 15.5 8.63358V9.39675C15.5 9.49786 15.4599 9.59516 15.3882 9.66653L15.1184 9.9363V10.5415C15.1184 10.7521 14.9479 10.9231 14.7369 10.9231H13.2105C12.9995 10.9231 12.8289 10.7521 12.8289 10.5415C12.8289 9.06858 11.6304 7.87045 10.1579 7.87045C8.68536 7.87045 7.48682 9.06862 7.48682 10.5415C7.48682 10.7521 7.31628 10.9231 7.10526 10.9231H0.999961C0.788943 10.9231 0.618394 10.7521 0.618394 10.5415C0.618394 9.06858 -0.580145 7.87045 -2.05266 7.87045C-3.52518 7.87045 -4.72372 9.06862 -4.72372 10.5415C-4.72372 10.7521 -4.89427 10.9231 -5.10529 10.9231H-6.6316C-6.84262 10.9231 -7.01317 10.7521 -7.01317 10.5415V9.9363L-7.28294 9.66653C-7.35467 9.59516 -7.39474 9.49786 -7.39474 9.39675V8.63358C-7.39492 8.53243 -7.35485 8.43513 -7.28312 8.36381ZM10.3406 1.76516H7.10521V4.8178H12.4775L10.3406 1.76516ZM-6.63174 9.23877L-6.36196 9.50854C-6.29024 9.57991 -6.25017 9.67721 -6.25017 9.77832V10.1599H-5.46562C-5.27521 8.44505 -3.81758 7.10723 -2.05275 7.10723C-0.287922 7.10723 1.16971 8.44505 1.36011 10.1599H6.74498C6.93538 8.44505 8.39301 7.10723 10.1578 7.10723C11.9227 7.10723 13.3803 8.44505 13.5707 10.1599H14.3553V9.77832C14.3553 9.67721 14.3953 9.57991 14.467 9.50854L14.7368 9.23877V8.79156L14.467 8.52179C14.3995 8.45462 14.3602 8.36457 14.3556 8.26954C14.3422 7.97916 14.3064 7.72427 14.2568 7.48884H13.5921C13.3811 7.48884 13.2105 7.31789 13.2105 7.10728C13.2105 6.89666 13.3811 6.72567 13.5921 6.72567H14.0019C13.7802 6.27046 13.4658 5.91635 13.0724 5.58093H6.7236C6.51258 5.58093 6.34203 5.40998 6.34203 5.19937V1.76516H-6.25017V6.72567H-5.8686C-5.65759 6.72567 -5.48704 6.89662 -5.48704 7.10723C-5.48704 7.31785 -5.65759 7.4888 -5.8686 7.4888H-6.25017V8.25197C-6.25017 8.35307 -6.29024 8.45038 -6.36196 8.52174L-6.63174 8.79152V9.23877Z" fill="black"/>
</g>
</g>
<g id="Group_3">
<g id="Group_4">
<path id="Vector_2" d="M10.1585 8.50006C11.2105 8.50006 12.0664 9.31314 12.0664 10.3126C12.0664 11.312 11.2105 12.125 10.1585 12.125C9.10643 12.125 8.25056 11.312 8.25056 10.3125C8.2506 9.31314 9.10648 8.50006 10.1585 8.50006ZM10.1585 11.4C10.7896 11.4 11.3032 10.9121 11.3032 10.3125C11.3032 9.71296 10.7896 9.22503 10.1585 9.22503C9.52735 9.22503 9.01374 9.71296 9.01374 10.3125C9.01374 10.9121 9.52735 11.4 10.1585 11.4Z" fill="black"/>
</g>
</g>
</g>
<defs>
<clipPath id="clip0_3180_2737">
<rect width="15" height="12" fill="white" transform="matrix(-1 0 0 1 15.5 0.5)"/>
</clipPath>
</defs>
</svg>
