<svg id="e183fe20-b39e-47b2-ba21-feb7785871fe" data-name="Layer 1" xmlns="http://www.w3.org/2000/svg" viewBox="0 0 28 28">
  <defs>
    <style>
      .f3690848-5e83-42ce-a99b-0403d87a3c80 {
        fill: #e6e6e6;
      }

      .fc95cd7b-dac5-4cae-9c84-fb3182d76653 {
        fill: #414042;
      }
    </style>
  </defs>
  <title>14</title>
  <circle class="f3690848-5e83-42ce-a99b-0403d87a3c80" cx="14" cy="14" r="14"/>
  <g>
    <path class="fc95cd7b-dac5-4cae-9c84-fb3182d76653" d="M4.78,9.72H6.85V18.3H4.78Z"/>
    <path class="fc95cd7b-dac5-4cae-9c84-fb3182d76653" d="M9.38,17.18A4.3,4.3,0,0,1,8.14,14a4.25,4.25,0,0,1,4.43-4.42A4.23,4.23,0,0,1,17,14a4.23,4.23,0,0,1-1.24,3.17,4.31,4.31,0,0,1-3.17,1.23A4.31,4.31,0,0,1,9.38,17.18Zm4.83-1.37a2.59,2.59,0,0,0,.65-1.8,2.56,2.56,0,0,0-.65-1.8,2.09,2.09,0,0,0-1.64-.73,2.13,2.13,0,0,0-1.66.73,2.8,2.8,0,0,0,0,3.59,2.24,2.24,0,0,0,3.3,0Z"/>
    <path class="fc95cd7b-dac5-4cae-9c84-fb3182d76653" d="M17.68,17l2.47-2.62a5.83,5.83,0,0,0,.77-1,1.59,1.59,0,0,0,.24-.83.87.87,0,0,0-.25-.64.79.79,0,0,0-.62-.26,1.49,1.49,0,0,0-1.27.76l-1.4-1a3,3,0,0,1,2.83-1.57,2.79,2.79,0,0,1,1.9.68,2.25,2.25,0,0,1,.79,1.8,3.15,3.15,0,0,1-.28,1.36,6.05,6.05,0,0,1-1.08,1.44l-1.27,1.31v0h2.7V18.3H17.7Z"/>
  </g>
</svg>
