<svg id="b341ee19-a4a0-4b35-8d0d-80064790cb66" data-name="Layer 1" xmlns="http://www.w3.org/2000/svg" viewBox="0 0 28 28">
  <defs>
    <style>
      .e6193db6-8db2-4acb-8e1d-717a37eb4edc {
        fill: #e6e6e6;
      }

      .e1ddf5c9-ac56-49a1-979d-1ae9b11db25b {
        fill: #414042;
      }
    </style>
  </defs>
  <title>17</title>
  <circle class="e6193db6-8db2-4acb-8e1d-717a37eb4edc" cx="14" cy="14" r="14"/>
  <g>
    <path class="e1ddf5c9-ac56-49a1-979d-1ae9b11db25b" d="M4.66,9.72H6.72V18.3H4.66Z"/>
    <path class="e1ddf5c9-ac56-49a1-979d-1ae9b11db25b" d="M9.25,17.18A4.3,4.3,0,0,1,8,14a4.23,4.23,0,0,1,4.42-4.42A4.23,4.23,0,0,1,16.85,14a4.23,4.23,0,0,1-1.24,3.17,4.3,4.3,0,0,1-3.17,1.23A4.33,4.33,0,0,1,9.25,17.18Zm4.83-1.37a2.6,2.6,0,0,0,.66-1.8,2.56,2.56,0,0,0-.66-1.8,2.09,2.09,0,0,0-1.64-.73,2.13,2.13,0,0,0-1.66.73,2.8,2.8,0,0,0,0,3.59,2.24,2.24,0,0,0,3.3,0Z"/>
    <path class="e1ddf5c9-ac56-49a1-979d-1ae9b11db25b" d="M22.61,13.65a2.62,2.62,0,0,1,.73,1.93,2.67,2.67,0,0,1-.84,2,3.06,3.06,0,0,1-2.16.79,3.7,3.7,0,0,1-2.93-1.27L18.81,16a1.71,1.71,0,0,0,1.34.64,1.2,1.2,0,0,0,.87-.32,1,1,0,0,0,.35-.78,1,1,0,0,0-.37-.83,1.32,1.32,0,0,0-.81-.29,1.92,1.92,0,0,0-1.13.41l-1-.39L18.3,10h4.59v1.77h-3l-.08,1.32a3.05,3.05,0,0,1,1-.17A2.39,2.39,0,0,1,22.61,13.65Z"/>
  </g>
</svg>
