<svg id="bab19384-8559-4978-9d13-69473a09bc83" data-name="Layer 1" xmlns="http://www.w3.org/2000/svg" viewBox="0 0 28 28">
  <defs>
    <style>
      .e6658f4a-9a81-43dd-a16c-6533b5cf18e2 {
        fill: #e6e6e6;
      }

      .b4f1f990-4ef2-45fa-9d4d-10347cc6e0a3 {
        fill: #414042;
      }
    </style>
  </defs>
  <title>19</title>
  <circle class="e6658f4a-9a81-43dd-a16c-6533b5cf18e2" cx="14" cy="14" r="14"/>
  <g>
    <path class="b4f1f990-4ef2-45fa-9d4d-10347cc6e0a3" d="M5,9.67H7.08v8.58H5Z"/>
    <path class="b4f1f990-4ef2-45fa-9d4d-10347cc6e0a3" d="M9.61,17.13A4.26,4.26,0,0,1,8.37,14,4.23,4.23,0,0,1,12.8,9.55,4.34,4.34,0,0,1,16,10.77,4.28,4.28,0,0,1,17.21,14,4.27,4.27,0,0,1,16,17.14a4.34,4.34,0,0,1-3.17,1.22A4.31,4.31,0,0,1,9.61,17.13Zm4.83-1.37a2.57,2.57,0,0,0,.65-1.8,2.56,2.56,0,0,0-.65-1.8,2.09,2.09,0,0,0-1.64-.73,2.16,2.16,0,0,0-1.66.73,2.8,2.8,0,0,0,0,3.59,2.24,2.24,0,0,0,3.3,0Z"/>
    <path class="b4f1f990-4ef2-45fa-9d4d-10347cc6e0a3" d="M23,10v1.26L20.3,18.45l-1.94-.36,2.5-6.39H17.8V10Z"/>
  </g>
</svg>
