<svg id="b3161b77-8434-4839-924d-1a46dc7e68d1" data-name="Layer 1" xmlns="http://www.w3.org/2000/svg" viewBox="0 0 28 28">
  <defs>
    <style>
      .ec7c9da1-df8c-4d13-9bd7-8b98c0aab304 {
        fill: #e6e6e6;
      }

      .aa27a226-d76f-41aa-a863-900ce5e36b2d {
        fill: #fff;
      }

      .bbeb88af-f821-4f82-80dd-2f8c838cb0bc {
        fill: #fadc0f;
      }

      .b2c4e396-c366-4a5d-91de-73f128326139 {
        fill: none;
        stroke: #414042;
        stroke-linecap: round;
        stroke-linejoin: round;
        stroke-width: 1.28px;
      }

      .af597d26-2883-4e7e-b92a-410e4e6d810f {
        fill: #414042;
      }
    </style>
  </defs>
  <title>2-1</title>
  <circle class="ec7c9da1-df8c-4d13-9bd7-8b98c0aab304" cx="14" cy="14" r="14"/>
  <g>
    <g>
      <path class="aa27a226-d76f-41aa-a863-900ce5e36b2d" d="M25.11,20.25,23,20.34a.64.64,0,0,0-.58.46l-.31,1a.66.66,0,0,1-.63.47H21a.65.65,0,0,0-.65.58L20,25v.08a5.28,5.28,0,0,1-3.92-9,1.07,1.07,0,0,1,.16-.14v0l.28,3a.56.56,0,0,0,.57.51l1.42,0a.55.55,0,0,0,.54-.53l.05-.64a.55.55,0,0,1,.53-.53l.54,0a.59.59,0,0,0,.42-.21l.64-.79a.65.65,0,0,0,.13-.41l-.15-1.49v-.1a5.37,5.37,0,0,1,2.34,1.36A5.28,5.28,0,0,1,25.11,20.25Z"/>
      <path class="bbeb88af-f821-4f82-80dd-2f8c838cb0bc" d="M21.39,16.34a.65.65,0,0,1-.13.41l-.64.79a.59.59,0,0,1-.42.21l-.54,0a.55.55,0,0,0-.53.53l-.05.64a.55.55,0,0,1-.54.53l-1.42,0a.56.56,0,0,1-.57-.51l-.28-3v0a5.24,5.24,0,0,1,5-1.22v.1Z"/>
      <path class="bbeb88af-f821-4f82-80dd-2f8c838cb0bc" d="M25.11,20.25A5.27,5.27,0,0,1,20,25.12V25l.27-2.21a.65.65,0,0,1,.65-.58h.5a.66.66,0,0,0,.63-.47l.31-1a.64.64,0,0,1,.58-.46Z"/>
    </g>
    <g>
      <g>
        <circle class="b2c4e396-c366-4a5d-91de-73f128326139" cx="19.85" cy="19.85" r="5.28"/>
        <path class="b2c4e396-c366-4a5d-91de-73f128326139" d="M16.27,16l.28,3a.55.55,0,0,0,.57.51l1.41,0a.56.56,0,0,0,.55-.53l0-.63a.58.58,0,0,1,.54-.54l.54,0a.56.56,0,0,0,.42-.21l.64-.79a.57.57,0,0,0,.12-.41l-.14-1.49"/>
        <path class="b2c4e396-c366-4a5d-91de-73f128326139" d="M20,25l.27-2.21a.64.64,0,0,1,.66-.58h.49a.66.66,0,0,0,.63-.47l.31-1a.65.65,0,0,1,.58-.46l2.13-.08"/>
      </g>
      <g>
        <circle class="af597d26-2883-4e7e-b92a-410e4e6d810f" cx="13.03" cy="12.9" r="1.15"/>
        <path class="b2c4e396-c366-4a5d-91de-73f128326139" d="M8.83,13.4A5.26,5.26,0,0,1,13.4,8.83"/>
        <path class="b2c4e396-c366-4a5d-91de-73f128326139" d="M5.92,13.05a8.15,8.15,0,0,1,7.13-7.13"/>
        <path class="b2c4e396-c366-4a5d-91de-73f128326139" d="M2.87,12.68a11.29,11.29,0,0,1,9.81-9.81"/>
      </g>
    </g>
  </g>
</svg>
