<svg id="a32acebd-0834-41d2-8f32-e80b1831004d" data-name="Layer 1" xmlns="http://www.w3.org/2000/svg" viewBox="0 0 28 28">
  <defs>
    <style>
      .ab74531e-8d17-4e7f-b151-67c4f36e4113 {
        fill: #e6e6e6;
      }

      .a055bd50-71e1-45a5-a9a8-3527987c7df5 {
        fill: #fff;
      }

      .ad97b260-b08c-4809-aa8b-ceeecaae81e8 {
        fill: #fadc0f;
      }

      .a511a1cb-8088-426b-be75-359f6cb76a75 {
        fill: none;
        stroke: #414042;
        stroke-linecap: round;
        stroke-linejoin: round;
        stroke-width: 1.28px;
      }

      .a919b972-486f-4316-b4e3-d1825d09d619 {
        fill: #414042;
      }
    </style>
  </defs>
  <title>2-2</title>
  <circle class="ab74531e-8d17-4e7f-b151-67c4f36e4113" cx="14" cy="14" r="14"/>
  <g>
    <g>
      <g>
        <path class="a055bd50-71e1-45a5-a9a8-3527987c7df5" d="M20.47,20.61l-2.55.1a.79.79,0,0,0-.7.55l-.38,1.19a.78.78,0,0,1-.75.56h-.6a.79.79,0,0,0-.79.7l-.32,2.66v.09A6.34,6.34,0,0,1,9.65,15.63a1.06,1.06,0,0,1,.2-.17v0l.33,3.61a.68.68,0,0,0,.69.62l1.7-.05a.66.66,0,0,0,.66-.63l0-.77a.67.67,0,0,1,.65-.64l.65,0a.71.71,0,0,0,.5-.25l.77-1A.75.75,0,0,0,16,15.9l-.18-1.8V14a6.2,6.2,0,0,1,2.82,1.64A6.32,6.32,0,0,1,20.47,20.61Z"/>
        <path class="ad97b260-b08c-4809-aa8b-ceeecaae81e8" d="M16,15.9a.75.75,0,0,1-.15.49l-.77,1a.71.71,0,0,1-.5.25l-.65,0a.67.67,0,0,0-.65.64l0,.77a.66.66,0,0,1-.66.63l-1.7.05a.68.68,0,0,1-.69-.62l-.33-3.61v0a6.28,6.28,0,0,1,6-1.47v.11Z"/>
        <path class="ad97b260-b08c-4809-aa8b-ceeecaae81e8" d="M20.47,20.61a6.32,6.32,0,0,1-6.1,5.85v-.09l.32-2.66a.79.79,0,0,1,.79-.7h.6a.78.78,0,0,0,.75-.56l.38-1.19a.79.79,0,0,1,.7-.55Z"/>
      </g>
      <g>
        <circle class="a511a1cb-8088-426b-be75-359f6cb76a75" cx="14.15" cy="20.12" r="6.35"/>
        <path class="a511a1cb-8088-426b-be75-359f6cb76a75" d="M9.84,15.48l.34,3.61a.69.69,0,0,0,.69.62l1.7,0a.68.68,0,0,0,.66-.64l0-.76a.67.67,0,0,1,.65-.64l.65,0a.69.69,0,0,0,.5-.25l.77-1A.72.72,0,0,0,16,15.9l-.18-1.79"/>
        <path class="a511a1cb-8088-426b-be75-359f6cb76a75" d="M14.38,26.37l.32-2.66a.8.8,0,0,1,.79-.71h.59a.82.82,0,0,0,.77-.56l.36-1.18a.8.8,0,0,1,.7-.56l2.57-.1"/>
      </g>
    </g>
    <g>
      <circle class="a919b972-486f-4316-b4e3-d1825d09d619" cx="14.23" cy="10.18" r="1.02"/>
      <path class="a511a1cb-8088-426b-be75-359f6cb76a75" d="M11.27,7.85a4.67,4.67,0,0,1,5.75,0"/>
      <path class="a511a1cb-8088-426b-be75-359f6cb76a75" d="M9.67,5.8a7.29,7.29,0,0,1,9,0"/>
      <path class="a511a1cb-8088-426b-be75-359f6cb76a75" d="M8,3.66a10,10,0,0,1,12.32,0"/>
    </g>
  </g>
</svg>
