<svg id="feb721e9-e38f-40bb-a460-d0dc120a4790" data-name="Layer 1" xmlns="http://www.w3.org/2000/svg" viewBox="0 0 28 28">
  <defs>
    <style>
      .b30d1a43-d1d1-448a-9935-e77cadfce16f {
        fill: #e6e6e6;
      }

      .f774c9f9-74fa-4948-9fba-205903d156ee {
        fill: #fadc0f;
      }

      .ba662029-5d30-42c2-a763-e55ae4ab4045 {
        fill: #fff;
      }

      .e0437bc9-0ee8-4032-8450-5d6e040244f3 {
        fill: none;
        stroke: #414042;
        stroke-linecap: round;
        stroke-linejoin: round;
        stroke-width: 1.28px;
      }
    </style>
  </defs>
  <title>22</title>
  <circle class="b30d1a43-d1d1-448a-9935-e77cadfce16f" cx="14" cy="14" r="14"/>
  <g>
    <g>
      <path class="f774c9f9-74fa-4948-9fba-205903d156ee" d="M17.93,24.36H10.05a3.3,3.3,0,0,1-3.28-3,85.44,85.44,0,0,1,0-14.66,3.3,3.3,0,0,1,3.28-3h7.88a3.29,3.29,0,0,1,3.27,3,78.47,78.47,0,0,1,0,14.7A3.29,3.29,0,0,1,17.93,24.36Z"/>
      <circle class="ba662029-5d30-42c2-a763-e55ae4ab4045" cx="14" cy="19.48" r="1.49"/>
    </g>
    <g>
      <path class="e0437bc9-0ee8-4032-8450-5d6e040244f3" d="M17.93,24.36H10.05a3.3,3.3,0,0,1-3.28-3,85.44,85.44,0,0,1,0-14.66,3.3,3.3,0,0,1,3.28-3h7.88a3.29,3.29,0,0,1,3.27,3,78.47,78.47,0,0,1,0,14.7A3.29,3.29,0,0,1,17.93,24.36Z"/>
      <circle class="e0437bc9-0ee8-4032-8450-5d6e040244f3" cx="14" cy="19.48" r="1.49"/>
      <line class="e0437bc9-0ee8-4032-8450-5d6e040244f3" x1="11.76" y1="7.78" x2="16.24" y2="7.78"/>
    </g>
  </g>
</svg>
