<svg id="a3270e0f-c922-493a-88e4-1de962b1a9d6" data-name="Layer 1" xmlns="http://www.w3.org/2000/svg" viewBox="0 0 28 28">
  <defs>
    <style>
      .bbff77ca-3b31-480e-b9bf-b10b851aea2c {
        fill: #e6e6e6;
      }

      .eacb2f1e-f388-4c6a-b721-30e7ea59ad68 {
        fill: #fadc0f;
      }

      .ea2d8103-a2f8-4ce2-b9ec-9e68d60856eb {
        fill: #fff;
      }

      .a1b0049b-10b5-47c8-918c-ef76c632b485 {
        fill: none;
        stroke: #414042;
        stroke-linecap: round;
        stroke-linejoin: round;
        stroke-width: 1.28px;
      }

      .b1dff5b7-4af4-4a6b-a890-2aac8dc619d4 {
        fill: #414042;
      }
    </style>
  </defs>
  <title>26</title>
  <circle class="bbff77ca-3b31-480e-b9bf-b10b851aea2c" cx="14" cy="14" r="14"/>
  <g>
    <g>
      <path class="eacb2f1e-f388-4c6a-b721-30e7ea59ad68" d="M15,15.15a2.83,2.83,0,0,1,0,.5,1.47,1.47,0,0,1-1.44,1.18H11.9a1.55,1.55,0,0,0,0-.31,1.84,1.84,0,0,0-3.67,0,1.55,1.55,0,0,0,0,.31H2.11l0-4.61H9.7a26.77,26.77,0,0,1,3.34.48A2.5,2.5,0,0,1,15,15.15Z"/>
      <path class="ea2d8103-a2f8-4ce2-b9ec-9e68d60856eb" d="M9.6,12.22H2.07L2,9.64H2.4a11.35,11.35,0,0,1,5.92,2A2.6,2.6,0,0,0,9.6,12.22Z"/>
      <path class="ea2d8103-a2f8-4ce2-b9ec-9e68d60856eb" d="M11.93,16.52a1.55,1.55,0,0,1,0,.31,1.83,1.83,0,0,1-3.61,0,1.55,1.55,0,0,1,0-.31,1.84,1.84,0,0,1,3.67,0Z"/>
      <path class="eacb2f1e-f388-4c6a-b721-30e7ea59ad68" d="M24.51,16.83a1.55,1.55,0,0,0,0-.31,1.84,1.84,0,0,0-3.67,0,1.55,1.55,0,0,0,0,.31H19.42A1.45,1.45,0,0,1,18,15.35L18,12.19s1-.14,1.56-.24c.61-.33,1.16-.62,1.68-.87l.47.5.75.75h3.34l.14,4.5Z"/>
      <path class="ea2d8103-a2f8-4ce2-b9ec-9e68d60856eb" d="M25.84,12.33H22.5l-.75-.75-.47-.5a13,13,0,0,1,4.48-1.37Z"/>
      <path class="ea2d8103-a2f8-4ce2-b9ec-9e68d60856eb" d="M24.54,16.52a1.55,1.55,0,0,1,0,.31,1.83,1.83,0,0,1-3.61,0,1.55,1.55,0,0,1,0-.31,1.84,1.84,0,0,1,3.67,0Z"/>
    </g>
    <g>
      <g>
        <g>
          <path class="a1b0049b-10b5-47c8-918c-ef76c632b485" d="M12.18,16.83h1.35A1.46,1.46,0,0,0,15,15.65h0A2.49,2.49,0,0,0,13,12.71a26.6,26.6,0,0,0-3.33-.48,2.5,2.5,0,0,1-1.38-.55,11.41,11.41,0,0,0-5.92-2H2"/>
          <line class="a1b0049b-10b5-47c8-918c-ef76c632b485" x1="2.12" y1="16.83" x2="8.17" y2="16.83"/>
          <line class="a1b0049b-10b5-47c8-918c-ef76c632b485" x1="2.04" y1="12.22" x2="9.61" y2="12.22"/>
          <line class="a1b0049b-10b5-47c8-918c-ef76c632b485" x1="3.23" y1="12.09" x2="3.23" y2="9.79"/>
          <line class="a1b0049b-10b5-47c8-918c-ef76c632b485" x1="14.76" y1="14.44" x2="13.4" y2="14.44"/>
          <circle class="a1b0049b-10b5-47c8-918c-ef76c632b485" cx="10.1" cy="16.52" r="1.84"/>
        </g>
        <g>
          <line class="a1b0049b-10b5-47c8-918c-ef76c632b485" x1="24.61" y1="16.83" x2="25.98" y2="16.83"/>
          <path class="a1b0049b-10b5-47c8-918c-ef76c632b485" d="M25.77,9.71A15.49,15.49,0,0,0,19.61,12c-.55.1-1.56.24-1.56.24L18,15.35a1.46,1.46,0,0,0,1.46,1.48h1.44"/>
          <polyline class="a1b0049b-10b5-47c8-918c-ef76c632b485" points="21.76 11.58 22.51 12.33 25.98 12.33"/>
          <line class="a1b0049b-10b5-47c8-918c-ef76c632b485" x1="18.01" y1="13.75" x2="19.25" y2="13.75"/>
          <circle class="a1b0049b-10b5-47c8-918c-ef76c632b485" cx="22.71" cy="16.52" r="1.84"/>
        </g>
      </g>
      <g>
        <circle class="b1dff5b7-4af4-4a6b-a890-2aac8dc619d4" cx="15.63" cy="9.99" r="0.81"/>
        <path class="b1dff5b7-4af4-4a6b-a890-2aac8dc619d4" d="M15.63,8.53h0A.67.67,0,0,1,15,7.9l-.21-4.74a.87.87,0,0,1,.87-.9h0a.86.86,0,0,1,.86.9L16.28,7.9A.66.66,0,0,1,15.63,8.53Z"/>
      </g>
      <g>
        <line class="a1b0049b-10b5-47c8-918c-ef76c632b485" x1="8.03" y1="21.55" x2="15.83" y2="21.55"/>
        <polyline class="a1b0049b-10b5-47c8-918c-ef76c632b485" points="14.22 19.93 15.83 21.55 14.19 23.19"/>
      </g>
    </g>
  </g>
</svg>
