<svg id="b50c05ae-aaa3-41b5-89e2-ba971c445345" data-name="Layer 1" xmlns="http://www.w3.org/2000/svg" viewBox="0 0 28 28">
  <defs>
    <style>
      .affc626c-3fb0-4504-88e0-59f3eff7f6cf {
        fill: #e6e6e6;
      }

      .bf225bf1-dbd9-4d10-b8f6-9a7b1e1ad0e1 {
        fill: #fadc0f;
      }

      .ab40d7d9-58cd-4ed9-93a1-a1a5715ae440 {
        fill: #fff;
      }

      .b7e6f31c-1ac2-4025-925b-7ba587e7f502 {
        fill: none;
        stroke: #414042;
        stroke-linecap: round;
        stroke-linejoin: round;
        stroke-width: 1.28px;
      }
    </style>
  </defs>
  <title>28</title>
  <circle class="affc626c-3fb0-4504-88e0-59f3eff7f6cf" cx="14" cy="14" r="14"/>
  <g>
    <g>
      <path class="bf225bf1-dbd9-4d10-b8f6-9a7b1e1ad0e1" d="M10.92,22.79l-2-2a2.47,2.47,0,0,1-.06-3.44c2.5-2.67,5.09-5.26,7.74-7.78a3.39,3.39,0,0,1,4.72.08l.76.76a3.4,3.4,0,0,1,.06,4.74q-3.78,3.95-7.74,7.71A2.48,2.48,0,0,1,10.92,22.79Z"/>
      <path class="ab40d7d9-58cd-4ed9-93a1-a1a5715ae440" d="M19.46,12.22a3,3,0,0,1,1,2.42l-1.25.66a7.24,7.24,0,0,0-2.86-2.87L17,11.18a3,3,0,0,1,2.42,1"/>
      <path class="ab40d7d9-58cd-4ed9-93a1-a1a5715ae440" d="M11.65,20a2.57,2.57,0,0,0,2.1.9l.56-1.08-2.47-2.48-1.09.56a2.56,2.56,0,0,0,.9,2.1"/>
    </g>
    <g>
      <g>
        <path class="b7e6f31c-1ac2-4025-925b-7ba587e7f502" d="M10.92,22.79l-2-2a2.47,2.47,0,0,1-.06-3.44c2.5-2.67,5.09-5.26,7.74-7.78a3.39,3.39,0,0,1,4.72.08l.76.76a3.4,3.4,0,0,1,.06,4.74q-3.78,3.95-7.74,7.71A2.48,2.48,0,0,1,10.92,22.79Z"/>
        <path class="b7e6f31c-1ac2-4025-925b-7ba587e7f502" d="M19.46,12.22a3,3,0,0,1,1,2.42l-1.25.66a7.24,7.24,0,0,0-2.86-2.87L17,11.18a3,3,0,0,1,2.42,1"/>
        <path class="b7e6f31c-1ac2-4025-925b-7ba587e7f502" d="M11.65,20a2.57,2.57,0,0,0,2.1.9l.56-1.08-2.47-2.48-1.09.56a2.56,2.56,0,0,0,.9,2.1"/>
        <line class="b7e6f31c-1ac2-4025-925b-7ba587e7f502" x1="14.65" y1="11.39" x2="12.71" y2="11.38"/>
        <line class="b7e6f31c-1ac2-4025-925b-7ba587e7f502" x1="20.29" y1="17.03" x2="20.3" y2="18.97"/>
      </g>
      <line class="b7e6f31c-1ac2-4025-925b-7ba587e7f502" x1="5.69" y1="20.31" x2="5.71" y2="23.25"/>
      <line class="b7e6f31c-1ac2-4025-925b-7ba587e7f502" x1="5.66" y1="15.06" x2="5.67" y2="17.74"/>
      <line class="b7e6f31c-1ac2-4025-925b-7ba587e7f502" x1="5.62" y1="9.66" x2="5.64" y2="12.59"/>
      <line class="b7e6f31c-1ac2-4025-925b-7ba587e7f502" x1="5.59" y1="4.7" x2="5.61" y2="7.18"/>
      <line class="b7e6f31c-1ac2-4025-925b-7ba587e7f502" x1="21.73" y1="21.3" x2="21.74" y2="23.85"/>
      <line class="b7e6f31c-1ac2-4025-925b-7ba587e7f502" x1="21.62" y1="4.15" x2="21.64" y2="6.4"/>
    </g>
  </g>
</svg>
