<svg id="a5c7de91-10bf-4822-87ad-1903f5e80fda" data-name="Layer 1" xmlns="http://www.w3.org/2000/svg" viewBox="0 0 28 28">
  <defs>
    <style>
      .b8162b9d-be2f-4cbc-a727-279c1c4449c9 {
        fill: #e6e6e6;
      }

      .b9fb4bde-d994-4c61-a2c6-963738eb574d {
        fill: #fff;
      }

      .ff0ea401-196a-4df8-8684-a57d6ea46b1e {
        fill: #fadc0f;
      }

      .aad60a49-3e56-4f0a-9f87-6cb8ddf8377d {
        fill: none;
      }

      .aad60a49-3e56-4f0a-9f87-6cb8ddf8377d, .add6858a-2f3b-42a3-be18-7d3e5f6a578e {
        stroke: #414042;
        stroke-linecap: round;
        stroke-linejoin: round;
      }

      .add6858a-2f3b-42a3-be18-7d3e5f6a578e {
        fill: #414042;
      }
    </style>
  </defs>
  <title>29</title>
  <circle class="b8162b9d-be2f-4cbc-a727-279c1c4449c9" cx="14" cy="14" r="14"/>
  <g>
    <g>
      <path class="b9fb4bde-d994-4c61-a2c6-963738eb574d" d="M26.05,9v3.14a1.51,1.51,0,0,1-1.51,1.51H20.22a13.56,13.56,0,0,0,1.73-5h3.8A.3.3,0,0,1,26.05,9Z"/>
      <path class="b9fb4bde-d994-4c61-a2c6-963738eb574d" d="M23.72,13.63v2.18a9.7,9.7,0,0,1-2.85,6.88,9.52,9.52,0,0,1-2,1.53A9.73,9.73,0,0,1,4.27,15.81V13.63H7.32a13.75,13.75,0,0,0,2.21,4,2.29,2.29,0,0,1,.17.23,27.46,27.46,0,0,1,2.09,4.77s.56-.38,1.42-1.08c.68-.55,1.54-1.3,2.47-2.2A31.2,31.2,0,0,0,17.85,17a22.7,22.7,0,0,0,2.37-3.38Z"/>
      <path class="ff0ea401-196a-4df8-8684-a57d6ea46b1e" d="M22,8.6s0,.05,0,.08a13.56,13.56,0,0,1-1.73,5A22.7,22.7,0,0,1,17.85,17a31.2,31.2,0,0,1-2.17,2.34c-.93.9-1.79,1.65-2.47,2.2-.86.7-1.42,1.08-1.42,1.08A27.46,27.46,0,0,0,9.7,17.86a2.29,2.29,0,0,0-.17-.23,13.75,13.75,0,0,1-2.21-4A24.82,24.82,0,0,1,6,8.68.45.45,0,0,1,6,8.6a11.83,11.83,0,0,1,10.9-1.14l.27.12A12.25,12.25,0,0,1,22,8.6Z"/>
      <path class="b9fb4bde-d994-4c61-a2c6-963738eb574d" d="M7.32,13.63H3.45a1.52,1.52,0,0,1-1.51-1.51V9a.31.31,0,0,1,.3-.3H6A24.82,24.82,0,0,0,7.32,13.63Z"/>
    </g>
    <g>
      <path class="aad60a49-3e56-4f0a-9f87-6cb8ddf8377d" d="M7.29,13.63H3.45a1.52,1.52,0,0,1-1.51-1.51V9a.31.31,0,0,1,.31-.3H6"/>
      <path class="aad60a49-3e56-4f0a-9f87-6cb8ddf8377d" d="M22,8.68h3.74a.31.31,0,0,1,.31.3v3.14a1.52,1.52,0,0,1-1.51,1.51H20.26"/>
      <path class="aad60a49-3e56-4f0a-9f87-6cb8ddf8377d" d="M4.27,13.63v2.18A9.73,9.73,0,0,0,14,25.54h0a9.73,9.73,0,0,0,9.73-9.73V13.63"/>
      <path class="aad60a49-3e56-4f0a-9f87-6cb8ddf8377d" d="M17.91,17.06a4.89,4.89,0,0,1,1,2.93v4.23"/>
      <path class="aad60a49-3e56-4f0a-9f87-6cb8ddf8377d" d="M9.21,24.23V20a4.81,4.81,0,0,1,.47-2.08"/>
      <path class="add6858a-2f3b-42a3-be18-7d3e5f6a578e" d="M15.79,19.94A1.79,1.79,0,0,1,14,21.73a1.76,1.76,0,0,1-.79-.18c.68-.55,1.55-1.3,2.47-2.2A1.67,1.67,0,0,1,15.79,19.94Z"/>
      <path class="aad60a49-3e56-4f0a-9f87-6cb8ddf8377d" d="M13.21,21.55c-.86.7-1.42,1.08-1.42,1.08s-1.31-3.9-2.26-5C6.75,14.31,6,8.6,6,8.6A11.85,11.85,0,0,1,16.94,7.46"/>
      <path class="aad60a49-3e56-4f0a-9f87-6cb8ddf8377d" d="M13.54,8A13.68,13.68,0,0,1,22,8.6c-.48,4.24-3.62,8.14-6.29,10.75"/>
    </g>
  </g>
</svg>
