<svg id="b6d17021-44f8-4392-8126-74cd170a89b6" data-name="Layer 1" xmlns="http://www.w3.org/2000/svg" viewBox="0 0 28 28">
  <defs>
    <style>
      .affd6ca9-0635-4ec7-b3a4-7a84b53f2a86 {
        fill: #e6e6e6;
      }

      .eaa4115a-e2b6-4017-8812-6a79e5044585 {
        fill: #fadc0f;
      }

      .a2ced6ce-38c7-41d1-a32b-0c10722de81d {
        fill: #fff;
      }

      .bbc3a48d-9595-4050-902a-41335c6acfda {
        fill: none;
        stroke: #414042;
        stroke-linecap: round;
        stroke-linejoin: round;
        stroke-width: 1.28px;
      }
    </style>
  </defs>
  <title>31</title>
  <circle class="affd6ca9-0635-4ec7-b3a4-7a84b53f2a86" cx="14" cy="14" r="14"/>
  <g>
    <g>
      <path class="eaa4115a-e2b6-4017-8812-6a79e5044585" d="M18.93,9.87V20.64l.1,1a2.42,2.42,0,0,1-1.43,2.46,8.57,8.57,0,0,1-3.61.52,8.76,8.76,0,0,1-3.62-.52A2.41,2.41,0,0,1,9,21.68l.09-1V9.87l-.16-1.3a3.93,3.93,0,0,1,.89-3.08A3,3,0,0,1,12,4.3h4a3,3,0,0,1,2.21,1.18,4,4,0,0,1,.89,3.08Z"/>
      <path class="a2ced6ce-38c7-41d1-a32b-0c10722de81d" d="M17.33,10l-1,1.32s-.78-.07-2.32-.07-2.32.06-2.32.06l-1-1.32A4.39,4.39,0,0,1,14,8.37h0A4.38,4.38,0,0,1,17.33,10Z"/>
      <path class="a2ced6ce-38c7-41d1-a32b-0c10722de81d" d="M17.1,20.54a5.21,5.21,0,0,1-6.23,0l1.1-1.4h4Z"/>
    </g>
    <g>
      <path class="bbc3a48d-9595-4050-902a-41335c6acfda" d="M14,11.26c-1.55,0-2.32.06-2.32.06l-1-1.32A4.38,4.38,0,0,1,14,8.37"/>
      <path class="bbc3a48d-9595-4050-902a-41335c6acfda" d="M9.05,9.87v0Z"/>
      <path class="bbc3a48d-9595-4050-902a-41335c6acfda" d="M9.05,9.87l-.17-1.3a3.93,3.93,0,0,1,.89-3.08A3,3,0,0,1,12,4.3h2"/>
      <path class="bbc3a48d-9595-4050-902a-41335c6acfda" d="M9.05,20.64l-.1,1a2.41,2.41,0,0,0,1.42,2.46,8.79,8.79,0,0,0,3.62.52"/>
      <polyline class="bbc3a48d-9595-4050-902a-41335c6acfda" points="9.04 10.74 8.02 10.74 8.02 11.32"/>
      <path class="bbc3a48d-9595-4050-902a-41335c6acfda" d="M14,11.26c1.55,0,2.32.07,2.32.07l1-1.32A4.35,4.35,0,0,0,14,8.38"/>
      <path class="bbc3a48d-9595-4050-902a-41335c6acfda" d="M18.94,9.87v0Z"/>
      <path class="bbc3a48d-9595-4050-902a-41335c6acfda" d="M18.94,9.87l.16-1.3a4,4,0,0,0-.89-3.08A3,3,0,0,0,16,4.31H14"/>
      <path class="bbc3a48d-9595-4050-902a-41335c6acfda" d="M18.94,20.64l.09,1a2.41,2.41,0,0,1-1.42,2.46,8.59,8.59,0,0,1-3.62.52"/>
      <polyline class="bbc3a48d-9595-4050-902a-41335c6acfda" points="18.94 10.75 19.96 10.75 19.96 11.33"/>
      <path class="bbc3a48d-9595-4050-902a-41335c6acfda" d="M17.11,20.54a5.22,5.22,0,0,1-6.24,0l1.1-1.4h4Z"/>
      <line class="bbc3a48d-9595-4050-902a-41335c6acfda" x1="9.77" y1="6" x2="11.94" y2="6"/>
      <line class="bbc3a48d-9595-4050-902a-41335c6acfda" x1="16.11" y1="6" x2="18.21" y2="6"/>
      <line class="bbc3a48d-9595-4050-902a-41335c6acfda" x1="5.46" y1="7.09" x2="5.46" y2="21.92"/>
      <line class="bbc3a48d-9595-4050-902a-41335c6acfda" x1="2.75" y1="9.49" x2="2.75" y2="19.21"/>
      <line class="bbc3a48d-9595-4050-902a-41335c6acfda" x1="22.68" y1="7.42" x2="22.68" y2="22.24"/>
      <line class="bbc3a48d-9595-4050-902a-41335c6acfda" x1="25.39" y1="9.82" x2="25.39" y2="19.54"/>
    </g>
  </g>
</svg>
