<svg id="e3cbc075-7da7-4eae-ba23-16ac461bd421" data-name="Layer 1" xmlns="http://www.w3.org/2000/svg" viewBox="0 0 28 28">
  <defs>
    <style>
      .a696ac19-731a-4f18-843c-50f444b555ab {
        fill: #e6e6e6;
      }

      .b239e177-60f5-45db-9f4c-1278ca027163 {
        fill: #fadc0f;
      }

      .a1c7df99-08c3-4bd2-9f2e-1e545bd41640 {
        fill: #fff;
      }

      .f00a0cc0-133e-4858-a858-db56aba4e765 {
        fill: none;
        stroke: #414042;
        stroke-linecap: round;
        stroke-linejoin: round;
        stroke-width: 1.28px;
      }
    </style>
  </defs>
  <title>36</title>
  <circle class="a696ac19-731a-4f18-843c-50f444b555ab" cx="14" cy="14" r="14"/>
  <g>
    <g>
      <path class="b239e177-60f5-45db-9f4c-1278ca027163" d="M19.65,6.59A2.87,2.87,0,0,1,18,9.51a10.27,10.27,0,0,1-4.3.62,10.21,10.21,0,0,1-4.3-.62,2.88,2.88,0,0,1-1.7-2.93V5.35l0-2.71H19.61l.05,2.71Z"/>
      <path class="a1c7df99-08c3-4bd2-9f2e-1e545bd41640" d="M18,5.09a6.15,6.15,0,0,1-8.6,0l1.51-1.74a4.4,4.4,0,0,0,5.58,0Z"/>
      <path class="b239e177-60f5-45db-9f4c-1278ca027163" d="M19.73,20.13l-.19,1.54V25.3H7.78V21.67l-.2-1.55a4.75,4.75,0,0,1,1.06-3.66,3.52,3.52,0,0,1,2.62-1.41h4.79a3.52,3.52,0,0,1,2.62,1.41A4.66,4.66,0,0,1,19.73,20.13Z"/>
      <path class="a1c7df99-08c3-4bd2-9f2e-1e545bd41640" d="M17.89,21.55,16.6,22.8a5.78,5.78,0,0,0-2.94-.63,5.92,5.92,0,0,0-2.95.62L9.42,21.54a5.7,5.7,0,0,1,4.24-1.89h0A5.67,5.67,0,0,1,17.89,21.55Z"/>
    </g>
    <g>
      <g>
        <line class="f00a0cc0-133e-4858-a858-db56aba4e765" x1="7.7" y1="2.64" x2="7.65" y2="5.35"/>
        <line class="f00a0cc0-133e-4858-a858-db56aba4e765" x1="19.62" y1="2.64" x2="19.67" y2="5.35"/>
        <g>
          <path class="f00a0cc0-133e-4858-a858-db56aba4e765" d="M7.65,5.35l0,1.23A2.88,2.88,0,0,0,9.36,9.51a10.24,10.24,0,0,0,4.3.62"/>
          <path class="f00a0cc0-133e-4858-a858-db56aba4e765" d="M19.67,5.35l0,1.24A2.85,2.85,0,0,1,18,9.51a10.24,10.24,0,0,1-4.3.62"/>
          <path class="f00a0cc0-133e-4858-a858-db56aba4e765" d="M18,5.09a6.15,6.15,0,0,1-8.6,0l1.51-1.74a4.4,4.4,0,0,0,5.58,0Z"/>
          <line class="f00a0cc0-133e-4858-a858-db56aba4e765" x1="9.87" y1="8.73" x2="10.89" y2="8.73"/>
          <line class="f00a0cc0-133e-4858-a858-db56aba4e765" x1="16.42" y1="8.73" x2="17.39" y2="8.73"/>
        </g>
      </g>
      <g>
        <g>
          <path class="f00a0cc0-133e-4858-a858-db56aba4e765" d="M13.66,22.17a5.86,5.86,0,0,0-2.94.62l-1.3-1.25a5.7,5.7,0,0,1,4.24-1.89"/>
          <line class="f00a0cc0-133e-4858-a858-db56aba4e765" x1="7.78" y1="21.67" x2="7.78" y2="25.3"/>
          <path class="f00a0cc0-133e-4858-a858-db56aba4e765" d="M7.78,21.67l-.19-1.55a4.71,4.71,0,0,1,1.05-3.66,3.56,3.56,0,0,1,2.63-1.41h2.39"/>
          <path class="f00a0cc0-133e-4858-a858-db56aba4e765" d="M7.78,22.71H7.26a.69.69,0,0,0-.7.69h0"/>
          <path class="f00a0cc0-133e-4858-a858-db56aba4e765" d="M13.66,22.17a5.78,5.78,0,0,1,2.94.63l1.3-1.25a5.7,5.7,0,0,0-4.24-1.89"/>
          <line class="f00a0cc0-133e-4858-a858-db56aba4e765" x1="19.54" y1="21.67" x2="19.54" y2="25.3"/>
          <path class="f00a0cc0-133e-4858-a858-db56aba4e765" d="M19.54,21.67l.19-1.54a4.69,4.69,0,0,0-1.05-3.66,3.56,3.56,0,0,0-2.63-1.41H13.66"/>
          <path class="f00a0cc0-133e-4858-a858-db56aba4e765" d="M19.54,22.71h.52a.7.7,0,0,1,.7.7h0"/>
        </g>
        <line class="f00a0cc0-133e-4858-a858-db56aba4e765" x1="8.69" y1="16.89" x2="11.27" y2="16.89"/>
        <line class="f00a0cc0-133e-4858-a858-db56aba4e765" x1="16.23" y1="16.89" x2="18.57" y2="16.89"/>
      </g>
      <g>
        <g>
          <line class="f00a0cc0-133e-4858-a858-db56aba4e765" x1="23.12" y1="9.46" x2="23.12" y2="16.89"/>
          <polyline class="f00a0cc0-133e-4858-a858-db56aba4e765" points="21.58 15.35 23.12 16.89 24.68 15.33"/>
        </g>
        <polyline class="f00a0cc0-133e-4858-a858-db56aba4e765" points="21.58 10.79 23.12 9.25 24.68 10.81"/>
      </g>
    </g>
  </g>
</svg>
