<svg id="b0c1039f-47e4-4efd-adcc-697e66fc9120" data-name="Layer 1" xmlns="http://www.w3.org/2000/svg" viewBox="0 0 28 28">
  <defs>
    <style>
      .bffc1fa8-7e8c-4fb2-8c67-05a156750739 {
        fill: #e6e6e6;
      }

      .b8d8153f-c900-4851-b83d-4bc5da9a2938 {
        fill: #fadc0f;
      }

      .afe385b8-56b6-4246-a1b3-485b92beec79 {
        fill: #fff;
      }

      .b710d250-8071-488a-a3eb-98724dc9a1c0 {
        fill: none;
        stroke: #414042;
        stroke-linecap: round;
        stroke-linejoin: round;
        stroke-width: 1.28px;
      }
    </style>
  </defs>
  <title>38-2</title>
  <circle class="bffc1fa8-7e8c-4fb2-8c67-05a156750739" cx="14" cy="14" r="14"/>
  <g>
    <g>
      <g>
        <path class="b8d8153f-c900-4851-b83d-4bc5da9a2938" d="M21.87,5.61,22,23.54a1.2,1.2,0,0,1-1,1.17,24.72,24.72,0,0,1-8,0,1.18,1.18,0,0,1-1-1.17l.12-17.93a3.58,3.58,0,0,1,3.57-3.56h2.57A3.59,3.59,0,0,1,21.87,5.61Z"/>
        <path class="afe385b8-56b6-4246-a1b3-485b92beec79" d="M17,6.33a6.09,6.09,0,0,1,2.77.46,1,1,0,0,1,.55,1l-.08,1.82a.32.32,0,0,1-.33.3c-1,0-4.86,0-5.83,0a.31.31,0,0,1-.32-.3l-.09-1.82a1,1,0,0,1,.55-1A6.18,6.18,0,0,1,17,6.33Z"/>
      </g>
      <circle class="afe385b8-56b6-4246-a1b3-485b92beec79" cx="5.16" cy="14.97" r="1.02"/>
    </g>
    <g>
      <g>
        <path class="b710d250-8071-488a-a3eb-98724dc9a1c0" d="M21.87,5.61,22,23.54a1.2,1.2,0,0,1-1,1.17,24.72,24.72,0,0,1-8,0,1.18,1.18,0,0,1-1-1.17l.12-17.93a3.58,3.58,0,0,1,3.57-3.56h2.57A3.59,3.59,0,0,1,21.87,5.61Z"/>
        <path class="b710d250-8071-488a-a3eb-98724dc9a1c0" d="M17,6.33a6.09,6.09,0,0,1,2.77.46,1,1,0,0,1,.55,1l-.08,1.82a.32.32,0,0,1-.33.3c-1,0-4.86,0-5.83,0a.31.31,0,0,1-.32-.3l-.09-1.82a1,1,0,0,1,.55-1A6.18,6.18,0,0,1,17,6.33Z"/>
        <path class="b710d250-8071-488a-a3eb-98724dc9a1c0" d="M11.06,9.43a3.37,3.37,0,0,1,1.06-.65"/>
        <path class="b710d250-8071-488a-a3eb-98724dc9a1c0" d="M22.92,9.43a3.34,3.34,0,0,0-1.07-.65"/>
        <line class="b710d250-8071-488a-a3eb-98724dc9a1c0" x1="13" y1="3.63" x2="15.09" y2="3.63"/>
        <line class="b710d250-8071-488a-a3eb-98724dc9a1c0" x1="18.85" y1="3.63" x2="20.94" y2="3.63"/>
      </g>
      <g>
        <g>
          <circle class="b710d250-8071-488a-a3eb-98724dc9a1c0" cx="5.16" cy="14.97" r="1.02"/>
          <path class="b710d250-8071-488a-a3eb-98724dc9a1c0" d="M8,11.43l-1.45-.25a8.43,8.43,0,0,0-2.79,0l-1.41.25"/>
        </g>
        <line class="b710d250-8071-488a-a3eb-98724dc9a1c0" x1="5.19" y1="8.11" x2="5.19" y2="12.44"/>
        <line class="b710d250-8071-488a-a3eb-98724dc9a1c0" x1="5.16" y1="16.65" x2="5.16" y2="19.89"/>
        <path class="b710d250-8071-488a-a3eb-98724dc9a1c0" d="M2.37,11.25v.88a17,17,0,0,0,.22,2.76l.16,1"/>
        <path class="b710d250-8071-488a-a3eb-98724dc9a1c0" d="M8,11.29v.85A17.68,17.68,0,0,1,7.79,15l-.16.94"/>
        <path class="b710d250-8071-488a-a3eb-98724dc9a1c0" d="M7.63,15.9a.89.89,0,0,1-.89.75h-1"/>
        <path class="b710d250-8071-488a-a3eb-98724dc9a1c0" d="M4.56,16.65H3.64a.9.9,0,0,1-.9-.9"/>
      </g>
    </g>
  </g>
</svg>
