<svg id="fcca6547-5ebf-4837-be3a-3d6575719758" data-name="Layer 1" xmlns="http://www.w3.org/2000/svg" viewBox="0 0 28 28">
  <defs>
    <style>
      .bb7ff395-fe3d-41b5-92b6-60928726438c {
        fill: #e6e6e6;
      }

      .aaab22d9-0c86-434b-be75-dcabee300812 {
        fill: #fff;
      }

      .a139f791-03af-4443-9dd5-7fed68ed0d07 {
        fill: #fadc0f;
      }

      .a628dd99-1503-44f1-888f-e95b307af1d0 {
        fill: none;
        stroke: #414042;
        stroke-linecap: round;
        stroke-linejoin: round;
        stroke-width: 1.28px;
      }
    </style>
  </defs>
  <title>39-1</title>
  <circle class="bb7ff395-fe3d-41b5-92b6-60928726438c" cx="14" cy="14" r="14"/>
  <g>
    <g>
      <rect class="aaab22d9-0c86-434b-be75-dcabee300812" x="16.83" y="3.25" width="1.86" height="8" rx="0.93" transform="translate(35.52 14.51) rotate(-180)"/>
      <rect class="aaab22d9-0c86-434b-be75-dcabee300812" x="16.89" y="16.87" width="1.86" height="8" rx="0.93" transform="translate(35.64 41.74) rotate(-180)"/>
      <g>
        <path class="a139f791-03af-4443-9dd5-7fed68ed0d07" d="M12.14,9.18v3.65a2.87,2.87,0,0,0,.17,1l1.51,4.12h0a1.34,1.34,0,0,0,1.27.93h5.68a1.33,1.33,0,0,0,1.28-1h0l1.51-4.13a2.81,2.81,0,0,0,.18-1V9.08a.64.64,0,0,0-1.28,0l-.22,3.85a1,1,0,0,1-.1.39l-.87,1.79a1.94,1.94,0,0,1-1.74,1.09H16.3a1.93,1.93,0,0,1-1.74-1.09l-.82-1.68a1.08,1.08,0,0,1-.11-.4l-.21-3.86a.64.64,0,0,0-1.28,0Z"/>
        <circle class="aaab22d9-0c86-434b-be75-dcabee300812" cx="17.79" cy="17.04" r="2.02"/>
      </g>
    </g>
    <g>
      <path class="a628dd99-1503-44f1-888f-e95b307af1d0" d="M12.53,9.39l2.69-.46a15.15,15.15,0,0,1,5.16,0L23,9.39"/>
      <line class="a628dd99-1503-44f1-888f-e95b307af1d0" x1="17.76" y1="11.26" x2="17.76" y2="15.02"/>
      <rect class="a628dd99-1503-44f1-888f-e95b307af1d0" x="16.83" y="3.25" width="1.86" height="8" rx="0.93" transform="translate(35.52 14.51) rotate(-180)"/>
      <path class="a628dd99-1503-44f1-888f-e95b307af1d0" d="M16.89,18.88v5.06a.93.93,0,0,0,.93.93h0a.93.93,0,0,0,.93-.93V18.85"/>
      <g>
        <path class="a628dd99-1503-44f1-888f-e95b307af1d0" d="M18.78,18.85h2a1.33,1.33,0,0,0,1.28-1h0l1.51-4.13a2.81,2.81,0,0,0,.18-1V9.08a.64.64,0,0,0-1.28,0l-.22,3.85a1,1,0,0,1-.1.39l-.87,1.79a1.93,1.93,0,0,1-1.64,1.08"/>
        <path class="a628dd99-1503-44f1-888f-e95b307af1d0" d="M16,16.13a1.92,1.92,0,0,1-1.39-1l-.82-1.68a1.08,1.08,0,0,1-.11-.4l-.21-3.86a.64.64,0,0,0-1.28,0v3.65a2.87,2.87,0,0,0,.17,1l1.51,4.12h0a1.34,1.34,0,0,0,1.27.93h1.74"/>
        <circle class="a628dd99-1503-44f1-888f-e95b307af1d0" cx="17.79" cy="17.04" r="2.02"/>
      </g>
      <g>
        <line class="a628dd99-1503-44f1-888f-e95b307af1d0" x1="9.8" y1="14.59" x2="2" y2="14.59"/>
        <polyline class="a628dd99-1503-44f1-888f-e95b307af1d0" points="3.62 12.97 2 14.59 3.65 16.23"/>
      </g>
    </g>
  </g>
</svg>
