<svg id="edc48560-5fb1-4438-b472-92ba0ba611c7" data-name="Layer 1" xmlns="http://www.w3.org/2000/svg" viewBox="0 0 28 28">
  <defs>
    <style>
      .a5ff7961-d3f2-4975-8aec-cc9eafa9e62b {
        fill: #e6e6e6;
      }

      .b4c46303-b273-4bd5-82a8-33eca4ecab60 {
        fill: #fadc0f;
      }

      .aebd7919-f20c-4000-bbc3-9f7720c2d497 {
        fill: #fff;
      }

      .fcc2e650-ad1b-4bf4-a96b-377ee0087efc {
        fill: none;
        stroke: #414042;
        stroke-linecap: round;
        stroke-linejoin: round;
        stroke-width: 1.28px;
      }
    </style>
  </defs>
  <title>4-2</title>
  <circle class="a5ff7961-d3f2-4975-8aec-cc9eafa9e62b" cx="14" cy="14" r="14"/>
  <g>
    <g>
      <path class="b4c46303-b273-4bd5-82a8-33eca4ecab60" d="M16.84,3.45v9.1a6,6,0,0,0-5.32,6,5.59,5.59,0,0,0,.16,1.37H4.44V3.45Z"/>
      <path class="aebd7919-f20c-4000-bbc3-9f7720c2d497" d="M18.11,20.25H17a1.31,1.31,0,0,1-1.31-1.17l-.13-1.16a.51.51,0,0,1,.51-.56h3a.5.5,0,0,1,.5.56l-.12,1.16A1.33,1.33,0,0,1,18.11,20.25Z"/>
    </g>
    <g>
      <polyline class="fcc2e650-ad1b-4bf4-a96b-377ee0087efc" points="11.53 19.9 4.43 19.9 4.43 3.45 16.84 3.45 16.84 12.55"/>
      <polyline class="fcc2e650-ad1b-4bf4-a96b-377ee0087efc" points="7.57 11.15 9.41 13 13.7 8.71"/>
      <g>
        <path class="fcc2e650-ad1b-4bf4-a96b-377ee0087efc" d="M18.11,20.25H17a1.31,1.31,0,0,1-1.31-1.17l-.13-1.16a.51.51,0,0,1,.51-.56h3a.5.5,0,0,1,.5.56l-.12,1.16A1.33,1.33,0,0,1,18.11,20.25Z"/>
        <circle class="fcc2e650-ad1b-4bf4-a96b-377ee0087efc" cx="17.55" cy="18.53" r="6.02"/>
        <line class="fcc2e650-ad1b-4bf4-a96b-377ee0087efc" x1="15.59" y1="18.31" x2="11.53" y2="18.31"/>
        <line class="fcc2e650-ad1b-4bf4-a96b-377ee0087efc" x1="23.56" y1="18.31" x2="19.5" y2="18.31"/>
        <line class="fcc2e650-ad1b-4bf4-a96b-377ee0087efc" x1="17.55" y1="20.25" x2="17.55" y2="24.55"/>
      </g>
    </g>
  </g>
</svg>
