<svg id="b83c9525-ba34-41a1-8025-0cc5c4f02d43" data-name="Layer 1" xmlns="http://www.w3.org/2000/svg" viewBox="0 0 28 28">
  <defs>
    <style>
      .a9b0972b-423e-4ec9-a742-100ee6d89f87 {
        fill: #e6e6e6;
      }

      .e42e9eb7-f126-411f-8d1d-39b2f0ec41e7 {
        fill: #fadc0f;
      }

      .acdcfe1b-9754-4cf6-a1d0-5104ca6311d4, .e836d601-b4ce-4846-b2e7-7354e40cebad {
        fill: #414042;
      }

      .ba8e19a2-92c0-417d-8f53-4a6386797540 {
        fill: none;
      }

      .acdcfe1b-9754-4cf6-a1d0-5104ca6311d4, .ba8e19a2-92c0-417d-8f53-4a6386797540 {
        stroke: #414042;
        stroke-linecap: round;
        stroke-linejoin: round;
        stroke-width: 1.28px;
      }
    </style>
  </defs>
  <title>46</title>
  <circle class="a9b0972b-423e-4ec9-a742-100ee6d89f87" cx="14" cy="14" r="14"/>
  <g>
    <path class="e42e9eb7-f126-411f-8d1d-39b2f0ec41e7" d="M19.16,21.32A5.19,5.19,0,1,1,11,17.08V4.8a3.08,3.08,0,0,1,5.26-2.18,3.13,3.13,0,0,1,.9,2.18V17.22A5.21,5.21,0,0,1,19.16,21.32Z"/>
    <g>
      <g>
        <circle class="e836d601-b4ce-4846-b2e7-7354e40cebad" cx="21.85" cy="15.64" r="0.89"/>
        <path class="e836d601-b4ce-4846-b2e7-7354e40cebad" d="M21.85,13.38h0a.84.84,0,0,1-.84-.8l-.27-6.1a1.11,1.11,0,0,1,1.11-1.16h0A1.11,1.11,0,0,1,23,6.48l-.27,6.1A.84.84,0,0,1,21.85,13.38Z"/>
      </g>
      <path class="ba8e19a2-92c0-417d-8f53-4a6386797540" d="M19.16,21.32A5.19,5.19,0,1,1,11,17.08V4.8a3.08,3.08,0,0,1,5.26-2.18,3.13,3.13,0,0,1,.9,2.18V17.22A5.21,5.21,0,0,1,19.16,21.32Z"/>
      <circle class="acdcfe1b-9754-4cf6-a1d0-5104ca6311d4" cx="13.97" cy="21.32" r="1.44"/>
      <line class="ba8e19a2-92c0-417d-8f53-4a6386797540" x1="13.97" y1="19.53" x2="13.97" y2="11.54"/>
      <line class="ba8e19a2-92c0-417d-8f53-4a6386797540" x1="17.15" y1="5.91" x2="15.55" y2="5.91"/>
      <line class="ba8e19a2-92c0-417d-8f53-4a6386797540" x1="17.15" y1="9.04" x2="15.55" y2="9.04"/>
    </g>
  </g>
</svg>
