<svg id="f93253fc-3613-4cef-b6fb-7d124d7224be" data-name="Layer 1" xmlns="http://www.w3.org/2000/svg" viewBox="0 0 28 28">
  <defs>
    <style>
      .ab40711b-d11a-4009-af42-84c1c85e100a {
        fill: #e6e6e6;
      }

      .f4285710-f4e9-4650-8af8-f4c86bdfd97e {
        fill: #fadc0f;
      }

      .e413b033-7c6e-4ff4-acf4-8a17ceadd6c5 {
        fill: #414042;
      }

      .a39151de-d425-42d8-97c8-ca5d695cdc0d, .a5cd50c7-0d1d-41da-b35c-e54cc22ae804, .a9ace66d-c075-4590-b486-06270296cb0b, .af2081c8-6c9a-4943-b941-4fefcbe8c05b, .b01b4de2-4df1-43eb-9dc7-b3618dcc1364, .b2c7f609-bf4a-45ea-b52b-4141b5a40049, .b6a6ba87-277b-449f-a892-80944fbc5ed4, .b9109c5e-0eb8-430f-844d-c77b5f20c9b6, .ffbaba65-7d6f-461f-adb1-c191de499caf {
        fill: none;
        stroke-linecap: round;
        stroke-linejoin: round;
        stroke-width: 1.28px;
      }

      .b2c7f609-bf4a-45ea-b52b-4141b5a40049 {
        stroke: #414042;
      }

      .af2081c8-6c9a-4943-b941-4fefcbe8c05b {
        stroke: url(#e6365ce6-3361-4191-a9e3-a30dc9ebbee5);
      }

      .a9ace66d-c075-4590-b486-06270296cb0b {
        stroke: #8c8b8d;
      }

      .b6a6ba87-277b-449f-a892-80944fbc5ed4 {
        stroke: #828183;
      }

      .a39151de-d425-42d8-97c8-ca5d695cdc0d {
        stroke: #777678;
      }

      .a5cd50c7-0d1d-41da-b35c-e54cc22ae804 {
        stroke: #6c6b6d;
      }

      .ffbaba65-7d6f-461f-adb1-c191de499caf {
        stroke: #616062;
      }

      .b01b4de2-4df1-43eb-9dc7-b3618dcc1364 {
        stroke: #575658;
      }

      .b9109c5e-0eb8-430f-844d-c77b5f20c9b6 {
        stroke: #4c4b4d;
      }
    </style>
    <linearGradient id="e6365ce6-3361-4191-a9e3-a30dc9ebbee5" x1="13.36" y1="3.29" x2="14.64" y2="3.29" gradientUnits="userSpaceOnUse">
      <stop offset="0" stop-color="#414042"/>
      <stop offset="1" stop-color="#414042"/>
    </linearGradient>
  </defs>
  <title>48</title>
  <circle class="ab40711b-d11a-4009-af42-84c1c85e100a" cx="14" cy="14" r="14"/>
  <g>
    <path class="f4285710-f4e9-4650-8af8-f4c86bdfd97e" d="M19.62,18.19H8.38a.6.6,0,0,1-.51-.92l5.61-9.1a.61.61,0,0,1,1,0l5.61,9.1A.6.6,0,0,1,19.62,18.19Z"/>
    <g>
      <g>
        <circle class="e413b033-7c6e-4ff4-acf4-8a17ceadd6c5" cx="14" cy="16.43" r="0.47"/>
        <path class="e413b033-7c6e-4ff4-acf4-8a17ceadd6c5" d="M14,15.23h0a.45.45,0,0,1-.45-.42l-.14-3.24A.6.6,0,0,1,14,11h0a.6.6,0,0,1,.59.62l-.14,3.24A.45.45,0,0,1,14,15.23Z"/>
      </g>
      <path class="b2c7f609-bf4a-45ea-b52b-4141b5a40049" d="M19.62,18.19H8.38a.6.6,0,0,1-.51-.92l5.61-9.1a.61.61,0,0,1,1,0l5.61,9.1A.6.6,0,0,1,19.62,18.19Z"/>
      <g>
        <line class="af2081c8-6c9a-4943-b941-4fefcbe8c05b" x1="14" y1="1.76" x2="14" y2="4.82"/>
        <line class="a9ace66d-c075-4590-b486-06270296cb0b" x1="22.66" y1="5.34" x2="20.49" y2="7.51"/>
        <line class="b6a6ba87-277b-449f-a892-80944fbc5ed4" x1="26.24" y1="14" x2="23.18" y2="14"/>
        <line class="a39151de-d425-42d8-97c8-ca5d695cdc0d" x1="22.66" y1="22.66" x2="20.49" y2="20.49"/>
        <line class="a5cd50c7-0d1d-41da-b35c-e54cc22ae804" x1="14" y1="26.24" x2="14" y2="23.18"/>
        <line class="ffbaba65-7d6f-461f-adb1-c191de499caf" x1="5.34" y1="22.66" x2="7.51" y2="20.49"/>
        <line class="b01b4de2-4df1-43eb-9dc7-b3618dcc1364" x1="1.76" y1="14" x2="4.82" y2="14"/>
        <line class="b9109c5e-0eb8-430f-844d-c77b5f20c9b6" x1="5.34" y1="5.34" x2="7.51" y2="7.51"/>
      </g>
    </g>
  </g>
</svg>
