<svg id="be412cb5-c21b-4b47-93ab-2519088520ee" data-name="Layer 1" xmlns="http://www.w3.org/2000/svg" viewBox="0 0 28 28">
  <defs>
    <style>
      .a44c150f-44b4-4cb3-9f8e-f96e024d993c {
        fill: #e6e6e6;
      }

      .a1a8758a-1f2b-4ea4-bf4b-aab0945498b7 {
        fill: #fadc0f;
      }

      .acfb7771-b0ad-4236-a7a8-48dcf4fea6c3 {
        fill: #fff;
      }

      .a0391ab9-ad6e-4396-b4af-8d8bf2f503f9 {
        fill: none;
        stroke: #414042;
        stroke-linecap: round;
        stroke-linejoin: round;
        stroke-width: 1.28px;
      }
    </style>
  </defs>
  <title>51</title>
  <circle class="a44c150f-44b4-4cb3-9f8e-f96e024d993c" cx="14" cy="14" r="14"/>
  <g>
    <g>
      <path class="a1a8758a-1f2b-4ea4-bf4b-aab0945498b7" d="M24.86,15.22l-1.18,3.55a.44.44,0,0,1-.55.28l-1-.33-.46-.15a1.57,1.57,0,0,0-3-1l-.15-.05L8.53,14.2,8,14a1.56,1.56,0,0,0-1-1.79,1.58,1.58,0,0,0-1.91.81l-.45-.15L4,12.7a.8.8,0,0,1-.51-1L4.78,7.83A3.09,3.09,0,0,1,5.19,7L6.66,4.94a.89.89,0,0,1,1-.34L18.26,8.11h0l-1,3a.34.34,0,0,0,.21.42l5,1.61h0a2.15,2.15,0,0,0,.41.32l1.75,1.14A.49.49,0,0,1,24.86,15.22Z"/>
      <path class="acfb7771-b0ad-4236-a7a8-48dcf4fea6c3" d="M22.48,13.19l-5-1.61a.34.34,0,0,1-.21-.42l1-3,1.61.53a.9.9,0,0,1,.54.49l1.28,2.94A3.13,3.13,0,0,0,22.48,13.19Z"/>
      <path class="acfb7771-b0ad-4236-a7a8-48dcf4fea6c3" d="M8,14a1.33,1.33,0,0,1,0,.19,1.56,1.56,0,0,1-2,1,1.57,1.57,0,0,1-1-2,1.34,1.34,0,0,1,.07-.18A1.58,1.58,0,0,1,7,12.25,1.56,1.56,0,0,1,8,14Z"/>
      <path class="acfb7771-b0ad-4236-a7a8-48dcf4fea6c3" d="M21.69,18.57a1.33,1.33,0,0,1-.05.19,1.57,1.57,0,0,1-3-1,1.34,1.34,0,0,1,.07-.18,1.57,1.57,0,0,1,3,1Z"/>
    </g>
    <g>
      <path class="a0391ab9-ad6e-4396-b4af-8d8bf2f503f9" d="M22.15,18.72l1,.33a.44.44,0,0,0,.55-.28l1.18-3.55a.49.49,0,0,0-.2-.57l-1.75-1.14a3.21,3.21,0,0,1-1.22-1.43L20.41,9.14a.88.88,0,0,0-.54-.49L7.68,4.6a.9.9,0,0,0-1,.34L5.19,7a3.43,3.43,0,0,0-.41.81L3.5,11.69a.8.8,0,0,0,.51,1l.63.21"/>
      <line class="a0391ab9-ad6e-4396-b4af-8d8bf2f503f9" x1="8.53" y1="14.2" x2="18.59" y2="17.54"/>
      <circle class="a0391ab9-ad6e-4396-b4af-8d8bf2f503f9" cx="6.51" cy="13.74" r="1.57"/>
      <circle class="a0391ab9-ad6e-4396-b4af-8d8bf2f503f9" cx="20.16" cy="18.27" r="1.57"/>
      <path class="a0391ab9-ad6e-4396-b4af-8d8bf2f503f9" d="M18.26,8.11l-1,3.05a.34.34,0,0,0,.21.42l5,1.61"/>
      <line class="a0391ab9-ad6e-4396-b4af-8d8bf2f503f9" x1="24.42" y1="16.55" x2="23.33" y2="16.19"/>
      <line class="a0391ab9-ad6e-4396-b4af-8d8bf2f503f9" x1="4.86" y1="8.19" x2="12.55" y2="10.74"/>
      <line class="a0391ab9-ad6e-4396-b4af-8d8bf2f503f9" x1="1.27" y1="14.76" x2="23.64" y2="22.3"/>
    </g>
  </g>
</svg>
