<svg id="f04ccd02-62dc-47cc-8baf-71ede86719ca" data-name="Layer 1" xmlns="http://www.w3.org/2000/svg" viewBox="0 0 28 28">
  <defs>
    <style>
      .f06b3b7e-2f16-4c38-bec1-0d84047fe8b2 {
        fill: #e6e6e6;
      }

      .e87f2fbc-9aec-4a2c-9a36-fd0311818ad4 {
        fill: #fadc0f;
      }

      .ab9769d2-47d6-4ad1-9d6c-0e1ec32dc69a {
        fill: #fff;
      }

      .e12c970f-8be6-44cf-b8fa-c20069f72b9b {
        fill: none;
        stroke: #414042;
        stroke-linecap: round;
        stroke-linejoin: round;
        stroke-width: 1.28px;
      }
    </style>
  </defs>
  <title>52</title>
  <circle class="f06b3b7e-2f16-4c38-bec1-0d84047fe8b2" cx="14" cy="14" r="14"/>
  <g>
    <g>
      <path class="e87f2fbc-9aec-4a2c-9a36-fd0311818ad4" d="M19.28,16.83v8.33H8.72V16.83A2.84,2.84,0,0,1,8.86,16h.88a2.71,2.71,0,0,0,2.59-1.81c.05-.15.07-.24.07-.24v-.08a23.65,23.65,0,0,1,3.26,0l0,.07s0,.09.07.24A2.71,2.71,0,0,0,18.34,16h.8A2.84,2.84,0,0,1,19.28,16.83Z"/>
      <path class="ab9769d2-47d6-4ad1-9d6c-0e1ec32dc69a" d="M12.4,13.82v.08s0,.09-.07.24A2.71,2.71,0,0,1,9.74,16H8.86a2.94,2.94,0,0,1,2.53-2Z"/>
      <path class="ab9769d2-47d6-4ad1-9d6c-0e1ec32dc69a" d="M19.14,16h-.8a2.71,2.71,0,0,1-2.59-1.81c-.05-.15-.07-.24-.07-.24l0-.07c.31,0,.63,0,.94.07A3,3,0,0,1,19.14,16Z"/>
      <path class="ab9769d2-47d6-4ad1-9d6c-0e1ec32dc69a" d="M16,19.76h-3.9a1.25,1.25,0,0,0-1.18,1.69L11.43,23a.36.36,0,0,0,.39.22,12.28,12.28,0,0,1,4.36,0,.36.36,0,0,0,.39-.22l.56-1.51A1.25,1.25,0,0,0,16,19.76Z"/>
      <path class="e87f2fbc-9aec-4a2c-9a36-fd0311818ad4" d="M19.41,2.2V7.68a2.63,2.63,0,0,1-2.63,2.63h-5.3A2.63,2.63,0,0,1,8.85,7.68V2.2Z"/>
      <path class="ab9769d2-47d6-4ad1-9d6c-0e1ec32dc69a" d="M16.26,7.39H12A1.23,1.23,0,0,1,10.78,6l.32-1.84a.36.36,0,0,1,.46-.28,9.17,9.17,0,0,0,5.14,0,.35.35,0,0,1,.45.28L17.47,6A1.23,1.23,0,0,1,16.26,7.39Z"/>
    </g>
    <g>
      <path class="e12c970f-8be6-44cf-b8fa-c20069f72b9b" d="M8.72,25.16V16.83A3,3,0,0,1,11.4,13.9a25.1,25.1,0,0,1,5.2,0,3,3,0,0,1,2.68,2.93v8.33"/>
      <line class="e12c970f-8be6-44cf-b8fa-c20069f72b9b" x1="8.72" y1="22.03" x2="7.63" y2="22.92"/>
      <line class="e12c970f-8be6-44cf-b8fa-c20069f72b9b" x1="19.28" y1="22.03" x2="20.37" y2="22.92"/>
      <path class="e12c970f-8be6-44cf-b8fa-c20069f72b9b" d="M15.69,13.9a1,1,0,0,0,.07.24A2.69,2.69,0,0,0,18.34,16h.6"/>
      <path class="e12c970f-8be6-44cf-b8fa-c20069f72b9b" d="M12.4,13.9s0,.09-.07.24A2.7,2.7,0,0,1,9.75,16H9.17"/>
      <path class="e12c970f-8be6-44cf-b8fa-c20069f72b9b" d="M16,19.76h-3.9a1.25,1.25,0,0,0-1.18,1.69L11.43,23a.36.36,0,0,0,.39.22,12.28,12.28,0,0,1,4.36,0,.36.36,0,0,0,.39-.22l.56-1.51A1.25,1.25,0,0,0,16,19.76Z"/>
      <path class="e12c970f-8be6-44cf-b8fa-c20069f72b9b" d="M19.41,2.2V7.68a2.63,2.63,0,0,1-2.63,2.63h-5.3A2.63,2.63,0,0,1,8.85,7.68V2.2"/>
      <path class="e12c970f-8be6-44cf-b8fa-c20069f72b9b" d="M16.26,7.39H12A1.23,1.23,0,0,1,10.78,6l.32-1.84a.36.36,0,0,1,.46-.28,9.17,9.17,0,0,0,5.14,0,.35.35,0,0,1,.45.28L17.47,6A1.23,1.23,0,0,1,16.26,7.39Z"/>
      <line class="e12c970f-8be6-44cf-b8fa-c20069f72b9b" x1="9.45" y1="9.1" x2="10.94" y2="9.1"/>
      <line class="e12c970f-8be6-44cf-b8fa-c20069f72b9b" x1="17.32" y1="9.1" x2="18.8" y2="9.1"/>
    </g>
  </g>
</svg>
