<svg width="28" height="28" viewBox="0 0 28 28" fill="none" xmlns="http://www.w3.org/2000/svg">
  <path d="M20.85 4.24C20.8477 4.32966 20.8121 4.41525 20.75 4.48C20.21 5.16 17.38 5.68 13.98 5.68C10.58 5.68 7.76 5.16 7.22 4.48C7.15793 4.41525 7.12227 4.32966 7.12 4.24C7.12 3.45 10.19 2.81 13.98 2.81C17.77 2.81 20.85 3.45 20.85 4.24Z" fill="#959595"/>
  <path d="M20.75 4.48001C20.0065 6.31396 19.5218 8.24246 19.31 10.21L18.76 15.33C18.6496 16.3596 18.2091 17.3259 17.5045 18.0846C16.7998 18.8434 15.8686 19.3539 14.85 19.54C14.5629 19.5923 14.2718 19.6191 13.98 19.62C13.6882 19.6182 13.3972 19.5914 13.11 19.54C12.0925 19.3535 11.1627 18.8426 10.4597 18.0837C9.75671 17.3248 9.31827 16.3588 9.20997 15.33L8.65997 10.21C8.44332 8.24332 7.95884 6.31547 7.21997 4.48001C7.75997 5.16001 10.58 5.68001 13.98 5.68001C17.38 5.68001 20.21 5.16001 20.75 4.48001Z" fill="#959595"/>
  <path d="M18.16 24.75V25.93H9.79999V24.75C9.79999 24.3071 9.97593 23.8823 10.2891 23.5691C10.6023 23.2559 11.0271 23.08 11.47 23.08H13.11V19.54C13.3972 19.5914 13.6882 19.6182 13.98 19.62C14.2718 19.6191 14.5629 19.5923 14.85 19.54V23.08H16.49C16.7093 23.08 16.9265 23.1232 17.1291 23.2071C17.3317 23.291 17.5158 23.4141 17.6709 23.5691C17.8259 23.7242 17.9489 23.9083 18.0329 24.1109C18.1168 24.3135 18.16 24.5307 18.16 24.75Z" fill="#959595"/>
  <path d="M13.99 5.67C17.7787 5.67 20.85 5.02976 20.85 4.24C20.85 3.45023 17.7787 2.81 13.99 2.81C10.2013 2.81 7.13 3.45023 7.13 4.24C7.13 5.02976 10.2013 5.67 13.99 5.67Z" stroke="#414042" stroke-width="1.28" stroke-linecap="round" stroke-linejoin="round"/>
  <path d="M20.75 4.48001C20.0111 6.31547 19.5266 8.24332 19.31 10.21L18.76 15.33C18.6343 16.5058 18.0791 17.5939 17.2007 18.3856C16.3222 19.1773 15.1825 19.6169 14 19.62C12.814 19.6218 11.6694 19.1844 10.7867 18.3923C9.9041 17.6001 9.34598 16.5093 9.21997 15.33L8.66997 10.21C8.4549 8.24198 7.96688 6.31346 7.21997 4.48001" stroke="#414042" stroke-width="1.28" stroke-linecap="round" stroke-linejoin="round"/>
  <path d="M14.86 19.62V23.09H13.12V19.62" stroke="#414042" stroke-width="1.28" stroke-linecap="round" stroke-linejoin="round"/>
  <path d="M11.48 23.08H16.48C16.9229 23.08 17.3477 23.2559 17.6609 23.5691C17.9741 23.8823 18.15 24.3071 18.15 24.75V25.93H9.81V24.75C9.81 24.3071 9.98594 23.8823 10.2991 23.5691C10.6123 23.2559 11.0371 23.08 11.48 23.08Z" stroke="#414042" stroke-width="1.28" stroke-linecap="round" stroke-linejoin="round"/>
  <path d="M19.43 9.33999C19.9847 8.65282 20.6425 8.05574 21.38 7.56999C21.9621 7.182 22.6614 7.00962 23.3572 7.08266C24.0529 7.1557 24.7012 7.46957 25.19 7.96999C25.4653 8.25841 25.6803 8.59881 25.8225 8.9713C25.9647 9.34378 26.0312 9.74088 26.0182 10.1394C26.0052 10.5379 25.9128 10.9298 25.7466 11.2922C25.5803 11.6546 25.3435 11.9802 25.05 12.25C23.7146 13.4283 22.2978 14.511 20.81 15.49C20.5935 15.64 20.4088 15.8313 20.2664 16.0528C20.1241 16.2744 20.0269 16.5219 19.9804 16.7811C19.934 17.0404 19.9392 17.3062 19.9957 17.5634C20.0523 17.8206 20.1591 18.0642 20.31 18.28" stroke="#414042" stroke-width="1.28" stroke-linecap="round" stroke-linejoin="round"/>
  <path d="M8.56998 9.33999C8.01529 8.65283 7.35749 8.05575 6.61998 7.56999C6.03456 7.18573 5.33317 7.01837 4.63732 7.0969C3.94148 7.17544 3.29503 7.49492 2.80998 7.99999C2.54239 8.29102 2.33497 8.63207 2.19963 9.00353C2.06429 9.37499 2.00371 9.76954 2.02137 10.1645C2.03902 10.5595 2.13457 10.947 2.30251 11.3049C2.47046 11.6628 2.70749 11.984 2.99998 12.25C4.33537 13.4283 5.75222 14.511 7.23998 15.49C7.45645 15.64 7.64117 15.8313 7.78353 16.0528C7.92589 16.2744 8.02309 16.5219 8.06955 16.7811C8.11601 17.0404 8.11081 17.3062 8.05425 17.5634C7.99769 17.8206 7.89089 18.0642 7.73998 18.28" stroke="#414042" stroke-width="1.28" stroke-linecap="round" stroke-linejoin="round"/>
  <path d="M12.26 13.71L13.87 12C14.0652 11.8054 14.2395 11.5909 14.39 11.36C14.5012 11.1945 14.5604 10.9994 14.56 10.8C14.5638 10.7081 14.5489 10.6165 14.5162 10.5305C14.4835 10.4446 14.4338 10.3662 14.37 10.3C14.3082 10.2318 14.2324 10.1778 14.1479 10.1415C14.0633 10.1053 13.972 10.0877 13.88 10.09C13.6909 10.0877 13.505 10.1391 13.3439 10.2383C13.1828 10.3374 13.0532 10.4801 12.97 10.65L12.23 10.13C12.3887 9.81435 12.6358 9.55173 12.9412 9.37416C13.2467 9.19659 13.5972 9.11175 13.95 9.12999C14.3789 9.11826 14.7965 9.26817 15.12 9.54999C15.2816 9.68698 15.4098 9.85912 15.4947 10.0532C15.5796 10.2473 15.6191 10.4583 15.61 10.67C15.6148 10.9644 15.5497 11.2557 15.42 11.52C15.2438 11.8524 15.0179 12.1559 14.75 12.42L13.75 13.42H15.61V14.35H12.27L12.26 13.71Z" fill="#414042"/>
</svg>
