<svg width="28" height="28" viewBox="0 0 28 28" fill="none" xmlns="http://www.w3.org/2000/svg">
  <path d="M20.85 4.24C20.8477 4.32966 20.8121 4.41525 20.75 4.48C20.21 5.16 17.38 5.68 13.98 5.68C10.58 5.68 7.76 5.16 7.22 4.48C7.15793 4.41525 7.12227 4.32966 7.12 4.24C7.12 3.45 10.19 2.81 13.98 2.81C17.77 2.81 20.85 3.45 20.85 4.24Z" fill="#9F7833"/>
  <path d="M20.75 4.48C20.0065 6.31395 19.5218 8.24244 19.31 10.21L18.76 15.33C18.6496 16.3596 18.2091 17.3259 17.5045 18.0846C16.7998 18.8434 15.8686 19.3539 14.85 19.54C14.5629 19.5923 14.2718 19.6191 13.98 19.62C13.6882 19.6182 13.3972 19.5914 13.11 19.54C12.0925 19.3535 11.1627 18.8426 10.4597 18.0837C9.75671 17.3248 9.31827 16.3588 9.20997 15.33L8.65997 10.21C8.44332 8.2433 7.95884 6.31545 7.21997 4.48C7.75997 5.16 10.58 5.68 13.98 5.68C17.38 5.68 20.21 5.16 20.75 4.48Z" fill="#9F7833"/>
  <path d="M18.16 24.75V25.93H9.79999V24.75C9.79999 24.3071 9.97593 23.8823 10.2891 23.5691C10.6023 23.2559 11.0271 23.08 11.47 23.08H13.11V19.54C13.3972 19.5914 13.6882 19.6182 13.98 19.62C14.2718 19.6191 14.5629 19.5923 14.85 19.54V23.08H16.49C16.7093 23.08 16.9265 23.1232 17.1291 23.2071C17.3317 23.291 17.5158 23.4141 17.6709 23.5691C17.8259 23.7242 17.9489 23.9083 18.0329 24.1109C18.1168 24.3135 18.16 24.5307 18.16 24.75Z" fill="#9F7833"/>
  <path d="M13.99 5.67C17.7787 5.67 20.85 5.02976 20.85 4.24C20.85 3.45023 17.7787 2.81 13.99 2.81C10.2013 2.81 7.13 3.45023 7.13 4.24C7.13 5.02976 10.2013 5.67 13.99 5.67Z" stroke="#414042" stroke-width="1.28" stroke-linecap="round" stroke-linejoin="round"/>
  <path d="M20.75 4.48C20.0111 6.31545 19.5266 8.2433 19.31 10.21L18.76 15.33C18.6343 16.5058 18.0791 17.5939 17.2007 18.3856C16.3222 19.1773 15.1825 19.6168 14 19.62C12.814 19.6218 11.6694 19.1844 10.7867 18.3923C9.9041 17.6001 9.34598 16.5093 9.21997 15.33L8.66997 10.21C8.4549 8.24196 7.96688 6.31345 7.21997 4.48" stroke="#414042" stroke-width="1.28" stroke-linecap="round" stroke-linejoin="round"/>
  <path d="M14.86 19.62V23.09H13.12V19.62" stroke="#414042" stroke-width="1.28" stroke-linecap="round" stroke-linejoin="round"/>
  <path d="M11.48 23.08H16.48C16.9229 23.08 17.3477 23.2559 17.6609 23.5691C17.9741 23.8823 18.15 24.3071 18.15 24.75V25.93H9.81V24.75C9.81 24.3071 9.98594 23.8823 10.2991 23.5691C10.6123 23.2559 11.0371 23.08 11.48 23.08Z" stroke="#414042" stroke-width="1.28" stroke-linecap="round" stroke-linejoin="round"/>
  <path d="M19.43 9.34C19.9847 8.65284 20.6425 8.05576 21.38 7.57C21.9621 7.18201 22.6614 7.00963 23.3572 7.08267C24.0529 7.15571 24.7012 7.46958 25.19 7.97C25.4653 8.25843 25.6803 8.59883 25.8225 8.97131C25.9647 9.3438 26.0312 9.74089 26.0182 10.1394C26.0052 10.5379 25.9128 10.9298 25.7466 11.2922C25.5803 11.6546 25.3435 11.9802 25.05 12.25C23.7146 13.4284 22.2978 14.511 20.81 15.49C20.5935 15.64 20.4088 15.8313 20.2664 16.0528C20.1241 16.2744 20.0269 16.5219 19.9804 16.7811C19.934 17.0404 19.9392 17.3062 19.9957 17.5634C20.0523 17.8207 20.1591 18.0642 20.31 18.28" stroke="#414042" stroke-width="1.28" stroke-linecap="round" stroke-linejoin="round"/>
  <path d="M8.56998 9.33999C8.01529 8.65283 7.35749 8.05575 6.61998 7.56999C6.03456 7.18573 5.33317 7.01837 4.63732 7.0969C3.94148 7.17544 3.29503 7.49492 2.80998 7.99999C2.54239 8.29102 2.33497 8.63207 2.19963 9.00353C2.06429 9.37499 2.00371 9.76954 2.02137 10.1645C2.03902 10.5595 2.13457 10.947 2.30251 11.3049C2.47046 11.6628 2.70749 11.984 2.99998 12.25C4.33537 13.4283 5.75222 14.511 7.23998 15.49C7.45645 15.64 7.64117 15.8313 7.78353 16.0528C7.92589 16.2744 8.02309 16.5219 8.06955 16.7811C8.11601 17.0404 8.11081 17.3062 8.05425 17.5634C7.99769 17.8206 7.89089 18.0642 7.73998 18.28" stroke="#414042" stroke-width="1.28" stroke-linecap="round" stroke-linejoin="round"/>
  <path d="M12.91 14.13C12.5949 13.9368 12.3524 13.645 12.22 13.3L13.11 12.93C13.1736 13.1141 13.2964 13.2718 13.4593 13.3786C13.6221 13.4854 13.8158 13.5351 14.01 13.52C14.2075 13.5274 14.4006 13.4595 14.55 13.33C14.6248 13.2705 14.6846 13.1943 14.7246 13.1074C14.7645 13.0206 14.7835 12.9255 14.78 12.83C14.7812 12.7348 14.7613 12.6405 14.7215 12.554C14.6817 12.4675 14.6231 12.391 14.55 12.33C14.3715 12.1884 14.1474 12.1173 13.92 12.13H13.55V11.3H14C14.0897 11.3061 14.1797 11.2932 14.2642 11.2622C14.3486 11.2312 14.4255 11.1827 14.49 11.12C14.5481 11.063 14.5933 10.9943 14.6226 10.9184C14.6519 10.8425 14.6647 10.7612 14.66 10.68C14.6629 10.5957 14.6475 10.5117 14.6147 10.434C14.5818 10.3563 14.5325 10.2867 14.47 10.23C14.3349 10.1108 14.1601 10.0466 13.98 10.05C13.8248 10.0449 13.6714 10.0835 13.537 10.1612C13.4027 10.239 13.2928 10.3529 13.22 10.49L12.4 10.05C12.5256 9.76982 12.7353 9.53568 13 9.37999C13.3021 9.20062 13.6488 9.11047 14 9.11999C14.4316 9.10582 14.8551 9.23993 15.2 9.49999C15.3527 9.61743 15.4757 9.76911 15.5591 9.94281C15.6425 10.1165 15.6839 10.3074 15.68 10.5C15.6904 10.7409 15.6319 10.9799 15.5115 11.1888C15.3911 11.3978 15.2137 11.5682 15 11.68C15.2132 11.7756 15.399 11.9235 15.5399 12.11C15.6809 12.2964 15.7726 12.5154 15.8064 12.7467C15.8403 12.978 15.8154 13.2141 15.7338 13.4331C15.6523 13.6522 15.5168 13.8472 15.34 14C14.9841 14.2859 14.5359 14.4317 14.08 14.41C13.6712 14.4305 13.2652 14.3333 12.91 14.13Z" fill="#414042"/>
</svg>
