<svg id="e3015820-f720-4069-8380-3f58c34a635b" data-name="Layer 1" xmlns="http://www.w3.org/2000/svg" viewBox="0 0 28 28">
  <defs>
    <style>
      .b61395a0-a961-4685-a380-95b2b44ed21c {
        fill: #e6e6e6;
      }

      .aca06419-400f-47f9-9a0d-8a03381b308c {
        fill: #67b843;
      }

      .ad978763-60b0-4c2a-ac87-9d5d831050b7 {
        fill: #fadc0f;
      }

      .edc4112f-508b-47ff-b04e-3b56dae65f6a {
        fill: #fff;
      }

      .a29c3737-33df-4e8a-9024-828c2d644dc4, .a54cc745-f13f-4879-a272-64209f12368b {
        fill: none;
        stroke-linecap: round;
        stroke-linejoin: round;
      }

      .a29c3737-33df-4e8a-9024-828c2d644dc4 {
        stroke: #414042;
        stroke-width: 1.28px;
      }

      .a54cc745-f13f-4879-a272-64209f12368b {
        stroke: #fff;
      }
    </style>
  </defs>
  <title>55</title>
  <circle class="b61395a0-a961-4685-a380-95b2b44ed21c" cx="14" cy="14" r="14"/>
  <g>
    <g>
      <path class="aca06419-400f-47f9-9a0d-8a03381b308c" d="M15,11.66a9.12,9.12,0,0,0,4.43-9.11A9.33,9.33,0,0,0,15,1.63a9.33,9.33,0,0,0-4.43.92A9.12,9.12,0,0,0,15,11.66Z"/>
      <g>
        <path class="ad978763-60b0-4c2a-ac87-9d5d831050b7" d="M23.35,20.43h-1a.37.37,0,0,0,0-.11,1.81,1.81,0,0,0-3.61,0,.37.37,0,0,0,0,.11H8.7a.37.37,0,0,0,0-.11,1.81,1.81,0,0,0-3.62,0,.37.37,0,0,0,0,.11H4a1.32,1.32,0,0,1-1.3-1.54l.11-.64a2.08,2.08,0,0,1,1.31-1.58,20.07,20.07,0,0,1,4.69-.84l.16.08a5.34,5.34,0,0,0,2.66.58L18,16.22a2.05,2.05,0,0,0,1.33-.56l1-1,2.83,1a2.59,2.59,0,0,1,1.67,2l.14.78A1.69,1.69,0,0,1,23.35,20.43Z"/>
        <path class="edc4112f-508b-47ff-b04e-3b56dae65f6a" d="M20.38,14.7l-1,1a2.05,2.05,0,0,1-1.33.56l-6.44.27a5.34,5.34,0,0,1-2.66-.58l-.16-.08.84-.69a6.55,6.55,0,0,1,3.89-1.52,16.63,16.63,0,0,1,3.88.17C18.11,14,19.23,14.31,20.38,14.7Z"/>
        <path class="edc4112f-508b-47ff-b04e-3b56dae65f6a" d="M8.71,20.32a.37.37,0,0,1,0,.11,1.8,1.8,0,0,1-3.6,0,.37.37,0,0,1,0-.11,1.81,1.81,0,0,1,3.62,0Z"/>
        <path class="edc4112f-508b-47ff-b04e-3b56dae65f6a" d="M22.34,20.32a.37.37,0,0,1,0,.11,1.8,1.8,0,0,1-3.59,0,.37.37,0,0,1,0-.11,1.81,1.81,0,0,1,3.61,0Z"/>
      </g>
    </g>
    <g>
      <path class="a29c3737-33df-4e8a-9024-828c2d644dc4" d="M15,11.66a9.12,9.12,0,0,0,4.43-9.11A9.33,9.33,0,0,0,15,1.63a9.33,9.33,0,0,0-4.43.92A9.12,9.12,0,0,0,15,11.66Z"/>
      <g>
        <path class="a29c3737-33df-4e8a-9024-828c2d644dc4" d="M22.43,20.43h.93a1.7,1.7,0,0,0,1.67-2l-.15-.78a2.59,2.59,0,0,0-1.66-2c-1.69-.6-4.48-1.57-5.82-1.89a16.66,16.66,0,0,0-3.88-.17,6.58,6.58,0,0,0-3.9,1.52l-.84.69a19.94,19.94,0,0,0-4.68.84,2,2,0,0,0-1.31,1.58l-.11.64A1.32,1.32,0,0,0,4,20.43H5"/>
        <line class="a29c3737-33df-4e8a-9024-828c2d644dc4" x1="8.81" y1="20.43" x2="18.66" y2="20.43"/>
        <line class="a29c3737-33df-4e8a-9024-828c2d644dc4" x1="2.89" y1="18.35" x2="3.72" y2="18.35"/>
        <circle class="a29c3737-33df-4e8a-9024-828c2d644dc4" cx="6.9" cy="20.32" r="1.81"/>
        <circle class="a29c3737-33df-4e8a-9024-828c2d644dc4" cx="20.54" cy="20.32" r="1.81"/>
        <path class="a29c3737-33df-4e8a-9024-828c2d644dc4" d="M8.78,15.83l.16.08a5.37,5.37,0,0,0,2.67.58l6.44-.27a2.07,2.07,0,0,0,1.33-.56l1-1"/>
        <line class="a29c3737-33df-4e8a-9024-828c2d644dc4" x1="15" y1="13.58" x2="15" y2="16.35"/>
        <line class="a29c3737-33df-4e8a-9024-828c2d644dc4" x1="24.92" y1="17.83" x2="23.67" y2="17.83"/>
      </g>
      <polyline class="a54cc745-f13f-4879-a272-64209f12368b" points="13.39 5.8 14.46 6.87 16.89 4.43"/>
    </g>
  </g>
</svg>
