<svg id="f95cdb74-39c8-4c94-af19-3b29da13c964" data-name="Layer 1" xmlns="http://www.w3.org/2000/svg" viewBox="0 0 28 28">
  <defs>
    <style>
      .a18664d8-3015-4980-b6d9-7d62204c4eac {
        fill: #e6e6e6;
      }

      .ae1cc394-a24c-4382-9cb5-754c90e3b8a0 {
        fill: #fa460f;
      }

      .ef245d8c-e6d2-40ef-9bad-2456adda8217 {
        fill: none;
        stroke: #414042;
        stroke-linecap: round;
        stroke-linejoin: round;
        stroke-width: 1.28px;
      }

      .bf6e49e4-bee5-41fb-882c-10cf7ef9cceb {
        fill: #fadc0f;
      }

      .ba28c108-c8a1-4fb1-a586-3e12fb4a6dc7 {
        fill: #fff;
      }
    </style>
  </defs>
  <title>56</title>
  <circle class="a18664d8-3015-4980-b6d9-7d62204c4eac" cx="14" cy="14" r="14"/>
  <g>
    <path class="ae1cc394-a24c-4382-9cb5-754c90e3b8a0" d="M19.93,10.69H10.35a.51.51,0,0,1-.43-.79L14.7,2.15a.51.51,0,0,1,.88,0L20.37,9.9A.52.52,0,0,1,19.93,10.69Z"/>
    <g>
      <g>
        <circle class="a18664d8-3015-4980-b6d9-7d62204c4eac" cx="15.14" cy="9.07" r="0.47"/>
        <path class="a18664d8-3015-4980-b6d9-7d62204c4eac" d="M15.14,8h0a.38.38,0,0,1-.38-.36l-.12-2.76a.51.51,0,0,1,.5-.53h0a.51.51,0,0,1,.51.53l-.13,2.76A.38.38,0,0,1,15.14,8Z"/>
      </g>
      <path class="ef245d8c-e6d2-40ef-9bad-2456adda8217" d="M19.93,10.69H10.35a.51.51,0,0,1-.43-.79L14.7,2.15a.51.51,0,0,1,.88,0L20.37,9.9A.52.52,0,0,1,19.93,10.69Z"/>
    </g>
  </g>
  <g>
    <g>
      <path class="bf6e49e4-bee5-41fb-882c-10cf7ef9cceb" d="M23.5,20.43h-1a.37.37,0,0,0,0-.11,1.81,1.81,0,0,0-3.61,0,.37.37,0,0,0,0,.11h-10a.37.37,0,0,0,0-.11,1.81,1.81,0,0,0-3.61,0,.37.37,0,0,0,0,.11H4.11a1.32,1.32,0,0,1-1.29-1.54l.11-.64a2,2,0,0,1,1.31-1.58,19.94,19.94,0,0,1,4.68-.84l.16.08a5.37,5.37,0,0,0,2.67.58l3.39-.14,3.05-.13a2,2,0,0,0,1.32-.56l1-1c1,.34,2.05.7,2.84,1a2.59,2.59,0,0,1,1.66,2l0,.19.11.59A1.7,1.7,0,0,1,23.5,20.43Z"/>
      <path class="ba28c108-c8a1-4fb1-a586-3e12fb4a6dc7" d="M20.52,14.7l-1,1a2,2,0,0,1-1.32.56l-3.05.13-3.39.14a5.37,5.37,0,0,1-2.67-.58l-.16-.08.84-.69a6.58,6.58,0,0,1,3.9-1.52c.47,0,1,0,1.48,0a12.16,12.16,0,0,1,2.4.2C18.25,14,19.37,14.31,20.52,14.7Z"/>
      <path class="ba28c108-c8a1-4fb1-a586-3e12fb4a6dc7" d="M8.85,20.32a.37.37,0,0,1,0,.11,1.8,1.8,0,0,1-3.59,0,.37.37,0,0,1,0-.11,1.81,1.81,0,0,1,3.61,0Z"/>
      <path class="ba28c108-c8a1-4fb1-a586-3e12fb4a6dc7" d="M22.48,20.32a.37.37,0,0,1,0,.11,1.8,1.8,0,0,1-3.59,0,.37.37,0,0,1,0-.11,1.81,1.81,0,0,1,3.61,0Z"/>
    </g>
    <g>
      <path class="ef245d8c-e6d2-40ef-9bad-2456adda8217" d="M22.58,20.43h.92a1.7,1.7,0,0,0,1.67-2L25,17.64a2.59,2.59,0,0,0-1.67-2c-1.69-.6-4.48-1.57-5.82-1.89a16.66,16.66,0,0,0-3.88-.17,6.6,6.6,0,0,0-3.9,1.52l-.83.69a20.07,20.07,0,0,0-4.69.84,2.06,2.06,0,0,0-1.31,1.58l-.11.64a1.32,1.32,0,0,0,1.3,1.54H5.18"/>
      <line class="ef245d8c-e6d2-40ef-9bad-2456adda8217" x1="8.96" y1="20.43" x2="18.81" y2="20.43"/>
      <line class="ef245d8c-e6d2-40ef-9bad-2456adda8217" x1="3.03" y1="18.35" x2="3.86" y2="18.35"/>
      <circle class="ef245d8c-e6d2-40ef-9bad-2456adda8217" cx="7.05" cy="20.32" r="1.81"/>
      <circle class="ef245d8c-e6d2-40ef-9bad-2456adda8217" cx="20.68" cy="20.32" r="1.81"/>
      <path class="ef245d8c-e6d2-40ef-9bad-2456adda8217" d="M8.93,15.83l.15.08a5.4,5.4,0,0,0,2.67.58l6.44-.27a2.05,2.05,0,0,0,1.33-.56l1-1"/>
      <line class="ef245d8c-e6d2-40ef-9bad-2456adda8217" x1="15.14" y1="13.58" x2="15.14" y2="16.35"/>
      <line class="ef245d8c-e6d2-40ef-9bad-2456adda8217" x1="25.06" y1="17.83" x2="23.82" y2="17.83"/>
    </g>
  </g>
</svg>
