<svg width="14" height="15" viewBox="0 0 14 15" fill="none" xmlns="http://www.w3.org/2000/svg">
  <path d="M2.33341 9.91662C2.01258 9.91662 1.73793 9.80239 1.50946 9.57391C1.28098 9.34544 1.16675 9.07079 1.16675 8.74995V2.91662C1.16675 2.59579 1.28098 2.32113 1.50946 2.09266C1.73793 1.86419 2.01258 1.74995 2.33341 1.74995H8.16675C8.48758 1.74995 8.76223 1.86419 8.99071 2.09266C9.21918 2.32113 9.33342 2.59579 9.33342 2.91662V3.49995C9.33342 3.66523 9.27751 3.80377 9.16571 3.91558C9.0539 4.02738 8.91536 4.08329 8.75008 4.08329C8.5848 4.08329 8.44626 4.02738 8.33446 3.91558C8.22265 3.80377 8.16675 3.66523 8.16675 3.49995V2.91662H2.33341V8.74995H2.91675C3.08203 8.74995 3.22057 8.80586 3.33237 8.91766C3.44418 9.02947 3.50008 9.16801 3.50008 9.33329C3.50008 9.49857 3.44418 9.63711 3.33237 9.74891C3.22057 9.86072 3.08203 9.91662 2.91675 9.91662H2.33341ZM5.83342 13.4166C5.51258 13.4166 5.23793 13.3024 5.00946 13.0739C4.78098 12.8454 4.66675 12.5708 4.66675 12.25V6.41662C4.66675 6.09579 4.78098 5.82114 5.00946 5.59266C5.23793 5.36419 5.51258 5.24995 5.83342 5.24995H11.6667C11.9876 5.24995 12.2622 5.36419 12.4907 5.59266C12.7192 5.82114 12.8334 6.09579 12.8334 6.41662V12.25C12.8334 12.5708 12.7192 12.8454 12.4907 13.0739C12.2622 13.3024 11.9876 13.4166 11.6667 13.4166H5.83342ZM5.83342 12.25H11.6667V6.41662H5.83342V12.25Z" fill="#414042"/>
  <rect x="5.83" y="6.42" width="5.83" height="5.83" fill="#FADC0F"/>
  <text x="8.745" y="9.335" font-family="Poppins" font-size="7" font-weight="600" fill="#414042" text-anchor="middle" alignment-baseline="middle">+</text>
</svg>
