<svg id="ae67daf6-570d-4dde-88b3-750d86dc678f" data-name="Layer 1" xmlns="http://www.w3.org/2000/svg" viewBox="0 0 80 80">
  <defs>
    <style>
      .ae78caa7-1c3f-425b-a5e9-2f0d88202d43 {
        fill: #fff;
      }

      .b10dd366-6d10-48f3-b46a-0fc22fda2cfe {
        fill: #fadc0f;
      }

      .f7b3087d-bdc2-42ef-8e13-d9c8f42e0b49 {
        fill: none;
        stroke: #414042;
        stroke-linecap: round;
        stroke-linejoin: round;
      }
    </style>
  </defs>
  <title>39</title>
  <g>
    <g>
      <g>
        <circle class="ae78caa7-1c3f-425b-a5e9-2f0d88202d43" cx="38.49" cy="41.16" r="24.37"/>
        <circle class="ae78caa7-1c3f-425b-a5e9-2f0d88202d43" cx="38.49" cy="41.16" r="18.01"/>
      </g>
      <path class="b10dd366-6d10-48f3-b46a-0fc22fda2cfe" d="M73.15,16.4l2.65,4.38-3.26-.12-2.21.09a39.41,39.41,0,0,0-2.94-4L65,24.08l-1.12-6.72-4.4-1.48L63.74,13a34.5,34.5,0,0,0-3.43-2.73l.38-1.87.45-4.74L64.6,7.21,67.85,1.6,69.2,5.08l9.47-4-3.79,9.67L79.31,14Z"/>
      <path class="ae78caa7-1c3f-425b-a5e9-2f0d88202d43" d="M59.44,72.63A3.31,3.31,0,0,1,58.1,79H18.89a3.31,3.31,0,0,1-3.31-3.3,3.27,3.27,0,0,1,1-2.35,3.16,3.16,0,0,1,1-.68A37.8,37.8,0,1,1,60.31,10.3,34.5,34.5,0,0,1,63.74,13l-4.31,2.85,4.4,1.48L65,24.08l2.44-7.29a39.41,39.41,0,0,1,2.94,4A37.83,37.83,0,0,1,59.44,72.63Z"/>
      <circle class="b10dd366-6d10-48f3-b46a-0fc22fda2cfe" cx="38.49" cy="41.16" r="4.48"/>
    </g>
    <g>
      <g>
        <circle class="f7b3087d-bdc2-42ef-8e13-d9c8f42e0b49" cx="38.49" cy="41.16" r="4.48"/>
        <circle class="f7b3087d-bdc2-42ef-8e13-d9c8f42e0b49" cx="38.49" cy="41.16" r="18.01"/>
        <circle class="f7b3087d-bdc2-42ef-8e13-d9c8f42e0b49" cx="38.49" cy="41.16" r="24.37"/>
        <line class="f7b3087d-bdc2-42ef-8e13-d9c8f42e0b49" x1="38.49" y1="23.15" x2="38.49" y2="36.68"/>
        <line class="f7b3087d-bdc2-42ef-8e13-d9c8f42e0b49" x1="22.9" y1="32.15" x2="34.62" y2="38.92"/>
        <line class="f7b3087d-bdc2-42ef-8e13-d9c8f42e0b49" x1="22.9" y1="50.16" x2="34.62" y2="43.39"/>
        <line class="f7b3087d-bdc2-42ef-8e13-d9c8f42e0b49" x1="38.49" y1="59.16" x2="38.49" y2="45.63"/>
        <line class="f7b3087d-bdc2-42ef-8e13-d9c8f42e0b49" x1="54.09" y1="50.16" x2="42.37" y2="43.39"/>
        <line class="f7b3087d-bdc2-42ef-8e13-d9c8f42e0b49" x1="54.09" y1="32.15" x2="42.37" y2="38.92"/>
        <line class="f7b3087d-bdc2-42ef-8e13-d9c8f42e0b49" x1="38.49" y1="3.35" x2="38.49" y2="6.45"/>
        <line class="f7b3087d-bdc2-42ef-8e13-d9c8f42e0b49" x1="24.03" y1="6.23" x2="25.21" y2="9.09"/>
        <line class="f7b3087d-bdc2-42ef-8e13-d9c8f42e0b49" x1="11.76" y1="14.43" x2="13.95" y2="16.62"/>
        <line class="f7b3087d-bdc2-42ef-8e13-d9c8f42e0b49" x1="3.57" y1="26.69" x2="6.43" y2="27.88"/>
        <line class="f7b3087d-bdc2-42ef-8e13-d9c8f42e0b49" x1="0.69" y1="41.16" x2="3.79" y2="41.16"/>
        <line class="f7b3087d-bdc2-42ef-8e13-d9c8f42e0b49" x1="3.57" y1="55.62" x2="6.43" y2="54.44"/>
        <line class="f7b3087d-bdc2-42ef-8e13-d9c8f42e0b49" x1="11.76" y1="67.89" x2="13.95" y2="65.7"/>
        <line class="f7b3087d-bdc2-42ef-8e13-d9c8f42e0b49" x1="65.22" y1="67.89" x2="63.03" y2="65.7"/>
        <line class="f7b3087d-bdc2-42ef-8e13-d9c8f42e0b49" x1="73.42" y1="55.62" x2="70.56" y2="54.44"/>
        <line class="f7b3087d-bdc2-42ef-8e13-d9c8f42e0b49" x1="76.3" y1="41.16" x2="73.2" y2="41.16"/>
        <line class="f7b3087d-bdc2-42ef-8e13-d9c8f42e0b49" x1="73.42" y1="26.69" x2="70.56" y2="27.88"/>
        <line class="f7b3087d-bdc2-42ef-8e13-d9c8f42e0b49" x1="52.96" y1="6.23" x2="51.77" y2="9.09"/>
      </g>
      <polyline class="f7b3087d-bdc2-42ef-8e13-d9c8f42e0b49" points="60.68 8.43 61.13 3.69 64.6 7.2 67.86 1.6 69.2 5.08 78.66 1.04 74.89 10.72 79.31 13.97 73.15 16.4 75.8 20.78 72.54 20.66"/>
      <path class="f7b3087d-bdc2-42ef-8e13-d9c8f42e0b49" d="M59.44,72.63A3.31,3.31,0,0,1,58.1,79H18.89a3.31,3.31,0,0,1-3.31-3.3,3.27,3.27,0,0,1,1-2.35,3.16,3.16,0,0,1,1-.68A37.8,37.8,0,1,1,63.74,13l-4.31,2.85,4.4,1.48L65,24.08l2.44-7.29a37.79,37.79,0,0,1-8,55.84Z"/>
    </g>
  </g>
</svg>
