<svg width="24" height="24" viewBox="0 0 24 24" fill="none" xmlns="http://www.w3.org/2000/svg">
    <path d="M16.8286 5.90863L18.2686 4.46863C18.8935 3.84379 19.9065 3.84379 20.5314 4.46863C21.1562 5.09347 21.1562 6.10653 20.5314 6.73137L11.4701 15.7926C11.019 16.2438 10.4626 16.5754 9.85111 16.7575L7.56 17.44L8.24248 15.1489C8.42462 14.5375 8.75624 13.981 9.20738 13.5299L16.8286 5.90863ZM16.8286 5.90863L19.08 8.15999M17.8 14.0267V18.08C17.8 19.1404 16.9404 20 15.88 20H6.92C5.85961 20 5 19.1404 5 18.08V9.11999C5 8.05961 5.85961 7.19999 6.92 7.19999H10.9733" stroke="#EE8444" stroke-linecap="round" stroke-linejoin="round"/>
</svg>
