<svg id="b3d869a7-fd8d-4c94-a6e5-56f33390f3c8" data-name="Layer 1" xmlns="http://www.w3.org/2000/svg" viewBox="0 0 80 80">
  <defs>
    <style>
      .afcce0da-1fda-4607-98aa-c48863231d8e {
        fill: #fff;
      }

      .adead447-5e7a-4082-b824-a08ad2cf6f3e {
        fill: #fadc0f;
      }

      .b1e4a380-6b66-47b8-9842-65cb0d8ac167 {
        fill: none;
        stroke: #414042;
        stroke-linecap: round;
        stroke-linejoin: round;
      }
    </style>
  </defs>
  <title>6</title>
  <g>
    <g>
      <path class="afcce0da-1fda-4607-98aa-c48863231d8e" d="M67.5,34.07h-55A11.89,11.89,0,0,0,.61,46v5.33a8.26,8.26,0,0,0,8.27,8.25H71.12a8.26,8.26,0,0,0,8.28-8.25V46A11.91,11.91,0,0,0,67.5,34.07Zm7.8,17.21a4.18,4.18,0,0,1-4.18,4.18H8.87A4.18,4.18,0,0,1,4.7,51.28V46a7.78,7.78,0,0,1,7.78-7.79h55A7.79,7.79,0,0,1,75.3,46Z"/>
      <path class="adead447-5e7a-4082-b824-a08ad2cf6f3e" d="M75.3,46v5.32a4.18,4.18,0,0,1-4.18,4.18H8.87A4.18,4.18,0,0,1,4.7,51.28V46a7.78,7.78,0,0,1,7.78-7.79h55A7.79,7.79,0,0,1,75.3,46Z"/>
      <path class="afcce0da-1fda-4607-98aa-c48863231d8e" d="M48,23.26l-.11,2.11a2.66,2.66,0,0,1-2.66,2.53h-1.7l.17-3.73H36l.17,3.73H34.86a2.66,2.66,0,0,1-2.66-2.53l-.11-2.11a2.66,2.66,0,0,1,2.67-2.8h10.6A2.67,2.67,0,0,1,48,23.26Z"/>
      <polygon class="afcce0da-1fda-4607-98aa-c48863231d8e" points="43.72 24.17 43.55 27.9 43.26 34.07 36.47 34.07 36.18 27.9 36.01 24.17 43.72 24.17"/>
    </g>
    <g>
      <path class="b1e4a380-6b66-47b8-9842-65cb0d8ac167" d="M12.48,38.17h55A7.78,7.78,0,0,1,75.3,46v5.33a4.18,4.18,0,0,1-4.18,4.18H8.87A4.18,4.18,0,0,1,4.7,51.28V46A7.78,7.78,0,0,1,12.48,38.17Z"/>
      <path class="b1e4a380-6b66-47b8-9842-65cb0d8ac167" d="M79.4,46v5.33a8.27,8.27,0,0,1-8.28,8.25H8.88A8.27,8.27,0,0,1,.6,51.29V46A11.9,11.9,0,0,1,12.49,34.07h55A11.9,11.9,0,0,1,79.4,46Z"/>
      <path class="b1e4a380-6b66-47b8-9842-65cb0d8ac167" d="M36.11,27.9H34.86a2.67,2.67,0,0,1-2.66-2.53l-.11-2.12a2.66,2.66,0,0,1,2.66-2.79H45.36A2.66,2.66,0,0,1,48,23.25l-.11,2.12a2.67,2.67,0,0,1-2.66,2.53H43.72"/>
      <polygon class="b1e4a380-6b66-47b8-9842-65cb0d8ac167" points="43.26 34.07 36.47 34.07 36.01 24.18 43.72 24.18 43.26 34.07"/>
    </g>
  </g>
</svg>
