<svg width="36" height="36" viewBox="0 0 36 36" fill="none" xmlns="http://www.w3.org/2000/svg">
  <rect width="36" height="36" rx="18" fill="#F46423"/>
  <path d="M18.4937 11C14.3409 11.0094 10.9925 14.3632 11 18.5061C11.0075 22.6566 14.3668 26.0099 18.5064 26C22.6596 25.9902 26.0085 22.6354 26 18.4934C25.9916 14.3407 22.6356 10.9906 18.4937 11ZM18.2992 12.5031C21.6932 12.3838 24.1578 15.0091 24.4393 17.74H21.5588C21.4648 17.5573 21.4047 17.3844 21.2999 17.2445C21.1627 17.0608 20.9499 16.995 20.7234 16.995C19.241 16.995 17.7586 16.995 16.2761 16.995C15.8533 16.995 15.577 17.2487 15.5056 17.6667C15.5 17.6913 15.4931 17.7156 15.4849 17.7395H12.572C12.7449 15.4487 14.8319 12.6276 18.2992 12.5055V12.5031ZM17.7452 24.4504C16.5505 24.2926 15.5023 23.8332 14.5974 23.0558C13.436 22.0563 12.7623 20.788 12.5415 19.2567H15.4915C15.5122 19.8646 15.7194 20.3991 16.1493 20.8326C16.5792 21.2662 17.1133 21.4818 17.7415 21.5015L17.7452 24.4504ZM17.7532 19.9984C17.3511 19.99 17.0645 19.7279 17.0076 19.3408C16.9991 19.2712 16.9955 19.201 16.9968 19.1309C16.9968 18.9275 16.9968 18.7236 16.9968 18.5099H19.9938C19.9938 18.7945 20.0154 19.0703 19.9886 19.3413C19.9501 19.7312 19.649 19.9918 19.2468 19.9989C18.7491 20.0102 18.2512 20.0108 17.7532 20.0008V19.9984ZM22.9048 22.572C21.9215 23.6322 20.7047 24.2494 19.2581 24.4537V21.5184C20.6206 21.3775 21.3723 20.626 21.5226 19.2572H24.4534C24.2838 20.533 23.7721 21.641 22.9048 22.5744V22.572Z" fill="white"/>
</svg>
