<svg width="104" height="82" viewBox="0 0 104 82" fill="none" xmlns="http://www.w3.org/2000/svg">
  <circle cx="52.2511" cy="30.0697" r="12.5228" fill="white"/>
  <path d="M56.5417 28.2241C56.0846 25.4722 53.357 24.0296 50.8204 24.8577C49.0499 25.4348 47.894 27.0632 47.894 29.1709C47.904 29.9686 48.2027 30.906 48.8601 31.7079C49.8465 32.911 50.8586 34.0952 51.8578 35.2875C52.1126 35.5912 52.3863 35.5909 52.6429 35.2875C53.6038 34.1431 54.5648 32.9984 55.5257 31.8533C56.4104 30.7907 56.7655 29.5754 56.5417 28.2241ZM52.2521 30.489C51.9139 30.4896 51.5831 30.3919 51.3017 30.2082C51.0202 30.0246 50.8006 29.7633 50.6708 29.4574C50.541 29.1515 50.5067 28.8148 50.5724 28.4898C50.638 28.1649 50.8006 27.8663 51.0395 27.6319C51.2785 27.3974 51.5831 27.2377 51.9147 27.1729C52.2464 27.108 52.5903 27.141 52.9028 27.2677C53.2153 27.3943 53.4824 27.6089 53.6704 27.8843C53.8584 28.1597 53.9587 28.4835 53.9587 28.8148C53.9577 29.258 53.7777 29.6829 53.458 29.9967C53.1382 30.3104 52.7047 30.4874 52.2521 30.489Z" fill="#F46423"/>
</svg>
