<svg width="24" height="24" viewBox="0 0 24 24" fill="none" xmlns="http://www.w3.org/2000/svg">
  <mask id="mask0_4779_19990" style="mask-type:alpha" maskUnits="userSpaceOnUse" x="0" y="0" width="24" height="24">
    <rect width="24" height="24" fill="#D9D9D9"/>
  </mask>
  <g mask="url(#mask0_4779_19990)">
    <path d="M9.42308 10.3846H10.6539C10.8718 10.3846 11.0545 10.3109 11.2019 10.1635C11.3494 10.016 11.4231 9.83332 11.4231 9.61538V8.38463C11.4231 8.16668 11.3494 7.98398 11.2019 7.83655C11.0545 7.6891 10.8718 7.61538 10.6539 7.61538H9.03848C8.93591 7.61538 8.84616 7.65384 8.76923 7.73078C8.69231 7.80769 8.65385 7.89743 8.65385 8V12C8.65385 12.1026 8.69231 12.1923 8.76923 12.2692C8.84616 12.3462 8.93591 12.3846 9.03848 12.3846C9.14103 12.3846 9.23077 12.3462 9.3077 12.2692C9.38462 12.1923 9.42308 12.1026 9.42308 12V10.3846ZM9.42308 9.61538V8.38463H10.6539V9.61538H9.42308ZM14.3846 12.3846C14.6026 12.3846 14.7853 12.3109 14.9327 12.1635C15.0801 12.016 15.1538 11.8333 15.1538 11.6154V8.38463C15.1538 8.16668 15.0801 7.98398 14.9327 7.83655C14.7853 7.6891 14.6026 7.61538 14.3846 7.61538H12.8462C12.7436 7.61538 12.6538 7.65384 12.5769 7.73078C12.5 7.80769 12.4616 7.89743 12.4616 8V12C12.4616 12.1026 12.5 12.1923 12.5769 12.2692C12.6538 12.3462 12.7436 12.3846 12.8462 12.3846H14.3846ZM13.2308 11.6154V8.38463H14.3846V11.6154H13.2308ZM17.1538 10.3846H18.1538C18.2564 10.3846 18.3462 10.3462 18.4231 10.2692C18.5 10.1923 18.5385 10.1026 18.5385 10C18.5385 9.89743 18.5 9.80769 18.4231 9.73078C18.3462 9.65384 18.2564 9.61538 18.1538 9.61538H17.1538V8.38463H18.1538C18.2564 8.38463 18.3462 8.34616 18.4231 8.26922C18.5 8.19231 18.5385 8.10257 18.5385 8C18.5385 7.89743 18.5 7.80769 18.4231 7.73078C18.3462 7.65384 18.2564 7.61538 18.1538 7.61538H16.7692C16.6667 7.61538 16.5769 7.65384 16.5 7.73078C16.4231 7.80769 16.3846 7.89743 16.3846 8V12C16.3846 12.1026 16.4231 12.1923 16.5 12.2692C16.5769 12.3462 16.6667 12.3846 16.7692 12.3846C16.8718 12.3846 16.9615 12.3462 17.0385 12.2692C17.1154 12.1923 17.1538 12.1026 17.1538 12V10.3846ZM8.11538 17C7.65513 17 7.27083 16.8458 6.9625 16.5375C6.65417 16.2292 6.5 15.8449 6.5 15.3846V4.61537C6.5 4.15512 6.65417 3.77083 6.9625 3.4625C7.27083 3.15417 7.65513 3 8.11538 3H18.8846C19.3449 3 19.7292 3.15417 20.0375 3.4625C20.3458 3.77083 20.5 4.15512 20.5 4.61537V15.3846C20.5 15.8449 20.3458 16.2292 20.0375 16.5375C19.7292 16.8458 19.3449 17 18.8846 17H8.11538ZM8.11538 16H18.8846C19.0385 16 19.1795 15.9359 19.3077 15.8077C19.4359 15.6795 19.5 15.5385 19.5 15.3846V4.61537C19.5 4.46154 19.4359 4.32052 19.3077 4.1923C19.1795 4.0641 19.0385 4 18.8846 4H8.11538C7.96154 4 7.82052 4.0641 7.6923 4.1923C7.5641 4.32052 7.5 4.46154 7.5 4.61537V15.3846C7.5 15.5385 7.5641 15.6795 7.6923 15.8077C7.82052 15.9359 7.96154 16 8.11538 16ZM5.11538 20C4.65513 20 4.27083 19.8458 3.9625 19.5375C3.65417 19.2292 3.5 18.8449 3.5 18.3846V7.11538C3.5 6.97371 3.54798 6.85496 3.64393 6.75912C3.73989 6.66329 3.85881 6.61537 4.00067 6.61537C4.14252 6.61537 4.26121 6.66329 4.35672 6.75912C4.45224 6.85496 4.5 6.97371 4.5 7.11538V18.3846C4.5 18.5385 4.5641 18.6795 4.6923 18.8077C4.8205 18.9359 4.96153 19 5.11538 19H16.3846C16.5263 19 16.645 19.048 16.7409 19.1439C16.8367 19.2399 16.8846 19.3588 16.8846 19.5007C16.8846 19.6425 16.8367 19.7612 16.7409 19.8568C16.645 19.9523 16.5263 20 16.3846 20H5.11538Z" fill="#FE3C3C"/>
  </g>
</svg>
