<svg width="36" height="36" viewBox="0 0 36 36" fill="none" xmlns="http://www.w3.org/2000/svg">
<rect x="1" y="1" width="34" height="34" rx="17" fill="white"/>
<rect x="1" y="1" width="34" height="34" rx="17" stroke="#006BFF" stroke-width="2"/>
<mask id="mask0_2342_224" style="mask-type:alpha" maskUnits="userSpaceOnUse" x="4" y="4" width="28" height="28">
<rect x="4" y="4" width="28" height="28" fill="#D9D9D9"/>
</mask>
<g mask="url(#mask0_2342_224)">
<path d="M11.2916 28.2083C11.0433 28.2083 10.8355 28.1245 10.668 27.9569C10.5004 27.7895 10.4166 27.5816 10.4166 27.3333V10.3047C10.4166 10.0039 10.5173 9.75293 10.7185 9.55187C10.9196 9.35062 11.1705 9.25 11.4713 9.25H15.846C16.1318 9.25 16.3723 9.36365 16.5673 9.59096C16.7625 9.81846 16.852 10.0787 16.8356 10.3717C16.8236 10.4795 16.8145 10.5842 16.8085 10.6859C16.8027 10.7876 16.7998 10.8923 16.7998 11C16.8834 13.1089 17.6802 14.8784 19.1903 16.3083C20.7001 17.7383 22.502 18.4532 24.596 18.4532C24.771 18.4532 24.946 18.4484 25.121 18.4387C25.296 18.4289 25.4651 18.4106 25.6282 18.3835C25.9257 18.3447 26.187 18.4172 26.4122 18.6011C26.6374 18.7853 26.75 19.0202 26.75 19.3058V21.0287C26.75 21.3295 26.6493 21.5804 26.4481 21.7815C26.247 21.9827 25.9961 22.0833 25.6953 22.0833H20.5106C20.2608 22.0833 20.0382 22.0052 19.843 21.8488C19.648 21.6925 19.525 21.4895 19.474 21.2398L19.1713 19.75H12.1666V27.3333C12.1666 27.5816 12.0828 27.7895 11.9152 27.9569C11.7478 28.1245 11.5399 28.2083 11.2916 28.2083ZM24.596 5.39562C26.053 5.39562 27.2922 5.90643 28.3136 6.92804C29.3352 7.94946 29.846 9.18865 29.846 10.6456C29.846 12.1024 29.3352 13.3416 28.3136 14.3632C27.2922 15.3846 26.053 15.8953 24.596 15.8953C23.1392 15.8953 21.9 15.3846 20.8784 14.3632C19.8568 13.3416 19.346 12.1024 19.346 10.6456C19.346 9.18865 19.8568 7.94946 20.8784 6.92804C21.9 5.90643 23.1392 5.39562 24.596 5.39562ZM23.7615 11.1616L22.9224 10.3225C22.7848 10.1848 22.6236 10.1171 22.4388 10.1195C22.2541 10.1216 22.0892 10.1952 21.9442 10.3402C21.7991 10.4855 21.7266 10.6485 21.7266 10.8294C21.7266 11.0104 21.7991 11.1734 21.9442 11.3185L23.0233 12.3977C23.2343 12.6086 23.4804 12.7141 23.7615 12.7141C24.0427 12.7141 24.2887 12.6086 24.4995 12.3977L27.2481 9.66737C27.3856 9.52971 27.4563 9.3655 27.4602 9.17475C27.4639 8.984 27.3932 8.8161 27.2481 8.67104C27.1029 8.52598 26.9398 8.45647 26.759 8.4625C26.578 8.46853 26.4149 8.53804 26.2699 8.67104L23.7615 11.1616Z" fill="#006BFF"/>
</g>
</svg>
