<svg width="36" height="36" viewBox="0 0 36 36" fill="none" xmlns="http://www.w3.org/2000/svg">
<rect x="1" y="1" width="34" height="34" rx="17" fill="white"/>
<rect x="1" y="1" width="34" height="34" rx="17" stroke="#006BFF" stroke-width="2"/>
<mask id="mask0_2342_219" style="mask-type:alpha" maskUnits="userSpaceOnUse" x="4" y="4" width="28" height="28">
<rect x="4" y="4" width="28" height="28" fill="#D9D9D9"/>
</mask>
<g mask="url(#mask0_2342_219)">
<path d="M12.1665 19.75V27.3333C12.1665 27.5813 12.0826 27.789 11.9148 27.9566C11.747 28.1244 11.5391 28.2083 11.2912 28.2083C11.0431 28.2083 10.8353 28.1244 10.6679 27.9566C10.5003 27.789 10.4165 27.5813 10.4165 27.3333V10.3047C10.4165 10.0058 10.5176 9.75536 10.7198 9.55333C10.9219 9.35111 11.1723 9.25 11.4712 9.25H18.9892C19.2383 9.25 19.4606 9.32817 19.6562 9.4845C19.8516 9.64083 19.9748 9.84383 20.0258 10.0935L20.3285 11.5833H25.6952C25.994 11.5833 26.2445 11.684 26.4465 11.8852C26.6487 12.0865 26.7498 12.3358 26.7498 12.6333V21.0336C26.7498 21.3311 26.6487 21.5804 26.4465 21.7815C26.2445 21.9827 25.994 22.0833 25.6952 22.0833H20.5105C20.2614 22.0833 20.0391 22.0052 19.8435 21.8488C19.648 21.6925 19.5249 21.4895 19.4739 21.2398L19.1712 19.75H12.1665Z" fill="#006BFF"/>
</g>
</svg>
