<svg width="24" height="24" viewBox="0 0 24 24" fill="none" xmlns="http://www.w3.org/2000/svg">
  <mask id="mask0_4835_325" style="mask-type:alpha" maskUnits="userSpaceOnUse" x="0" y="0" width="24" height="24">
    <rect width="24" height="24" fill="#D9D9D9"/>
  </mask>
  <g mask="url(#mask0_4835_325)">
    <path d="M8.11538 17C7.65513 17 7.27083 16.8458 6.9625 16.5375C6.65417 16.2292 6.5 15.8449 6.5 15.3846V4.61537C6.5 4.15512 6.65417 3.77083 6.9625 3.4625C7.27083 3.15417 7.65513 3 8.11538 3H18.8846C19.3449 3 19.7292 3.15417 20.0375 3.4625C20.3458 3.77083 20.5 4.15512 20.5 4.61537V15.3846C20.5 15.8449 20.3458 16.2292 20.0375 16.5375C19.7292 16.8458 19.3449 17 18.8846 17H8.11538ZM8.11538 16H18.8846C19.0385 16 19.1795 15.9359 19.3077 15.8077C19.4359 15.6795 19.5 15.5385 19.5 15.3846V4.61537C19.5 4.46154 19.4359 4.32052 19.3077 4.1923C19.1795 4.0641 19.0385 4 18.8846 4H8.11538C7.96154 4 7.82052 4.0641 7.6923 4.1923C7.5641 4.32052 7.5 4.46154 7.5 4.61537V15.3846C7.5 15.5385 7.5641 15.6795 7.6923 15.8077C7.82052 15.9359 7.96154 16 8.11538 16ZM5.11538 20C4.65513 20 4.27083 19.8458 3.9625 19.5375C3.65417 19.2292 3.5 18.8449 3.5 18.3846V7.11538C3.5 6.97371 3.54798 6.85496 3.64393 6.75912C3.73989 6.66329 3.85881 6.61537 4.00067 6.61537C4.14252 6.61537 4.26121 6.66329 4.35672 6.75912C4.45224 6.85496 4.5 6.97371 4.5 7.11538V18.3846C4.5 18.5385 4.5641 18.6795 4.6923 18.8077C4.8205 18.9359 4.96153 19 5.11538 19H16.3846C16.5263 19 16.645 19.048 16.7409 19.1439C16.8367 19.2399 16.8846 19.3588 16.8846 19.5007C16.8846 19.6425 16.8367 19.7612 16.7409 19.8568C16.645 19.9523 16.5263 20 16.3846 20H5.11538Z" fill="#14A54D"/>
    <path d="M16.0999 12.2517C15.9901 12.2517 15.9102 12.2418 15.8603 12.2221C15.8104 12.2023 15.7854 12.1747 15.7854 12.1391C15.7854 12.1194 15.7887 12.0977 15.7954 12.074C15.8054 12.0503 15.8187 12.0226 15.8353 11.991L16.8636 10.0777L15.9501 8.34212C15.9368 8.31053 15.9252 8.28288 15.9152 8.25919C15.9052 8.23549 15.9002 8.21377 15.9002 8.19403C15.9002 8.16244 15.9252 8.13677 15.9751 8.11702C16.0283 8.09333 16.1099 8.08148 16.2197 8.08148H16.4243C16.4976 8.08148 16.5608 8.09135 16.614 8.1111C16.6706 8.1269 16.7155 8.16836 16.7488 8.23549L17.2929 9.29581L17.867 8.23549C17.9069 8.16441 17.9535 8.12097 18.0067 8.10518C18.06 8.08938 18.1232 8.08148 18.1964 8.08148H18.3911C18.4976 8.08148 18.5758 8.09135 18.6257 8.1111C18.679 8.13085 18.7056 8.15849 18.7056 8.19403C18.7056 8.20983 18.7006 8.23155 18.6906 8.25919C18.6839 8.28288 18.6723 8.31053 18.6557 8.34212L17.7122 10.0896L18.7106 11.991C18.7272 12.0187 18.7389 12.0463 18.7455 12.074C18.7522 12.0977 18.7555 12.1194 18.7555 12.1391C18.7555 12.1747 18.7305 12.2023 18.6806 12.2221C18.6307 12.2418 18.5508 12.2517 18.441 12.2517H18.2463C18.1731 12.2517 18.1099 12.2418 18.0567 12.2221C18.0034 12.2023 17.9585 12.1608 17.9219 12.0977L17.2829 10.8656L16.614 12.0977C16.5741 12.1727 16.5275 12.2181 16.4743 12.2339C16.4243 12.2457 16.3628 12.2517 16.2896 12.2517H16.0999Z" fill="#14A54D"/>
    <path d="M14.6223 12.2872C14.4559 12.2872 14.3061 12.2714 14.173 12.2398C14.0432 12.2121 13.9318 12.1746 13.8386 12.1272C13.7454 12.0798 13.6689 12.0344 13.609 11.991C13.5624 11.9555 13.5241 11.9219 13.4941 11.8903C13.4642 11.8548 13.4492 11.8133 13.4492 11.7659C13.4492 11.7185 13.4542 11.6652 13.4642 11.606C13.4775 11.5428 13.4941 11.4816 13.5141 11.4223C13.5374 11.3631 13.5607 11.3137 13.584 11.2742C13.6106 11.2348 13.6372 11.215 13.6639 11.215C13.6938 11.215 13.7521 11.2407 13.8386 11.292C13.9284 11.3394 14.0333 11.3888 14.1531 11.4401C14.2762 11.4875 14.4043 11.5112 14.5374 11.5112C14.6339 11.5112 14.7121 11.4974 14.772 11.4697C14.8353 11.4421 14.8819 11.3986 14.9118 11.3394C14.9451 11.2802 14.9617 11.2051 14.9617 11.1143C14.9617 11.0195 14.9384 10.9405 14.8918 10.8774C14.8486 10.8142 14.7903 10.7589 14.7171 10.7115C14.6439 10.6602 14.5607 10.6148 14.4675 10.5753C14.3777 10.5318 14.2862 10.4844 14.193 10.4331C14.1065 10.3857 14.0233 10.3304 13.9434 10.2672C13.8635 10.2041 13.7903 10.127 13.7238 10.0362C13.6605 9.94539 13.6106 9.83482 13.574 9.7045C13.5374 9.57418 13.5191 9.42017 13.5191 9.24246C13.5191 9.02921 13.5524 8.84755 13.6189 8.69749C13.6888 8.54348 13.7803 8.41908 13.8935 8.32431C14.0066 8.22953 14.1331 8.16042 14.2729 8.11698C14.4126 8.06959 14.5557 8.0459 14.7021 8.0459C14.8086 8.0459 14.9118 8.05577 15.0116 8.07552C15.1148 8.09526 15.208 8.1229 15.2912 8.15845C15.3744 8.19004 15.4409 8.22755 15.4908 8.27099C15.5275 8.29864 15.5574 8.32825 15.5807 8.35985C15.604 8.39144 15.6156 8.42303 15.6156 8.45462C15.6156 8.49411 15.609 8.54545 15.5957 8.60864C15.5857 8.66787 15.5707 8.72711 15.5507 8.78634C15.5341 8.84558 15.5125 8.89494 15.4859 8.93443C15.4592 8.97392 15.4309 8.99367 15.401 8.99367C15.3611 8.99367 15.3078 8.97985 15.2413 8.9522C15.178 8.92061 15.1015 8.89099 15.0116 8.86335C14.9251 8.83176 14.8269 8.81596 14.7171 8.81596C14.6239 8.81596 14.5457 8.82978 14.4825 8.85743C14.4193 8.88507 14.371 8.92654 14.3378 8.98182C14.3078 9.03316 14.2928 9.10029 14.2928 9.18322C14.2928 9.28195 14.3178 9.36488 14.3677 9.43201C14.4176 9.4952 14.4842 9.55048 14.5674 9.59787C14.6539 9.64131 14.7454 9.6887 14.8419 9.74004C14.9451 9.79138 15.0499 9.84864 15.1564 9.91182C15.2629 9.97501 15.3611 10.054 15.4509 10.1488C15.5408 10.2396 15.6123 10.3561 15.6656 10.4983C15.7221 10.6365 15.7504 10.8102 15.7504 11.0195C15.7504 11.2525 15.7171 11.45 15.6506 11.6119C15.5874 11.7738 15.5008 11.9041 15.391 12.0028C15.2812 12.1016 15.1597 12.1746 15.0266 12.222C14.8935 12.2655 14.7587 12.2872 14.6223 12.2872Z" fill="#14A54D"/>
    <path d="M11.5554 12.2398C11.4223 12.2398 11.3557 12.1608 11.3557 12.0029V8.27696C11.3557 8.21377 11.379 8.16639 11.4256 8.13479C11.4755 8.09925 11.5521 8.08148 11.6552 8.08148H11.8299C11.9364 8.08148 12.013 8.09925 12.0596 8.13479C12.1061 8.16639 12.1294 8.21377 12.1294 8.27696V11.4638H13.2027C13.3025 11.4638 13.3524 11.5626 13.3524 11.76V11.9436C13.3524 12.1411 13.3025 12.2398 13.2027 12.2398H11.5554Z" fill="#14A54D"/>
    <path d="M8.43411 12.2517C8.32429 12.2517 8.24442 12.2418 8.19451 12.2221C8.14459 12.2023 8.11963 12.1747 8.11963 12.1391C8.11963 12.1194 8.12296 12.0977 8.12961 12.074C8.1396 12.0503 8.15291 12.0226 8.16955 11.991L9.19785 10.0777L8.28436 8.34212C8.27105 8.31053 8.2594 8.28288 8.24941 8.25919C8.23943 8.23549 8.23444 8.21377 8.23444 8.19403C8.23444 8.16244 8.2594 8.13677 8.30932 8.11702C8.36256 8.09333 8.44409 8.08148 8.55391 8.08148H8.75857C8.83179 8.08148 8.89502 8.09135 8.94826 8.1111C9.00483 8.1269 9.04976 8.16836 9.08304 8.23549L9.62714 9.29581L10.2012 8.23549C10.2411 8.16441 10.2877 8.12097 10.341 8.10518C10.3942 8.08938 10.4574 8.08148 10.5306 8.08148H10.7253C10.8318 8.08148 10.91 8.09135 10.9599 8.1111C11.0132 8.13085 11.0398 8.15849 11.0398 8.19403C11.0398 8.20983 11.0348 8.23155 11.0248 8.25919C11.0182 8.28288 11.0065 8.31053 10.9899 8.34212L10.0464 10.0896L11.0448 11.991C11.0614 12.0187 11.0731 12.0463 11.0797 12.074C11.0864 12.0977 11.0897 12.1194 11.0897 12.1391C11.0897 12.1747 11.0648 12.2023 11.0148 12.2221C10.9649 12.2418 10.8851 12.2517 10.7752 12.2517H10.5806C10.5074 12.2517 10.4441 12.2418 10.3909 12.2221C10.3376 12.2023 10.2927 12.1608 10.2561 12.0977L9.61716 10.8656L8.94826 12.0977C8.90833 12.1727 8.86174 12.2181 8.80849 12.2339C8.75857 12.2457 8.69701 12.2517 8.6238 12.2517H8.43411Z" fill="#14A54D"/>
  </g>
</svg>
