<svg id="a7f77433-42f4-45eb-8c6b-66ca1dbe8e30" data-name="Layer 1" xmlns="http://www.w3.org/2000/svg" viewBox="0 0 28 28">
  <defs>
    <style>
      .b5a0b76e-1b9a-446d-8a1f-16394223fcf2 {
        fill: #e6e6e6;
      }

      .b1090d68-8374-4815-8eda-2cbd5b780deb {
        fill: #fadc0f;
      }

      .aa16ff99-f55b-458a-914b-906bf64400b1 {
        fill: #fff;
      }

      .fab3f8bc-1664-4352-970c-25882031b5b3 {
        fill: none;
        stroke: #414042;
        stroke-linecap: round;
        stroke-linejoin: round;
        stroke-width: 1.28px;
      }
    </style>
  </defs>
  <title>10</title>
  <circle class="b5a0b76e-1b9a-446d-8a1f-16394223fcf2" cx="14" cy="14" r="14"/>
  <g>
    <g>
      <path class="b1090d68-8374-4815-8eda-2cbd5b780deb" d="M13.53,9.38v3.9H24.7v4.85H15.75a1.93,1.93,0,0,0-3.85,0H9.64a1.93,1.93,0,0,0-3.85,0H5.17a2.47,2.47,0,0,1-2-3.85l.68-1h7V9.38H6.43l.32-.47a4.6,4.6,0,0,1,3.81-2H24.7V9.38Z"/>
      <polygon class="aa16ff99-f55b-458a-914b-906bf64400b1" points="10.8 9.38 10.8 13.28 3.8 13.28 6.43 9.38 10.8 9.38"/>
      <rect class="aa16ff99-f55b-458a-914b-906bf64400b1" x="13.53" y="9.38" width="11.17" height="3.9"/>
      <path class="aa16ff99-f55b-458a-914b-906bf64400b1" d="M15.75,18.13h0a1.93,1.93,0,0,1-3.85,0h0a1.93,1.93,0,0,1,3.85,0Z"/>
      <path class="aa16ff99-f55b-458a-914b-906bf64400b1" d="M9.64,18.13h0a1.93,1.93,0,0,1-3.85,0h0a1.93,1.93,0,0,1,3.85,0Z"/>
    </g>
    <g>
      <line class="fab3f8bc-1664-4352-970c-25882031b5b3" x1="15.89" y1="18.13" x2="24.7" y2="18.13"/>
      <line class="fab3f8bc-1664-4352-970c-25882031b5b3" x1="9.83" y1="18.13" x2="11.74" y2="18.13"/>
      <path class="fab3f8bc-1664-4352-970c-25882031b5b3" d="M24.7,6.89H10.56a4.61,4.61,0,0,0-3.81,2L3.13,14.28a2.47,2.47,0,0,0,2.05,3.85h.44"/>
      <polyline class="fab3f8bc-1664-4352-970c-25882031b5b3" points="6.86 9.38 10.81 9.38 10.81 13.28 4.07 13.28"/>
      <rect class="fab3f8bc-1664-4352-970c-25882031b5b3" x="13.54" y="9.38" width="11.17" height="3.89" transform="translate(38.24 22.66) rotate(-180)"/>
      <circle class="fab3f8bc-1664-4352-970c-25882031b5b3" cx="13.83" cy="18.14" r="1.92"/>
      <circle class="fab3f8bc-1664-4352-970c-25882031b5b3" cx="7.72" cy="18.14" r="1.92"/>
      <line class="fab3f8bc-1664-4352-970c-25882031b5b3" x1="24.7" y1="21.11" x2="3.2" y2="21.11"/>
    </g>
  </g>
</svg>
