<svg id="f0dc0713-cc52-426c-93c2-06f5f6cb4dee" data-name="Layer 1" xmlns="http://www.w3.org/2000/svg" viewBox="0 0 28 28">
  <defs>
    <style>
      .f05ed2be-445d-406b-a812-2dacacfa55da {
        fill: #e6e6e6;
      }

      .b5e8347c-0dd9-414c-9327-b42ff24dfeaf {
        fill: #414042;
      }
    </style>
  </defs>
  <title>13</title>
  <circle class="f05ed2be-445d-406b-a812-2dacacfa55da" cx="14" cy="14" r="14"/>
  <g>
    <path class="b5e8347c-0dd9-414c-9327-b42ff24dfeaf" d="M5.55,9.72H7.62V18.3H5.55Z"/>
    <path class="b5e8347c-0dd9-414c-9327-b42ff24dfeaf" d="M10.14,17.18A4.3,4.3,0,0,1,8.91,14a4.3,4.3,0,0,1,1.23-3.18,4.35,4.35,0,0,1,3.19-1.24A4.23,4.23,0,0,1,17.75,14a4.27,4.27,0,0,1-1.24,3.17,4.33,4.33,0,0,1-3.18,1.23A4.34,4.34,0,0,1,10.14,17.18ZM15,15.81a2.64,2.64,0,0,0,.65-1.8,2.6,2.6,0,0,0-.65-1.8,2.23,2.23,0,0,0-3.3,0A2.59,2.59,0,0,0,11,14a2.56,2.56,0,0,0,.65,1.79,2.11,2.11,0,0,0,1.65.73A2.13,2.13,0,0,0,15,15.81Z"/>
    <path class="b5e8347c-0dd9-414c-9327-b42ff24dfeaf" d="M20.47,12.36l-1.26.93-.93-1.45L20.89,10h1.56V18.3h-2Z"/>
  </g>
</svg>
