<svg id="e1f896d9-50cd-4a8f-bafd-6a823d1190c1" data-name="Layer 1" xmlns="http://www.w3.org/2000/svg" viewBox="0 0 28 28">
  <defs>
    <style>
      .bc5acf4e-7291-47b1-8a0f-d1eb0842c9af {
        fill: #e6e6e6;
      }

      .b9fee11c-9f40-4e4e-a94b-2edeb3c0da99 {
        fill: #414042;
      }
    </style>
  </defs>
  <title>15</title>
  <circle class="bc5acf4e-7291-47b1-8a0f-d1eb0842c9af" cx="14" cy="14" r="14"/>
  <g>
    <path class="b9fee11c-9f40-4e4e-a94b-2edeb3c0da99" d="M4.69,9.72H6.76V18.3H4.69Z"/>
    <path class="b9fee11c-9f40-4e4e-a94b-2edeb3c0da99" d="M9.29,17.18A4.26,4.26,0,0,1,8.05,14a4.27,4.27,0,0,1,1.24-3.18,4.32,4.32,0,0,1,3.19-1.24A4.23,4.23,0,0,1,16.89,14a4.23,4.23,0,0,1-1.24,3.17,4.31,4.31,0,0,1-3.17,1.23A4.31,4.31,0,0,1,9.29,17.18Zm4.83-1.37a2.59,2.59,0,0,0,.65-1.8,2.56,2.56,0,0,0-.65-1.8,2.09,2.09,0,0,0-1.64-.73,2.13,2.13,0,0,0-1.66.73,2.8,2.8,0,0,0,0,3.59,2.24,2.24,0,0,0,3.3,0Z"/>
    <path class="b9fee11c-9f40-4e4e-a94b-2edeb3c0da99" d="M18.53,17.87a2.76,2.76,0,0,1-1.12-1.37l1.7-.68a1.16,1.16,0,0,0,1.2.87,1,1,0,0,0,.68-.25.85.85,0,0,0,.29-.68.89.89,0,0,0-.29-.68,1.21,1.21,0,0,0-.84-.26h-.54V13.29h.67a.87.87,0,0,0,.66-.23.86.86,0,0,0,0-1.2.88.88,0,0,0-.64-.23,1,1,0,0,0-1,.65l-1.57-.84a2.37,2.37,0,0,1,1-1.12,3.07,3.07,0,0,1,1.62-.43,3.1,3.1,0,0,1,2,.59,2,2,0,0,1,.77,1.64A2.06,2.06,0,0,1,22,14v0a2,2,0,0,1,1.29,2,2.12,2.12,0,0,1-.8,1.73,3.12,3.12,0,0,1-2.06.66A3.38,3.38,0,0,1,18.53,17.87Z"/>
  </g>
</svg>
