<svg id="fd303034-554b-49bf-80e1-535a2ad792ea" data-name="Layer 1" xmlns="http://www.w3.org/2000/svg" viewBox="0 0 28 28">
  <defs>
    <style>
      .bf2bae90-b00d-40a7-acb7-5387e83ee68a {
        fill: #e6e6e6;
      }

      .b7f2bd74-1965-4c25-8fab-d8fc7187209f {
        fill: #414042;
      }
    </style>
  </defs>
  <title>16</title>
  <circle class="bf2bae90-b00d-40a7-acb7-5387e83ee68a" cx="14" cy="14" r="14"/>
  <g>
    <path class="b7f2bd74-1965-4c25-8fab-d8fc7187209f" d="M4.43,9.72H6.49V18.3H4.43Z"/>
    <path class="b7f2bd74-1965-4c25-8fab-d8fc7187209f" d="M9,17.18A4.3,4.3,0,0,1,7.79,14a4.23,4.23,0,0,1,4.42-4.42A4.23,4.23,0,0,1,16.62,14a4.23,4.23,0,0,1-1.24,3.17,4.3,4.3,0,0,1-3.17,1.23A4.33,4.33,0,0,1,9,17.18Zm4.83-1.37a2.6,2.6,0,0,0,.66-1.8,2.56,2.56,0,0,0-.66-1.8,2.22,2.22,0,0,0-3.29,0,2.77,2.77,0,0,0,0,3.59,2.23,2.23,0,0,0,3.29,0Z"/>
    <path class="b7f2bd74-1965-4c25-8fab-d8fc7187209f" d="M20.6,17H17.24V15.82L21,10h1.54v5.38h1.06V17H22.51V18.3H20.6Zm.17-1.5V13l-1.52,2.45Z"/>
  </g>
</svg>
