<svg id="b7ace4aa-d11c-44c7-a160-6d36194cb881" data-name="Layer 1" xmlns="http://www.w3.org/2000/svg" viewBox="0 0 28 28">
  <defs>
    <style>
      .aaf423a7-5079-4440-b2ad-b1c33090a88a {
        fill: #e6e6e6;
      }

      .acc16cfe-3539-489d-8d28-670a58a62c92 {
        fill: #414042;
      }
    </style>
  </defs>
  <title>18</title>
  <circle class="aaf423a7-5079-4440-b2ad-b1c33090a88a" cx="14" cy="14" r="14"/>
  <g>
    <path class="acc16cfe-3539-489d-8d28-670a58a62c92" d="M4.42,9.72H6.48V18.3H4.42Z"/>
    <path class="acc16cfe-3539-489d-8d28-670a58a62c92" d="M9,17.18A4.3,4.3,0,0,1,7.78,14,4.23,4.23,0,0,1,12.2,9.59,4.23,4.23,0,0,1,16.61,14a4.23,4.23,0,0,1-1.24,3.17,4.3,4.3,0,0,1-3.17,1.23A4.31,4.31,0,0,1,9,17.18Zm4.83-1.37a2.59,2.59,0,0,0,.65-1.8,2.56,2.56,0,0,0-.65-1.8,2.09,2.09,0,0,0-1.64-.73,2.13,2.13,0,0,0-1.66.73,2.8,2.8,0,0,0,0,3.59,2.24,2.24,0,0,0,3.3,0Z"/>
    <path class="acc16cfe-3539-489d-8d28-670a58a62c92" d="M22.85,13.66a2.63,2.63,0,0,1,.73,2,2.56,2.56,0,0,1-.85,2,3.2,3.2,0,0,1-2.19.77,2.79,2.79,0,0,1-2.17-.94A3.61,3.61,0,0,1,17.54,15a5.41,5.41,0,0,1,.53-2.37,5.14,5.14,0,0,1,1.54-1.88,5.45,5.45,0,0,1,2.39-1l.54,1.52a4.08,4.08,0,0,0-2.8,2v0a2.93,2.93,0,0,1,1.33-.32A2.44,2.44,0,0,1,22.85,13.66ZM21.4,16.37a1.09,1.09,0,0,0,.31-.81,1,1,0,0,0-.31-.78,1.17,1.17,0,0,0-.84-.3,1.51,1.51,0,0,0-1.18.6v.12a1.58,1.58,0,0,0,.35,1.08,1.07,1.07,0,0,0,.84.41A1.1,1.1,0,0,0,21.4,16.37Z"/>
  </g>
</svg>
