<svg id="fef49ad8-2500-4802-820e-55223058a04a" data-name="Layer 1" xmlns="http://www.w3.org/2000/svg" viewBox="0 0 28 28">
  <defs>
    <style>
      .eac4c671-978c-4e57-916e-d85310adcaba {
        fill: #e6e6e6;
      }

      .b58dd086-e10d-4229-bd70-4329aac5d4e6 {
        fill: #414042;
      }
    </style>
  </defs>
  <title>20</title>
  <circle class="eac4c671-978c-4e57-916e-d85310adcaba" cx="14" cy="14" r="14"/>
  <g>
    <path class="b58dd086-e10d-4229-bd70-4329aac5d4e6" d="M4.44,9.72H6.51V18.3H4.44Z"/>
    <path class="b58dd086-e10d-4229-bd70-4329aac5d4e6" d="M9,17.18A4.3,4.3,0,0,1,7.8,14a4.23,4.23,0,0,1,4.42-4.42A4.22,4.22,0,0,1,16.63,14a4.26,4.26,0,0,1-1.23,3.17,4.33,4.33,0,0,1-3.18,1.23A4.33,4.33,0,0,1,9,17.18Zm4.84-1.37a2.64,2.64,0,0,0,.65-1.8,2.6,2.6,0,0,0-.65-1.8,2.12,2.12,0,0,0-1.65-.73,2.09,2.09,0,0,0-1.65.73A2.59,2.59,0,0,0,9.92,14a2.56,2.56,0,0,0,.65,1.79,2.09,2.09,0,0,0,1.65.73A2.15,2.15,0,0,0,13.87,15.81Z"/>
    <path class="b58dd086-e10d-4229-bd70-4329aac5d4e6" d="M18.31,17.75A2.1,2.1,0,0,1,17.44,16a2.33,2.33,0,0,1,.4-1.36,2.45,2.45,0,0,1,1.05-.83v0a1.75,1.75,0,0,1-.7-.66,2.1,2.1,0,0,1,.44-2.66,2.91,2.91,0,0,1,1.86-.57,2.93,2.93,0,0,1,1.88.58,1.92,1.92,0,0,1,.73,1.61,2,2,0,0,1-.29,1.05,1.57,1.57,0,0,1-.71.65v0A2.27,2.27,0,0,1,23.56,16a2.07,2.07,0,0,1-.87,1.75,3.53,3.53,0,0,1-2.2.66A3.47,3.47,0,0,1,18.31,17.75Zm3-1.27a1.06,1.06,0,0,0,.31-.75,1,1,0,0,0-.31-.75,1.17,1.17,0,0,0-1.54,0,1,1,0,0,0-.31.75,1,1,0,0,0,.31.75,1.11,1.11,0,0,0,1.54,0Zm-.17-3.64a.74.74,0,0,0,.23-.57.83.83,0,0,0-1.42-.6.85.85,0,0,0-.23.6.74.74,0,0,0,.23.57.8.8,0,0,0,.59.22A.84.84,0,0,0,21.09,12.84Z"/>
  </g>
</svg>
