<svg id="b494d825-e063-4288-b1a4-c0d4443ca1c4" data-name="Layer 1" xmlns="http://www.w3.org/2000/svg" viewBox="0 0 28 28">
  <defs>
    <style>
      .e5f076b9-93a8-40ff-8804-e7b873aa1744 {
        fill: #e6e6e6;
      }

      .f022a65a-d052-4d5d-9a19-29d787e17df2 {
        fill: #fff;
      }

      .b3ca76a4-fa47-45d6-a940-100a0bd011ba {
        fill: #fadc0f;
      }

      .ba774900-5daf-421f-9566-3e17cd385779 {
        fill: none;
        stroke: #414042;
        stroke-linecap: round;
        stroke-linejoin: round;
        stroke-width: 1.28px;
      }
    </style>
  </defs>
  <title>24</title>
  <circle class="e5f076b9-93a8-40ff-8804-e7b873aa1744" cx="14" cy="14" r="14"/>
  <g>
    <g>
      <path class="f022a65a-d052-4d5d-9a19-29d787e17df2" d="M19.29,6.78a5.4,5.4,0,0,1-.85,2.92l-.12.12A1.89,1.89,0,0,0,17,9.28l0-.13V9a1.87,1.87,0,1,0-3.73,0A2,2,0,0,0,14.81,11l.11,0A1.92,1.92,0,0,0,15,12l-.1,0a5,5,0,0,1-1,.1,5.29,5.29,0,0,1-3.06-1h0a5.39,5.39,0,1,1,8.46-4.43Z"/>
      <path class="b3ca76a4-fa47-45d6-a940-100a0bd011ba" d="M17,9v.11l0,.13h-.09a2,2,0,0,0-1.44.59A1.94,1.94,0,0,0,14.92,11l-.11,0A2,2,0,0,1,13.31,9,1.87,1.87,0,1,1,17,9Z"/>
      <path class="b3ca76a4-fa47-45d6-a940-100a0bd011ba" d="M24.84,19.22a2,2,0,0,1-1.44.6,2.05,2.05,0,0,1-1.45-.6l-1.79-1.78V22.6H4.82V17.23a6,6,0,0,1,6-6h0a5.29,5.29,0,0,0,3.06,1,5,5,0,0,0,1-.1l.1,0a1.92,1.92,0,0,1-.11-1,1.94,1.94,0,0,1,.57-1.15,2,2,0,0,1,1.44-.59H17a1.89,1.89,0,0,1,1.3.54s0,0,.06,0l6.46,6.47A2,2,0,0,1,24.84,19.22Z"/>
    </g>
    <g>
      <path class="ba774900-5daf-421f-9566-3e17cd385779" d="M14.94,12.07a5.07,5.07,0,0,1-1,.1A5.39,5.39,0,1,1,18.44,9.7"/>
      <path class="ba774900-5daf-421f-9566-3e17cd385779" d="M14.82,11A2,2,0,0,1,13.32,9a1.87,1.87,0,1,1,3.73,0,.37.37,0,0,1,0,.11"/>
      <rect class="ba774900-5daf-421f-9566-3e17cd385779" x="13.55" y="12.5" width="13.24" height="4.09" rx="2.04" transform="translate(16.19 -10) rotate(45)"/>
      <path class="ba774900-5daf-421f-9566-3e17cd385779" d="M10.84,11.21h0a6,6,0,0,0-6,6V22.6"/>
      <line class="ba774900-5daf-421f-9566-3e17cd385779" x1="20.17" y1="17.44" x2="20.17" y2="22.6"/>
      <line class="ba774900-5daf-421f-9566-3e17cd385779" x1="8.91" y1="19.11" x2="8.91" y2="22.41"/>
    </g>
  </g>
</svg>
