<svg id="b8fb4a5f-a8ac-431f-a784-1a7c75ed5f97" data-name="Layer 1" xmlns="http://www.w3.org/2000/svg" viewBox="0 0 28 28">
  <defs>
    <style>
      .a22afdee-ac68-4ea8-8d68-88c2850640c4 {
        fill: #e6e6e6;
      }

      .e10781c0-4515-455e-ae4e-5fe40c8c7c84 {
        fill: #fff;
      }

      .bc2c0b86-62b1-4e45-924a-8453032ab01e {
        fill: #fadc0f;
      }

      .a38e6e39-90d0-48cd-9f98-0d284251131a {
        fill: none;
        stroke: #414042;
        stroke-linecap: round;
        stroke-linejoin: round;
        stroke-width: 1.28px;
      }
    </style>
  </defs>
  <title>25-1</title>
  <circle class="a22afdee-ac68-4ea8-8d68-88c2850640c4" cx="14" cy="14" r="14"/>
  <g>
    <g>
      <circle class="e10781c0-4515-455e-ae4e-5fe40c8c7c84" cx="17.99" cy="7.72" r="5.07"/>
      <path class="bc2c0b86-62b1-4e45-924a-8453032ab01e" d="M23.44,22.81V23a6.17,6.17,0,0,0-11.24-.09l0-.08c0-.35,0-.73,0-1.11l0,0c-1,.86-3.18.42-4.43.05l-4.39-1.3a1.6,1.6,0,0,1-1.14-1.53,1.67,1.67,0,0,1,.06-.44,1.59,1.59,0,0,1,1.78-1.12l6.22,1c.59,0,.8-.13,1.36-.91l1.61-2.25.07-.11.1-.14a4.9,4.9,0,0,1,3.74-2.18h.34a5.43,5.43,0,0,1,2.88.89A6.08,6.08,0,0,1,23,17.63C23.17,18.68,23.34,21.18,23.44,22.81Z"/>
      <path class="e10781c0-4515-455e-ae4e-5fe40c8c7c84" d="M23.44,23l-2.68.63a3.38,3.38,0,0,0-6,.11l-2.54-.83A6.17,6.17,0,0,1,23.44,23Z"/>
    </g>
    <g>
      <circle class="a38e6e39-90d0-48cd-9f98-0d284251131a" cx="17.99" cy="7.72" r="5.07"/>
      <path class="a38e6e39-90d0-48cd-9f98-0d284251131a" d="M12.18,22.81a30.14,30.14,0,0,1,.62-6.48,4.91,4.91,0,0,1,4.35-3.54h.35A5.79,5.79,0,0,1,23,17.63c.2,1.05.37,3.55.47,5.18"/>
      <path class="a38e6e39-90d0-48cd-9f98-0d284251131a" d="M13.41,15l-1.78,2.5c-.56.78-.77.94-1.35.91l-6.22-1A1.58,1.58,0,0,0,2.28,18.5h0a1.58,1.58,0,0,0,1.07,2l4.39,1.3c1.25.37,3.46.81,4.44-.05"/>
      <line class="a38e6e39-90d0-48cd-9f98-0d284251131a" x1="19.71" y1="17.95" x2="19.75" y2="19.56"/>
      <path class="a38e6e39-90d0-48cd-9f98-0d284251131a" d="M12.21,22.89A6.16,6.16,0,0,1,23.44,23"/>
      <line class="a38e6e39-90d0-48cd-9f98-0d284251131a" x1="16.7" y1="19.41" x2="20.38" y2="13.68"/>
      <path class="a38e6e39-90d0-48cd-9f98-0d284251131a" d="M14.75,23.72a3.37,3.37,0,0,1,6-.11"/>
    </g>
  </g>
</svg>
