<svg id="b3b1c7df-f637-4cbd-b225-72654ff232ca" data-name="Layer 1" xmlns="http://www.w3.org/2000/svg" viewBox="0 0 28 28">
  <defs>
    <style>
      .f540d86d-a60c-402e-aa1f-49d68e3b0c73 {
        fill: #e6e6e6;
      }

      .eab5f3d6-786b-4a78-a310-c4a5b60bf19f {
        fill: #fff;
      }

      .bb021138-d775-497f-8f2f-4ac63e35990b {
        fill: #fadc0f;
      }

      .b3c966a7-3c71-4de5-87ad-b7d7c451f021 {
        fill: none;
        stroke: #414042;
        stroke-linecap: round;
        stroke-linejoin: round;
        stroke-width: 1.28px;
      }
    </style>
  </defs>
  <title>25-2</title>
  <circle class="f540d86d-a60c-402e-aa1f-49d68e3b0c73" cx="14" cy="14" r="14"/>
  <g>
    <g>
      <path class="eab5f3d6-786b-4a78-a310-c4a5b60bf19f" d="M12.34,19.89a5,5,0,0,0-.83,1.47v0a33,33,0,0,0-4.27,1.07A11.17,11.17,0,0,1,4.9,19,2.09,2.09,0,0,0,3,17.81a3.55,3.55,0,0,1-1.38-.17.78.78,0,0,1-.24-1.34,4.11,4.11,0,0,1,3.81.14c.69.43,3.39,3.07,3.39,3.07a3.67,3.67,0,0,0,.47-1.43A3.68,3.68,0,0,1,12.34,19.89Z"/>
      <path class="eab5f3d6-786b-4a78-a310-c4a5b60bf19f" d="M17.83,13a9.55,9.55,0,0,1,1.14.35,4,4,0,0,1-5.54.1,9.61,9.61,0,0,1,1.05-.33v-.76c-2.63.66-2.69-2.09-2.7-2.41s-.46-.56-.6-.79a1.65,1.65,0,0,1,.44-1.4A4.58,4.58,0,0,1,12,6.13a3.89,3.89,0,0,1,4.9-2.55c3.24.92,3.63,6.4,1,8.14Z"/>
      <path class="bb021138-d775-497f-8f2f-4ac63e35990b" d="M24.07,18.08a5.1,5.1,0,0,0-3.72,2.33,4.93,4.93,0,0,0-8-.52,3.68,3.68,0,0,0-3.26-1.81c.25-2.67,2.85-4,4.35-4.6a4,4,0,0,0,5.54-.1C20.61,14,23.51,15.34,24.07,18.08Z"/>
      <path class="eab5f3d6-786b-4a78-a310-c4a5b60bf19f" d="M24.11,22.12a19.58,19.58,0,0,0-3.34-.87v0a4.39,4.39,0,0,0-.41-.81,5.1,5.1,0,0,1,3.72-2.33,1.18,1.18,0,0,1,0,.2A13.78,13.78,0,0,1,24.11,22.12Z"/>
      <path class="eab5f3d6-786b-4a78-a310-c4a5b60bf19f" d="M20.77,21.25a27.05,27.05,0,0,0-9.27.14v0a4.93,4.93,0,0,1,8.84-.95,4.39,4.39,0,0,1,.41.81Z"/>
    </g>
    <g>
      <path class="b3c966a7-3c71-4de5-87ad-b7d7c451f021" d="M14.48,12.38v.77s-5.05,1.16-5.39,4.93a3.77,3.77,0,0,1-.48,1.43s-2.7-2.64-3.38-3.07a4.13,4.13,0,0,0-3.82-.14.79.79,0,0,0,.24,1.34A3.57,3.57,0,0,0,3,17.81,2.08,2.08,0,0,1,4.9,19a11.52,11.52,0,0,0,2.33,3.49"/>
      <path class="b3c966a7-3c71-4de5-87ad-b7d7c451f021" d="M16,11.77C11.87,14,11.8,10.35,11.78,10s-.45-.56-.59-.79,0-.92.43-1.4A4.56,4.56,0,0,1,12,6.13a3.87,3.87,0,0,1,4.89-2.55c3.24.92,3.63,6.4,1,8.14V13s5.64,1.22,6.29,5.25a13.78,13.78,0,0,1,0,3.84"/>
      <path class="b3c966a7-3c71-4de5-87ad-b7d7c451f021" d="M11.51,21.36a4.94,4.94,0,0,1,9.25-.14"/>
      <path class="b3c966a7-3c71-4de5-87ad-b7d7c451f021" d="M7.23,22.46c2.4-.78,9.87-2.86,16.89-.34"/>
      <path class="b3c966a7-3c71-4de5-87ad-b7d7c451f021" d="M13.43,13.48A4,4,0,0,0,19,13.37"/>
      <line class="b3c966a7-3c71-4de5-87ad-b7d7c451f021" x1="17.62" y1="18.07" x2="21.22" y2="14.51"/>
      <path class="b3c966a7-3c71-4de5-87ad-b7d7c451f021" d="M9.09,18.08a3.67,3.67,0,0,1,3.25,1.81"/>
      <path class="b3c966a7-3c71-4de5-87ad-b7d7c451f021" d="M20.36,20.41a5.07,5.07,0,0,1,3.72-2.33"/>
      <path class="b3c966a7-3c71-4de5-87ad-b7d7c451f021" d="M17.13,7.35a.5.5,0,0,1,.62.22c.31.67-.35,1.68-.76,1.54"/>
    </g>
  </g>
</svg>
