<svg id="b35188af-9e7a-4305-8d27-7eef157cc1e1" data-name="Layer 1" xmlns="http://www.w3.org/2000/svg" viewBox="0 0 28 28">
  <defs>
    <style>
      .acc05d8c-daeb-4494-b5fc-e16819812634 {
        fill: #e6e6e6;
      }

      .e35512f2-3e27-421a-a22b-61cf31b011b1 {
        fill: #fadc0f;
      }

      .e852a1ae-4107-4f3b-b722-24e746563643 {
        fill: #fff;
      }

      .bac05e77-81d9-495e-8b05-8ca46a275e2e {
        fill: none;
        stroke: #414042;
        stroke-linecap: round;
        stroke-linejoin: round;
        stroke-width: 1.28px;
      }

      .bd03ae9c-0c72-4cd4-b8cf-89b2c67e8578 {
        fill: #414042;
      }
    </style>
  </defs>
  <title>27</title>
  <circle class="acc05d8c-daeb-4494-b5fc-e16819812634" cx="14" cy="14" r="14"/>
  <g>
    <g>
      <path class="e35512f2-3e27-421a-a22b-61cf31b011b1" d="M19.94,9.3a2.83,2.83,0,0,1-1.67,2.88,10.17,10.17,0,0,1-4.24.61,10.14,10.14,0,0,1-4.24-.61A2.84,2.84,0,0,1,8.12,9.29V8.07L8.2,2.74H19.85L20,8.08Z"/>
      <path class="e852a1ae-4107-4f3b-b722-24e746563643" d="M18.27,7.82a6.07,6.07,0,0,1-8.48,0l1.49-1.71a4.35,4.35,0,0,0,5.5,0Z"/>
      <path class="e35512f2-3e27-421a-a22b-61cf31b011b1" d="M14,15.65h2.36A3.51,3.51,0,0,1,19,17a4.65,4.65,0,0,1,1,3.61l-.19,1.52v3.58H8.23V22.17L8,20.64a4.66,4.66,0,0,1,1-3.61,3.54,3.54,0,0,1,2.59-1.39H14"/>
      <path class="e852a1ae-4107-4f3b-b722-24e746563643" d="M18.21,22.05l-1.28,1.23a5.73,5.73,0,0,0-2.9-.62,5.68,5.68,0,0,0-2.9.62L9.85,22a5.62,5.62,0,0,1,8.36,0Z"/>
    </g>
    <g>
      <g>
        <line class="bac05e77-81d9-495e-8b05-8ca46a275e2e" x1="8.2" y1="2.74" x2="8.11" y2="8.07"/>
        <path class="bac05e77-81d9-495e-8b05-8ca46a275e2e" d="M8.11,8.07V9.29a2.84,2.84,0,0,0,1.67,2.89,10.17,10.17,0,0,0,4.24.61"/>
        <line class="bac05e77-81d9-495e-8b05-8ca46a275e2e" x1="19.86" y1="2.74" x2="19.95" y2="8.08"/>
        <path class="bac05e77-81d9-495e-8b05-8ca46a275e2e" d="M20,8.08V9.3a2.83,2.83,0,0,1-1.67,2.88,10.14,10.14,0,0,1-4.24.61"/>
        <path class="bac05e77-81d9-495e-8b05-8ca46a275e2e" d="M18.27,7.82a6.07,6.07,0,0,1-8.48,0l1.49-1.71a4.35,4.35,0,0,0,5.5,0Z"/>
        <line class="bac05e77-81d9-495e-8b05-8ca46a275e2e" x1="10.29" y1="11.41" x2="11.3" y2="11.41"/>
        <line class="bac05e77-81d9-495e-8b05-8ca46a275e2e" x1="16.75" y1="11.41" x2="17.71" y2="11.41"/>
        <g>
          <g>
            <path class="bac05e77-81d9-495e-8b05-8ca46a275e2e" d="M14,22.66a5.73,5.73,0,0,0-2.9.62L9.85,22A5.63,5.63,0,0,1,14,20.18"/>
            <line class="bac05e77-81d9-495e-8b05-8ca46a275e2e" x1="8.23" y1="22.17" x2="8.23" y2="25.75"/>
            <path class="bac05e77-81d9-495e-8b05-8ca46a275e2e" d="M8.23,22.17,8,20.64a4.66,4.66,0,0,1,1-3.61,3.54,3.54,0,0,1,2.59-1.39H14"/>
            <path class="bac05e77-81d9-495e-8b05-8ca46a275e2e" d="M8.23,23.19H7.72a.69.69,0,0,0-.69.69H7"/>
            <path class="bac05e77-81d9-495e-8b05-8ca46a275e2e" d="M14,22.66a5.73,5.73,0,0,1,2.9.62l1.28-1.23A5.62,5.62,0,0,0,14,20.18"/>
            <line class="bac05e77-81d9-495e-8b05-8ca46a275e2e" x1="19.83" y1="22.17" x2="19.83" y2="25.75"/>
            <path class="bac05e77-81d9-495e-8b05-8ca46a275e2e" d="M19.83,22.17,20,20.65A4.65,4.65,0,0,0,19,17a3.51,3.51,0,0,0-2.59-1.39H14"/>
            <path class="bac05e77-81d9-495e-8b05-8ca46a275e2e" d="M19.83,23.2h.51a.68.68,0,0,1,.69.68h0"/>
          </g>
          <line class="bac05e77-81d9-495e-8b05-8ca46a275e2e" x1="9.13" y1="17.46" x2="11.67" y2="17.46"/>
          <line class="bac05e77-81d9-495e-8b05-8ca46a275e2e" x1="16.57" y1="17.46" x2="18.87" y2="17.46"/>
        </g>
      </g>
      <g>
        <circle class="bd03ae9c-0c72-4cd4-b8cf-89b2c67e8578" cx="23.28" cy="17.46" r="0.81"/>
        <path class="bd03ae9c-0c72-4cd4-b8cf-89b2c67e8578" d="M23.28,16h0a.67.67,0,0,1-.66-.63l-.21-4.74a.87.87,0,0,1,.87-.9h0a.86.86,0,0,1,.86.9l-.21,4.74A.65.65,0,0,1,23.28,16Z"/>
      </g>
      <g>
        <line class="bac05e77-81d9-495e-8b05-8ca46a275e2e" x1="4.48" y1="18.24" x2="4.48" y2="10.44"/>
        <polyline class="bac05e77-81d9-495e-8b05-8ca46a275e2e" points="2.86 12.06 4.48 10.44 6.12 12.08"/>
      </g>
    </g>
  </g>
</svg>
