<svg id="afe34a6e-fb53-4328-a73a-321305a6176d" data-name="Layer 1" xmlns="http://www.w3.org/2000/svg" viewBox="0 0 28 28">
  <defs>
    <style>
      .e8f5fa54-4e6e-4734-bf63-14dba6edc149 {
        fill: #e6e6e6;
      }

      .afc78ab4-6a29-4b58-9b46-302a7b3fff34 {
        fill: #fadc0f;
      }

      .a35308ca-0e61-4157-b32c-9f2f0ac402eb {
        fill: #414042;
      }

      .af728f58-378b-4ce3-a610-72d3949cb946 {
        fill: none;
        stroke: #414042;
        stroke-linecap: round;
        stroke-linejoin: round;
        stroke-width: 1.28px;
      }
    </style>
  </defs>
  <title>32</title>
  <circle class="e8f5fa54-4e6e-4734-bf63-14dba6edc149" cx="14" cy="14" r="14"/>
  <g>
    <g>
      <path class="afc78ab4-6a29-4b58-9b46-302a7b3fff34" d="M9.51,17.37a3.51,3.51,0,0,1-.57,1.95l-.1.14L5.9,23.77,3,19.46l-.09-.14a3.52,3.52,0,0,1-.58-1.95,3.61,3.61,0,1,1,7.22,0Z"/>
      <path class="afc78ab4-6a29-4b58-9b46-302a7b3fff34" d="M24.18,5.74H14.69a.51.51,0,0,0-.44.78L19,14.21a.51.51,0,0,0,.87,0l4.75-7.69A.51.51,0,0,0,24.18,5.74Z"/>
    </g>
    <g>
      <g>
        <circle class="a35308ca-0e61-4157-b32c-9f2f0ac402eb" cx="5.9" cy="17.37" r="1.21"/>
        <path class="af728f58-378b-4ce3-a610-72d3949cb946" d="M9.51,17.37a3.51,3.51,0,0,1-.57,1.95l-.1.14L5.9,23.77,3,19.46l-.09-.14a3.52,3.52,0,0,1-.58-1.95,3.61,3.61,0,1,1,7.22,0Z"/>
      </g>
      <path class="af728f58-378b-4ce3-a610-72d3949cb946" d="M16.37,14.4H14.28a2.34,2.34,0,0,0-2.34,2.34h0a2.35,2.35,0,0,0,2.34,2.35h1.18a2.35,2.35,0,0,1,2.35,2.34h0a2.35,2.35,0,0,1-2.35,2.34H8.53"/>
      <g>
        <path class="af728f58-378b-4ce3-a610-72d3949cb946" d="M24.18,5.74H14.69a.51.51,0,0,0-.44.78L19,14.21a.51.51,0,0,0,.87,0l4.75-7.69A.51.51,0,0,0,24.18,5.74Z"/>
        <line class="af728f58-378b-4ce3-a610-72d3949cb946" x1="19.44" y1="7.18" x2="19.44" y2="9.49"/>
        <circle class="a35308ca-0e61-4157-b32c-9f2f0ac402eb" cx="19.44" cy="11.1" r="0.56"/>
      </g>
    </g>
  </g>
</svg>
