<svg id="a90c3f82-0603-44c5-b3db-0259a85e1bbb" data-name="Layer 1" xmlns="http://www.w3.org/2000/svg" viewBox="0 0 28 28">
  <defs>
    <style>
      .feaf5765-c965-4ee3-b6fd-24915fb63804 {
        fill: #e6e6e6;
      }

      .aeb0b1f7-c270-45f2-9cc2-3156b0a79358 {
        fill: #fff;
      }

      .ff9c3f94-f28a-4959-a9a0-3036cdc4e867 {
        fill: #fadc0f;
      }

      .b421b9ff-e0be-4d9c-a36c-48612f7c054f {
        fill: none;
        stroke: #414042;
        stroke-linecap: round;
        stroke-linejoin: round;
        stroke-width: 1.28px;
      }
    </style>
  </defs>
  <title>34</title>
  <circle class="feaf5765-c965-4ee3-b6fd-24915fb63804" cx="14" cy="14" r="14"/>
  <g>
    <g>
      <circle class="aeb0b1f7-c270-45f2-9cc2-3156b0a79358" cx="14.06" cy="3.92" r="2.61"/>
      <path class="ff9c3f94-f28a-4959-a9a0-3036cdc4e867" d="M20.08,24.4a1,1,0,0,1-1.9.26l-.74-2.72a5,5,0,0,0-1.05-2l-2.23-2.57-1.45,2.83a6.22,6.22,0,0,1-.84,1.25L9.45,24.27a1.09,1.09,0,0,1-.83.37,1.08,1.08,0,0,1-.81-.35,1.09,1.09,0,0,1-.08-1.41L10,19.8a4.53,4.53,0,0,0,.43-.7L12.48,15a4.46,4.46,0,0,1-.26-1.5V10.35a.52.52,0,0,0-.82-.42l-.88.62a.79.79,0,0,0-.33.65v2.09a.9.9,0,0,1-1.79,0V11.38a3.77,3.77,0,0,1,1.54-3l1.6-1.16a2.57,2.57,0,0,1,1.54-.51h1.16a1.89,1.89,0,0,1,1.89,1.89v1.51L19,11.56a.89.89,0,0,1,.41,1.19.92.92,0,0,1-1.21.44l-2.08-1V14a3.47,3.47,0,0,0,.5,1.81l2.16,3.61A4.83,4.83,0,0,1,19.41,21l.65,3.24A1.11,1.11,0,0,1,20.08,24.4Z"/>
    </g>
    <g>
      <circle class="b421b9ff-e0be-4d9c-a36c-48612f7c054f" cx="14.06" cy="3.92" r="2.61"/>
      <path class="b421b9ff-e0be-4d9c-a36c-48612f7c054f" d="M11.54,7.18,10,8.34a3.78,3.78,0,0,0-1.55,3v1.91a.89.89,0,0,0,.9.89h0a.89.89,0,0,0,.89-.89V11.2a.8.8,0,0,1,.34-.65l.88-.62a.52.52,0,0,1,.82.42V13.5a4.52,4.52,0,0,0,1.11,3L16.39,20a5,5,0,0,1,1.05,2l.75,2.72a.94.94,0,0,0,1.12.68h0a1,1,0,0,0,.75-1.13L19.41,21a5,5,0,0,0-.61-1.59l-2.17-3.61a3.57,3.57,0,0,1-.5-1.81V8.56a1.89,1.89,0,0,0-1.88-1.89H13.08A2.61,2.61,0,0,0,11.54,7.18Z"/>
      <path class="b421b9ff-e0be-4d9c-a36c-48612f7c054f" d="M12.49,15l-2.06,4.1a4.48,4.48,0,0,1-.42.7L7.73,22.88a1.1,1.1,0,0,0,.08,1.41h0a1.12,1.12,0,0,0,1.65,0l2.41-2.77a6.26,6.26,0,0,0,.85-1.25l1.44-2.83"/>
      <path class="b421b9ff-e0be-4d9c-a36c-48612f7c054f" d="M16.13,12.22l2.09,1a.91.91,0,0,0,1.2-.44h0a.9.9,0,0,0-.4-1.19l-2.89-1.49"/>
    </g>
  </g>
</svg>
