<svg id="ada58d15-f104-447e-b6ef-0ebb9c383310" data-name="Layer 1" xmlns="http://www.w3.org/2000/svg" viewBox="0 0 28 28">
  <defs>
    <style>
      .ad8f9321-4392-443e-9932-dffb52996327 {
        fill: #e6e6e6;
      }

      .a3d97230-558e-414d-a36c-2bc7b8468ac8 {
        fill: #fff;
      }

      .a72c7b74-43d6-4b3c-a15e-52f2c985c133 {
        fill: #fadc0f;
      }

      .a487a104-833e-4fca-98f5-90e76e061fd7, .efed4233-1008-42fb-af93-b78b52e74256 {
        fill: none;
        stroke: #414042;
        stroke-linecap: round;
        stroke-linejoin: round;
      }

      .efed4233-1008-42fb-af93-b78b52e74256 {
        stroke-width: 1.28px;
      }

      .a272e536-8ba2-4b43-a2bb-9b0c6a70c44c {
        fill: #414042;
      }
    </style>
  </defs>
  <title>35</title>
  <circle class="ad8f9321-4392-443e-9932-dffb52996327" cx="14" cy="14" r="14"/>
  <g>
    <g>
      <circle class="a3d97230-558e-414d-a36c-2bc7b8468ac8" cx="14" cy="9.75" r="2.97"/>
      <path class="a72c7b74-43d6-4b3c-a15e-52f2c985c133" d="M18.09,18.6c-.72-.15-1-.5-1-.86h-.19a2.89,2.89,0,0,0-5.75,0h-.18c-.06.36-.32.71-1,.86-1.62.32-1.3-1.11-1.3-1.11A5.25,5.25,0,0,1,14,12.72a5.25,5.25,0,0,1,5.39,4.77S19.71,18.92,18.09,18.6Z"/>
    </g>
    <g>
      <g>
        <circle class="efed4233-1008-42fb-af93-b78b52e74256" cx="14" cy="14" r="11.74"/>
        <line class="efed4233-1008-42fb-af93-b78b52e74256" x1="20.06" y1="20.06" x2="22.28" y2="22.28"/>
        <line class="efed4233-1008-42fb-af93-b78b52e74256" x1="5.7" y1="5.7" x2="8.88" y2="8.88"/>
      </g>
      <g>
        <g>
          <circle class="a487a104-833e-4fca-98f5-90e76e061fd7" cx="14" cy="9.75" r="2.97"/>
          <path class="a487a104-833e-4fca-98f5-90e76e061fd7" d="M14,12.72a5.25,5.25,0,0,0-5.39,4.77s-.32,1.43,1.3,1.11a1.07,1.07,0,0,0,.73-1.83"/>
          <path class="a487a104-833e-4fca-98f5-90e76e061fd7" d="M14,12.72a5.25,5.25,0,0,1,5.39,4.77s.32,1.43-1.3,1.11a1.07,1.07,0,0,1-.73-1.83"/>
        </g>
        <circle class="a487a104-833e-4fca-98f5-90e76e061fd7" cx="14" cy="17.98" r="2.88"/>
        <circle class="a272e536-8ba2-4b43-a2bb-9b0c6a70c44c" cx="14" cy="17.98" r="1.21"/>
        <line class="a487a104-833e-4fca-98f5-90e76e061fd7" x1="11.12" y1="17.98" x2="13.67" y2="17.98"/>
        <line class="a487a104-833e-4fca-98f5-90e76e061fd7" x1="14" y1="17.98" x2="16.55" y2="17.98"/>
        <line class="a487a104-833e-4fca-98f5-90e76e061fd7" x1="14" y1="17.98" x2="14" y2="20.75"/>
      </g>
    </g>
  </g>
</svg>
