<svg id="b8e9fadb-6d02-4853-959c-0e830387372f" data-name="Layer 1" xmlns="http://www.w3.org/2000/svg" viewBox="0 0 28 28">
  <defs>
    <style>
      .be0bfe16-06a3-488b-a38d-c82f4849f3db {
        fill: #e6e6e6;
      }

      .ef9a20a1-b6e6-4227-9a02-a5cb0d56ec92 {
        fill: #fff;
      }

      .e7b99d6c-23d4-4c67-96e7-b56ed9ec6dcb {
        fill: #fadc0f;
      }

      .b7f1155f-9c6c-4676-a6e2-599bf65da077 {
        fill: #414042;
      }

      .a68214f3-4e2f-4196-b864-f2f4b08c141a {
        fill: none;
        stroke: #414042;
        stroke-linecap: round;
        stroke-linejoin: round;
        stroke-width: 1.28px;
      }
    </style>
  </defs>
  <title>37</title>
  <circle class="be0bfe16-06a3-488b-a38d-c82f4849f3db" cx="14" cy="14" r="14"/>
  <g>
    <g>
      <circle class="ef9a20a1-b6e6-4227-9a02-a5cb0d56ec92" cx="16.64" cy="5.02" r="2.37"/>
      <path class="e7b99d6c-23d4-4c67-96e7-b56ed9ec6dcb" d="M22.11,23.65a.88.88,0,0,1-.7.85.87.87,0,0,1-1-.62l-.68-2.48a4.61,4.61,0,0,0-.95-1.77l-2-2.34-1.32,2.58A5.85,5.85,0,0,1,14.64,21l-2.19,2.51a1,1,0,0,1-.77.35,1,1,0,0,1-.73-.32,1,1,0,0,1-.07-1.29L13,19.46a5,5,0,0,0,.38-.63l1.87-3.74h0A4.12,4.12,0,0,1,15,13.73V10.86a.47.47,0,0,0-.75-.38l-.8.57a.7.7,0,0,0-.3.58v1.9a.82.82,0,0,1-.82.82.82.82,0,0,1-.81-.82V11.8A3.45,3.45,0,0,1,12.89,9L14.34,8a2.43,2.43,0,0,1,1.4-.45h1.07a1.71,1.71,0,0,1,1.71,1.71V10.6L21.15,12a.82.82,0,0,1,.44.73.94.94,0,0,1-.08.36.81.81,0,0,1-1.09.39l-1.9-.88v1.59A3.15,3.15,0,0,0,19,15.79l2,3.29a4.85,4.85,0,0,1,.56,1.44l.58,2.95A1.1,1.1,0,0,1,22.11,23.65Z"/>
    </g>
    <g>
      <g>
        <circle class="b7f1155f-9c6c-4676-a6e2-599bf65da077" cx="6.54" cy="13.74" r="0.91"/>
        <path class="b7f1155f-9c6c-4676-a6e2-599bf65da077" d="M6.54,11.82h0A.86.86,0,0,1,5.68,11L5.41,4.8A1.12,1.12,0,0,1,6.54,3.62h0A1.12,1.12,0,0,1,7.67,4.8L7.39,11A.85.85,0,0,1,6.54,11.82Z"/>
      </g>
      <g>
        <circle class="a68214f3-4e2f-4196-b864-f2f4b08c141a" cx="16.64" cy="5.02" r="2.37"/>
        <path class="a68214f3-4e2f-4196-b864-f2f4b08c141a" d="M14.35,8,12.9,9a3.43,3.43,0,0,0-1.41,2.77v1.73a.82.82,0,0,0,.82.82h0a.82.82,0,0,0,.81-.82v-1.9a.7.7,0,0,1,.3-.58l.81-.57a.47.47,0,0,1,.74.38v2.87a4.13,4.13,0,0,0,1,2.7l2.78,3.2a4.48,4.48,0,0,1,.95,1.77l.68,2.48a.88.88,0,0,0,1,.62h0a.88.88,0,0,0,.68-1l-.59-2.95A4.36,4.36,0,0,0,21,19.08l-2-3.29a3.15,3.15,0,0,1-.46-1.64V9.23a1.7,1.7,0,0,0-1.71-1.71H15.75A2.39,2.39,0,0,0,14.35,8Z"/>
        <path class="a68214f3-4e2f-4196-b864-f2f4b08c141a" d="M15.21,15.09l-1.87,3.74a4.12,4.12,0,0,1-.39.63l-2.07,2.8A1,1,0,0,0,11,23.55h0a1,1,0,0,0,1.5,0L14.65,21a5.85,5.85,0,0,0,.77-1.14l1.31-2.58"/>
        <path class="a68214f3-4e2f-4196-b864-f2f4b08c141a" d="M18.52,12.56l1.9.88a.82.82,0,0,0,1.1-.39h0A.83.83,0,0,0,21.15,12L18.52,10.6"/>
      </g>
    </g>
  </g>
</svg>
