<svg id="ffbde432-4769-4440-9425-5acd92e07add" data-name="Layer 1" xmlns="http://www.w3.org/2000/svg" viewBox="0 0 28 28">
  <defs>
    <style>
      .e04c7f4e-16fc-4991-ba55-7747dbab36ec {
        fill: #e6e6e6;
      }

      .af7b02eb-2141-412e-b008-9f82a902d473 {
        fill: #fff;
      }

      .a5924da5-2984-4283-a1de-d2e478fce2a7 {
        fill: #fadc0f;
      }

      .b3ea28b0-fa55-4546-a73d-16c0f11334c0 {
        fill: none;
        stroke: #414042;
        stroke-linecap: round;
        stroke-linejoin: round;
        stroke-width: 1.28px;
      }
    </style>
  </defs>
  <title>38-1</title>
  <circle class="e04c7f4e-16fc-4991-ba55-7747dbab36ec" cx="14" cy="14" r="14"/>
  <g>
    <g>
      <rect class="af7b02eb-2141-412e-b008-9f82a902d473" x="9.15" y="3.19" width="1.86" height="8" rx="0.93"/>
      <rect class="af7b02eb-2141-412e-b008-9f82a902d473" x="9.09" y="16.8" width="1.86" height="8" rx="0.93"/>
      <g>
        <path class="a5924da5-2984-4283-a1de-d2e478fce2a7" d="M15.7,9.12v3.65a2.91,2.91,0,0,1-.17,1L14,17.86h0a1.34,1.34,0,0,1-1.27.93H7.06a1.33,1.33,0,0,1-1.28-1h0L4.26,13.64a2.85,2.85,0,0,1-.18-1V9A.64.64,0,0,1,5.36,9l.22,3.85a1,1,0,0,0,.1.39L6.55,15a1.94,1.94,0,0,0,1.74,1.09h3.25A1.94,1.94,0,0,0,13.28,15l.82-1.68a1.08,1.08,0,0,0,.11-.4l.21-3.86a.64.64,0,0,1,1.28,0Z"/>
        <circle class="af7b02eb-2141-412e-b008-9f82a902d473" cx="10.05" cy="16.98" r="2.02"/>
      </g>
    </g>
    <g>
      <path class="b3ea28b0-fa55-4546-a73d-16c0f11334c0" d="M15.31,9.33l-2.69-.46a15.15,15.15,0,0,0-5.16,0l-2.61.45"/>
      <line class="b3ea28b0-fa55-4546-a73d-16c0f11334c0" x1="10.08" y1="11.2" x2="10.08" y2="14.96"/>
      <rect class="b3ea28b0-fa55-4546-a73d-16c0f11334c0" x="9.15" y="3.19" width="1.86" height="8" rx="0.93"/>
      <path class="b3ea28b0-fa55-4546-a73d-16c0f11334c0" d="M11,18.82v5.06a.93.93,0,0,1-.93.93h0a.93.93,0,0,1-.93-.93V18.79"/>
      <g>
        <path class="b3ea28b0-fa55-4546-a73d-16c0f11334c0" d="M9.06,18.79h-2a1.33,1.33,0,0,1-1.28-1h0L4.26,13.64a2.85,2.85,0,0,1-.18-1V9A.64.64,0,0,1,5.36,9l.22,3.85a1,1,0,0,0,.1.39L6.55,15A1.93,1.93,0,0,0,8.19,16.1"/>
        <path class="b3ea28b0-fa55-4546-a73d-16c0f11334c0" d="M11.89,16.07A1.92,1.92,0,0,0,13.28,15l.82-1.68a1.08,1.08,0,0,0,.11-.4l.21-3.86a.64.64,0,0,1,1.28,0v3.65a2.91,2.91,0,0,1-.17,1L14,17.86h0a1.34,1.34,0,0,1-1.27.93H11"/>
        <circle class="b3ea28b0-fa55-4546-a73d-16c0f11334c0" cx="10.05" cy="16.98" r="2.02"/>
      </g>
      <g>
        <line class="b3ea28b0-fa55-4546-a73d-16c0f11334c0" x1="18.04" y1="14.53" x2="25.84" y2="14.53"/>
        <polyline class="b3ea28b0-fa55-4546-a73d-16c0f11334c0" points="24.22 12.91 25.84 14.52 24.2 16.17"/>
      </g>
    </g>
  </g>
</svg>
