<svg id="a417495f-52c4-4d05-84ae-03691b378037" data-name="Layer 1" xmlns="http://www.w3.org/2000/svg" viewBox="0 0 28 28">
  <defs>
    <style>
      .e5ed380e-6b87-427f-ba84-9161247cbbd5 {
        fill: #e6e6e6;
      }

      .a69f072b-8f50-4c24-9e57-310d648469ed {
        fill: #fadc0f;
      }

      .a2a7b90f-47b2-49cb-b97e-8cd20ee0cec6 {
        fill: #fff;
      }

      .a544a325-6d40-42d1-aaf2-bc079d436d18 {
        fill: none;
        stroke: #414042;
        stroke-linecap: round;
        stroke-linejoin: round;
        stroke-width: 1.28px;
      }
    </style>
  </defs>
  <title>39-2</title>
  <circle class="e5ed380e-6b87-427f-ba84-9161247cbbd5" cx="14" cy="14" r="14"/>
  <g>
    <g>
      <path class="a69f072b-8f50-4c24-9e57-310d648469ed" d="M6.13,5.61,6,23.54a1.2,1.2,0,0,0,1,1.17,24.72,24.72,0,0,0,8,0,1.18,1.18,0,0,0,1-1.17L15.85,5.61a3.58,3.58,0,0,0-3.57-3.56H9.71A3.59,3.59,0,0,0,6.13,5.61Z"/>
      <path class="a2a7b90f-47b2-49cb-b97e-8cd20ee0cec6" d="M11,6.33a6.09,6.09,0,0,0-2.77.46,1,1,0,0,0-.55,1l.08,1.82a.32.32,0,0,0,.33.3c1,0,4.86,0,5.83,0a.31.31,0,0,0,.32-.3l.09-1.82a1,1,0,0,0-.55-1A6.18,6.18,0,0,0,11,6.33Z"/>
      <circle class="a2a7b90f-47b2-49cb-b97e-8cd20ee0cec6" cx="22.81" cy="14.88" r="1.02"/>
    </g>
    <g>
      <g>
        <path class="a544a325-6d40-42d1-aaf2-bc079d436d18" d="M6.13,5.61,6,23.54a1.2,1.2,0,0,0,1,1.17,24.72,24.72,0,0,0,8,0,1.18,1.18,0,0,0,1-1.17L15.85,5.61a3.58,3.58,0,0,0-3.57-3.56H9.71A3.59,3.59,0,0,0,6.13,5.61Z"/>
        <path class="a544a325-6d40-42d1-aaf2-bc079d436d18" d="M11,6.33a6.09,6.09,0,0,0-2.77.46,1,1,0,0,0-.55,1l.08,1.82a.32.32,0,0,0,.33.3c1,0,4.86,0,5.83,0a.31.31,0,0,0,.32-.3l.09-1.82a1,1,0,0,0-.55-1A6.18,6.18,0,0,0,11,6.33Z"/>
        <path class="a544a325-6d40-42d1-aaf2-bc079d436d18" d="M16.94,9.43a3.37,3.37,0,0,0-1.06-.65"/>
        <path class="a544a325-6d40-42d1-aaf2-bc079d436d18" d="M5.08,9.43a3.34,3.34,0,0,1,1.07-.65"/>
        <line class="a544a325-6d40-42d1-aaf2-bc079d436d18" x1="15" y1="3.63" x2="12.91" y2="3.63"/>
        <line class="a544a325-6d40-42d1-aaf2-bc079d436d18" x1="9.15" y1="3.63" x2="7.06" y2="3.63"/>
      </g>
      <g>
        <g>
          <circle class="a544a325-6d40-42d1-aaf2-bc079d436d18" cx="22.81" cy="14.88" r="1.02"/>
          <path class="a544a325-6d40-42d1-aaf2-bc079d436d18" d="M20,11.43l1.45-.25a8.43,8.43,0,0,1,2.79,0l1.41.25"/>
        </g>
        <line class="a544a325-6d40-42d1-aaf2-bc079d436d18" x1="22.81" y1="8.11" x2="22.81" y2="12.44"/>
        <line class="a544a325-6d40-42d1-aaf2-bc079d436d18" x1="22.84" y1="16.65" x2="22.84" y2="19.89"/>
        <path class="a544a325-6d40-42d1-aaf2-bc079d436d18" d="M25.63,11.25v.88a17,17,0,0,1-.22,2.76l-.16,1"/>
        <path class="a544a325-6d40-42d1-aaf2-bc079d436d18" d="M20,11.29v.85A17.68,17.68,0,0,0,20.21,15l.16.94"/>
        <path class="a544a325-6d40-42d1-aaf2-bc079d436d18" d="M20.37,15.9a.89.89,0,0,0,.89.75h1"/>
        <path class="a544a325-6d40-42d1-aaf2-bc079d436d18" d="M23.44,16.65h.92a.9.9,0,0,0,.9-.9"/>
      </g>
    </g>
  </g>
</svg>
