<svg id="f372dc2f-5488-41fd-b8b5-2ee54b037a85" data-name="Layer 1" xmlns="http://www.w3.org/2000/svg" viewBox="0 0 28 28">
  <defs>
    <style>
      .a5b82862-4573-44cc-a43b-28892fc2ec99 {
        fill: #e6e6e6;
      }

      .a3e208dd-875c-4236-82a2-5146d8b22bfc {
        fill: #fff;
      }

      .ff29812a-9304-4351-abd8-87a4c5ca9c17 {
        fill: #fadc0f;
      }

      .ea3f45c7-4a13-4871-bc22-ed74232931fc {
        fill: #414042;
      }

      .a0b03732-e875-4e0a-803a-ead7a343a89e {
        fill: none;
        stroke: #414042;
        stroke-linecap: round;
        stroke-linejoin: round;
        stroke-width: 1.28px;
      }
    </style>
  </defs>
  <title>40</title>
  <circle class="a5b82862-4573-44cc-a43b-28892fc2ec99" cx="14" cy="14" r="14"/>
  <g>
    <g>
      <circle class="a3e208dd-875c-4236-82a2-5146d8b22bfc" cx="13.65" cy="8.42" r="4.7"/>
      <path class="ff29812a-9304-4351-abd8-87a4c5ca9c17" d="M21.56,23.64a2.08,2.08,0,0,1-3,0,2.26,2.26,0,0,1,.11-3.42l0-.06c-.14-.18-.28-.35-.44-.52a6.24,6.24,0,0,0-9.14,0,5.85,5.85,0,0,0-.45.54l0,0a2.26,2.26,0,0,1,.12,3.42,2.1,2.1,0,0,1-3,0,1.59,1.59,0,0,1-.5-1.71,3.68,3.68,0,0,1,.24-.55h0v-2a6.29,6.29,0,0,1,6.29-6.29h3.78a6.2,6.2,0,0,1,3.3.94,6.26,6.26,0,0,1,3,5.34v2a4.16,4.16,0,0,1,.23.54A1.62,1.62,0,0,1,21.56,23.64Z"/>
      <path class="a3e208dd-875c-4236-82a2-5146d8b22bfc" d="M17.93,22.63a4.59,4.59,0,0,0-8.57,0,2.44,2.44,0,0,0-.77-2.43l0,0a6.25,6.25,0,0,1,10,0l.05.06A2.41,2.41,0,0,0,17.93,22.63Z"/>
    </g>
    <g>
      <g>
        <circle class="ea3f45c7-4a13-4871-bc22-ed74232931fc" cx="21.91" cy="12.37" r="0.75"/>
        <path class="ea3f45c7-4a13-4871-bc22-ed74232931fc" d="M21.91,10.79h0a.71.71,0,0,1-.71-.68L21,5a.94.94,0,0,1,.94-1h0a.93.93,0,0,1,.93,1l-.23,5.13A.7.7,0,0,1,21.91,10.79Z"/>
      </g>
      <g>
        <path class="a0b03732-e875-4e0a-803a-ead7a343a89e" d="M13.65,13.13h1.89a6.28,6.28,0,0,1,6.29,6.28v2"/>
        <path class="a0b03732-e875-4e0a-803a-ead7a343a89e" d="M18.34,19.58a2.26,2.26,0,0,1,2.13.1,5.45,5.45,0,0,1,1.59,2.26,1.58,1.58,0,0,1-.5,1.7,2.08,2.08,0,0,1-3,0,2.27,2.27,0,0,1,.27-3.53"/>
        <circle class="a0b03732-e875-4e0a-803a-ead7a343a89e" cx="13.65" cy="8.42" r="4.7"/>
        <path class="a0b03732-e875-4e0a-803a-ead7a343a89e" d="M13.65,13.13H11.76a6.29,6.29,0,0,0-6.29,6.29v2"/>
        <path class="a0b03732-e875-4e0a-803a-ead7a343a89e" d="M9,19.58a2.26,2.26,0,0,0-2.13.1,5.6,5.6,0,0,0-1.6,2.26,1.63,1.63,0,0,0,.5,1.71,2.1,2.1,0,0,0,3,0,2.28,2.28,0,0,0-.26-3.54"/>
        <line class="a0b03732-e875-4e0a-803a-ead7a343a89e" x1="16.05" y1="18.03" x2="18.84" y2="14.06"/>
        <path class="a0b03732-e875-4e0a-803a-ead7a343a89e" d="M8.63,20.19a6.25,6.25,0,0,1,10,0"/>
      </g>
      <path class="a0b03732-e875-4e0a-803a-ead7a343a89e" d="M9.35,22.71a4.58,4.58,0,0,1,8.58-.08"/>
    </g>
  </g>
</svg>
