<svg id="aace37c4-dcd3-4769-ada3-fa7f88a75734" data-name="Layer 1" xmlns="http://www.w3.org/2000/svg" viewBox="0 0 28 28">
  <defs>
    <style>
      .ab67df70-33d2-4bf0-9e80-4174294a5e54 {
        fill: #e6e6e6;
      }

      .eff27716-8833-4a8e-8764-2a8d8de0ae1e {
        fill: #fadc0f;
      }

      .a9824a2a-3f08-4707-92d1-2bdee75cfde9 {
        fill: #414042;
      }

      .a48194b7-96bf-4703-90af-179447436017 {
        fill: none;
        stroke: #414042;
        stroke-linecap: round;
        stroke-linejoin: round;
        stroke-width: 1.28px;
      }
    </style>
  </defs>
  <title>41</title>
  <circle class="ab67df70-33d2-4bf0-9e80-4174294a5e54" cx="14" cy="14" r="14"/>
  <g>
    <path class="eff27716-8833-4a8e-8764-2a8d8de0ae1e" d="M13.31,10A5.29,5.29,0,0,1,12.45,13l-.14.21L7.93,19.57,3.56,13.16,3.42,13A5.29,5.29,0,0,1,2.56,10a5.38,5.38,0,0,1,10.75,0Z"/>
    <g>
      <g>
        <circle class="a9824a2a-3f08-4707-92d1-2bdee75cfde9" cx="7.93" cy="10.04" r="1.8"/>
        <path class="a48194b7-96bf-4703-90af-179447436017" d="M13.31,10A5.29,5.29,0,0,1,12.45,13l-.14.21L7.93,19.57,3.56,13.16,3.42,13A5.29,5.29,0,0,1,2.56,10a5.38,5.38,0,0,1,10.75,0Z"/>
      </g>
      <path class="a48194b7-96bf-4703-90af-179447436017" d="M13.06,16.29A19.37,19.37,0,0,1,16.59,16c4.78,0,8.65,1.62,8.65,3.6s-3.87,3.6-8.65,3.6a14.46,14.46,0,0,1-7.18-1.59"/>
    </g>
  </g>
</svg>
