<svg id="bd3c7896-b34c-44fa-b935-5dc9afff1912" data-name="Layer 1" xmlns="http://www.w3.org/2000/svg" viewBox="0 0 28 28">
  <defs>
    <style>
      .eb685a88-cd2a-490f-ac02-22b082deb9d4 {
        fill: #e6e6e6;
      }

      .bb61473f-d7e5-4787-be0b-0804a8aa237b {
        fill: #fadc0f;
      }

      .bddd3f20-8c35-439b-8dd2-fbd607277911 {
        fill: #fff;
      }

      .a4cdfdff-3797-4d53-97a0-15f0ee4e8471 {
        fill: none;
        stroke: #414042;
        stroke-linecap: round;
        stroke-linejoin: round;
        stroke-width: 1.28px;
      }
    </style>
  </defs>
  <title>49</title>
  <circle class="eb685a88-cd2a-490f-ac02-22b082deb9d4" cx="14" cy="14" r="14"/>
  <g>
    <g>
      <path class="bb61473f-d7e5-4787-be0b-0804a8aa237b" d="M18.53,16.69a10.39,10.39,0,0,1-3.38.59c-.35,0-.74,0-1.16,0s-.8,0-1.15,0a10.39,10.39,0,0,1-3.38-.59.34.34,0,0,1-.12-.52l.93-1.11V12a3.73,3.73,0,1,1,7.45,0v3.1l.93,1.11A.34.34,0,0,1,18.53,16.69Z"/>
      <circle class="bb61473f-d7e5-4787-be0b-0804a8aa237b" cx="14" cy="7.04" r="0.84"/>
      <path class="bddd3f20-8c35-439b-8dd2-fbd607277911" d="M15.35,18a1.36,1.36,0,1,1-2.71,0,1.3,1.3,0,0,1,.18-.68l0,0c.35,0,.74,0,1.15,0s.81,0,1.16,0l0,0A1.3,1.3,0,0,1,15.35,18Z"/>
    </g>
    <g>
      <g>
        <path class="a4cdfdff-3797-4d53-97a0-15f0ee4e8471" d="M18.53,16.69a12.09,12.09,0,0,1-4.53.62,12.21,12.21,0,0,1-4.54-.62.35.35,0,0,1-.12-.52l.93-1.11V12a3.73,3.73,0,0,1,6.37-2.64A3.79,3.79,0,0,1,17.72,12v3.1l.93,1.11A.34.34,0,0,1,18.53,16.69Z"/>
        <circle class="a4cdfdff-3797-4d53-97a0-15f0ee4e8471" cx="14" cy="7.04" r="0.84"/>
        <g>
          <path class="a4cdfdff-3797-4d53-97a0-15f0ee4e8471" d="M6,19.05A9.59,9.59,0,0,1,5.73,9"/>
          <path class="a4cdfdff-3797-4d53-97a0-15f0ee4e8471" d="M22.27,9A9.59,9.59,0,0,1,22,19.05"/>
          <path class="a4cdfdff-3797-4d53-97a0-15f0ee4e8471" d="M3.41,20.62a12.43,12.43,0,0,1,0-13"/>
          <path class="a4cdfdff-3797-4d53-97a0-15f0ee4e8471" d="M24.59,7.57a12.43,12.43,0,0,1,0,13.05"/>
        </g>
      </g>
      <path class="a4cdfdff-3797-4d53-97a0-15f0ee4e8471" d="M15.18,17.31a1.41,1.41,0,0,1,.18.68,1.36,1.36,0,0,1-2.72,0,1.41,1.41,0,0,1,.18-.68"/>
    </g>
  </g>
</svg>
