<svg id="ad367c44-e1cb-481d-8818-c92402d0bae9" data-name="Layer 1" xmlns="http://www.w3.org/2000/svg" viewBox="0 0 28 28">
  <defs>
    <style>
      .bcdd8923-5542-4157-8083-b69b0ec6c564 {
        fill: #e6e6e6;
      }

      .fe87b4a4-1d44-4f8a-a7ca-46346fc15165 {
        fill: #fadc0f;
      }

      .e024ee02-8f8e-49fb-898c-4cdcdd031fcf {
        fill: #fff;
      }

      .f8689782-1299-40aa-bcc6-176a7bef240a {
        fill: none;
        stroke: #414042;
        stroke-linecap: round;
        stroke-linejoin: round;
        stroke-width: 1.28px;
      }
    </style>
  </defs>
  <title>50</title>
  <circle class="bcdd8923-5542-4157-8083-b69b0ec6c564" cx="14" cy="14" r="14"/>
  <g>
    <g>
      <polygon class="fe87b4a4-1d44-4f8a-a7ca-46346fc15165" points="21.36 17.24 20.76 17.85 17.84 20.76 17.23 21.37 12.46 16.59 16.59 12.46 21.36 17.24"/>
      <rect class="fe87b4a4-1d44-4f8a-a7ca-46346fc15165" x="9.91" y="9.56" width="3.17" height="3.85" transform="translate(-4.76 11.49) rotate(-45)"/>
      <polygon class="fe87b4a4-1d44-4f8a-a7ca-46346fc15165" points="12.19 8.06 8.06 12.19 6.09 10.22 6.7 9.61 9.61 6.7 10.22 6.09 12.19 8.06"/>
      <rect class="e024ee02-8f8e-49fb-898c-4cdcdd031fcf" x="4.58" y="4.47" width="4.12" height="4.31" transform="translate(-2.75 6.63) rotate(-45)"/>
      <rect class="fe87b4a4-1d44-4f8a-a7ca-46346fc15165" x="6.11" y="8.15" width="4.12" height="0.04" transform="translate(-3.38 8.15) rotate(-44.9)"/>
      <polygon class="e024ee02-8f8e-49fb-898c-4cdcdd031fcf" points="24.35 21.44 21.43 24.35 17.84 20.76 20.76 17.85 24.35 21.44"/>
    </g>
    <g>
      <rect class="f8689782-1299-40aa-bcc6-176a7bef240a" x="13.99" y="13.54" width="5.84" height="6.76" transform="translate(-7.01 16.91) rotate(-45)"/>
      <rect class="f8689782-1299-40aa-bcc6-176a7bef240a" x="9.91" y="9.56" width="3.17" height="3.85" transform="translate(-4.76 11.49) rotate(-45)"/>
      <rect class="f8689782-1299-40aa-bcc6-176a7bef240a" x="6.22" y="7.75" width="5.84" height="2.79" transform="translate(-3.79 9.14) rotate(-45)"/>
      <rect class="f8689782-1299-40aa-bcc6-176a7bef240a" x="4.58" y="4.47" width="4.12" height="4.35" transform="translate(-2.75 6.65) rotate(-45)"/>
      <rect class="f8689782-1299-40aa-bcc6-176a7bef240a" x="19.04" y="18.56" width="4.12" height="5.08" transform="translate(-8.74 21.1) rotate(-45)"/>
      <g>
        <g>
          <line class="f8689782-1299-40aa-bcc6-176a7bef240a" x1="6.39" y1="15.66" x2="8.3" y2="15.59"/>
          <line class="f8689782-1299-40aa-bcc6-176a7bef240a" x1="8.58" y1="19.2" x2="9.9" y2="17.83"/>
          <line class="f8689782-1299-40aa-bcc6-176a7bef240a" x1="12.11" y1="21.38" x2="12.18" y2="19.47"/>
        </g>
        <g>
          <line class="f8689782-1299-40aa-bcc6-176a7bef240a" x1="15.66" y1="6.39" x2="15.59" y2="8.3"/>
          <line class="f8689782-1299-40aa-bcc6-176a7bef240a" x1="19.2" y1="8.58" x2="17.83" y2="9.9"/>
          <line class="f8689782-1299-40aa-bcc6-176a7bef240a" x1="21.38" y1="12.11" x2="19.47" y2="12.18"/>
        </g>
      </g>
      <line class="f8689782-1299-40aa-bcc6-176a7bef240a" x1="14.54" y1="14.51" x2="16" y2="15.98"/>
    </g>
  </g>
</svg>
