<svg id="a884a734-fea0-467f-ae33-e9e043ff86f0" data-name="Layer 1" xmlns="http://www.w3.org/2000/svg" viewBox="0 0 28 28">
  <defs>
    <style>
      .ab67e6f0-5e22-4da7-a124-d39486b03e72 {
        fill: #e6e6e6;
      }

      .e7f723b9-98e3-45b7-a944-2003e2dc84ca {
        fill: #fff;
      }

      .b10643a4-25e4-4e10-a67e-cf094bcf3d22 {
        fill: #fadc0f;
      }

      .b67d3baa-b2f7-4ba5-93a6-4d371d56dfa5 {
        fill: none;
        stroke: #414042;
        stroke-linecap: round;
        stroke-linejoin: round;
        stroke-width: 1.28px;
      }
    </style>
  </defs>
  <title>54</title>
  <circle class="ab67e6f0-5e22-4da7-a124-d39486b03e72" cx="14" cy="14" r="14"/>
  <g>
    <g>
      <path class="e7f723b9-98e3-45b7-a944-2003e2dc84ca" d="M24.64,15a32.73,32.73,0,0,1-6.56-1A31.09,31.09,0,0,1,11.73,12a11.8,11.8,0,0,1,2.14-2.95,2.19,2.19,0,0,1,2-.52l6.57,1.49A2.18,2.18,0,0,1,24,11.37,11.91,11.91,0,0,1,24.64,15Z"/>
      <path class="e7f723b9-98e3-45b7-a944-2003e2dc84ca" d="M12.8,18.68l-.11.39a1.47,1.47,0,0,1-1.77,1.12L10.19,20a1.48,1.48,0,0,1-1.12-1.77l.14-.66,0-.12S10.68,18,12.8,18.68Z"/>
      <path class="e7f723b9-98e3-45b7-a944-2003e2dc84ca" d="M12.21,15.62a5.16,5.16,0,0,1-2.38-.74,4.05,4.05,0,0,1,.79-1.66l1.91,1.55A.48.48,0,0,1,12.21,15.62Z"/>
      <path class="b10643a4-25e4-4e10-a67e-cf094bcf3d22" d="M25.14,18.33l-.59,2.61s-1.57-.12-3.77-.46c-1.21-.17-2.61-.42-4.05-.74s-2.79-.7-3.93-1.06c-2.12-.64-3.56-1.2-3.56-1.2l.59-2.6a5.16,5.16,0,0,0,2.38.74.48.48,0,0,0,.32-.85l-1.91-1.55.26-.3.85-.89a31.09,31.09,0,0,0,6.35,1.89,32.73,32.73,0,0,0,6.56,1L25,16.1a2.62,2.62,0,0,1,.11.4l-2.38.58a.47.47,0,0,0-.08.9A5.21,5.21,0,0,0,25.14,18.33Z"/>
      <path class="e7f723b9-98e3-45b7-a944-2003e2dc84ca" d="M25.14,18.33A5.21,5.21,0,0,1,22.68,18a.47.47,0,0,1,.08-.9l2.38-.58A4,4,0,0,1,25.14,18.33Z"/>
      <path class="e7f723b9-98e3-45b7-a944-2003e2dc84ca" d="M24.55,20.94l0,.12-.15.66a1.48,1.48,0,0,1-1.77,1.11l-.74-.16a1.48,1.48,0,0,1-1.11-1.78l0-.41C23,20.82,24.55,20.94,24.55,20.94Z"/>
    </g>
    <g>
      <g>
        <path class="b67d3baa-b2f7-4ba5-93a6-4d371d56dfa5" d="M12.69,19.07a1.48,1.48,0,0,1-1.77,1.12L10.19,20a1.48,1.48,0,0,1-1.12-1.77l.15-.66"/>
        <path class="b67d3baa-b2f7-4ba5-93a6-4d371d56dfa5" d="M10.62,13.22l1.91,1.55a.48.48,0,0,1-.32.85,5.28,5.28,0,0,1-2.38-.74"/>
        <line class="b67d3baa-b2f7-4ba5-93a6-4d371d56dfa5" x1="10.69" y1="10.88" x2="12.31" y2="11.03"/>
        <path class="b67d3baa-b2f7-4ba5-93a6-4d371d56dfa5" d="M22.42,10.05A2.15,2.15,0,0,1,24,11.37,11.89,11.89,0,0,1,24.65,15a32.23,32.23,0,0,1-6.58-1A31.72,31.72,0,0,1,11.73,12a12.06,12.06,0,0,1,2.14-3,2.16,2.16,0,0,1,2-.52Z"/>
        <path class="b67d3baa-b2f7-4ba5-93a6-4d371d56dfa5" d="M24.65,15,25,16.11a4.08,4.08,0,0,1,.11,2.22l-.58,2.61a61.7,61.7,0,0,1-7.83-1.2,59.5,59.5,0,0,1-7.49-2.26l.59-2.6a4.17,4.17,0,0,1,1.06-2l.84-.87"/>
        <path class="b67d3baa-b2f7-4ba5-93a6-4d371d56dfa5" d="M20.76,20.9a1.48,1.48,0,0,0,1.12,1.77l.73.16a1.48,1.48,0,0,0,1.77-1.12l.15-.65"/>
        <path class="b67d3baa-b2f7-4ba5-93a6-4d371d56dfa5" d="M25.14,16.5l-2.38.58a.47.47,0,0,0-.08.9,5,5,0,0,0,2.46.35"/>
        <line class="b67d3baa-b2f7-4ba5-93a6-4d371d56dfa5" x1="26.03" y1="14.35" x2="24.56" y2="13.79"/>
      </g>
      <path class="b67d3baa-b2f7-4ba5-93a6-4d371d56dfa5" d="M14.72,15.87a20.09,20.09,0,0,0,5.61,1.26"/>
      <polyline class="b67d3baa-b2f7-4ba5-93a6-4d371d56dfa5" points="7.46 12.69 4.5 12.08 6.96 9.9 4.78 8.73 7.29 7.62 5.31 4.83 8.42 5.55 8.05 2.29 10.64 4.47 11.75 1.62 13.2 5.32 15.39 4.08 15.26 6.49"/>
    </g>
  </g>
</svg>
