<svg id="custom-event-icon" xmlns="http://www.w3.org/2000/svg" viewBox="0 0 28 28">
  <defs>
    <style>
      .background {
        fill: #e6e6e6;
      }
      .main-shape {
        fill: #14A54D;
      }
      .outline {
        fill: none;
        stroke: #414042;
        stroke-linecap: round;
        stroke-linejoin: round;
        stroke-width: 0.70px;
      }
    </style>
  </defs>
  <title>60</title>
  <circle class="background" cx="14" cy="14" r="14"/>
  <g>
    <path class="main-shape" d="M2.333 13.0375V10.61666C4.258 10.15 6.18786 9.81944 8.1226 9.625C10.05732 9.43056 12.01634 9.33334 13.99968 9.33334C15.983 9.33334 17.94204 9.43056 19.87676 9.625C21.8114 9.81944 23.7414 10.15 25.6664 10.61666V13.0375C25.2774 12.94028 24.8886 12.85278 24.4996 12.775L23.333 12.54166V16.33334H20.9996V12.13334C19.833 11.97778 18.66634 11.86112 17.49968 11.78334C16.333 11.70556 15.16634 11.66666 13.99968 11.66666C12.833 11.66666 11.66634 11.7007 10.49968 11.76876C9.333 11.8368 8.16634 11.94862 6.99968 12.10416V16.33334H4.66634V12.51250C4.27746 12.59028 3.88856 12.67292 3.49968 12.76042C3.11078 12.84792 2.7219 12.94028 2.333 13.0375ZM6.99968 24.5L8.69134 14.2625C9.04134 14.22362 9.43996 14.18958 9.88718 14.16042C10.3344 14.13126 10.733 14.10694 11.083 14.0875L9.333 24.5H6.99968ZM10.49968 3.5H12.833L12.24968 6.97084C11.89968 6.99028 11.50592 7.01458 11.06842 7.04376C10.63092 7.07292 10.23718 7.10694 9.88718 7.14584L10.49968 3.5ZM12.833 24.5H15.16634V19.83334H12.833V24.5ZM12.833 17.5H15.16634V14.02916H12.833V17.5ZM15.16634 3.5H17.49968L18.11218 7.14584C17.76218 7.12638 17.36842 7.08722 16.93092 7.05834C16.49342 7.02944 16.09968 6.99028 15.74968 6.97084L15.16634 3.5ZM18.66634 24.5L16.91634 14.0875C17.26634 14.10694 17.66496 14.14612 18.11218 14.175C18.5594 14.21388 18.958 14.25278 19.308 14.29166L20.9996 24.5H18.66634Z"/>

    <path class="outline" d="M2.333 13.0375V10.61666C4.258 10.15 6.18786 9.81944 8.1226 9.625C10.05732 9.43056 12.01634 9.33334 13.99968 9.33334C15.983 9.33334 17.94204 9.43056 19.87676 9.625C21.8114 9.81944 23.7414 10.15 25.6664 10.61666V13.0375C25.2774 12.94028 24.8886 12.85278 24.4996 12.775L23.333 12.54166V16.33334H20.9996V12.13334C19.833 11.97778 18.66634 11.86112 17.49968 11.78334C16.333 11.70556 15.16634 11.66666 13.99968 11.66666C12.833 11.66666 11.66634 11.7007 10.49968 11.76876C9.333 11.8368 8.16634 11.94862 6.99968 12.10416V16.33334H4.66634V12.51250C4.27746 12.59028 3.88856 12.67292 3.49968 12.76042C3.11078 12.84792 2.7219 12.94028 2.333 13.0375Z"/>

    <path class="outline" d="M6.99968 24.5L8.69134 14.2625C9.04134 14.22362 9.43996 14.18958 9.88718 14.16042C10.3344 14.13126 10.733 14.10694 11.083 14.0875L9.333 24.5H6.99968Z"/>

    <path class="outline" d="M10.49968 3.5H12.833L12.24968 6.97084C11.89968 6.99028 11.50592 7.01458 11.06842 7.04376C10.63092 7.07292 10.23718 7.10694 9.88718 7.14584L10.49968 3.5Z"/>

    <path class="outline" d="M12.833 24.5H15.16634V19.83334H12.833V24.5Z"/>
    <path class="outline" d="M12.833 17.5H15.16634V14.02916H12.833V17.5Z"/>

    <path class="outline" d="M15.16634 3.5H17.49968L18.11218 7.14584C17.76218 7.12638 17.36842 7.08722 16.93092 7.05834C16.49342 7.02944 16.09968 6.99028 15.74968 6.97084L15.16634 3.5Z"/>

    <path class="outline" d="M18.66634 24.5L16.91634 14.0875C17.26634 14.10694 17.66496 14.14612 18.11218 14.175C18.5594 14.21388 18.958 14.25278 19.308 14.29166L20.9996 24.5H18.66634Z"/>
  </g>
</svg>
