<svg id="faed4cab-9b8c-4134-9927-c5253d0185a3" data-name="Layer 1" xmlns="http://www.w3.org/2000/svg" viewBox="0 0 28 28">
  <defs>
    <style>
      .b20c8150-5158-4dde-ab21-de20d7bd3e7d {
        fill: #e6e6e6;
      }

      .f2ed5764-1218-44c3-9ffd-73ec88af6922 {
        fill: #fadc0f;
      }

      .b787408e-0bd3-43ee-9ff9-13d310598bd7 {
        fill: #fff;
      }

      .f5200e4e-d84d-47b6-a8ab-b324f7c8bd01 {
        fill: none;
        stroke: #414042;
        stroke-linecap: round;
        stroke-linejoin: round;
        stroke-width: 1.28px;
      }
    </style>
  </defs>
  <title>7</title>
  <circle class="b20c8150-5158-4dde-ab21-de20d7bd3e7d" cx="14" cy="14" r="14"/>
  <g>
    <g>
      <path class="f2ed5764-1218-44c3-9ffd-73ec88af6922" d="M25.57,18.47a.5.5,0,0,1-.5.46H2.47a.39.39,0,0,1-.39-.38V14.39a1.17,1.17,0,0,1,.82-1.12l1.25-.4a3,3,0,0,0,.94-.47H11.5V9.06a.22.22,0,0,0-.23-.22H8.89l1.7-1.63a1.74,1.74,0,0,1,1.22-.5H24a.68.68,0,0,1,.66.52A37.82,37.82,0,0,1,25.57,18.47Z"/>
      <path class="b787408e-0bd3-43ee-9ff9-13d310598bd7" d="M11.5,9.06V12.4H5.09a2.94,2.94,0,0,0,.44-.35L8.89,8.84h2.38A.22.22,0,0,1,11.5,9.06Z"/>
      <circle class="b787408e-0bd3-43ee-9ff9-13d310598bd7" cx="21.12" cy="19.29" r="2.16"/>
      <circle class="b787408e-0bd3-43ee-9ff9-13d310598bd7" cx="6.94" cy="19.29" r="2.16"/>
    </g>
    <g>
      <line class="f5200e4e-d84d-47b6-a8ab-b324f7c8bd01" x1="9.1" y1="18.93" x2="18.96" y2="18.93"/>
      <path class="f5200e4e-d84d-47b6-a8ab-b324f7c8bd01" d="M23.28,18.93h1.8a.5.5,0,0,0,.49-.46,37.59,37.59,0,0,0-.92-11.25A.66.66,0,0,0,24,6.71H11.81a1.78,1.78,0,0,0-1.22.49L5.53,12.05a3.41,3.41,0,0,1-1.38.82l-1.25.4a1.16,1.16,0,0,0-.82,1.11v4.16a.39.39,0,0,0,.39.39H4.78"/>
      <circle class="f5200e4e-d84d-47b6-a8ab-b324f7c8bd01" cx="21.12" cy="19.29" r="2.16"/>
      <circle class="f5200e4e-d84d-47b6-a8ab-b324f7c8bd01" cx="6.94" cy="19.29" r="2.16"/>
      <path class="f5200e4e-d84d-47b6-a8ab-b324f7c8bd01" d="M8.89,8.83h2.38a.23.23,0,0,1,.23.23V12.4H5.25"/>
      <line class="f5200e4e-d84d-47b6-a8ab-b324f7c8bd01" x1="2.08" y1="15.53" x2="3.32" y2="15.53"/>
      <line class="f5200e4e-d84d-47b6-a8ab-b324f7c8bd01" x1="22.6" y1="12.82" x2="15.62" y2="12.82"/>
    </g>
  </g>
</svg>
