<svg id="b687ddca-6578-4ad6-9228-f6bd875f8d5a" data-name="Layer 1" xmlns="http://www.w3.org/2000/svg" viewBox="0 0 28 28">
  <defs>
    <style>
      .f4db285d-5988-4756-8261-090915ec0436 {
        fill: #e6e6e6;
      }

      .ab2d67e7-a0a4-4799-8bb8-400796457b37 {
        fill: #fadc0f;
      }

      .a33f379e-00e0-4025-ac42-59ba8380a7b4 {
        fill: #fff;
      }

      .b248fd1f-a044-410f-8923-a7d1133188ae {
        fill: none;
        stroke: #414042;
        stroke-linecap: round;
        stroke-linejoin: round;
        stroke-width: 1.28px;
      }
    </style>
  </defs>
  <title>8</title>
  <circle class="f4db285d-5988-4756-8261-090915ec0436" cx="14" cy="14" r="14"/>
  <g>
    <g>
      <path class="ab2d67e7-a0a4-4799-8bb8-400796457b37" d="M25.26,8.14v9.74a.66.66,0,0,1-.66.67l-1.57,0a2,2,0,1,0-3.91,0h0l-10.5.08v-.09a2,2,0,1,0-3.91,0,.49.49,0,0,0,0,.12H3.49A.66.66,0,0,1,2.82,18V14.85H4.21l2-1.48H21.9V9.89H3.63A3.19,3.19,0,0,1,6.72,7.47H24.6A.66.66,0,0,1,25.26,8.14Z"/>
      <path class="a33f379e-00e0-4025-ac42-59ba8380a7b4" d="M23,18.58a2,2,0,0,1-3.91,0h0a2,2,0,1,1,3.91,0Z"/>
      <path class="a33f379e-00e0-4025-ac42-59ba8380a7b4" d="M8.62,18.58v.09a2,2,0,0,1-3.9,0,.49.49,0,0,1,0-.12,2,2,0,1,1,3.91,0Z"/>
      <path class="a33f379e-00e0-4025-ac42-59ba8380a7b4" d="M21.9,9.89v3.48H6.25l-2,1.48H2.82v-.62A7.2,7.2,0,0,1,3,12.69l.63-2.75s0,0,0,0Z"/>
    </g>
    <g>
      <g>
        <line class="b248fd1f-a044-410f-8923-a7d1133188ae" x1="8.8" y1="18.66" x2="18.99" y2="18.59"/>
        <path class="b248fd1f-a044-410f-8923-a7d1133188ae" d="M23.15,18.56h1.46a.67.67,0,0,0,.66-.67V8.14a.67.67,0,0,0-.67-.67H6.72A3.17,3.17,0,0,0,3.63,9.94L3,12.69a6.62,6.62,0,0,0-.18,1.54V18a.66.66,0,0,0,.67.66h1.1"/>
        <circle class="b248fd1f-a044-410f-8923-a7d1133188ae" cx="21.08" cy="18.58" r="1.95"/>
        <circle class="b248fd1f-a044-410f-8923-a7d1133188ae" cx="6.67" cy="18.58" r="1.95"/>
        <polyline class="b248fd1f-a044-410f-8923-a7d1133188ae" points="2.82 14.85 4.22 14.85 6.26 13.37 21.91 13.37 21.91 9.89 3.66 9.89"/>
        <line class="b248fd1f-a044-410f-8923-a7d1133188ae" x1="6.26" y1="13.37" x2="6.26" y2="9.89"/>
      </g>
      <polyline class="b248fd1f-a044-410f-8923-a7d1133188ae" points="3.66 9.81 1.61 9.81 1.28 10.92"/>
    </g>
  </g>
</svg>
