<svg id="fb5762a9-4563-4847-8f8f-2e18208b8a61" data-name="Layer 1" xmlns="http://www.w3.org/2000/svg" viewBox="0 0 28 28">
  <defs>
    <style>
      .f87840e9-a2d2-4f91-988b-ddf4c070ffe9 {
        fill: #e6e6e6;
      }

      .ab6ff225-99d9-4f71-80a1-7b31816f87e0 {
        fill: #fadc0f;
      }

      .a6ce0d4d-f215-48dc-9c25-0774c981325a {
        fill: #fff;
      }

      .fe902331-c51f-46d4-a3d2-b4b723294453 {
        fill: none;
        stroke: #414042;
        stroke-linecap: round;
        stroke-linejoin: round;
        stroke-width: 1.28px;
      }
    </style>
  </defs>
  <title>9</title>
  <circle class="f87840e9-a2d2-4f91-988b-ddf4c070ffe9" cx="14" cy="14" r="14"/>
  <g>
    <g>
      <path class="ab6ff225-99d9-4f71-80a1-7b31816f87e0" d="M24.68,18.18H23.61a2,2,0,1,0-4,0H8.22a2,2,0,1,0-4,0H3a1.63,1.63,0,0,1-1.63-1.63V14.76a1.66,1.66,0,0,1,1.17-1.58l3.3-1A1.79,1.79,0,0,0,6.28,12h13L18.12,9.8l-1.07-2h.67a3,3,0,0,1,1.81.59l3.7,2.72a1.44,1.44,0,0,0,.85.28h1.1a.93.93,0,0,1,.92.81l.47,3.83A1.91,1.91,0,0,1,24.68,18.18Z"/>
      <path class="a6ce0d4d-f215-48dc-9c25-0774c981325a" d="M8.22,18.18a2,2,0,1,1-2-2A2,2,0,0,1,8.22,18.18Z"/>
      <path class="a6ce0d4d-f215-48dc-9c25-0774c981325a" d="M23.61,18.18a2,2,0,1,1-2-2A2,2,0,0,1,23.61,18.18Z"/>
      <path class="a6ce0d4d-f215-48dc-9c25-0774c981325a" d="M19.26,12h-13a1.32,1.32,0,0,0,.25-.16L11,8.43a3,3,0,0,1,1.83-.61h4.2l1.07,2Z"/>
    </g>
    <g>
      <circle class="fe902331-c51f-46d4-a3d2-b4b723294453" cx="21.61" cy="18.18" r="2"/>
      <circle class="fe902331-c51f-46d4-a3d2-b4b723294453" cx="6.22" cy="18.18" r="2"/>
      <polyline class="fe902331-c51f-46d4-a3d2-b4b723294453" points="8.28 18.18 14.36 18.18 19.49 18.18"/>
      <path class="fe902331-c51f-46d4-a3d2-b4b723294453" d="M23.69,18.18h1a1.9,1.9,0,0,0,1.89-2.13l-.47-3.83a.92.92,0,0,0-.92-.81h-1.1a1.47,1.47,0,0,1-.85-.28l-3.7-2.72a3,3,0,0,0-1.8-.59H12.86A3,3,0,0,0,11,8.43L6.53,11.8a2,2,0,0,1-.69.35l-3.31,1a1.66,1.66,0,0,0-1.17,1.58v1.79A1.63,1.63,0,0,0,3,18.18H4.13"/>
      <line class="fe902331-c51f-46d4-a3d2-b4b723294453" x1="26.31" y1="13.88" x2="24.69" y2="13.88"/>
      <line class="fe902331-c51f-46d4-a3d2-b4b723294453" x1="2.87" y1="14.85" x2="1.36" y2="14.85"/>
      <polyline class="fe902331-c51f-46d4-a3d2-b4b723294453" points="6.28 11.96 19.26 11.96 18.12 9.8"/>
    </g>
  </g>
</svg>
