<svg id="ab261a56-cde4-41af-826c-d15f2ca57d67" data-name="Layer 1" xmlns="http://www.w3.org/2000/svg" viewBox="0 0 80 80">
  <title>10</title>
  <g>
    <path style="fill: #fff;" d="M79.16,38.5,60.27,70.58a1.51,1.51,0,0,1-2,.54,38.61,38.61,0,0,0-36.48,0,1.51,1.51,0,0,1-2-.54L.84,38.5a1.5,1.5,0,0,1,.56-2.08,79.85,79.85,0,0,1,77.2,0A1.5,1.5,0,0,1,79.16,38.5Z"/>
    <path style="fill: none; stroke: #414042; stroke-linecap: round; stroke-linejoin: round;" d="M79.16,38.5,60.27,70.58a1.51,1.51,0,0,1-2,.54,38.61,38.61,0,0,0-36.48,0,1.51,1.51,0,0,1-2-.54L.84,38.5a1.5,1.5,0,0,1,.56-2.08,79.85,79.85,0,0,1,77.2,0A1.5,1.5,0,0,1,79.16,38.5Z"/>
    <path style="fill: none; stroke: #fadc0f; stroke-linecap: round; stroke-linejoin: round; stroke-width: 2px; stroke-dasharray: 5;" d="M40,65.52V21.44A12.75,12.75,0,0,0,27.25,8.69h0A12.75,12.75,0,0,0,14.5,21.44"/>
    <path style="fill: none; stroke: #fadc0f; stroke-linecap: round; stroke-linejoin: round; stroke-width: 2px; stroke-dasharray: 5;" d="M65.5,21.44A12.75,12.75,0,0,0,52.75,8.69h0A12.75,12.75,0,0,0,40,21.44"/>
  </g>
</svg>
