<svg id="e1d4b9ba-a160-4b10-892d-f8595d880be8" data-name="Layer 1" xmlns="http://www.w3.org/2000/svg" viewBox="0 0 80 80">
  <title>12</title>
  <g>
    <g>
      <g>
        <path style="fill: #fff;" d="M41.63,32.67A11.76,11.76,0,0,1,21.48,26l0,0a5.29,5.29,0,0,0,5.19-2.95l.06,0,14.4,7A1.64,1.64,0,0,1,41.63,32.67Z"/>
        <path style="fill: #fff;" d="M36.32,14.66a11.73,11.73,0,0,1-9.07,6.52h0a5.3,5.3,0,0,0-3-5.23l0,0,7-14.42A1.64,1.64,0,0,1,33.88,1,11.74,11.74,0,0,1,36.32,14.66Z"/>
        <path style="fill: #fff;" d="M22.41,15.44a5.32,5.32,0,0,0-5.24,3h0l0,0-14.44-7a1.64,1.64,0,0,1-.46-2.6,11.76,11.76,0,0,1,20.15,6.63Z"/>
        <path style="fill: #fff;" d="M19.62,25.5,12.59,40a1.64,1.64,0,0,1-2.6.47,11.75,11.75,0,0,1,6.63-20.15l0,0a5.29,5.29,0,0,0,3,5.18Z"/>
        <path style="fill: #fadc0f;" d="M24.25,16h0a5.25,5.25,0,0,0-7.07,2.45h0a5,5,0,0,0-.51,1.89,5.29,5.29,0,0,0,3,5.18h0a5.34,5.34,0,0,0,7.07-2.45,5.47,5.47,0,0,0,.52-1.85h0A5.3,5.3,0,0,0,24.25,16Zm.28,6a2.8,2.8,0,1,1-1.29-3.75A2.79,2.79,0,0,1,24.53,22Z"/>
        <path style="fill: #fff;" d="M24.53,22a2.8,2.8,0,1,1-1.29-3.75A2.79,2.79,0,0,1,24.53,22Z"/>
      </g>
      <g>
        <path style="fill: #fff;" d="M78.21,52.32V74a1.58,1.58,0,0,1-1.58,1.58H37.53A1.57,1.57,0,0,1,36,74V52.32a1.57,1.57,0,0,1,1.57-1.57h39.1A1.57,1.57,0,0,1,78.21,52.32Z"/>
        <path style="fill: #fadc0f;" d="M51.65,46.46v4.29H42.12V46.46a1.15,1.15,0,0,1,1.16-1.15h7.21A1.15,1.15,0,0,1,51.65,46.46Z"/>
        <path style="fill: #fadc0f;" d="M72,46.46v4.29H62.52V46.46a1.15,1.15,0,0,1,1.16-1.15H70.9A1.14,1.14,0,0,1,72,46.46Z"/>
      </g>
      <g>
        <path style="fill: #fff;" d="M19.08,70V47.53a2.73,2.73,0,1,0-5.46,0V70a5.05,5.05,0,0,0-2.38,4.32,5.12,5.12,0,1,0,10.24,0A5,5,0,0,0,19.08,70Zm-2.72,7.3a3,3,0,1,1,3-3A3,3,0,0,1,16.36,77.28Z"/>
        <path style="fill: #fadc0f;" d="M19.33,74.3a3,3,0,1,1-3-3A3,3,0,0,1,19.33,74.3Z"/>
      </g>
      <polygon style="fill: #fff;" points="76.55 25.58 65.58 34.62 59.98 31.52 45.31 23.41 52.33 10.71 67.01 18.83 68.95 25.19 76.55 25.58"/>
    </g>
    <g>
      <g>
        <path style="fill: none; stroke: #414042; stroke-linecap: round; stroke-linejoin: round;" d="M26.75,23.06l14.41,7a1.64,1.64,0,0,1,.47,2.6A11.75,11.75,0,0,1,21.48,26"/>
        <path style="fill: none; stroke: #414042; stroke-linecap: round; stroke-linejoin: round;" d="M24.27,15.91l7-14.41A1.64,1.64,0,0,1,33.88,1a11.75,11.75,0,0,1-6.63,20.15"/>
        <path style="fill: none; stroke: #414042; stroke-linecap: round; stroke-linejoin: round;" d="M17.13,18.39l-14.42-7a1.63,1.63,0,0,1-.47-2.6,11.75,11.75,0,0,1,20.15,6.64"/>
        <path style="fill: none; stroke: #414042; stroke-linecap: round; stroke-linejoin: round;" d="M19.6,25.53,12.59,40a1.63,1.63,0,0,1-2.6.47,11.75,11.75,0,0,1,6.63-20.15"/>
        <circle style="fill: none; stroke: #414042; stroke-linecap: round; stroke-linejoin: round;" cx="21.93" cy="20.73" r="5.29"/>
        <circle style="fill: none; stroke: #414042; stroke-linecap: round; stroke-linejoin: round;" cx="22.01" cy="20.77" r="2.8"/>
      </g>
      <g>
        <rect style="fill: none; stroke: #414042; stroke-linecap: round; stroke-linejoin: round;" x="35.96" y="50.74" width="42.25" height="24.87" rx="1.58"/>
        <path style="fill: none; stroke: #414042; stroke-linecap: round; stroke-linejoin: round;" d="M43.28,45.31h7.22a1.15,1.15,0,0,1,1.15,1.15v4.28a0,0,0,0,1,0,0H42.12a0,0,0,0,1,0,0V46.47A1.15,1.15,0,0,1,43.28,45.31Z"/>
        <path style="fill: none; stroke: #414042; stroke-linecap: round; stroke-linejoin: round;" d="M63.67,45.31h7.22A1.15,1.15,0,0,1,72,46.47v4.28a0,0,0,0,1,0,0H62.52a0,0,0,0,1,0,0V46.47A1.15,1.15,0,0,1,63.67,45.31Z"/>
        <line style="fill: none; stroke: #414042; stroke-linecap: round; stroke-linejoin: round;" x1="42.89" y1="63.18" x2="50.88" y2="63.18"/>
        <line style="fill: none; stroke: #414042; stroke-linecap: round; stroke-linejoin: round;" x1="63" y1="63.18" x2="71.57" y2="63.18"/>
        <line style="fill: none; stroke: #414042; stroke-linecap: round; stroke-linejoin: round;" x1="67.28" y1="67.46" x2="67.28" y2="58.89"/>
      </g>
      <g>
        <circle style="fill: none; stroke: #414042; stroke-linecap: round; stroke-linejoin: round;" cx="16.35" cy="74.3" r="2.98"/>
        <line style="fill: none; stroke: #414042; stroke-linecap: round; stroke-linejoin: round;" x1="16.35" y1="71.32" x2="16.35" y2="60.83"/>
        <path style="fill: none; stroke: #414042; stroke-linecap: round; stroke-linejoin: round;" d="M21.48,74.29a5.12,5.12,0,1,1-10.24,0A5,5,0,0,1,13.62,70V47.53a2.73,2.73,0,1,1,5.46,0V70A5.06,5.06,0,0,1,21.48,74.29Z"/>
        <line style="fill: none; stroke: #414042; stroke-linecap: round; stroke-linejoin: round;" x1="13.62" y1="49.37" x2="16.6" y2="49.37"/>
        <line style="fill: none; stroke: #414042; stroke-linecap: round; stroke-linejoin: round;" x1="13.62" y1="56.9" x2="16.6" y2="56.9"/>
        <line style="fill: none; stroke: #414042; stroke-linecap: round; stroke-linejoin: round;" x1="13.62" y1="53.14" x2="15.35" y2="53.14"/>
      </g>
      <g>
        <polygon style="fill: none; stroke: #414042; stroke-linecap: round; stroke-linejoin: round;" points="76.55 25.58 65.58 34.62 59.98 31.52 45.31 23.41 52.33 10.71 67.01 18.83 68.95 25.19 76.55 25.58"/>
        <polyline style="fill: none; stroke: #414042; stroke-linecap: round; stroke-linejoin: round;" points="52.33 10.71 53.47 8.66 49.99 3.85 44.74 8.4 49.19 16.4"/>
        <line style="fill: none; stroke: #414042; stroke-linecap: round; stroke-linejoin: round;" x1="59.28" y1="7.65" x2="67.83" y2="12.39"/>
        <line style="fill: none; stroke: #414042; stroke-linecap: round; stroke-linejoin: round;" x1="63.55" y1="10.02" x2="60.63" y2="15.3"/>
      </g>
    </g>
  </g>
</svg>
