<svg id="b75999ab-a572-467c-9a8e-f23b4c1c1b52" data-name="Layer 1" xmlns="http://www.w3.org/2000/svg" viewBox="0 0 80 80">
  <title>14</title>
  <g>
    <g>
      <g>
        <path style="fill: #fadc0f;" d="M50.54,24.37l-.16,0a100.92,100.92,0,0,0-19.31-1.79,103.71,103.71,0,0,0-18.15,1.56l-.13.05a19,19,0,0,1,37.75.21Z"/>
        <path style="fill: #fff;" d="M52,18.48A21.94,21.94,0,0,0,10,22.94a20.14,20.14,0,0,0-.35,3.83A22,22,0,0,0,26.25,48.05H37A21.95,21.95,0,0,0,52,18.48ZM13,30.62s12.69-.31,12.69,14.25A19.08,19.08,0,0,1,13,30.62ZM37.2,45c0-14.57,13.07-14.25,13.07-14.25A19.12,19.12,0,0,1,37.2,45ZM12.6,26.79a16.37,16.37,0,0,1,.19-2.63,19,19,0,0,1,37.75.21,19.29,19.29,0,0,1,.15,2.42A154.59,154.59,0,0,0,12.6,26.79Z"/>
        <path style="fill: #fff;" d="M50.69,26.79a154.59,154.59,0,0,0-38.09,0,16.37,16.37,0,0,1,.19-2.63l.13-.05a103.71,103.71,0,0,1,18.15-1.56,100.92,100.92,0,0,1,19.31,1.79l.16,0A19.29,19.29,0,0,1,50.69,26.79Z"/>
        <path style="fill: #fff;" d="M50.27,30.76A19.12,19.12,0,0,1,37.2,45C37.2,30.44,50.27,30.76,50.27,30.76Z"/>
        <path style="fill: #fff;" d="M25.67,44.87A19.08,19.08,0,0,1,13,30.62S25.67,30.31,25.67,44.87Z"/>
        <path style="fill: #fff;" d="M78.42,24.12V57.34a2.09,2.09,0,0,1-.62,1.47l-2.86,2.86a2.08,2.08,0,0,1-1.46.61H70.64a3.31,3.31,0,0,0-6.62,0H61.19a2,2,0,0,1-1.46-.61l-2.87-2.86a2.13,2.13,0,0,1-.61-1.47V48.05H37A21.95,21.95,0,0,0,52,18.48v-.2l-.09-2.54a11.46,11.46,0,0,0-11.44-11H21.73a11.42,11.42,0,0,0-11.43,11L10,22.38v.56a20.14,20.14,0,0,0-.35,3.83A22,22,0,0,0,26.25,48.05H3.15a1.57,1.57,0,0,1-1.57-1.57v-26a1.57,1.57,0,0,1,1.57-1.56A1.59,1.59,0,0,0,4.67,17.7,25.26,25.26,0,0,1,11.54,6.29,20.16,20.16,0,0,1,25.68.61H36.74a20.09,20.09,0,0,1,17.32,9.45l.19.32a1.6,1.6,0,0,0,1.36.8l21.19-.08V22.61h.09A1.53,1.53,0,0,1,78.42,24.12Z"/>
        <path style="fill: #fff;" d="M70.65,62.45a3.32,3.32,0,0,1-6.64,0,1,1,0,0,1,0-.17,3.31,3.31,0,0,1,6.62,0A1,1,0,0,1,70.65,62.45Z"/>
        <rect style="fill: #fff;" x="61.75" y="67.13" width="11.16" height="12.27"/>
        <polygon style="fill: #fff;" points="21.01 65.22 15.17 65.22 14.74 58.78 21.44 58.78 21.01 65.22"/>
        <polygon style="fill: #fff;" points="30.65 65.22 24.8 65.22 24.37 58.78 31.07 58.78 30.65 65.22"/>
        <rect style="fill: #fff;" x="34.01" y="53.39" width="6.13" height="11.84"/>
        <path style="fill: #fff;" d="M53.59,79.3V76.64a5.28,5.28,0,0,0-5.28-5.28H8.59a5.28,5.28,0,0,0-5.28,5.28V79.3Z"/>
      </g>
      <path style="fill: #fadc0f;" d="M52,18.28v.2A21.94,21.94,0,0,0,10,22.94v-.56l.26-6.64a11.42,11.42,0,0,1,11.43-11H40.42a11.46,11.46,0,0,1,11.44,11Z"/>
    </g>
    <g>
      <g>
        <path style="fill: none; stroke: #414042; stroke-linecap: round; stroke-linejoin: round;" d="M39.88,9.71A10.27,10.27,0,0,1,38,22.63"/>
        <path style="fill: none; stroke: #414042; stroke-linecap: round; stroke-linejoin: round;" d="M24.23,22.7a10.29,10.29,0,0,1-2.46-12.06"/>
        <path style="fill: none; stroke: #414042; stroke-linecap: round; stroke-linejoin: round;" d="M47.87,17a6,6,0,0,1-5.54,3.64,6.11,6.11,0,0,1-2.14-.39"/>
        <circle style="fill: none; stroke: #414042; stroke-linecap: round; stroke-linejoin: round;" cx="31.07" cy="18.76" r="1.35"/>
        <line style="fill: none; stroke: #414042; stroke-linecap: round; stroke-linejoin: round;" x1="31.49" y1="17.48" x2="34.02" y2="9.62"/>
        <line style="fill: none; stroke: #414042; stroke-linecap: round; stroke-linejoin: round;" x1="41.36" y1="14.62" x2="44.87" y2="14.62"/>
        <path style="fill: none; stroke: #414042; stroke-linecap: round; stroke-linejoin: round;" d="M12.93,24.12a102.36,102.36,0,0,1,18.14-1.57"/>
        <path style="fill: none; stroke: #414042; stroke-linecap: round; stroke-linejoin: round;" d="M26,4.74H21.73a11.45,11.45,0,0,0-11.44,11L10,22.38"/>
        <path style="fill: none; stroke: #414042; stroke-linecap: round; stroke-linejoin: round;" d="M50.39,24.34a101.06,101.06,0,0,0-19.32-1.79"/>
        <path style="fill: none; stroke: #414042; stroke-linecap: round; stroke-linejoin: round;" d="M37.19,4.74h3.23a11.45,11.45,0,0,1,11.44,11L52,18.28"/>
        <polyline style="fill: none; stroke: #414042; stroke-linecap: round; stroke-linejoin: round;" points="19.07 13.31 19.07 20.1 14.33 20.1"/>
        <line style="fill: none; stroke: #414042; stroke-linecap: round; stroke-linejoin: round;" x1="16.18" y1="16.4" x2="17.95" y2="16.4"/>
        <line style="fill: none; stroke: #414042; stroke-linecap: round; stroke-linejoin: round;" x1="16.18" y1="16.4" x2="16.18" y2="20.1"/>
        <circle style="fill: none; stroke: #414042; stroke-linecap: round; stroke-linejoin: round;" cx="16.14" cy="9.62" r="0.49"/>
      </g>
      <path style="fill: none; stroke: #414042; stroke-linecap: round; stroke-linejoin: round;" d="M31.64,4.83A21.95,21.95,0,1,0,53.58,26.77,22,22,0,0,0,31.64,4.83ZM13,30.62s12.68-.31,12.7,14.25A19.08,19.08,0,0,1,13,30.62ZM12.6,26.8a19,19,0,1,1,38.09,0A153.62,153.62,0,0,0,12.6,26.8ZM37.2,45c0-14.57,13.08-14.25,13.08-14.25A19.1,19.1,0,0,1,37.2,45Z"/>
      <path style="fill: none; stroke: #414042; stroke-linecap: round; stroke-linejoin: round;" d="M18,48.05H3.15a1.56,1.56,0,0,1-1.56-1.57v-26a1.56,1.56,0,0,1,1.56-1.56h0A1.59,1.59,0,0,0,4.67,17.7,25.38,25.38,0,0,1,11.53,6.29,20.18,20.18,0,0,1,25.68.61H36.74a20.1,20.1,0,0,1,17.33,9.46c.06.1.12.21.19.31a1.54,1.54,0,0,0,1.36.8l21.18-.08"/>
      <line style="fill: none; stroke: #414042; stroke-linecap: round; stroke-linejoin: round;" x1="48.82" y1="48.05" x2="56.26" y2="48.05"/>
      <path style="fill: none; stroke: #414042; stroke-linecap: round; stroke-linejoin: round;" d="M70.75,62.28h2.73A2.08,2.08,0,0,0,75,61.67l2.85-2.86a2,2,0,0,0,.61-1.47V24.13a1.52,1.52,0,0,0-1.51-1.52H58.5"/>
      <path style="fill: none; stroke: #414042; stroke-linecap: round; stroke-linejoin: round;" d="M56.26,34.55V57.34a2.08,2.08,0,0,0,.61,1.47l2.86,2.86a2.08,2.08,0,0,0,1.47.61h2.69"/>
      <circle style="fill: none; stroke: #414042; stroke-linecap: round; stroke-linejoin: round;" cx="62.9" cy="53.08" r="2.73"/>
      <circle style="fill: none; stroke: #414042; stroke-linecap: round; stroke-linejoin: round;" cx="71.94" cy="53.08" r="2.73"/>
      <path style="fill: none; stroke: #414042; stroke-linecap: round; stroke-linejoin: round;" d="M74.35,42.26H60.26l.49-3.82a1.91,1.91,0,0,1,1.9-1.67H72a1.9,1.9,0,0,1,1.89,1.67Z"/>
      <circle style="fill: none; stroke: #414042; stroke-linecap: round; stroke-linejoin: round;" cx="67.34" cy="62.45" r="3.32"/>
      <line style="fill: none; stroke: #414042; stroke-linecap: round; stroke-linejoin: round;" x1="67.34" y1="65.78" x2="67.34" y2="74.21"/>
      <rect style="fill: none; stroke: #414042; stroke-linecap: round; stroke-linejoin: round;" x="61.76" y="67.13" width="11.16" height="12.27"/>
      <g>
        <g>
          <polygon style="fill: none; stroke: #414042; stroke-linecap: round; stroke-linejoin: round;" points="21.01 65.22 15.17 65.22 14.74 58.78 21.44 58.78 21.01 65.22"/>
          <line style="fill: none; stroke: #414042; stroke-linecap: round; stroke-linejoin: round;" x1="18.09" y1="58.78" x2="18.09" y2="49.9"/>
        </g>
        <g>
          <polygon style="fill: none; stroke: #414042; stroke-linecap: round; stroke-linejoin: round;" points="30.65 65.22 24.8 65.22 24.37 58.78 31.07 58.78 30.65 65.22"/>
          <line style="fill: none; stroke: #414042; stroke-linecap: round; stroke-linejoin: round;" x1="27.72" y1="58.78" x2="27.72" y2="49.9"/>
        </g>
        <g>
          <rect style="fill: none; stroke: #414042; stroke-linecap: round; stroke-linejoin: round;" x="34.01" y="53.39" width="6.13" height="11.84"/>
          <line style="fill: none; stroke: #414042; stroke-linecap: round; stroke-linejoin: round;" x1="37.07" y1="53.39" x2="37.07" y2="49.9"/>
        </g>
      </g>
      <path style="fill: none; stroke: #414042; stroke-linecap: round; stroke-linejoin: round;" d="M3.31,79.3V76.64a5.28,5.28,0,0,1,5.28-5.28H48.31a5.28,5.28,0,0,1,5.28,5.28V79.3"/>
    </g>
  </g>
</svg>
