<svg id="a307b787-45ef-4069-b794-0f2ae7f10ed6" data-name="Layer 1" xmlns="http://www.w3.org/2000/svg" viewBox="0 0 80 80">
  <title>15</title>
  <g>
    <g>
      <g>
        <path style="fill: #fadc0f;" d="M78.39,22.14,75.46,11.42l-2,2A49.3,49.3,0,0,0,45.25.55l-.58,5.54A43.79,43.79,0,0,1,69.54,17.4l-1.9,1.92Z"/>
        <path style="fill: #fadc0f;" d="M34.74.55A49.3,49.3,0,0,0,6.54,13.44l-2-2L1.61,22.14l10.75-2.82-1.9-1.92A43.79,43.79,0,0,1,35.33,6.09Z"/>
      </g>
      <g>
        <path style="fill: none; stroke: #414042; stroke-linecap: round; stroke-linejoin: round;" d="M78.39,22.14,75.46,11.42l-2,2A49.3,49.3,0,0,0,45.25.55l-.58,5.54A43.79,43.79,0,0,1,69.54,17.4l-1.9,1.92Z"/>
        <path style="fill: none; stroke: #414042; stroke-linecap: round; stroke-linejoin: round;" d="M34.74.55A49.3,49.3,0,0,0,6.54,13.44l-2-2L1.61,22.14l10.75-2.82-1.9-1.92A43.79,43.79,0,0,1,35.33,6.09Z"/>
      </g>
    </g>
    <g>
      <g>
        <path style="fill: #fff;" d="M40.18,13.6A32.93,32.93,0,1,0,73.11,46.52,32.92,32.92,0,0,0,40.18,13.6Zm4,59,0-.13c-.74-1.93-.94-5.56-.45-9.48a17.61,17.61,0,0,1,4.2-9.38A10.51,10.51,0,0,1,40.18,57a10.38,10.38,0,0,1-7.41-3.08,17.51,17.51,0,0,1,3.9,9c.5,3.92.3,7.55-.44,9.48l-.08.14a26.38,26.38,0,0,1-22.26-24l.08-.1A12.23,12.23,0,0,1,15.7,48a17.28,17.28,0,0,1,16.24,5,10.43,10.43,0,0,1-.55-12.18l0,0H14.44a26.38,26.38,0,0,1,51.49,0H49l0,0a10.46,10.46,0,0,1-1,12.76A17.33,17.33,0,0,1,64.71,48a12.71,12.71,0,0,1,1.74.49l0,0A26.36,26.36,0,0,1,44.23,72.58Z"/>
        <path style="fill: #fadc0f;" d="M50.67,46.52a10.42,10.42,0,0,1-2.73,7,0,0,0,0,0,0,0A10.51,10.51,0,0,1,40.18,57a10.38,10.38,0,0,1-7.41-3.08h0A11.84,11.84,0,0,0,32,53v0a10.48,10.48,0,1,1,18.73-6.47Z"/>
      </g>
      <g>
        <circle style="fill: none; stroke: #414042; stroke-linecap: round; stroke-linejoin: round; stroke-width: 0.88px;" cx="40.18" cy="46.52" r="10.49"/>
        <circle style="fill: none; stroke: #414042; stroke-linecap: round; stroke-linejoin: round; stroke-width: 0.88px;" cx="40.18" cy="46.52" r="26.37"/>
        <circle style="fill: none; stroke: #414042; stroke-linecap: round; stroke-linejoin: round; stroke-width: 0.88px;" cx="40.18" cy="46.52" r="32.93"/>
        <line style="fill: none; stroke: #414042; stroke-linecap: round; stroke-linejoin: round; stroke-width: 0.88px;" x1="49" y1="40.78" x2="65.93" y2="40.78"/>
        <line style="fill: none; stroke: #414042; stroke-linecap: round; stroke-linejoin: round; stroke-width: 0.88px;" x1="14.43" y1="40.78" x2="31.36" y2="40.78"/>
        <path style="fill: none; stroke: #414042; stroke-linecap: round; stroke-linejoin: round; stroke-width: 0.88px;" d="M14,48.45A12.71,12.71,0,0,1,15.7,48a17.5,17.5,0,0,1,21,15c.49,3.92.29,7.55-.45,9.47"/>
        <path style="fill: none; stroke: #414042; stroke-linecap: round; stroke-linejoin: round; stroke-width: 0.88px;" d="M66.45,48.45A12.71,12.71,0,0,0,64.71,48a17.5,17.5,0,0,0-21,15c-.49,3.92-.29,7.55.45,9.47"/>
      </g>
    </g>
  </g>
</svg>
