<svg id="b762afbf-776d-4802-b3d0-4ef7af2c47dd" data-name="Layer 1" xmlns="http://www.w3.org/2000/svg" viewBox="0 0 80 80">
  <title>16</title>
  <g>
    <g>
      <line style="fill:none;stroke:#414042;stroke-linecap:round;stroke-linejoin:round;" x1="72.8" y1="0.78" x2="72.8" y2="11.7"/>
      <line style="fill:none;stroke:#414042;stroke-linecap:round;stroke-linejoin:round;" x1="78.04" y1="8.84" x2="78.04" y2="19.76"/>
    </g>
    <g>
      <line style="fill:none;stroke:#414042;stroke-linecap:round;stroke-linejoin:round;" x1="1.96" y1="61.97" x2="1.96" y2="72.88"/>
      <line style="fill:none;stroke:#414042;stroke-linecap:round;stroke-linejoin:round;" x1="7.67" y1="68.3" x2="7.67" y2="79.22"/>
    </g>
    <g>
      <g>
        <path style="fill:#fff;" d="M40,.79A39.22,39.22,0,1,0,79.2,40,39.21,39.21,0,0,0,40,.79ZM44.81,71l-.06-.16c-.88-2.3-1.12-6.61-.53-11.28a20.87,20.87,0,0,1,5-11.18,12.49,12.49,0,0,1-18.06.41A20.92,20.92,0,0,1,35.81,59.6c.59,4.67.35,9-.52,11.28l-.1.17A31.42,31.42,0,0,1,8.67,42.42l.1-.12a14,14,0,0,1,2.06-.58,20.56,20.56,0,0,1,19.34,6,12.46,12.46,0,0,1-.65-14.51l0,0H9.33a31.41,31.41,0,0,1,61.32,0H50.5l0,0a12.31,12.31,0,0,1,2,6.8,12.44,12.44,0,0,1-3.25,8.4,20.61,20.61,0,0,1,20-6.68,14.4,14.4,0,0,1,2.07.58l0,0A31.4,31.4,0,0,1,44.81,71Z"/>
        <path style="fill:#fadc0f;" d="M52.48,40a12.44,12.44,0,0,1-3.25,8.4,0,0,0,0,0,0,0,12.49,12.49,0,0,1-18.06.41h0c-.3-.38-.63-.74-1-1.09l0,0A12.48,12.48,0,1,1,52.48,40Z"/>
      </g>
      <g>
        <circle style="fill:none;stroke:#414042;stroke-linecap:round;stroke-linejoin:round;stroke-width:0.88px;" cx="39.99" cy="40" r="12.49"/>
        <circle style="fill:none;stroke:#414042;stroke-linecap:round;stroke-linejoin:round;stroke-width:0.88px;" cx="39.99" cy="40" r="31.41"/>
        <circle style="fill:none;stroke:#414042;stroke-linecap:round;stroke-linejoin:round;stroke-width:0.88px;" cx="39.99" cy="40" r="39.22"/>
        <line style="fill:none;stroke:#414042;stroke-linecap:round;stroke-linejoin:round;stroke-width:0.88px;" x1="50.5" y1="33.16" x2="70.65" y2="33.16"/>
        <line style="fill:none;stroke:#414042;stroke-linecap:round;stroke-linejoin:round;stroke-width:0.88px;" x1="9.32" y1="33.16" x2="29.48" y2="33.16"/>
        <path style="fill:none;stroke:#414042;stroke-linecap:round;stroke-linejoin:round;stroke-width:0.88px;" d="M8.76,42.3a14.4,14.4,0,0,1,2.07-.58,20.83,20.83,0,0,1,25,17.88c.59,4.66.35,9-.53,11.28"/>
        <path style="fill:none;stroke:#414042;stroke-linecap:round;stroke-linejoin:round;stroke-width:0.88px;" d="M71.27,42.3a14.4,14.4,0,0,0-2.07-.58,20.83,20.83,0,0,0-25,17.88c-.59,4.66-.35,9,.53,11.28"/>
      </g>
    </g>
  </g>
</svg>
