<svg id="a6d734de-5886-45cb-90f4-a2afc77890cc" data-name="Layer 1" xmlns="http://www.w3.org/2000/svg" viewBox="0 0 80 80">
  <title>17</title>
  <g>
    <g>
      <g>
        <path style="fill: #fff;" d="M.67,46.15A33.35,33.35,0,1,0,34,12.81,33.35,33.35,0,0,0,.67,46.15Zm59.74-4.1-.14.05c-2,.75-5.63.95-9.6.45a17.78,17.78,0,0,1-9.5-4.25,10.62,10.62,0,0,1,.35,15.35,17.78,17.78,0,0,1,9.15-3.95c4-.5,7.64-.3,9.6.45l.14.08A26.7,26.7,0,0,1,36.07,72.77l-.1-.08a11.66,11.66,0,0,1-.5-1.75,17.48,17.48,0,0,1,5.1-16.44A10.57,10.57,0,0,1,34,56.77,10.44,10.44,0,0,1,28.23,55l0,0V72.22a26.72,26.72,0,0,1,0-52.14V37.21l0,0a10.61,10.61,0,0,1,12.93,1,17.52,17.52,0,0,1-5.69-17,12.09,12.09,0,0,1,.5-1.76l0,0A26.72,26.72,0,0,1,60.41,42.05Z"/>
        <path style="fill: #fadc0f;" d="M34,35.53a10.58,10.58,0,0,1,7.14,2.76h0a10.62,10.62,0,0,1,.35,15.35h0c-.32.26-.63.54-.93.82a0,0,0,0,1,0,0A10.57,10.57,0,0,1,34,56.77,10.44,10.44,0,0,1,28.23,55,10.62,10.62,0,0,1,34,35.53Z"/>
      </g>
      <g>
        <circle style="fill: none; stroke: #414042; stroke-linecap: round; stroke-linejoin: round; stroke-width: 0.88px;" cx="34.01" cy="46.15" r="10.62"/>
        <circle style="fill: none; stroke: #414042; stroke-linecap: round; stroke-linejoin: round; stroke-width: 0.88px;" cx="34.01" cy="46.15" r="26.71"/>
        <circle style="fill: none; stroke: #414042; stroke-linecap: round; stroke-linejoin: round; stroke-width: 0.88px;" cx="34.01" cy="46.15" r="33.34"/>
        <line style="fill: none; stroke: #414042; stroke-linecap: round; stroke-linejoin: round; stroke-width: 0.88px;" x1="28.2" y1="37.21" x2="28.2" y2="20.08"/>
        <line style="fill: none; stroke: #414042; stroke-linecap: round; stroke-linejoin: round; stroke-width: 0.88px;" x1="28.2" y1="72.22" x2="28.2" y2="55.08"/>
        <path style="fill: none; stroke: #414042; stroke-linecap: round; stroke-linejoin: round; stroke-width: 0.88px;" d="M36,72.69a13.37,13.37,0,0,1-.5-1.75A17.71,17.71,0,0,1,50.68,49.7c4-.5,7.63-.3,9.58.45"/>
        <path style="fill: none; stroke: #414042; stroke-linecap: round; stroke-linejoin: round; stroke-width: 0.88px;" d="M36,19.55a13.92,13.92,0,0,0-.5,1.76A17.72,17.72,0,0,0,50.68,42.55c4,.5,7.63.3,9.58-.45"/>
      </g>
    </g>
    <path style="fill: #fadc0f;" d="M78.13,22.42H54.44a1.28,1.28,0,0,1-1.09-2L65.2,1.28a1.27,1.27,0,0,1,2.17,0L79.22,20.47A1.28,1.28,0,0,1,78.13,22.42Z"/>
    <path style="fill: none; stroke: #414042; stroke-linecap: round; stroke-linejoin: round;" d="M78.13,22.42H54.44a1.28,1.28,0,0,1-1.09-2L65.2,1.28a1.27,1.27,0,0,1,2.17,0L79.22,20.47A1.28,1.28,0,0,1,78.13,22.42Z"/>
    <line style="fill: none; stroke: #414042; stroke-linecap: round; stroke-linejoin: round;" x1="66.79" y1="7.69" x2="66.79" y2="14.76"/>
    <circle style="fill: #414042; stroke: #414042; stroke-linecap: round; stroke-linejoin: round;" cx="66.79" cy="17.57" r="0.6"/>
  </g>
</svg>
