<svg id="f151b20c-7baa-456a-b637-054bdac884ad" data-name="Layer 1" xmlns="http://www.w3.org/2000/svg" viewBox="0 0 80 80">
  <title>18</title>
  <g>
    <g>
      <path style="fill:#fadc0f;" d="M26.54,74.76a15.21,15.21,0,1,1-3.4-24.07,15.11,15.11,0,0,1,6.24,6.52A15.18,15.18,0,0,1,26.54,74.76Z"/>
      <path style="fill:#fff;" d="M70.56,36.48a26.81,26.81,0,0,0-18.08.43l.14.11c.23.21.47.42.7.66A12.13,12.13,0,0,1,36.16,54.84a12.62,12.62,0,0,1-1.92-2.5l-4.86,4.87a15.11,15.11,0,0,0-6.24-6.52l13-13,2.14-2.14a20.89,20.89,0,0,0,4.35-6.23A27,27,0,0,0,43.73,9.66a1.27,1.27,0,0,1,2.11-1.28l26,26A1.27,1.27,0,0,1,70.56,36.48Z"/>
    </g>
    <g>
      <circle style="fill:none;stroke:#414042;stroke-linecap:round;stroke-linejoin:round;" cx="15.78" cy="64" r="15.21"/>
      <path style="fill:none;stroke:#414042;stroke-linecap:round;stroke-linejoin:round;" d="M23.14,50.69,38.3,35.54a21.07,21.07,0,0,0,4.35-6.23A27,27,0,0,0,43.73,9.66a1.27,1.27,0,0,1,2.11-1.28l26,26a1.27,1.27,0,0,1-1.27,2.11A27,27,0,0,0,50.9,37.56a21.1,21.1,0,0,0-6.23,4.36l-2.16,2.16"/>
      <path style="fill:none;stroke:#414042;stroke-linecap:round;stroke-linejoin:round;" d="M47.57,44.94a3.12,3.12,0,1,1-5-.89"/>
      <path style="fill:none;stroke:#414042;stroke-linecap:round;stroke-linejoin:round;" d="M52.61,37c.25.21.48.43.71.66a12.13,12.13,0,1,1-17.16,0"/>
      <line style="fill:none;stroke:#414042;stroke-linecap:round;stroke-linejoin:round;" x1="34.24" y1="52.35" x2="29.39" y2="57.2"/>
      <path style="fill:none;stroke:#414042;stroke-linecap:round;stroke-linejoin:round;" d="M54.89,8.19A18.2,18.2,0,0,1,72,25.32"/>
      <path style="fill:none;stroke:#414042;stroke-linecap:round;stroke-linejoin:round;" d="M55.32.79a25.61,25.61,0,0,1,24.1,24.1"/>
    </g>
  </g>
</svg>
