<svg id="af670a6c-6cbb-4b34-b01c-e59b7a479150" data-name="Layer 1" xmlns="http://www.w3.org/2000/svg" viewBox="0 0 80 80">
  <title>20</title>
  <g>
    <g>
      <g>
        <circle style="fill:#fff;" cx="41.62" cy="53.12" r="3.6"/>
        <circle style="fill:#fff;" cx="41.62" cy="53.12" r="14.13"/>
        <circle style="fill:#fff;" cx="41.62" cy="45.11" r="1.71"/>
        <circle style="fill:#fff;" cx="33.61" cy="53.12" r="1.71"/>
        <circle style="fill:#fff;" cx="41.62" cy="61.13" r="1.71"/>
        <circle style="fill:#fff;" cx="49.63" cy="53.12" r="1.71"/>
        <path style="fill:#fff;" d="M67.93,53.12a26.3,26.3,0,0,1-42.4,20.82l-.23-.25V63.55a19.27,19.27,0,0,1,0-20.87V32.61l.16-.26A26.31,26.31,0,0,1,67.93,53.12Z"/>
        <path style="fill:#fadc0f;" d="M25.3,28.51V42.68a19.27,19.27,0,0,0,0,20.87V77.72a29.5,29.5,0,0,1,0-49.21Z"/>
      </g>
      <path style="fill:#fff;" d="M60.59,19.65H22.43a19.08,19.08,0,0,1,38.16,0Z"/>
      <circle style="fill:#fadc0f;" cx="41.51" cy="19.65" r="2.51"/>
    </g>
    <g>
      <g>
        <circle style="fill:none;stroke:#414042;stroke-linecap:round;stroke-linejoin:round;" cx="41.62" cy="53.12" r="3.6"/>
        <circle style="fill:none;stroke:#414042;stroke-linecap:round;stroke-linejoin:round;" cx="41.62" cy="53.12" r="14.13"/>
        <circle style="fill:none;stroke:#414042;stroke-linecap:round;stroke-linejoin:round;" cx="41.62" cy="45.11" r="1.71"/>
        <circle style="fill:none;stroke:#414042;stroke-linecap:round;stroke-linejoin:round;" cx="33.61" cy="53.12" r="1.71"/>
        <circle style="fill:none;stroke:#414042;stroke-linecap:round;stroke-linejoin:round;" cx="41.62" cy="61.13" r="1.71"/>
        <circle style="fill:none;stroke:#414042;stroke-linecap:round;stroke-linejoin:round;" cx="49.63" cy="53.12" r="1.71"/>
        <path style="fill:none;stroke:#414042;stroke-linecap:round;stroke-linejoin:round;" d="M25.46,32.34a26.32,26.32,0,1,1,.07,41.6"/>
        <path style="fill:none;stroke:#414042;stroke-linecap:round;stroke-linejoin:round;" d="M25.31,42.68a19.22,19.22,0,0,0,0,20.87V77.72a29.48,29.48,0,0,1,0-49.21Z"/>
      </g>
      <path style="fill:none;stroke:#414042;stroke-linecap:round;stroke-linejoin:round;" d="M38.72,19.65H22.43a19.08,19.08,0,1,1,38.16,0H44.23"/>
      <circle style="fill:none;stroke:#414042;stroke-linecap:round;stroke-linejoin:round;" cx="41.51" cy="19.65" r="2.51"/>
      <line style="fill:none;stroke:#414042;stroke-linecap:round;stroke-linejoin:round;" x1="43.45" y1="17.86" x2="52.76" y2="9.28"/>
      <line style="fill:none;stroke:#414042;stroke-linecap:round;stroke-linejoin:round;" x1="41.51" y1="0.56" x2="41.51" y2="4.06"/>
      <line style="fill:none;stroke:#414042;stroke-linecap:round;stroke-linejoin:round;" x1="31.97" y1="3.12" x2="33.71" y2="6.14"/>
      <line style="fill:none;stroke:#414042;stroke-linecap:round;stroke-linejoin:round;" x1="24.98" y1="10.11" x2="28.01" y2="11.85"/>
      <line style="fill:none;stroke:#414042;stroke-linecap:round;stroke-linejoin:round;" x1="58.03" y1="10.11" x2="55.01" y2="11.85"/>
      <line style="fill:none;stroke:#414042;stroke-linecap:round;stroke-linejoin:round;" x1="51.05" y1="3.12" x2="49.3" y2="6.14"/>
    </g>
  </g>
</svg>
