<svg id="e77a26f6-e2a9-4e0a-82e5-89575ba14758" data-name="Layer 1" xmlns="http://www.w3.org/2000/svg" viewBox="0 0 80 80">
  <title>21</title>
  <g>
    <g>
      <path style="fill: #fff;" d="M41,50.65h0"/>
      <path style="fill: #fadc0f;" d="M9.48,31.28a11.15,11.15,0,0,1,3.1-7.69h0C7.52,16.89,12.3,7.8,19.22,7.85c5.18-9.31,19.26-6,20.87,2,12-4.33,19.11,8,16.07,15.6.52,4.84.27,9-6.47,11.81A14.47,14.47,0,0,1,41,50.65c.11-.31,2-5.53-2.57-7.56a7.43,7.43,0,0,0-3.52-.53,6.37,6.37,0,0,1-5.43-1.81l-.18.1A13.12,13.12,0,0,1,22,43C15.09,43,9.48,37.75,9.48,31.28Z"/>
      <path style="fill: #fff;" d="M79.3,57.51V76.92a.87.87,0,0,1-.88.86H1.57a.86.86,0,0,1-.86-.86V57.51a.87.87,0,0,1,.86-.88h31.7L38.45,63l-1.87,8.18,8.34-7.7-1.09-6.84H78.42A.88.88,0,0,1,79.3,57.51Z"/>
    </g>
    <g>
      <g>
        <path style="fill: none; stroke: #414042; stroke-linecap: round; stroke-linejoin: round;" d="M29.25,40.85A13.09,13.09,0,0,1,22,43C15.1,43,9.49,37.75,9.49,31.28A11.43,11.43,0,0,1,14.38,22"/>
        <path style="fill: none; stroke: #414042; stroke-linecap: round; stroke-linejoin: round;" d="M27.88,37.56s.74,5.48,7,5a7.43,7.43,0,0,1,3.52.53C43.13,45.17,41,50.67,41,50.67a14.48,14.48,0,0,0,8.73-13.42c6.75-2.85,7-7,6.49-11.82,3-7.61-4.07-19.93-16.07-15.6-1.61-7.95-15.7-11.29-20.88-2-6.92,0-11.7,9.05-6.65,15.74"/>
        <path style="fill: none; stroke: #414042; stroke-linecap: round; stroke-linejoin: round;" d="M22.46,30.9c0-.15,0-.3,0-.45a7,7,0,0,1,4.95-6.71A8.22,8.22,0,0,1,41.92,19c.24,0,.47,0,.71,0A7.05,7.05,0,0,1,49.2,23.4"/>
      </g>
      <path style="fill: none; stroke: #414042; stroke-linecap: round; stroke-linejoin: round;" d="M79.29,57.5V76.92a.87.87,0,0,1-.86.87H1.57a.87.87,0,0,1-.87-.87V57.5a.87.87,0,0,1,.87-.86h31.7L38.46,63l-1.88,8.19,8.34-7.7-1.09-6.83h34.6A.87.87,0,0,1,79.29,57.5Z"/>
      <line style="fill: none; stroke: #414042; stroke-linecap: round; stroke-linejoin: round;" x1="19.3" y1="47.56" x2="25.97" y2="52.09"/>
      <line style="fill: none; stroke: #414042; stroke-linecap: round; stroke-linejoin: round;" x1="28.72" y1="46.8" x2="32.84" y2="52.09"/>
      <line style="fill: none; stroke: #414042; stroke-linecap: round; stroke-linejoin: round;" x1="63.19" y1="47.56" x2="56.51" y2="52.09"/>
      <line style="fill: none; stroke: #414042; stroke-linecap: round; stroke-linejoin: round;" x1="53.77" y1="46.8" x2="49.65" y2="52.09"/>
    </g>
  </g>
</svg>
