<svg id="a0cd435a-d90f-4884-9927-02acf3c22603" data-name="Layer 1" xmlns="http://www.w3.org/2000/svg" viewBox="0 0 80 80">
  <title>23</title>
  <g>
    <path style="fill:#fff;" d="M54.07,46.13a42.72,42.72,0,0,1-2.45,4.25l-2.11,2.94C41,64.06,30.4,66,30.4,66l-.87.86,2.36,2.36L20.4,79.28a33.92,33.92,0,0,1-12-12l.49-.49c11-5.94,14.08-13.69,14.72-15.68,7.5.35,16.48-1,20.85-5.15,4.09-3.24,6.7-3.65,9-2A1.72,1.72,0,0,1,54.07,46.13Z"/>
    <path style="fill:#fff;" d="M23.78,50.65s0,.17-.14.48c-.64,2-3.72,9.74-14.72,15.68L1,60.07.83,25.21Z"/>
    <path style="fill:#fadc0f;" d="M58.68,49.56l-4.32,6-1.69,2.34-4.45,6.18L44,61l5.53-7.67c.72-.91,1.43-1.89,2.11-2.94l2.81-3.88Z"/>
    <polygon style="fill:#fff;" points="65.88 63.01 64.16 65.55 52.67 57.88 54.36 55.54 65.88 63.01"/>
    <rect style="fill:#fadc0f;" x="30.26" y="29.38" width="7.83" height="7.83"/>
    <rect style="fill:none;stroke:#414042;stroke-linejoin:round;" x="30.26" y="29.38" width="7.83" height="7.83"/>
    <polyline style="fill:none;stroke:#414042;stroke-linecap:round;stroke-linejoin:round;" points="32.48 32.47 34.65 34.63 41.89 27.39"/>
    <rect style="fill:#fadc0f;" x="58.29" y="29.38" width="7.83" height="7.83"/>
    <rect style="fill:none;stroke:#414042;stroke-linejoin:round;" x="58.29" y="29.38" width="7.83" height="7.83"/>
    <polyline style="fill:none;stroke:#414042;stroke-linecap:round;stroke-linejoin:round;" points="60.52 32.47 62.68 34.63 69.93 27.39"/>
    <g>
      <path style="fill:none;stroke:#414042;stroke-linecap:round;stroke-linejoin:round;" d="M23.64,51.13c7.51.35,16.48-1,20.85-5.15,4.09-3.25,6.7-3.65,9-2a1.71,1.71,0,0,1,.53,2.15C45.49,63.26,30.4,66,30.4,66l-.87.87,2.36,2.36L20.4,79.28a34,34,0,0,1-12-12l.49-.49"/>
      <path style="fill:none;stroke:#414042;stroke-linecap:round;stroke-linejoin:round;" d="M.83,25.21l23,25.44S21.65,59.93,8.92,66.81L1,60.06"/>
      <rect style="fill:none;stroke:#414042;stroke-linecap:round;stroke-linejoin:round;" x="48.71" y="46.34" width="5.23" height="17.88" transform="translate(42.03 -19.58) rotate(35.79)"/>
      <g>
        <line style="fill:none;stroke:#414042;stroke-linecap:round;stroke-linejoin:round;" x1="54.45" y1="55.61" x2="65.88" y2="63.01"/>
        <line style="fill:none;stroke:#414042;stroke-linecap:round;stroke-linejoin:round;" x1="64.16" y1="65.55" x2="52.72" y2="58.06"/>
      </g>
    </g>
    <g>
      <path style="fill:#fff;" d="M31.75,4.11h6.61V6.74H34.09a25.14,25.14,0,0,0,0,11.7h4.27v2.62H31.75A24.81,24.81,0,0,1,31.75,4.11Z"/>
      <path style="fill:#fff;" d="M27.38,4.36v0S27.25,5,27,5.84H25.6A3.54,3.54,0,0,1,27.38,4.36Z"/>
      <path style="fill:#fff;" d="M28.67,4.11h3.08a24.81,24.81,0,0,0,0,17H28.67a3.65,3.65,0,0,1-1.29-.23v0c0-.09-.14-.68-.36-1.41-.39-1.3-1.07-3-2-3V8.82c.87,0,1.55-1.69,1.94-3,.25-.81.38-1.46.38-1.46v0A3.45,3.45,0,0,1,28.67,4.11Z"/>
      <path style="fill:#fff;" d="M25.06,16.38c.88,0,1.56,1.72,2,3H25.64a3.57,3.57,0,0,1-.58-1.94Z"/>
      <path style="fill:#fff;" d="M25.64,19.4H27c.22.73.34,1.32.36,1.41A3.39,3.39,0,0,1,25.64,19.4Z"/>
      <path style="fill:#fff;" d="M38.36,6.74V4.11H41v17H38.36V18.44H34.09a25.14,25.14,0,0,1,0-11.7Z"/>
      <path style="fill:#fff;" d="M25.6,5.84H27c-.39,1.29-1.07,3-1.94,3V7.72A3.53,3.53,0,0,1,25.6,5.84Z"/>
      <rect style="fill:#fff;" x="34.68" y="11.72" width="14.38" height="1.74" transform="translate(29.28 54.46) rotate(-90)"/>
      <path style="fill:none;stroke:#414042;stroke-linecap:round;stroke-linejoin:round;" d="M28.16,4.62H37.9A3.61,3.61,0,0,1,41.5,8.23V20.56a0,0,0,0,1,0,0H24.56a0,0,0,0,1,0,0V8.23a3.61,3.61,0,0,1,3.61-3.61Z" transform="translate(20.44 45.62) rotate(-90)"/>
      <path style="fill:none;stroke:#414042;stroke-linecap:round;stroke-linejoin:round;" d="M27.38,20.83s-.9-4.45-2.32-4.45"/>
      <path style="fill:none;stroke:#414042;stroke-linecap:round;stroke-linejoin:round;" d="M27.38,4.38s-.9,4.44-2.32,4.44"/>
      <line style="fill:none;stroke:#414042;stroke-linecap:round;stroke-linejoin:round;" x1="25.63" y1="19.41" x2="27.01" y2="19.41"/>
      <path style="fill:none;stroke:#414042;stroke-linecap:round;stroke-linejoin:round;" d="M34.08,6.74a25.41,25.41,0,0,0,0,11.7l-2.33,2.62a24.78,24.78,0,0,1,0-16.94Z"/>
      <polyline style="fill:none;stroke:#414042;stroke-linecap:round;stroke-linejoin:round;" points="34.08 6.74 38.36 6.74 38.36 4.12"/>
      <polyline style="fill:none;stroke:#414042;stroke-linecap:round;stroke-linejoin:round;" points="34.08 18.44 38.36 18.44 38.36 21.06"/>
      <rect style="fill:none;stroke:#414042;stroke-linecap:round;stroke-linejoin:round;" x="34.68" y="11.72" width="14.38" height="1.74" transform="translate(29.28 54.46) rotate(-90)"/>
      <g>
        <line style="fill:none;stroke:#414042;stroke-linecap:round;stroke-linejoin:round;" x1="32.87" y1="20.74" x2="32.87" y2="22.33"/>
        <line style="fill:none;stroke:#414042;stroke-linecap:round;stroke-linejoin:round;" x1="32.87" y1="3.02" x2="32.87" y2="4.61"/>
      </g>
    </g>
    <g>
      <rect style="fill:#fff;" x="53.5" y="-2.2" width="18.25" height="29.74" transform="translate(49.95 75.3) rotate(-90)"/>
      <rect style="fill:none;stroke:#414042;stroke-linecap:round;stroke-linejoin:round;" x="53.5" y="-2.2" width="18.25" height="29.74" transform="translate(49.95 75.3) rotate(-90)"/>
      <line style="fill:none;stroke:#414042;stroke-linecap:round;stroke-linejoin:round;" x1="52.2" y1="18.52" x2="73.83" y2="18.52"/>
      <line style="fill:none;stroke:#414042;stroke-linecap:round;stroke-linejoin:round;" x1="52.2" y1="14.8" x2="73.83" y2="14.8"/>
      <line style="fill:none;stroke:#414042;stroke-linecap:round;stroke-linejoin:round;" x1="52.2" y1="11.08" x2="73.83" y2="11.08"/>
      <line style="fill:none;stroke:#414042;stroke-linecap:round;stroke-linejoin:round;" x1="52.2" y1="7.36" x2="73.83" y2="7.36"/>
    </g>
  </g>
</svg>
