<svg id="bc54f513-e742-4d38-b93b-650b54222adf" data-name="Layer 1" xmlns="http://www.w3.org/2000/svg" viewBox="0 0 80 80">
  <title>24</title>
  <g>
    <g>
      <path style="fill: #fff;" d="M79.15,69.34v5.34a.54.54,0,0,1-.54.54H18.86a.54.54,0,0,1-.54-.54V69.34a2.86,2.86,0,0,1,2.85-2.85H76.3A2.86,2.86,0,0,1,79.15,69.34Z"/>
      <path style="fill: #fadc0f;" d="M51,28.64l-.94.86-9.74,9-.42.38-2.78-1.61A20.57,20.57,0,0,1,32,32.91,35.11,35.11,0,0,0,11.48,21.06a19.48,19.48,0,0,1-6.09-2.18L3.2,17.61a.73.73,0,0,1-.28-1l1.45-2.51,3.7-6.42,1.44-2.5a.74.74,0,0,1,1-.27L51,28.23A.26.26,0,0,1,51,28.64Z"/>
      <path style="fill: #fff;" d="M8.07,7.66l-3.7,6.42-.07,0L1.11,12.2a.51.51,0,0,1-.19-.7L4.12,6a.51.51,0,0,1,.69-.19L7.94,7.59Z"/>
      <path style="fill: #fff;" d="M70.43,66.49H28.53l.17-2.4a20.36,20.36,0,0,1,5.94-12.93l5.7-5.68a4.91,4.91,0,0,0,.1-6.85l-.09-.18,9.74-9,6.57,4.15a17.07,17.07,0,0,1,7.28,9.78Z"/>
    </g>
    <g>
      <path style="fill: none; stroke: #414042; stroke-linecap: round; stroke-linejoin: round;" d="M21.17,66.5H76.3a2.85,2.85,0,0,1,2.85,2.85v5.33a.54.54,0,0,1-.54.54H18.87a.54.54,0,0,1-.54-.54V69.34A2.85,2.85,0,0,1,21.17,66.5Z"/>
      <path style="fill: none; stroke: #414042; stroke-linecap: round; stroke-linejoin: round;" d="M39.94,38.83l-2.79-1.61A20.57,20.57,0,0,1,32,32.92,35.11,35.11,0,0,0,11.49,21.06a19.11,19.11,0,0,1-6.1-2.18l-2.2-1.27a.75.75,0,0,1-.27-1L9.51,5.16a.75.75,0,0,1,1-.28L51,28.23a.26.26,0,0,1,.05.41Z"/>
      <path style="fill: none; stroke: #414042; stroke-linecap: round; stroke-linejoin: round;" d="M4.31,14.05,1.11,12.2a.51.51,0,0,1-.19-.7L4.12,6a.51.51,0,0,1,.69-.19L7.94,7.59"/>
      <path style="fill: none; stroke: #414042; stroke-linecap: round; stroke-linejoin: round;" d="M50.09,29.5l6.57,4.15a17,17,0,0,1,7.28,9.78L70.43,66.5"/>
      <path style="fill: none; stroke: #414042; stroke-linecap: round; stroke-linejoin: round;" d="M40.44,38.63a4.91,4.91,0,0,1-.1,6.85l-5.7,5.68A20.38,20.38,0,0,0,28.7,64.09l-.18,2.41"/>
      <line style="fill: none; stroke: #414042; stroke-linecap: round; stroke-linejoin: round;" x1="12.59" y1="21.28" x2="14" y2="19.09"/>
      <line style="fill: none; stroke: #414042; stroke-linecap: round; stroke-linejoin: round;" x1="31.7" y1="32.49" x2="33.1" y2="30.3"/>
    </g>
  </g>
</svg>
