<svg id="b0d191d7-4b38-4eac-bf0f-3f933ae020fd" data-name="Layer 1" xmlns="http://www.w3.org/2000/svg" viewBox="0 0 80 80">
  <title>25</title>
  <g>
    <g>
      <path style="fill:#fadc0f;" d="M53.19,38.43c-.45,9.36-1.94,25.85-6.92,36.46a4.11,4.11,0,0,1-3.72,2.38H28.69a3.57,3.57,0,0,1-.87-.1,4,4,0,0,1-1.49-.65A4.12,4.12,0,0,1,25,74.9c-2.24-4.82-6.51-17.08-4.58-37.46a6.81,6.81,0,0,1,6.78-6.14H46.39a6.81,6.81,0,0,1,3.9,1.23h0a6.56,6.56,0,0,1,1.17,1.06A6.75,6.75,0,0,1,53.19,38.43Z"/>
      <path style="fill:#fadc0f;" d="M55.77,40.23c-.45,9.36-1.94,25.86-6.92,36.46a4.11,4.11,0,0,1-3.72,2.38H31.27a4.09,4.09,0,0,1-2.43-.8h0l-2.5-1.75a4,4,0,0,0,1.49.65,3.57,3.57,0,0,0,.87.1H42.55a4.11,4.11,0,0,0,3.72-2.38c5-10.61,6.47-27.1,6.92-36.46a6.75,6.75,0,0,0-1.72-4.84,6.56,6.56,0,0,0-1.17-1.06l2.2,1.57h0A6.81,6.81,0,0,1,55.77,40.23Z"/>
      <path style="fill:#fff;" d="M47.76,31.3v.14a6.84,6.84,0,0,0-1.37-.14H34.63S35,15.06,34,6.79a51.55,51.55,0,0,0-1-5.2H47.47c.12,1.2.22,2.39.29,3.54C48.51,16.44,47.76,31.3,47.76,31.3Z"/>
    </g>
    <g>
      <path style="fill:none;stroke:#414042;stroke-linecap:round;stroke-linejoin:round;" d="M53.19,38.43c-.45,9.36-1.94,25.85-6.91,36.46a4.12,4.12,0,0,1-3.73,2.38H28.7a4.24,4.24,0,0,1-.88-.1,4.11,4.11,0,0,1-1.48-.65A4.06,4.06,0,0,1,25,74.9c-2.23-4.82-6.51-17.08-4.57-37.46a6.79,6.79,0,0,1,6.77-6.14H46.39a6.83,6.83,0,0,1,3.91,1.23h0a7.38,7.38,0,0,1,1.18,1A6.77,6.77,0,0,1,53.19,38.43Z"/>
      <path style="fill:none;stroke:#414042;stroke-linecap:round;stroke-linejoin:round;" d="M50.3,32.53l2.21,1.57h0a6.79,6.79,0,0,1,3.25,6.13c-.45,9.36-1.94,25.85-6.92,36.46a4.11,4.11,0,0,1-3.72,2.38H31.28a4.1,4.1,0,0,1-2.44-.8h0l-2.5-1.75"/>
      <path style="fill:none;stroke:#414042;stroke-linecap:round;stroke-linejoin:round;" d="M33,1.59a51,51,0,0,1,1,5.2c1,8.27.63,24.51.63,24.51"/>
      <path style="fill:none;stroke:#414042;stroke-linecap:round;stroke-linejoin:round;" d="M44.87,1.59c.12,1.2.22,2.39.3,3.53.75,11.32,0,26.18,0,26.18"/>
      <path style="fill:none;stroke:#414042;stroke-linecap:round;stroke-linejoin:round;" d="M47.47,1.59c.12,1.2.22,2.39.3,3.53.75,11.32,0,26.18,0,26.18"/>
      <line style="fill:none;stroke:#414042;stroke-linecap:round;stroke-linejoin:round;" x1="26.95" y1="68.68" x2="44.84" y2="68.68"/>
      <line style="fill:none;stroke:#414042;stroke-linecap:round;stroke-linejoin:round;" x1="25.86" y1="59.23" x2="46.43" y2="59.23"/>
      <line style="fill:none;stroke:#414042;stroke-linecap:round;stroke-linejoin:round;" x1="26.27" y1="40.55" x2="46.84" y2="40.55"/>
      <line style="fill:none;stroke:#414042;stroke-linecap:round;stroke-linejoin:round;" x1="24.28" y1="49.79" x2="48.02" y2="49.79"/>
    </g>
  </g>
</svg>
