<svg id="e0254133-dffa-4e62-b92e-7da804726f60" data-name="Layer 1" xmlns="http://www.w3.org/2000/svg" viewBox="0 0 80 80">
  <title>26</title>
  <g>
    <g>
      <path style="fill:#fff;" d="M73.44,18.7V61.3a5.14,5.14,0,0,1-5.13,5.15H11.69A5.14,5.14,0,0,1,6.55,61.3V18.7a5.15,5.15,0,0,1,5.14-5.15H68.31A5.14,5.14,0,0,1,73.44,18.7Z"/>
      <rect style="fill:#fff;" x="12.54" y="29.25" width="21.5" height="21.5"/>
      <rect style="fill:#fff;" x="44.87" y="29.25" width="21.5" height="21.5"/>
      <g>
        <rect style="fill:#fadc0f;" x="0.67" y="23.43" width="5.88" height="8.94"/>
        <rect style="fill:#fadc0f;" x="0.67" y="47.63" width="5.88" height="8.94"/>
      </g>
      <rect style="fill:#fadc0f;" x="73.44" y="23.43" width="5.89" height="8.94"/>
      <rect style="fill:#fadc0f;" x="73.44" y="47.63" width="5.89" height="8.94"/>
      <g>
        <g>
          <circle style="fill:#fff;" cx="15.6" cy="17.84" r="1.29"/>
          <circle style="fill:#fff;" cx="64.4" cy="17.84" r="1.29"/>
        </g>
        <g>
          <circle style="fill:#fff;" cx="15.6" cy="62.16" r="1.29"/>
          <circle style="fill:#fff;" cx="64.4" cy="62.16" r="1.29"/>
        </g>
      </g>
    </g>
    <g>
      <rect style="fill:none;stroke:#414042;stroke-linecap:round;stroke-linejoin:round;" x="6.55" y="13.55" width="66.9" height="52.89" rx="5.14"/>
      <rect style="fill:none;stroke:#414042;stroke-linecap:round;stroke-linejoin:round;" x="12.54" y="29.25" width="21.5" height="21.5"/>
      <rect style="fill:none;stroke:#414042;stroke-linecap:round;stroke-linejoin:round;" x="44.87" y="29.25" width="21.5" height="21.5"/>
      <g>
        <rect style="fill:none;stroke:#414042;stroke-linecap:round;stroke-linejoin:round;" x="0.67" y="23.43" width="5.89" height="8.94"/>
        <rect style="fill:none;stroke:#414042;stroke-linecap:round;stroke-linejoin:round;" x="0.67" y="47.63" width="5.89" height="8.94"/>
      </g>
      <rect style="fill:none;stroke:#414042;stroke-linecap:round;stroke-linejoin:round;" x="73.45" y="23.43" width="5.89" height="8.94"/>
      <rect style="fill:none;stroke:#414042;stroke-linecap:round;stroke-linejoin:round;" x="73.45" y="47.63" width="5.89" height="8.94"/>
      <g>
        <g>
          <circle style="fill:none;stroke:#414042;stroke-linecap:round;stroke-linejoin:round;" cx="15.6" cy="17.84" r="1.29"/>
          <circle style="fill:none;stroke:#414042;stroke-linecap:round;stroke-linejoin:round;" cx="64.4" cy="17.84" r="1.29"/>
        </g>
        <g>
          <circle style="fill:none;stroke:#414042;stroke-linecap:round;stroke-linejoin:round;" cx="15.6" cy="62.16" r="1.29"/>
          <circle style="fill:none;stroke:#414042;stroke-linecap:round;stroke-linejoin:round;" cx="64.4" cy="62.16" r="1.29"/>
        </g>
      </g>
      <g>
        <line style="fill:none;stroke:#414042;stroke-linecap:round;stroke-linejoin:round;" x1="74.71" y1="25.98" x2="77.92" y2="25.98"/>
        <line style="fill:none;stroke:#414042;stroke-linecap:round;stroke-linejoin:round;" x1="74.71" y1="29.82" x2="77.92" y2="29.82"/>
      </g>
      <g>
        <line style="fill:none;stroke:#414042;stroke-linecap:round;stroke-linejoin:round;" x1="74.71" y1="50.18" x2="77.92" y2="50.18"/>
        <line style="fill:none;stroke:#414042;stroke-linecap:round;stroke-linejoin:round;" x1="74.71" y1="54.02" x2="77.92" y2="54.02"/>
      </g>
      <g>
        <line style="fill:none;stroke:#414042;stroke-linecap:round;stroke-linejoin:round;" x1="2.01" y1="25.98" x2="5.21" y2="25.98"/>
        <line style="fill:none;stroke:#414042;stroke-linecap:round;stroke-linejoin:round;" x1="2.01" y1="29.82" x2="5.21" y2="29.82"/>
      </g>
      <g>
        <line style="fill:none;stroke:#414042;stroke-linecap:round;stroke-linejoin:round;" x1="2.01" y1="50.18" x2="5.21" y2="50.18"/>
        <line style="fill:none;stroke:#414042;stroke-linecap:round;stroke-linejoin:round;" x1="2.01" y1="54.02" x2="5.21" y2="54.02"/>
      </g>
      <g>
        <line style="fill:none;stroke:#414042;stroke-linecap:round;stroke-linejoin:round;" x1="28.95" y1="33.45" x2="28.95" y2="39.01"/>
        <line style="fill:none;stroke:#414042;stroke-linecap:round;stroke-linejoin:round;" x1="28.95" y1="41.01" x2="28.95" y2="46.57"/>
        <line style="fill:none;stroke:#414042;stroke-linecap:round;stroke-linejoin:round;" x1="22.15" y1="33.45" x2="22.15" y2="39.01"/>
        <line style="fill:none;stroke:#414042;stroke-linecap:round;stroke-linejoin:round;" x1="22.15" y1="41.01" x2="22.15" y2="46.57"/>
        <g>
          <line style="fill:none;stroke:#414042;stroke-linecap:round;stroke-linejoin:round;" x1="23.05" y1="40" x2="28.02" y2="40"/>
          <line style="fill:none;stroke:#414042;stroke-linecap:round;stroke-linejoin:round;" x1="23.05" y1="47.11" x2="28.02" y2="47.11"/>
          <line style="fill:none;stroke:#414042;stroke-linecap:round;stroke-linejoin:round;" x1="23.05" y1="32.89" x2="28.02" y2="32.89"/>
        </g>
      </g>
      <g>
        <line style="fill:none;stroke:#414042;stroke-linecap:round;stroke-linejoin:round;" x1="17.62" y1="33.45" x2="17.62" y2="39.01"/>
        <line style="fill:none;stroke:#414042;stroke-linecap:round;stroke-linejoin:round;" x1="17.62" y1="41.01" x2="17.62" y2="46.57"/>
      </g>
      <g>
        <line style="fill:none;stroke:#414042;stroke-linecap:round;stroke-linejoin:round;" x1="59.02" y1="33.45" x2="59.02" y2="39.01"/>
        <line style="fill:none;stroke:#414042;stroke-linecap:round;stroke-linejoin:round;" x1="59.02" y1="41.01" x2="59.02" y2="46.57"/>
        <line style="fill:none;stroke:#414042;stroke-linecap:round;stroke-linejoin:round;" x1="52.21" y1="33.45" x2="52.21" y2="39.01"/>
        <line style="fill:none;stroke:#414042;stroke-linecap:round;stroke-linejoin:round;" x1="52.21" y1="41.01" x2="52.21" y2="46.57"/>
        <g>
          <line style="fill:none;stroke:#414042;stroke-linecap:round;stroke-linejoin:round;" x1="53.12" y1="40" x2="58.08" y2="40"/>
          <line style="fill:none;stroke:#414042;stroke-linecap:round;stroke-linejoin:round;" x1="53.12" y1="47.11" x2="58.08" y2="47.11"/>
          <line style="fill:none;stroke:#414042;stroke-linecap:round;stroke-linejoin:round;" x1="53.12" y1="32.89" x2="58.08" y2="32.89"/>
        </g>
      </g>
    </g>
  </g>
</svg>
