<svg id="b98bfdc3-6c35-45fc-9eb4-66c8eae6c64e" data-name="Layer 1" xmlns="http://www.w3.org/2000/svg" viewBox="0 0 80 80">
  <title>27</title>
  <g>
    <g>
      <path style="fill:#fadc0f;" d="M79,54.83l-2.68,5.7A71.42,71.42,0,0,0,58.22,54.8V53.28l-1.94,1.21A75.66,75.66,0,0,0,18.4,59.06h0l-5.12-7.45,6.82-5.56,1.18.32v-.86l1.07-.23V44.23L71,4.7l4,4.89L62.41,19.78l-1.22-1.52.28,2.29L25.16,50.11A77.57,77.57,0,0,1,79,54.83Z"/>
      <polygon style="fill:#fff;" points="18.79 59.63 14.93 62.29 14.33 61.42 9.31 64.88 5.17 66.45 1.14 60.6 4.07 57.29 9.1 53.82 8.5 52.96 12.36 50.3 13.27 51.61 18.39 59.06 18.4 59.06 18.79 59.63"/>
    </g>
    <g>
      <g>
        <path style="fill:none;stroke:#414042;stroke-linecap:round;stroke-linejoin:round;" d="M18.4,59.06a75.63,75.63,0,0,1,37.88-4.57"/>
        <path style="fill:none;stroke:#414042;stroke-linecap:round;stroke-linejoin:round;" d="M58.22,54.8a71.61,71.61,0,0,1,18.07,5.73L79,54.83A77.55,77.55,0,0,0,25.17,50.1l36.3-29.55"/>
        <polyline style="fill:none;stroke:#414042;stroke-linecap:round;stroke-linejoin:round;" points="22.34 44.23 70.95 4.7 74.93 9.59 62.41 19.78"/>
        <line style="fill:none;stroke:#414042;stroke-linecap:round;stroke-linejoin:round;" x1="20.1" y1="46.05" x2="13.27" y2="51.61"/>
      </g>
      <rect style="fill:none;stroke:#414042;stroke-linecap:round;stroke-linejoin:round;" x="7.98" y="53.95" width="11.33" height="4.68" transform="translate(52.25 13.11) rotate(55.43)"/>
      <polyline style="fill:none;stroke:#414042;stroke-linecap:round;stroke-linejoin:round;" points="14.34 61.42 9.31 64.88 4.08 57.29 9.1 53.82"/>
      <polygon style="fill:none;stroke:#414042;stroke-linecap:round;stroke-linejoin:round;" points="5.18 66.44 1.15 60.59 4.08 57.29 9.31 64.88 5.18 66.44"/>
      <polyline style="fill:none;stroke:#414042;stroke-linecap:round;stroke-linejoin:round;" points="22.34 44.23 22.34 45.27 21.27 45.51 21.27 46.36 20.1 46.05"/>
      <polyline style="fill:none;stroke:#414042;stroke-linecap:round;stroke-linejoin:round;" points="56.28 54.49 58.23 53.28 58.23 54.8"/>
      <polyline style="fill:none;stroke:#414042;stroke-linecap:round;stroke-linejoin:round;" points="62.41 19.78 61.2 18.26 61.47 20.55"/>
      <line style="fill:none;stroke:#414042;stroke-linecap:round;stroke-linejoin:round;" x1="24.32" y1="42.62" x2="25.68" y2="45.06"/>
      <line style="fill:none;stroke:#414042;stroke-linecap:round;stroke-linejoin:round;" x1="25.51" y1="41.65" x2="26.46" y2="43.41"/>
      <line style="fill:none;stroke:#414042;stroke-linecap:round;stroke-linejoin:round;" x1="64.54" y1="18.05" x2="63.79" y2="16.51"/>
      <line style="fill:none;stroke:#414042;stroke-linecap:round;stroke-linejoin:round;" x1="46.11" y1="53.76" x2="46.5" y2="51.73"/>
      <line style="fill:none;stroke:#414042;stroke-linecap:round;stroke-linejoin:round;" x1="54.28" y1="54.23" x2="55.22" y2="52.26"/>
      <line style="fill:none;stroke:#414042;stroke-linecap:round;stroke-linejoin:round;" x1="52.41" y1="54.04" x2="53" y2="52.75"/>
      <line style="fill:none;stroke:#414042;stroke-linecap:round;stroke-linejoin:round;" x1="43.8" y1="29.36" x2="44.6" y2="32.32"/>
      <line style="fill:none;stroke:#414042;stroke-linecap:round;stroke-linejoin:round;" x1="42.15" y1="30.84" x2="42.67" y2="32.79"/>
    </g>
  </g>
</svg>
