<svg id="f05087c6-eea6-4667-8a43-47f25a09c36e" data-name="Layer 1" xmlns="http://www.w3.org/2000/svg" viewBox="0 0 80 80">
  <title>28</title>
  <g>
    <g>
      <g>
        <path style="fill:#fff;" d="M41.1,22.71v7.16a1.2,1.2,0,0,1-1.2,1.19H11.37a1.19,1.19,0,0,1-1.19-1.19V22.71a1.19,1.19,0,0,1,1.19-1.19H15.5v3.31H35.05V21.52H39.9A1.2,1.2,0,0,1,41.1,22.71Z"/>
        <rect style="fill:#fff;" x="15.5" y="0.6" width="19.55" height="24.23"/>
        <path style="fill:#fff;" d="M18.15,31.06l.66,10.39a1,1,0,0,0,1.05,1H31.44a1.07,1.07,0,0,0,1.06-1l.66-10.39Zm10.19,8.13H23V34.32h5.38Z"/>
        <path style="fill:#fff;" d="M36.05,71.68h0V79.4H15.23V71.69L10.18,61V46.91a.88.88,0,0,1,.89-.88H15l1.18,7.49H35.1L36.27,46h3.94a.88.88,0,0,1,.89.88V61Z"/>
        <polygon style="fill:#fff;" points="36.27 46.02 35.1 53.52 16.18 53.52 15 46.02 36.27 46.02"/>
      </g>
      <path style="fill:#fff;" d="M78.82,28.49V42.12S79,51.89,66.44,59C53.93,51.89,54.05,42.12,54.05,42.12V28.49l12.39-2.6Z"/>
      <polygon style="fill:#fadc0f;" points="75.27 35.59 67.03 43.85 64.9 45.97 62.72 43.79 59.13 40.19 61.26 38.07 64.84 41.66 73.09 33.4 75.27 35.59"/>
    </g>
    <g>
      <line style="fill:none;stroke:#414042;stroke-linecap:round;stroke-linejoin:round;" x1="1.91" y1="36.75" x2="5.18" y2="38.3"/>
      <line style="fill:none;stroke:#414042;stroke-linecap:round;stroke-linejoin:round;" x1="1.91" y1="50.6" x2="5.18" y2="49.19"/>
      <line style="fill:none;stroke:#414042;stroke-linecap:round;stroke-linejoin:round;" x1="1.91" y1="43.57" x2="5.18" y2="43.57"/>
      <line style="fill:none;stroke:#414042;stroke-linecap:round;stroke-linejoin:round;" x1="47.84" y1="36.53" x2="44.57" y2="38.08"/>
      <line style="fill:none;stroke:#414042;stroke-linecap:round;stroke-linejoin:round;" x1="47.84" y1="50.38" x2="44.57" y2="48.97"/>
      <line style="fill:none;stroke:#414042;stroke-linecap:round;stroke-linejoin:round;" x1="47.84" y1="43.35" x2="44.57" y2="43.35"/>
      <g>
        <polyline style="fill:none;stroke:#414042;stroke-linecap:round;stroke-linejoin:round;" points="35.05 0.6 35.05 24.82 15.5 24.82 15.5 0.6"/>
        <path style="fill:none;stroke:#414042;stroke-linecap:round;stroke-linejoin:round;" d="M35.15,21.52h4.76a1.19,1.19,0,0,1,1.19,1.2v7.15a1.19,1.19,0,0,1-1.19,1.19H11.37a1.19,1.19,0,0,1-1.19-1.19V22.72a1.19,1.19,0,0,1,1.19-1.2h4"/>
        <path style="fill:none;stroke:#414042;stroke-linecap:round;stroke-linejoin:round;" d="M31.44,42.44H19.86a1.05,1.05,0,0,1-1.05-1l-.66-10.39h15l-.66,10.39A1,1,0,0,1,31.44,42.44Z"/>
        <rect style="fill:none;stroke:#414042;stroke-linecap:round;stroke-linejoin:round;" x="22.96" y="34.32" width="5.38" height="4.86"/>
        <path style="fill:none;stroke:#414042;stroke-linecap:round;stroke-linejoin:round;" d="M11.07,46H40.21a.89.89,0,0,1,.89.89V61a0,0,0,0,1,0,0H10.18a0,0,0,0,1,0,0V46.91A.89.89,0,0,1,11.07,46Z"/>
        <polygon style="fill:none;stroke:#414042;stroke-linecap:round;stroke-linejoin:round;" points="36.05 71.69 15.22 71.69 10.18 61.02 41.1 61.02 36.05 71.69"/>
        <polygon style="fill:none;stroke:#414042;stroke-linecap:round;stroke-linejoin:round;" points="35.1 53.52 16.18 53.52 15.01 46.02 36.27 46.02 35.1 53.52"/>
        <line style="fill:none;stroke:#414042;stroke-linecap:round;stroke-linejoin:round;" x1="15.22" y1="71.69" x2="15.22" y2="79.4"/>
        <line style="fill:none;stroke:#414042;stroke-linecap:round;stroke-linejoin:round;" x1="36.06" y1="71.69" x2="36.06" y2="79.4"/>
      </g>
      <g>
        <path style="fill:none;stroke:#414042;stroke-linecap:round;stroke-linejoin:round;" d="M66.44,25.89l-12.39,2.6V42.12S53.92,51.89,66.44,59"/>
        <path style="fill:none;stroke:#414042;stroke-linecap:round;stroke-linejoin:round;" d="M66.44,25.89l12.38,2.6V42.12S79,51.89,66.44,59"/>
      </g>
      <polygon style="fill:none;stroke:#414042;stroke-linecap:round;stroke-linejoin:round;" points="75.27 35.59 67.03 43.85 64.9 45.97 62.72 43.79 59.13 40.19 61.26 38.07 64.84 41.66 73.09 33.4 75.27 35.59"/>
    </g>
  </g>
</svg>
