<svg id="eccb8b57-31f7-4d4d-8517-f14195de107f" data-name="Layer 1" xmlns="http://www.w3.org/2000/svg" viewBox="0 0 80 80">
  <title>29</title>
  <g>
    <g>
      <g>
        <g>
          <line style="fill:#fff;" x1="26.21" y1="47" x2="25.9" y2="49.88"/>
          <path style="fill:#fff;" d="M60.5,49.73a61.31,61.31,0,0,0-30.4.49l26-21.2,0,.09a42.55,42.55,0,0,1,4.16,14.56Z"/>
          <line style="fill:#fff;" x1="60.55" y1="51.41" x2="60.5" y2="49.73"/>
          <path style="fill:#fff;" d="M52.85,25.3,26.21,47l.35-3.33a42.57,42.57,0,0,1,4.62-15.48,7,7,0,0,1,6.25-3.77h2.62V19.71a8.83,8.83,0,0,1-4.49-7.85c0-4.8,3.53-8.68,7.89-8.68s7.88,3.88,7.88,8.68a8.82,8.82,0,0,1-4.48,7.85v4.71h2.62a7.12,7.12,0,0,1,3.29.81Z"/>
          <line style="fill:#fff;" x1="54.13" y1="26.37" x2="52.85" y2="25.3"/>
        </g>
        <path style="fill:#fff;" d="M60.55,54.88v2.95s-1.14,10.76-5.07,18.11l-7.82-.47S48.9,71,49.81,66.59a9.89,9.89,0,0,0-.05-3.72,6.44,6.44,0,0,0-12.61-.06,9.25,9.25,0,0,0-.06,3.78c.91,4.37,2.15,8.88,2.15,8.88l-7.82.47c-3.94-7.35-5.08-18.11-5.08-18.11l-.2-1.09A58.25,58.25,0,0,1,60.55,54.88Z"/>
        <path style="fill:#fadc0f;" d="M72.44,53.94l-2.1,4.48a55.51,55.51,0,0,0-9.79-3.54,58.25,58.25,0,0,0-34.41,1.86,52.42,52.42,0,0,0-9.44,4.39l-.36.3a2.47,2.47,0,0,1-3.12-3.84h0L26.21,47,52.85,25.3,66.14,14.49l3.13,3.84L56.14,29l-26,21.2a61.31,61.31,0,0,1,30.4-.49A62.4,62.4,0,0,1,72.44,53.94Z"/>
      </g>
      <polygon style="fill:#fadc0f;" points="76.21 14.55 74.8 12.97 71.17 16.21 68.4 13.1 72.03 9.87 70.68 8.36 78.81 6.67 76.21 14.55"/>
      <polygon style="fill:#fadc0f;" points="4.28 63.09 5.69 64.68 9.32 61.44 12.09 64.55 8.46 67.78 9.81 69.29 1.68 70.98 4.28 63.09"/>
    </g>
    <g>
      <path style="fill:none;stroke:#414042;stroke-linecap:round;stroke-linejoin:round;" d="M40.05,19.7a8.8,8.8,0,0,1-4.49-7.84c0-4.8,3.53-8.68,7.89-8.68s7.88,3.88,7.88,8.68a8.79,8.79,0,0,1-4.48,7.84"/>
      <g>
        <path style="fill:none;stroke:#414042;stroke-linecap:round;stroke-linejoin:round;" d="M40.05,19.7v4.72H37.43a7,7,0,0,0-6.25,3.77,42.81,42.81,0,0,0-4.63,15.48"/>
        <path style="fill:none;stroke:#414042;stroke-linecap:round;stroke-linejoin:round;" d="M56.18,29.11a42.55,42.55,0,0,1,4.16,14.56"/>
        <path style="fill:none;stroke:#414042;stroke-linecap:round;stroke-linejoin:round;" d="M46.85,19.7v4.72h2.62a7.09,7.09,0,0,1,3.29.81"/>
      </g>
      <path style="fill:none;stroke:#414042;stroke-linecap:round;stroke-linejoin:round;" d="M26.34,57.83s1.14,10.76,5.08,18.11"/>
      <path style="fill:none;stroke:#414042;stroke-linecap:round;stroke-linejoin:round;" d="M60.55,57.83s-1.13,10.76-5.07,18.11"/>
      <path style="fill:none;stroke:#414042;stroke-linecap:round;stroke-linejoin:round;" d="M14.79,62a2.48,2.48,0,0,1-1.57-4.4h0l52.92-43.1,3.13,3.85L30.11,50.22a61,61,0,0,1,42.34,3.71l-2.11,4.49c-27.7-13-52,1.7-53.64,2.72l-.36.29A2.47,2.47,0,0,1,14.79,62Z"/>
      <path style="fill:none;stroke:#414042;stroke-linecap:round;stroke-linejoin:round;" d="M47.66,75.47S48.9,71,49.8,66.59a9.26,9.26,0,0,0,0-3.71,6.44,6.44,0,0,0-12.61-.06,9.19,9.19,0,0,0-.06,3.77c.91,4.37,2.15,8.88,2.15,8.88"/>
      <polygon style="fill:none;stroke:#414042;stroke-linecap:round;stroke-linejoin:round;" points="71.17 16.21 74.8 12.97 76.21 14.55 78.81 6.67 70.68 8.36 72.03 9.87 68.4 13.1 71.17 16.21"/>
      <polygon style="fill:none;stroke:#414042;stroke-linecap:round;stroke-linejoin:round;" points="9.32 61.44 5.69 64.68 4.27 63.09 1.68 70.98 9.81 69.29 8.46 67.78 12.09 64.55 9.32 61.44"/>
    </g>
  </g>
</svg>
