<svg id="b0c5506a-4642-470d-8b52-54cb391d261a" data-name="Layer 1" xmlns="http://www.w3.org/2000/svg" viewBox="0 0 80 80">
  <title>30</title>
  <g>
    <g>
      <path style="fill:#fff;" d="M72.32,69.09v6.59a3.76,3.76,0,0,1-3.77,3.76H11.44a3.76,3.76,0,0,1-3.76-3.76V69.09a3.76,3.76,0,0,1,3.76-3.76h-.59l4.62-35.25a9.36,9.36,0,0,1,9.29-8.15h7.3V16.17H28a2.36,2.36,0,0,1-2.36-2.36V2.93A2.37,2.37,0,0,1,28,.56H52A2.37,2.37,0,0,1,54.4,2.93V13.81A2.36,2.36,0,0,1,52,16.17H48v5.76h7.28a9.36,9.36,0,0,1,9.3,8.15l4.61,35.25h-.59A3.76,3.76,0,0,1,72.32,69.09Z"/>
      <path style="fill:#fadc0f;" d="M60.39,30.12v5.17H53.05V30.12H50.74v5.74l2.31,2.71.55.64L54.46,43h4.46l.93-3.78.54-.62,2.32-2.73V30.12Zm-2.5,11.21H55.56V38.64h2.33Z"/>
    </g>
    <g>
      <rect style="fill:none;stroke:#414042;stroke-linecap:round;stroke-linejoin:round;" x="25.6" y="0.56" width="28.8" height="15.62" rx="2.37"/>
      <polyline style="fill:none;stroke:#414042;stroke-linecap:round;stroke-linejoin:round;" points="32.05 21.86 32.05 16.18 47.95 16.18 47.95 21.84"/>
      <path style="fill:none;stroke:#414042;stroke-linecap:round;stroke-linejoin:round;" d="M55.23,21.92H24.77a9.38,9.38,0,0,0-9.3,8.16L10.86,65.33H69.14L64.53,30.08A9.38,9.38,0,0,0,55.23,21.92Z"/>
      <rect style="fill:none;stroke:#414042;stroke-linecap:round;stroke-linejoin:round;" x="7.68" y="65.33" width="64.64" height="14.11" rx="3.76"/>
      <g>
        <line style="fill:none;stroke:#414042;stroke-linecap:round;stroke-linejoin:round;" x1="53.06" y1="65.33" x2="53.06" y2="38.57"/>
        <line style="fill:none;stroke:#414042;stroke-linecap:round;stroke-linejoin:round;" x1="60.39" y1="38.57" x2="60.39" y2="65.33"/>
        <line style="fill:none;stroke:#414042;stroke-linecap:round;stroke-linejoin:round;" x1="60.39" y1="23.47" x2="60.39" y2="35.29"/>
        <line style="fill:none;stroke:#414042;stroke-linecap:round;stroke-linejoin:round;" x1="53.06" y1="35.29" x2="53.06" y2="21.92"/>
        <line style="fill:none;stroke:#414042;stroke-linecap:round;stroke-linejoin:round;" x1="53.06" y1="33.25" x2="60.39" y2="33.25"/>
        <line style="fill:none;stroke:#414042;stroke-linecap:round;stroke-linejoin:round;" x1="53.06" y1="35.29" x2="60.39" y2="35.29"/>
        <polyline style="fill:none;stroke:#414042;stroke-linecap:round;stroke-linejoin:round;" points="53.06 30.12 50.73 30.12 50.73 35.85 53.6 39.21 54.47 42.99 56.72 42.99 58.92 42.99 59.84 39.21 62.71 35.85 62.71 30.12 60.39 30.12"/>
        <rect style="fill:none;stroke:#414042;stroke-linecap:round;stroke-linejoin:round;" x="55.56" y="38.64" width="2.33" height="2.7"/>
      </g>
    </g>
  </g>
</svg>
