<svg id="b5cdc11b-402c-42de-a268-bd385c807acd" data-name="Layer 1" xmlns="http://www.w3.org/2000/svg" viewBox="0 0 80 80">
  <title>32</title>
  <g>
    <g>
      <g>
        <path style="fill:#fff;" d="M52.12,18.7v9.85H48.21V22.19a37.47,37.47,0,0,0-17.43,0v6.36H26.87V18.7A37,37,0,0,1,52.12,18.7Z"/>
        <path style="fill:#fadc0f;" d="M51.75,12.19h0s-1-.19-2.18-.56V9.55A5.23,5.23,0,0,1,51.75,12.19Z"/>
        <path style="fill:#fff;" d="M52.12,14.12V18.7a37,37,0,0,0-25.25,0V14.12a5.56,5.56,0,0,1,.35-1.93h0c.14,0,1-.21,2.1-.53,1.94-.58,4.51-1.59,4.51-2.9H45.1c0,1.29,2.52,2.3,4.45,2.88,1.2.37,2.18.56,2.18.56h0A5.18,5.18,0,0,1,52.12,14.12Z"/>
        <path style="fill:#fff;" d="M33.85,8.75c0,1.31-2.57,2.32-4.51,2.9V9.6a5.33,5.33,0,0,1,2.9-.85Z"/>
        <path style="fill:#fff;" d="M29.34,9.6v2.05c-1.08.32-2,.51-2.1.53A5.27,5.27,0,0,1,29.34,9.6Z"/>
        <path style="fill:#fff;" d="M48.21,28.55h3.91v3.93H26.87V28.55h3.91V22.19a37.47,37.47,0,0,1,17.43,0Z"/>
        <path style="fill:#fff;" d="M49.55,9.55v2.08C47.62,11.05,45.1,10,45.1,8.75h1.65A5.23,5.23,0,0,1,49.55,9.55Z"/>
        <rect style="fill:#fff;" x="25.9" y="35.07" width="27.19" height="44.31"/>
        <rect style="fill:#fff;" x="28.78" y="32.48" width="21.42" height="2.59"/>
        <path style="fill:#fadc0f;" d="M59.83,8.19a7.59,7.59,0,0,1-7.59,7.6h-.06c0-.54,0-1.19-.07-2A5.66,5.66,0,0,0,48,8.89a10.94,10.94,0,0,0-3.34-.21c0-.17,0-.32,0-.49a7.6,7.6,0,1,1,15.19,0Z"/>
      </g>
      <g>
        <path style="fill:none;stroke:#414042;stroke-linecap:round;stroke-linejoin:round;" d="M32.24,8.75h14.5a5.37,5.37,0,0,1,5.37,5.37V32.48a0,0,0,0,1,0,0H26.87a0,0,0,0,1,0,0V14.12A5.37,5.37,0,0,1,32.24,8.75Z"/>
        <path style="fill:none;stroke:#414042;stroke-linecap:round;stroke-linejoin:round;" d="M27.22,12.19s6.63-1.34,6.63-3.44"/>
        <path style="fill:none;stroke:#414042;stroke-linecap:round;stroke-linejoin:round;" d="M51.73,12.19S45.1,10.85,45.1,8.75"/>
        <line style="fill:none;stroke:#414042;stroke-linecap:round;stroke-linejoin:round;" x1="29.34" y1="9.6" x2="29.34" y2="11.65"/>
        <line style="fill:none;stroke:#414042;stroke-linecap:round;stroke-linejoin:round;" x1="49.56" y1="9.54" x2="49.56" y2="11.61"/>
        <path style="fill:none;stroke:#414042;stroke-linecap:round;stroke-linejoin:round;" d="M48.2,22.18a37.7,37.7,0,0,0-17.42,0L26.87,18.7a37,37,0,0,1,25.24,0Z"/>
        <polyline style="fill:none;stroke:#414042;stroke-linecap:round;stroke-linejoin:round;" points="48.2 22.18 48.2 28.55 52.11 28.55"/>
        <polyline style="fill:none;stroke:#414042;stroke-linecap:round;stroke-linejoin:round;" points="30.78 22.18 30.78 28.55 26.87 28.55"/>
        <rect style="fill:none;stroke:#414042;stroke-linecap:round;stroke-linejoin:round;" x="25.9" y="35.07" width="27.19" height="44.31"/>
        <rect style="fill:none;stroke:#414042;stroke-linecap:round;stroke-linejoin:round;" x="28.78" y="32.48" width="21.42" height="2.59"/>
        <g>
          <line style="fill:none;stroke:#414042;stroke-linecap:round;stroke-linejoin:round;" x1="27.35" y1="20.38" x2="24.98" y2="20.38"/>
          <line style="fill:none;stroke:#414042;stroke-linecap:round;stroke-linejoin:round;" x1="53.75" y1="20.38" x2="51.38" y2="20.38"/>
        </g>
        <line style="fill:none;stroke:#414042;stroke-linecap:round;stroke-linejoin:round;" x1="30.78" y1="41.69" x2="30.78" y2="73.91"/>
        <line style="fill:none;stroke:#414042;stroke-linecap:round;stroke-linejoin:round;" x1="36.32" y1="41.69" x2="36.32" y2="73.91"/>
        <line style="fill:none;stroke:#414042;stroke-linecap:round;stroke-linejoin:round;" x1="41.87" y1="41.69" x2="41.87" y2="73.91"/>
        <line style="fill:none;stroke:#414042;stroke-linecap:round;stroke-linejoin:round;" x1="47.41" y1="41.69" x2="47.41" y2="73.91"/>
        <line style="fill:none;stroke:#414042;stroke-linecap:round;stroke-linejoin:round;" x1="50.31" y1="7.32" x2="50.8" y2="5.27"/>
        <line style="fill:none;stroke:#414042;stroke-linecap:round;stroke-linejoin:round;" x1="52.24" y1="8.78" x2="53.66" y2="7.29"/>
        <line style="fill:none;stroke:#414042;stroke-linecap:round;stroke-linejoin:round;" x1="53.74" y1="10.91" x2="55.62" y2="9.97"/>
      </g>
    </g>
    <path style="fill:none;stroke:#414042;stroke-linecap:round;stroke-linejoin:round;stroke-width:0.5px;" d="M44.72,7a7.6,7.6,0,1,1,9.15,8.59"/>
  </g>
</svg>
