<svg id="afd945aa-9e31-49d3-b907-26ca5ab476ef" data-name="Layer 1" xmlns="http://www.w3.org/2000/svg" viewBox="0 0 80 80">
  <title>33</title>
  <g>
    <g>
      <path style="fill:#fff;" d="M78.55,43.15a2.19,2.19,0,0,1-1.66,1.45c-1.71.15-1.88-2.15-1.88-2.15l2.25-2.06.27-.47"/>
      <path style="fill:#fff;" d="M75.92,58.49a12.36,12.36,0,0,1-1.58.37c-1.14.19-3.21.36-5.74.51-1.69.1-3.58.19-5.56.25-6.87.29-14.73.46-18.27.52h-.11A4.93,4.93,0,0,1,39.9,57a9.53,9.53,0,0,1-.5-1.92h.39l10.35.21s2.16-2.79,4.32-2.79,20.82-.35,20.82-.35l1.53,1.68,2.43-.11c0,.8,0,1.29,0,1.29S79.69,57.34,75.92,58.49Z"/>
      <path style="fill:#fff;" d="M72.64,49.63s-12.15.64-15.11.47c-3.08-1.42-4.29-7.24-4.29-7.24s17.2-.73,20.61-.73A13,13,0,0,1,72.64,49.63Zm5.89-6.4a10.06,10.06,0,0,0-.48-1.79c-1.32-3.19-7.56-8.55-7.56-8.55S64.67,22.7,60.77,17.43c-9.11-3.78-49.14-2.23-56-1.15a5.81,5.81,0,0,0-1,1.75l24.4-.57a3.83,3.83,0,0,1,3.65,2.63c2.12,6.37,7.65,24.3,8,35l10.35.21s2.16-2.79,4.32-2.79,20.82-.35,20.82-.35l1.53,1.68,2.43-.11A68.7,68.7,0,0,0,78.53,43.23ZM40.08,40.48l9.69,2,1.57,2.59S41.62,46.58,40.08,40.48ZM37.25,33.6,32.58,19.37l26.73.43,7.91,13.42Z"/>
      <path style="fill:#fadc0f;" d="M28.16,17.46,3.76,18c-4,9.51-2.66,29.64-2.66,29.64L5,50.55s-1.06-8.3,1.37-8,3.69,8.92,3.69,8.92l3.38,1.19c4.75,1.65,13.32,4.58,17.9,5.69-.74-6.69.64-10.73,2.22-11.1s5.14,1.89,5.74,7.18c0,.24.06.47.1.69h.39c-.33-10.69-5.86-28.62-8-35A3.83,3.83,0,0,0,28.16,17.46ZM19.71,33.83,4.34,31.75l1-11.62H21.19Zm5.16.24L25.93,19.7a4.54,4.54,0,0,1,4.29,2s4.22,12.73,4.9,14.86C28.14,34.93,24.87,34.07,24.87,34.07Z"/>
      <polygon style="fill:#fff;" points="21.19 20.13 19.95 33.87 4.34 31.75 5.3 20.13 21.19 20.13"/>
      <polygon style="fill:#fff;" points="67.22 33.22 37.24 33.6 32.58 19.38 59.31 19.8 67.22 33.22"/>
      <path style="fill:#fff;" d="M35.12,36.53c-7-1.6-10.25-2.46-10.25-2.46L25.93,19.7a4.54,4.54,0,0,1,4.29,2S34.44,34.4,35.12,36.53Z"/>
      <path style="fill:#fff;" d="M51.34,45.07s-9.72,1.51-11.26-4.59l9.69,2Z"/>
      <path style="fill:#fff;" d="M72.64,49.63s-12.15.64-15.11.47c-3.08-1.42-4.29-7.24-4.29-7.24s17.2-.73,20.61-.73A13,13,0,0,1,72.64,49.63Z"/>
      <path style="fill:#fff;" d="M44.77,60.14l0,.25C44.2,63.11,43.11,65,41.85,65H34.67c-1.55,0-2.84-2.83-3.15-6.6l-.18-.06c-.74-6.69.64-10.73,2.22-11.1s5.14,1.89,5.74,7.18c0,.24.06.47.1.69A9.53,9.53,0,0,0,39.9,57a4.93,4.93,0,0,0,4.76,3.15Z"/>
      <path style="fill:#fff;" d="M75.92,58.5v.12c-.5,2.94-1.63,5-2.94,5H65.79c-1.14,0-2.14-1.54-2.71-3.86l0-.12c2-.07,3.87-.16,5.56-.26,2.53-.15,4.59-.31,5.74-.51A14.46,14.46,0,0,0,75.92,58.5Z"/>
      <path style="fill:#fff;" d="M13.44,52.61v0c-.4,2.31-1.3,3.92-2.34,3.92H7.71c-1.32,0-2.41-2.6-2.55-5.93L5,50.55s-1.06-8.3,1.37-8,3.69,8.92,3.69,8.92Z"/>
    </g>
    <g>
      <path style="fill:none;stroke:#414042;stroke-linecap:round;stroke-linejoin:round;" d="M32.79,19.92l4.46,11.9a3.58,3.58,0,0,0,3.5,2.32l26.16-1.06a.66.66,0,0,0,.53-1c-2.76-4.61-5.14-8.64-7.69-12.21C54,19.25,43.47,19.36,32.79,19.92Z"/>
      <path style="fill:none;stroke:#414042;stroke-linecap:round;stroke-linejoin:round;" d="M40.08,40.48l9.69,2,1.57,2.58S41.62,46.58,40.08,40.48Z"/>
      <path style="fill:none;stroke:#414042;stroke-linecap:round;stroke-linejoin:round;" d="M77.26,40.39,75,42.45s.17,2.3,1.88,2.15a2.19,2.19,0,0,0,1.66-1.45"/>
      <polygon style="fill:none;stroke:#414042;stroke-linecap:round;stroke-linejoin:round;" points="5.3 20.13 4.34 31.75 19.95 33.87 21.19 20.13 5.3 20.13"/>
      <path style="fill:none;stroke:#414042;stroke-linecap:round;stroke-linejoin:round;" d="M25.9,20.12l-1,14.33,10.26,2.08c-.68-2.12-4.9-14.85-4.9-14.85A4.83,4.83,0,0,0,25.9,20.12Z"/>
      <path style="fill:none;stroke:#414042;stroke-linecap:round;stroke-linejoin:round;" d="M1.1,47.67S-.85,25.75,4.25,17.15a2,2,0,0,1,1.51-1c9-1.07,46.25-2.36,55,1.27,3.92,5.27,9.72,15.46,9.72,15.46s6.24,5.37,7.56,8.55S79.25,55,79.25,55s.56,2.94-4.91,3.85c-4.61.76-23.83,1.17-29.74,1.28a4.86,4.86,0,0,1-4.66-3,10.79,10.79,0,0,1-.64-2.72c-.61-5.3-4.09-7.58-5.74-7.19s-3,4.42-2.22,11.1c-6.55-1.59-21.28-6.88-21.28-6.88s-1.27-8.67-3.7-8.92S5,50.56,5,50.56Z"/>
      <path style="fill:none;stroke:#414042;stroke-linecap:round;stroke-linejoin:round;" d="M53.24,42.86s1.21,5.82,4.28,7.24c3,.17,15.12-.47,15.12-.47a13,13,0,0,0,1.21-7.49C70.45,42.14,53.24,42.86,53.24,42.86Z"/>
      <path style="fill:none;stroke:#414042;stroke-linecap:round;stroke-linejoin:round;" d="M39.4,55.07l10.73.23s2.16-2.8,4.32-2.8,20.82-.34,20.82-.34l1.53,1.68,2.45-.11"/>
      <g>
        <path style="fill:none;stroke:#414042;stroke-linecap:round;stroke-linejoin:round;" d="M10.18,51.62c-.28,2.85-1.28,5-2.47,5-1.41,0-2.56-3-2.56-6.61"/>
        <path style="fill:none;stroke:#414042;stroke-linecap:round;stroke-linejoin:round;" d="M5.15,50c0-3.33,1-6.09,2.2-6.54"/>
        <path style="fill:none;stroke:#414042;stroke-linecap:round;stroke-linejoin:round;" d="M13.43,52.67c-.4,2.3-1.3,3.91-2.34,3.91"/>
        <line style="fill:none;stroke:#414042;stroke-linecap:round;stroke-linejoin:round;" x1="7.71" y1="56.58" x2="11.09" y2="56.58"/>
      </g>
      <ellipse style="fill:none;stroke:#414042;stroke-linecap:round;stroke-linejoin:round;" cx="34.67" cy="56.66" rx="3.21" ry="8.31"/>
      <path style="fill:none;stroke:#414042;stroke-linecap:round;stroke-linejoin:round;" d="M44.72,60.39C44.19,63.11,43.11,65,41.85,65"/>
      <line style="fill:none;stroke:#414042;stroke-linecap:round;stroke-linejoin:round;" x1="34.67" y1="64.97" x2="41.85" y2="64.97"/>
      <path style="fill:none;stroke:#414042;stroke-linecap:round;stroke-linejoin:round;" d="M68.6,59.37C68,61.9,67,63.61,65.79,63.61s-2.14-1.54-2.71-3.86"/>
      <path style="fill:none;stroke:#414042;stroke-linecap:round;stroke-linejoin:round;" d="M75.92,58.62c-.5,2.94-1.63,5-3,5"/>
      <line style="fill:none;stroke:#414042;stroke-linecap:round;stroke-linejoin:round;" x1="65.79" y1="63.61" x2="72.97" y2="63.61"/>
      <path style="fill:none;stroke:#414042;stroke-linecap:round;stroke-linejoin:round;" d="M23.56,20.09,21.69,45.72A3.8,3.8,0,0,0,22,47.45a17.29,17.29,0,0,1,1.15,8.43"/>
    </g>
  </g>
</svg>
