<svg id="a485ee7d-f55f-4ff5-a691-2b8fb38b62e5" data-name="Layer 1" xmlns="http://www.w3.org/2000/svg" viewBox="0 0 80 80">
  <title>34</title>
  <g>
    <g>
      <path style="fill: #fff;" d="M57.35,54.53l-.32-3h3.65a10.56,10.56,0,0,1,1.25,2.72ZM61,49.79s-1-3.26-2.65-4.1V44.38l19.35-.56v1.41a11.86,11.86,0,0,0-2.06,4.05C74.23,49.28,61,49.79,61,49.79ZM42.18,52.48a.34.34,0,0,0,0,.1,3.68,3.68,0,0,1,3.22-3A3.57,3.57,0,0,0,42.18,52.48Zm9.54-23.1c.26,1.53,1,5.85,1.14,8.61A68.53,68.53,0,0,0,51.72,29.38ZM79.08,53.59h-3a5.94,5.94,0,0,1,.52-3h2.33c-.21-4.45-.43-9.41-.43-11.34a79.94,79.94,0,0,0-3.57-12.88,8.84,8.84,0,0,0-2-3.32,5.84,5.84,0,0,0-.54-.49C71,21.45,63,21.06,55,21.06h-2.8c.65,4.31,4.2,28,4.53,35.73l.47,0,22.05-.9C79.17,55.23,79.13,54.43,79.08,53.59Zm-23.2-16s-.71-4.81-1.2-9.16c5.77-.09,15.52.33,18.31.43,1,1.58,3.08,8.6,3.08,8.6Z"/>
      <path style="fill: #fadc0f;" d="M46.15,38.35H45l-.7-9,7.34-.57s0,.2.1.55A68.53,68.53,0,0,1,52.86,38,64.07,64.07,0,0,1,46.15,38.35Zm6-17.28c-6,.05-11.95.26-14.59.55-1,3.26-.41,16.4-.3,23.91.06,3.2.12,5.39.12,5.39H26.46A8.07,8.07,0,0,1,27,53.24a.1.1,0,0,0,0,0A32.19,32.19,0,0,1,27.15,58l3.22.17,11.49.6S42,55,42.12,53a2.87,2.87,0,0,1,.05-.41.34.34,0,0,1,0-.1,3.57,3.57,0,0,1,3.21-2.87l.32,0h.79c2.4,0,3.17,3.87,3.4,6.77,1.35.19,5.4.39,6.78.45C56.35,49.08,52.8,25.38,52.15,21.07Z"/>
      <path style="fill: #fff;" d="M76.07,37.49l-20.19.13s-.71-4.81-1.2-9.16c5.77-.09,15.53.33,18.31.43C74,30.47,76.07,37.49,76.07,37.49Z"/>
      <path style="fill: #fff;" d="M79.09,53.59h-3a5.93,5.93,0,0,1,.51-3h2.33C79,51.66,79,52.66,79.09,53.59Z"/>
      <path style="fill: #fadc0f;" d="M56.88,60h-.29l-2.9-.23-3.7-.3a30,30,0,0,0-.09-3.13c1.35.19,5.4.39,6.78.45Z"/>
      <path style="fill: #fff;" d="M79.36,58.94l-7.67.37-8.88.41L56.88,60l-.2-3.2.47,0,22.05-.9C79.3,57.75,79.36,58.94,79.36,58.94Z"/>
      <path style="fill: #fff;" d="M61.93,54.26l-4.58.27-.32-3h3.65A10.56,10.56,0,0,1,61.93,54.26Z"/>
      <path style="fill: #fff;" d="M52.86,38c-2.24.25-5.13.33-6.71.36H45l-.7-9,7.34-.57s0,.2.1.55A68.53,68.53,0,0,1,52.86,38Z"/>
      <path style="fill: #fff;" d="M77.67,43.82v1.41a11.86,11.86,0,0,0-2.06,4.05c-1.38,0-14.64.51-14.64.51s-1-3.26-2.65-4.1V44.38Z"/>
      <path style="fill: #fff;" d="M55,21.06h-2.8c-6,.05-11.95.26-14.59.55-1,3.26-.41,16.4-.3,23.91l-5.9.11L1,46.24V24.35l30-7.71,23.69.57Z"/>
      <path style="fill: #fff;" d="M71.7,59.31v0C71,60.94,69.93,62,68.72,62h-3.1c-1.1,0-2.1-.87-2.77-2.23l0,0Z"/>
      <path style="fill: #fff;" d="M9.07,54v.08c-.14,2.55-1.35,4.54-2.83,4.54H3.85c-1.56,0-2.84-2.24-2.84-5A6,6,0,0,1,2.71,49l.14-.08c1.24,0,2.69,0,3.47,0C7.87,49.05,9,54,9,54Z"/>
      <path style="fill: #fadc0f;" d="M26.46,50.92A8.07,8.07,0,0,1,27,53.24c-.16-.45-1.47-4-3.75-3.86C20.81,49.5,20.59,53,20.59,54H9s-1.09-5-2.64-5.05c-.78,0-2.23,0-3.47,0L.63,49V46.24H1l30.35-.6,5.9-.11c.06,3.2.12,5.39.12,5.39Z"/>
      <path style="fill: #fff;" d="M30.37,58.13v0c-.57,1.82-1.65,3.06-2.9,3.06H24.71c-1.82,0-3.29-2.61-3.29-5.82A10.32,10.32,0,0,1,21.51,54l-.92,0c0-1,.22-4.51,2.67-4.63,2.28-.11,3.59,3.41,3.75,3.86a.1.1,0,0,0,0,0A32.19,32.19,0,0,1,27.15,58Z"/>
      <path style="fill: #fff;" d="M53.69,59.78l0,.12c-.61,2.06-1.84,3.45-3.25,3.45H47.32c-1.67,0-3.07-1.94-3.53-4.62H41.86S42,55,42.12,53a2.87,2.87,0,0,1,.05-.41.34.34,0,0,1,0-.1,3.57,3.57,0,0,1,3.21-2.87l.32,0h.79c2.4,0,3.17,3.87,3.4,6.77A30,30,0,0,1,50,59.48Z"/>
    </g>
    <g>
      <path style="fill: none; stroke: #414042; stroke-linecap: round; stroke-linejoin: round;" d="M76.08,37.49s-2.08-7-3.08-8.6c-2.79-.1-12.55-.51-18.32-.43.49,4.35,1.2,9.16,1.2,9.16Z"/>
      <path style="fill: none; stroke: #414042; stroke-linecap: round; stroke-linejoin: round;" d="M37.39,50.92s-.75-22.19,0-28.38c0-.46-.07-.86.39-.9,7.63-.67,32.17-1.09,34.6,1,.17.14.36.31.54.49a9,9,0,0,1,2,3.31A80.4,80.4,0,0,1,78.5,39.29c0,3.86.87,19.65.87,19.65L56.59,60,50,59.47s.35-9.88-3.49-9.88h-.86a3.55,3.55,0,0,0-3.45,2.81,5.42,5.42,0,0,0-.06.58c-.1,2-.26,5.75-.26,5.75L27.16,58s.24-5.07-.7-7H37.39"/>
      <path style="fill: none; stroke: #414042; stroke-linecap: round; stroke-linejoin: round;" d="M78.94,50.63H76.6a6,6,0,0,0-.52,3h3"/>
      <path style="fill: none; stroke: #414042; stroke-linecap: round; stroke-linejoin: round;" d="M61.93,54.26a10.93,10.93,0,0,0-1.25-2.72H57l.32,3Z"/>
      <path style="fill: none; stroke: #414042; stroke-linecap: round; stroke-linejoin: round;" d="M51.62,28.83A70.94,70.94,0,0,1,52.86,38a78.33,78.33,0,0,1-7.89.36l-.68-9Z"/>
      <path style="fill: none; stroke: #414042; stroke-linecap: round; stroke-linejoin: round;" d="M77.66,43.82v1.42a11.82,11.82,0,0,0-2,4c-1.37,0-14.64.51-14.64.51s-1-3.25-2.65-4.1V44.38Z"/>
      <path style="fill: none; stroke: #414042; stroke-linecap: round; stroke-linejoin: round;" d="M79.21,55.93l-22.06.89s-5.61-.24-7.25-.47"/>
      <polyline style="fill: none; stroke: #414042; stroke-linecap: round; stroke-linejoin: round;" points="54.95 21.07 54.68 17.22 30.99 16.64 1.02 24.36 1.02 46.24 37.27 45.54"/>
      <line style="fill: none; stroke: #414042; stroke-linecap: round; stroke-linejoin: round;" x1="30.99" y1="16.64" x2="31.37" y2="45.65"/>
      <g>
        <path style="fill: none; stroke: #414042; stroke-linecap: round; stroke-linejoin: round;" d="M48.11,50.43a2.4,2.4,0,0,0-.79-.15c-2,0-3.69,2.93-3.69,6.54s1.65,6.54,3.69,6.54c1.47,0,2.73-1.51,3.33-3.69"/>
        <path style="fill: none; stroke: #414042; stroke-linecap: round; stroke-linejoin: round;" d="M50.41,63.36c1.41,0,2.64-1.4,3.26-3.45"/>
        <line style="fill: none; stroke: #414042; stroke-linecap: round; stroke-linejoin: round;" x1="50.41" y1="63.36" x2="47.32" y2="63.36"/>
      </g>
      <g>
        <path style="fill: none; stroke: #414042; stroke-linecap: round; stroke-linejoin: round;" d="M24.28,49.65c-1.61.37-2.86,2.81-2.86,5.77,0,3.21,1.47,5.82,3.29,5.82,1.28,0,2.39-1.3,2.93-3.2"/>
        <path style="fill: none; stroke: #414042; stroke-linecap: round; stroke-linejoin: round;" d="M27.46,61.24c1.25,0,2.34-1.24,2.89-3.06"/>
        <line style="fill: none; stroke: #414042; stroke-linecap: round; stroke-linejoin: round;" x1="27.46" y1="61.24" x2="24.71" y2="61.24"/>
      </g>
      <g>
        <path style="fill: none; stroke: #414042; stroke-linecap: round; stroke-linejoin: round;" d="M2.71,49A6,6,0,0,0,1,53.62c0,2.77,1.27,5,2.83,5s2.84-2.25,2.84-5A6,6,0,0,0,5,49"/>
        <path style="fill: none; stroke: #414042; stroke-linecap: round; stroke-linejoin: round;" d="M6.23,58.64c1.48,0,2.69-2,2.83-4.54"/>
        <line style="fill: none; stroke: #414042; stroke-linecap: round; stroke-linejoin: round;" x1="6.23" y1="58.64" x2="3.85" y2="58.64"/>
      </g>
      <g>
        <path style="fill: none; stroke: #414042; stroke-linecap: round; stroke-linejoin: round;" d="M62.84,59.76c.68,1.36,1.67,2.23,2.78,2.23s2.22-1,2.9-2.49"/>
        <path style="fill: none; stroke: #414042; stroke-linecap: round; stroke-linejoin: round;" d="M68.71,62c1.22,0,2.3-1.05,3-2.66"/>
        <line style="fill: none; stroke: #414042; stroke-linecap: round; stroke-linejoin: round;" x1="68.71" y1="61.99" x2="65.62" y2="61.99"/>
      </g>
      <path style="fill: none; stroke: #414042; stroke-linecap: round; stroke-linejoin: round;" d="M27,53.27s-1.32-4-3.76-3.89S20.59,53,20.59,54H9s-1.09-5-2.64-5.05S.63,49,.63,49V46.24H1"/>
      <path style="fill: none; stroke: #414042; stroke-linecap: round; stroke-linejoin: round;" d="M40.36,30.17l.75,17.58a.61.61,0,0,0,.94.53,7.38,7.38,0,0,1,4.51-.82"/>
    </g>
  </g>
</svg>
