<svg id="b3150318-c82f-49fa-af50-f1bacb184fdd" data-name="Layer 1" xmlns="http://www.w3.org/2000/svg" viewBox="0 0 80 80">
  <title>35</title>
  <g>
    <g>
      <path style="fill: #fadc0f;" d="M56,55.85c0,.64,0,1.26,0,1.86,0,2.36-.07,4.44-.15,6.27s-.16,3.18-.26,4.44h0c0,.67-.11,1.28-.17,1.83a6.6,6.6,0,0,1-.5,1.94h0a7,7,0,0,1-5.42,4.2c-1.91.28-4.21.58-6.61.79-1.44.13-2.91.24-4.35.29-.8,0-1.6,0-2.38,0A7.61,7.61,0,0,1,28.81,72h0c-.07-.26-.13-.52-.18-.79-.16-1-.32-2-.47-3.06-.23-1.53-.43-3-.61-4.56q-.37-3-.63-5.94c-.15-1.62-.27-3.23-.38-4.82-.09-1.29-.16-2.57-.22-3.83-.08-1.46-.13-2.9-.18-4.31,0-.14,0-.27,0-.41s0-.54,0-.81c0-1.12-.05-2.21-.07-3.29,0-1.39,0-2.74,0-4.06s0-2.69,0-4c0-1.45.07-2.84.11-4.16s.11-2.56.17-3.73c0-.9.1-1.76.15-2.57s.09-1.38.13-2a8,8,0,0,1,.17-1.11,7.59,7.59,0,0,1,7.41-5.94H45.84a44.29,44.29,0,0,1,5.47,7.84h0q.95,1.71,1.86,3.6h0c.59,1.24,1.17,2.53,1.74,3.88,0,.21,0,.43,0,.64q.26,4,.44,7.53c.07,1.4.14,2.76.2,4.07s.11,2.8.16,4.12c0,1.64.09,3.2.13,4.69,0,1.32,0,2.59.06,3.8S56,54.87,56,55.85Z"/>
      <path style="fill: #fff;" d="M62.42,54.29A14.94,14.94,0,0,1,56,55.85c0-1,0-2,0-3.07s0-2.48-.06-3.8c0-1.49-.08-3-.13-4.69-.05-1.32-.1-2.7-.16-4.12s-.13-2.67-.2-4.07q-.18-3.57-.44-7.53c0-.21,0-.43,0-.64A132.22,132.22,0,0,1,62.42,54.29Z"/>
      <path style="fill: #fff;" d="M45.84,12.61H34.22a7.59,7.59,0,0,0-7.41,5.94,8,8,0,0,0-.17,1.11c0,.63-.09,1.3-.13,2s-.11,1.67-.15,2.57c-.06,1.17-.12,2.42-.17,3.73s-.08,2.71-.11,4.16c0,1.28,0,2.61,0,4s0,2.67,0,4.06c0,1.08,0,2.17.07,3.29H26S14.21,21.61,24.54,9.71a11.24,11.24,0,0,1,9-4C37.54,6,41.35,8,44.89,11.6,45.21,11.92,45.53,12.26,45.84,12.61Z"/>
      <path style="fill: #fff;" d="M78.67,2.47v71L64.5,68.13q-.86-7.27-2.08-13.84a132.22,132.22,0,0,0-7.49-26.36c-.57-1.35-1.15-2.64-1.74-3.88h0q-.91-1.89-1.86-3.6h0a44.29,44.29,0,0,0-5.47-7.84c-.31-.35-.63-.69-1-1C41.35,8,37.54,6,33.57,5.75a11.24,11.24,0,0,0-9,4C14.21,21.61,26,43.44,26,43.44h.08c0,.27,0,.54,0,.81s0,.27,0,.41A14.6,14.6,0,0,1,21,41.24l-15.42-16-.11-.12-4.13-4.5V2.47Z"/>
    </g>
    <g>
      <path style="fill: none; stroke: #414042; stroke-linecap: round; stroke-linejoin: round;" d="M45.93,12.61H34.22a7.6,7.6,0,0,0-7.58,7.05C25.9,30,25.18,50.3,28.64,71.2a7.6,7.6,0,0,0,7.48,6.33A96.86,96.86,0,0,0,49.46,76.4a7,7,0,0,0,5.92-6.16c.66-6.08,1.07-19.42-.45-42.31"/>
      <path style="fill: none; stroke: #414042; stroke-linecap: round; stroke-linejoin: round;" d="M26.81,18.55A9.22,9.22,0,0,1,31.59,16"/>
      <path style="fill: none; stroke: #414042; stroke-linecap: round; stroke-linejoin: round;" d="M26.51,21.67a6.94,6.94,0,0,1,5.08-2.06"/>
      <path style="fill: none; stroke: #414042; stroke-linecap: round; stroke-linejoin: round;" d="M26.36,24.24a8.33,8.33,0,0,1,5.23-1.45"/>
      <path style="fill: none; stroke: #414042; stroke-linecap: round; stroke-linejoin: round;" d="M26.19,28s1.33-1.72,5.4-1.44"/>
      <path style="fill: none; stroke: #414042; stroke-linecap: round; stroke-linejoin: round;" d="M26.08,32.13s.28-1.26,5.51-1.12"/>
      <path style="fill: none; stroke: #414042; stroke-linecap: round; stroke-linejoin: round;" d="M26,36.1s1.17-1.31,5.56-.75"/>
      <path style="fill: none; stroke: #414042; stroke-linecap: round; stroke-linejoin: round;" d="M26,40.17a16.36,16.36,0,0,1,5.56-.38"/>
      <path style="fill: none; stroke: #414042; stroke-linecap: round; stroke-linejoin: round;" d="M26.08,44.28a11.2,11.2,0,0,1,5.83.56"/>
      <path style="fill: none; stroke: #414042; stroke-linecap: round; stroke-linejoin: round;" d="M26.29,49a12.15,12.15,0,0,1,5.62,1"/>
      <path style="fill: none; stroke: #414042; stroke-linecap: round; stroke-linejoin: round;" d="M26.48,52.8s3.94.89,5.71,1.49"/>
      <path style="fill: none; stroke: #414042; stroke-linecap: round; stroke-linejoin: round;" d="M26.92,57.63s3.41,1.31,5.51,2"/>
      <path style="fill: none; stroke: #414042; stroke-linecap: round; stroke-linejoin: round;" d="M27.55,63.57a20.85,20.85,0,0,0,5.11,1.87"/>
      <path style="fill: none; stroke: #414042; stroke-linecap: round; stroke-linejoin: round;" d="M28.16,68.13a10.25,10.25,0,0,0,4.5,2.31"/>
      <path style="fill: none; stroke: #414042; stroke-linecap: round; stroke-linejoin: round;" d="M28.81,72a9,9,0,0,0,3.85,2.2"/>
      <path style="fill: none; stroke: #414042; stroke-linecap: round; stroke-linejoin: round;" d="M51.32,20.45a12.44,12.44,0,0,0-3.5-.86"/>
      <path style="fill: none; stroke: #414042; stroke-linecap: round; stroke-linejoin: round;" d="M53.18,24.05s-1-.75-4.12-1.14"/>
      <path style="fill: none; stroke: #414042; stroke-linecap: round; stroke-linejoin: round;" d="M55,28.57s-1.62-1.95-5.69-1.66"/>
      <path style="fill: none; stroke: #414042; stroke-linecap: round; stroke-linejoin: round;" d="M55.05,32.15s-.28-1.26-5.51-1.12"/>
      <path style="fill: none; stroke: #414042; stroke-linecap: round; stroke-linejoin: round;" d="M55.41,36.1a14.09,14.09,0,0,0-5.19-.75"/>
      <path style="fill: none; stroke: #414042; stroke-linecap: round; stroke-linejoin: round;" d="M55.61,40.17a14,14,0,0,0-5.25-.38"/>
      <path style="fill: none; stroke: #414042; stroke-linecap: round; stroke-linejoin: round;" d="M55.77,44.3a10.49,10.49,0,0,0-5.55.61"/>
      <path style="fill: none; stroke: #414042; stroke-linecap: round; stroke-linejoin: round;" d="M55.82,49a11.88,11.88,0,0,0-5.49,1"/>
      <path style="fill: none; stroke: #414042; stroke-linecap: round; stroke-linejoin: round;" d="M55.91,52.79s-3.85.87-5.62,1.48"/>
      <path style="fill: none; stroke: #414042; stroke-linecap: round; stroke-linejoin: round;" d="M55.91,57.73s-3.09,1.21-5.2,1.87"/>
      <path style="fill: none; stroke: #414042; stroke-linecap: round; stroke-linejoin: round;" d="M55.81,64a19.81,19.81,0,0,1-4.59,1.43"/>
      <path style="fill: none; stroke: #414042; stroke-linecap: round; stroke-linejoin: round;" d="M55.62,68.37a10.57,10.57,0,0,1-4.4,2"/>
      <path style="fill: none; stroke: #414042; stroke-linecap: round; stroke-linejoin: round;" d="M54.88,72.19a8.59,8.59,0,0,1-3.66,2"/>
      <path style="fill: #fff; stroke: #414042; stroke-linecap: round; stroke-linejoin: round;" d="M37.5,77.42a513.33,513.33,0,0,1-2.35-64.71l2-.06A516.62,516.62,0,0,0,39.5,77.38Z"/>
      <path style="fill: #fff; stroke: #414042; stroke-linecap: round; stroke-linejoin: round;" d="M43.84,77.1l-2,.11c0-15.3-2.82-64-2.85-64.55l2,0C41,13.19,43.84,61.74,43.84,77.1Z"/>
      <path style="fill: #fff; stroke: #414042; stroke-linecap: round; stroke-linejoin: round;" d="M48.1,76.57l-2,.11C47.47,49.55,43,13.1,42.92,12.73l2-.07C45,13,49.49,49.27,48.1,76.57Z"/>
      <path style="fill: none; stroke: #414042; stroke-linecap: round; stroke-linejoin: round;" d="M26,43.44S14.21,21.62,24.54,9.71a11.24,11.24,0,0,1,9-4C47.73,6.5,60,30.28,64.47,67.91l0,.22,14.17,5.34"/>
      <path style="fill: none; stroke: #414042; stroke-linecap: round; stroke-linejoin: round;" d="M1.64,11.11s4,4.65,3.93,14.15h0L21,41.24s2.59,2.69,5.16,3.43"/>
      <line style="fill: none; stroke: #414042; stroke-linecap: round; stroke-linejoin: round;" x1="4.8" y1="17.26" x2="17.97" y2="22.39"/>
      <line style="fill: none; stroke: #414042; stroke-linecap: round; stroke-linejoin: round;" x1="44.9" y1="11.6" x2="68.58" y2="11.6"/>
      <path style="fill: none; stroke: #414042; stroke-linecap: round; stroke-linejoin: round;" d="M56,55.85a14.93,14.93,0,0,0,6.47-1.56"/>
    </g>
  </g>
</svg>
