<svg id="b0c0d097-0201-4abf-9304-e3874de110a2" data-name="Layer 1" xmlns="http://www.w3.org/2000/svg" viewBox="0 0 80 80">
  <title>36</title>
  <g>
    <g>
      <g>
        <g>
          <path style="fill: #fadc0f;" d="M42.61,24A26.75,26.75,0,1,0,69.36,50.73,26.75,26.75,0,0,0,42.61,24Zm0,46.42A19.68,19.68,0,1,1,62.29,50.73,19.68,19.68,0,0,1,42.61,70.4Z"/>
          <path style="fill: #fff;" d="M42.61,31.05A19.68,19.68,0,1,0,62.29,50.73,19.68,19.68,0,0,0,42.61,31.05ZM26.76,56.88a17,17,0,0,1,0-12.31L34,49.41A8.7,8.7,0,0,0,34,52Zm2.6,4.49,7.82-3.88a8.63,8.63,0,0,0,2.28,1.33L40,67.53A17,17,0,0,1,29.36,61.37Zm10.1-18.73A8.43,8.43,0,0,0,37.19,44l-7.83-3.87A17,17,0,0,1,40,33.93Zm16.41-2.55L48,44a8.53,8.53,0,0,0-2.26-1.32l-.57-8.71A17,17,0,0,1,55.87,40.09ZM45.2,67.53l.57-8.71A8.74,8.74,0,0,0,48,57.49l7.83,3.88A17,17,0,0,1,45.2,67.53Zm6-15.49a8.7,8.7,0,0,0,0-2.63l7.27-4.84a17,17,0,0,1,0,12.31Z"/>
          <g>
            <circle style="fill: #fff;" cx="42.61" cy="50.73" r="4.45"/>
            <circle style="fill: #fadc0f; stroke: #fadc0f; stroke-miterlimit: 10;" cx="42.61" cy="44.02" r="0.85"/>
            <circle style="fill: #fadc0f; stroke: #fadc0f; stroke-miterlimit: 10;" cx="36.8" cy="47.37" r="0.85"/>
            <circle style="fill: #fadc0f; stroke: #fadc0f; stroke-miterlimit: 10;" cx="36.8" cy="54.08" r="0.85"/>
            <circle style="fill: #fadc0f; stroke: #fadc0f; stroke-miterlimit: 10;" cx="42.61" cy="57.44" r="0.85"/>
            <circle style="fill: #fadc0f; stroke: #fadc0f; stroke-miterlimit: 10;" cx="48.42" cy="54.08" r="0.85"/>
            <circle style="fill: #fadc0f; stroke: #fadc0f; stroke-miterlimit: 10;" cx="48.42" cy="47.37" r="0.85"/>
          </g>
          <path style="fill: #fff;" d="M10.42,55.47H.72V2.53H79.28V55.47H74.81V55.4a32.81,32.81,0,1,0-65-6.29,32.43,32.43,0,0,0,.6,6.27Z"/>
        </g>
        <g>
          <circle style="fill: none; stroke: #414042; stroke-linecap: round; stroke-linejoin: round;" cx="42.61" cy="50.73" r="4.45"/>
          <path style="fill: none; stroke: #414042; stroke-linecap: round; stroke-linejoin: round;" d="M33.94,50.73A8.08,8.08,0,0,0,34,52l-7.28,4.84a17,17,0,0,1,0-12.31L34,49.41A8.12,8.12,0,0,0,33.94,50.73Z"/>
          <path style="fill: none; stroke: #414042; stroke-linecap: round; stroke-linejoin: round;" d="M40,33.93l-.57,8.71A8.43,8.43,0,0,0,37.19,44l-7.83-3.87A17,17,0,0,1,40,33.93Z"/>
          <path style="fill: none; stroke: #414042; stroke-linecap: round; stroke-linejoin: round;" d="M40,67.53a17,17,0,0,1-10.67-6.16l7.82-3.88a8.63,8.63,0,0,0,2.28,1.33Z"/>
          <path style="fill: none; stroke: #414042; stroke-linecap: round; stroke-linejoin: round;" d="M55.87,61.37A17,17,0,0,1,45.2,67.53l.57-8.71A8.74,8.74,0,0,0,48,57.49Z"/>
          <path style="fill: none; stroke: #414042; stroke-linecap: round; stroke-linejoin: round;" d="M55.87,40.09,48,44a8.53,8.53,0,0,0-2.26-1.32l-.57-8.71A17,17,0,0,1,55.87,40.09Z"/>
          <path style="fill: none; stroke: #414042; stroke-linecap: round; stroke-linejoin: round;" d="M59.61,50.73a16.93,16.93,0,0,1-1.15,6.15L51.19,52a8.7,8.7,0,0,0,0-2.63l7.27-4.84A17,17,0,0,1,59.61,50.73Z"/>
          <path style="fill: none; stroke: #414042; stroke-linecap: round; stroke-linejoin: round;" d="M33.94,50.73A8.08,8.08,0,0,0,34,52l-7.28,4.84a17,17,0,0,1,0-12.31L34,49.41A8.12,8.12,0,0,0,33.94,50.73Z"/>
          <path style="fill: none; stroke: #414042; stroke-linecap: round; stroke-linejoin: round;" d="M40,33.93l-.57,8.71A8.43,8.43,0,0,0,37.19,44l-7.83-3.87A17,17,0,0,1,40,33.93Z"/>
          <path style="fill: none; stroke: #414042; stroke-linecap: round; stroke-linejoin: round;" d="M40,67.53a17,17,0,0,1-10.67-6.16l7.82-3.88a8.63,8.63,0,0,0,2.28,1.33Z"/>
          <path style="fill: none; stroke: #414042; stroke-linecap: round; stroke-linejoin: round;" d="M55.87,61.37A17,17,0,0,1,45.2,67.53l.57-8.71A8.74,8.74,0,0,0,48,57.49Z"/>
          <path style="fill: none; stroke: #414042; stroke-linecap: round; stroke-linejoin: round;" d="M55.87,40.09,48,44a8.53,8.53,0,0,0-2.26-1.32l-.57-8.71A17,17,0,0,1,55.87,40.09Z"/>
          <path style="fill: none; stroke: #414042; stroke-linecap: round; stroke-linejoin: round;" d="M59.61,50.73a16.93,16.93,0,0,1-1.15,6.15L51.19,52a8.7,8.7,0,0,0,0-2.63l7.27-4.84A17,17,0,0,1,59.61,50.73Z"/>
          <path style="fill: none; stroke: #414042; stroke-linecap: round; stroke-linejoin: round;" d="M42.61,31.05A19.68,19.68,0,1,0,62.29,50.73,19.68,19.68,0,0,0,42.61,31.05ZM26.76,56.88a17,17,0,0,1,0-12.31L34,49.41A8.7,8.7,0,0,0,34,52Zm2.6,4.49,7.82-3.88a8.63,8.63,0,0,0,2.28,1.33L40,67.53A17,17,0,0,1,29.36,61.37Zm10.1-18.73A8.43,8.43,0,0,0,37.19,44l-7.83-3.87A17,17,0,0,1,40,33.93Zm16.41-2.55L48,44a8.53,8.53,0,0,0-2.26-1.32l-.57-8.71A17,17,0,0,1,55.87,40.09ZM45.2,67.53l.57-8.71A8.74,8.74,0,0,0,48,57.49l7.83,3.88A17,17,0,0,1,45.2,67.53Zm6-15.49a8.7,8.7,0,0,0,0-2.63l7.27-4.84a17,17,0,0,1,0,12.31Z"/>
          <circle style="fill: none; stroke: #414042; stroke-linecap: round; stroke-linejoin: round;" cx="42.61" cy="50.73" r="26.75"/>
          <path style="fill: none; stroke: #414042; stroke-linecap: round; stroke-linejoin: round;" d="M10.4,55.38a32.43,32.43,0,0,1-.6-6.27,32.82,32.82,0,1,1,65,6.29"/>
          <line style="fill: none; stroke: #414042; stroke-linecap: round; stroke-linejoin: round;" x1="10.42" y1="55.47" x2="0.72" y2="55.47"/>
          <line style="fill: none; stroke: #414042; stroke-linecap: round; stroke-linejoin: round;" x1="74.81" y1="55.47" x2="79.28" y2="55.47"/>
          <path style="fill: none; stroke: #414042; stroke-linecap: round; stroke-linejoin: round;" d="M2,47S2,21.18,23.61,12.7V2.53"/>
          <line style="fill: none; stroke: #414042; stroke-linecap: round; stroke-linejoin: round;" x1="57.63" y1="19.93" x2="78.38" y2="19.93"/>
        </g>
      </g>
      <line style="fill: none; stroke: #414042; stroke-linecap: round; stroke-linejoin: round;" x1="42.61" y1="23.98" x2="42.61" y2="27.02"/>
      <line style="fill: none; stroke: #414042; stroke-linecap: round; stroke-linejoin: round;" x1="52.85" y1="26.01" x2="51.68" y2="28.83"/>
      <line style="fill: none; stroke: #414042; stroke-linecap: round; stroke-linejoin: round;" x1="61.53" y1="31.81" x2="59.37" y2="33.96"/>
      <line style="fill: none; stroke: #414042; stroke-linecap: round; stroke-linejoin: round;" x1="67.32" y1="40.49" x2="64.51" y2="41.65"/>
      <line style="fill: none; stroke: #414042; stroke-linecap: round; stroke-linejoin: round;" x1="69.36" y1="50.73" x2="66.32" y2="50.73"/>
      <line style="fill: none; stroke: #414042; stroke-linecap: round; stroke-linejoin: round;" x1="67.32" y1="60.96" x2="64.51" y2="59.8"/>
      <line style="fill: none; stroke: #414042; stroke-linecap: round; stroke-linejoin: round;" x1="61.53" y1="69.64" x2="59.37" y2="67.49"/>
      <line style="fill: none; stroke: #414042; stroke-linecap: round; stroke-linejoin: round;" x1="52.85" y1="75.44" x2="51.68" y2="72.63"/>
      <line style="fill: none; stroke: #414042; stroke-linecap: round; stroke-linejoin: round;" x1="42.61" y1="77.47" x2="42.61" y2="74.43"/>
      <line style="fill: none; stroke: #414042; stroke-linecap: round; stroke-linejoin: round;" x1="32.38" y1="75.44" x2="33.54" y2="72.63"/>
      <line style="fill: none; stroke: #414042; stroke-linecap: round; stroke-linejoin: round;" x1="23.7" y1="69.64" x2="25.85" y2="67.49"/>
      <line style="fill: none; stroke: #414042; stroke-linecap: round; stroke-linejoin: round;" x1="17.9" y1="60.96" x2="20.71" y2="59.8"/>
      <line style="fill: none; stroke: #414042; stroke-linecap: round; stroke-linejoin: round;" x1="15.86" y1="50.73" x2="18.91" y2="50.73"/>
      <line style="fill: none; stroke: #414042; stroke-linecap: round; stroke-linejoin: round;" x1="17.9" y1="40.49" x2="20.71" y2="41.65"/>
      <line style="fill: none; stroke: #414042; stroke-linecap: round; stroke-linejoin: round;" x1="23.7" y1="31.81" x2="25.85" y2="33.96"/>
      <line style="fill: none; stroke: #414042; stroke-linecap: round; stroke-linejoin: round;" x1="32.38" y1="26.01" x2="33.54" y2="28.83"/>
    </g>
    <g>
      <path style="fill: #fadc0f;" d="M78.1,23.15H53.91a1.3,1.3,0,0,1-1.11-2L64.9,1.56a1.31,1.31,0,0,1,2.22,0l12.09,19.6A1.3,1.3,0,0,1,78.1,23.15Z"/>
      <path style="fill: none; stroke: #414042; stroke-linecap: round; stroke-linejoin: round;" d="M78.1,23.15H53.91a1.3,1.3,0,0,1-1.11-2L64.9,1.56a1.31,1.31,0,0,1,2.22,0l12.09,19.6A1.3,1.3,0,0,1,78.1,23.15Z"/>
      <line style="fill: none; stroke: #414042; stroke-linecap: round; stroke-linejoin: round;" x1="66.01" y1="8.12" x2="66.01" y2="15.33"/>
      <circle style="fill: none; stroke: #414042; stroke-linecap: round; stroke-linejoin: round;" cx="66.01" cy="18.2" r="0.61"/>
    </g>
  </g>
</svg>
