<svg id="f71a6fa7-2aae-442f-bf3c-b4535e0893b0" data-name="Layer 1" xmlns="http://www.w3.org/2000/svg" viewBox="0 0 80 80">
  <title>37</title>
  <g>
    <g>
      <path style="fill: #fadc0f;" d="M61.56,41.41l-10.4-18a1.48,1.48,0,0,0-1.24-.72H29.11a1.44,1.44,0,0,0-1.23.72l-10.4,18a1.37,1.37,0,0,0,0,1.41l10.4,18a1.42,1.42,0,0,0,1.23.72H49.92a1.46,1.46,0,0,0,1.24-.72l10.4-18A1.42,1.42,0,0,0,61.56,41.41ZM39.51,51.61a9.5,9.5,0,1,1,9.5-9.5A9.5,9.5,0,0,1,39.51,51.61Z"/>
      <path style="fill: #fff;" d="M76.72,42.11A37.21,37.21,0,1,1,37.49,5V.58L49.42,7.46,37.49,14.35V10.08a32.1,32.1,0,1,0,34.12,32Z"/>
      <polygon style="fill: #fadc0f;" points="78.45 11.8 66.36 23.89 63.25 27 60.04 23.8 54.79 18.55 57.9 15.43 63.15 20.69 75.24 8.6 78.45 11.8"/>
    </g>
    <g>
      <path style="fill: none; stroke: #414042; stroke-linecap: round; stroke-linejoin: round;" d="M76.72,42.11A37.21,37.21,0,1,1,37.49,5V.58L49.42,7.46,37.49,14.35V10.08a32.1,32.1,0,1,0,34.12,32Z"/>
      <g>
        <circle style="fill: none; stroke: #414042; stroke-linecap: round; stroke-linejoin: round;" cx="39.51" cy="42.11" r="9.5"/>
        <path style="fill: none; stroke: #414042; stroke-linecap: round; stroke-linejoin: round;" d="M49.92,22.67H29.11a1.41,1.41,0,0,0-1.23.71l-10.41,18a1.46,1.46,0,0,0,0,1.43l10.41,18a1.41,1.41,0,0,0,1.23.71H49.92a1.41,1.41,0,0,0,1.23-.71l10.4-18a1.41,1.41,0,0,0,0-1.43l-10.4-18A1.41,1.41,0,0,0,49.92,22.67Z"/>
      </g>
      <polygon style="fill: none; stroke: #414042; stroke-linecap: round; stroke-linejoin: round;" points="78.45 11.8 66.36 23.89 63.25 27 60.04 23.8 54.79 18.55 57.9 15.43 63.15 20.69 75.24 8.6 78.45 11.8"/>
    </g>
  </g>
</svg>
