<svg id="b5e0a9ea-0ca9-4d49-81ab-8cb85d4426b5" data-name="Layer 1" xmlns="http://www.w3.org/2000/svg" viewBox="0 0 80 80">
  <title>38</title>
  <g>
    <g>
      <g>
        <circle cx="31.05" cy="49.06" r="14.44" style="fill:#fff;"/>
        <circle cx="31.05" cy="49.06" r="19.54" style="fill:#fff;"/>
        <circle cx="31.05" cy="49.06" r="30.31" style="fill:#fff;"/>
        <circle cx="31.05" cy="49.06" r="3.59" style="fill:#fadc0f;"/>
      </g>
      <g>
        <path d="M79.27,10.81A10.19,10.19,0,1,1,69.08.62,10.17,10.17,0,0,1,79.27,10.81Z" style="fill:#fadc0f;"/>
        <path d="M74,19.73v2.41a2.23,2.23,0,0,1-2.24,2.23H66.39a2.23,2.23,0,0,1-2.24-2.23V19.73a10.18,10.18,0,0,0,9.85,0Z" style="fill:#fff;"/>
      </g>
    </g>
    <g>
      <g>
        <circle cx="31.05" cy="49.06" r="3.59" style="fill:none;stroke:#414042;stroke-linecap:round;stroke-linejoin:round;"/>
        <circle cx="31.05" cy="49.06" r="14.44" style="fill:none;stroke:#414042;stroke-linecap:round;stroke-linejoin:round;"/>
        <circle cx="31.05" cy="49.06" r="19.54" style="fill:none;stroke:#414042;stroke-linecap:round;stroke-linejoin:round;"/>
        <circle cx="31.05" cy="49.06" r="30.31" style="fill:none;stroke:#414042;stroke-linecap:round;stroke-linejoin:round;"/>
        <line x1="31.05" y1="34.63" x2="31.05" y2="45.47" style="fill:none;stroke:#414042;stroke-linecap:round;stroke-linejoin:round;"/>
        <line x1="18.54" y1="41.85" x2="27.94" y2="47.27" style="fill:none;stroke:#414042;stroke-linecap:round;stroke-linejoin:round;"/>
        <line x1="18.54" y1="56.28" x2="27.94" y2="50.86" style="fill:none;stroke:#414042;stroke-linecap:round;stroke-linejoin:round;"/>
        <line x1="31.05" y1="63.5" x2="31.05" y2="52.65" style="fill:none;stroke:#414042;stroke-linecap:round;stroke-linejoin:round;"/>
        <line x1="43.55" y1="56.28" x2="34.15" y2="50.86" style="fill:none;stroke:#414042;stroke-linecap:round;stroke-linejoin:round;"/>
        <line x1="43.55" y1="41.85" x2="34.15" y2="47.27" style="fill:none;stroke:#414042;stroke-linecap:round;stroke-linejoin:round;"/>
      </g>
      <g>
        <line x1="54.71" y1="47.42" x2="54.71" y2="50.86" style="fill:none;stroke:#414042;stroke-linecap:round;stroke-linejoin:round;"/>
        <path d="M54.71,49.14h8.58a5.78,5.78,0,0,0,5.79-5.78v-19" style="fill:none;stroke:#414042;stroke-linecap:round;stroke-linejoin:round;"/>
        <circle cx="69.08" cy="10.81" r="10.19" style="fill:none;stroke:#414042;stroke-linecap:round;stroke-linejoin:round;"/>
        <line x1="69.08" y1="2.82" x2="69.08" y2="4.68" style="fill:none;stroke:#414042;stroke-linecap:round;stroke-linejoin:round;"/>
        <line x1="63.42" y1="5.16" x2="64.74" y2="6.48" style="fill:none;stroke:#414042;stroke-linecap:round;stroke-linejoin:round;"/>
        <line x1="61.08" y1="10.81" x2="62.94" y2="10.81" style="fill:none;stroke:#414042;stroke-linecap:round;stroke-linejoin:round;"/>
        <line x1="63.42" y1="16.47" x2="64.74" y2="15.15" style="fill:none;stroke:#414042;stroke-linecap:round;stroke-linejoin:round;"/>
        <line x1="69.08" y1="18.81" x2="69.08" y2="16.95" style="fill:none;stroke:#414042;stroke-linecap:round;stroke-linejoin:round;"/>
        <line x1="74.73" y1="16.47" x2="73.41" y2="15.15" style="fill:none;stroke:#414042;stroke-linecap:round;stroke-linejoin:round;"/>
        <line x1="77.07" y1="10.81" x2="75.21" y2="10.81" style="fill:none;stroke:#414042;stroke-linecap:round;stroke-linejoin:round;"/>
        <line x1="74.73" y1="5.16" x2="73.41" y2="6.48" style="fill:none;stroke:#414042;stroke-linecap:round;stroke-linejoin:round;"/>
        <line x1="68.1" y1="11.6" x2="71.54" y2="8.38" style="fill:none;stroke:#414042;stroke-linecap:round;stroke-linejoin:round;"/>
        <path d="M64.15,19.72v2.42a2.23,2.23,0,0,0,2.23,2.24h5.39A2.23,2.23,0,0,0,74,22.14V19.73" style="fill:none;stroke:#414042;stroke-linecap:round;stroke-linejoin:round;"/>
      </g>
    </g>
    <line x1="31.05" y1="18.75" x2="31.05" y2="20.92" style="fill:none;stroke:#414042;stroke-linecap:round;stroke-linejoin:round;"/>
    <line x1="19.45" y1="21.06" x2="20.28" y2="23.07" style="fill:none;stroke:#414042;stroke-linecap:round;stroke-linejoin:round;"/>
    <line x1="9.61" y1="27.63" x2="11.15" y2="29.17" style="fill:none;stroke:#414042;stroke-linecap:round;stroke-linejoin:round;"/>
    <line x1="3.04" y1="37.46" x2="5.05" y2="38.3" style="fill:none;stroke:#414042;stroke-linecap:round;stroke-linejoin:round;"/>
    <line x1="0.73" y1="49.06" x2="2.9" y2="49.06" style="fill:none;stroke:#414042;stroke-linecap:round;stroke-linejoin:round;"/>
    <line x1="3.04" y1="60.66" x2="5.05" y2="59.83" style="fill:none;stroke:#414042;stroke-linecap:round;stroke-linejoin:round;"/>
    <line x1="9.61" y1="70.5" x2="11.15" y2="68.96" style="fill:none;stroke:#414042;stroke-linecap:round;stroke-linejoin:round;"/>
    <line x1="19.45" y1="77.07" x2="20.28" y2="75.06" style="fill:none;stroke:#414042;stroke-linecap:round;stroke-linejoin:round;"/>
    <line x1="31.05" y1="79.38" x2="31.05" y2="77.21" style="fill:none;stroke:#414042;stroke-linecap:round;stroke-linejoin:round;"/>
    <line x1="42.64" y1="77.07" x2="41.81" y2="75.06" style="fill:none;stroke:#414042;stroke-linecap:round;stroke-linejoin:round;"/>
    <line x1="52.48" y1="70.5" x2="50.94" y2="68.96" style="fill:none;stroke:#414042;stroke-linecap:round;stroke-linejoin:round;"/>
    <line x1="59.05" y1="60.66" x2="57.04" y2="59.83" style="fill:none;stroke:#414042;stroke-linecap:round;stroke-linejoin:round;"/>
    <line x1="59.05" y1="37.46" x2="57.04" y2="38.3" style="fill:none;stroke:#414042;stroke-linecap:round;stroke-linejoin:round;"/>
    <line x1="52.48" y1="27.63" x2="50.94" y2="29.17" style="fill:none;stroke:#414042;stroke-linecap:round;stroke-linejoin:round;"/>
    <line x1="42.64" y1="21.06" x2="41.81" y2="23.07" style="fill:none;stroke:#414042;stroke-linecap:round;stroke-linejoin:round;"/>
  </g>
</svg>
