<svg id="f9602cbe-f0b1-46ea-8169-6b6b3ba00b55" data-name="Layer 1" xmlns="http://www.w3.org/2000/svg" viewBox="0 0 80 80">
  <title>4</title>
  <g>
    <g>
      <path style="fill: #fff;" d="M79.07,44.51,78.26,38A18.09,18.09,0,0,0,63,22.35L35.5,18.23a20.94,20.94,0,0,0-3-.23,18.7,18.7,0,0,0-3.18.27h-.06A19.51,19.51,0,0,0,13.42,40.93L15,49.83a14.79,14.79,0,0,0,13.15,12.1h0a13.05,13.05,0,0,0,1.41.07h34A15.58,15.58,0,0,0,79.07,44.51ZM63.61,56.71h-34a9.5,9.5,0,0,1-9.35-7.82L18.64,40A14.21,14.21,0,0,1,34.71,23.46l27.53,4.13A12.75,12.75,0,0,1,73,38.64l.8,6.52A10.28,10.28,0,0,1,63.61,56.71Z"/>
      <path style="fill: #fadc0f;" d="M63.61,56.71h-34a9.5,9.5,0,0,1-9.35-7.82L18.64,40A14.21,14.21,0,0,1,34.71,23.46l27.53,4.13A12.75,12.75,0,0,1,73,38.64l.8,6.52A10.28,10.28,0,0,1,63.61,56.71Z"/>
      <path style="fill: #fff;" d="M28.16,61.93c-7.87,0-22.43-4.76-26.4-6.1a1.4,1.4,0,0,1-.93-1.44,132.53,132.53,0,0,0,0-22.8,1.41,1.41,0,0,1,.66-1.31c3.41-2.06,18-10.58,27.84-12A19.51,19.51,0,0,0,13.42,40.93L15,49.83A14.79,14.79,0,0,0,28.16,61.93Z"/>
    </g>
    <g>
      <path style="fill: none; stroke: #414042; stroke-linecap: round; stroke-linejoin: round;" d="M18.65,40l1.59,8.88a9.5,9.5,0,0,0,9.35,7.83h34a10.28,10.28,0,0,0,10.2-11.55L73,38.64a12.76,12.76,0,0,0-10.77-11L34.71,23.47A14.18,14.18,0,0,0,18.65,40Z"/>
      <path style="fill: none; stroke: #414042; stroke-linecap: round; stroke-linejoin: round;" d="M75.28,56.74A15.55,15.55,0,0,1,63.62,62h-34A14.78,14.78,0,0,1,15,49.83l-1.59-8.91A19.36,19.36,0,0,1,35.5,18.24L63,22.35A18.09,18.09,0,0,1,78.27,38l.8,6.51A15.53,15.53,0,0,1,75.28,56.74Z"/>
      <path style="fill: none; stroke: #414042; stroke-linecap: round; stroke-linejoin: round;" d="M29.37,18.27c-9.81,1.4-24.48,10-27.9,12a1.38,1.38,0,0,0-.66,1.3,132.53,132.53,0,0,1,0,22.8,1.37,1.37,0,0,0,.93,1.43c4,1.35,18.55,6.11,26.43,6.11"/>
      <line style="fill: none; stroke: #414042; stroke-linecap: round; stroke-linejoin: round;" x1="33.07" y1="32.4" x2="46.5" y2="51.41"/>
      <line style="fill: none; stroke: #414042; stroke-linecap: round; stroke-linejoin: round;" x1="46.16" y1="37.7" x2="51.63" y2="45.45"/>
      <line style="fill: none; stroke: #414042; stroke-linecap: round; stroke-linejoin: round;" x1="50.05" y1="31.39" x2="63.47" y2="50.4"/>
    </g>
  </g>
</svg>
