<svg id="ae6d6c0b-2af0-44d5-87b1-b42b8f41e964" data-name="Layer 1" xmlns="http://www.w3.org/2000/svg" viewBox="0 0 80 80">
  <title>40</title>
  <g>
    <g>
      <path fill="#fff" d="M78.7,14.76a146.89,146.89,0,0,1-2.44,27.11L74.42,50C69.71,67.59,61.59,79.22,52.36,79.22H11.05c-3.25,0-6.36-1.44-9.24-4.08V.79L78.19,2.16C78.52,6.24,78.7,10.45,78.7,14.76Z"/>
      <g fill="none" stroke="#414042" stroke-linecap="round" stroke-linejoin="round">
        <path d="M20.44,1a76.36,76.36,0,0,1,1.19,13.74c0,16.48-4.74,29.84-10.58,29.84-4.38,0-8.14-7.51-9.75-18.22"/>
        <ellipse cx="11.05" cy="14.76" rx="2.18" ry="6.15"/>
        <path d="M36.88,2.16A152.68,152.68,0,0,1,36.06,35"/>
        <path d="M36.06,35c-3.47,25.68-13.36,44.2-25,44.2-3.25,0-6.37-1.44-9.24-4.07"/>
        <path d="M78.19,2.16c.33,4.07.51,8.28.51,12.6a146.89,146.89,0,0,1-2.44,27.11L74.42,50c-4.71,17.6-12.83,29.22-22.06,29.22"/>
        <line x1="11.05" y1="79.21" x2="52.36" y2="79.21"/>
        <line x1="11.05" y1="8.6" x2="11.05" y2="0.78"/>
        <line x1="11.05" y1="20.91" x2="11.05" y2="44.56"/>
        <line x1="12.94" y1="11.73" x2="18.59" y2="2.85"/>
        <line x1="12.63" y1="18.98" x2="19.84" y2="31.36"/>
        <line x1="9.46" y1="18.98" x2="2.04" y2="30.39"/>
        <line x1="8.87" y1="11.73" x2="2.97" y2="2.5"/>
        <path d="M64,16.64a3.82,3.82,0,0,1-3.64,3.89A3.54,3.54,0,0,1,57.49,19"/>
        <path d="M63.32,6.83a3.81,3.81,0,0,1-2.74,4.57,3.54,3.54,0,0,1-3.09-.87"/>
        <path d="M63.57,25.16a3.81,3.81,0,0,1-3.63,3.89,3.52,3.52,0,0,1-2.84-1.51"/>
        <path d="M62.54,35.15A3.81,3.81,0,0,1,58.9,39a3.52,3.52,0,0,1-2.84-1.5"/>
        <path d="M60.9,44.46a3.82,3.82,0,0,1-3.63,3.89,3.52,3.52,0,0,1-2.84-1.5"/>
        <path d="M58.14,55.25A3.82,3.82,0,0,1,54.33,59a3.52,3.52,0,0,1-2.77-1.63"/>
        <path d="M55.32,63.89a3.81,3.81,0,0,1-4.07,3.42,3.52,3.52,0,0,1-2.64-1.83"/>
        <path d="M67.15,61a3.44,3.44,0,0,0-1.66-.21,3.49,3.49,0,0,0-2.64,1.83"/>
        <path d="M70.64,50.46A3.29,3.29,0,0,0,69,50.24a3.52,3.52,0,0,0-2.64,1.83"/>
        <path d="M72.79,41.06a3.29,3.29,0,0,0-1.65-.22,3.5,3.5,0,0,0-2.64,1.83"/>
        <path d="M74.33,28.36a3.33,3.33,0,0,0-1.66-.22A3.52,3.52,0,0,0,70,30"/>
        <path d="M74.94,15a3.33,3.33,0,0,0-1.66-.22,3.52,3.52,0,0,0-2.64,1.83"/>
        <path d="M51.56,72.58a3.81,3.81,0,0,1-4.65,2.58,3.51,3.51,0,0,1-2.24-2.31"/>
        <path d="M57.08,3.2s4.21,44.24-14.32,72.73"/>
        <path d="M70.23,3.48s4.21,44.24-14.32,72.73"/>
      </g>
      <polygon fill="#fadc0f" stroke="#414042" stroke-linecap="round" stroke-linejoin="round" points="63.58 19.08 58.72 10.11 53.58 16.16 48.61 3.45 53.73 10.14 59.41 3.45 64.44 12.73 70.03 12.36 63.58 19.08"/>
      <polygon fill="#fadc0f" stroke="#414042" stroke-linecap="round" stroke-linejoin="round" points="56.29 67.16 56.67 61.31 50.67 62.41 51.01 51.78 54.45 58.02 61.24 56.77 59.69 64.87 62.85 68.15 56.29 67.16"/>
    </g>
    <path fill="none" stroke="#414042" stroke-linecap="round" stroke-linejoin="round" d="M44.14,16.57S39.63,28.9,39,34.18s-.51,12-1.23,17.18,1.13,13.71,1.13,13.71,3-6.17,5-11.59A48.84,48.84,0,0,0,47,38.13c.06-4.45-.27-10.21-.46-14.94S44.14,16.57,44.14,16.57Z"/>
    <path fill="none" stroke="#414042" stroke-linecap="round" stroke-linejoin="round" stroke-width="0.25" d="M43.35,18.79s-.58,9.86-1,12.57a75.78,75.78,0,0,0-1.41,12.56c0,4.92-2.73,12.45-2.85,16"/>
    <path fill="none" stroke="#414042" stroke-linecap="round" stroke-linejoin="round" stroke-width="0.25" d="M42.64,20.16s-1.12,8.49-1.56,11.2a75.78,75.78,0,0,0-1.41,12.56c0,4.92-1.68,8.76-1.8,12.36"/>
    <path fill="none" stroke="#414042" stroke-linecap="round" stroke-linejoin="round" stroke-width="0.25" d="M45.73,19.08s-2.86,15.09-3,18.51.16,10.28-.83,13.55-3.25,12.75-3.25,12.75"/>
    <path fill="none" stroke="#414042" stroke-linecap="round" stroke-linejoin="round" stroke-width="0.25" d="M46.21,21.39s-2,13.64-2.14,17.06.16,10.28-.83,13.55-2.74,9.68-2.74,9.68"/>
    <path fill="none" stroke="#414042" stroke-linecap="round" stroke-linejoin="round" stroke-width="0.25" d="M46.55,23.19S45.19,35,45.09,38.45s.16,10.28-.83,13.55a47.57,47.57,0,0,1-1.62,4.72"/>
    <path fill="none" stroke="#414042" stroke-linecap="round" stroke-linejoin="round" stroke-width="0.25" d="M38.16,60.75a99.37,99.37,0,0,0,3-11.13c.48-3.42.49-11.1,1.05-13.38s3-17.65,3-17.65"/>
    <path fill="none" stroke="#414042" stroke-linecap="round" stroke-linejoin="round" stroke-width="0.25" d="M46.93,32.27a38.6,38.6,0,0,0-1,7.58c.14,2.73,0,5.79,0,5.79"/>
    <path fill="none" stroke="#414042" stroke-linecap="round" stroke-linejoin="round" stroke-width="0.25" d="M39.87,30s-.37,4.51-.37,6-.82,7.25-.82,7.25"/>
  </g>
</svg>
