<svg id="f99ede59-a5d9-491f-b3f0-77701f9fc625" data-name="Layer 1" xmlns="http://www.w3.org/2000/svg" viewBox="0 0 80 80">
  <title>41</title>
  <g>
    <g>
      <path style="fill: #fadc0f;" d="M39.85,59.6l-2.49-.21L32.6,59s-.53-5.4-2.35-8.63a5.88,5.88,0,0,0-1.42-1.75l8.54.21,2.4.06C39.73,51,39.67,55.63,39.85,59.6Z"/>
      <path style="fill: #fff;" d="M79.37,57.64l-10.19.51-13.46.68-15.6.79-.27,0c-.18-4-.12-8.62-.08-10.72l1.84,0,.31.81,2.45,6.32L77,55.26l.09-5.53H78.7C79.13,54.41,79.37,57.64,79.37,57.64Z"/>
      <path style="fill: #fff;" d="M58.89,44.77H45V40.51l13.94.34ZM78.64,49h-2V39.22h1c-.87-8-2-16.59-3.24-21-6.06-1.9-29.94-5.81-31.76-6.1a169.36,169.36,0,0,0-2.53,25h1.54l-.06,11.76.31.81H78.7ZM43.72,32.61,45.07,15c13.33,2.25,28.36,5.49,28.36,5.49l1.8,14.76Z"/>
      <path style="fill: #fadc0f;" d="M42.66,12.11a169.36,169.36,0,0,0-2.53,25H38.77a109,109,0,0,0-1.4,11.64v0l-8.54-.21h0a2.67,2.67,0,0,0-2-.6c-4.63.49-4.41,9.81-4.41,9.81L8.9,56.09l-.33,0c.48-6.87,4.29-8.75,4.29-8.75V26.76L42.55,12.09Z"/>
      <path style="fill: #fadc0f;" d="M12.86,26.75V47.29s-.11,5.86-.29,8.87a8.86,8.86,0,0,1-4-.12l-2.83-.36-.21,0s-.35-4.23-2.17-6a2.52,2.52,0,0,0-1.55-.78,34.78,34.78,0,0,1,.68-4.38h0a8.28,8.28,0,0,0,7.37-5.18L10.3,28Z"/>
      <path style="fill: #fff;" d="M41.67,37.15l-.06,11.76-4.24-.1v0a109,109,0,0,1,1.4-11.64Z"/>
      <polygon style="fill: #fff;" points="58.89 40.84 58.89 44.77 44.95 44.77 44.95 40.51 58.89 40.84"/>
      <path style="fill: #fff;" d="M78.64,49h-2V39.21h1C78,42.72,78.37,46.11,78.64,49Z"/>
      <path style="fill: #fff;" d="M10.3,28,9.87,39.29A8.28,8.28,0,0,1,2.5,44.47h0c.14-.65.3-1.3.47-1.95H3v0c.23-.88.49-1.75.75-2.6h0A80.21,80.21,0,0,1,8.05,29.12Z"/>
      <path style="fill: #fff;" d="M3,37.26v5.23a0,0,0,0,1,0,0H.69V37.26Z"/>
      <path style="fill: #fff;" d="M37.36,59.38v.23c-.15,4.55-2,8.15-4.27,8.15L28,67.9h-.22c-2.36,0-4.27-3.91-4.27-8.74s1.91-8.74,4.27-8.74l2.5-.08C32.07,53.58,32.6,59,32.6,59Z"/>
      <path style="fill: #fff;" d="M69.18,58.14v.23C68.66,62,67,64.62,65.09,64.62l-5.35.16c-1.86,0-3.44-2.42-4-5.81v-.15Z"/>
      <path style="fill: #fff;" d="M8.9,56.08v.07c-.29,2.25-1.3,3.9-2.49,3.9l-3.21.1c-1.42,0-2.58-2.36-2.58-5.26a8.39,8.39,0,0,1,.91-4v0A2.07,2.07,0,0,1,3.2,49.62h.16c1.82,1.79,2.17,6,2.17,6l.21,0L8.57,56Z"/>
      <path style="fill: #fff;" d="M75.23,35.21,43.72,32.6,45.07,15c13.33,2.25,28.36,5.49,28.36,5.49Z"/>
      <polygon style="fill: #fff;" points="77.11 49.73 77.02 55.26 44.37 56.05 41.92 49.73 77.11 49.73"/>
      <polygon style="fill: #fff;" points="58.89 40.84 58.89 44.77 44.95 44.77 44.95 40.51 58.89 40.84"/>
    </g>
    <g>
      <g>
        <g>
          <g>
            <path style="fill: none; stroke: #414042; stroke-linecap: round; stroke-linejoin: round;" d="M7.54,30.19C6.15,33.14,2.4,41.69,1.82,48.86c3.17.31,3.71,6.79,3.71,6.79l16.9,2.16S22.21,48.5,26.85,48s5.76,11,5.76,11l7.51.63,39.26-2s-2.25-29.7-5-39.43c-6.3-2-31.86-6.12-31.86-6.12L9.09,28.62A3.33,3.33,0,0,0,7.54,30.19Z"/>
            <path style="fill: none; stroke: #414042; stroke-linecap: round; stroke-linejoin: round;" d="M10.3,28,9.9,38.53a3.65,3.65,0,0,1-.47,1.71A8.39,8.39,0,0,1,2.5,44.47"/>
            <rect style="fill: none; stroke: #414042; stroke-linecap: round; stroke-linejoin: round;" x="0.69" y="37.27" width="2.28" height="5.26"/>
            <g>
              <ellipse style="fill: none; stroke: #414042; stroke-linecap: round; stroke-linejoin: round;" cx="27.75" cy="59.18" rx="4.27" ry="8.74"/>
              <path style="fill: none; stroke: #414042; stroke-linecap: round; stroke-linejoin: round;" d="M37.36,59.61c-.15,4.55-2,8.15-4.26,8.15"/>
              <line style="fill: none; stroke: #414042; stroke-linecap: round; stroke-linejoin: round;" x1="27.75" y1="67.92" x2="33.1" y2="67.76"/>
              <line style="fill: none; stroke: #414042; stroke-linecap: round; stroke-linejoin: round;" x1="27.75" y1="50.43" x2="30.25" y2="50.36"/>
            </g>
            <g>
              <path style="fill: none; stroke: #414042; stroke-linecap: round; stroke-linejoin: round;" d="M63.85,58.49c-.52,3.64-2.16,6.3-4.1,6.3s-3.44-2.43-4-5.82"/>
              <path style="fill: none; stroke: #414042; stroke-linecap: round; stroke-linejoin: round;" d="M69.19,58.38c-.53,3.61-2.16,6.25-4.1,6.25"/>
              <line style="fill: none; stroke: #414042; stroke-linecap: round; stroke-linejoin: round;" x1="59.75" y1="64.79" x2="65.09" y2="64.63"/>
            </g>
            <g>
              <path style="fill: none; stroke: #414042; stroke-linecap: round; stroke-linejoin: round;" d="M5.74,55.75c-.2,2.5-1.26,4.4-2.54,4.4S.63,57.8.63,54.89s1.15-5.26,2.57-5.26h.16"/>
              <path style="fill: none; stroke: #414042; stroke-linecap: round; stroke-linejoin: round;" d="M8.9,56.16c-.29,2.24-1.29,3.9-2.48,3.9"/>
              <line style="fill: none; stroke: #414042; stroke-linecap: round; stroke-linejoin: round;" x1="3.2" y1="60.15" x2="6.42" y2="60.06"/>
            </g>
            <path style="fill: none; stroke: #414042; stroke-linecap: round; stroke-linejoin: round;" d="M39.81,49c0,3.45.11,7,.31,10.65"/>
            <path style="fill: none; stroke: #414042; stroke-linecap: round; stroke-linejoin: round;" d="M42.56,12.08a221.1,221.1,0,0,0-2.49,25"/>
            <path style="fill: none; stroke: #414042; stroke-linecap: round; stroke-linejoin: round;" d="M45.08,15,43.73,32.61l31.5,2.61-1.8-14.77S58.4,17.21,45.08,15Z"/>
            <polyline style="fill: none; stroke: #414042; stroke-linecap: round; stroke-linejoin: round;" points="28.83 48.6 41.61 48.91 44.38 56.04 77.02 55.26 77.11 49.73"/>
            <path style="fill: none; stroke: #414042; stroke-linecap: round; stroke-linejoin: round;" d="M41.61,48.91l.07-11.76H38.77a111.75,111.75,0,0,0-1.4,11.64"/>
            <polyline style="fill: none; stroke: #414042; stroke-linecap: round; stroke-linejoin: round;" points="77.66 39.22 76.63 39.22 76.63 49.03 78.64 49.03"/>
            <line style="fill: none; stroke: #414042; stroke-linecap: round; stroke-linejoin: round;" x1="1.82" y1="48.86" x2="1.54" y2="50.84"/>
          </g>
          <line style="fill: none; stroke: #414042; stroke-linecap: round; stroke-linejoin: round;" x1="41.93" y1="49.73" x2="78.71" y2="49.73"/>
          <polygon style="fill: none; stroke: #414042; stroke-linecap: round; stroke-linejoin: round;" points="44.95 40.51 44.95 44.76 58.9 44.76 58.9 40.84 44.95 40.51"/>
        </g>
        <line style="fill: none; stroke: #414042; stroke-linecap: round; stroke-linejoin: round;" x1="12.87" y1="26.75" x2="12.87" y2="56.59"/>
      </g>
      <line style="fill: none; stroke: #414042; stroke-linecap: round; stroke-linejoin: round;" x1="2.97" y1="39.89" x2="3.73" y2="39.89"/>
    </g>
  </g>
</svg>
