<svg id="f04bbf87-4042-441a-b4e7-9ff111a27108" data-name="Layer 1" xmlns="http://www.w3.org/2000/svg" viewBox="0 0 80 80">
  <title>42</title>
  <g>
    <g>
      <polygon style="fill: #fff;" points="66.7 13.72 66.7 52.07 63.34 52.18 63.34 13.33 63.33 13.28 66.7 13.72"/>
      <polygon style="fill: #fff;" points="63.34 13.33 63.34 52.18 52.54 52.52 52.75 11.89 63.33 13.28 63.34 13.33"/>
      <polygon style="fill: #fff;" points="52.75 11.89 52.54 52.52 11.71 51.78 11.71 19.3 52.75 11.89"/>
      <polygon style="fill: #fff;" points="69.91 14.14 69.91 51.97 66.7 52.07 66.7 13.72 69.91 14.14"/>
      <polygon style="fill: #fff;" points="79.41 15.39 79.41 51.67 75.6 51.79 69.91 51.97 69.91 14.15 79.41 15.39"/>
      <path style="fill: #fadc0f;" d="M4.41,37C3.13,40.83,3,56.48,3,56.48H5.54s1-5.34,4.05-4.86a1.18,1.18,0,0,1,.27.06,3.51,3.51,0,0,1,1.85,2V32.41S5.67,33.1,4.41,37Zm5.92,10.15H4.12a52.88,52.88,0,0,1,.61-7.86,3.42,3.42,0,0,1,3.05-2.78c1.34-.12,2.55-.12,2.55-.12Z"/>
      <path style="fill: #fadc0f;" d="M75.6,51.79v5.55L51,58.18V61.9h-.81c0,.61,0,1,0,1H43.62s.25-4.41-1.2-7.21A4.28,4.28,0,0,0,40.93,54a3.44,3.44,0,0,0-1.9-.51c-5.15.07-5.64,7.61-5.64,7.61L16.23,60.1,13,59.92a.45.45,0,0,0,0-.08h0a20.08,20.08,0,0,0-1.31-6.16V51.78l40.83.74,10.8-.34,3.36-.11,3.21-.1Z"/>
      <path style="fill: #fff;" d="M10.33,36.36V47.12H4.12a52.88,52.88,0,0,1,.61-7.86,3.42,3.42,0,0,1,3.05-2.78C9.12,36.36,10.33,36.36,10.33,36.36Z"/>
      <polygon style="fill: #fff;" points="77.35 57.28 77.35 61.09 67.98 61.53 63.73 61.72 55.37 62.11 51 62.3 51 58.18 75.6 57.34 77.35 57.28"/>
      <path style="fill: #fff;" d="M16.23,60.1v.09c-.63,1.61-1.78,2.7-3.09,2.7H9.79c-2,0-3.59-2.52-3.59-5.61s1.51-5.44,3.4-5.6h.26a3.51,3.51,0,0,1,1.85,2A20.08,20.08,0,0,1,13,59.83h0a.45.45,0,0,1,0,.08Z"/>
      <path style="fill: #fff;" d="M68,61.53v.19c-.66,2.65-2.32,4.53-4.25,4.53H59.51c-1.82,0-3.39-1.65-4.12-4l0-.09,8.36-.39Z"/>
      <path style="fill: #fff;" d="M48,62.89,48,63c-.56,2.93-2.31,5.07-4.37,5.07H39.43c-2.51,0-4.54-3.18-4.54-7.1s2-7.09,4.54-7.09l1.4,0h.1a4.28,4.28,0,0,1,1.49,1.73c1.45,2.8,1.2,7.21,1.2,7.21Z"/>
      <rect style="fill: #fff;" x="0.59" y="37.39" width="2.38" height="5.4"/>
    </g>
    <g>
      <g>
        <polygon style="fill: none; stroke: #414042; stroke-linecap: round; stroke-linejoin: round;" points="79.41 15.39 79.41 51.67 52.54 52.52 11.7 51.78 11.7 19.3 52.75 11.89 79.41 15.39"/>
        <line style="fill: none; stroke: #414042; stroke-linecap: round; stroke-linejoin: round;" x1="52.75" y1="11.9" x2="52.54" y2="52.52"/>
        <path style="fill: none; stroke: #414042; stroke-linecap: round; stroke-linejoin: round;" d="M11.7,32.42s-6,.69-7.3,4.55S3,56.49,3,56.49H5.54s1-5.35,4.05-4.87S13,59.92,13,59.92l20.37,1.13s.49-7.54,5.64-7.61,4.58,9.45,4.58,9.45h6.54"/>
        <path style="fill: none; stroke: #414042; stroke-linecap: round; stroke-linejoin: round;" d="M10.33,36.37V47.12H4.12a53,53,0,0,1,.61-7.86,3.41,3.41,0,0,1,3.05-2.77C9.12,36.37,10.33,36.37,10.33,36.37Z"/>
        <line style="fill: none; stroke: #414042; stroke-linecap: round; stroke-linejoin: round;" x1="66.7" y1="13.72" x2="66.7" y2="52.07"/>
        <polygon style="fill: none; stroke: #414042; stroke-linecap: round; stroke-linejoin: round;" points="51 62.3 77.34 61.09 77.34 57.28 51 58.18 51 62.3"/>
        <path style="fill: none; stroke: #414042; stroke-linecap: round; stroke-linejoin: round;" d="M50.15,62.89s.62-6.78-2.69-9"/>
        <g>
          <path style="fill: none; stroke: #414042; stroke-linecap: round; stroke-linejoin: round;" d="M9.6,51.68c-1.89.16-3.4,2.61-3.4,5.6s1.61,5.61,3.6,5.61c1.35,0,2.54-1.18,3.15-2.91"/>
          <path style="fill: none; stroke: #414042; stroke-linecap: round; stroke-linejoin: round;" d="M13.14,62.89c1.3,0,2.44-1.09,3.07-2.71"/>
          <line style="fill: none; stroke: #414042; stroke-linecap: round; stroke-linejoin: round;" x1="13.14" y1="62.89" x2="9.8" y2="62.89"/>
        </g>
        <g>
          <ellipse style="fill: none; stroke: #414042; stroke-linecap: round; stroke-linejoin: round;" cx="39.43" cy="61.01" rx="4.55" ry="7.09"/>
          <path style="fill: none; stroke: #414042; stroke-linecap: round; stroke-linejoin: round;" d="M43.66,68.11c2.05,0,3.79-2.14,4.36-5.06"/>
          <line style="fill: none; stroke: #414042; stroke-linecap: round; stroke-linejoin: round;" x1="43.66" y1="68.11" x2="39.43" y2="68.11"/>
          <line style="fill: none; stroke: #414042; stroke-linecap: round; stroke-linejoin: round;" x1="40.83" y1="53.95" x2="39.43" y2="53.92"/>
        </g>
        <g>
          <path style="fill: none; stroke: #414042; stroke-linecap: round; stroke-linejoin: round;" d="M55.39,62.19c.73,2.41,2.3,4.07,4.12,4.07s3.55-1.84,4.22-4.45"/>
          <path style="fill: none; stroke: #414042; stroke-linecap: round; stroke-linejoin: round;" d="M63.73,66.26c1.94,0,3.59-1.89,4.25-4.54"/>
          <line style="fill: none; stroke: #414042; stroke-linecap: round; stroke-linejoin: round;" x1="63.73" y1="66.26" x2="59.51" y2="66.26"/>
        </g>
        <line style="fill: none; stroke: #414042; stroke-linecap: round; stroke-linejoin: round;" x1="69.91" y1="14.14" x2="69.91" y2="51.51"/>
        <line style="fill: none; stroke: #414042; stroke-linecap: round; stroke-linejoin: round;" x1="63.34" y1="13.34" x2="63.34" y2="51.91"/>
        <line style="fill: none; stroke: #414042; stroke-linecap: round; stroke-linejoin: round;" x1="51" y1="61.9" x2="50.19" y2="61.9"/>
      </g>
      <rect style="fill: none; stroke: #414042; stroke-linecap: round; stroke-linejoin: round;" x="0.59" y="37.39" width="2.38" height="5.4" transform="translate(3.57 80.18) rotate(-180)"/>
      <line style="fill: none; stroke: #414042; stroke-linecap: round; stroke-linejoin: round;" x1="75.6" y1="51.79" x2="75.6" y2="57.33"/>
    </g>
  </g>
</svg>
