<svg id="a010a4f3-2973-4bcd-8069-1ec31e390788" data-name="Layer 1" xmlns="http://www.w3.org/2000/svg" viewBox="0 0 80 80">
  <title>43</title>
  <g>
    <g>
      <path fill="#fff" d="M51.38,79l-2.84-.14C42.28,65.68,42.66,26.68,42.67,25h.08l1.36.24,1.17.21C45.28,25.87,45.38,66.34,51.38,79Z"/>
      <path fill="#fff" d="M58.44,79l-2.52,0h-.13c-3.51-10.78-4.39-51.23-4.43-52.94h.06c.83,0,1.66.06,2.46.05H54C54,26.55,55.05,68.55,58.44,79Z"/>
      <path fill="#fff" d="M65.16,78.48H65l-2.39.24h0c-2-12.55-2.82-51.47-2.85-53.1h0c.85-.15,1.67-.34,2.46-.56l0,0C62.31,25.45,63.19,66.11,65.16,78.48Z"/>
      <path fill="#fff" d="M78.14,1V6.6s-5.83,10-9.36,14.53a12.9,12.9,0,0,1-6.48,3.92l0,0-2.46.56a34,34,0,0,1-5.84.5h-.07l-2.46-.05h-.06a60.49,60.49,0,0,1-7.25-.82l-.63-.11L42.75,25h-.08c-1-.15-2.12-.3-3.38-.43h0C36.62,26,32.63,26.68,28.6,27h0c0,.09,0,1.19,0,3,0,1.42.09,3.29.18,5.47.07,1.59.16,3.34.28,5.2.09,1.47.2,3,.33,4.6l.09,1.09L.72,46.81V1Z"/>
      <path fill="#fadc0f" d="M48.54,78.82c-3.06-.18-5.82-.46-8-.78a6.27,6.27,0,0,1-4.29-2.66,18,18,0,0,1-1.46-2.67A36.31,36.31,0,0,1,33.07,68c-.45-1.53-.85-3.19-1.22-4.92s-.71-3.63-1-5.53c-.26-1.7-.5-3.42-.7-5.15-.24-2-.44-4-.62-5.94l-.09-1.09c-.13-1.59-.24-3.13-.33-4.6-.12-1.86-.21-3.61-.28-5.2-.09-2.18-.15-4-.18-5.47,0-1.84,0-2.94,0-3h0c4-.36,8-1.09,10.68-2.46h0c1.26.13,2.4.28,3.38.43C42.66,26.68,42.28,65.68,48.54,78.82Z"/>
      <path fill="#fadc0f" d="M55.79,79c-1.5,0-3,0-4.41-.06-6-12.62-6.1-53.09-6.1-53.49l-1.17-.21a60.49,60.49,0,0,0,7.25.82C51.4,27.79,52.28,68.24,55.79,79Z"/>
      <path fill="#fff" d="M51.38,79c-1,0-1.92-.08-2.84-.14"/>
      <path fill="#fadc0f" d="M62.6,78.74c-1.37.11-2.77.19-4.16.23C55.05,68.55,54,26.55,54,26.13a34,34,0,0,0,5.84-.5h0C59.78,27.27,60.6,66.19,62.6,78.74Z"/>
      <path fill="#fff" d="M65,78.49c-.79.1-1.58.18-2.39.24"/>
      <path fill="#fff" d="M58.44,79c-.84,0-1.68,0-2.52,0"/>
      <path fill="#fadc0f" d="M79.28,40.57c0,3.06,0,5.94-.15,8.66-.06,2-.16,3.84-.28,5.63q-.21,3.18-.54,6h0c-.19,1.75-.43,3.4-.69,5s-.6,3.15-1,4.58q-.28,1.14-.6,2.19a6.27,6.27,0,0,1-.37,1A7.06,7.06,0,0,1,71,77.45a47,47,0,0,1-5.83,1c-2-12.37-2.85-53-2.86-53.43a12.9,12.9,0,0,0,6.48-3.92C72.31,16.6,78.14,6.6,78.14,6.6c.08,1.29.14,2.57.21,3.82.09,1.74.18,3.45.26,5.12s.16,3.44.22,5.1q.15,3.41.24,6.61c.07,2.34.13,4.59.16,6.77S79.29,38.47,79.28,40.57Z"/>
    </g>
    <g fill="none" stroke="#414042" stroke-linecap="round" stroke-linejoin="round">
      <line x1="29.67" y1="46.44" x2="0.72" y2="46.81"/>
      <polyline points="14.28 23.18 14.28 30.2 1.63 37.25"/>
      <path d="M78.14,6.6s-5.83,10-9.36,14.53c-4.51,5.47-15.27,5.84-25.3,4S1.93,22.9,1.93,22.9"/>
      <path d="M14.28,27.22s17.64,1.17,25-2.64"/>
      <path d="M28.6,27s.08,37.17,7.65,48.34A6.27,6.27,0,0,0,40.54,78c7.26,1.06,21,1.76,30.45-.59a7.07,7.07,0,0,0,5.07-4.85c3.77-12.55,3.9-33.55,2.08-66"/>
      <path d="M28.65,30.08A31.61,31.61,0,0,0,36,30.3"/>
      <path d="M28.83,35.55a37.64,37.64,0,0,0,7.21.23"/>
      <path d="M29.11,40.75a40.48,40.48,0,0,0,6.93.18"/>
      <path d="M29.44,45.35a67.26,67.26,0,0,0,7.1.74"/>
      <path d="M30.15,52.38a36.1,36.1,0,0,0,7.08.87"/>
      <path d="M30.85,57.53a34.56,34.56,0,0,0,6.79,1.79"/>
      <path d="M31.85,63.06a32.77,32.77,0,0,0,6.93,2.28"/>
      <path d="M33.07,68a25.72,25.72,0,0,0,6.67,2.15"/>
      <path d="M34.79,72.71a36.93,36.93,0,0,0,6,2.16"/>
      <path d="M78.35,10.43a4.2,4.2,0,0,1-2,.35"/>
      <path d="M78.61,15.54A32.51,32.51,0,0,1,73,16.6"/>
      <path d="M78.83,20.65a52,52,0,0,1-7.8,2"/>
      <path d="M79.07,27.25a24.64,24.64,0,0,1-9.26,2"/>
      <path d="M79.28,34s-5.45,2.74-9.71,2.92"/>
      <path d="M79.28,40.57s-5.18,3.4-10,3.49"/>
      <path d="M79.13,49.23S73.64,53,69.3,53.34"/>
      <path d="M78.85,54.86S74,58.36,69,59.06"/>
      <path d="M78.32,60.86s-4.68,3.06-9,3.76"/>
      <path d="M77.62,65.83A19.57,19.57,0,0,1,69,69.05"/>
      <path d="M76.66,70.41a24.32,24.32,0,0,1-8,2.42"/>
      <path d="M75.69,73.57a21.25,21.25,0,0,1-6.39,1.64"/>
      <path d="M48.54,78.82C42.28,65.68,42.66,26.68,42.67,25l2.61.46c0,.4.1,40.87,6.1,53.49Z"/>
      <path d="M55.79,79c-3.51-10.77-4.39-51.23-4.43-52.94l2.59.05c0,.42,1.1,42.43,4.49,52.84Z"/>
      <path d="M62.6,78.74c-2-12.55-2.82-51.47-2.85-53.1l2.55-.59c0,.4.89,41.06,2.86,53.43Z"/>
    </g>
  </g>
</svg>
