<svg id="bfe92328-0306-4764-8530-4c7eed29d6a6" data-name="Layer 1" xmlns="http://www.w3.org/2000/svg" viewBox="0 0 80 80">
  <title>44</title>
  <g>
    <g>
      <g>
        <g>
          <path style="fill: #fadc0f;" d="M10.64,50.73A26.75,26.75,0,1,0,37.39,24,26.75,26.75,0,0,0,10.64,50.73Zm7.07,0A19.68,19.68,0,1,1,37.39,70.4,19.67,19.67,0,0,1,17.71,50.73Z"/>
          <path style="fill: #fff;" d="M17.71,50.73A19.68,19.68,0,1,0,37.39,31.05,19.67,19.67,0,0,0,17.71,50.73ZM46,52a8.7,8.7,0,0,0,0-2.63l7.28-4.84a17,17,0,0,1,0,12.31ZM40,67.53l.57-8.71a8.63,8.63,0,0,0,2.28-1.33l7.82,3.88A17,17,0,0,1,40,67.53Zm0-33.6a17,17,0,0,1,10.67,6.16L42.81,44a8.43,8.43,0,0,0-2.27-1.32Zm-5.17,0-.57,8.71A8.53,8.53,0,0,0,32,44l-7.84-3.87A17,17,0,0,1,34.8,33.93ZM24.13,61.37,32,57.49a8.74,8.74,0,0,0,2.27,1.33l.57,8.71A17,17,0,0,1,24.13,61.37Zm-2.59-4.49a17,17,0,0,1,0-12.31l7.27,4.84a8.7,8.7,0,0,0,0,2.63Z"/>
          <g>
            <circle style="fill: #fff;" cx="37.39" cy="50.73" r="4.45"/>
            <circle style="fill: #fadc0f; stroke: #fadc0f; stroke-miterlimit: 10;" cx="37.39" cy="44.02" r="0.85"/>
            <circle style="fill: #fadc0f; stroke: #fadc0f; stroke-miterlimit: 10;" cx="43.2" cy="47.37" r="0.85"/>
            <circle style="fill: #fadc0f; stroke: #fadc0f; stroke-miterlimit: 10;" cx="43.2" cy="54.08" r="0.85"/>
            <circle style="fill: #fadc0f; stroke: #fadc0f; stroke-miterlimit: 10;" cx="37.39" cy="57.44" r="0.85"/>
            <circle style="fill: #fadc0f; stroke: #fadc0f; stroke-miterlimit: 10;" cx="31.58" cy="54.08" r="0.85"/>
            <circle style="fill: #fadc0f; stroke: #fadc0f; stroke-miterlimit: 10;" cx="31.58" cy="47.37" r="0.85"/>
          </g>
          <path style="fill: #fff;" d="M69.58,55.47h9.7V2.53H.72V55.47H5.19V55.4a32.81,32.81,0,1,1,65-6.29,32.43,32.43,0,0,1-.6,6.27Z"/>
        </g>
        <g>
          <circle style="fill: none; stroke: #414042; stroke-linecap: round; stroke-linejoin: round;" cx="37.39" cy="50.73" r="4.45"/>
          <path style="fill: none; stroke: #414042; stroke-linecap: round; stroke-linejoin: round;" d="M46.06,50.73A8.08,8.08,0,0,1,46,52l7.28,4.84a17,17,0,0,0,0-12.31L46,49.41A8.12,8.12,0,0,1,46.06,50.73Z"/>
          <path style="fill: none; stroke: #414042; stroke-linecap: round; stroke-linejoin: round;" d="M40,33.93l.57,8.71A8.43,8.43,0,0,1,42.81,44l7.83-3.87A17,17,0,0,0,40,33.93Z"/>
          <path style="fill: none; stroke: #414042; stroke-linecap: round; stroke-linejoin: round;" d="M40,67.53a17,17,0,0,0,10.67-6.16l-7.82-3.88a8.63,8.63,0,0,1-2.28,1.33Z"/>
          <path style="fill: none; stroke: #414042; stroke-linecap: round; stroke-linejoin: round;" d="M24.13,61.37A17,17,0,0,0,34.8,67.53l-.57-8.71A8.74,8.74,0,0,1,32,57.49Z"/>
          <path style="fill: none; stroke: #414042; stroke-linecap: round; stroke-linejoin: round;" d="M24.13,40.09,32,44a8.53,8.53,0,0,1,2.26-1.32l.57-8.71A17,17,0,0,0,24.13,40.09Z"/>
          <path style="fill: none; stroke: #414042; stroke-linecap: round; stroke-linejoin: round;" d="M20.39,50.73a16.93,16.93,0,0,0,1.15,6.15L28.81,52a8.7,8.7,0,0,1,0-2.63l-7.27-4.84A17,17,0,0,0,20.39,50.73Z"/>
          <path style="fill: none; stroke: #414042; stroke-linecap: round; stroke-linejoin: round;" d="M46.06,50.73A8.08,8.08,0,0,1,46,52l7.28,4.84a17,17,0,0,0,0-12.31L46,49.41A8.12,8.12,0,0,1,46.06,50.73Z"/>
          <path style="fill: none; stroke: #414042; stroke-linecap: round; stroke-linejoin: round;" d="M40,33.93l.57,8.71A8.43,8.43,0,0,1,42.81,44l7.83-3.87A17,17,0,0,0,40,33.93Z"/>
          <path style="fill: none; stroke: #414042; stroke-linecap: round; stroke-linejoin: round;" d="M40,67.53a17,17,0,0,0,10.67-6.16l-7.82-3.88a8.63,8.63,0,0,1-2.28,1.33Z"/>
          <path style="fill: none; stroke: #414042; stroke-linecap: round; stroke-linejoin: round;" d="M24.13,61.37A17,17,0,0,0,34.8,67.53l-.57-8.71A8.74,8.74,0,0,1,32,57.49Z"/>
          <path style="fill: none; stroke: #414042; stroke-linecap: round; stroke-linejoin: round;" d="M24.13,40.09,32,44a8.53,8.53,0,0,1,2.26-1.32l.57-8.71A17,17,0,0,0,24.13,40.09Z"/>
          <path style="fill: none; stroke: #414042; stroke-linecap: round; stroke-linejoin: round;" d="M20.39,50.73a16.93,16.93,0,0,0,1.15,6.15L28.81,52a8.7,8.7,0,0,1,0-2.63l-7.27-4.84A17,17,0,0,0,20.39,50.73Z"/>
          <path style="fill: none; stroke: #414042; stroke-linecap: round; stroke-linejoin: round;" d="M17.71,50.73A19.68,19.68,0,1,0,37.39,31.05,19.67,19.67,0,0,0,17.71,50.73ZM46,52a8.7,8.7,0,0,0,0-2.63l7.28-4.84a17,17,0,0,1,0,12.31ZM40,67.53l.57-8.71a8.63,8.63,0,0,0,2.28-1.33l7.82,3.88A17,17,0,0,1,40,67.53Zm0-33.6a17,17,0,0,1,10.67,6.16L42.81,44a8.43,8.43,0,0,0-2.27-1.32Zm-5.17,0-.57,8.71A8.53,8.53,0,0,0,32,44l-7.84-3.87A17,17,0,0,1,34.8,33.93ZM24.13,61.37,32,57.49a8.74,8.74,0,0,0,2.27,1.33l.57,8.71A17,17,0,0,1,24.13,61.37Zm-2.59-4.49a17,17,0,0,1,0-12.31l7.27,4.84a8.7,8.7,0,0,0,0,2.63Z"/>
          <circle style="fill: none; stroke: #414042; stroke-linecap: round; stroke-linejoin: round;" cx="37.39" cy="50.73" r="26.75"/>
          <path style="fill: none; stroke: #414042; stroke-linecap: round; stroke-linejoin: round;" d="M69.6,55.38a32.43,32.43,0,0,0,.6-6.27,32.82,32.82,0,1,0-65,6.29"/>
          <line style="fill: none; stroke: #414042; stroke-linecap: round; stroke-linejoin: round;" x1="69.58" y1="55.47" x2="79.28" y2="55.47"/>
          <line style="fill: none; stroke: #414042; stroke-linecap: round; stroke-linejoin: round;" x1="5.19" y1="55.47" x2="0.72" y2="55.47"/>
          <path style="fill: none; stroke: #414042; stroke-linecap: round; stroke-linejoin: round;" d="M78,47S78,21.18,56.39,12.7V2.53"/>
          <line style="fill: none; stroke: #414042; stroke-linecap: round; stroke-linejoin: round;" x1="22.37" y1="19.93" x2="1.62" y2="19.93"/>
        </g>
      </g>
      <line style="fill: none; stroke: #414042; stroke-linecap: round; stroke-linejoin: round;" x1="37.39" y1="23.98" x2="37.39" y2="27.02"/>
      <line style="fill: none; stroke: #414042; stroke-linecap: round; stroke-linejoin: round;" x1="27.15" y1="26.01" x2="28.32" y2="28.83"/>
      <line style="fill: none; stroke: #414042; stroke-linecap: round; stroke-linejoin: round;" x1="18.47" y1="31.81" x2="20.63" y2="33.96"/>
      <line style="fill: none; stroke: #414042; stroke-linecap: round; stroke-linejoin: round;" x1="12.68" y1="40.49" x2="15.49" y2="41.65"/>
      <line style="fill: none; stroke: #414042; stroke-linecap: round; stroke-linejoin: round;" x1="10.64" y1="50.73" x2="13.68" y2="50.73"/>
      <line style="fill: none; stroke: #414042; stroke-linecap: round; stroke-linejoin: round;" x1="12.68" y1="60.96" x2="15.49" y2="59.8"/>
      <line style="fill: none; stroke: #414042; stroke-linecap: round; stroke-linejoin: round;" x1="18.47" y1="69.64" x2="20.63" y2="67.49"/>
      <line style="fill: none; stroke: #414042; stroke-linecap: round; stroke-linejoin: round;" x1="27.15" y1="75.44" x2="28.32" y2="72.63"/>
      <line style="fill: none; stroke: #414042; stroke-linecap: round; stroke-linejoin: round;" x1="37.39" y1="77.47" x2="37.39" y2="74.43"/>
      <line style="fill: none; stroke: #414042; stroke-linecap: round; stroke-linejoin: round;" x1="47.62" y1="75.44" x2="46.46" y2="72.63"/>
      <line style="fill: none; stroke: #414042; stroke-linecap: round; stroke-linejoin: round;" x1="56.3" y1="69.64" x2="54.15" y2="67.49"/>
      <line style="fill: none; stroke: #414042; stroke-linecap: round; stroke-linejoin: round;" x1="62.1" y1="60.96" x2="59.29" y2="59.8"/>
      <line style="fill: none; stroke: #414042; stroke-linecap: round; stroke-linejoin: round;" x1="64.14" y1="50.73" x2="61.09" y2="50.73"/>
      <line style="fill: none; stroke: #414042; stroke-linecap: round; stroke-linejoin: round;" x1="62.1" y1="40.49" x2="59.29" y2="41.65"/>
      <line style="fill: none; stroke: #414042; stroke-linecap: round; stroke-linejoin: round;" x1="56.3" y1="31.81" x2="54.15" y2="33.96"/>
      <line style="fill: none; stroke: #414042; stroke-linecap: round; stroke-linejoin: round;" x1="47.62" y1="26.01" x2="46.46" y2="28.83"/>
    </g>
    <g>
      <path style="fill: #fadc0f;" d="M76.88,25.5H52.69a1.3,1.3,0,0,1-1.11-2L63.67,3.91a1.31,1.31,0,0,1,2.22,0L78,23.51A1.31,1.31,0,0,1,76.88,25.5Z"/>
      <path style="fill: none; stroke: #414042; stroke-linecap: round; stroke-linejoin: round;" d="M76.88,25.5H52.69a1.3,1.3,0,0,1-1.11-2L63.67,3.91a1.31,1.31,0,0,1,2.22,0L78,23.51A1.31,1.31,0,0,1,76.88,25.5Z"/>
      <line style="fill: none; stroke: #414042; stroke-linecap: round; stroke-linejoin: round;" x1="64.78" y1="10.46" x2="64.78" y2="17.68"/>
      <circle style="fill: none; stroke: #414042; stroke-linecap: round; stroke-linejoin: round;" cx="64.78" cy="20.54" r="0.61"/>
    </g>
  </g>
</svg>
