<svg id="e278ba84-be14-4485-ac30-652d1f4d2ffd" data-name="Layer 1" xmlns="http://www.w3.org/2000/svg" viewBox="0 0 80 80">
  <title>45(2)</title>
  <g>
    <circle style="fill: #e41414;" cx="10.25" cy="66.85" r="9.54"/>
    <circle style="fill: #e41414;" cx="61.02" cy="66.85" r="9.54"/>
    <path style="fill: none; stroke: #414042; stroke-linecap: round; stroke-linejoin: round; stroke-width: 0.5px;" d="M9,76.31A9.53,9.53,0,0,1,5.76,58.44"/>
    <path style="fill: none; stroke: #414042; stroke-linecap: round; stroke-linejoin: round; stroke-width: 0.5px;" d="M64.73,58.06a9.53,9.53,0,0,1-2.08,18.18"/>
    <g>
      <g>
        <path style="fill: #fadc0f;" d="M12.19,60.66v2.09h-.7V73.19a5.69,5.69,0,0,1-1,.09,6.43,6.43,0,0,1,0-12.86A6.11,6.11,0,0,1,12.19,60.66Z"/>
        <path style="fill: #fadc0f;" d="M67.07,66.85a6.43,6.43,0,0,1-6.43,6.43,6,6,0,0,1-.86-.06V62.75h-.71V60.62a6.25,6.25,0,0,1,1.57-.2A6.43,6.43,0,0,1,67.07,66.85Z"/>
        <rect style="fill: #fff;" x="7.88" y="0.94" width="27.52" height="59.07"/>
        <rect style="fill: #fff;" x="35.4" y="0.94" width="27.41" height="59.07"/>
        <polygon style="fill: #fff;" points="59.78 62.75 59.78 71.31 40.3 71.31 40.27 71.32 40.27 68.54 30.53 68.54 30.53 71.31 11.49 71.31 11.49 62.75 59.78 62.75"/>
        <rect style="fill: #fff;" x="12.19" y="60.01" width="46.88" height="2.74"/>
        <path style="fill: #fff;" d="M18.27,71.31v6A1.66,1.66,0,0,1,16.6,79H13.16a1.67,1.67,0,0,1-1.67-1.67v-6Z"/>
        <path style="fill: #fff;" d="M25.05,71.31v6A1.67,1.67,0,0,1,23.38,79H19.94a1.67,1.67,0,0,1-1.67-1.67v-6Z"/>
        <path style="fill: #fff;" d="M53,71.31v6A1.67,1.67,0,0,1,51.33,79H47.89a1.67,1.67,0,0,1-1.67-1.67v-6Z"/>
        <path style="fill: #fff;" d="M59.78,71.31v6A1.67,1.67,0,0,1,58.11,79H54.67A1.66,1.66,0,0,1,53,77.31v-6Z"/>
        <circle style="fill: #fadc0f;" cx="14.88" cy="66.85" r="1.4"/>
        <circle style="fill: #e41414;" cx="19.51" cy="66.85" r="1.4"/>
        <circle style="fill: #e41414;" cx="51.41" cy="66.85" r="1.4"/>
        <polygon style="fill: #fadc0f;" points="78.86 39.45 59.95 58.35 55.97 54.36 49.44 47.83 53.31 43.96 59.85 50.49 74.88 35.45 78.86 39.45"/>
        <circle style="fill: #fadc0f;" cx="56.04" cy="66.85" r="1.4"/>
        <rect style="fill: #fff;" x="30.53" y="68.54" width="9.74" height="4.47"/>
      </g>
      <g>
        <g>
          <polyline style="fill: none; stroke: #414042; stroke-linecap: round; stroke-linejoin: round;" points="62.81 55.77 62.81 60.02 7.89 60.02 7.89 0.94 62.81 0.94 62.81 15.47 62.81 47.39"/>
          <polyline style="fill: none; stroke: #414042; stroke-linecap: round; stroke-linejoin: round;" points="30.49 71.31 11.49 71.31 11.49 62.75 59.78 62.75 59.78 71.31 40.3 71.31"/>
          <rect style="fill: none; stroke: #414042; stroke-linecap: round; stroke-linejoin: round;" x="12.19" y="60.02" width="46.88" height="2.73"/>
          <path style="fill: none; stroke: #414042; stroke-linecap: round; stroke-linejoin: round;" d="M11.49,71.31h6.78a0,0,0,0,1,0,0v6A1.67,1.67,0,0,1,16.6,79H13.16a1.67,1.67,0,0,1-1.67-1.67v-6A0,0,0,0,1,11.49,71.31Z"/>
          <path style="fill: none; stroke: #414042; stroke-linecap: round; stroke-linejoin: round;" d="M18.27,71.31h6.78a0,0,0,0,1,0,0v6A1.67,1.67,0,0,1,23.38,79H19.94a1.67,1.67,0,0,1-1.67-1.67v-6A0,0,0,0,1,18.27,71.31Z"/>
          <path style="fill: none; stroke: #414042; stroke-linecap: round; stroke-linejoin: round;" d="M46.22,71.31H53a0,0,0,0,1,0,0v6A1.67,1.67,0,0,1,51.33,79H47.89a1.67,1.67,0,0,1-1.67-1.67v-6A0,0,0,0,1,46.22,71.31Z"/>
          <path style="fill: none; stroke: #414042; stroke-linecap: round; stroke-linejoin: round;" d="M53,71.31h6.78a0,0,0,0,1,0,0v6A1.67,1.67,0,0,1,58.11,79H54.67A1.67,1.67,0,0,1,53,77.31v-6A0,0,0,0,1,53,71.31Z"/>
          <circle style="fill: none; stroke: #fadc0f; stroke-linecap: round; stroke-linejoin: round;" cx="14.88" cy="66.85" r="1.4"/>
          <circle style="fill: none; stroke: #e41414; stroke-linecap: round; stroke-linejoin: round;" cx="19.51" cy="66.85" r="1.4"/>
          <circle style="fill: none; stroke: #e41414; stroke-linecap: round; stroke-linejoin: round;" cx="51.41" cy="66.85" r="1.4"/>
          <circle style="fill: none; stroke: #fadc0f; stroke-linecap: round; stroke-linejoin: round;" cx="56.04" cy="66.85" r="1.4"/>
          <rect style="fill: none; stroke: #414042; stroke-linecap: round; stroke-linejoin: round;" x="30.53" y="68.54" width="9.74" height="4.46"/>
          <line style="fill: none; stroke: #414042; stroke-linecap: round; stroke-linejoin: round;" x1="35.4" y1="0.94" x2="35.4" y2="60.02"/>
          <g>
            <line style="fill: none; stroke: #414042; stroke-linecap: round; stroke-linejoin: round;" x1="30.73" y1="21.83" x2="30.73" y2="39.13"/>
            <line style="fill: none; stroke: #414042; stroke-linecap: round; stroke-linejoin: round;" x1="40.08" y1="21.83" x2="40.08" y2="39.13"/>
          </g>
        </g>
        <polygon style="fill: none; stroke: #414042; stroke-linecap: round; stroke-linejoin: round;" points="78.86 39.45 59.95 58.35 55.97 54.36 49.44 47.83 53.31 43.96 59.85 50.49 74.88 35.45 78.86 39.45"/>
        <g>
          <line style="fill: none; stroke: #414042; stroke-linecap: round; stroke-linejoin: round;" x1="9.02" y1="64.95" x2="6.93" y2="64.07"/>
          <line style="fill: none; stroke: #414042; stroke-linecap: round; stroke-linejoin: round;" x1="6.93" y1="69.63" x2="9.02" y2="68.76"/>
          <line style="fill: none; stroke: #414042; stroke-linecap: round; stroke-linejoin: round;" x1="9.02" y1="66.85" x2="6.85" y2="66.85"/>
        </g>
        <g>
          <line style="fill: none; stroke: #414042; stroke-linecap: round; stroke-linejoin: round;" x1="61.99" y1="64.95" x2="64.07" y2="64.07"/>
          <line style="fill: none; stroke: #414042; stroke-linecap: round; stroke-linejoin: round;" x1="64.07" y1="69.63" x2="61.99" y2="68.76"/>
          <line style="fill: none; stroke: #414042; stroke-linecap: round; stroke-linejoin: round;" x1="61.99" y1="66.85" x2="64.15" y2="66.85"/>
        </g>
        <path style="fill: none; stroke: #414042; stroke-linecap: round; stroke-linejoin: round; stroke-width: 0.5px;" d="M10,73.26a6.43,6.43,0,0,1-2.66-12"/>
        <path style="fill: none; stroke: #414042; stroke-linecap: round; stroke-linejoin: round; stroke-width: 0.5px;" d="M64.44,61.67A6.42,6.42,0,0,1,61.7,73.19"/>
      </g>
    </g>
  </g>
</svg>
