<svg id="aa7a9d7c-d1d4-4742-a44a-4b8446ed4f56" data-name="Layer 1" xmlns="http://www.w3.org/2000/svg" viewBox="0 0 80 80">
  <title>46</title>
  <g>
    <g>
      <path style="fill:#fadc0f;" d="M50.49,27.14a12.36,12.36,0,0,0-8.29,7.39.65.65,0,0,1-1.26-.07,12.39,12.39,0,0,0-5.2-7.15,12.1,12.1,0,0,0-2.23-1.16.65.65,0,0,1,.07-1.25,12.46,12.46,0,0,0,8.35-7.39.65.65,0,0,1,1.26.07,12.39,12.39,0,0,0,7.34,8.3h0A.65.65,0,0,1,50.49,27.14Z"/>
      <path style="fill:#fff;" d="M79.11,24.55C75.59,53.56,52.47,58,52.47,58L8.63,62.89a6.93,6.93,0,0,1-7.57-8.36C6.71,29.85,28.53,28,28.53,28l7.13-.69h.08a12.39,12.39,0,0,1,5.2,7.15.65.65,0,0,0,1.26.07,12.36,12.36,0,0,1,8.29-7.39.65.65,0,0,0,.07-1.25h.07l27.25-2.6A1.14,1.14,0,0,1,79.11,24.55Z"/>
    </g>
    <g>
      <path style="fill:none;stroke:#414042;stroke-linecap:round;stroke-linejoin:round;" d="M50.49,27.14a12.36,12.36,0,0,0-8.29,7.39.65.65,0,0,1-1.26-.07,12.42,12.42,0,0,0-7.43-8.31.65.65,0,0,1,.07-1.26,12.45,12.45,0,0,0,8.35-7.38.65.65,0,0,1,1.26.07,12.38,12.38,0,0,0,7.37,8.31A.65.65,0,0,1,50.49,27.14Z"/>
      <path style="fill:none;stroke:#414042;stroke-linecap:round;stroke-linejoin:round;" d="M35.65,27.32,28.53,28S6.71,29.85,1.06,54.53a6.93,6.93,0,0,0,7.57,8.36L52.47,58s23.11-4.45,26.64-33.46a1.14,1.14,0,0,0-1.23-1.28l-27.26,2.6"/>
      <path style="fill:none;stroke:#414042;stroke-linecap:round;stroke-linejoin:round;" d="M60.65,24.91s4.62,27.79-11,33.41"/>
      <g>
        <circle style="fill:none;stroke:#414042;stroke-linecap:round;stroke-linejoin:round;" cx="17.65" cy="48.88" r="9.22"/>
        <path style="fill:none;stroke:#414042;stroke-linecap:round;stroke-linejoin:round;" d="M16.82,52a3.25,3.25,0,1,1,3.78-4.53"/>
        <path style="fill:none;stroke:#414042;stroke-linecap:round;stroke-linejoin:round;" d="M23.61,48.82a6.11,6.11,0,0,1-5.75,6.1"/>
        <path style="fill:none;stroke:#414042;stroke-linecap:round;stroke-linejoin:round;" d="M11.39,48.72a6.11,6.11,0,0,1,6.11-6"/>
      </g>
      <g>
        <path style="fill:none;stroke:#414042;stroke-linecap:round;stroke-linejoin:round;" d="M45.56,30a13.26,13.26,0,1,1-7.43-.06"/>
        <path style="fill:none;stroke:#414042;stroke-linecap:round;stroke-linejoin:round;" d="M40.54,47.21A4.68,4.68,0,1,1,46,40.69"/>
        <path style="fill:none;stroke:#414042;stroke-linecap:round;stroke-linejoin:round;" d="M50.3,42.61A8.79,8.79,0,0,1,42,51.38"/>
        <path style="fill:none;stroke:#414042;stroke-linecap:round;stroke-linejoin:round;" d="M32.73,42.45a8.8,8.8,0,0,1,7.65-8.56"/>
      </g>
    </g>
  </g>
</svg>
