<svg id="a45da8b9-06f2-4878-905b-81c50ef65972" data-name="Layer 1" xmlns="http://www.w3.org/2000/svg" viewBox="0 0 80 80">
  <title>48</title>
  <g>
    <g>
      <circle style="fill: #fadc0f;" cx="6.43" cy="42.64" r="5.77"/>
      <circle style="fill: #fadc0f;" cx="73.91" cy="42.64" r="5.77"/>
      <path style="fill: #fadc0f;" d="M72,40.72c0,1.6-.06,3.18-.16,4.76h-2V40.72Z"/>
      <path style="fill: #fff;" d="M34.73,35.35a1.4,1.4,0,0,1-1.42,1.41H23.24a.55.55,0,0,1-.42-.92l5.54-6.37a1.6,1.6,0,0,1,1.21-.56h4.24a.93.93,0,0,1,.92.93ZM65.51,36a.73.73,0,0,1-.74.74h-25A.74.74,0,0,1,39,36V29.65a.75.75,0,0,1,.74-.74h25a.74.74,0,0,1,.74.74Zm4.28,4.7H72a108.67,108.67,0,0,0-.69-13,1.84,1.84,0,0,0-1.83-1.62H32.29a6.76,6.76,0,0,0-3.87,1.22,46.74,46.74,0,0,0-7.73,6.93A6.35,6.35,0,0,1,18,36c-3.82,1.28-7,2.77-8.81,5.76h3s-.06,3.39-4.36,3.71a5.82,5.82,0,0,0,.37,2.74,4.86,4.86,0,0,0,.24.53,3.7,3.7,0,0,0,3.3,1.84H12.8a4.94,4.94,0,1,1,9.16,0H55.42A4.79,4.79,0,0,1,55.14,49,4.95,4.95,0,0,1,65,49a4.79,4.79,0,0,1-.28,1.62H71a.37.37,0,0,0,.37-.33c.18-1.58.31-3.18.41-4.78h-2Z"/>
      <path style="fill: #fadc0f;" d="M12.19,41.77s-.06,3.39-4.36,3.71A6.13,6.13,0,0,1,8.14,44a10,10,0,0,1,1-2.19Z"/>
      <path style="fill: #fff;" d="M17.38,43.79a4.95,4.95,0,1,0,4.94,4.94A4.94,4.94,0,0,0,17.38,43.79Zm0,7.08a2.14,2.14,0,1,1,2.14-2.14A2.13,2.13,0,0,1,17.38,50.87Z"/>
      <path style="fill: #fff;" d="M19.52,48.73a2.14,2.14,0,1,1-2.14-2.13A2.14,2.14,0,0,1,19.52,48.73Z"/>
      <path style="fill: #fff;" d="M60.09,44a5,5,0,0,0-5,4.94,4.79,4.79,0,0,0,.28,1.62,4.94,4.94,0,0,0,9.33,0A4.79,4.79,0,0,0,65,49,4.94,4.94,0,0,0,60.09,44Zm0,7.07A2.14,2.14,0,1,1,62.22,49,2.13,2.13,0,0,1,60.09,51.1Z"/>
      <path style="fill: #fff;" d="M62.22,49a2.14,2.14,0,1,1-2.13-2.14A2.13,2.13,0,0,1,62.22,49Z"/>
      <path style="fill: #fff;" d="M34.73,29.84v5.51a1.4,1.4,0,0,1-1.42,1.41H23.24a.55.55,0,0,1-.42-.92l5.54-6.37a1.6,1.6,0,0,1,1.21-.56h4.24A.93.93,0,0,1,34.73,29.84Z"/>
      <rect style="fill: #fff;" x="39.01" y="28.91" width="26.5" height="7.85" rx="0.74"/>
    </g>
    <g>
      <g>
        <path style="fill: none; stroke: #414042; stroke-linecap: round; stroke-linejoin: round;" d="M64.91,50.59H71a.37.37,0,0,0,.37-.33,99.4,99.4,0,0,0-.12-22.53,1.85,1.85,0,0,0-1.83-1.64H32.29a6.82,6.82,0,0,0-3.88,1.23,47.61,47.61,0,0,0-7.72,6.93A6.5,6.5,0,0,1,18,36C13.3,37.57,9.61,39.44,8.14,44a6.3,6.3,0,0,0,.06,4.26,4.9,4.9,0,0,0,.24.52,3.69,3.69,0,0,0,3.29,1.85h1"/>
        <line style="fill: none; stroke: #414042; stroke-linecap: round; stroke-linejoin: round;" x1="22.06" y1="50.59" x2="55.35" y2="50.59"/>
        <circle style="fill: none; stroke: #414042; stroke-linecap: round; stroke-linejoin: round;" cx="17.38" cy="48.73" r="2.14"/>
        <circle style="fill: none; stroke: #414042; stroke-linecap: round; stroke-linejoin: round;" cx="17.38" cy="48.73" r="4.94"/>
        <circle style="fill: none; stroke: #414042; stroke-linecap: round; stroke-linejoin: round;" cx="60.08" cy="48.97" r="2.14"/>
        <circle style="fill: none; stroke: #414042; stroke-linecap: round; stroke-linejoin: round;" cx="60.08" cy="48.97" r="4.94"/>
        <path style="fill: none; stroke: #414042; stroke-linecap: round; stroke-linejoin: round;" d="M9.14,41.77h3s-.06,3.39-4.36,3.71"/>
        <path style="fill: none; stroke: #414042; stroke-linecap: round; stroke-linejoin: round;" d="M22.82,35.84l5.54-6.37a1.6,1.6,0,0,1,1.21-.56h4.24a.93.93,0,0,1,.92.93v5.51a1.42,1.42,0,0,1-1.41,1.42H23.24A.56.56,0,0,1,22.82,35.84Z"/>
        <rect style="fill: none; stroke: #414042; stroke-linecap: round; stroke-linejoin: round;" x="39.01" y="28.91" width="26.49" height="7.85" rx="0.74"/>
        <polyline style="fill: none; stroke: #414042; stroke-linecap: round; stroke-linejoin: round;" points="71.95 40.72 69.79 40.72 69.79 45.48 71.7 45.48"/>
      </g>
      <line style="fill: none; stroke: #414042; stroke-linecap: round; stroke-linejoin: round;" x1="6.11" y1="41.56" x2="4.71" y2="40.7"/>
      <line style="fill: none; stroke: #414042; stroke-linecap: round; stroke-linejoin: round;" x1="5.89" y1="44.32" x2="4.25" y2="44.29"/>
      <line style="fill: none; stroke: #414042; stroke-linecap: round; stroke-linejoin: round;" x1="73.66" y1="42.12" x2="75.27" y2="41.43"/>
      <line style="fill: none; stroke: #414042; stroke-linecap: round; stroke-linejoin: round;" x1="73.96" y1="44.75" x2="75.2" y2="44.62"/>
      <line style="fill: none; stroke: #414042; stroke-linecap: round; stroke-linejoin: round;" x1="36.86" y1="29.25" x2="36.86" y2="50.42"/>
      <path style="fill: none; stroke: #414042; stroke-linecap: round; stroke-linejoin: round; stroke-width: 0.5px;" d="M6.43,48.41A5.77,5.77,0,1,1,9.92,38.05"/>
      <path style="fill: none; stroke: #414042; stroke-linecap: round; stroke-linejoin: round; stroke-width: 0.5px;" d="M73.48,36.89l.43,0a5.77,5.77,0,1,1,0,11.54c-.24,0-.47,0-.69,0"/>
    </g>
  </g>
</svg>
