<svg id="abd6ca6f-92a8-4135-9c2e-3963a7b64306" data-name="Layer 1" xmlns="http://www.w3.org/2000/svg" viewBox="0 0 80 80">
  <title>49</title>
  <g>
    <circle style="fill:#fadc0f;" cx="6.17" cy="44.91" r="5.73"/>
    <circle style="fill:#fadc0f;" cx="73.83" cy="46.22" r="5.73"/>
    <g>
      <polygon style="fill:#fadc0f;" points="12.46 45.82 9.4 45.82 9.4 43.2 11.37 43.2 12.46 45.82"/>
      <path style="fill:#fff;" d="M20.32,45.73a4.52,4.52,0,1,0,4.52,4.52A4.52,4.52,0,0,0,20.32,45.73Zm0,6.36a1.85,1.85,0,1,1,0-3.69,1.85,1.85,0,1,1,0,3.69Z"/>
      <path style="fill:#fff;" d="M22.17,50.25a1.85,1.85,0,1,1-1.85-1.85A1.85,1.85,0,0,1,22.17,50.25Z"/>
      <path style="fill:#fff;" d="M48.8,45.73a4.52,4.52,0,1,0,4.52,4.52A4.52,4.52,0,0,0,48.8,45.73Zm0,6.36a1.85,1.85,0,1,1,0-3.69,1.85,1.85,0,1,1,0,3.69Z"/>
      <path style="fill:#fff;" d="M61,45.73a4.52,4.52,0,1,0,4.52,4.52A4.52,4.52,0,0,0,61,45.73Zm0,6.36a1.85,1.85,0,1,1,1.85-1.84A1.84,1.84,0,0,1,61,52.09Z"/>
      <path style="fill:#fff;" d="M62.87,50.25A1.85,1.85,0,1,1,61,48.4,1.84,1.84,0,0,1,62.87,50.25Z"/>
      <path style="fill:#fff;" d="M20.74,31.85v4S19,38.32,11.32,39a19.07,19.07,0,0,1,3-7.13Z"/>
      <rect style="fill:#fff;" x="27.59" y="25.23" width="44.52" height="18.36"/>
      <path style="fill:#fff;" d="M20.74,35.86S19,38.32,11.32,39a19.07,19.07,0,0,1,3-7.13h6.46ZM70.46,45.2V43.6H27.59V32.17a1.82,1.82,0,0,0-1.81-1.82H13.6a1.11,1.11,0,0,0-.9.45,22.93,22.93,0,0,0-3,7.07A8.13,8.13,0,0,0,9.4,40v3.26h2l1.09,2.61H8.84l.32,4.42H15.8a4.52,4.52,0,1,1,9,0H44.28a4.52,4.52,0,1,1,9,0H56.5a4.52,4.52,0,1,1,9,0h4.92V47.73H68.32V45.2Z"/>
      <path style="fill:#fff;" d="M50.65,50.25A1.85,1.85,0,1,1,48.8,48.4,1.85,1.85,0,0,1,50.65,50.25Z"/>
      <rect style="fill:#fadc0f;" x="68.32" y="45.2" width="2.13" height="2.53"/>
    </g>
    <g>
      <path style="fill:none;stroke:#414042;stroke-linecap:round;stroke-linejoin:round;" d="M65.54,50.25h4.92V43.6H27.59V32.17a1.82,1.82,0,0,0-1.82-1.82H13.6a1.11,1.11,0,0,0-.9.45,23.17,23.17,0,0,0-3,7.07A8.15,8.15,0,0,0,9.4,40v5.85l-.57,0,.33,4.42H15.8"/>
      <line style="fill:none;stroke:#414042;stroke-linecap:round;stroke-linejoin:round;" x1="53.32" y1="50.25" x2="56.5" y2="50.25"/>
      <line style="fill:none;stroke:#414042;stroke-linecap:round;stroke-linejoin:round;" x1="24.84" y1="50.25" x2="44.28" y2="50.25"/>
      <circle style="fill:none;stroke:#414042;stroke-linecap:round;stroke-linejoin:round;" cx="20.32" cy="50.25" r="1.85"/>
      <circle style="fill:none;stroke:#414042;stroke-linecap:round;stroke-linejoin:round;" cx="20.32" cy="50.25" r="4.52"/>
      <circle style="fill:none;stroke:#414042;stroke-linecap:round;stroke-linejoin:round;" cx="48.8" cy="50.25" r="1.85"/>
      <circle style="fill:none;stroke:#414042;stroke-linecap:round;stroke-linejoin:round;" cx="48.8" cy="50.25" r="4.52"/>
      <circle style="fill:none;stroke:#414042;stroke-linecap:round;stroke-linejoin:round;" cx="61.02" cy="50.25" r="1.85"/>
      <circle style="fill:none;stroke:#414042;stroke-linecap:round;stroke-linejoin:round;" cx="61.02" cy="50.25" r="4.52"/>
      <path style="fill:none;stroke:#414042;stroke-linecap:round;stroke-linejoin:round;" d="M11.32,39a19,19,0,0,1,3-7.12h6.46v4S19,38.32,11.32,39Z"/>
      <rect style="fill:none;stroke:#414042;stroke-linecap:round;stroke-linejoin:round;" x="27.59" y="25.24" width="44.51" height="18.36"/>
      <polyline style="fill:none;stroke:#414042;stroke-linecap:round;stroke-linejoin:round;" points="9.55 43.21 11.37 43.21 12.46 45.81 9.4 45.81"/>
      <rect style="fill:none;stroke:#414042;stroke-linecap:round;stroke-linejoin:round;" x="68.33" y="45.2" width="2.13" height="2.53"/>
      <line style="fill:none;stroke:#414042;stroke-linecap:round;stroke-linejoin:round;" x1="73.36" y1="45.57" x2="74.88" y2="44.66"/>
      <line style="fill:none;stroke:#414042;stroke-linecap:round;stroke-linejoin:round;" x1="73.3" y1="48.26" x2="75.06" y2="48.24"/>
      <line style="fill:none;stroke:#414042;stroke-linecap:round;stroke-linejoin:round;" x1="6.97" y1="43.66" x2="5.45" y2="42.75"/>
      <line style="fill:none;stroke:#414042;stroke-linecap:round;stroke-linejoin:round;" x1="6.64" y1="45.83" x2="4.88" y2="45.81"/>
    </g>
    <path style="fill:none;stroke:#414042;stroke-width:0.5px;stroke-linecap:round;stroke-linejoin:round;" d="M8,50.36a5.82,5.82,0,0,1-1.78.28A5.73,5.73,0,1,1,7.61,39.36"/>
    <path style="fill:none;stroke:#414042;stroke-width:0.5px;stroke-linecap:round;stroke-linejoin:round;" d="M74.35,40.51a5.73,5.73,0,1,1-2.24,11.18"/>
  </g>
</svg>
