<svg id="a3c4bebd-b303-4f8e-99fd-5fd13fa8a2a8" data-name="Layer 1" xmlns="http://www.w3.org/2000/svg" viewBox="0 0 80 80">
  <title>5</title>
  <g>
    <g>
      <path style="fill: #fff;" d="M4.72,56.74A15.55,15.55,0,0,0,16.39,62h34a13.05,13.05,0,0,0,1.41-.07h0A14.79,14.79,0,0,0,65,49.83l1.59-8.9A19.51,19.51,0,0,0,50.69,18.28h-.06A18.7,18.7,0,0,0,47.45,18a20.94,20.94,0,0,0-3,.23L17,22.35A18.09,18.09,0,0,0,1.74,38L.93,44.51A15.53,15.53,0,0,0,4.72,56.74ZM6.19,45.16,7,38.64a12.75,12.75,0,0,1,10.77-11l27.53-4.13A14.21,14.21,0,0,1,61.36,40l-1.6,8.9a9.5,9.5,0,0,1-9.35,7.82h-34A10.28,10.28,0,0,1,6.19,45.16Z"/>
      <path style="fill: #fadc0f;" d="M16.39,56.71h34a9.5,9.5,0,0,0,9.35-7.82l1.6-8.9A14.21,14.21,0,0,0,45.29,23.46L17.76,27.59A12.75,12.75,0,0,0,7,38.64l-.8,6.52A10.28,10.28,0,0,0,16.39,56.71Z"/>
      <path style="fill: #fff;" d="M51.84,61.93c7.87,0,22.43-4.76,26.4-6.1a1.4,1.4,0,0,0,.93-1.44,132.53,132.53,0,0,1,0-22.8,1.41,1.41,0,0,0-.66-1.31c-3.41-2.06-18-10.58-27.84-12A19.51,19.51,0,0,1,66.58,40.93L65,49.83A14.79,14.79,0,0,1,51.84,61.93Z"/>
    </g>
    <g>
      <path style="fill: none; stroke: #414042; stroke-linecap: round; stroke-linejoin: round;" d="M61.35,40l-1.59,8.88a9.5,9.5,0,0,1-9.35,7.83h-34A10.28,10.28,0,0,1,6.19,45.16L7,38.64a12.76,12.76,0,0,1,10.77-11l27.53-4.12A14.18,14.18,0,0,1,61.35,40Z"/>
      <path style="fill: none; stroke: #414042; stroke-linecap: round; stroke-linejoin: round;" d="M4.72,56.74A15.55,15.55,0,0,0,16.38,62h34A14.78,14.78,0,0,0,65,49.83l1.59-8.91A19.36,19.36,0,0,0,44.5,18.24L17,22.35A18.09,18.09,0,0,0,1.73,38l-.8,6.51A15.53,15.53,0,0,0,4.72,56.74Z"/>
      <path style="fill: none; stroke: #414042; stroke-linecap: round; stroke-linejoin: round;" d="M50.63,18.27c9.81,1.4,24.48,10,27.9,12a1.38,1.38,0,0,1,.66,1.3,132.53,132.53,0,0,0,0,22.8,1.37,1.37,0,0,1-.93,1.43c-4,1.35-18.55,6.11-26.43,6.11"/>
      <line style="fill: none; stroke: #414042; stroke-linecap: round; stroke-linejoin: round;" x1="46.93" y1="32.4" x2="33.5" y2="51.41"/>
      <line style="fill: none; stroke: #414042; stroke-linecap: round; stroke-linejoin: round;" x1="33.84" y1="37.7" x2="28.37" y2="45.45"/>
      <line style="fill: none; stroke: #414042; stroke-linecap: round; stroke-linejoin: round;" x1="29.95" y1="31.39" x2="16.53" y2="50.4"/>
    </g>
  </g>
</svg>
