<svg id="b58cd07c-c333-43c6-ae87-6404cabb2d1d" data-name="Layer 1" xmlns="http://www.w3.org/2000/svg" viewBox="0 0 80 80">
  <title>51</title>
  <g>
    <g>
      <rect style="fill: #fff;" x="0.57" y="31.89" width="14.26" height="17.63"/>
      <rect style="fill: #fff;" x="14.84" y="33.65" width="13.84" height="13.53"/>
      <path style="fill: #fadc0f;" d="M75.11,36.44s2.06,4.75-1.67,6.65a5.21,5.21,0,0,1,.43,2.09,5.35,5.35,0,0,1-2.5,4.54l0,.05a8.27,8.27,0,0,1,.73,3.4,8.4,8.4,0,0,1-13.53,6.66l0,.05a8.4,8.4,0,0,1-15.24-2.3s-1-2-1.07-6.92L31.9,45.94l-3.22-1.7v-8L31.87,35l2-.89a8,8,0,0,1-2.32-5.32,8,8,0,0,1,3.89-6.44,5.37,5.37,0,0,1,10.7-.58v.07a3.54,3.54,0,0,1,.46,0,8.25,8.25,0,0,1,3.3.67A4.11,4.11,0,0,1,53,21.1,7.27,7.27,0,0,1,66.23,20l.07.11a9.31,9.31,0,0,1,8.81,16.34Z"/>
    </g>
    <g>
      <polyline style="fill: none; stroke: #414042; stroke-linecap: round; stroke-linejoin: round;" points="0.58 31.89 14.84 31.89 14.84 49.51 0.58 49.51"/>
      <rect style="fill: none; stroke: #414042; stroke-linecap: round; stroke-linejoin: round;" x="14.84" y="33.65" width="13.84" height="13.53"/>
      <g>
        <path style="fill: none; stroke: #414042; stroke-linecap: round; stroke-linejoin: round;" d="M35.4,22.32a5.37,5.37,0,0,1,10.7-.58"/>
        <path style="fill: none; stroke: #414042; stroke-linecap: round; stroke-linejoin: round;" d="M43.79,22.25a8.41,8.41,0,0,1,9.1,13.48"/>
        <path style="fill: none; stroke: #414042; stroke-linecap: round; stroke-linejoin: round;" d="M53,21.1A7.26,7.26,0,0,1,66.22,20"/>
        <path style="fill: none; stroke: #414042; stroke-linecap: round; stroke-linejoin: round;" d="M57.06,32A8.41,8.41,0,0,1,70.72,38.6a8.19,8.19,0,0,1-.15,1.57"/>
        <path style="fill: none; stroke: #414042; stroke-linecap: round; stroke-linejoin: round;" d="M62.46,23.31A9.3,9.3,0,1,1,75.11,36.44"/>
        <path style="fill: none; stroke: #414042; stroke-linecap: round; stroke-linejoin: round;" d="M71.4,49.77a8.41,8.41,0,0,1-15.09,7.39"/>
        <path style="fill: none; stroke: #414042; stroke-linecap: round; stroke-linejoin: round;" d="M58.56,59.88a8.41,8.41,0,0,1-15.25-2.31"/>
        <path style="fill: none; stroke: #414042; stroke-linecap: round; stroke-linejoin: round;" d="M68,39.81l.49,0A5.39,5.39,0,0,1,70,50.34"/>
        <path style="fill: none; stroke: #414042; stroke-linecap: round; stroke-linejoin: round;" d="M54.05,34.14a4.55,4.55,0,0,1-2,8.61,4.49,4.49,0,0,1-2.16-.54"/>
        <line style="fill: none; stroke: #414042; stroke-linecap: round; stroke-linejoin: round;" x1="31.88" y1="34.97" x2="39.86" y2="31.32"/>
        <line style="fill: none; stroke: #414042; stroke-linecap: round; stroke-linejoin: round;" x1="31.9" y1="45.95" x2="44.93" y2="51.89"/>
      </g>
    </g>
  </g>
</svg>
