<svg id="f51de7de-dd67-4b8c-a862-ea442579cca1" data-name="Layer 1" xmlns="http://www.w3.org/2000/svg" viewBox="0 0 80 80">
  <title>52</title>
  <g>
    <g>
      <rect x="2.85" y="0.58" width="55.48" height="59.68" style="fill:#fff;"/>
      <polygon points="55.26 63.02 55.26 71.67 35.56 71.67 35.56 68.87 25.72 68.87 25.72 71.67 6.5 71.67 6.5 63.02 55.26 63.02" style="fill:#fff;"/>
      <rect x="25.72" y="68.87" width="9.84" height="4.5" style="fill:#fff;"/>
      <rect x="7.2" y="60.26" width="47.35" height="2.76" style="fill:#fff;"/>
      <path d="M20.19,71.67v6.06a1.69,1.69,0,0,1-1.69,1.69H15a1.68,1.68,0,0,1-1.68-1.69,1.7,1.7,0,0,1-1.7,1.69H8.18a1.69,1.69,0,0,1-1.69-1.69V71.67Z" style="fill:#fff;"/>
      <path d="M55.26,71.67v6.06a1.68,1.68,0,0,1-1.68,1.69H50.11a1.68,1.68,0,0,1-1.69-1.69,1.68,1.68,0,0,1-1.69,1.69H43.25a1.68,1.68,0,0,1-1.68-1.69V71.67Z" style="fill:#fff;"/>
      <circle cx="9.92" cy="67.16" r="1.41" style="fill:#fff;"/>
      <circle cx="14.59" cy="67.16" r="1.41" style="fill:#fff;"/>
      <circle cx="46.82" cy="67.16" r="1.41" style="fill:#fff;"/>
      <circle cx="51.49" cy="67.16" r="1.41" style="fill:#fff;"/>
      <rect x="52.9" y="19.26" width="24.25" height="18.73" style="fill:#fadc0f;"/>
      <circle cx="65.02" cy="27.19" r="2.46" style="fill:#fff;"/>
    </g>
    <g>
      <polyline points="58.33 40 58.33 60.26 2.85 60.26 2.85 0.59 58.33 0.59 58.33 6.01" style="fill:none;stroke:#414042;stroke-linecap:round;stroke-linejoin:round;"/>
      <polyline points="25.65 71.67 6.5 71.67 6.5 63.02 55.27 63.02 55.27 71.67 35.7 71.67" style="fill:none;stroke:#414042;stroke-linecap:round;stroke-linejoin:round;"/>
      <rect x="7.19" y="60.26" width="47.36" height="2.76" style="fill:none;stroke:#414042;stroke-linecap:round;stroke-linejoin:round;"/>
      <path d="M6.5,71.67h6.85v6.06a1.69,1.69,0,0,1-1.69,1.69H8.18A1.69,1.69,0,0,1,6.5,77.73V71.67Z" style="fill:none;stroke:#414042;stroke-linecap:round;stroke-linejoin:round;"/>
      <path d="M13.34,71.67h6.85v6.06a1.69,1.69,0,0,1-1.69,1.69H15a1.69,1.69,0,0,1-1.69-1.69V71.67Z" style="fill:none;stroke:#414042;stroke-linecap:round;stroke-linejoin:round;"/>
      <path d="M41.57,71.67h6.85v6.06a1.69,1.69,0,0,1-1.69,1.69H43.26a1.69,1.69,0,0,1-1.69-1.69V71.67Z" style="fill:none;stroke:#414042;stroke-linecap:round;stroke-linejoin:round;"/>
      <path d="M48.42,71.67h6.85v6.06a1.69,1.69,0,0,1-1.69,1.69H50.11a1.69,1.69,0,0,1-1.69-1.69V71.67Z" style="fill:none;stroke:#414042;stroke-linecap:round;stroke-linejoin:round;"/>
      <circle cx="9.92" cy="67.16" r="1.41" style="fill:none;stroke:#414042;stroke-linecap:round;stroke-linejoin:round;"/>
      <circle cx="14.59" cy="67.16" r="1.41" style="fill:none;stroke:#414042;stroke-linecap:round;stroke-linejoin:round;"/>
      <circle cx="46.82" cy="67.16" r="1.41" style="fill:none;stroke:#414042;stroke-linecap:round;stroke-linejoin:round;"/>
      <circle cx="51.49" cy="67.16" r="1.41" style="fill:none;stroke:#414042;stroke-linecap:round;stroke-linejoin:round;"/>
      <rect x="25.72" y="68.87" width="9.84" height="4.51" style="fill:none;stroke:#414042;stroke-linecap:round;stroke-linejoin:round;"/>
      <line x1="30.64" y1="0.59" x2="30.64" y2="60.26" style="fill:none;stroke:#414042;stroke-linecap:round;stroke-linejoin:round;"/>
      <line x1="25.92" y1="21.69" x2="25.92" y2="39.16" style="fill:none;stroke:#414042;stroke-linecap:round;stroke-linejoin:round;"/>
      <line x1="35.37" y1="21.69" x2="35.37" y2="39.16" style="fill:none;stroke:#414042;stroke-linecap:round;stroke-linejoin:round;"/>
      <rect x="52.9" y="19.26" width="24.25" height="18.73" style="fill:none;stroke:#414042;stroke-linecap:round;stroke-linejoin:round;"/>
      <circle cx="65.02" cy="27.19" r="2.46" style="fill:none;stroke:#414042;stroke-linecap:round;stroke-linejoin:round;"/>
      <line x1="65.02" y1="29.64" x2="65.02" y2="33.11" style="fill:none;stroke:#414042;stroke-linecap:round;stroke-linejoin:round;"/>
      <path d="M56.32,19.26V14.13a8.74,8.74,0,0,1,8.74-8.75h0a8.75,8.75,0,0,1,8.75,8.75v5.13" style="fill:none;stroke:#414042;stroke-linecap:round;stroke-linejoin:round;"/>
    </g>
  </g>
</svg>
