<svg id="e9dcda90-72bc-41fe-a0da-2b57b4fd98e1" data-name="Layer 1" xmlns="http://www.w3.org/2000/svg" viewBox="0 0 80 80">
  <title>53-2</title>
  <g>
    <g>
      <path style="fill:#fff;" d="M8.91,32.25V43.47h-4C5.2,39,5.66,34.7,6.21,30.69Z"/>
      <path style="fill:#fff;" d="M13,70.32v8.06a1,1,0,0,1-.95,1H5.74a1,1,0,0,1-1-1V66.64A4.52,4.52,0,0,0,9,70.17Z"/>
      <path style="fill:#fadc0f;" d="M72.92,49.08,68,51.17v10.9a1.51,1.51,0,0,1-1.5,1.51H11a1.51,1.51,0,0,1-1.5-1.51V51.17l-4.9-2.09c-.17,4.23-.2,8.59-.05,13l.16,3.74a4.27,4.27,0,0,0,.11.81A4.52,4.52,0,0,0,9,70.17l4,.15c5.69.17,14.3.35,25.72.35s20-.18,25.72-.35l4-.15a4.52,4.52,0,0,0,4.25-3.58v0a3.66,3.66,0,0,0,.1-.74L73,62.09C73.13,57.67,73.1,53.31,72.92,49.08ZM8.5,67.66a1.41,1.41,0,1,1,1.41-1.41A1.41,1.41,0,0,1,8.5,67.66Zm60.5,0a1.41,1.41,0,1,1,1.41-1.41A1.41,1.41,0,0,1,69,67.66Z"/>
      <path style="fill:#fff;" d="M9.91,66.25A1.41,1.41,0,1,1,8.5,64.84,1.41,1.41,0,0,1,9.91,66.25Z"/>
      <path style="fill:#fadc0f;" d="M72.61,43.47h-4V32.25l2.69-1.56A150.27,150.27,0,0,0,65.43,3.93a3.73,3.73,0,0,0-3.25-2.48C54.75.92,38.75.63,38.75.63s-16,.29-23.44.82a3.72,3.72,0,0,0-3.24,2.48A150.06,150.06,0,0,0,6.21,30.69l2.7,1.56V43.47h-4c-.14,1.84-.24,3.71-.32,5.61l4.9,2.09v10.9A1.51,1.51,0,0,0,11,63.58H66.53A1.51,1.51,0,0,0,68,62.07V51.17l4.89-2.09C72.85,47.18,72.74,45.31,72.61,43.47ZM11.49,34.33s2.23-18,4.91-25.46a.53.53,0,0,1,.42-.34C22,7.72,38.75,7.24,38.75,7.24s16.78.48,21.93,1.29a.54.54,0,0,1,.42.34C63.78,16.36,66,34.33,66,34.33Z"/>
      <path style="fill:#fff;" d="M66,34.33H11.49s2.23-18,4.91-25.46a.53.53,0,0,1,.42-.34C22,7.72,38.75,7.24,38.75,7.24s16.78.48,21.93,1.29a.54.54,0,0,1,.42.34C63.78,16.36,66,34.33,66,34.33Z"/>
      <path style="fill:#fff;" d="M72.61,43.47h-4V32.25l2.69-1.56C71.83,34.7,72.29,39,72.61,43.47Z"/>
      <path style="fill:#fff;" d="M72.71,66.59V78.38a1,1,0,0,1-.95,1H65.42a1,1,0,0,1-1-1V70.32l4-.15A4.52,4.52,0,0,0,72.71,66.59Z"/>
      <path style="fill:#fff;" d="M70.41,66.25A1.41,1.41,0,1,1,69,64.84,1.41,1.41,0,0,1,70.41,66.25Z"/>
    </g>
    <g>
      <path style="fill:none;stroke:#414042;stroke-linecap:round;stroke-linejoin:round;" d="M38.75,34.34H11.49s2.23-18,4.91-25.46a.54.54,0,0,1,.42-.35C22,7.73,38.75,7.25,38.75,7.25"/>
      <path style="fill:none;stroke:#414042;stroke-linecap:round;stroke-linejoin:round;" d="M38.75.63s-16,.3-23.43.83a3.7,3.7,0,0,0-3.25,2.48c-3,8.54-8.45,32.26-7.54,58.16l.15,3.73A4.56,4.56,0,0,0,9,70.18c5.19.2,15.17.5,29.71.5"/>
      <path style="fill:none;stroke:#414042;stroke-linecap:round;stroke-linejoin:round;" d="M4.58,49.09l4.89,2.08V62.08a1.5,1.5,0,0,0,1.5,1.5H38.75"/>
      <polyline style="fill:none;stroke:#414042;stroke-linecap:round;stroke-linejoin:round;" points="6.22 30.7 8.91 32.26 8.91 43.48 4.89 43.48"/>
      <path style="fill:none;stroke:#414042;stroke-linecap:round;stroke-linejoin:round;" d="M13,70.29v8.1a1,1,0,0,1-.95,1H5.74a1,1,0,0,1-1-1V66.57"/>
      <circle style="fill:none;stroke:#414042;stroke-linecap:round;stroke-linejoin:round;" cx="8.5" cy="66.26" r="1.41"/>
      <path style="fill:none;stroke:#414042;stroke-linecap:round;stroke-linejoin:round;" d="M38.75,34.34H66s-2.23-18-4.91-25.46a.54.54,0,0,0-.42-.35c-5.15-.8-21.93-1.28-21.93-1.28"/>
      <path style="fill:none;stroke:#414042;stroke-linecap:round;stroke-linejoin:round;" d="M38.75.63s16,.3,23.44.83a3.7,3.7,0,0,1,3.24,2.48c3,8.54,8.45,32.26,7.55,58.16l-.16,3.73a4.55,4.55,0,0,1-4.35,4.35c-5.2.2-15.18.5-29.72.5"/>
      <path style="fill:none;stroke:#414042;stroke-linecap:round;stroke-linejoin:round;" d="M72.93,49.09,68,51.17V62.08a1.5,1.5,0,0,1-1.5,1.5H38.75"/>
      <polyline style="fill:none;stroke:#414042;stroke-linecap:round;stroke-linejoin:round;" points="71.28 30.7 68.59 32.26 68.59 43.48 72.61 43.48"/>
      <path style="fill:none;stroke:#414042;stroke-linecap:round;stroke-linejoin:round;" d="M64.47,70.29v8.1a1,1,0,0,0,1,1h6.34a1,1,0,0,0,.95-1V66.57"/>
      <circle style="fill:none;stroke:#414042;stroke-linecap:round;stroke-linejoin:round;" cx="69" cy="66.26" r="1.41"/>
      <line style="fill:none;stroke:#414042;stroke-linecap:round;stroke-linejoin:round;" x1="46.22" y1="47.37" x2="51.63" y2="47.37"/>
    </g>
  </g>
</svg>
