<svg id="a75e80be-9b9f-4d12-b19b-90446ef0b7ef" data-name="Layer 1" xmlns="http://www.w3.org/2000/svg" viewBox="0 0 80 80">
  <title>53</title>
  <g>
    <g>
      <rect style="fill:#fadc0f;" x="12.26" y="0.58" width="55.48" height="59.68"/>
      <polygon style="fill:#fadc0f;" points="64.67 63.02 64.67 71.67 44.97 71.67 44.97 68.87 35.13 68.87 35.13 71.67 15.9 71.67 15.9 63.02 64.67 63.02"/>
      <rect style="fill:#fff;" x="35.13" y="68.87" width="9.84" height="4.5"/>
      <rect style="fill:#fff;" x="16.61" y="60.26" width="47.35" height="2.76"/>
      <path style="fill:#fff;" d="M29.6,71.67v6.06a1.69,1.69,0,0,1-1.69,1.69H24.44a1.69,1.69,0,0,1-1.69-1.69,1.69,1.69,0,0,1-1.69,1.69H17.59a1.69,1.69,0,0,1-1.69-1.69V71.67Z"/>
      <path style="fill:#fff;" d="M64.67,71.67v6.06A1.68,1.68,0,0,1,63,79.42H59.51a1.68,1.68,0,0,1-1.68-1.69,1.68,1.68,0,0,1-1.69,1.69H52.66A1.68,1.68,0,0,1,51,77.73V71.67Z"/>
      <circle style="fill:#fff;" cx="19.33" cy="67.16" r="1.41"/>
      <circle style="fill:#fff;" cx="24" cy="67.16" r="1.41"/>
      <circle style="fill:#fff;" cx="56.22" cy="67.16" r="1.41"/>
      <circle style="fill:#fff;" cx="60.89" cy="67.16" r="1.41"/>
    </g>
    <g>
      <polyline style="fill:none;stroke:#414042;stroke-linecap:round;stroke-linejoin:round;" points="67.74 6.01 67.74 60.26 12.26 60.26 12.26 0.59 67.74 0.59 67.74 6.01"/>
      <polyline style="fill:none;stroke:#414042;stroke-linecap:round;stroke-linejoin:round;" points="35.05 71.67 15.9 71.67 15.9 63.02 64.67 63.02 64.67 71.67 45.11 71.67"/>
      <rect style="fill:none;stroke:#414042;stroke-linecap:round;stroke-linejoin:round;" x="16.6" y="60.26" width="47.36" height="2.76"/>
      <path style="fill:none;stroke:#414042;stroke-linecap:round;stroke-linejoin:round;" d="M15.9,71.67h6.85v6.06a1.69,1.69,0,0,1-1.69,1.69H17.59a1.69,1.69,0,0,1-1.69-1.69V71.67Z"/>
      <path style="fill:none;stroke:#414042;stroke-linecap:round;stroke-linejoin:round;" d="M22.75,71.67H29.6v6.06a1.69,1.69,0,0,1-1.69,1.69H24.44a1.69,1.69,0,0,1-1.69-1.69V71.67Z"/>
      <path style="fill:none;stroke:#414042;stroke-linecap:round;stroke-linejoin:round;" d="M51,71.67h6.85v6.06a1.69,1.69,0,0,1-1.69,1.69H52.67a1.69,1.69,0,0,1-1.69-1.69V71.67Z"/>
      <path style="fill:none;stroke:#414042;stroke-linecap:round;stroke-linejoin:round;" d="M57.83,71.67h6.85v6.06A1.69,1.69,0,0,1,63,79.42H59.51a1.69,1.69,0,0,1-1.69-1.69V71.67Z"/>
      <circle style="fill:none;stroke:#414042;stroke-linecap:round;stroke-linejoin:round;" cx="19.33" cy="67.16" r="1.41"/>
      <circle style="fill:none;stroke:#414042;stroke-linecap:round;stroke-linejoin:round;" cx="24" cy="67.16" r="1.41"/>
      <circle style="fill:none;stroke:#414042;stroke-linecap:round;stroke-linejoin:round;" cx="56.22" cy="67.16" r="1.41"/>
      <circle style="fill:none;stroke:#414042;stroke-linecap:round;stroke-linejoin:round;" cx="60.89" cy="67.16" r="1.41"/>
      <rect style="fill:none;stroke:#414042;stroke-linecap:round;stroke-linejoin:round;" x="35.13" y="68.87" width="9.84" height="4.51"/>
      <line style="fill:none;stroke:#414042;stroke-linecap:round;stroke-linejoin:round;" x1="40.05" y1="0.59" x2="40.05" y2="60.26"/>
      <g>
        <line style="fill:none;stroke:#414042;stroke-linecap:round;stroke-linejoin:round;" x1="35.33" y1="21.69" x2="35.33" y2="39.16"/>
        <line style="fill:none;stroke:#414042;stroke-linecap:round;stroke-linejoin:round;" x1="44.77" y1="21.69" x2="44.77" y2="39.16"/>
      </g>
    </g>
  </g>
</svg>
