<svg id="b3249ad2-7558-47ec-acac-f3fcda09a053" data-name="Layer 1" xmlns="http://www.w3.org/2000/svg" viewBox="0 0 80 80">
  <title>54</title>
  <g>
    <g>
      <path style="fill:#fadc0f;" d="M62.36,66.17l-4.69-2.9-4-2.48a4.59,4.59,0,0,0-4.83,0l-4,2.47-4.69,2.9A2.53,2.53,0,0,0,39,68.68a12.41,12.41,0,0,0,24.57,0A2.55,2.55,0,0,0,62.36,66.17ZM51.24,68.49a2.93,2.93,0,1,1,2.93-2.93A2.93,2.93,0,0,1,51.24,68.49Z"/>
      <path style="fill:#fff;" d="M54.17,65.56a2.93,2.93,0,1,1-2.93-2.93A2.93,2.93,0,0,1,54.17,65.56Z"/>
      <path style="fill:#fff;" d="M57.67,36.1V63.27l-4-2.48a4.59,4.59,0,0,0-4.83,0l-4,2.47V36.1Z"/>
      <path style="fill:#fff;" d="M49.43,8.86,59.12,36.1H43.29V.63H59.2V25.16L53,7.6a1.87,1.87,0,0,0-3.52,1.26Z"/>
      <path style="fill:#fadc0f;" d="M21,55.4l-3.76-2.32-3.23-2a3.69,3.69,0,0,0-3.88,0l-3.21,2L3.17,55.4a2.06,2.06,0,0,0-.94,2,10,10,0,0,0,19.74,0A2,2,0,0,0,21,55.4ZM12.1,57.26a2.35,2.35,0,1,1,2.35-2.35A2.35,2.35,0,0,1,12.1,57.26Z"/>
      <path style="fill:#fff;" d="M14.45,54.91a2.35,2.35,0,1,1-2.35-2.35A2.35,2.35,0,0,1,14.45,54.91Z"/>
      <path style="fill:#fff;" d="M17.26,31.25V53.08l-3.23-2a3.69,3.69,0,0,0-3.88,0l-3.21,2V31.25Z"/>
      <path style="fill:#fff;" d="M10.39,10a1.8,1.8,0,0,0,1.72,1.88l6.38.29V31.25H5.71V2.77H18.49V8.53l-6.22-.28h-.09A1.79,1.79,0,0,0,10.39,10Z"/>
      <polygon style="fill:#fadc0f;" points="77.79 52.2 71.99 54.48 67.78 43.83 68.93 43.37 72.41 41.98 73.58 41.52 77.79 52.2"/>
      <path style="fill:#fff;" d="M72.41,42l-3.48,1.38v0L67.59,40a.8.8,0,0,0-.83-.51L64,39.68a4.58,4.58,0,0,1-4.68-3l-.22-.61L49.43,8.86A1.87,1.87,0,0,1,53,7.6L59.2,25.16l3.66,10.28a.85.85,0,0,0,.84.52l2.73-.24a4.53,4.53,0,0,1,4.64,2.86l1.32,3.35Z"/>
      <path style="fill:#fff;" d="M43.29,9.67v3.61l-24.8-1.14-6.38-.29a1.8,1.8,0,0,1,.07-3.6h.09l6.22.28L43.14,9.65Z"/>
    </g>
    <g>
      <path style="fill:none;stroke:#414042;stroke-linecap:round;stroke-linejoin:round;" d="M62.36,66.18a2.53,2.53,0,0,1,1.17,2.51,12.4,12.4,0,0,1-24.57,0,2.51,2.51,0,0,1,1.17-2.5l8.69-5.38a4.61,4.61,0,0,1,4.83,0Z"/>
      <circle style="fill:none;stroke:#414042;stroke-linecap:round;stroke-linejoin:round;" cx="51.24" cy="65.57" r="2.93"/>
      <polyline style="fill:none;stroke:#414042;stroke-linecap:round;stroke-linejoin:round;" points="44.82 63.22 44.82 36.1 57.66 36.1 57.66 63.23"/>
      <polyline style="fill:none;stroke:#414042;stroke-linecap:round;stroke-linejoin:round;" points="58.99 36.1 43.29 36.1 43.29 0.63 59.2 0.63 59.2 24.79"/>
      <path style="fill:none;stroke:#414042;stroke-linecap:round;stroke-linejoin:round;" d="M21,55.41a2,2,0,0,1,.94,2,10,10,0,0,1-19.73,0,2,2,0,0,1,.94-2l7-4.32a3.69,3.69,0,0,1,3.88,0Z"/>
      <circle style="fill:none;stroke:#414042;stroke-linecap:round;stroke-linejoin:round;" cx="12.1" cy="54.92" r="2.35"/>
      <polyline style="fill:none;stroke:#414042;stroke-linecap:round;stroke-linejoin:round;" points="6.94 53.04 6.94 31.25 17.25 31.25 17.25 53.03"/>
      <polyline style="fill:none;stroke:#414042;stroke-linecap:round;stroke-linejoin:round;" points="18.49 12.14 18.49 31.25 5.71 31.25 5.71 2.77 18.49 2.77 18.49 8.54"/>
      <rect style="fill:none;stroke:#414042;stroke-linecap:round;stroke-linejoin:round;" x="69.66" y="42.27" width="6.24" height="11.47" transform="translate(-12.55 30.12) rotate(-21.57)"/>
      <path style="fill:none;stroke:#414042;stroke-linecap:round;stroke-linejoin:round;" d="M68.92,43.33,67.59,40a.82.82,0,0,0-.84-.52L64,39.69a4.58,4.58,0,0,1-4.68-3L49.43,8.86A1.87,1.87,0,0,1,53,7.6l9.91,27.84a.83.83,0,0,0,.84.52l2.73-.24a4.54,4.54,0,0,1,4.64,2.87l1.32,3.35"/>
      <path style="fill:none;stroke:#414042;stroke-linecap:round;stroke-linejoin:round;" d="M43.29,13.28,12.11,11.85A1.79,1.79,0,0,1,10.39,10h0a1.81,1.81,0,0,1,1.88-1.72L43.14,9.66"/>
    </g>
  </g>
</svg>
