<svg id="b0431110-55f9-4b1b-822b-103f27d64d60" data-name="Layer 1" xmlns="http://www.w3.org/2000/svg" viewBox="0 0 80 80">
  <title>55</title>
  <g>
    <g>
      <path style="fill: #fff;" d="M23.92,48.05l0,0a5.24,5.24,0,0,1-1.69.46l-8.5,1.82-1,.21c-5.14.52-10.12-7-11.12-16.73S4,15.74,9.1,15.21a1.79,1.79,0,0,1,.4,0h.14l1.45-.09,10.64,2.62.16,8.73v.09l-1.16.21v3.59l1.25.48V31l.08,4.39v.05l-1.13.39v3.42l1.21.59v.06l.06,2.77-1.27.51L21,46.43Z"/>
      <polygon style="fill: #fadc0f;" points="79.18 46.31 79.18 52.8 71.93 50.01 68.7 48.77 29.96 33.88 24.28 31.69 21.98 30.81 20.73 30.33 20.73 26.74 21.89 26.53 22.92 26.34 24.2 26.79 29.53 28.69 68.91 42.67 72.21 43.84 79.18 46.31"/>
      <polygon style="fill: #fadc0f;" points="79.41 67.81 71.3 63.85 68.23 62.35 68.23 62.34 28.3 42.83 24.39 40.92 22.14 39.82 20.93 39.23 20.93 35.81 22.06 35.42 22.2 35.37 24.33 36.32 29.52 38.65 68.44 56.07 71.59 57.48 79.18 60.88 79.25 63.09 79.41 67.81"/>
      <polygon style="fill: #fadc0f;" points="79.41 72.6 76.97 73.63 69.38 73.67 23.92 48.05 21.04 46.43 20.93 43.16 22.2 42.65 22.34 42.59 24.43 43.69 27.12 45.1 68.07 66.64 71.1 68.23 79.41 72.6"/>
      <path style="fill: #fff;" d="M28.3,42.83v.07A14.34,14.34,0,0,1,27.17,45l-.05.06-2.69-1.41h0l0-2.69v-.07Z"/>
      <polygon style="fill: #fadc0f;" points="24.43 43.68 24.43 43.69 22.34 42.59 22.2 42.65 22.14 39.88 22.14 39.82 24.39 40.92 24.39 40.99 24.43 43.68"/>
      <polygon style="fill: #fadc0f;" points="24.2 26.74 24.2 26.79 22.92 26.34 21.89 26.53 21.89 26.44 21.73 17.71 24.08 18.29 24.2 26.74"/>
      <polygon style="fill: #fadc0f;" points="71.3 63.85 71.1 68.23 68.07 66.64 68.23 62.35 71.3 63.85"/>
      <polygon style="fill: #fadc0f;" points="71.93 50.01 71.59 57.48 68.44 56.07 68.7 48.77 71.93 50.01"/>
      <polygon style="fill: #fadc0f;" points="72.82 30.3 72.82 30.31 72.21 43.84 68.91 42.67 69.38 29.45 72.82 30.3"/>
      <polygon style="fill: #fff;" points="78.91 31.8 72.82 30.3 69.38 29.45 25.83 18.72 24.08 18.29 21.73 17.71 11.09 15.09 0.58 12.5 0.58 6.33 78.69 20.92 78.91 31.8"/>
      <path style="fill: #fff;" d="M29.53,28.67v0l-5.33-1.9v-.05l-.12-8.45,1.75.43.15.39A24.61,24.61,0,0,1,29.53,28.67Z"/>
      <path style="fill: #fff;" d="M30,33.88v.06a26.77,26.77,0,0,1-.43,4.68v0l-5.19-2.33v-.07l-.06-4.45v-.11Z"/>
      <polygon style="fill: #fadc0f;" points="24.33 36.25 24.33 36.32 22.2 35.37 22.06 35.42 22.06 35.37 21.98 30.98 21.98 30.81 24.28 31.69 24.27 31.8 24.33 36.25"/>
    </g>
    <g>
      <g>
        <ellipse style="fill: none; stroke: #414042; stroke-linecap: round; stroke-linejoin: round;" cx="10.91" cy="32.89" rx="5.78" ry="10.97" transform="translate(-3.28 1.27) rotate(-5.82)"/>
        <ellipse style="fill: none; stroke: #414042; stroke-linecap: round; stroke-linejoin: round;" cx="10.91" cy="32.89" rx="9.37" ry="17.77" transform="translate(-3.28 1.27) rotate(-5.82)"/>
        <path style="fill: none; stroke: #414042; stroke-linecap: round; stroke-linejoin: round;" d="M23.89,48.08a5.2,5.2,0,0,1-1.68.47"/>
        <path style="fill: none; stroke: #414042; stroke-linecap: round; stroke-linejoin: round;" d="M28.29,42.9a14,14,0,0,1-1.12,2.15"/>
        <path style="fill: none; stroke: #414042; stroke-linecap: round; stroke-linejoin: round;" d="M30,33.94a27.7,27.7,0,0,1-.42,4.68"/>
        <path style="fill: none; stroke: #414042; stroke-linecap: round; stroke-linejoin: round;" d="M26,19.11a24.78,24.78,0,0,1,3.56,9.56"/>
        <line style="fill: none; stroke: #414042; stroke-linecap: round; stroke-linejoin: round;" x1="12.71" y1="50.57" x2="22.21" y2="48.55"/>
        <line style="fill: none; stroke: #414042; stroke-linecap: round; stroke-linejoin: round;" x1="9.5" y1="15.19" x2="11.1" y2="15.09"/>
      </g>
      <polyline style="fill: none; stroke: #414042; stroke-linecap: round; stroke-linejoin: round;" points="79.18 52.8 20.73 30.33 20.73 26.74 79.18 48.29"/>
      <polyline style="fill: none; stroke: #414042; stroke-linecap: round; stroke-linejoin: round;" points="20.73 26.74 22.92 26.34 79.18 46.31"/>
      <polyline style="fill: none; stroke: #414042; stroke-linecap: round; stroke-linejoin: round;" points="79.42 67.82 20.94 39.23 20.94 35.82 22.2 35.37 79.18 60.89"/>
      <line style="fill: none; stroke: #414042; stroke-linecap: round; stroke-linejoin: round;" x1="20.94" y1="35.82" x2="79.42" y2="63.16"/>
      <polyline style="fill: none; stroke: #414042; stroke-linecap: round; stroke-linejoin: round;" points="69.38 73.67 21.05 46.43 20.94 43.17 22.34 42.59 79.42 72.61"/>
      <line style="fill: none; stroke: #414042; stroke-linecap: round; stroke-linejoin: round;" x1="20.94" y1="43.17" x2="76.97" y2="73.64"/>
      <line style="fill: none; stroke: #414042; stroke-linecap: round; stroke-linejoin: round;" x1="22.15" y1="39.89" x2="22.2" y2="42.65"/>
      <line style="fill: none; stroke: #414042; stroke-linecap: round; stroke-linejoin: round;" x1="21.98" y1="30.92" x2="22.06" y2="35.37"/>
      <line style="fill: none; stroke: #414042; stroke-linecap: round; stroke-linejoin: round;" x1="21.73" y1="17.71" x2="21.9" y2="26.45"/>
      <line style="fill: none; stroke: #414042; stroke-linecap: round; stroke-linejoin: round;" x1="24.4" y1="40.99" x2="24.43" y2="43.69"/>
      <line style="fill: none; stroke: #414042; stroke-linecap: round; stroke-linejoin: round;" x1="24.27" y1="31.8" x2="24.33" y2="36.26"/>
      <line style="fill: none; stroke: #414042; stroke-linecap: round; stroke-linejoin: round;" x1="24.09" y1="18.29" x2="24.2" y2="26.74"/>
      <line style="fill: none; stroke: #414042; stroke-linecap: round; stroke-linejoin: round;" x1="68.23" y1="62.35" x2="68.08" y2="66.64"/>
      <line style="fill: none; stroke: #414042; stroke-linecap: round; stroke-linejoin: round;" x1="68.7" y1="48.78" x2="68.45" y2="56.08"/>
      <line style="fill: none; stroke: #414042; stroke-linecap: round; stroke-linejoin: round;" x1="69.38" y1="29.45" x2="68.92" y2="42.7"/>
      <line style="fill: none; stroke: #414042; stroke-linecap: round; stroke-linejoin: round;" x1="71.31" y1="63.85" x2="71.11" y2="68.24"/>
      <line style="fill: none; stroke: #414042; stroke-linecap: round; stroke-linejoin: round;" x1="71.93" y1="50.02" x2="71.59" y2="57.49"/>
      <line style="fill: none; stroke: #414042; stroke-linecap: round; stroke-linejoin: round;" x1="72.82" y1="30.31" x2="72.21" y2="43.84"/>
      <line style="fill: none; stroke: #414042; stroke-linecap: round; stroke-linejoin: round;" x1="78.91" y1="31.8" x2="0.58" y2="12.5"/>
      <line style="fill: none; stroke: #414042; stroke-linecap: round; stroke-linejoin: round;" x1="0.58" y1="6.33" x2="78.69" y2="20.93"/>
    </g>
  </g>
</svg>
