<svg id="b186102f-98d0-4882-925c-d07a84cda2f5" data-name="Layer 1" xmlns="http://www.w3.org/2000/svg" viewBox="0 0 80 80">
  <title>56</title>
  <g>
    <g>
      <path style="fill: #fff;" d="M19.73,61.11V72.87a3.27,3.27,0,0,1-3.26,3.27H9.72a3.27,3.27,0,0,1-3.28-3.27,3.26,3.26,0,0,1-3.26,3.27H.78v-15Z"/>
      <path style="fill: #fff;" d="M79.26,3.86l-.39,40.45-.16,16.8H54.8V54.67a.7.7,0,0,0-.69-.7H25.93a.7.7,0,0,0-.7.7v6.44H.78V3.86Z"/>
      <path style="fill: #fff;" d="M78.71,61.11l-.15,15h-.78a3.26,3.26,0,0,1-3.26-3.27,3.27,3.27,0,0,1-3.28,3.27H64.5a3.26,3.26,0,0,1-3.27-3.27V61.11Z"/>
      <circle style="fill: #fff;" cx="8.87" cy="52.35" r="2.74"/>
      <circle style="fill: #fff;" cx="71.4" cy="52.35" r="2.74"/>
      <path style="fill: #fadc0f;" d="M54.8,54.67V65.43a.69.69,0,0,1-.69.69H25.93a.69.69,0,0,1-.7-.69V54.67a.7.7,0,0,1,.7-.7H54.11A.7.7,0,0,1,54.8,54.67Z"/>
      <rect style="fill: #fff;" x="40.46" y="59.03" width="2.13" height="2.13"/>
      <rect style="fill: #fff;" x="44.11" y="59.03" width="2.13" height="2.13"/>
      <rect style="fill: #fff;" x="30.5" y="59.03" width="2.13" height="2.13"/>
      <rect style="fill: #fff;" x="34.14" y="59.03" width="2.13" height="2.13"/>
      <rect style="fill: #fff;" x="47.75" y="59.03" width="2.13" height="2.13"/>
    </g>
    <g>
      <line style="fill: none; stroke: #414042; stroke-linecap: round; stroke-linejoin: round;" x1="78.89" y1="38.97" x2="1.54" y2="38.97"/>
      <line style="fill: none; stroke: #414042; stroke-linecap: round; stroke-linejoin: round;" x1="25.14" y1="61.11" x2="1.88" y2="61.11"/>
      <line style="fill: none; stroke: #414042; stroke-linecap: round; stroke-linejoin: round;" x1="78.89" y1="61.11" x2="54.88" y2="61.11"/>
      <line style="fill: none; stroke: #414042; stroke-linecap: round; stroke-linejoin: round;" x1="1.54" y1="44.32" x2="79.26" y2="44.32"/>
      <line style="fill: none; stroke: #414042; stroke-linecap: round; stroke-linejoin: round;" x1="77.52" y1="44.32" x2="1.88" y2="44.32"/>
      <line style="fill: none; stroke: #414042; stroke-linecap: round; stroke-linejoin: round;" x1="1.88" y1="38.97" x2="76.84" y2="38.97"/>
      <path style="fill: none; stroke: #414042; stroke-linecap: round; stroke-linejoin: round;" d="M.8,61.11H6.45V72.87a3.27,3.27,0,0,1-3.27,3.27H.78"/>
      <path style="fill: none; stroke: #414042; stroke-linecap: round; stroke-linejoin: round;" d="M6.45,61.11H19.73a0,0,0,0,1,0,0V72.87a3.27,3.27,0,0,1-3.27,3.27H9.72a3.27,3.27,0,0,1-3.27-3.27V61.11A0,0,0,0,1,6.45,61.11Z"/>
      <path style="fill: none; stroke: #414042; stroke-linecap: round; stroke-linejoin: round;" d="M61.23,61.11H74.51a0,0,0,0,1,0,0V72.87a3.27,3.27,0,0,1-3.27,3.27H64.5a3.27,3.27,0,0,1-3.27-3.27V61.11A0,0,0,0,1,61.23,61.11Z"/>
      <path style="fill: none; stroke: #414042; stroke-linecap: round; stroke-linejoin: round;" d="M78.57,76.14h-.79a3.27,3.27,0,0,1-3.27-3.27V61.11H78"/>
      <path style="fill: none; stroke: #414042; stroke-linecap: round; stroke-linejoin: round;" d="M.74,49.78a2.73,2.73,0,0,1,1.8,2.57A2.73,2.73,0,0,1,.78,54.91"/>
      <circle style="fill: none; stroke: #414042; stroke-linecap: round; stroke-linejoin: round;" cx="8.87" cy="52.35" r="2.74"/>
      <circle style="fill: none; stroke: #414042; stroke-linecap: round; stroke-linejoin: round;" cx="71.4" cy="52.35" r="2.74"/>
      <path style="fill: none; stroke: #414042; stroke-linecap: round; stroke-linejoin: round;" d="M79.12,54.74a2.74,2.74,0,0,1,0-4.76"/>
      <rect style="fill: none; stroke: #414042; stroke-linecap: round; stroke-linejoin: round;" x="25.23" y="53.97" width="29.56" height="12.15" rx="0.69"/>
      <line style="fill: none; stroke: #414042; stroke-linecap: round; stroke-linejoin: round;" x1="40.02" y1="4.17" x2="40.02" y2="38.97"/>
      <circle style="fill: #414042;" cx="26.91" cy="55.76" r="0.56"/>
      <circle style="fill: #414042;" cx="26.91" cy="64.53" r="0.56"/>
      <circle style="fill: #414042;" cx="53.18" cy="55.66" r="0.56"/>
      <circle style="fill: #414042;" cx="53.18" cy="64.43" r="0.56"/>
      <rect style="fill: none; stroke: #414042; stroke-linecap: round; stroke-linejoin: round;" x="40.46" y="59.03" width="2.13" height="2.13"/>
      <rect style="fill: none; stroke: #414042; stroke-linecap: round; stroke-linejoin: round;" x="44.11" y="59.03" width="2.13" height="2.13"/>
      <rect style="fill: none; stroke: #414042; stroke-linecap: round; stroke-linejoin: round;" x="30.5" y="59.03" width="2.13" height="2.13"/>
      <rect style="fill: none; stroke: #414042; stroke-linecap: round; stroke-linejoin: round;" x="34.14" y="59.03" width="2.13" height="2.13"/>
      <rect style="fill: none; stroke: #414042; stroke-linecap: round; stroke-linejoin: round;" x="47.75" y="59.03" width="2.13" height="2.13"/>
    </g>
  </g>
</svg>
