<svg id="fa37061e-0c5e-4929-aceb-6490e52af6b2" data-name="Layer 1" xmlns="http://www.w3.org/2000/svg" viewBox="0 0 80 80">
  <title>57</title>
  <g>
    <g>
      <rect style="fill: #fadc0f;" x="10.51" y="6.14" width="25.97" height="25.97" transform="translate(-6.64 22.22) rotate(-45)"/>
      <path style="fill: #e41414;" d="M44.14.76,62,37.49,79.34.76Zm5,3.18,9.27.25-5.65,6.34Zm5.21,10.85L65.2,3.94h8.36L57.33,20.55Zm7.92,15.6-2.85-5.46,9.39-9.26Z"/>
      <g>
        <rect style="fill: #fadc0f;" x="7.32" y="40.29" width="68.22" height="38.95"/>
        <polygon style="fill: #e41414;" points="48.71 55.1 60.83 67.38 72.94 55.17 60.83 42.44 48.71 55.1"/>
      </g>
    </g>
    <g>
      <g>
        <circle style="fill: none; stroke: #414042; stroke-linecap: round; stroke-linejoin: round;" cx="23.8" cy="15.57" r="3.33"/>
        <path style="fill: #414042;" d="M20,15.57a8.49,8.49,0,0,1,1.16-3.7,1.59,1.59,0,0,0,.88.51,2.72,2.72,0,0,1,.42-1.64c.34,1,.89,1.1.89,1.1A3.48,3.48,0,0,1,24.17,9a6.34,6.34,0,0,0,.8,2.9,1.27,1.27,0,0,1,.77-1A3.15,3.15,0,0,0,26,12.53l.4-.56a8.1,8.1,0,0,1,1.22,3A21.41,21.41,0,0,0,27,8.75s-.17.37-.38.76a9,9,0,0,0-1-2.22l-.16,1s-1.89-2-2.1-3.28a21,21,0,0,0-.19,3.25,5.65,5.65,0,0,1-1-.92,6.42,6.42,0,0,0,0,2.24,3.83,3.83,0,0,1-1.32-.51c0,1.09-.18,2.46-.18,2.46l-.56-.42A6.4,6.4,0,0,0,20,15.57Z"/>
        <line style="fill: none; stroke: #414042; stroke-linecap: round; stroke-linejoin: round;" x1="20.13" y1="18.9" x2="27.48" y2="18.9"/>
        <rect style="fill: none; stroke: #414042; stroke-linecap: round; stroke-linejoin: round;" x="10.51" y="6.14" width="25.97" height="25.97" transform="translate(-6.64 22.22) rotate(-45)"/>
        <rect style="fill: none; stroke: #414042; stroke-linecap: round; stroke-linejoin: round;" x="12.15" y="7.78" width="22.69" height="22.69" transform="translate(-6.64 22.22) rotate(-45)"/>
        <circle style="fill: none; stroke: #414042; stroke-linecap: round; stroke-linejoin: round;" cx="23.5" cy="29.72" r="2.52"/>
      </g>
      <g>
        <polygon style="fill: none; stroke: #414042; stroke-linecap: round; stroke-linejoin: round;" points="44.13 0.76 62.02 37.49 79.34 0.76 44.13 0.76"/>
        <polygon style="fill: none; stroke: #414042; stroke-linecap: round; stroke-linejoin: round;" points="49.15 3.94 52.76 10.53 58.41 4.19 49.15 3.94"/>
        <polygon style="fill: none; stroke: #414042; stroke-linecap: round; stroke-linejoin: round;" points="54.35 14.78 57.33 20.55 73.57 3.94 65.19 3.94 54.35 14.78"/>
        <polygon style="fill: none; stroke: #414042; stroke-linecap: round; stroke-linejoin: round;" points="59.42 24.93 62.28 30.39 68.81 15.67 59.42 24.93"/>
      </g>
      <g>
        <rect style="fill: none; stroke: #414042; stroke-linecap: round; stroke-linejoin: round;" x="7.32" y="40.29" width="68.23" height="38.95"/>
        <line style="fill: none; stroke: #414042; stroke-linecap: round; stroke-linejoin: round;" x1="7.32" y1="69.9" x2="75.55" y2="69.9"/>
        <line style="fill: none; stroke: #414042; stroke-linecap: round; stroke-linejoin: round;" x1="46.79" y1="40.29" x2="46.79" y2="69.9"/>
        <line style="fill: none; stroke: #414042; stroke-linecap: round; stroke-linejoin: round;" x1="7.32" y1="55.17" x2="46.79" y2="55.17"/>
        <line style="fill: none; stroke: #414042; stroke-linecap: round; stroke-linejoin: round;" x1="60.14" y1="69.9" x2="60.14" y2="79.24"/>
        <polygon style="fill: none; stroke: #414042; stroke-linecap: round; stroke-linejoin: round;" points="48.71 55.1 60.83 67.38 72.94 55.17 60.83 42.44 48.71 55.1"/>
        <path style="fill: #414042;" d="M59.77,61.5A4.54,4.54,0,0,1,57,55.19c.09,1.33.78,1.66.78,1.66s-1-2.57,1.08-3.94,1.2-4.38.3-5.17c1.32.18,6.09,2.48,3.52,7.58.75-.13,1.19-1.25,1.1-2.07,1.79,1.52,2.28,6.23-1.87,8.25C63.06,60.11,63.06,59.68,63,59c-.1-1.39-2.77-2.14-1.33-4.41-1.39,0-3.47,2.51-2.23,4.7-.65-.14-.61-2-.61-2A3.29,3.29,0,0,0,59.77,61.5Z"/>
        <g>
          <path style="fill: #414042;" d="M14.82,52.41l0-1,3.13-3.17A9.15,9.15,0,0,0,19,47a2,2,0,0,0,.34-1.07,1.39,1.39,0,0,0-.42-1,1.44,1.44,0,0,0-1.07-.42A2,2,0,0,0,16,45.55l-1.17-.8A3.31,3.31,0,0,1,17.92,43a3.25,3.25,0,0,1,2.15.76,2.49,2.49,0,0,1,.89,2,3.44,3.44,0,0,1-.36,1.53,6.25,6.25,0,0,1-1.26,1.61l-2.05,2.05,0,0h3.75v1.44Z"/>
          <path style="fill: #414042;" d="M25.1,52.41V48.14l-3.35-5.39H23.7L26,46.49h0l2.23-3.74h2l-3.38,5.39v4.27Z"/>
          <path style="fill: #414042;" d="M31.62,52.41V42.75h6.32v1.47H33.33v2.67h3.72v1.47H33.33v2.58h4.91v1.47Z"/>
        </g>
        <g>
          <path style="fill: #414042;" d="M13.47,66.78V59.27l-1.68,1.27L11,59.36l2.73-2h1.28v9.42Z"/>
          <path style="fill: #414042;" d="M20.52,66.89a3.15,3.15,0,0,1-2.61-1.28,5.72,5.72,0,0,1-1-3.53,5.8,5.8,0,0,1,1-3.49,3.1,3.1,0,0,1,2.63-1.33,3.15,3.15,0,0,1,2.61,1.28,5.71,5.71,0,0,1,1,3.54,5.82,5.82,0,0,1-1,3.49A3.08,3.08,0,0,1,20.52,66.89Zm0-1.48A1.62,1.62,0,0,0,22,64.53a4.77,4.77,0,0,0,.53-2.45A4.7,4.7,0,0,0,22,59.62a1.62,1.62,0,0,0-1.45-.89,1.64,1.64,0,0,0-1.46.89,4.81,4.81,0,0,0-.53,2.46,4.72,4.72,0,0,0,.54,2.44A1.64,1.64,0,0,0,20.52,65.41Z"/>
          <path style="fill: #414042;" d="M28.75,57.26a3.11,3.11,0,0,1,2.37,1,3.78,3.78,0,0,1,1,2.68A6.15,6.15,0,0,1,30.68,65a5.83,5.83,0,0,1-3.52,2.07l-.51-1.33a4.83,4.83,0,0,0,3.56-2.88h0a3.54,3.54,0,0,1-1.88.49,2.8,2.8,0,0,1-2.07-.82,3,3,0,0,1-.82-2.21,2.85,2.85,0,0,1,.95-2.21A3.35,3.35,0,0,1,28.75,57.26ZM27,60.36a1.48,1.48,0,0,0,.46,1.14,1.78,1.78,0,0,0,1.24.43A2.32,2.32,0,0,0,30.55,61v-.13a2.34,2.34,0,0,0-.5-1.54,1.6,1.6,0,0,0-1.27-.59,1.74,1.74,0,0,0-1.28.48A1.55,1.55,0,0,0,27,60.36Z"/>
          <path style="fill: #414042;" d="M36.68,66.88a3.69,3.69,0,0,1-2.39-.75,2.35,2.35,0,0,1-.94-1.94,2.66,2.66,0,0,1,.45-1.56A2.63,2.63,0,0,1,35,61.69v0a2,2,0,0,1-.8-.77,2.19,2.19,0,0,1-.34-1.21,2.17,2.17,0,0,1,.8-1.78,3.65,3.65,0,0,1,4.17,0,2.19,2.19,0,0,1,.8,1.77,2.22,2.22,0,0,1-.36,1.24,1.86,1.86,0,0,1-.8.74v0a2.56,2.56,0,0,1,1.16.93A2.62,2.62,0,0,1,40,64.19a2.33,2.33,0,0,1-1,2A3.83,3.83,0,0,1,36.68,66.88Zm0-1.41A1.8,1.8,0,0,0,37.93,65,1.36,1.36,0,0,0,38.42,64a1.39,1.39,0,0,0-.48-1.09,1.8,1.8,0,0,0-1.26-.43,1.78,1.78,0,0,0-1.25.43A1.39,1.39,0,0,0,35,64,1.31,1.31,0,0,0,35.46,65A1.83,1.83,0,0,0,36.68,65.47Zm-1-4.78a1.49,1.49,0,0,0,1,.32,1.54,1.54,0,0,0,1-.32,1.06,1.06,0,0,0,.39-.85,1,1,0,0,0-.4-.84,1.59,1.59,0,0,0-2,0,1.1,1.1,0,0,0-.38.83A1,1,0,0,0,35.69,60.69Z"/>
        </g>
      </g>
    </g>
    <g>
      <path style="fill: #414042;" d="M13.64,22.67a.9.9,0,0,1,0-1.22.8.8,0,0,1,.6-.24.82.82,0,0,1,.61.24.81.81,0,0,1,.24.61.84.84,0,0,1-.24.62.81.81,0,0,1-.61.23A.8.8,0,0,1,13.64,22.67Zm1-.19a.63.63,0,0,0,0-.84.53.53,0,0,0-.78,0,.65.65,0,0,0-.16.42.61.61,0,0,0,.16.42.53.53,0,0,0,.78,0Z"/>
      <path style="fill: #414042;" d="M15.72,22.06l-.54-.83h.33l.4.61h0l.4-.61h.32l-.54.83.56.84h-.34l-.41-.62h0l-.41.62h-.33Z"/>
      <path style="fill: #414042;" d="M16.94,21.23h.28V22.9h-.28Z"/>
      <path style="fill: #414042;" d="M17.64,21.23h.53a.85.85,0,0,1,.63.23.78.78,0,0,1,.24.6.85.85,0,0,1-.23.61.89.89,0,0,1-.63.23h-.54Zm.52,1.41a.57.57,0,0,0,.43-.16.61.61,0,0,0,.16-.42.58.58,0,0,0-.16-.41.57.57,0,0,0-.41-.17h-.25v1.16Z"/>
      <path style="fill: #414042;" d="M19.38,21.23h.29V22.9h-.29Z"/>
      <path style="fill: #414042;" d="M20,22.67l.82-1.18h-.78v-.25h1.15v.22l-.83,1.19h.84v.26H20Z"/>
      <path style="fill: #414042;" d="M21.57,21.23h.29V22.9h-.29Z"/>
      <path style="fill: #414042;" d="M22.28,21.23h.28l.81,1.2h0v-1.2h.28V22.9h-.29l-.8-1.18h0V22.9h-.28Z"/>
      <path style="fill: #414042;" d="M24.23,22.68a1,1,0,0,1,0-1.23.82.82,0,0,1,.61-.24.84.84,0,0,1,.35.07.69.69,0,0,1,.3.2l-.2.18a.63.63,0,0,0-.45-.18.51.51,0,0,0-.39.16.58.58,0,0,0-.15.42.6.6,0,0,0,.15.42.48.48,0,0,0,.4.17.7.7,0,0,0,.37-.11v-.28H24.8V22h.69v.69a.8.8,0,0,1-.29.15,1.09,1.09,0,0,1-.36.06A.85.85,0,0,1,24.23,22.68Z"/>
      <path style="fill: #414042;" d="M27,21.23h.28l.62,1.67h-.29l-.13-.36h-.68l-.13.36h-.29Zm.4,1.06-.26-.72h0l-.25.72Z"/>
      <path style="fill: #414042;" d="M28.2,22.68a.81.81,0,0,1-.24-.62.85.85,0,0,1,.23-.61.78.78,0,0,1,.6-.24.92.92,0,0,1,.36.07.72.72,0,0,1,.29.2l-.2.18a.61.61,0,0,0-.45-.18.49.49,0,0,0-.38.16.58.58,0,0,0-.15.42.6.6,0,0,0,.15.42.48.48,0,0,0,.39.17.67.67,0,0,0,.37-.11v-.28h-.4V22h.69v.69a.89.89,0,0,1-.29.15,1.15,1.15,0,0,1-.37.06A.85.85,0,0,1,28.2,22.68Z"/>
      <path style="fill: #414042;" d="M29.82,21.23h1.05v.25h-.76v.46h.62v.26h-.62v.44h.81v.26h-1.1Z"/>
      <path style="fill: #414042;" d="M31.25,21.23h.28l.82,1.2h0v-1.2h.28V22.9h-.28l-.81-1.18h0V22.9h-.29Z"/>
      <path style="fill: #414042;" d="M33.39,21.48h-.47v-.25h1.23v.25h-.48V22.9h-.28Z"/>
    </g>
  </g>
</svg>
