<svg id="ae2c0b53-6c2d-40df-b772-e1601527ee34" data-name="Layer 1" xmlns="http://www.w3.org/2000/svg" viewBox="0 0 80 80">
  <title>58</title>
  <g>
    <g>
      <path style="fill: #fadc0f;" d="M40.15,59.6l2.49-.21L47.4,59s.53-5.4,2.35-8.63a5.88,5.88,0,0,1,1.42-1.75l-8.54.21-2.4.06C40.27,51,40.33,55.63,40.15,59.6Z"/>
      <path style="fill: #fff;" d="M.63,57.64l10.19.51,13.46.68,15.6.79.27,0c.18-4,.12-8.62.08-10.72l-1.84,0-.31.81-2.45,6.32L3,55.26l-.09-5.53H1.3C.87,54.41.63,57.64.63,57.64Z"/>
      <path style="fill: #fff;" d="M21.11,40.85l13.94-.34v4.26H21.11ZM1.3,49.73H38.08l.31-.81-.06-11.76h1.54a169.36,169.36,0,0,0-2.53-25c-1.82.29-25.7,4.2-31.76,6.1-1.23,4.42-2.37,13-3.24,21h1V49h-2ZM4.77,35.22l1.8-14.76s15-3.24,28.36-5.49l1.35,17.64Z"/>
      <path style="fill: #fadc0f;" d="M37.34,12.11a169.36,169.36,0,0,1,2.53,25h1.36a109,109,0,0,1,1.4,11.64v0l8.54-.21h0a2.67,2.67,0,0,1,2-.6c4.63.49,4.41,9.81,4.41,9.81L71.1,56.09l.33,0c-.48-6.87-4.29-8.75-4.29-8.75V26.76L37.45,12.09Z"/>
      <path style="fill: #fadc0f;" d="M67.14,26.75V47.29s.11,5.86.29,8.87a8.86,8.86,0,0,0,4-.12l2.83-.36.21,0s.35-4.23,2.17-6a2.52,2.52,0,0,1,1.55-.78,34.78,34.78,0,0,0-.68-4.38h0a8.28,8.28,0,0,1-7.37-5.18L69.7,28Z"/>
      <path style="fill: #fff;" d="M38.33,37.15l.06,11.76,4.24-.1v0a109,109,0,0,0-1.4-11.64Z"/>
      <polygon style="fill: #fff;" points="21.11 40.84 21.11 44.77 35.05 44.77 35.05 40.51 21.11 40.84"/>
      <path style="fill: #fff;" d="M1.36,49h2V39.21h-1C2,42.72,1.63,46.11,1.36,49Z"/>
      <path style="fill: #fff;" d="M69.7,28l.43,11.28a8.28,8.28,0,0,0,7.37,5.18h0c-.14-.65-.3-1.3-.47-1.95h0v0c-.23-.88-.49-1.75-.75-2.6h0A80.21,80.21,0,0,0,72,29.12Z"/>
      <path style="fill: #fff;" d="M77,37.26v5.23a0,0,0,0,0,0,0h2.27V37.26Z"/>
      <path style="fill: #fff;" d="M42.64,59.38v.23c.15,4.55,2,8.15,4.27,8.15L52,67.9h.22c2.36,0,4.27-3.91,4.27-8.74s-1.91-8.74-4.27-8.74l-2.5-.08C47.93,53.58,47.4,59,47.4,59Z"/>
      <path style="fill: #fff;" d="M10.82,58.14v.23c.52,3.62,2.16,6.25,4.09,6.25l5.35.16c1.86,0,3.44-2.42,4-5.81v-.15Z"/>
      <path style="fill: #fff;" d="M71.1,56.08v.07c.29,2.25,1.3,3.9,2.49,3.9l3.21.1c1.42,0,2.58-2.36,2.58-5.26a8.39,8.39,0,0,0-.91-4v0a2.07,2.07,0,0,0-1.66-1.24h-.16c-1.82,1.79-2.17,6-2.17,6l-.21,0L71.43,56Z"/>
      <path style="fill: #fff;" d="M4.77,35.21,36.28,32.6,34.93,15C21.6,17.21,6.57,20.45,6.57,20.45Z"/>
      <polygon style="fill: #fff;" points="2.89 49.73 2.98 55.26 35.63 56.05 38.08 49.73 2.89 49.73"/>
      <polygon style="fill: #fff;" points="21.11 40.84 21.11 44.77 35.05 44.77 35.05 40.51 21.11 40.84"/>
    </g>
    <g>
      <g>
        <g>
          <g>
            <path style="fill: none; stroke: #414042; stroke-linecap: round; stroke-linejoin: round;" d="M72.46,30.19c1.39,2.95,5.14,11.5,5.72,18.67-3.17.31-3.71,6.79-3.71,6.79l-16.9,2.16s.22-9.31-4.42-9.81-5.76,11-5.76,11l-7.51.63-39.26-2s2.25-29.7,5-39.43c6.3-2,31.86-6.12,31.86-6.12L70.91,28.62A3.33,3.33,0,0,1,72.46,30.19Z"/>
            <path style="fill: none; stroke: #414042; stroke-linecap: round; stroke-linejoin: round;" d="M69.7,28l.4,10.51a3.65,3.65,0,0,0,.47,1.71,8.39,8.39,0,0,0,6.93,4.23"/>
            <rect style="fill: none; stroke: #414042; stroke-linecap: round; stroke-linejoin: round;" x="77.03" y="37.27" width="2.28" height="5.26" transform="translate(156.34 79.79) rotate(-180)"/>
            <g>
              <ellipse style="fill: none; stroke: #414042; stroke-linecap: round; stroke-linejoin: round;" cx="52.25" cy="59.18" rx="4.27" ry="8.74"/>
              <path style="fill: none; stroke: #414042; stroke-linecap: round; stroke-linejoin: round;" d="M42.64,59.61c.15,4.55,2,8.15,4.26,8.15"/>
              <line style="fill: none; stroke: #414042; stroke-linecap: round; stroke-linejoin: round;" x1="52.25" y1="67.92" x2="46.9" y2="67.76"/>
              <line style="fill: none; stroke: #414042; stroke-linecap: round; stroke-linejoin: round;" x1="52.25" y1="50.43" x2="49.75" y2="50.36"/>
            </g>
            <g>
              <path style="fill: none; stroke: #414042; stroke-linecap: round; stroke-linejoin: round;" d="M16.15,58.49c.52,3.64,2.16,6.3,4.1,6.3s3.44-2.43,4-5.82"/>
              <path style="fill: none; stroke: #414042; stroke-linecap: round; stroke-linejoin: round;" d="M10.81,58.38c.53,3.61,2.16,6.25,4.1,6.25"/>
              <line style="fill: none; stroke: #414042; stroke-linecap: round; stroke-linejoin: round;" x1="20.25" y1="64.79" x2="14.91" y2="64.63"/>
            </g>
            <g>
              <path style="fill: none; stroke: #414042; stroke-linecap: round; stroke-linejoin: round;" d="M74.26,55.75c.2,2.5,1.26,4.4,2.54,4.4s2.57-2.35,2.57-5.26-1.15-5.26-2.57-5.26h-.16"/>
              <path style="fill: none; stroke: #414042; stroke-linecap: round; stroke-linejoin: round;" d="M71.1,56.16c.29,2.24,1.29,3.9,2.48,3.9"/>
              <line style="fill: none; stroke: #414042; stroke-linecap: round; stroke-linejoin: round;" x1="76.8" y1="60.15" x2="73.58" y2="60.06"/>
            </g>
            <path style="fill: none; stroke: #414042; stroke-linecap: round; stroke-linejoin: round;" d="M40.19,49c0,3.45-.11,7-.31,10.65"/>
            <path style="fill: none; stroke: #414042; stroke-linecap: round; stroke-linejoin: round;" d="M37.44,12.08a221.1,221.1,0,0,1,2.49,25"/>
            <path style="fill: none; stroke: #414042; stroke-linecap: round; stroke-linejoin: round;" d="M34.92,15l1.35,17.65L4.77,35.22l1.8-14.77S21.6,17.21,34.92,15Z"/>
            <polyline style="fill: none; stroke: #414042; stroke-linecap: round; stroke-linejoin: round;" points="51.17 48.6 38.39 48.91 35.62 56.04 2.98 55.26 2.89 49.73"/>
            <path style="fill: none; stroke: #414042; stroke-linecap: round; stroke-linejoin: round;" d="M38.39,48.91l-.07-11.76h2.91a111.75,111.75,0,0,1,1.4,11.64"/>
            <polyline style="fill: none; stroke: #414042; stroke-linecap: round; stroke-linejoin: round;" points="2.34 39.22 3.37 39.22 3.37 49.03 1.36 49.03"/>
            <line style="fill: none; stroke: #414042; stroke-linecap: round; stroke-linejoin: round;" x1="78.18" y1="48.86" x2="78.46" y2="50.84"/>
          </g>
          <line style="fill: none; stroke: #414042; stroke-linecap: round; stroke-linejoin: round;" x1="38.07" y1="49.73" x2="1.29" y2="49.73"/>
          <polygon style="fill: none; stroke: #414042; stroke-linecap: round; stroke-linejoin: round;" points="35.05 40.51 35.05 44.76 21.11 44.76 21.11 40.84 35.05 40.51"/>
        </g>
        <line style="fill: none; stroke: #414042; stroke-linecap: round; stroke-linejoin: round;" x1="67.13" y1="26.75" x2="67.13" y2="56.59"/>
      </g>
      <line style="fill: none; stroke: #414042; stroke-linecap: round; stroke-linejoin: round;" x1="77.03" y1="39.89" x2="76.27" y2="39.89"/>
      <line style="fill: none; stroke: #414042; stroke-linecap: round; stroke-linejoin: round;" x1="56.43" y1="21.47" x2="56.62" y2="51.41"/>
    </g>
  </g>
</svg>
