<svg id="a780da64-9017-47c2-92df-ccd9737e862a" data-name="Layer 1" xmlns="http://www.w3.org/2000/svg" viewBox="0 0 80 80">
  <title>59</title>
  <g>
    <g>
      <polygon style="fill: #fff;" points="13.27 13.69 13.27 52.08 16.63 52.19 16.63 13.3 16.64 13.25 13.27 13.69"/>
      <polygon style="fill: #fff;" points="16.63 13.3 16.63 52.19 27.44 52.54 27.24 11.86 16.64 13.25 16.63 13.3"/>
      <polygon style="fill: #fff;" points="27.24 11.86 27.44 52.54 68.33 51.8 68.33 19.28 27.24 11.86"/>
      <polygon style="fill: #fff;" points="10.05 14.11 10.05 51.98 13.27 52.08 13.27 13.69 10.05 14.11"/>
      <polygon style="fill: #fff;" points="0.54 15.36 0.54 51.69 4.35 51.81 10.05 51.98 10.05 14.12 0.54 15.36"/>
      <path style="fill: #fadc0f;" d="M68.33,32.4V53.69a3.46,3.46,0,0,1,1.84-2l.28-.07c3.08-.47,4,4.87,4,4.87h2.57S76.91,40.83,75.64,37,68.33,32.4,68.33,32.4Zm1.38,4s1.2,0,2.55.12a3.41,3.41,0,0,1,3,2.78,53,53,0,0,1,.61,7.87H69.71Z"/>
      <path style="fill: #fff;" d="M29.76,61.93H29V58.2L4.35,57.36V51.81l5.7.17,3.22.1,3.36.11,10.81.35,6.33-.11C30,55.15,29.7,59.79,29.76,61.93Z"/>
      <path style="fill: #fadc0f;" d="M68.33,51.8v1.89A19.48,19.48,0,0,0,67,59.85h0a.45.45,0,0,0,0,.08l-3.21.18-17.18,1s-.5-7.56-5.66-7.63a3.3,3.3,0,0,0-1.89.52,4.38,4.38,0,0,0-1.5,1.73c-1.45,2.8-1.19,7.21-1.19,7.21H29.84s0-.37,0-1h0c-.06-2.14.28-6.78,4-9.5Z"/>
      <path style="fill: #fff;" d="M69.71,36.36V47.13h6.21a53,53,0,0,0-.61-7.87,3.41,3.41,0,0,0-3-2.78C70.91,36.36,69.71,36.36,69.71,36.36Z"/>
      <polygon style="fill: #fff;" points="2.61 57.3 2.61 61.12 11.99 61.55 16.24 61.75 24.61 62.13 28.98 62.33 28.98 58.2 4.35 57.36 2.61 57.3"/>
      <path style="fill: #fff;" d="M63.8,60.12v.09c.63,1.62,1.78,2.7,3.09,2.7h3.34c2,0,3.6-2.51,3.6-5.61s-1.51-5.44-3.4-5.6h-.27a3.46,3.46,0,0,0-1.84,2A19.77,19.77,0,0,0,67,59.86h0A.45.45,0,0,0,67,60Z"/>
      <path style="fill: #fff;" d="M12,61.55v.2c.66,2.65,2.31,4.54,4.25,4.54h4.23c1.81,0,3.39-1.66,4.12-4.07l0-.09-8.37-.38Z"/>
      <path style="fill: #fff;" d="M32,62.91l0,.16c.56,2.93,2.31,5.07,4.37,5.07h4.23c2.52,0,4.55-3.17,4.55-7.1s-2-7.1-4.55-7.1l-1.4,0h-.1a4.38,4.38,0,0,0-1.5,1.73c-1.45,2.8-1.19,7.21-1.19,7.21Z"/>
      <rect style="fill: #fff;" x="77.07" y="37.39" width="2.39" height="5.41"/>
    </g>
    <g>
      <g>
        <polygon style="fill: none; stroke: #414042; stroke-linecap: round; stroke-linejoin: round;" points="0.54 15.36 0.54 51.69 27.45 52.53 68.33 51.79 68.33 19.27 27.24 11.86 0.54 15.36"/>
        <line style="fill: none; stroke: #414042; stroke-linecap: round; stroke-linejoin: round;" x1="27.24" y1="11.86" x2="27.45" y2="52.53"/>
        <path style="fill: none; stroke: #414042; stroke-linecap: round; stroke-linejoin: round;" d="M68.33,32.41s6,.69,7.31,4.55,1.43,19.55,1.43,19.55H74.5s-1-5.35-4-4.88S67,60,67,60L46.62,61.08s-.49-7.56-5.65-7.63-4.59,9.47-4.59,9.47H29.84"/>
        <path style="fill: none; stroke: #414042; stroke-linecap: round; stroke-linejoin: round;" d="M69.71,36.36V47.13h6.21a51.6,51.6,0,0,0-.61-7.87,3.42,3.42,0,0,0-3-2.78C70.92,36.36,69.71,36.36,69.71,36.36Z"/>
        <line style="fill: none; stroke: #414042; stroke-linecap: round; stroke-linejoin: round;" x1="13.27" y1="13.69" x2="13.27" y2="52.09"/>
        <polygon style="fill: none; stroke: #414042; stroke-linecap: round; stroke-linejoin: round;" points="28.98 62.33 2.61 61.11 2.61 57.3 28.98 58.2 28.98 62.33"/>
        <path style="fill: none; stroke: #414042; stroke-linecap: round; stroke-linejoin: round;" d="M29.84,62.92s-.63-6.79,2.69-9"/>
        <g>
          <path style="fill: none; stroke: #414042; stroke-linecap: round; stroke-linejoin: round;" d="M70.44,51.7c1.89.15,3.4,2.6,3.4,5.6s-1.61,5.62-3.6,5.62c-1.36,0-2.54-1.18-3.16-2.91"/>
          <path style="fill: none; stroke: #414042; stroke-linecap: round; stroke-linejoin: round;" d="M66.9,62.92c-1.31,0-2.45-1.09-3.08-2.71"/>
          <line style="fill: none; stroke: #414042; stroke-linecap: round; stroke-linejoin: round;" x1="66.9" y1="62.92" x2="70.24" y2="62.92"/>
        </g>
        <g>
          <ellipse style="fill: none; stroke: #414042; stroke-linecap: round; stroke-linejoin: round;" cx="40.57" cy="61.04" rx="4.56" ry="7.1"/>
          <path style="fill: none; stroke: #414042; stroke-linecap: round; stroke-linejoin: round;" d="M36.34,68.14c-2.06,0-3.8-2.13-4.37-5.06"/>
          <line style="fill: none; stroke: #414042; stroke-linecap: round; stroke-linejoin: round;" x1="36.34" y1="68.14" x2="40.57" y2="68.14"/>
          <line style="fill: none; stroke: #414042; stroke-linecap: round; stroke-linejoin: round;" x1="39.17" y1="53.97" x2="40.57" y2="53.94"/>
        </g>
        <g>
          <path style="fill: none; stroke: #414042; stroke-linecap: round; stroke-linejoin: round;" d="M24.59,62.22c-.73,2.41-2.3,4.07-4.12,4.07s-3.56-1.84-4.23-4.45"/>
          <path style="fill: none; stroke: #414042; stroke-linecap: round; stroke-linejoin: round;" d="M16.24,66.29c-1.94,0-3.59-1.89-4.25-4.54"/>
          <line style="fill: none; stroke: #414042; stroke-linecap: round; stroke-linejoin: round;" x1="16.24" y1="66.29" x2="20.47" y2="66.29"/>
        </g>
        <line style="fill: none; stroke: #414042; stroke-linecap: round; stroke-linejoin: round;" x1="10.05" y1="14.11" x2="10.05" y2="51.52"/>
        <line style="fill: none; stroke: #414042; stroke-linecap: round; stroke-linejoin: round;" x1="16.63" y1="13.3" x2="16.63" y2="51.92"/>
        <line style="fill: none; stroke: #414042; stroke-linecap: round; stroke-linejoin: round;" x1="28.98" y1="61.93" x2="29.79" y2="61.93"/>
      </g>
      <rect style="fill: none; stroke: #414042; stroke-linecap: round; stroke-linejoin: round;" x="77.07" y="37.39" width="2.38" height="5.4"/>
      <line style="fill: none; stroke: #414042; stroke-linecap: round; stroke-linejoin: round;" x1="4.35" y1="51.81" x2="4.35" y2="57.35"/>
    </g>
  </g>
</svg>
