<svg id="bb5a055c-a839-4e2c-9d81-3f7a06e887c6" data-name="Layer 1" xmlns="http://www.w3.org/2000/svg" viewBox="0 0 80 80">
  <title>60</title>
  <g>
    <g>
      <path style="fill:#fff;" d="M28.62,79l2.84-.14C37.72,65.68,37.34,26.68,37.33,25h-.08l-1.36.24-1.17.21C34.72,25.87,34.62,66.34,28.62,79Z"/>
      <path style="fill:#fff;" d="M21.56,79l2.52,0h.13c3.51-10.78,4.39-51.23,4.43-52.94h-.06c-.83,0-1.66.06-2.46.05h-.07C26,26.55,25,68.55,21.56,79Z"/>
      <path style="fill:#fff;" d="M14.84,78.48H15l2.39.24h0c2-12.55,2.82-51.47,2.85-53.1h0c-.85-.15-1.67-.34-2.46-.56l-.05,0C17.69,25.45,16.81,66.11,14.84,78.48Z"/>
      <path style="fill:#fff;" d="M1.86,1V6.6s5.83,10,9.36,14.53a12.9,12.9,0,0,0,6.48,3.92l.05,0,2.46.56a34,34,0,0,0,5.84.5h.07l2.46-.05h.06a60.49,60.49,0,0,0,7.25-.82l.63-.11.73-.13h.08c1-.15,2.12-.3,3.38-.43h0C43.38,26,47.37,26.68,51.4,27h0c0,.09,0,1.19,0,3,0,1.42-.09,3.29-.18,5.47-.07,1.59-.16,3.34-.28,5.2-.09,1.47-.2,3-.33,4.6l-.09,1.09,28.81.37V1Z"/>
      <path style="fill:#fadc0f;" d="M31.46,78.82c3.06-.18,5.82-.46,8-.78a6.27,6.27,0,0,0,4.29-2.66,18,18,0,0,0,1.46-2.67A36.31,36.31,0,0,0,46.93,68c.45-1.53.85-3.19,1.22-4.92s.71-3.63,1-5.53c.26-1.7.5-3.42.7-5.15.24-2,.44-4,.62-5.94l.09-1.09c.13-1.59.24-3.13.33-4.6.12-1.86.21-3.61.28-5.2.09-2.18.15-4,.18-5.47,0-1.84,0-2.94,0-3h0c-4-.36-8-1.09-10.68-2.46h0c-1.26.13-2.4.28-3.38.43C37.34,26.68,37.72,65.68,31.46,78.82Z"/>
      <path style="fill:#fadc0f;" d="M24.21,79c1.5,0,3,0,4.41-.06,6-12.62,6.1-53.09,6.1-53.49l1.17-.21a60.49,60.49,0,0,1-7.25.82C28.6,27.79,27.72,68.24,24.21,79Z"/>
      <path style="fill:#fff;" d="M31.46,78.82c-.92.06-1.87.1-2.84.14"/>
      <path style="fill:#fadc0f;" d="M17.4,78.74c1.37.11,2.77.19,4.16.23C25,68.55,26,26.55,26.05,26.13a34,34,0,0,1-5.84-.5h0C20.22,27.27,19.4,66.19,17.4,78.74Z"/>
      <path style="fill:#fff;" d="M17.35,78.73c-.81-.06-1.6-.14-2.39-.24"/>
      <path style="fill:#fff;" d="M24.08,79c-.84,0-1.68,0-2.52,0"/>
      <path style="fill:#fadc0f;" d="M.72,40.57c0,3.06.05,5.94.15,8.66.06,2,.16,3.84.28,5.63q.21,3.18.54,6h0c.19,1.75.43,3.4.69,5s.6,3.15,1,4.58q.29,1.14.6,2.19a6.27,6.27,0,0,0,.37,1A7.06,7.06,0,0,0,9,77.45a47,47,0,0,0,5.83,1c2-12.37,2.85-53,2.86-53.43a12.9,12.9,0,0,1-6.48-3.92C7.69,16.6,1.86,6.6,1.86,6.6c-.08,1.29-.14,2.57-.21,3.82-.09,1.74-.18,3.45-.26,5.12s-.16,3.44-.22,5.1Q1,24,.93,27.25C.86,29.59.8,31.84.77,34S.71,38.47.72,40.57Z"/>
    </g>
    <g>
      <line style="fill:none;stroke:#414042;stroke-linecap:round;stroke-linejoin:round;" x1="50.33" y1="46.44" x2="79.28" y2="46.81"/>
      <polyline style="fill:none;stroke:#414042;stroke-linecap:round;stroke-linejoin:round;" points="65.72 23.18 65.72 30.2 78.37 37.25"/>
      <path style="fill:none;stroke:#414042;stroke-linecap:round;stroke-linejoin:round;" d="M1.86,6.6s5.83,10,9.36,14.53c4.51,5.47,15.27,5.84,25.3,4S78.07,22.9,78.07,22.9"/>
      <path style="fill:none;stroke:#414042;stroke-linecap:round;stroke-linejoin:round;" d="M65.72,27.22s-17.64,1.17-25-2.64"/>
      <path style="fill:none;stroke:#414042;stroke-linecap:round;stroke-linejoin:round;" d="M51.4,27s-.08,37.17-7.65,48.34A6.27,6.27,0,0,1,39.46,78C32.2,79.1,18.48,79.8,9,77.45A7.07,7.07,0,0,1,3.94,72.6C.17,60.05,0,39.05,1.86,6.6"/>
      <path style="fill:none;stroke:#414042;stroke-linecap:round;stroke-linejoin:round;" d="M51.35,30.08A31.61,31.61,0,0,1,44,30.3"/>
      <path style="fill:none;stroke:#414042;stroke-linecap:round;stroke-linejoin:round;" d="M51.17,35.55a37.64,37.64,0,0,1-7.21.23"/>
      <path style="fill:none;stroke:#414042;stroke-linecap:round;stroke-linejoin:round;" d="M50.89,40.75a40.48,40.48,0,0,1-6.93.18"/>
      <path style="fill:none;stroke:#414042;stroke-linecap:round;stroke-linejoin:round;" d="M50.56,45.35a67.26,67.26,0,0,1-7.1.74"/>
      <path style="fill:none;stroke:#414042;stroke-linecap:round;stroke-linejoin:round;" d="M49.85,52.38a36.1,36.1,0,0,1-7.08.87"/>
      <path style="fill:none;stroke:#414042;stroke-linecap:round;stroke-linejoin:round;" d="M49.15,57.53a34.56,34.56,0,0,1-6.79,1.79"/>
      <path style="fill:none;stroke:#414042;stroke-linecap:round;stroke-linejoin:round;" d="M48.15,63.06a32.77,32.77,0,0,1-6.93,2.28"/>
      <path style="fill:none;stroke:#414042;stroke-linecap:round;stroke-linejoin:round;" d="M46.93,68a25.72,25.72,0,0,1-6.67,2.15"/>
      <path style="fill:none;stroke:#414042;stroke-linecap:round;stroke-linejoin:round;" d="M45.21,72.71a36.93,36.93,0,0,1-6,2.16"/>
      <path style="fill:none;stroke:#414042;stroke-linecap:round;stroke-linejoin:round;" d="M1.65,10.43a4.2,4.2,0,0,0,2,.35"/>
      <path style="fill:none;stroke:#414042;stroke-linecap:round;stroke-linejoin:round;" d="M1.39,15.54A32.51,32.51,0,0,0,7,16.6"/>
      <path style="fill:none;stroke:#414042;stroke-linecap:round;stroke-linejoin:round;" d="M1.17,20.65a52,52,0,0,0,7.8,2"/>
      <path style="fill:none;stroke:#414042;stroke-linecap:round;stroke-linejoin:round;" d="M.93,27.25a24.64,24.64,0,0,0,9.26,2"/>
      <path style="fill:none;stroke:#414042;stroke-linecap:round;stroke-linejoin:round;" d="M.77,34s5.4,2.72,9.66,2.9"/>
      <path style="fill:none;stroke:#414042;stroke-linecap:round;stroke-linejoin:round;" d="M.72,40.57s5.18,3.4,10,3.49"/>
      <path style="fill:none;stroke:#414042;stroke-linecap:round;stroke-linejoin:round;" d="M.87,49.23S6.36,53,10.7,53.34"/>
      <path style="fill:none;stroke:#414042;stroke-linecap:round;stroke-linejoin:round;" d="M1.15,54.86S6,58.36,11,59.06"/>
      <path style="fill:none;stroke:#414042;stroke-linecap:round;stroke-linejoin:round;" d="M1.68,60.86s4.68,3.06,9,3.76"/>
      <path style="fill:none;stroke:#414042;stroke-linecap:round;stroke-linejoin:round;" d="M2.38,65.83A19.57,19.57,0,0,0,11,69.05"/>
      <path style="fill:none;stroke:#414042;stroke-linecap:round;stroke-linejoin:round;" d="M3.34,70.41a24.32,24.32,0,0,0,8,2.42"/>
      <path style="fill:none;stroke:#414042;stroke-linecap:round;stroke-linejoin:round;" d="M4.31,73.57a21.25,21.25,0,0,0,6.39,1.64"/>
      <path style="fill:none;stroke:#414042;stroke-linecap:round;stroke-linejoin:round;" d="M31.46,78.82C37.72,65.68,37.34,26.68,37.33,25l-2.61.46c0,.4-.1,40.87-6.1,53.49Z"/>
      <path style="fill:none;stroke:#414042;stroke-linecap:round;stroke-linejoin:round;" d="M24.21,79c3.51-10.77,4.39-51.23,4.43-52.94l-2.59.05C26,26.55,25,68.56,21.56,79Z"/>
      <path style="fill:none;stroke:#414042;stroke-linecap:round;stroke-linejoin:round;" d="M17.4,78.74c2-12.55,2.82-51.47,2.85-53.1l-2.55-.59c0,.4-.89,41.06-2.86,53.43Z"/>
    </g>
  </g>
</svg>
