<svg id="b3f7f88b-d872-401d-b374-1ae672f0a21e" data-name="Layer 1" xmlns="http://www.w3.org/2000/svg" viewBox="0 0 80 80">
  <title>61</title>
  <g>
    <g>
      <g>
        <path style="fill: #fff;" d="M37.39,37.84a12.8,12.8,0,1,0,12.8,12.8A12.79,12.79,0,0,0,37.39,37.84Zm0,16a3.19,3.19,0,1,1,3.17-3.19A3.18,3.18,0,0,1,37.39,53.83Z"/>
        <path style="fill: #fff;" d="M37.39,37.84a12.8,12.8,0,1,0,12.8,12.8A12.79,12.79,0,0,0,37.39,37.84Zm0,16a3.19,3.19,0,1,1,3.17-3.19A3.18,3.18,0,0,1,37.39,53.83Z"/>
        <path style="fill: #fff;" d="M37.39,33.31A17.34,17.34,0,1,0,54.71,50.64,17.33,17.33,0,0,0,37.39,33.31Zm0,30.13a12.8,12.8,0,1,1,12.8-12.8A12.79,12.79,0,0,1,37.39,63.44Z"/>
        <path style="fill: #fff;" d="M37.39,37.84a12.8,12.8,0,1,0,12.8,12.8A12.79,12.79,0,0,0,37.39,37.84Zm0,16a3.19,3.19,0,1,1,3.17-3.19A3.18,3.18,0,0,1,37.39,53.83Z"/>
        <path style="fill: #fadc0f;" d="M37.39,23.76A26.88,26.88,0,1,0,64.26,50.64,26.87,26.87,0,0,0,37.39,23.76Zm0,44.22A17.34,17.34,0,1,1,54.71,50.64,17.33,17.33,0,0,1,37.39,68Z"/>
        <path style="fill: #fff;" d="M40.56,50.64a3.18,3.18,0,1,1-3.17-3.18A3.18,3.18,0,0,1,40.56,50.64Z"/>
      </g>
      <path style="fill: #fff;" d="M79.28,2.48V55.41h-9.7l0-.08a33.24,33.24,0,0,0,.59-6.27,32.81,32.81,0,1,0-65,6.29l0,.06H.72V2.48Z"/>
    </g>
    <g>
      <g>
        <g>
          <circle style="fill: none; stroke: #414042; stroke-linecap: round; stroke-linejoin: round;" cx="37.39" cy="50.64" r="3.18"/>
          <circle style="fill: none; stroke: #414042; stroke-linecap: round; stroke-linejoin: round;" cx="37.39" cy="50.64" r="12.8"/>
          <circle style="fill: none; stroke: #414042; stroke-linecap: round; stroke-linejoin: round;" cx="37.39" cy="50.64" r="17.33"/>
          <circle style="fill: none; stroke: #414042; stroke-linecap: round; stroke-linejoin: round;" cx="37.39" cy="50.64" r="26.88"/>
          <line style="fill: none; stroke: #414042; stroke-linecap: round; stroke-linejoin: round;" x1="37.39" y1="37.84" x2="37.39" y2="47.46"/>
          <line style="fill: none; stroke: #414042; stroke-linecap: round; stroke-linejoin: round;" x1="48.47" y1="44.24" x2="40.14" y2="49.05"/>
          <line style="fill: none; stroke: #414042; stroke-linecap: round; stroke-linejoin: round;" x1="48.47" y1="57.04" x2="40.14" y2="52.23"/>
          <line style="fill: none; stroke: #414042; stroke-linecap: round; stroke-linejoin: round;" x1="37.39" y1="63.45" x2="37.39" y2="53.83"/>
          <line style="fill: none; stroke: #414042; stroke-linecap: round; stroke-linejoin: round;" x1="26.3" y1="57.04" x2="34.63" y2="52.23"/>
          <line style="fill: none; stroke: #414042; stroke-linecap: round; stroke-linejoin: round;" x1="26.3" y1="44.24" x2="34.63" y2="49.05"/>
          <line style="fill: none; stroke: #414042; stroke-linecap: round; stroke-linejoin: round;" x1="37.39" y1="23.76" x2="37.39" y2="26.88"/>
          <line style="fill: none; stroke: #414042; stroke-linecap: round; stroke-linejoin: round;" x1="47.67" y1="25.81" x2="46.48" y2="28.69"/>
          <line style="fill: none; stroke: #414042; stroke-linecap: round; stroke-linejoin: round;" x1="56.39" y1="31.64" x2="54.19" y2="33.84"/>
          <line style="fill: none; stroke: #414042; stroke-linecap: round; stroke-linejoin: round;" x1="62.22" y1="40.36" x2="59.34" y2="41.55"/>
          <line style="fill: none; stroke: #414042; stroke-linecap: round; stroke-linejoin: round;" x1="64.27" y1="50.64" x2="61.15" y2="50.64"/>
          <line style="fill: none; stroke: #414042; stroke-linecap: round; stroke-linejoin: round;" x1="62.22" y1="60.93" x2="59.34" y2="59.74"/>
          <line style="fill: none; stroke: #414042; stroke-linecap: round; stroke-linejoin: round;" x1="56.39" y1="69.65" x2="54.19" y2="67.45"/>
          <line style="fill: none; stroke: #414042; stroke-linecap: round; stroke-linejoin: round;" x1="47.67" y1="75.47" x2="46.48" y2="72.6"/>
          <line style="fill: none; stroke: #414042; stroke-linecap: round; stroke-linejoin: round;" x1="37.39" y1="77.52" x2="37.39" y2="74.41"/>
          <line style="fill: none; stroke: #414042; stroke-linecap: round; stroke-linejoin: round;" x1="27.1" y1="75.47" x2="28.29" y2="72.6"/>
          <line style="fill: none; stroke: #414042; stroke-linecap: round; stroke-linejoin: round;" x1="18.38" y1="69.65" x2="20.58" y2="67.45"/>
          <line style="fill: none; stroke: #414042; stroke-linecap: round; stroke-linejoin: round;" x1="12.55" y1="60.93" x2="15.43" y2="59.74"/>
          <line style="fill: none; stroke: #414042; stroke-linecap: round; stroke-linejoin: round;" x1="10.51" y1="50.64" x2="13.62" y2="50.64"/>
          <line style="fill: none; stroke: #414042; stroke-linecap: round; stroke-linejoin: round;" x1="12.55" y1="40.36" x2="15.43" y2="41.55"/>
          <line style="fill: none; stroke: #414042; stroke-linecap: round; stroke-linejoin: round;" x1="18.38" y1="31.64" x2="20.58" y2="33.84"/>
          <line style="fill: none; stroke: #414042; stroke-linecap: round; stroke-linejoin: round;" x1="27.1" y1="25.81" x2="28.29" y2="28.69"/>
        </g>
        <path style="fill: none; stroke: #414042; stroke-linecap: round; stroke-linejoin: round;" d="M69.6,55.33a33.24,33.24,0,0,0,.6-6.27,32.82,32.82,0,1,0-65,6.3"/>
        <line style="fill: none; stroke: #414042; stroke-linecap: round; stroke-linejoin: round;" x1="69.58" y1="55.42" x2="79.28" y2="55.42"/>
        <line style="fill: none; stroke: #414042; stroke-linecap: round; stroke-linejoin: round;" x1="5.19" y1="55.42" x2="0.72" y2="55.42"/>
        <path style="fill: none; stroke: #414042; stroke-linecap: round; stroke-linejoin: round;" d="M78,47s0-25.83-21.59-34.3V2.48"/>
      </g>
      <line style="fill: none; stroke: #414042; stroke-linecap: round; stroke-linejoin: round;" x1="22.37" y1="19.88" x2="1.62" y2="19.88"/>
    </g>
  </g>
  <g>
    <path style="fill: #fadc0f;" d="M77.91,24.72H52.68a1.36,1.36,0,0,1-1.16-2.07L64.14,2.2a1.36,1.36,0,0,1,2.31,0L79.07,22.65A1.36,1.36,0,0,1,77.91,24.72Z"/>
    <path style="fill: none; stroke: #414042; stroke-linecap: round; stroke-linejoin: round;" d="M77.91,24.72H52.68a1.36,1.36,0,0,1-1.16-2.07L64.14,2.2a1.36,1.36,0,0,1,2.31,0L79.07,22.65A1.36,1.36,0,0,1,77.91,24.72Z"/>
    <line style="fill: none; stroke: #414042; stroke-linecap: round; stroke-linejoin: round;" x1="65.3" y1="9.04" x2="65.3" y2="16.56"/>
    <circle style="fill: #414042; stroke: #414042; stroke-linecap: round; stroke-linejoin: round;" cx="65.3" cy="19.55" r="0.64"/>
  </g>
</svg>
