<svg id="b06a932e-cbd4-43e3-b25b-95f361aa4eca" data-name="Layer 1" xmlns="http://www.w3.org/2000/svg" viewBox="0 0 80 80">
  <title>62</title>
  <g>
    <g>
      <g>
        <polygon style="fill: #fff;" points="51 26.76 51 71.87 55.66 71.87 55.66 21.59 51 26.76"/>
        <polygon style="fill: #fff;" points="25.63 21.59 25.63 71.87 30.28 71.87 30.28 26.76 25.63 21.59"/>
        <path style="fill: #fff;" d="M53.36,11.05v3.2a20.57,20.57,0,0,0,2.29,1V14.21A3.29,3.29,0,0,0,53.36,11.05Z"/>
        <path style="fill: #fff;" d="M47.93,9.81a15.58,15.58,0,0,0,5.43,4.44v-3.2A46.16,46.16,0,0,0,47.93,9.81Z"/>
        <path style="fill: #fadc0f;" d="M25.63,14.21v1.08a20.17,20.17,0,0,0,2.3-1v-3.2A3.3,3.3,0,0,0,25.63,14.21Z"/>
        <path style="fill: #fff;" d="M27.93,11.05v3.2a15.69,15.69,0,0,0,5.42-4.44A48.09,48.09,0,0,0,27.93,11.05Z"/>
        <path style="fill: #fff;" d="M25.63,15.29v6.3a35.79,35.79,0,0,1,30,0v-6.3a20.57,20.57,0,0,1-2.29-1,15.58,15.58,0,0,1-5.43-4.44,43,43,0,0,0-14.58,0,15.69,15.69,0,0,1-5.42,4.44A20.17,20.17,0,0,1,25.63,15.29Z"/>
        <path style="fill: #fff;" d="M25.63,71.87v4.55a2.8,2.8,0,0,0,2.8,2.81H52.85a2.8,2.8,0,0,0,2.8-2.81V71.87H51V26.76a36.18,36.18,0,0,0-20.72,0V71.87Zm7.05-37.21a1.19,1.19,0,0,1,1.19-1.18h12.2a1.19,1.19,0,0,1,1.19,1.18V38.6a1.19,1.19,0,0,1-1.19,1.18H33.87a1.19,1.19,0,0,1-1.19-1.18Z"/>
        <path style="fill: #fff;" d="M25.63,21.59l4.65,5.17a36.18,36.18,0,0,1,20.72,0l4.65-5.17A35.79,35.79,0,0,0,25.63,21.59Z"/>
        <path style="fill: #fff;" d="M32.68,34.66V38.6a1.19,1.19,0,0,0,1.19,1.18h12.2a1.19,1.19,0,0,0,1.19-1.18V34.66a1.19,1.19,0,0,0-1.19-1.18H33.87A1.19,1.19,0,0,0,32.68,34.66Z"/>
      </g>
      <path style="fill: #fadc0f;" d="M15.43,8A7.61,7.61,0,0,0,23,15.63a7.32,7.32,0,0,0,2.57-.46c0-.4,0-.78,0-1.2a3.3,3.3,0,0,1,2.41-3l2.2-.57A7.38,7.38,0,0,0,30.64,8,7.61,7.61,0,0,0,15.43,8Z"/>
    </g>
    <g>
      <g>
        <path style="fill: none; stroke: #414042; stroke-linecap: round; stroke-linejoin: round;" d="M28.44,79.23H52.85a2.81,2.81,0,0,0,2.81-2.81V14.21a3.27,3.27,0,0,0-2.31-3.15,44,44,0,0,0-25.42,0,3.27,3.27,0,0,0-2.3,3.15V76.42A2.81,2.81,0,0,0,28.44,79.23Z"/>
        <path style="fill: none; stroke: #414042; stroke-linecap: round; stroke-linejoin: round;" d="M30.28,26.76a36.18,36.18,0,0,1,20.72,0l4.66-5.17a35.88,35.88,0,0,0-30,0Z"/>
        <polyline style="fill: none; stroke: #414042; stroke-linecap: round; stroke-linejoin: round;" points="30.28 26.76 30.28 36.21 25.63 36.21"/>
        <polyline style="fill: none; stroke: #414042; stroke-linecap: round; stroke-linejoin: round;" points="51.01 26.76 51.01 36.21 55.66 36.21"/>
        <path style="fill: none; stroke: #414042; stroke-linecap: round; stroke-linejoin: round;" d="M55.66,15.29s-5.17-1.84-7.73-5.49"/>
        <path style="fill: none; stroke: #414042; stroke-linecap: round; stroke-linejoin: round;" d="M25.63,15.29s5.16-1.84,7.73-5.49"/>
        <line style="fill: none; stroke: #414042; stroke-linecap: round; stroke-linejoin: round;" x1="55.66" y1="20.66" x2="58.76" y2="22.87"/>
        <line style="fill: none; stroke: #414042; stroke-linecap: round; stroke-linejoin: round;" x1="25.63" y1="20.66" x2="22.53" y2="22.87"/>
        <rect style="fill: none; stroke: #414042; stroke-linecap: round; stroke-linejoin: round;" x="32.68" y="33.48" width="14.57" height="6.3" rx="1.18" transform="translate(79.93 73.26) rotate(-180)"/>
        <polyline style="fill: none; stroke: #414042; stroke-linecap: round; stroke-linejoin: round;" points="51.01 36.21 51.01 71.87 54.55 71.87"/>
        <line style="fill: none; stroke: #414042; stroke-linecap: round; stroke-linejoin: round;" x1="51" y1="54.45" x2="55.66" y2="54.45"/>
        <polyline style="fill: none; stroke: #414042; stroke-linecap: round; stroke-linejoin: round;" points="30.28 36.21 30.28 71.87 26.74 71.87"/>
        <line style="fill: none; stroke: #414042; stroke-linecap: round; stroke-linejoin: round;" x1="30.28" y1="54.45" x2="25.63" y2="54.45"/>
      </g>
      <path style="fill: none; stroke: #414042; stroke-width: 0.5px; stroke-linecap: round; stroke-linejoin: round;" d="M30.64,8.39V8a7.61,7.61,0,1,0-7.6,7.6h.11"/>
      <line style="fill: none; stroke: #414042; stroke-linecap: round; stroke-linejoin: round;" x1="27.64" y1="8.97" x2="26.95" y2="6.08"/>
      <line style="fill: none; stroke: #414042; stroke-linecap: round; stroke-linejoin: round;" x1="25.23" y1="10.01" x2="23.29" y2="7.76"/>
      <line style="fill: none; stroke: #414042; stroke-linecap: round; stroke-linejoin: round;" x1="24" y1="12.35" x2="21.35" y2="11.02"/>
      <line style="fill: none; stroke: #414042; stroke-linecap: round; stroke-linejoin: round;" x1="27.93" y1="11.06" x2="27.93" y2="14.24"/>
      <line style="fill: none; stroke: #414042; stroke-linecap: round; stroke-linejoin: round;" x1="53.35" y1="11.06" x2="53.35" y2="14.24"/>
    </g>
  </g>
</svg>
