<svg id="e66ff94f-6d94-4b7b-a808-9e450c9ce018" data-name="Layer 1" xmlns="http://www.w3.org/2000/svg" viewBox="0 0 80 80">
  <title>63</title>
  <g>
    <g>
      <g>
        <path style="fill:#fff;" d="M28,18.7v9.85h3.91V22.18a37.7,37.7,0,0,1,17.42,0v6.37h3.91V18.7A37,37,0,0,0,28,18.7Z"/>
        <path style="fill:#fadc0f;" d="M28.39,12.19h0s1-.2,2.17-.57V9.54A5.35,5.35,0,0,0,28.39,12.19Z"/>
        <path style="fill:#fff;" d="M28,14.11V18.7a37,37,0,0,1,25.24,0V14.11a5.5,5.5,0,0,0-.35-1.92h0c-.14,0-1-.21-2.1-.54-1.94-.57-4.5-1.59-4.5-2.9H35c0,1.29-2.52,2.31-4.45,2.88-1.2.37-2.17.57-2.17.57h0A5.29,5.29,0,0,0,28,14.11Z"/>
        <path style="fill:#fff;" d="M46.3,8.74c0,1.31,2.56,2.33,4.5,2.9v-2a5.3,5.3,0,0,0-2.89-.86Z"/>
        <path style="fill:#fff;" d="M50.8,9.6v2c1.08.33,2,.51,2.1.54A5.18,5.18,0,0,0,50.8,9.6Z"/>
        <path style="fill:#fff;" d="M31.94,28.55H28v3.93H53.27V28.55H49.36V22.18a37.7,37.7,0,0,0-17.42,0Z"/>
        <path style="fill:#fff;" d="M30.59,9.54v2.08C32.52,11.05,35,10,35,8.74H33.4A5.29,5.29,0,0,0,30.59,9.54Z"/>
        <rect style="fill:#fff;" x="27.06" y="35.07" width="27.19" height="44.31" transform="translate(81.31 114.44) rotate(-180)"/>
        <rect style="fill:#fff;" x="29.94" y="32.48" width="21.42" height="2.59" transform="translate(81.31 67.55) rotate(-180)"/>
        <path style="fill:#fadc0f;" d="M20.31,8.18a7.6,7.6,0,0,0,7.59,7.61H28c0-.54,0-1.19.07-2a5.66,5.66,0,0,1,4.11-4.93,11,11,0,0,1,3.35-.21c0-.17,0-.33,0-.5a7.6,7.6,0,0,0-15.2,0Z"/>
      </g>
      <g>
        <path style="fill:none;stroke:#414042;stroke-linecap:round;stroke-linejoin:round;" d="M28,8.74H53.28V27.11a5.37,5.37,0,0,1-5.37,5.37H33.4A5.37,5.37,0,0,1,28,27.11Z" transform="translate(81.31 41.22) rotate(-180)"/>
        <path style="fill:none;stroke:#414042;stroke-linecap:round;stroke-linejoin:round;" d="M52.92,12.19S46.3,10.85,46.3,8.74"/>
        <path style="fill:none;stroke:#414042;stroke-linecap:round;stroke-linejoin:round;" d="M28.42,12.19S35,10.85,35,8.74"/>
        <line style="fill:none;stroke:#414042;stroke-linecap:round;stroke-linejoin:round;" x1="50.81" y1="9.59" x2="50.81" y2="11.65"/>
        <line style="fill:none;stroke:#414042;stroke-linecap:round;stroke-linejoin:round;" x1="30.59" y1="9.54" x2="30.59" y2="11.61"/>
        <path style="fill:none;stroke:#414042;stroke-linecap:round;stroke-linejoin:round;" d="M31.94,22.18a37.7,37.7,0,0,1,17.42,0l3.92-3.48A37,37,0,0,0,28,18.7Z"/>
        <polyline style="fill:none;stroke:#414042;stroke-linecap:round;stroke-linejoin:round;" points="31.94 22.18 31.94 28.55 28.03 28.55"/>
        <polyline style="fill:none;stroke:#414042;stroke-linecap:round;stroke-linejoin:round;" points="49.36 22.18 49.36 28.55 53.27 28.55"/>
        <rect style="fill:none;stroke:#414042;stroke-linecap:round;stroke-linejoin:round;" x="27.06" y="35.07" width="27.19" height="44.31" transform="translate(81.31 114.44) rotate(-180)"/>
        <rect style="fill:none;stroke:#414042;stroke-linecap:round;stroke-linejoin:round;" x="29.94" y="32.48" width="21.42" height="2.59" transform="translate(81.31 67.55) rotate(-180)"/>
        <g>
          <line style="fill:none;stroke:#414042;stroke-linecap:round;stroke-linejoin:round;" x1="52.79" y1="20.38" x2="55.16" y2="20.38"/>
          <line style="fill:none;stroke:#414042;stroke-linecap:round;stroke-linejoin:round;" x1="26.39" y1="20.38" x2="28.77" y2="20.38"/>
        </g>
        <line style="fill:none;stroke:#414042;stroke-linecap:round;stroke-linejoin:round;" x1="49.36" y1="41.69" x2="49.36" y2="73.91"/>
        <line style="fill:none;stroke:#414042;stroke-linecap:round;stroke-linejoin:round;" x1="43.82" y1="41.69" x2="43.82" y2="73.91"/>
        <line style="fill:none;stroke:#414042;stroke-linecap:round;stroke-linejoin:round;" x1="38.28" y1="41.69" x2="38.28" y2="73.91"/>
        <line style="fill:none;stroke:#414042;stroke-linecap:round;stroke-linejoin:round;" x1="32.73" y1="41.69" x2="32.73" y2="73.91"/>
        <line style="fill:none;stroke:#414042;stroke-linecap:round;stroke-linejoin:round;" x1="29.84" y1="7.32" x2="29.35" y2="5.27"/>
        <line style="fill:none;stroke:#414042;stroke-linecap:round;stroke-linejoin:round;" x1="27.9" y1="8.78" x2="26.49" y2="7.28"/>
        <line style="fill:none;stroke:#414042;stroke-linecap:round;stroke-linejoin:round;" x1="26.41" y1="10.91" x2="24.52" y2="9.97"/>
      </g>
    </g>
    <path style="fill:none;stroke:#414042;stroke-linecap:round;stroke-linejoin:round;stroke-width:0.5px;" d="M35.42,7a7.6,7.6,0,1,0-9.15,8.59"/>
  </g>
</svg>
