<svg id="b3100a8d-5f8c-44e8-aba6-a83c8b1a5567" data-name="Layer 1" xmlns="http://www.w3.org/2000/svg" viewBox="0 0 80 80">
  <title>64</title>
  <g>
    <g>
      <path style="fill:#fff;" d="M1.45,43.15A2.19,2.19,0,0,0,3.11,44.6C4.82,44.76,5,42.45,5,42.45L2.75,40.39l-.27-.47"/>
      <path style="fill:#fff;" d="M4.08,58.49a12.36,12.36,0,0,0,1.58.37c1.14.19,3.21.36,5.74.51,1.69.1,3.58.19,5.56.25,6.87.29,14.73.46,18.27.52h.11A4.93,4.93,0,0,0,40.1,57a9.53,9.53,0,0,0,.5-1.92h-.39l-10.35.21S27.7,52.5,25.54,52.5s-20.82-.35-20.82-.35L3.19,53.83.76,53.72c0,.8,0,1.29,0,1.29S.31,57.34,4.08,58.49Z"/>
      <path style="fill:#fff;" d="M6.15,42.13c3.41,0,20.62.73,20.62.73s-1.22,5.82-4.29,7.24c-3,.17-15.12-.47-15.12-.47A13,13,0,0,1,6.15,42.13ZM.76,53.72l2.43.11,1.53-1.68s18.67.35,20.82.35,4.32,2.79,4.32,2.79l10.35-.21c.33-10.69,5.86-28.62,8-35a3.83,3.83,0,0,1,3.65-2.63l24.4.57a5.81,5.81,0,0,0-1-1.75c-6.82-1.08-46.85-2.63-56,1.15-3.9,5.27-9.72,15.46-9.72,15.46S3.27,38.25,2,41.44a10.06,10.06,0,0,0-.48,1.79A68.7,68.7,0,0,0,.76,53.72Zm27.9-8.65,1.57-2.59,9.69-2C38.38,46.58,28.66,45.07,28.66,45.07ZM12.78,33.22,20.69,19.8l26.73-.43L42.75,33.6Z"/>
      <path style="fill:#fadc0f;" d="M48.19,20.09c-2.12,6.37-7.65,24.3-8,35h.39c0-.22.07-.45.1-.69.6-5.29,4.09-7.57,5.74-7.18s3,4.41,2.22,11.1c4.58-1.11,13.15-4,17.9-5.69l3.38-1.19s1.26-8.67,3.69-8.92,1.37,8,1.37,8l3.9-2.88S80.21,27.54,76.24,18l-24.4-.57A3.83,3.83,0,0,0,48.19,20.09Zm10.62,0H74.7l1,11.62L60.29,33.84ZM44.88,36.53c.68-2.13,4.9-14.86,4.9-14.86a4.54,4.54,0,0,1,4.29-2l1.06,14.37S51.86,34.93,44.88,36.53Z"/>
      <polygon style="fill:#fff;" points="58.81 20.13 60.06 33.87 75.66 31.75 74.7 20.13 58.81 20.13"/>
      <polygon style="fill:#fff;" points="12.79 33.22 42.76 33.6 47.42 19.38 20.69 19.8 12.79 33.22"/>
      <path style="fill:#fff;" d="M44.88,36.53c7-1.6,10.25-2.46,10.25-2.46L54.07,19.7a4.54,4.54,0,0,0-4.29,2S45.56,34.4,44.88,36.53Z"/>
      <path style="fill:#fff;" d="M28.66,45.07s9.72,1.51,11.26-4.59l-9.69,2Z"/>
      <path style="fill:#fff;" d="M7.36,49.63s12.15.64,15.12.47c3.07-1.42,4.29-7.24,4.29-7.24s-17.21-.73-20.62-.73A13,13,0,0,0,7.36,49.63Z"/>
      <path style="fill:#fff;" d="M35.23,60.14l0,.25C35.8,63.11,36.89,65,38.15,65h7.18c1.55,0,2.84-2.83,3.15-6.6l.18-.06c.74-6.69-.64-10.73-2.22-11.1s-5.14,1.89-5.74,7.18c0,.24-.06.47-.1.69A9.53,9.53,0,0,1,40.1,57a4.93,4.93,0,0,1-4.76,3.15Z"/>
      <path style="fill:#fff;" d="M4.08,58.5v.12c.5,2.94,1.63,5,2.94,5h7.19c1.14,0,2.14-1.54,2.71-3.86l0-.12c-2-.07-3.87-.16-5.56-.26-2.53-.15-4.59-.31-5.74-.51A14.46,14.46,0,0,1,4.08,58.5Z"/>
      <path style="fill:#fff;" d="M66.56,52.61v0c.4,2.31,1.3,3.92,2.34,3.92h3.38c1.32,0,2.41-2.6,2.55-5.93l.16-.1s1.06-8.3-1.37-8-3.69,8.92-3.69,8.92Z"/>
    </g>
    <g>
      <path style="fill:none;stroke:#414042;stroke-linecap:round;stroke-linejoin:round;" d="M47.21,19.92l-4.46,11.9a3.58,3.58,0,0,1-3.5,2.32l-26.15-1a.67.67,0,0,1-.54-1c2.76-4.61,5.14-8.64,7.69-12.21C26,19.25,36.53,19.36,47.21,19.92Z"/>
      <path style="fill:none;stroke:#414042;stroke-linecap:round;stroke-linejoin:round;" d="M39.93,40.48l-9.7,2-1.57,2.58S38.38,46.58,39.93,40.48Z"/>
      <path style="fill:none;stroke:#414042;stroke-linecap:round;stroke-linejoin:round;" d="M2.75,40.39,5,42.45s-.18,2.31-1.89,2.15a2.19,2.19,0,0,1-1.66-1.45"/>
      <polygon style="fill:none;stroke:#414042;stroke-linecap:round;stroke-linejoin:round;" points="74.7 20.13 75.67 31.75 60.06 33.87 58.81 20.13 74.7 20.13"/>
      <path style="fill:none;stroke:#414042;stroke-linecap:round;stroke-linejoin:round;" d="M54.1,20.12l1,14.33L44.89,36.53c.67-2.12,4.89-14.85,4.89-14.85A4.83,4.83,0,0,1,54.1,20.12Z"/>
      <path style="fill:none;stroke:#414042;stroke-linecap:round;stroke-linejoin:round;" d="M78.9,47.67s1.95-21.92-3.15-30.52a2,2,0,0,0-1.51-1c-9-1.07-46.25-2.36-55,1.28C15.33,22.7,9.52,32.89,9.52,32.89S3.28,38.26,2,41.44.75,55,.75,55,.19,58,5.66,58.86c4.61.77,23.83,1.17,29.74,1.28a4.86,4.86,0,0,0,4.66-3,10.37,10.37,0,0,0,.64-2.72c.61-5.3,4.09-7.58,5.74-7.19s3,4.42,2.23,11.1c6.54-1.59,21.27-6.88,21.27-6.88s1.27-8.67,3.7-8.92S75,50.56,75,50.56Z"/>
      <path style="fill:none;stroke:#414042;stroke-linecap:round;stroke-linejoin:round;" d="M26.77,42.86s-1.22,5.82-4.29,7.24c-3,.17-15.12-.47-15.12-.47a13,13,0,0,1-1.21-7.49C9.56,42.14,26.77,42.86,26.77,42.86Z"/>
      <path style="fill:none;stroke:#414042;stroke-linecap:round;stroke-linejoin:round;" d="M40.61,55.07l-10.74.23s-2.16-2.8-4.32-2.8-20.82-.34-20.82-.34L3.2,53.84.75,53.73"/>
      <g>
        <path style="fill:none;stroke:#414042;stroke-linecap:round;stroke-linejoin:round;" d="M69.82,51.62c.28,2.85,1.28,5,2.48,5,1.41,0,2.55-3,2.55-6.61"/>
        <path style="fill:none;stroke:#414042;stroke-linecap:round;stroke-linejoin:round;" d="M74.85,50c0-3.33-1-6.09-2.2-6.54"/>
        <path style="fill:none;stroke:#414042;stroke-linecap:round;stroke-linejoin:round;" d="M66.58,52.67c.39,2.3,1.29,3.91,2.33,3.91"/>
        <line style="fill:none;stroke:#414042;stroke-linecap:round;stroke-linejoin:round;" x1="72.3" y1="56.58" x2="68.91" y2="56.58"/>
      </g>
      <ellipse style="fill:none;stroke:#414042;stroke-linecap:round;stroke-linejoin:round;" cx="45.33" cy="56.66" rx="3.21" ry="8.31"/>
      <path style="fill:none;stroke:#414042;stroke-linecap:round;stroke-linejoin:round;" d="M35.28,60.39C35.81,63.11,36.9,65,38.15,65"/>
      <line style="fill:none;stroke:#414042;stroke-linecap:round;stroke-linejoin:round;" x1="45.33" y1="64.97" x2="38.15" y2="64.97"/>
      <path style="fill:none;stroke:#414042;stroke-linecap:round;stroke-linejoin:round;" d="M11.41,59.37c.55,2.53,1.6,4.24,2.8,4.24s2.14-1.54,2.71-3.86"/>
      <path style="fill:none;stroke:#414042;stroke-linecap:round;stroke-linejoin:round;" d="M4.08,58.62c.5,2.94,1.63,5,3,5"/>
      <line style="fill:none;stroke:#414042;stroke-linecap:round;stroke-linejoin:round;" x1="14.21" y1="63.61" x2="7.03" y2="63.61"/>
      <path style="fill:none;stroke:#414042;stroke-linecap:round;stroke-linejoin:round;" d="M56.44,20.09l1.87,25.63A3.8,3.8,0,0,1,58,47.45a17.29,17.29,0,0,0-1.15,8.43"/>
    </g>
  </g>
</svg>
