<svg id="bc7ce4a6-d852-4b48-bb6e-1ed730bce95f" data-name="Layer 1" xmlns="http://www.w3.org/2000/svg" viewBox="0 0 80 80">
  <title>65</title>
  <g>
    <g>
      <path style="fill: #fff;" d="M18.07,54.26a10.93,10.93,0,0,1,1.25-2.72H23l-.32,3Zm-13.68-5a11.91,11.91,0,0,0-2-4.05V43.82l19.35.56v1.31c-1.62.84-2.66,4.1-2.66,4.1S5.77,49.28,4.39,49.28Zm30.22.33a3.68,3.68,0,0,1,3.22,3,.34.34,0,0,0,0-.1A3.57,3.57,0,0,0,34.61,49.61ZM27.14,38c.17-2.76.88-7.08,1.14-8.61A68.53,68.53,0,0,0,27.14,38ZM.8,55.92l22.05.9.47,0c.33-7.72,3.88-31.42,4.53-35.73h-2.8c-8.09,0-16,.39-17.4,1.54a5.84,5.84,0,0,0-.54.49,8.84,8.84,0,0,0-2,3.32A79.94,79.94,0,0,0,1.5,39.29c0,1.93-.22,6.89-.43,11.34H3.4a5.94,5.94,0,0,1,.52,3h-3C.87,54.43.83,55.23.8,55.92ZM3.93,37.49S6,30.47,7,28.89c2.79-.1,12.54-.52,18.31-.43-.49,4.35-1.2,9.16-1.2,9.16Z"/>
      <path style="fill: #fadc0f;" d="M27.14,38a68.53,68.53,0,0,1,1.14-8.61c.06-.35.1-.55.1-.55l7.34.57-.7,9H33.85A64.07,64.07,0,0,1,27.14,38ZM23.32,56.8c1.38-.06,5.43-.26,6.78-.45.23-2.9,1-6.77,3.4-6.77h.79l.32,0a3.57,3.57,0,0,1,3.21,2.87.34.34,0,0,1,0,.1,2.87,2.87,0,0,1,.05.41c.1,2,.26,5.74.26,5.74l11.49-.6L52.85,58A32.19,32.19,0,0,1,53,53.28a.1.1,0,0,0,0,0,8.07,8.07,0,0,1,.55-2.32H42.62s.06-2.19.12-5.39c.11-7.51.66-20.65-.3-23.91-2.64-.29-8.58-.5-14.59-.55C27.2,25.38,23.65,49.08,23.32,56.8Z"/>
      <path style="fill: #fff;" d="M3.93,37.49l20.19.13s.71-4.81,1.2-9.16c-5.77-.09-15.52.33-18.31.43C6,30.47,3.93,37.49,3.93,37.49Z"/>
      <path style="fill: #fff;" d="M.92,53.59h3a6,6,0,0,0-.52-3H1.07C1,51.66,1,52.66.92,53.59Z"/>
      <path style="fill: #fadc0f;" d="M23.12,60h.29l2.9-.23,3.7-.3a30,30,0,0,1,.09-3.13c-1.35.19-5.4.39-6.78.45Z"/>
      <path style="fill: #fff;" d="M.64,58.94l7.67.37,8.88.41,5.93.28.2-3.2-.47,0-22-.9C.7,57.75.64,58.94.64,58.94Z"/>
      <path style="fill: #fff;" d="M18.07,54.26l4.58.27.32-3H19.32A10.93,10.93,0,0,0,18.07,54.26Z"/>
      <path style="fill: #fff;" d="M27.14,38c2.24.25,5.13.33,6.71.36H35l.7-9-7.34-.57s0,.2-.1.55A68.53,68.53,0,0,0,27.14,38Z"/>
      <path style="fill: #fff;" d="M2.34,43.82v1.41a11.91,11.91,0,0,1,2.05,4.05c1.38,0,14.64.51,14.64.51s1-3.26,2.66-4.1V44.38Z"/>
      <path style="fill: #fff;" d="M25.05,21.06h2.8c6,.05,11.95.26,14.59.55,1,3.26.41,16.4.3,23.91l5.9.11,30.35.6V24.35L49,16.64l-23.69.57Z"/>
      <path style="fill: #fff;" d="M8.31,59.31v0C9,60.94,10.07,62,11.29,62h3.09c1.1,0,2.1-.87,2.78-2.23l0,0Z"/>
      <path style="fill: #fff;" d="M70.94,54v.08c.14,2.55,1.34,4.54,2.82,4.54h2.38c1.56,0,2.84-2.24,2.84-5a6,6,0,0,0-1.7-4.6l-.14-.08c-1.24,0-2.69,0-3.47,0C72.13,49.05,71,54,71,54Z"/>
      <path style="fill: #fadc0f;" d="M53.54,50.92A8.07,8.07,0,0,0,53,53.24c.16-.45,1.47-4,3.75-3.86,2.45.12,2.67,3.63,2.67,4.63H71s1.09-5,2.64-5.05c.78,0,2.23,0,3.47,0l2.22,0V46.24H79l-30.35-.6-5.9-.11c-.06,3.2-.12,5.39-.12,5.39Z"/>
      <path style="fill: #fff;" d="M49.63,58.13v0c.57,1.82,1.65,3.06,2.9,3.06h2.75c1.82,0,3.29-2.61,3.29-5.82A10.32,10.32,0,0,0,58.49,54l.92,0c0-1-.22-4.51-2.67-4.63-2.28-.11-3.59,3.41-3.75,3.86a.1.1,0,0,1,0,0A32.19,32.19,0,0,0,52.85,58Z"/>
      <path style="fill: #fff;" d="M26.31,59.78l0,.12c.61,2.06,1.84,3.45,3.25,3.45h3.09c1.67,0,3.07-1.94,3.53-4.62h1.93S38,55,37.88,53a2.87,2.87,0,0,0-.05-.41.34.34,0,0,0,0-.1,3.57,3.57,0,0,0-3.21-2.87l-.32,0H33.5c-2.4,0-3.17,3.87-3.4,6.77A30,30,0,0,0,30,59.48Z"/>
    </g>
    <g>
      <path style="fill: none; stroke: #414042; stroke-linecap: round; stroke-linejoin: round;" d="M3.92,37.49S6,30.47,7,28.89c2.79-.1,12.55-.51,18.32-.43-.49,4.35-1.2,9.16-1.2,9.16Z"/>
      <path style="fill: none; stroke: #414042; stroke-linecap: round; stroke-linejoin: round;" d="M42.61,50.92s.76-22.19,0-28.38c0-.46.07-.86-.39-.9-7.62-.67-32.17-1.09-34.6,1-.17.14-.36.31-.54.49a9,9,0,0,0-2,3.31A80.4,80.4,0,0,0,1.5,39.29c0,3.86-.87,19.65-.87,19.65L23.41,60l6.6-.54s-.35-9.88,3.49-9.88h.86a3.55,3.55,0,0,1,3.45,2.81,5.41,5.41,0,0,1,.07.58l.26,5.75L52.84,58s-.24-5.07.7-7H42.61"/>
      <path style="fill: none; stroke: #414042; stroke-linecap: round; stroke-linejoin: round;" d="M1.06,50.63H3.41a6.07,6.07,0,0,1,.51,3h-3"/>
      <path style="fill: none; stroke: #414042; stroke-linecap: round; stroke-linejoin: round;" d="M18.07,54.26a10.93,10.93,0,0,1,1.25-2.72H23l-.33,3Z"/>
      <path style="fill: none; stroke: #414042; stroke-linecap: round; stroke-linejoin: round;" d="M28.38,28.83A70.94,70.94,0,0,0,27.14,38a78.33,78.33,0,0,0,7.89.36l.68-9Z"/>
      <path style="fill: none; stroke: #414042; stroke-linecap: round; stroke-linejoin: round;" d="M2.34,43.82v1.42a11.82,11.82,0,0,1,2.05,4c1.37,0,14.64.51,14.64.51s1-3.25,2.65-4.1V44.38Z"/>
      <path style="fill: none; stroke: #414042; stroke-linecap: round; stroke-linejoin: round;" d="M.79,55.93l22.06.89s5.61-.24,7.25-.47"/>
      <polyline style="fill: none; stroke: #414042; stroke-linecap: round; stroke-linejoin: round;" points="25.05 21.07 25.32 17.22 49.01 16.64 78.99 24.36 78.99 46.24 42.73 45.54"/>
      <line style="fill: none; stroke: #414042; stroke-linecap: round; stroke-linejoin: round;" x1="49.01" y1="16.64" x2="48.63" y2="45.65"/>
      <g>
        <path style="fill: none; stroke: #414042; stroke-linecap: round; stroke-linejoin: round;" d="M31.89,50.43a2.4,2.4,0,0,1,.79-.15c2,0,3.69,2.93,3.69,6.54s-1.65,6.54-3.69,6.54c-1.46,0-2.73-1.51-3.33-3.69"/>
        <path style="fill: none; stroke: #414042; stroke-linecap: round; stroke-linejoin: round;" d="M29.59,63.36c-1.41,0-2.64-1.4-3.26-3.45"/>
        <line style="fill: none; stroke: #414042; stroke-linecap: round; stroke-linejoin: round;" x1="29.59" y1="63.36" x2="32.68" y2="63.36"/>
      </g>
      <g>
        <path style="fill: none; stroke: #414042; stroke-linecap: round; stroke-linejoin: round;" d="M55.72,49.65c1.61.37,2.86,2.81,2.86,5.77,0,3.21-1.47,5.82-3.29,5.82-1.28,0-2.39-1.3-2.93-3.2"/>
        <path style="fill: none; stroke: #414042; stroke-linecap: round; stroke-linejoin: round;" d="M52.54,61.24c-1.25,0-2.34-1.24-2.89-3.06"/>
        <line style="fill: none; stroke: #414042; stroke-linecap: round; stroke-linejoin: round;" x1="52.54" y1="61.24" x2="55.29" y2="61.24"/>
      </g>
      <g>
        <path style="fill: none; stroke: #414042; stroke-linecap: round; stroke-linejoin: round;" d="M77.29,49a6,6,0,0,1,1.7,4.6c0,2.77-1.28,5-2.84,5s-2.84-2.25-2.84-5A6,6,0,0,1,75,49"/>
        <path style="fill: none; stroke: #414042; stroke-linecap: round; stroke-linejoin: round;" d="M73.77,58.64c-1.47,0-2.69-2-2.82-4.54"/>
        <line style="fill: none; stroke: #414042; stroke-linecap: round; stroke-linejoin: round;" x1="73.77" y1="58.64" x2="76.15" y2="58.64"/>
      </g>
      <g>
        <path style="fill: none; stroke: #414042; stroke-linecap: round; stroke-linejoin: round;" d="M17.16,59.76C16.48,61.12,15.49,62,14.38,62s-2.22-1-2.9-2.49"/>
        <path style="fill: none; stroke: #414042; stroke-linecap: round; stroke-linejoin: round;" d="M11.29,62c-1.22,0-2.3-1.05-3-2.66"/>
        <line style="fill: none; stroke: #414042; stroke-linecap: round; stroke-linejoin: round;" x1="11.29" y1="61.99" x2="14.38" y2="61.99"/>
      </g>
      <path style="fill: none; stroke: #414042; stroke-linecap: round; stroke-linejoin: round;" d="M53,53.27s1.32-4,3.76-3.89S59.41,53,59.41,54H71s1.09-5,2.64-5.05,5.69,0,5.69,0V46.24H79"/>
      <path style="fill: none; stroke: #414042; stroke-linecap: round; stroke-linejoin: round;" d="M39.64,30.17l-.75,17.58a.61.61,0,0,1-.94.53,7.38,7.38,0,0,0-4.51-.82"/>
    </g>
  </g>
</svg>
