<svg id="b2cc70c6-da49-4a2f-9077-50f368cc71c2" data-name="Layer 1" xmlns="http://www.w3.org/2000/svg" viewBox="0 0 80 80">
  <title>66</title>
  <g>
    <g>
      <path style="fill: #fadc0f;" d="M24,55.85c0,.64,0,1.26,0,1.86,0,2.36.07,4.44.15,6.27s.16,3.18.26,4.44h0c.05.67.11,1.28.17,1.83a6.6,6.6,0,0,0,.5,1.94h0a7,7,0,0,0,5.42,4.2c1.91.28,4.21.58,6.61.79,1.44.13,2.91.24,4.35.29.8,0,1.6,0,2.38,0A7.61,7.61,0,0,0,51.19,72h0c.07-.26.13-.52.18-.79.16-1,.32-2,.47-3.06.23-1.53.43-3,.61-4.56q.38-3,.63-5.94c.15-1.62.27-3.23.38-4.82.09-1.29.16-2.57.22-3.83.08-1.46.13-2.9.18-4.31,0-.14,0-.27,0-.41s0-.54,0-.81c0-1.12,0-2.21.07-3.29,0-1.39,0-2.74,0-4.06s0-2.69,0-4c0-1.45-.07-2.84-.11-4.16s-.11-2.56-.17-3.73c0-.9-.1-1.76-.15-2.57s-.09-1.38-.13-2a8,8,0,0,0-.17-1.11,7.59,7.59,0,0,0-7.41-5.94H34.16a44.29,44.29,0,0,0-5.47,7.84h0q-.95,1.71-1.86,3.6h0c-.59,1.24-1.17,2.53-1.74,3.88,0,.21,0,.43,0,.64q-.26,4-.44,7.53c-.07,1.4-.14,2.76-.2,4.07s-.11,2.8-.16,4.12c-.05,1.64-.09,3.2-.13,4.69,0,1.32,0,2.59-.06,3.8S24,54.87,24,55.85Z"/>
      <path style="fill: #fff;" d="M17.58,54.29A14.94,14.94,0,0,0,24,55.85c0-1,0-2,0-3.07s0-2.48.06-3.8c0-1.49.08-3,.13-4.69.05-1.32.1-2.7.16-4.12s.13-2.67.2-4.07q.18-3.57.44-7.53c0-.21,0-.43,0-.64A132.22,132.22,0,0,0,17.58,54.29Z"/>
      <path style="fill: #fff;" d="M34.16,12.61H45.78a7.59,7.59,0,0,1,7.41,5.94,8,8,0,0,1,.17,1.11c0,.63.09,1.3.13,2s.11,1.67.15,2.57c.06,1.17.12,2.42.17,3.73s.08,2.71.11,4.16c0,1.28,0,2.61,0,4s0,2.67,0,4.06c0,1.08,0,2.17-.07,3.29H54S65.79,21.61,55.46,9.71a11.24,11.24,0,0,0-9-4C42.46,6,38.65,8,35.11,11.6,34.79,11.92,34.47,12.26,34.16,12.61Z"/>
      <path style="fill: #fff;" d="M1.33,2.47v71L15.5,68.13q.86-7.27,2.08-13.84a132.22,132.22,0,0,1,7.49-26.36c.57-1.35,1.15-2.64,1.74-3.88h0q.91-1.89,1.86-3.6h0a44.29,44.29,0,0,1,5.47-7.84c.31-.35.63-.69,1-1C38.65,8,42.46,6,46.43,5.75a11.24,11.24,0,0,1,9,4C65.79,21.61,54,43.44,54,43.44h-.08c0,.27,0,.54,0,.81s0,.27,0,.41A14.6,14.6,0,0,0,59,41.24l15.42-16,.11-.12,4.13-4.5V2.47Z"/>
    </g>
    <g>
      <path style="fill: none; stroke: #414042; stroke-linecap: round; stroke-linejoin: round;" d="M34.07,12.61H45.78a7.6,7.6,0,0,1,7.58,7.05c.74,10.33,1.46,30.64-2,51.54a7.6,7.6,0,0,1-7.48,6.33A96.86,96.86,0,0,1,30.54,76.4a7,7,0,0,1-5.92-6.16c-.66-6.08-1.07-19.42.45-42.31"/>
      <path style="fill: none; stroke: #414042; stroke-linecap: round; stroke-linejoin: round;" d="M53.19,18.55A9.22,9.22,0,0,0,48.41,16"/>
      <path style="fill: none; stroke: #414042; stroke-linecap: round; stroke-linejoin: round;" d="M53.49,21.67a6.94,6.94,0,0,0-5.08-2.06"/>
      <path style="fill: none; stroke: #414042; stroke-linecap: round; stroke-linejoin: round;" d="M53.64,24.24a8.33,8.33,0,0,0-5.23-1.45"/>
      <path style="fill: none; stroke: #414042; stroke-linecap: round; stroke-linejoin: round;" d="M53.81,28s-1.33-1.72-5.4-1.44"/>
      <path style="fill: none; stroke: #414042; stroke-linecap: round; stroke-linejoin: round;" d="M53.92,32.13s-.28-1.26-5.51-1.12"/>
      <path style="fill: none; stroke: #414042; stroke-linecap: round; stroke-linejoin: round;" d="M54,36.1s-1.17-1.31-5.56-.75"/>
      <path style="fill: none; stroke: #414042; stroke-linecap: round; stroke-linejoin: round;" d="M54,40.17a16.36,16.36,0,0,0-5.56-.38"/>
      <path style="fill: none; stroke: #414042; stroke-linecap: round; stroke-linejoin: round;" d="M53.92,44.28a11.2,11.2,0,0,0-5.83.56"/>
      <path style="fill: none; stroke: #414042; stroke-linecap: round; stroke-linejoin: round;" d="M53.71,49a12.15,12.15,0,0,0-5.62,1"/>
      <path style="fill: none; stroke: #414042; stroke-linecap: round; stroke-linejoin: round;" d="M53.52,52.8s-3.94.89-5.71,1.49"/>
      <path style="fill: none; stroke: #414042; stroke-linecap: round; stroke-linejoin: round;" d="M53.08,57.63s-3.41,1.31-5.51,2"/>
      <path style="fill: none; stroke: #414042; stroke-linecap: round; stroke-linejoin: round;" d="M52.45,63.57a20.85,20.85,0,0,1-5.11,1.87"/>
      <path style="fill: none; stroke: #414042; stroke-linecap: round; stroke-linejoin: round;" d="M51.84,68.13a10.25,10.25,0,0,1-4.5,2.31"/>
      <path style="fill: none; stroke: #414042; stroke-linecap: round; stroke-linejoin: round;" d="M51.19,72a9,9,0,0,1-3.85,2.2"/>
      <path style="fill: none; stroke: #414042; stroke-linecap: round; stroke-linejoin: round;" d="M28.68,20.45a12.44,12.44,0,0,1,3.5-.86"/>
      <path style="fill: none; stroke: #414042; stroke-linecap: round; stroke-linejoin: round;" d="M26.82,24.05s1-.75,4.12-1.14"/>
      <path style="fill: none; stroke: #414042; stroke-linecap: round; stroke-linejoin: round;" d="M25,28.57s1.62-1.95,5.69-1.66"/>
      <path style="fill: none; stroke: #414042; stroke-linecap: round; stroke-linejoin: round;" d="M25,32.15s.28-1.26,5.51-1.12"/>
      <path style="fill: none; stroke: #414042; stroke-linecap: round; stroke-linejoin: round;" d="M24.59,36.1a14.09,14.09,0,0,1,5.19-.75"/>
      <path style="fill: none; stroke: #414042; stroke-linecap: round; stroke-linejoin: round;" d="M24.39,40.17a14,14,0,0,1,5.25-.38"/>
      <path style="fill: none; stroke: #414042; stroke-linecap: round; stroke-linejoin: round;" d="M24.23,44.3a10.49,10.49,0,0,1,5.55.61"/>
      <path style="fill: none; stroke: #414042; stroke-linecap: round; stroke-linejoin: round;" d="M24.18,49a11.88,11.88,0,0,1,5.49,1"/>
      <path style="fill: none; stroke: #414042; stroke-linecap: round; stroke-linejoin: round;" d="M24.09,52.79s3.85.87,5.62,1.48"/>
      <path style="fill: none; stroke: #414042; stroke-linecap: round; stroke-linejoin: round;" d="M24.09,57.73s3.09,1.21,5.2,1.87"/>
      <path style="fill: none; stroke: #414042; stroke-linecap: round; stroke-linejoin: round;" d="M24.19,64a19.81,19.81,0,0,0,4.59,1.43"/>
      <path style="fill: none; stroke: #414042; stroke-linecap: round; stroke-linejoin: round;" d="M24.38,68.37a10.57,10.57,0,0,0,4.4,2"/>
      <path style="fill: none; stroke: #414042; stroke-linecap: round; stroke-linejoin: round;" d="M25.12,72.19a8.59,8.59,0,0,0,3.66,2"/>
      <path style="fill: #fff; stroke: #414042; stroke-linecap: round; stroke-linejoin: round;" d="M42.5,77.42a513.33,513.33,0,0,0,2.35-64.71l-2-.06A516.62,516.62,0,0,1,40.5,77.38Z"/>
      <path style="fill: #fff; stroke: #414042; stroke-linecap: round; stroke-linejoin: round;" d="M36.16,77.1l2,.11c0-15.3,2.82-64,2.85-64.55l-2,0C39,13.19,36.16,61.74,36.16,77.1Z"/>
      <path style="fill: #fff; stroke: #414042; stroke-linecap: round; stroke-linejoin: round;" d="M31.9,76.57l2,.11C32.53,49.55,37,13.1,37.08,12.73l-2-.07C35.05,13,30.51,49.27,31.9,76.57Z"/>
      <path style="fill: none; stroke: #414042; stroke-linecap: round; stroke-linejoin: round;" d="M54,43.44S65.79,21.62,55.46,9.71a11.24,11.24,0,0,0-9-4C32.27,6.5,20,30.28,15.53,67.91l0,.22L1.33,73.47"/>
      <path style="fill: none; stroke: #414042; stroke-linecap: round; stroke-linejoin: round;" d="M78.36,11.11s-4,4.65-3.93,14.15h0L59,41.24s-2.59,2.69-5.16,3.43"/>
      <line style="fill: none; stroke: #414042; stroke-linecap: round; stroke-linejoin: round;" x1="75.2" y1="17.26" x2="62.03" y2="22.39"/>
      <line style="fill: none; stroke: #414042; stroke-linecap: round; stroke-linejoin: round;" x1="35.1" y1="11.6" x2="11.42" y2="11.6"/>
      <path style="fill: none; stroke: #414042; stroke-linecap: round; stroke-linejoin: round;" d="M24.05,55.85a14.93,14.93,0,0,1-6.47-1.56"/>
    </g>
  </g>
</svg>
