<svg id="bbb326b6-d619-4c5a-b312-b9ba318d9ea7" data-name="Layer 1" xmlns="http://www.w3.org/2000/svg" viewBox="0 0 80 80">
  <title>67</title>
  <g>
    <g>
      <g>
        <path style="fill: #fff;" d="M29.84,50.62A12.77,12.77,0,1,0,42.6,37.84,12.76,12.76,0,0,0,29.84,50.62Zm9.6,0A3.17,3.17,0,1,1,42.6,53.8,3.17,3.17,0,0,1,39.44,50.62Z"/>
        <path style="fill: #fff;" d="M29.84,50.62A12.77,12.77,0,1,0,42.6,37.84,12.76,12.76,0,0,0,29.84,50.62Zm9.6,0A3.17,3.17,0,1,1,42.6,53.8,3.17,3.17,0,0,1,39.44,50.62Z"/>
        <path style="fill: #fff;" d="M25.32,50.62A17.29,17.29,0,1,0,42.6,33.33,17.29,17.29,0,0,0,25.32,50.62Zm4.52,0A12.77,12.77,0,1,1,42.6,63.38,12.77,12.77,0,0,1,29.84,50.62Z"/>
        <path style="fill: #fff;" d="M29.84,50.62A12.77,12.77,0,1,0,42.6,37.84,12.76,12.76,0,0,0,29.84,50.62Zm9.6,0A3.17,3.17,0,1,1,42.6,53.8,3.17,3.17,0,0,1,39.44,50.62Z"/>
        <path style="fill: #fadc0f;" d="M15.79,50.62A26.82,26.82,0,1,0,42.6,23.8,26.82,26.82,0,0,0,15.79,50.62Zm9.53,0A17.29,17.29,0,1,1,42.6,67.91,17.29,17.29,0,0,1,25.32,50.62Z"/>
        <path style="fill: #fff;" d="M39.44,50.62a3.17,3.17,0,1,0,3.16-3.18A3.18,3.18,0,0,0,39.44,50.62Z"/>
      </g>
      <path style="fill: #fff;" d="M.81,2.57V55.38h9.68l0-.08A33.13,33.13,0,0,1,9.88,49a32.73,32.73,0,1,1,64.86,6.28l0,.06h4.46V2.57Z"/>
    </g>
    <g>
      <g>
        <g>
          <circle style="fill: none; stroke: #414042; stroke-linecap: round; stroke-linejoin: round;" cx="42.61" cy="50.62" r="3.18"/>
          <circle style="fill: none; stroke: #414042; stroke-linecap: round; stroke-linejoin: round;" cx="42.61" cy="50.62" r="12.77"/>
          <circle style="fill: none; stroke: #414042; stroke-linecap: round; stroke-linejoin: round;" cx="42.61" cy="50.62" r="17.29"/>
          <circle style="fill: none; stroke: #414042; stroke-linecap: round; stroke-linejoin: round;" cx="42.61" cy="50.62" r="26.82"/>
          <line style="fill: none; stroke: #414042; stroke-linecap: round; stroke-linejoin: round;" x1="42.61" y1="37.84" x2="42.61" y2="47.44"/>
          <line style="fill: none; stroke: #414042; stroke-linecap: round; stroke-linejoin: round;" x1="31.55" y1="44.23" x2="39.86" y2="49.03"/>
          <line style="fill: none; stroke: #414042; stroke-linecap: round; stroke-linejoin: round;" x1="31.55" y1="57" x2="39.86" y2="52.21"/>
          <line style="fill: none; stroke: #414042; stroke-linecap: round; stroke-linejoin: round;" x1="42.61" y1="63.39" x2="42.61" y2="53.79"/>
          <line style="fill: none; stroke: #414042; stroke-linecap: round; stroke-linejoin: round;" x1="53.67" y1="57" x2="45.36" y2="52.21"/>
          <line style="fill: none; stroke: #414042; stroke-linecap: round; stroke-linejoin: round;" x1="53.67" y1="44.23" x2="45.36" y2="49.03"/>
          <line style="fill: none; stroke: #414042; stroke-linecap: round; stroke-linejoin: round;" x1="42.61" y1="23.8" x2="42.61" y2="26.91"/>
          <line style="fill: none; stroke: #414042; stroke-linecap: round; stroke-linejoin: round;" x1="32.35" y1="25.84" x2="33.53" y2="28.71"/>
          <line style="fill: none; stroke: #414042; stroke-linecap: round; stroke-linejoin: round;" x1="23.65" y1="31.66" x2="25.84" y2="33.85"/>
          <line style="fill: none; stroke: #414042; stroke-linecap: round; stroke-linejoin: round;" x1="17.83" y1="40.36" x2="20.7" y2="41.54"/>
          <line style="fill: none; stroke: #414042; stroke-linecap: round; stroke-linejoin: round;" x1="15.79" y1="50.62" x2="18.9" y2="50.62"/>
          <line style="fill: none; stroke: #414042; stroke-linecap: round; stroke-linejoin: round;" x1="17.83" y1="60.88" x2="20.7" y2="59.69"/>
          <line style="fill: none; stroke: #414042; stroke-linecap: round; stroke-linejoin: round;" x1="23.65" y1="69.58" x2="25.84" y2="67.38"/>
          <line style="fill: none; stroke: #414042; stroke-linecap: round; stroke-linejoin: round;" x1="32.35" y1="75.39" x2="33.53" y2="72.52"/>
          <line style="fill: none; stroke: #414042; stroke-linecap: round; stroke-linejoin: round;" x1="42.61" y1="77.43" x2="42.61" y2="74.33"/>
          <line style="fill: none; stroke: #414042; stroke-linecap: round; stroke-linejoin: round;" x1="52.87" y1="75.39" x2="51.68" y2="72.52"/>
          <line style="fill: none; stroke: #414042; stroke-linecap: round; stroke-linejoin: round;" x1="61.57" y1="69.58" x2="59.37" y2="67.38"/>
          <line style="fill: none; stroke: #414042; stroke-linecap: round; stroke-linejoin: round;" x1="67.38" y1="60.88" x2="64.51" y2="59.69"/>
          <line style="fill: none; stroke: #414042; stroke-linecap: round; stroke-linejoin: round;" x1="69.42" y1="50.62" x2="66.32" y2="50.62"/>
          <line style="fill: none; stroke: #414042; stroke-linecap: round; stroke-linejoin: round;" x1="67.38" y1="40.36" x2="64.51" y2="41.54"/>
          <line style="fill: none; stroke: #414042; stroke-linecap: round; stroke-linejoin: round;" x1="61.57" y1="31.66" x2="59.37" y2="33.85"/>
          <line style="fill: none; stroke: #414042; stroke-linecap: round; stroke-linejoin: round;" x1="52.87" y1="25.84" x2="51.68" y2="28.71"/>
        </g>
        <path style="fill: none; stroke: #414042; stroke-linecap: round; stroke-linejoin: round;" d="M10.47,55.3A33.13,33.13,0,0,1,9.87,49a32.74,32.74,0,1,1,64.87,6.28"/>
        <line style="fill: none; stroke: #414042; stroke-linecap: round; stroke-linejoin: round;" x1="10.49" y1="55.38" x2="0.82" y2="55.38"/>
        <line style="fill: none; stroke: #414042; stroke-linecap: round; stroke-linejoin: round;" x1="74.72" y1="55.38" x2="79.19" y2="55.38"/>
        <path style="fill: none; stroke: #414042; stroke-linecap: round; stroke-linejoin: round;" d="M2.11,47s0-25.77,21.54-34.23V2.57"/>
      </g>
      <line style="fill: none; stroke: #414042; stroke-linecap: round; stroke-linejoin: round;" x1="57.59" y1="19.93" x2="78.29" y2="19.93"/>
    </g>
  </g>
</svg>
