<svg id="b0575dda-175a-4fde-b88a-77a748130aca" data-name="Layer 1" xmlns="http://www.w3.org/2000/svg" viewBox="0 0 80 80">
  <title>68</title>
  <g>
    <g>
      <path style="fill: #fff;" d="M78.61,25.37a3.51,3.51,0,0,0-.42,1.82c.14,3,.53,12.14.56,17.36a6.2,6.2,0,0,1-1.67,4.34A52.51,52.51,0,0,0,67.45,64a6.51,6.51,0,0,1-6,4H60a1.92,1.92,0,0,1-1.63-.91,119.78,119.78,0,0,1-7.08-14.88h0c-.79-1.92-1.48-3.64-2-4.91l.07-.06a12.4,12.4,0,1,0-7.53,0l.05,0c-.51,1.27-1.2,3-2,5h0c-2.06,5-4.87,11.34-7.09,14.88a1.91,1.91,0,0,1-1.63.91h-1.5a6.51,6.51,0,0,1-6-4A52.72,52.72,0,0,0,14,48.89a6.25,6.25,0,0,1-1.68-4.34c0-5.22.43-14.38.56-17.36a3.6,3.6,0,0,0-.41-1.82l-.37-.66a3.61,3.61,0,0,1-.37-1.09,3.23,3.23,0,0,1,0-1.16c0-.28.11-.58.19-.92h0a12.41,12.41,0,0,1,.59-1.92,6.08,6.08,0,0,1,3.81-3.57C22,14.2,35,12,45.73,12s23.31,2.2,29,4.05a6.1,6.1,0,0,1,3.82,3.57,14.9,14.9,0,0,1,.79,2.84A3.52,3.52,0,0,1,79,24.71Z"/>
      <path style="fill: #fff;" d="M57.92,35.43a12.41,12.41,0,0,1-8.6,11.81l-.07.06c-.23-.6-.42-1.1-.57-1.47a4.58,4.58,0,0,1-.3-1.64V35.71a2.84,2.84,0,0,0-5.68,0v8.48a4.58,4.58,0,0,1-.3,1.64c-.14.36-.34.85-.56,1.43l-.05,0A12.38,12.38,0,1,1,57.92,35.43Z"/>
      <path style="fill: #fff;" d="M51.24,52.21H39.84c.8-1.94,1.49-3.68,2-5,.22-.58.42-1.07.56-1.43a4.58,4.58,0,0,0,.3-1.64V35.71a2.84,2.84,0,0,1,5.68,0v8.48a4.58,4.58,0,0,0,.3,1.64c.15.37.34.87.57,1.47C49.76,48.57,50.45,50.29,51.24,52.21Z"/>
      <path style="fill: #fadc0f;" d="M11.73,23.62H5v1.7a2.2,2.2,0,0,1-4.39,0V19.85a2.19,2.19,0,0,1,2.19-2.2A2.2,2.2,0,0,1,5,19.85v1.69h6.92c-.08.34-.14.64-.19.92A3.23,3.23,0,0,0,11.73,23.62Z"/>
    </g>
    <g>
      <path style="fill: none; stroke: #414042; stroke-linecap: round; stroke-linejoin: round;" d="M45.54,32.87a2.84,2.84,0,0,0-2.84,2.84V44.2a4.57,4.57,0,0,1-.3,1.63c-1.26,3.25-6.19,15.71-9.65,21.26a2,2,0,0,1-1.64.91h-1.5a6.53,6.53,0,0,1-6-4C21.89,60,18.69,53.75,14,48.89a6.22,6.22,0,0,1-1.69-4.34c0-5.23.43-14.38.57-17.36a3.52,3.52,0,0,0-.43-1.82l-.36-.67a3.48,3.48,0,0,1-.38-2.24,15.54,15.54,0,0,1,.78-2.84,6.12,6.12,0,0,1,3.82-3.57C22,14.2,35,12,45.72,12s23.32,2.2,29,4.05a6.07,6.07,0,0,1,3.82,3.57,14.9,14.9,0,0,1,.79,2.84A3.48,3.48,0,0,1,79,24.7l-.37.67a3.51,3.51,0,0,0-.42,1.82c.14,3,.53,12.13.56,17.36a6.16,6.16,0,0,1-1.68,4.34C72.39,53.75,69.19,60,67.45,64a6.53,6.53,0,0,1-6,4H60a1.94,1.94,0,0,1-1.64-.91c-3.46-5.55-8.39-18-9.65-21.26a4.57,4.57,0,0,1-.3-1.63V35.71A2.84,2.84,0,0,0,45.54,32.87Z"/>
      <line style="fill: none; stroke: #414042; stroke-linecap: round; stroke-linejoin: round;" x1="51.25" y1="52.21" x2="39.83" y2="52.21"/>
      <path style="fill: none; stroke: #414042; stroke-linecap: round; stroke-linejoin: round;" d="M49.32,47.23a12.38,12.38,0,1,0-7.54,0"/>
      <path style="fill: none; stroke: #414042; stroke-linecap: round; stroke-linejoin: round;" d="M36.67,47.61c-9.52,3.09-19-1.15-19-1.15"/>
      <path style="fill: none; stroke: #414042; stroke-linecap: round; stroke-linejoin: round;" d="M54.12,47.61c9.52,3.09,19-1.15,19-1.15"/>
      <path style="fill: none; stroke: #414042; stroke-linecap: round; stroke-linejoin: round;" d="M17.92,20.5a94.37,94.37,0,0,1,55.24,0"/>
      <rect style="fill: none; stroke: #414042; stroke-linecap: round; stroke-linejoin: round;" x="0.59" y="17.65" width="4.4" height="9.86" rx="2.2" transform="translate(5.58 45.17) rotate(180)"/>
      <g>
        <line style="fill: none; stroke: #414042; stroke-linecap: round; stroke-linejoin: round;" x1="4.99" y1="21.55" x2="11.91" y2="21.55"/>
        <line style="fill: none; stroke: #414042; stroke-linecap: round; stroke-linejoin: round;" x1="4.99" y1="23.62" x2="11.72" y2="23.62"/>
      </g>
      <g>
        <line style="fill: none; stroke: #414042; stroke-linecap: round; stroke-linejoin: round;" x1="17.92" y1="31.24" x2="23.68" y2="31.24"/>
        <line style="fill: none; stroke: #414042; stroke-linecap: round; stroke-linejoin: round;" x1="17.92" y1="35.17" x2="23.68" y2="35.17"/>
      </g>
      <g>
        <line style="fill: none; stroke: #414042; stroke-linecap: round; stroke-linejoin: round;" x1="67.4" y1="31.24" x2="73.16" y2="31.24"/>
        <line style="fill: none; stroke: #414042; stroke-linecap: round; stroke-linejoin: round;" x1="67.4" y1="35.17" x2="73.16" y2="35.17"/>
      </g>
    </g>
  </g>
</svg>
