<svg id="a1f24928-8948-4548-bb48-ed1e560a41b5" data-name="Layer 1" xmlns="http://www.w3.org/2000/svg" viewBox="0 0 80 80">
  <title>69</title>
  <g>
    <g>
      <polygon style="fill: #fff;" points="75.44 29.88 75.44 49.62 42.65 49.62 42.65 46.49 40.35 45.12 41.48 41.05 35.76 43.97 37.33 46.07 37.33 49.62 4.56 49.62 4.56 29.88 41.81 29.88 49.03 36.12 47.31 39.76 53.59 34.83 48.72 29.88 75.44 29.88"/>
      <path style="fill: #fadc0f;" d="M44.1,62.48a4.11,4.11,0,1,1-8.22,0c0-2.27,2.88-6.69,4.11-8.58C41.22,55.84,44.1,60.21,44.1,62.48Z"/>
      <path style="fill: #fadc0f;" d="M64.72,74.78c0,2.5-11,4.51-24.48,4.51s-24.49-2-24.49-4.51,11-4.51,24.49-4.51S64.72,72.29,64.72,74.78Z"/>
      <path style="fill: #fadc0f;" d="M52,12.62c.26,2.48.14,4.61-3.33,6.07a7.42,7.42,0,0,1-4.47,6.87c.07-.22,1-2.85-1.33-3.88a3.72,3.72,0,0,0-1.8-.27,3.19,3.19,0,0,1-2.8-.95l-.09.07a6.62,6.62,0,0,1-3.71,1.1,6.22,6.22,0,0,1-6.43-6,5.77,5.77,0,0,1,1.58-4h0c-2.59-3.43-.14-8.1,3.42-8.08,2.65-4.77,9.88-3.06,10.71,1C49.94,2.4,53.59,8.72,52,12.62Z"/>
    </g>
    <g>
      <polygon style="fill: none; stroke: #414042; stroke-linecap: round; stroke-linejoin: round;" points="75.44 29.88 75.44 49.62 42.64 49.62 42.64 46.49 40.35 45.13 41.48 41.05 35.76 43.97 37.33 46.07 37.33 49.62 4.56 49.62 4.56 29.88 41.81 29.88 49.03 36.11 47.31 39.77 53.59 34.83 48.71 29.88 75.44 29.88"/>
      <path style="fill: none; stroke: #414042; stroke-linecap: round; stroke-linejoin: round;" d="M44.1,62.48a4.11,4.11,0,1,1-8.22,0c0-2.27,2.88-6.69,4.11-8.57C41.22,55.85,44.1,60.21,44.1,62.48Z"/>
      <ellipse style="fill: none; stroke: #414042; stroke-linecap: round; stroke-linejoin: round;" cx="40.24" cy="74.78" rx="24.48" ry="4.51"/>
      <path style="fill: none; stroke: #414042; stroke-linecap: round; stroke-linejoin: round;" d="M57.35,74.35c0,1.5-7.66,2.72-17.11,2.72"/>
      <g>
        <path style="fill: none; stroke: #414042; stroke-linecap: round; stroke-linejoin: round;" d="M38.23,20.53a6.68,6.68,0,0,1-3.72,1.11,6.24,6.24,0,0,1-6.43-6,5.9,5.9,0,0,1,2.51-4.77"/>
        <path style="fill: none; stroke: #414042; stroke-linecap: round; stroke-linejoin: round;" d="M37.52,18.85a3.11,3.11,0,0,0,3.59,2.56,3.69,3.69,0,0,1,1.8.27c2.44,1.07,1.32,3.89,1.32,3.89a7.43,7.43,0,0,0,4.48-6.89c3.46-1.45,3.59-3.58,3.32-6.06,1.56-3.91-2.08-10.22-8.24-8-.83-4.09-8.06-5.8-10.72-1-3.54,0-6,4.64-3.4,8.07"/>
      </g>
      <line style="fill: none; stroke: #414042; stroke-linecap: round; stroke-linejoin: round;" x1="47.39" y1="28.3" x2="47.68" y2="26.21"/>
      <line style="fill: none; stroke: #414042; stroke-linecap: round; stroke-linejoin: round;" x1="45.6" y1="30.26" x2="45.27" y2="28.59"/>
      <line style="fill: none; stroke: #414042; stroke-linecap: round; stroke-linejoin: round;" x1="42.94" y1="28.59" x2="41.71" y2="26.76"/>
    </g>
  </g>
</svg>
