<svg id="a3cbccdf-4018-4eb8-9d86-91f7697a4150" data-name="Layer 1" xmlns="http://www.w3.org/2000/svg" viewBox="0 0 80 80">
  <title>70</title>
  <g>
    <g>
      <path style="fill: #fff;" d="M75.65,60.63l.09-3.2L73.81,60.2c-34.05-15.34-71.2,0-71.2,0l-2-12.86,2-.55,1.18,3.1.43-2.32,1.65.91.82-2.75,2-.51,4-1,9.39-2.47s4.07-1.84,7.13-8.78c1.1,4.47-1.14,9.76-1.34,10.31L34,38.87l-1.75,3.78L30.4,46.58l5.52,2.48,6.75-.7,6.11-1.14-2.1-4.56h0l-1.45-3.14,6.16,4.42c-.12-.28-2.49-5.77-1.36-10.37,3,7,7.11,8.79,7.11,8.79l9.5,2.5,4,1.06L78.6,48l.83,14.59Z"/>
      <path style="fill: #fadc0f;" d="M48.78,47.22l-6.11,1.14-6.75.7L30.4,46.58l1.81-3.93h.07a86.3,86.3,0,0,1,14.39,0h0Z"/>
      <polygon style="fill: #fadc0f;" points="38.83 38.12 41.23 29.64 34.79 28.54 43.49 17.4 41.82 25.97 48.88 27.24 38.83 38.12"/>
    </g>
    <g>
      <path style="fill: none; stroke: #414042; stroke-linecap: round; stroke-linejoin: round;" d="M27.81,43.3l0,0c.19-.55,2.43-5.84,1.33-10.31-3.06,6.94-7.13,8.78-7.13,8.78l-15.36,4"/>
      <line style="fill: none; stroke: #414042; stroke-linecap: round; stroke-linejoin: round;" x1="2.62" y1="46.82" x2="0.58" y2="47.37"/>
      <path style="fill: none; stroke: #414042; stroke-linecap: round; stroke-linejoin: round;" d="M2.62,60.23s37.13-15.37,71.19,0l1.93-2.77-.08,3.2,3.77,2"/>
      <path style="fill: none; stroke: #414042; stroke-linecap: round; stroke-linejoin: round;" d="M78.6,48,57.12,42.35S53.06,40.54,50,33.58C48.85,38.29,51.39,44,51.39,44l-6.17-4.42,3.56,7.69-6.11,1.14-6.75.7L30.4,46.59,34,38.87l-6.11,4.39"/>
      <path style="fill: none; stroke: #414042; stroke-linecap: round; stroke-linejoin: round;" d="M32.28,42.66a85.17,85.17,0,0,1,14.39,0"/>
      <path style="fill: none; stroke: #414042; stroke-linecap: round; stroke-linejoin: round;" d="M12.67,44.19s-.77,5.54,2.14,8.61"/>
      <path style="fill: none; stroke: #414042; stroke-linecap: round; stroke-linejoin: round;" d="M8.65,45.25a8,8,0,0,0,.75,4.68"/>
      <path style="fill: none; stroke: #414042; stroke-linecap: round; stroke-linejoin: round;" d="M66.63,44.86s-.69,6.19-2,9.13"/>
      <path style="fill: none; stroke: #414042; stroke-linecap: round; stroke-linejoin: round;" d="M70.66,45.92a32,32,0,0,1-1.07,6.33"/>
      <polyline style="fill: none; stroke: #414042; stroke-linecap: round; stroke-linejoin: round;" points="2.62 46.82 3.79 49.92 4.22 47.61 5.87 48.51 6.69 45.77"/>
      <polygon style="fill: none; stroke: #414042; stroke-linecap: round; stroke-linejoin: round;" points="43.49 17.4 34.79 28.54 41.23 29.64 38.82 38.12 48.88 27.23 41.81 25.97 43.49 17.4"/>
    </g>
  </g>
</svg>
