<svg id="ec51871b-c7aa-480a-9b5b-48a0800395b0" data-name="Layer 1" xmlns="http://www.w3.org/2000/svg" viewBox="0 0 80 80">
  <title>72</title>
  <g>
    <g>
      <path style="fill: #fff;" d="M73.9,13.06V61.73L43.69,78.61H25.36L2.72,55.72l28-15.83.08,0s-1.62-26.37,4-35.38A56.85,56.85,0,0,1,45.42,1.39Z"/>
      <path style="fill: #fadc0f; stroke: #fadc0f; stroke-linejoin: round;" d="M57.15,53.64a.63.63,0,0,1-.21.37l0,0-2.15,1.81,0,0L54.6,56l-2.05,1.75,0,0-.16.12L50.3,59.64l0,0-.12.11L48,61.56l-.12.1-2,1.69-.06.07L43.91,66l0,.07,0,0-2.16,1.59-.11.08h0l-.12,0-3,1.37h0l-.24.1-3.41,1.35h0l-.27.1-2.4.87h-.05l-.17.07-2.65,1-.06,0-2.69,1-.06,0-2.68,1-.09,0-2.53.89h0l-.25.09-2.49.91h0l-.24.08-2.51.92-.05,0a.62.62,0,0,1-.5,0c-.36-.14-.87-.54-1.28-1.69a4.74,4.74,0,0,1-.12-3.45,4,4,0,0,0-.66-.29l1.36-.75.32-.19.16,0,.06,0,2.52-.91.12,0,2.5-.9h0l.06,0,.28-.11h0l2.49-.9.05,0,.15-.05,0,0,2.5-.9h0l.13,0,2.68-1a.48.48,0,0,1,.17-.05l2.62-.95.23,0,2.57-.5.2,0h0L37,63.8l1.57-.95.21-.12h0L40.3,60.4l.45-.67,0,0a.41.41,0,0,1,.1-.09l1.77-1.69.19-.17L45,55.9l.06,0L47.23,54h0l0,0,0,0,2.13-1.81.12-.1,0,0,2.13-1.81h0a1.51,1.51,0,0,1,.94-.4,4.64,4.64,0,0,1,.73,0,4.82,4.82,0,0,1,2.93,1.83A2.54,2.54,0,0,1,57.15,53.64Z"/>
    </g>
    <g>
      <path style="fill: none; stroke: #414042; stroke-linecap: round; stroke-linejoin: round;" d="M38.1,39.1a1.55,1.55,0,0,0-1.64.9,4.45,4.45,0,0,0,.44,4.07c.58,1.07,1.15,1.39,1.53,1.47a.66.66,0,0,0,.74-.4,2.56,2.56,0,0,0-.43-2.08,4.42,4.42,0,0,0-3.21-2.55,1.54,1.54,0,0,0-1.63.9,4.43,4.43,0,0,0,.43,4.08c.59,1.06,1.15,1.39,1.53,1.47a.66.66,0,0,0,.74-.41,2.59,2.59,0,0,0-.42-2.08A4.47,4.47,0,0,0,33,41.92a1.54,1.54,0,0,0-1.63.9,4.43,4.43,0,0,0,.43,4.08c.59,1.07,1.16,1.39,1.53,1.47A.65.65,0,0,0,34,48a2.51,2.51,0,0,0-.42-2.08,4.43,4.43,0,0,0-3.21-2.54,1.55,1.55,0,0,0-1.64.9,4.45,4.45,0,0,0,.44,4.07c.58,1.07,1.15,1.39,1.53,1.47a.66.66,0,0,0,.74-.4A2.56,2.56,0,0,0,31,47.3a4.42,4.42,0,0,0-3.21-2.55,1.54,1.54,0,0,0-1.63.9,4.43,4.43,0,0,0,.43,4.08c.59,1.06,1.15,1.39,1.53,1.47a.66.66,0,0,0,.74-.41,2.59,2.59,0,0,0-.42-2.08,4.47,4.47,0,0,0-3.17-2.54,1.59,1.59,0,0,0-1,.16h0a1.56,1.56,0,0,0-.68.73,4.41,4.41,0,0,0,.44,4.08c.58,1.07,1.15,1.39,1.53,1.47a.64.64,0,0,0,.73-.41,2.51,2.51,0,0,0-.42-2.08,4.43,4.43,0,0,0-3.21-2.54,1.56,1.56,0,0,0-1.64.9,4.45,4.45,0,0,0,.44,4.07c.59,1.07,1.15,1.39,1.53,1.47a.65.65,0,0,0,.74-.4,2.56,2.56,0,0,0-.43-2.08A4.42,4.42,0,0,0,20.13,49a1.54,1.54,0,0,0-1.63.9A4.41,4.41,0,0,0,18.93,54c.59,1.07,1.15,1.4,1.53,1.47a.63.63,0,0,0,.74-.4A2.51,2.51,0,0,0,20.78,53a4.45,4.45,0,0,0-3.21-2.55,1.55,1.55,0,0,0-1.64.9,4.41,4.41,0,0,0,.44,4.08c.58,1.07,1.15,1.39,1.53,1.47a.64.64,0,0,0,.73-.41,2.51,2.51,0,0,0-.42-2.08A4.43,4.43,0,0,0,15,51.82a1.56,1.56,0,0,0-1.64.9,4.45,4.45,0,0,0,.44,4.07c.59,1.07,1.15,1.39,1.53,1.47a.65.65,0,0,0,.74-.4,2.56,2.56,0,0,0-.43-2.08,4.43,4.43,0,0,0-3.16-2.54,1.43,1.43,0,0,0-.92.13h0a1.56,1.56,0,0,0-.67.72,4.47,4.47,0,0,0,.44,4.08c.59,1.06,1.15,1.39,1.53,1.47a.66.66,0,0,0,.74-.41,2.57,2.57,0,0,0-.43-2.08A4.45,4.45,0,0,0,10,54.59a1.54,1.54,0,0,0-1.63.91,4.41,4.41,0,0,0,.43,4.07C9.34,60.64,9.9,61,10.28,61a.64.64,0,0,0,.74-.41,2.51,2.51,0,0,0-.42-2.08A4.43,4.43,0,0,0,7.39,56a1.55,1.55,0,0,0-1.64.9A4.39,4.39,0,0,0,6.19,61c.58,1.07,1.15,1.39,1.53,1.47a.63.63,0,0,0,.73-.4A2.51,2.51,0,0,0,8,60a4.42,4.42,0,0,0-3.21-2.55,1.56,1.56,0,0,0-1.64.9,2.64,2.64,0,0,0-.13.37"/>
      <path style="fill: none; stroke: #414042; stroke-linecap: round; stroke-linejoin: round;" d="M46.22,44.51a1.54,1.54,0,0,0-1.63.9A4.43,4.43,0,0,0,45,49.49c.59,1.06,1.15,1.39,1.53,1.46a.64.64,0,0,0,.74-.4,2.51,2.51,0,0,0-.42-2.08,4.45,4.45,0,0,0-3.21-2.55,1.55,1.55,0,0,0-1.64.9,4.41,4.41,0,0,0,.44,4.08C43,52,43.61,52.29,44,52.37a.64.64,0,0,0,.73-.41,2.51,2.51,0,0,0-.42-2.08,4.43,4.43,0,0,0-3.21-2.54,1.56,1.56,0,0,0-1.64.9,4.45,4.45,0,0,0,.44,4.07c.59,1.07,1.15,1.39,1.53,1.47a.65.65,0,0,0,.74-.4,2.56,2.56,0,0,0-.43-2.08,4.42,4.42,0,0,0-3.21-2.55,1.54,1.54,0,0,0-1.63.9,4.43,4.43,0,0,0,.43,4.08c.59,1.06,1.15,1.39,1.53,1.46a.63.63,0,0,0,.74-.4,2.51,2.51,0,0,0-.42-2.08A4.45,4.45,0,0,0,36,50.16a1.55,1.55,0,0,0-1.64.9,4.41,4.41,0,0,0,.44,4.08c.58,1.07,1.15,1.39,1.53,1.47A.64.64,0,0,0,37,56.2a2.51,2.51,0,0,0-.42-2.08,4.45,4.45,0,0,0-3.17-2.54,1.6,1.6,0,0,0-1,.17h0a1.49,1.49,0,0,0-.68.74,4.41,4.41,0,0,0,.43,4.07c.59,1.07,1.15,1.39,1.53,1.47a.65.65,0,0,0,.74-.41A2.59,2.59,0,0,0,34,55.53,4.44,4.44,0,0,0,30.83,53a1.55,1.55,0,0,0-1.64.9A4.41,4.41,0,0,0,29.62,58c.59,1.07,1.16,1.39,1.54,1.47a.63.63,0,0,0,.73-.4A2.51,2.51,0,0,0,31.47,57a4.45,4.45,0,0,0-3.21-2.55,1.55,1.55,0,0,0-1.64.9,4.47,4.47,0,0,0,.44,4.08c.59,1.07,1.15,1.39,1.53,1.47a.66.66,0,0,0,.74-.41,2.57,2.57,0,0,0-.43-2.08,4.45,4.45,0,0,0-3.21-2.55,1.55,1.55,0,0,0-1.63.91,4.41,4.41,0,0,0,.43,4.07c.59,1.07,1.15,1.39,1.53,1.47a.65.65,0,0,0,.74-.41,2.55,2.55,0,0,0-.42-2.08,4.43,4.43,0,0,0-3.21-2.54,1.55,1.55,0,0,0-1.64.9,4.41,4.41,0,0,0,.43,4.07c.59,1.07,1.16,1.39,1.54,1.47a.63.63,0,0,0,.73-.4,2.51,2.51,0,0,0-.42-2.08,4.45,4.45,0,0,0-3.17-2.54,1.6,1.6,0,0,0-.92.13h0a1.56,1.56,0,0,0-.67.72,4.43,4.43,0,0,0,.43,4.08C20,64.64,20.6,65,21,65a.64.64,0,0,0,.74-.41,2.51,2.51,0,0,0-.42-2.08A4.43,4.43,0,0,0,18.08,60a1.55,1.55,0,0,0-1.64.9A4.45,4.45,0,0,0,16.88,65c.59,1.07,1.15,1.39,1.53,1.47a.65.65,0,0,0,.74-.4A2.56,2.56,0,0,0,18.72,64a4.42,4.42,0,0,0-3.21-2.55,1.54,1.54,0,0,0-1.63.9,4.43,4.43,0,0,0,.43,4.08c.59,1.06,1.15,1.39,1.53,1.47a.66.66,0,0,0,.74-.41,2.59,2.59,0,0,0-.42-2.08A4.46,4.46,0,0,0,13,62.83a1.55,1.55,0,0,0-1.64.9,4.43,4.43,0,0,0,.43,4.08c.59,1.07,1.16,1.39,1.53,1.47a.64.64,0,0,0,.74-.41,2.51,2.51,0,0,0-.42-2.08,4.43,4.43,0,0,0-3.21-2.54,1.55,1.55,0,0,0-1.64.9,3.18,3.18,0,0,0-.14.37"/>
      <path style="fill: none; stroke: #414042; stroke-linecap: round; stroke-linejoin: round;" d="M13,72.2a4.42,4.42,0,0,1,2.76,3,2.55,2.55,0,0,1,.09,2.12.65.65,0,0,1-.79.29c-.36-.14-.87-.55-1.29-1.69A4.47,4.47,0,0,1,14,71.82a1.55,1.55,0,0,1,1.77-.62,4.48,4.48,0,0,1,2.75,3,2.47,2.47,0,0,1,.09,2.12.64.64,0,0,1-.79.28c-.36-.13-.86-.54-1.28-1.69a4.44,4.44,0,0,1,.21-4.09,1.51,1.51,0,0,1,.79-.62h0a1.59,1.59,0,0,1,1,0,4.47,4.47,0,0,1,2.73,3,2.55,2.55,0,0,1,.09,2.12.65.65,0,0,1-.79.29c-.36-.14-.87-.54-1.28-1.69a4.46,4.46,0,0,1,.21-4.11,1.53,1.53,0,0,1,1.77-.61,4.44,4.44,0,0,1,2.75,3,2.47,2.47,0,0,1,.09,2.12.65.65,0,0,1-.79.29c-.36-.14-.86-.55-1.28-1.7a4.39,4.39,0,0,1,.22-4.1A1.52,1.52,0,0,1,24,68.22a4.45,4.45,0,0,1,2.76,3,2.57,2.57,0,0,1,.09,2.13.65.65,0,0,1-.79.28c-.36-.14-.87-.54-1.28-1.69a4.43,4.43,0,0,1,.21-4.1,1.54,1.54,0,0,1,1.77-.62,4.45,4.45,0,0,1,2.76,3,2.55,2.55,0,0,1,.09,2.12.65.65,0,0,1-.79.29c-.36-.14-.87-.55-1.29-1.7a4.42,4.42,0,0,1,.22-4.1,1.54,1.54,0,0,1,1.76-.62,4.45,4.45,0,0,1,2.76,3,2.51,2.51,0,0,1,.09,2.12.65.65,0,0,1-.79.28c-.36-.14-.87-.54-1.28-1.69a4.41,4.41,0,0,1,.21-4.09,1.53,1.53,0,0,1,.77-.61h0a1.64,1.64,0,0,1,.93,0,4.45,4.45,0,0,1,2.73,3,2.55,2.55,0,0,1,.1,2.13.66.66,0,0,1-.79.28c-.37-.14-.87-.54-1.29-1.69a5.31,5.31,0,0,1-.31-2.75,1.9,1.9,0,0,1,2-1.58A4.33,4.33,0,0,1,38,66.83C40.21,70,37,69.67,36.39,68.27c-.71-1.78-1.09-4,.61-4.47s6.91,4.35,3.78,4c-2.28-1.54-3.59-5.11-1.53-5.22s6.2,3.8,4.1,3.5-4.91-5.79-1.85-6.81c.85-.29,2.27.23,3.65,1.86a2.53,2.53,0,0,1,.83,2,.64.64,0,0,1-.64.54c-.39,0-1-.2-1.8-1.13a4.42,4.42,0,0,1-1.23-3.91,1.48,1.48,0,0,1,.52-.85h0a1.65,1.65,0,0,1,.94-.36,4.46,4.46,0,0,1,3.61,1.86,2.54,2.54,0,0,1,.83,2,.65.65,0,0,1-.64.54c-.39,0-1-.21-1.79-1.14a4.4,4.4,0,0,1-1.24-3.9A1.56,1.56,0,0,1,46,55.51a4.46,4.46,0,0,1,3.66,1.86c.79.93.89,1.57.82,2a.65.65,0,0,1-.64.55A2.59,2.59,0,0,1,48,58.73a4.47,4.47,0,0,1-1.24-3.91,1.57,1.57,0,0,1,1.43-1.21,4.44,4.44,0,0,1,3.65,1.86,2.54,2.54,0,0,1,.83,2A.65.65,0,0,1,52,58c-.39,0-1-.21-1.8-1.14A4.41,4.41,0,0,1,49,52.93a1.54,1.54,0,0,1,1.42-1.21,4.43,4.43,0,0,1,3.66,1.86,2.55,2.55,0,0,1,.82,2,.64.64,0,0,1-.64.54c-.39,0-1-.2-1.79-1.13A4.44,4.44,0,0,1,51.24,51a1.57,1.57,0,0,1,1.43-1.21,4.44,4.44,0,0,1,3.65,1.86,2.54,2.54,0,0,1,.83,2,.65.65,0,0,1-.64.54c-.39,0-1-.21-1.8-1.14a4.41,4.41,0,0,1-1.23-3.9,1.54,1.54,0,0,1,1.42-1.21"/>
      <path style="fill: none; stroke: #414042; stroke-linecap: round; stroke-linejoin: round;" d="M30.77,39.85s-1.62-26.37,4-35.38a56.86,56.86,0,0,1,10.6-3.08"/>
      <polyline style="fill: none; stroke: #414042; stroke-linecap: round; stroke-linejoin: round;" points="63.77 58.03 62.54 16.62 34.81 4.47"/>
      <path style="fill: none; stroke: #414042; stroke-linecap: round; stroke-linejoin: round;" d="M62.54,16.62A108,108,0,0,1,73.9,13.06"/>
      <line style="fill: none; stroke: #414042; stroke-linecap: round; stroke-linejoin: round;" x1="30.77" y1="39.85" x2="2.72" y2="55.72"/>
      <line style="fill: none; stroke: #414042; stroke-linecap: round; stroke-linejoin: round;" x1="73.9" y1="52.6" x2="25.36" y2="78.61"/>
      <line style="fill: none; stroke: #414042; stroke-linecap: round; stroke-linejoin: round;" x1="43.69" y1="78.61" x2="73.9" y2="61.73"/>
      <line style="fill: none; stroke: #414042; stroke-linecap: round; stroke-linejoin: round;" x1="30.59" y1="39.85" x2="63.65" y2="58.03"/>
    </g>
    <g>
      <path style="fill: #fadc0f;" d="M76,75.43H52.85a1.24,1.24,0,0,1-1.06-1.9L63.38,54.75a1.24,1.24,0,0,1,2.12,0L77.09,73.53A1.24,1.24,0,0,1,76,75.43Z"/>
      <path style="fill: none; stroke: #414042; stroke-linecap: round; stroke-linejoin: round;" d="M76,75.43H52.85a1.24,1.24,0,0,1-1.06-1.9L63.38,54.75a1.24,1.24,0,0,1,2.12,0L77.09,73.53A1.24,1.24,0,0,1,76,75.43Z"/>
      <path style="fill: #f0f0f0; stroke: #414042; stroke-linecap: round; stroke-linejoin: round;" d="M66.34,63a18.88,18.88,0,0,1-.88,4.55l-.36,1.39a.69.69,0,0,1-.66.52h0a.68.68,0,0,1-.66-.52l-.36-1.39A18.44,18.44,0,0,1,62.54,63a1.9,1.9,0,0,1,3.8,0Z"/>
      <circle style="fill: #f0f0f0; stroke: #414042; stroke-linecap: round; stroke-linejoin: round;" cx="64.44" cy="71.45" r="0.93"/>
    </g>
  </g>
</svg>
