<svg id="f55f323d-d12d-4d3c-951b-817bb5c14527" data-name="Layer 1" xmlns="http://www.w3.org/2000/svg" viewBox="0 0 80 80">
  <title>73</title>
  <g>
    <g>
      <g>
        <path style="fill: #fff;" d="M13.42,19.7H42.34A1.64,1.64,0,0,1,44,21.34V36.21a0,0,0,0,1,0,0H11.78a0,0,0,0,1,0,0V21.34a1.64,1.64,0,0,1,1.64-1.64Z" transform="translate(-11.6 27.9) rotate(-45)"/>
        <path style="fill: #fff;" d="M20.56,32.06H55a1.11,1.11,0,0,1,1.11,1.11V41a2.33,2.33,0,0,1-2.33,2.33h-32A2.33,2.33,0,0,1,19.45,41V33.18A1.11,1.11,0,0,1,20.56,32.06Z" transform="translate(-15.6 37.77) rotate(-45)"/>
        <path style="fill: #fff;" d="M15.86,12.39h4.32A11.39,11.39,0,0,1,31.57,23.79v0a0,0,0,0,1,0,0H4.46a0,0,0,0,1,0,0v0A11.39,11.39,0,0,1,15.86,12.39Z" transform="translate(-7.51 18.04) rotate(-45)"/>
        <path style="fill: #fff;" d="M62.62,37.47,37.54,62.55l-6.88-6.87a1.89,1.89,0,0,1,0-2.63L53.12,30.59a1.87,1.87,0,0,1,2.63,0Z"/>
        <path style="fill: #fff;" d="M65.05,55.64,60.37,60.3,55.71,65a5.55,5.55,0,0,1-7.87,0l-2.43-2.42a5.57,5.57,0,0,0-7.87,0L62.62,37.47a5.57,5.57,0,0,0,0,7.87l2.43,2.42A5.58,5.58,0,0,1,65.05,55.64Z"/>
        <polyline style="fill: #fff;" points="65.36 55.32 69.3 63.58 66.48 66.41 63.65 69.23 55.39 65.29"/>
      </g>
      <rect style="fill: #fff;" x="70.09" y="64.05" width="4.16" height="16.1" transform="translate(-29.84 72.15) rotate(-45)"/>
      <rect style="fill: #fff;" x="5.99" y="-0.24" width="4.16" height="16.75" transform="translate(-3.39 8.09) rotate(-45)"/>
      <polygon style="fill: #fadc0f;" points="78.53 5.58 65.54 18.57 62.19 21.91 58.75 18.47 53.11 12.83 56.46 9.49 62.1 15.13 75.09 2.14 78.53 5.58"/>
    </g>
    <g>
      <g>
        <path style="fill: none; stroke: #414042; stroke-linecap: round; stroke-linejoin: round;" d="M13.42,19.7H42.34A1.64,1.64,0,0,1,44,21.34V36.21a0,0,0,0,1,0,0H11.78a0,0,0,0,1,0,0V21.34a1.64,1.64,0,0,1,1.64-1.64Z" transform="translate(-11.6 27.9) rotate(-45)"/>
        <path style="fill: none; stroke: #414042; stroke-linecap: round; stroke-linejoin: round;" d="M20.56,32.06H55a1.11,1.11,0,0,1,1.11,1.11V41a2.33,2.33,0,0,1-2.33,2.33h-32A2.33,2.33,0,0,1,19.45,41V33.18A1.11,1.11,0,0,1,20.56,32.06Z" transform="translate(-15.6 37.77) rotate(-45)"/>
        <path style="fill: none; stroke: #414042; stroke-linecap: round; stroke-linejoin: round;" d="M15.86,12.39h4.32A11.39,11.39,0,0,1,31.57,23.79v0a0,0,0,0,1,0,0H4.46a0,0,0,0,1,0,0v0A11.39,11.39,0,0,1,15.86,12.39Z" transform="translate(-7.51 18.04) rotate(-45)"/>
        <path style="fill: none; stroke: #414042; stroke-linecap: round; stroke-linejoin: round;" d="M30.11,40.13H61.86A1.86,1.86,0,0,1,63.72,42V51.7a0,0,0,0,1,0,0H28.25a0,0,0,0,1,0,0V42a1.86,1.86,0,0,1,1.86-1.86Z" transform="translate(-19 45.97) rotate(-45)"/>
        <path style="fill: none; stroke: #414042; stroke-linecap: round; stroke-linejoin: round;" d="M37.54,62.55h0a5.57,5.57,0,0,1,7.87,0L47.84,65a5.57,5.57,0,0,0,7.87,0l4.67-4.67"/>
        <path style="fill: none; stroke: #414042; stroke-linecap: round; stroke-linejoin: round;" d="M62.62,37.47h0a5.57,5.57,0,0,0,0,7.87l2.43,2.43a5.56,5.56,0,0,1,0,7.86l-4.67,4.68"/>
        <polyline style="fill: none; stroke: #414042; stroke-linecap: round; stroke-linejoin: round;" points="65.36 55.32 69.3 63.58 66.48 66.41 63.65 69.23 55.39 65.29"/>
        <line style="fill: none; stroke: #414042; stroke-linecap: round; stroke-linejoin: round;" x1="52.15" y1="57.61" x2="57.54" y2="52.22"/>
        <line style="fill: none; stroke: #414042; stroke-linecap: round; stroke-linejoin: round;" x1="54.45" y1="59.77" x2="59.84" y2="54.38"/>
      </g>
      <rect style="fill: none; stroke: #414042; stroke-linecap: round; stroke-linejoin: round;" x="70.09" y="64.05" width="4.16" height="16.1" transform="translate(-29.84 72.15) rotate(-45)"/>
      <rect style="fill: none; stroke: #414042; stroke-linecap: round; stroke-linejoin: round;" x="5.99" y="-0.24" width="4.16" height="16.75" transform="translate(-3.39 8.09) rotate(-45)"/>
      <polygon style="fill: none; stroke: #414042; stroke-linecap: round; stroke-linejoin: round;" points="78.53 5.58 65.54 18.57 62.19 21.91 58.75 18.47 53.11 12.83 56.46 9.49 62.1 15.13 75.09 2.14 78.53 5.58"/>
      <g>
        <line style="fill: none; stroke: #414042; stroke-linecap: round; stroke-linejoin: round;" x1="19.36" y1="55.48" x2="22.77" y2="54.27"/>
        <line style="fill: none; stroke: #414042; stroke-linecap: round; stroke-linejoin: round;" x1="29.16" y1="65.28" x2="30.47" y2="61.97"/>
        <line style="fill: none; stroke: #414042; stroke-linecap: round; stroke-linejoin: round;" x1="24.18" y1="60.3" x2="26.49" y2="57.99"/>
      </g>
      <g>
        <line style="fill: none; stroke: #414042; stroke-linecap: round; stroke-linejoin: round;" x1="55.05" y1="18.51" x2="53.83" y2="21.92"/>
        <line style="fill: none; stroke: #414042; stroke-linecap: round; stroke-linejoin: round;" x1="64.84" y1="28.3" x2="61.53" y2="29.62"/>
        <line style="fill: none; stroke: #414042; stroke-linecap: round; stroke-linejoin: round;" x1="59.87" y1="23.33" x2="57.56" y2="25.64"/>
      </g>
    </g>
  </g>
</svg>
