<svg id="af4f6ccd-aa1c-4c06-898a-ed996c679052" data-name="Layer 1" xmlns="http://www.w3.org/2000/svg" viewBox="0 0 80 80">
  <title>74</title>
  <g>
    <g>
      <polygon style="fill: #fff;" points="43.07 15.82 39.61 42.26 39.61 70.3 11.89 70.3 11.89 42.26 8.43 15.82 43.07 15.82"/>
      <polygon style="fill: #fff;" points="43.07 15.82 8.43 15.82 11.62 9.84 39.88 9.84 43.07 15.82"/>
      <path style="fill: #fff;" d="M50.91,18.52V11.81A7.86,7.86,0,0,0,43.05,4H8.46A7.86,7.86,0,0,0,.59,11.81V68.19a7.86,7.86,0,0,0,7.87,7.86H43.05a7.86,7.86,0,0,0,7.86-7.86V27.65l-6.2-6.2,4.57-4.56ZM39.61,42.26v28H11.89v-28L8.43,15.82l3.19-6H39.88l3.19,6Z"/>
      <polygon style="fill: #fadc0f;" points="79.41 11.56 61.68 29.29 57.12 33.85 52.41 29.15 44.71 21.45 49.27 16.89 50.91 18.52 56.98 24.59 74.71 6.86 79.41 11.56"/>
    </g>
    <g>
      <g>
        <path style="fill: none; stroke: #414042; stroke-linecap: round; stroke-linejoin: round;" d="M50.91,27.71V68.19a7.86,7.86,0,0,1-7.86,7.86H8.45A7.86,7.86,0,0,1,.59,68.19V11.81A7.86,7.86,0,0,1,8.45,4h34.6a7.86,7.86,0,0,1,7.86,7.86v6.65"/>
        <g>
          <polyline style="fill: none; stroke: #414042; stroke-linecap: round; stroke-linejoin: round;" points="25.75 70.3 11.62 70.3 8.43 64.32 11.89 37.88 11.89 9.84 25.75 9.84"/>
          <line style="fill: none; stroke: #414042; stroke-linecap: round; stroke-linejoin: round;" x1="8.43" y1="64.32" x2="25.75" y2="64.32"/>
          <polyline style="fill: none; stroke: #414042; stroke-linecap: round; stroke-linejoin: round;" points="25.75 70.3 39.88 70.3 43.07 64.32 39.61 37.88 39.61 9.84 25.75 9.84"/>
          <line style="fill: none; stroke: #414042; stroke-linecap: round; stroke-linejoin: round;" x1="43.07" y1="64.32" x2="25.75" y2="64.32"/>
        </g>
        <line style="fill: none; stroke: #414042; stroke-linecap: round; stroke-linejoin: round;" x1="25.75" y1="15.75" x2="25.75" y2="31.11"/>
        <rect style="fill: none; stroke: #414042; stroke-linecap: round; stroke-linejoin: round;" x="18.22" y="41.93" width="15.06" height="17.54" rx="4.65"/>
      </g>
      <polygon style="fill: none; stroke: #414042; stroke-linecap: round; stroke-linejoin: round;" points="79.41 11.56 61.68 29.29 57.12 33.85 52.41 29.15 44.71 21.45 49.27 16.89 56.98 24.59 74.71 6.86 79.41 11.56"/>
    </g>
  </g>
</svg>
