<svg id="a3892208-f0c3-49d5-8f3e-8d0fa3b4c888" data-name="Layer 1" xmlns="http://www.w3.org/2000/svg" viewBox="0 0 80 80">
  <title>75</title>
  <g>
    <g>
      <path style="fill: #fff;" d="M78.65,25.36a3.43,3.43,0,0,0-.42,1.83c.13,3,.53,12.14.56,17.37a6.19,6.19,0,0,1-1.68,4.35,52.54,52.54,0,0,0-9.63,15.16,6.55,6.55,0,0,1-6,4H60a1.93,1.93,0,0,1-1.64-.92C56.1,63.5,53.22,57,51.14,51.93H40c-2.09,5-5,11.57-7.22,15.18a1.91,1.91,0,0,1-1.63.92H29.6a6.53,6.53,0,0,1-6-4c-1.74-4-4.95-10.3-9.63-15.16a6.19,6.19,0,0,1-1.68-4.35c0-5.23.42-14.39.56-17.37a3.44,3.44,0,0,0-.43-1.83l-.36-.66a3.46,3.46,0,0,1-.37-1.08,3.28,3.28,0,0,1,0-1.17c.05-.27.11-.58.19-.91a13.71,13.71,0,0,1,.59-1.93A6.09,6.09,0,0,1,16.31,16C22,14.18,35,12,45.73,12S69.06,14.18,74.79,16a6.1,6.1,0,0,1,3.82,3.57,14.77,14.77,0,0,1,.78,2.84A3.4,3.4,0,0,1,79,24.7Z"/>
      <circle style="fill: #fadc0f;" cx="45.55" cy="35.81" r="12.04"/>
      <path style="fill: #fff;" d="M11.71,23.62H5v1.69a2.2,2.2,0,1,1-4.4,0V19.84a2.22,2.22,0,0,1,2.2-2.2A2.2,2.2,0,0,1,5,19.84v1.7h6.93c-.08.33-.14.64-.19.91A3.28,3.28,0,0,0,11.71,23.62Z"/>
    </g>
    <g>
      <g>
        <circle style="fill: none; stroke: #414042; stroke-linecap: round; stroke-linejoin: round;" cx="45.55" cy="35.81" r="12.04"/>
        <line style="fill: none; stroke: #414042; stroke-linecap: round; stroke-linejoin: round;" x1="45.55" y1="18.42" x2="45.55" y2="28.87"/>
        <line style="fill: none; stroke: #414042; stroke-linecap: round; stroke-linejoin: round;" x1="28.15" y1="35.81" x2="38.6" y2="35.81"/>
        <line style="fill: none; stroke: #414042; stroke-linecap: round; stroke-linejoin: round;" x1="45.55" y1="53.2" x2="45.55" y2="42.75"/>
        <line style="fill: none; stroke: #414042; stroke-linecap: round; stroke-linejoin: round;" x1="62.94" y1="35.81" x2="52.49" y2="35.81"/>
      </g>
      <g>
        <path style="fill: none; stroke: #414042; stroke-linecap: round; stroke-linejoin: round;" d="M40,51.93c-2.08,5-5,11.57-7.21,15.18A1.92,1.92,0,0,1,31.1,68H29.6a6.51,6.51,0,0,1-6-4c-1.74-4-4.95-10.3-9.63-15.16a6.18,6.18,0,0,1-1.69-4.35c0-5.23.43-14.38.57-17.37a3.52,3.52,0,0,0-.43-1.82l-.36-.67a3.45,3.45,0,0,1-.38-2.25,15.54,15.54,0,0,1,.78-2.84A6.11,6.11,0,0,1,16.31,16C22,14.18,35,12,45.73,12S69.06,14.18,74.78,16a6.11,6.11,0,0,1,3.83,3.57,15.54,15.54,0,0,1,.78,2.84A3.45,3.45,0,0,1,79,24.69l-.36.67a3.42,3.42,0,0,0-.42,1.82c.13,3,.53,12.14.56,17.37A6.18,6.18,0,0,1,77.1,48.9c-4.68,4.86-7.89,11.15-9.63,15.16a6.51,6.51,0,0,1-6,4H60a1.92,1.92,0,0,1-1.64-.91C56.09,63.5,53.22,57,51.14,51.93"/>
        <path style="fill: none; stroke: #414042; stroke-linecap: round; stroke-linejoin: round;" d="M28.15,48.72a31.42,31.42,0,0,1-10.53-2.25"/>
        <path style="fill: none; stroke: #414042; stroke-linecap: round; stroke-linejoin: round;" d="M64.35,48.61a31.38,31.38,0,0,0,8.84-2.14"/>
        <path style="fill: none; stroke: #414042; stroke-linecap: round; stroke-linejoin: round;" d="M17.9,20.48a94.53,94.53,0,0,1,55.29,0"/>
        <rect style="fill: none; stroke: #414042; stroke-linecap: round; stroke-linejoin: round;" x="0.56" y="17.64" width="4.4" height="9.87" rx="2.2" transform="translate(5.52 45.15) rotate(180)"/>
        <g>
          <line style="fill: none; stroke: #414042; stroke-linecap: round; stroke-linejoin: round;" x1="4.96" y1="21.53" x2="11.89" y2="21.53"/>
          <line style="fill: none; stroke: #414042; stroke-linecap: round; stroke-linejoin: round;" x1="4.96" y1="23.61" x2="11.7" y2="23.61"/>
        </g>
      </g>
      <circle style="fill: #414042; stroke: #414042; stroke-linecap: round; stroke-linejoin: round;" cx="45.55" cy="35.81" r="1.06"/>
    </g>
  </g>
</svg>
