<svg id="b814bcb0-f775-4aa1-a525-77fa3b49c79b" data-name="Layer 1" xmlns="http://www.w3.org/2000/svg" viewBox="0 0 80 80">
  <title>76</title>
  <g>
    <g>
      <g>
        <path style="fill:#fff;" d="M66.26,43.33a2.75,2.75,0,0,0-.33,1.47c.11,2.4.42,9.75.45,14A5,5,0,0,1,65,62.24a42.88,42.88,0,0,0-7.73,12.18,5.23,5.23,0,0,1-4.81,3.18H51.27A1.54,1.54,0,0,1,50,76.87a99.81,99.81,0,0,1-5.7-12H35.09a98.29,98.29,0,0,1-5.7,12,1.57,1.57,0,0,1-1.32.73h-1.2a5.25,5.25,0,0,1-4.81-3.18,42.28,42.28,0,0,0-7.74-12.18A5,5,0,0,1,13,58.75c0-4.2.35-11.55.46-14a2.76,2.76,0,0,0-.35-1.47l-.28-.53a2.8,2.8,0,0,1-.31-.88,2.64,2.64,0,0,1,0-.93c0-.22.08-.46.15-.73a11.6,11.6,0,0,1,.48-1.55,4.86,4.86,0,0,1,3.07-2.87c4.59-1.49,15-3.26,23.64-3.26a90.06,90.06,0,0,1,23.34,3.26,4.89,4.89,0,0,1,3.06,2.87A10.51,10.51,0,0,1,66.86,41a2.79,2.79,0,0,1-.3,1.81Z"/>
        <rect style="fill:#fadc0f;" x="57.91" y="14.66" width="21.43" height="16.55"/>
        <circle style="fill:#fff;" cx="68.63" cy="21.66" r="2.17"/>
        <path style="fill:#fadc0f;" d="M12.45,41a3.28,3.28,0,0,0,0,1.21h-7v1.77a2.29,2.29,0,1,1-4.57,0V38.25a2.29,2.29,0,1,1,4.57,0V40h7.21C12.55,40.36,12.5,40.68,12.45,41Z"/>
      </g>
      <g>
        <g>
          <path style="fill:none;stroke:#414042;stroke-linecap:round;stroke-linejoin:round;" d="M39.68,49.36a2.3,2.3,0,0,0-2.29,2.29v6.82a3.66,3.66,0,0,1-.24,1.31c-1,2.61-5,12.63-7.76,17.09a1.53,1.53,0,0,1-1.31.73H26.87a5.25,5.25,0,0,1-4.81-3.18,42.66,42.66,0,0,0-7.73-12.18A5,5,0,0,1,13,58.75c0-4.2.35-11.56.45-14a2.68,2.68,0,0,0-.34-1.47l-.29-.53a2.79,2.79,0,0,1-.3-1.81,11.79,11.79,0,0,1,.63-2.28,4.86,4.86,0,0,1,3.07-2.87c4.6-1.49,15-3.26,23.63-3.26a89.86,89.86,0,0,1,23.34,3.26,4.9,4.9,0,0,1,3.08,2.87A11.67,11.67,0,0,1,66.86,41a2.79,2.79,0,0,1-.3,1.81l-.29.53a2.68,2.68,0,0,0-.34,1.47c.11,2.39.42,9.75.45,14A4.94,4.94,0,0,1,65,62.24a42.5,42.5,0,0,0-7.74,12.18,5.25,5.25,0,0,1-4.81,3.18h-1.2A1.53,1.53,0,0,1,50,76.87c-2.78-4.46-6.74-14.48-7.76-17.09A3.66,3.66,0,0,1,42,58.47V51.65A2.29,2.29,0,0,0,39.68,49.36Z"/>
          <line style="fill:none;stroke:#414042;stroke-linecap:round;stroke-linejoin:round;" x1="44.26" y1="64.91" x2="35.09" y2="64.91"/>
          <path style="fill:none;stroke:#414042;stroke-linecap:round;stroke-linejoin:round;" d="M42.71,60.91a10,10,0,1,0-6.05,0"/>
          <path style="fill:none;stroke:#414042;stroke-linecap:round;stroke-linejoin:round;" d="M32.55,61.21c-7.66,2.48-15.31-.92-15.31-.92"/>
          <path style="fill:none;stroke:#414042;stroke-linecap:round;stroke-linejoin:round;" d="M46.58,61.21c7.65,2.48,15.3-.92,15.3-.92"/>
          <path style="fill:none;stroke:#414042;stroke-linecap:round;stroke-linejoin:round;" d="M17.47,39.41a75.94,75.94,0,0,1,44.41,0"/>
        </g>
        <rect style="fill:none;stroke:#414042;stroke-linecap:round;stroke-linejoin:round;" x="57.91" y="14.66" width="21.43" height="16.55"/>
        <g>
          <rect style="fill:none;stroke:#414042;stroke-linecap:round;stroke-linejoin:round;" x="0.86" y="35.96" width="4.58" height="10.27" rx="2.29" transform="matrix(-1, 0, 0, -1, 6.3, 82.18)"/>
          <g>
            <line style="fill:none;stroke:#414042;stroke-linecap:round;stroke-linejoin:round;" x1="5.44" y1="40.01" x2="12.64" y2="40.01"/>
            <line style="fill:none;stroke:#414042;stroke-linecap:round;stroke-linejoin:round;" x1="5.44" y1="42.17" x2="12.45" y2="42.17"/>
          </g>
        </g>
        <circle style="fill:none;stroke:#414042;stroke-linecap:round;stroke-linejoin:round;" cx="68.63" cy="21.66" r="2.17"/>
        <line style="fill:none;stroke:#414042;stroke-linecap:round;stroke-linejoin:round;" x1="68.63" y1="23.83" x2="68.63" y2="26.9"/>
        <path style="fill:none;stroke:#414042;stroke-linecap:round;stroke-linejoin:round;" d="M60.94,14.66V10.12A7.72,7.72,0,0,1,68.66,2.4h0a7.73,7.73,0,0,1,7.73,7.72v4.54"/>
      </g>
    </g>
    <line style="fill:none;stroke:#414042;stroke-linecap:round;stroke-linejoin:round;" x1="19.43" y1="47.74" x2="24.23" y2="47.74"/>
    <line style="fill:none;stroke:#414042;stroke-linecap:round;stroke-linejoin:round;" x1="19.43" y1="51.52" x2="24.23" y2="51.52"/>
    <line style="fill:none;stroke:#414042;stroke-linecap:round;stroke-linejoin:round;" x1="54.23" y1="47.74" x2="59.03" y2="47.74"/>
    <line style="fill:none;stroke:#414042;stroke-linecap:round;stroke-linejoin:round;" x1="54.23" y1="51.52" x2="59.03" y2="51.52"/>
  </g>
</svg>
