<svg id="b57e1c35-383e-4ab3-87d5-abac145ad1be" data-name="Layer 1" xmlns="http://www.w3.org/2000/svg" viewBox="0 0 80 80">
  <title>78</title>
  <g>
    <circle style="fill:#fadc0f;" cx="72.19" cy="60.8" r="6.32"/>
    <circle style="fill:#fadc0f;" cx="7.67" cy="60.8" r="6.46"/>
    <g>
      <path style="fill:#fff;" d="M12.66,45.07v5.16s1.64,3,10.91,2.77c-.85-2.23-3.6-7.93-3.6-7.93Z"/>
      <polyline style="fill:#fff;" points="39.75 54.35 30.95 54.35 26.01 45.07 39.75 45.07"/>
      <path style="fill:#fff;" d="M70.61,64.17v5.32a1.82,1.82,0,0,1-1.83,1.83H63.17a1.82,1.82,0,0,1-1.83-1.83V64.17Z"/>
      <path style="fill:#fff;" d="M18.16,64.17v5.32a1.82,1.82,0,0,1-1.82,1.83H10.73A1.82,1.82,0,0,1,8.9,69.49V64.17Z"/>
      <rect style="fill:#fff;" x="8.9" y="57.44" width="61.71" height="6.73"/>
      <path style="fill:#fff;" d="M70.61,36.35V57.44H8.91V36.35c0-2,0-3.89.19-5.82.09-.94.16-1.87.26-2.8.13-1.5.28-3,.46-4.46q.77-6.81,1.94-13.38h5.33a3.39,3.39,0,0,0-.79,1.7l-2.79,18a2.28,2.28,0,0,0,2,2.64,243.61,243.61,0,0,0,48.45,0,2.31,2.31,0,0,0,2-2.64L63.43,13.13l0-.22,3-3,1.11-1.11,0,.13c.06.32.12.65.17,1q1.19,6.57,1.94,13.38c.18,1.48.34,3,.48,4.46.08.94.16,1.86.23,2.8Q70.62,33.42,70.61,36.35Z"/>
      <path style="fill:#fff;" d="M64,32.23a245.22,245.22,0,0,1-48.46,0,2.3,2.3,0,0,1-2-2.65l2.81-18a3.43,3.43,0,0,1,3.54-2.91q17.9.64,35.76.13h.16l7.67,4.33L66,29.58A2.31,2.31,0,0,1,64,32.23Z"/>
      <path style="fill:#fff;" d="M66.85,45.07v5.16s-1.65,3-10.92,2.77c.86-2.23,3.6-7.93,3.6-7.93Z"/>
      <polyline style="fill:#fff;" points="39.75 54.35 48.55 54.35 53.49 45.07 39.75 45.07"/>
      <path style="fill:#fff;" d="M76.47,18.52V29H73.82V26.2l-3.66,1.53c-.14-1.48-.3-3-.48-4.46h4.14V18.52Z"/>
      <circle style="fill:#fadc0f;stroke:#fadc0f;stroke-linecap:round;stroke-linejoin:round;" cx="13.1" cy="60.69" r="1.1"/>
      <circle style="fill:#fadc0f;stroke:#fadc0f;stroke-linecap:round;stroke-linejoin:round;" cx="17.63" cy="60.69" r="1.1"/>
      <circle style="fill:#fadc0f;stroke:#fadc0f;stroke-linecap:round;stroke-linejoin:round;" cx="61.76" cy="60.69" r="1.1"/>
      <circle style="fill:#fadc0f;stroke:#fadc0f;stroke-linecap:round;stroke-linejoin:round;" cx="66.29" cy="60.69" r="1.1"/>
      <path style="fill:#fff;" d="M9.82,23.27c-.18,1.48-.33,3-.46,4.46L5.68,26.2V29h-2V18.52h2v4.75Z"/>
    </g>
    <g>
      <g>
        <path style="fill:none;stroke:#414042;stroke-linecap:round;stroke-linejoin:round;" d="M63.68,13.13l2.57,16.46a2.29,2.29,0,0,1-2,2.63,242.11,242.11,0,0,1-48.45,0,2.3,2.3,0,0,1-2-2.63l2.81-18"/>
        <path style="fill:none;stroke:#414042;stroke-linecap:round;stroke-linejoin:round;" d="M12.9,45.07v5.16s1.65,3,10.92,2.77c-.86-2.23-3.6-7.93-3.6-7.93Z"/>
        <polyline style="fill:none;stroke:#414042;stroke-linecap:round;stroke-linejoin:round;" points="40 54.35 31.19 54.35 26.25 45.07 40 45.07"/>
        <polyline style="fill:none;stroke:#414042;stroke-linecap:round;stroke-linejoin:round;" points="3.79 18.52 5.93 18.52 5.93 29 3.68 29"/>
        <line style="fill:none;stroke:#414042;stroke-linecap:round;stroke-linejoin:round;" x1="5.93" y1="23.27" x2="10.06" y2="23.27"/>
        <line style="fill:none;stroke:#414042;stroke-linecap:round;stroke-linejoin:round;" x1="5.93" y1="26.2" x2="9.6" y2="27.73"/>
        <path style="fill:none;stroke:#414042;stroke-linecap:round;stroke-linejoin:round;" d="M11.79,11.07q-1.63,9.49-2.43,19.46c-.16,1.93-.22,3.88-.22,5.81V69.5A1.82,1.82,0,0,0,11,71.32h5.61a1.82,1.82,0,0,0,1.83-1.82V64.17H61.58V69.5a1.82,1.82,0,0,0,1.83,1.82H69a1.82,1.82,0,0,0,1.83-1.82V36.34c0-1.93-.06-3.88-.21-5.81q-.8-9.72-2.36-19"/>
        <path style="fill:none;stroke:#414042;stroke-linecap:round;stroke-linejoin:round;" d="M67.09,49.71v.52a3.79,3.79,0,0,1-1.54,1.24"/>
        <path style="fill:none;stroke:#414042;stroke-linecap:round;stroke-linejoin:round;" d="M59.63,45.37c.18-.37.14-.3.14-.3h1.42"/>
        <line style="fill:none;stroke:#414042;stroke-linecap:round;stroke-linejoin:round;" x1="48.6" y1="45.07" x2="40" y2="45.07"/>
        <polyline style="fill:none;stroke:#414042;stroke-linecap:round;stroke-linejoin:round;" points="40 54.35 48.8 54.35 50.33 51.47"/>
        <polyline style="fill:none;stroke:#414042;stroke-linecap:round;stroke-linejoin:round;" points="76.46 18.52 74.06 18.52 74.06 29 76.42 29"/>
        <line style="fill:none;stroke:#414042;stroke-linecap:round;stroke-linejoin:round;" x1="74.06" y1="23.27" x2="69.93" y2="23.27"/>
        <line style="fill:none;stroke:#414042;stroke-linecap:round;stroke-linejoin:round;" x1="74.06" y1="26.2" x2="70.39" y2="27.73"/>
        <line style="fill:none;stroke:#414042;stroke-linecap:round;stroke-linejoin:round;" x1="18.41" y1="64.17" x2="9.14" y2="64.17"/>
        <line style="fill:none;stroke:#414042;stroke-linecap:round;stroke-linejoin:round;" x1="61.58" y1="64.17" x2="70.85" y2="64.17"/>
      </g>
      <line style="fill:none;stroke:#414042;stroke-linecap:round;stroke-linejoin:round;" x1="9.14" y1="57.43" x2="70.85" y2="57.43"/>
      <polygon style="fill:#fadc0f;" points="77.17 38.13 60.45 54.84 56.27 50.66 51.15 45.54 54.58 42.12 60.35 47.9 73.64 34.6 77.17 38.13"/>
      <polygon style="fill:none;stroke:#414042;stroke-linecap:round;stroke-linejoin:round;" points="77.17 38.13 60.45 54.84 56.92 51.32 51.15 45.54 54.58 42.12 60.35 47.9 73.64 34.6 77.17 38.13"/>
      <line style="fill:none;stroke:#414042;stroke-linecap:round;stroke-linejoin:round;" x1="6.77" y1="60.69" x2="3.92" y2="60.69"/>
      <line style="fill:none;stroke:#414042;stroke-linecap:round;stroke-linejoin:round;" x1="6.88" y1="58.65" x2="4.65" y2="57.13"/>
      <line style="fill:none;stroke:#414042;stroke-linecap:round;stroke-linejoin:round;" x1="4.54" y1="64.24" x2="6.77" y2="62.72"/>
      <line style="fill:none;stroke:#414042;stroke-linecap:round;stroke-linejoin:round;" x1="72.83" y1="60.8" x2="75.69" y2="60.8"/>
      <line style="fill:none;stroke:#414042;stroke-linecap:round;stroke-linejoin:round;" x1="72.73" y1="58.77" x2="74.96" y2="57.25"/>
      <line style="fill:none;stroke:#414042;stroke-linecap:round;stroke-linejoin:round;" x1="75.06" y1="64.36" x2="72.83" y2="62.84"/>
    </g>
  </g>
  <path style="fill:none;stroke:#414042;stroke-linecap:round;stroke-linejoin:round;stroke-width:0.5px;" d="M72.19,54.48a6.32,6.32,0,1,1,0,12.64"/>
  <path style="fill:none;stroke:#414042;stroke-linecap:round;stroke-linejoin:round;stroke-width:0.5px;" d="M7.67,67.26a6.46,6.46,0,0,1,0-12.91"/>
</svg>
