<svg id="bdbd05a0-5500-4c57-80bd-08d6cf11039d" data-name="Layer 1" xmlns="http://www.w3.org/2000/svg" viewBox="0 0 80 80">
  <title>79</title>
  <g>
    <g>
      <circle style="fill: #fadc0f;" cx="72.92" cy="62.58" r="6.25"/>
      <line style="fill: none; stroke: #414042; stroke-linecap: round; stroke-linejoin: round;" x1="73.85" y1="62.58" x2="76.79" y2="62.58"/>
      <line style="fill: none; stroke: #414042; stroke-linecap: round; stroke-linejoin: round;" x1="73.74" y1="60.48" x2="76.04" y2="58.92"/>
      <line style="fill: none; stroke: #414042; stroke-linecap: round; stroke-linejoin: round;" x1="76.15" y1="66.25" x2="73.85" y2="64.68"/>
    </g>
    <g>
      <circle style="fill: #fadc0f;" cx="7.03" cy="62.58" r="6.3"/>
      <line style="fill: none; stroke: #414042; stroke-linecap: round; stroke-linejoin: round;" x1="6.15" y1="62.58" x2="3.2" y2="62.58"/>
      <line style="fill: none; stroke: #414042; stroke-linecap: round; stroke-linejoin: round;" x1="6.26" y1="60.48" x2="3.96" y2="58.92"/>
      <line style="fill: none; stroke: #414042; stroke-linecap: round; stroke-linejoin: round;" x1="3.85" y1="66.25" x2="6.15" y2="64.68"/>
    </g>
    <g>
      <path style="fill: #fff;" d="M67.92,12.3,67,22.91a2.35,2.35,0,0,1-.3,1.18,1.87,1.87,0,0,1-.43.58,2.44,2.44,0,0,1-1.75.73H15.84a2.48,2.48,0,0,1-2.18-1.31,2.72,2.72,0,0,1-.16-.38.23.23,0,0,1,0-.11,2.26,2.26,0,0,1-.1-.69V8.85H67.74Z"/>
      <path style="fill: #fff;" d="M69.14,46.64,68,11.51a.62.62,0,0,1,0-.15l-1,1h0V22.91a2.48,2.48,0,0,1-.29,1.18,2.24,2.24,0,0,1-.43.58,2.44,2.44,0,0,1-1.75.73H15.84a2.48,2.48,0,0,1-2.18-1.31,1.89,1.89,0,0,1-.16-.38.23.23,0,0,1,0-.11,2.26,2.26,0,0,1-.11-.69V7.79H12.13l0,1.06L10.85,46.64H9.56V66.57H25.8l2.33-6.16a2.3,2.3,0,0,1,.2-.42A3,3,0,0,1,30,58.61a3.09,3.09,0,0,1,.91-.14H49.54a3,3,0,0,1,2.08.83,3.09,3.09,0,0,1,.76,1.14l2.26,6.13H70.42V46.64ZM21.69,55.83a1,1,0,0,1-.15.24s0,0,0,0a.81.81,0,0,1-.57.24H12.48l-.14,0a.6.6,0,0,1-.26-.11.69.69,0,0,1-.31-.59V49.07a.85.85,0,0,1,.26-.6.78.78,0,0,1,.59-.24h5.46a1.58,1.58,0,0,1,.65.14,1.86,1.86,0,0,1,.19.11l.17.15a1.41,1.41,0,0,1,.37.55l.6,1.64,1.64,4.42a.8.8,0,0,1,0,.57ZM58.1,39.39l-2,12.77a1.62,1.62,0,0,1-.34.78,1.59,1.59,0,0,1-1.25.59H25.3a1.6,1.6,0,0,1-1.53-1.11,1.36,1.36,0,0,1-.06-.29L22,39.36a1.49,1.49,0,0,1,0-.21,1.62,1.62,0,0,1,1.61-1.62H56.51A1.6,1.6,0,0,1,58.1,39.39ZM68.39,55.61a.67.67,0,0,1-.06.28.83.83,0,0,1-.15.23.78.78,0,0,1-.36.19l-.14,0H59.21a.82.82,0,0,1-.68-.37.86.86,0,0,1-.09-.72l2.24-6.07a1.39,1.39,0,0,1,.38-.54l.17-.15.19-.11a1.63,1.63,0,0,1,.66-.14h5.44a.82.82,0,0,1,.61.24.85.85,0,0,1,.26.6Z"/>
      <path style="fill: #fadc0f;" d="M15.42,61.38H13V59.49a1,1,0,0,1,1-1,1,1,0,0,1,1,.83Z"/>
      <path style="fill: #fff;" d="M21,56.32H12.48a.71.71,0,0,1-.71-.71V49.07a.85.85,0,0,1,.85-.85h5.46a1.48,1.48,0,0,1,1.38,1l2.24,6.06A.8.8,0,0,1,21,56.32Z"/>
      <path style="fill: #fadc0f;" d="M14.75,64.3H14a1,1,0,0,1-1-1V61.38h2.43l.33,1.7A1,1,0,0,1,14.75,64.3Z"/>
      <path style="fill: #fff;" d="M68.39,49.07v6.54a.71.71,0,0,1-.71.71H59.21a.8.8,0,0,1-.76-1.08l2.24-6.06a1.47,1.47,0,0,1,1.39-1h5.45A.85.85,0,0,1,68.39,49.07Z"/>
      <path style="fill: #fadc0f;" d="M67.68,61.38v1.89a1,1,0,0,1-1,1h-.74a1,1,0,0,1-1-1.22l.33-1.7Z"/>
      <path style="fill: #fadc0f;" d="M67.68,59.49v1.89H65.25l.41-2.09a1,1,0,0,1,2,.2Z"/>
      <path style="fill: #fff;" d="M54.63,66.57H25.8l2.33-6.16A3,3,0,0,1,31,58.46H49.54a3,3,0,0,1,2.84,2Z"/>
      <path style="fill: #fff;" d="M23.29,66.57v3.59a2.06,2.06,0,0,1-2.06,2H12.8a2,2,0,0,1-2-2V66.57Z"/>
      <path style="fill: #fff;" d="M69.26,66.57v3.59a2.05,2.05,0,0,1-2.05,2H58.78a2.05,2.05,0,0,1-2.05-2V66.57Z"/>
      <path style="fill: #fff;" d="M10.19,13.33v10.2a1.57,1.57,0,0,1-1.83,1.56L4.8,24.47a1.58,1.58,0,0,1-1.31-1.55v-9A1.58,1.58,0,0,1,4.8,12.39l3.56-.6A1.55,1.55,0,0,1,10.19,13.33Z"/>
      <path style="fill: #fff;" d="M76.51,14.19v9a1.56,1.56,0,0,1-1.3,1.54l-3.57.62a1.57,1.57,0,0,1-1.83-1.55V13.59A1.56,1.56,0,0,1,71.64,12l3.57.61A1.57,1.57,0,0,1,76.51,14.19Z"/>
      <path style="fill: #fff;" d="M57.49,43.34,56.1,52.16a1.6,1.6,0,0,1-1.59,1.37"/>
      <path style="fill: #fff;" d="M54.51,53.53H25.3a1.62,1.62,0,0,1-1.6-1.4L22,39.36a1.62,1.62,0,0,1,1.6-1.83H56.51a1.61,1.61,0,0,1,1.59,1.86l-.61,4"/>
    </g>
    <g>
      <path style="fill: none; stroke: #414042; stroke-linecap: round; stroke-linejoin: round;" d="M66.42,10,67,22.92A2.48,2.48,0,0,1,64.5,25.4H15.84a2.48,2.48,0,0,1-2.48-2.48l0-12.94"/>
      <polyline style="fill: none; stroke: #414042; stroke-linecap: round; stroke-linejoin: round;" points="70.42 51.1 70.42 66.56 39.99 66.56 9.56 66.56 9.56 46.64 10.85 46.64 12.1 8.85"/>
      <line style="fill: none; stroke: #414042; stroke-linecap: round; stroke-linejoin: round;" x1="67.89" y1="9.14" x2="68.83" y2="37.53"/>
      <path style="fill: none; stroke: #414042; stroke-linecap: round; stroke-linejoin: round;" d="M11.77,49.08v6.53a.71.71,0,0,0,.71.72h8.46a.81.81,0,0,0,.76-1.09l-2.24-6.06a1.48,1.48,0,0,0-1.38-1H12.62A.85.85,0,0,0,11.77,49.08Z"/>
      <path style="fill: none; stroke: #414042; stroke-linecap: round; stroke-linejoin: round;" d="M68.39,51v4.65a.72.72,0,0,1-.72.72H63"/>
      <path style="fill: none; stroke: #414042; stroke-linecap: round; stroke-linejoin: round;" d="M25.8,66.56l2.33-6.14a3,3,0,0,1,2.83-2H49.55a3,3,0,0,1,2.83,2l2.25,6.11"/>
      <path style="fill: none; stroke: #414042; stroke-linecap: round; stroke-linejoin: round;" d="M10.75,66.56H23.28a0,0,0,0,1,0,0v3.6a2,2,0,0,1-2,2H12.8a2,2,0,0,1-2-2v-3.6A0,0,0,0,1,10.75,66.56Z"/>
      <path style="fill: none; stroke: #414042; stroke-linecap: round; stroke-linejoin: round;" d="M56.73,66.56H69.26a0,0,0,0,1,0,0v3.6a2,2,0,0,1-2,2H58.78a2,2,0,0,1-2-2v-3.6A0,0,0,0,1,56.73,66.56Z"/>
      <path style="fill: none; stroke: #414042; stroke-linecap: round; stroke-linejoin: round;" d="M8.36,25.08l-3.57-.61a1.58,1.58,0,0,1-1.3-1.55v-9a1.57,1.57,0,0,1,1.3-1.54l3.57-.62a1.57,1.57,0,0,1,1.83,1.55v10.2A1.56,1.56,0,0,1,8.36,25.08Z"/>
      <polyline style="fill: none; stroke: #414042; stroke-linecap: round; stroke-linejoin: round;" points="12.07 9.72 6.84 9.72 6.84 12.04"/>
      <polyline style="fill: none; stroke: #414042; stroke-linecap: round; stroke-linejoin: round;" points="6.84 24.82 6.84 26.63 11.51 26.63"/>
      <path style="fill: none; stroke: #414042; stroke-linecap: round; stroke-linejoin: round;" d="M71.64,25.34l3.57-.62a1.57,1.57,0,0,0,1.3-1.54v-9a1.57,1.57,0,0,0-1.3-1.55L71.64,12a1.57,1.57,0,0,0-1.84,1.54V23.79A1.58,1.58,0,0,0,71.64,25.34Z"/>
      <polyline style="fill: none; stroke: #414042; stroke-linecap: round; stroke-linejoin: round;" points="67.92 9.98 73.16 9.98 73.16 12.3"/>
      <polyline style="fill: none; stroke: #414042; stroke-linecap: round; stroke-linejoin: round;" points="73.16 25.07 73.16 26.89 68.49 26.89"/>
      <path style="fill: none; stroke: #414042; stroke-linecap: round; stroke-linejoin: round;" d="M57.67,42.18l.44-2.78a1.62,1.62,0,0,0-1.6-1.87H23.6A1.61,1.61,0,0,0,22,39.36l1.7,12.77a1.62,1.62,0,0,0,1.6,1.4H54.51"/>
    </g>
    <polygon style="fill: #fadc0f;" points="76.15 40.42 64.72 51.85 64.04 52.53 60.77 55.8 52.22 47.24 55.36 44.09 60.68 49.41 72.91 37.18 76.15 40.42"/>
    <polygon style="fill: none; stroke: #414042; stroke-linecap: round; stroke-linejoin: round;" points="76.15 40.42 60.77 55.8 52.22 47.24 55.36 44.09 60.68 49.41 72.91 37.18 76.15 40.42"/>
  </g>
  <path style="fill: none; stroke: #414042; stroke-linecap: round; stroke-linejoin: round; stroke-width: 0.5px;" d="M71.64,56.46a6.69,6.69,0,0,1,1.28-.13,6.26,6.26,0,1,1-2.17,12.12"/>
  <path style="fill: none; stroke: #414042; stroke-linecap: round; stroke-linejoin: round; stroke-width: 0.5px;" d="M7.77,56.33a6,6,0,0,0-.74,0A6.3,6.3,0,0,0,7,68.88a6.37,6.37,0,0,0,2-.33"/>
</svg>
