<svg id="b651a52e-b34b-411a-b82c-60124007d7e7" data-name="Layer 1" xmlns="http://www.w3.org/2000/svg" viewBox="0 0 80 80">
  <title>80</title>
  <g>
    <g>
      <path style="fill: #fff;" d="M4.88,4V79.37H41.06V54.32c-2.19-.43-3.29-2-3.29-4.85v-7.4h2.8v6.65a4.39,4.39,0,0,0,.49,2.37V4Zm21.9,48.85a6.22,6.22,0,0,1-4.33,1.34h-7V36.54h6.16a7.28,7.28,0,0,1,4.26,1.08,3.74,3.74,0,0,1,1.49,3.23,4.49,4.49,0,0,1-.66,2.4,3.86,3.86,0,0,1-1.95,1.61v0a4.66,4.66,0,0,1,2.55,1.55,4.45,4.45,0,0,1,1,2.93A4.52,4.52,0,0,1,26.78,52.89Zm7.43,1.34H31.42V35.9h2.79Zm3-19.61L35.82,30.8H28.57l-1.32,3.82H24.11l6.61-17.73h3l6.64,17.73Z"/>
      <rect style="fill: #0295ff;" x="31.42" y="35.9" width="2.8" height="18.33"/>
      <path style="fill: #0295ff;" d="M33.67,16.89h-3L24.11,34.62h3.14l1.32-3.82h7.25l1.35,3.82h3.14ZM29.5,28.2l2.67-7.69h0l2.7,7.69Z"/>
      <path style="fill: #0295ff;" d="M51.77,16.24v7.69h0a4.79,4.79,0,0,0-3.87-1.67h0a5.5,5.5,0,0,0-4.21,1.79A6.28,6.28,0,0,0,42,28.58a6.26,6.26,0,0,0,1.67,4.52,5.67,5.67,0,0,0,4.25,1.72,5.36,5.36,0,0,0,2.22-.44A4.66,4.66,0,0,0,51.85,33h0v1.65h2.67V16.24Zm-.92,15a3.38,3.38,0,0,1-.75.57,3.58,3.58,0,0,1-1.79.45,3.32,3.32,0,0,1-2.51-1,3.64,3.64,0,0,1-1-2.65,3.79,3.79,0,0,1,1-2.77,3.34,3.34,0,0,1,2.51-1,3.49,3.49,0,0,1,2.55,1.09,3.89,3.89,0,0,1,1,2.73A3.59,3.59,0,0,1,50.85,31.25Z"/>
      <path style="fill: #fadc0f;" d="M75.12,24a35,35,0,0,1-4.85,2.57c-1,.44-2.11.89-3.35,1.33-.31.12-.63.23-1,.34C64.61,14.75,49.52,6.79,49.52,6.79V.63C71.6,8.39,75.12,24,75.12,24Z"/>
      <path style="fill: #0295ff;" d="M63.53,48a6.22,6.22,0,0,0-1.59-4.39A5.41,5.41,0,0,0,57.8,41.9a5.94,5.94,0,0,0-4.24,1.58l-.15.14a6.19,6.19,0,0,0-1.71,4.53,6.11,6.11,0,0,0,1.76,4.56l.1.1A6.29,6.29,0,0,0,58,54.43a6.12,6.12,0,0,0,5.16-2.29l-1.94-1.67a3.76,3.76,0,0,1-3.06,1.41,3.62,3.62,0,0,1-2.36-.74,3.41,3.41,0,0,1-1.21-2.07h8.87A8.56,8.56,0,0,0,63.53,48Zm-8.89-1.12a3.12,3.12,0,0,1,3.14-2.47,2.78,2.78,0,0,1,1.92.67,3.35,3.35,0,0,1,1,1.8Z"/>
      <path style="fill: #fff;" d="M51.88,28.6a3.59,3.59,0,0,1-1,2.65,3.38,3.38,0,0,1-.75.57V28.16A8.77,8.77,0,0,0,49.53,25l0,0a3.22,3.22,0,0,1,1.37.89A3.89,3.89,0,0,1,51.88,28.6Z"/>
      <polygon style="fill: #fff;" points="34.92 28.2 29.5 28.2 32.17 20.51 32.22 20.51 34.92 28.2"/>
      <path style="fill: #0295ff;" d="M27.3,46.44a4.66,4.66,0,0,0-2.55-1.55v0a3.86,3.86,0,0,0,1.95-1.61,4.49,4.49,0,0,0,.66-2.4,3.74,3.74,0,0,0-1.49-3.23,7.28,7.28,0,0,0-4.26-1.08H15.45V54.23h7a6.22,6.22,0,0,0,4.33-1.34,4.52,4.52,0,0,0,1.48-3.52A4.45,4.45,0,0,0,27.3,46.44Zm-8.83-7.21,2.82,0a3.53,3.53,0,0,1,2.25.62,2.1,2.1,0,0,1,.76,1.7c0,1.56-1,2.34-2.92,2.34H18.47ZM24.33,50.9a3.58,3.58,0,0,1-2.25.64H18.47V46.46h3.14a4.08,4.08,0,0,1,2.61.7,2.25,2.25,0,0,1,.9,1.89A2.22,2.22,0,0,1,24.33,50.9Z"/>
      <path style="fill: #fff;" d="M24.3,41.53c0,1.56-1,2.34-2.92,2.34H18.47V39.23l2.82,0a3.53,3.53,0,0,1,2.25.62A2.1,2.1,0,0,1,24.3,41.53Z"/>
      <path style="fill: #fff;" d="M25.12,49.05a2.22,2.22,0,0,1-.79,1.85,3.58,3.58,0,0,1-2.25.64H18.47V46.46h3.14a4.08,4.08,0,0,1,2.61.7A2.25,2.25,0,0,1,25.12,49.05Z"/>
      <path style="fill: #0295ff;" d="M48.89,42.07V54.23h-2.8V52.71l-.05,0a4.6,4.6,0,0,1-3.71,1.74,7.07,7.07,0,0,1-1.27-.11c-2.19-.43-3.29-2-3.29-4.85v-7.4h2.8v6.65a4.39,4.39,0,0,0,.49,2.37.36.36,0,0,0,.07.1,2.22,2.22,0,0,0,1.85.69,2.84,2.84,0,0,0,2.21-1.05,4.32,4.32,0,0,0,.9-2.93V42.07Z"/>
      <path style="fill: #fff;" d="M51.77,21.68v2.25h0a4.79,4.79,0,0,0-3.87-1.67l-.06-.11a9,9,0,0,0-6.73-3h0V15.65h0a12.51,12.51,0,0,1,10.67,6Z"/>
      <path style="fill: #fff;" d="M71,68.11a12,12,0,0,1-20.88-8V34.38A4.66,4.66,0,0,0,51.85,33h0v1.65h1.7l0,.12v8.74l-.15.14a6.19,6.19,0,0,0-1.71,4.53,6.11,6.11,0,0,0,1.76,4.56l.1.1v7.34a8.5,8.5,0,1,0,16.94-1L66.92,27.91v0c1.24-.44,2.36-.89,3.35-1.33v.09L74,58.79A12,12,0,0,1,71,68.11Z"/>
    </g>
    <g>
      <polyline style="fill: none; stroke: #414042;" points="41.06 54.37 41.06 79.37 4.87 79.37 4.87 4.03 41.06 4.03 41.06 51.04"/>
      <g>
        <path style="fill: none; stroke: #414042;" d="M47.82,22.15a9,9,0,0,0-6.73-3"/>
        <path style="fill: none; stroke: #414042;" d="M50.1,31.78V28.16A9.17,9.17,0,0,0,49.54,25"/>
        <path style="fill: none; stroke: #414042;" d="M70.27,26.65l3.67,32.14A12,12,0,1,1,50.1,60.15V34.42"/>
        <path style="fill: none; stroke: #414042;" d="M53.57,52.92v7.23a8.49,8.49,0,1,0,16.93-1L66.92,27.91"/>
        <line style="fill: none; stroke: #414042;" x1="53.57" y1="34.74" x2="53.57" y2="43.43"/>
        <path style="fill: none; stroke: #414042;" d="M41.07,15.65a12.5,12.5,0,0,1,10.67,6"/>
      </g>
      <path style="fill: none; stroke: #414042;" d="M49.53.63V6.79s15.08,8,16.42,21.43A40.92,40.92,0,0,0,75.13,24S71.6,8.4,49.53.63Z"/>
      <g>
        <path style="fill: #0295ff; stroke: #0295ff; stroke-linecap: round; stroke-linejoin: round; stroke-width: 0.5px;" d="M24.11,34.62l6.61-17.73h3l6.64,17.73H37.17L35.82,30.8H28.58l-1.33,3.82ZM29.5,28.2h5.42l-2.7-7.69h0Z"/>
        <path style="fill: #0295ff; stroke: #0295ff; stroke-linecap: round; stroke-linejoin: round; stroke-width: 0.5px;" d="M47.88,34.82a5.7,5.7,0,0,1-4.25-1.72A6.24,6.24,0,0,1,42,28.58,6.32,6.32,0,0,1,43.65,24a5.52,5.52,0,0,1,4.2-1.78,4.81,4.81,0,0,1,3.9,1.67h0V16.24h2.78V34.62H51.87V33h0A4.73,4.73,0,0,1,47.88,34.82Zm-2.09-3.57a3.35,3.35,0,0,0,2.51,1,3.46,3.46,0,0,0,2.55-1,3.6,3.6,0,0,0,1-2.65,3.85,3.85,0,0,0-1-2.73,3.27,3.27,0,0,0-2.54-1.09,3.34,3.34,0,0,0-2.51,1,3.79,3.79,0,0,0-1,2.77A3.69,3.69,0,0,0,45.79,31.25Z"/>
      </g>
      <g>
        <path style="fill: #0295ff; stroke: #0295ff; stroke-linecap: round; stroke-linejoin: round; stroke-width: 0.5px;" d="M15.45,54.23V36.54h6.16a7.13,7.13,0,0,1,4.26,1.09,3.72,3.72,0,0,1,1.49,3.22,4.57,4.57,0,0,1-.66,2.41,3.94,3.94,0,0,1-1.95,1.6v0a4.66,4.66,0,0,1,2.55,1.55,4.45,4.45,0,0,1,1,2.93,4.55,4.55,0,0,1-1.48,3.53,6.32,6.32,0,0,1-4.33,1.33Zm3-10.36h2.91c1.94,0,2.92-.78,2.92-2.35a2.1,2.1,0,0,0-.76-1.69,3.54,3.54,0,0,0-2.26-.62l-2.81,0Zm0,7.67h3.61a3.47,3.47,0,0,0,2.24-.64,2.23,2.23,0,0,0,.8-1.85,2.28,2.28,0,0,0-.9-1.9,4.23,4.23,0,0,0-2.61-.69H18.47Z"/>
        <path style="fill: #0295ff; stroke: #0295ff; stroke-linecap: round; stroke-linejoin: round; stroke-width: 0.5px;" d="M31.42,54.23V35.89h2.79V54.23Z"/>
        <path style="fill: #0295ff; stroke: #0295ff; stroke-linecap: round; stroke-linejoin: round; stroke-width: 0.5px;" d="M42.33,54.43q-4.56,0-4.56-5v-7.4h2.79v6.65a4,4,0,0,0,.57,2.47,2.25,2.25,0,0,0,1.85.7,2.85,2.85,0,0,0,2.21-1.06,4.39,4.39,0,0,0,.91-2.93V42.07h2.79V54.23H46.1V52.71l-.05,0A4.61,4.61,0,0,1,42.33,54.43Z"/>
        <path style="fill: #0295ff; stroke: #0295ff; stroke-linecap: round; stroke-linejoin: round; stroke-width: 0.5px;" d="M63.53,48a8.56,8.56,0,0,1-.07,1.07H54.59a3.46,3.46,0,0,0,1.21,2.07,3.64,3.64,0,0,0,2.35.75,3.77,3.77,0,0,0,3.07-1.42l1.94,1.67A6.14,6.14,0,0,1,58,54.43a6.19,6.19,0,0,1-4.54-1.72,6.11,6.11,0,0,1-1.76-4.56,6.15,6.15,0,0,1,1.71-4.52A5.9,5.9,0,0,1,57.8,41.9a5.37,5.37,0,0,1,4.14,1.72A6.18,6.18,0,0,1,63.53,48ZM59.7,45.07a2.8,2.8,0,0,0-1.92-.66,3.21,3.21,0,0,0-2,.65,3.26,3.26,0,0,0-1.13,1.82h6.08A3.44,3.44,0,0,0,59.7,45.07Z"/>
      </g>
    </g>
  </g>
</svg>
