<svg id="b62d0316-b47d-4200-9b98-f9fdb1e98c99" data-name="Layer 1" xmlns="http://www.w3.org/2000/svg" viewBox="0 0 80 80">
  <title>81</title>
  <g>
    <g>
      <g>
        <path style="fill: #fff;" d="M23.81,58.52c-9.28.21-10.92-2.78-10.92-2.78V50.59h7.32S23,56.29,23.81,58.52Z"/>
        <path style="fill: #fff;" d="M10.05,28.78c-.17,1.47-.32,3-.46,4.46L5.91,31.7v2.81H2a1.4,1.4,0,0,1-1.4-1.4V25.43A1.4,1.4,0,0,1,2,24H5.91v4.76Z"/>
        <path style="fill: #fff;" d="M64.24,37.73a242.41,242.41,0,0,1-48.48,0,2.28,2.28,0,0,1-2-2.63l2.8-18a3.48,3.48,0,0,1,3.55-2.92q19.91.75,39.81,0a3.47,3.47,0,0,1,3.55,2.92l2.82,18A2.3,2.3,0,0,1,64.24,37.73Z"/>
        <path style="fill: #fff;" d="M9.12,63v6.74H70.87V63Z"/>
        <path style="fill: #fff;" d="M70.87,69.69V75A1.82,1.82,0,0,1,69,76.84H63.42A1.82,1.82,0,0,1,61.6,75V69.69Z"/>
        <path style="fill: #fff;" d="M18.41,69.69V75a1.83,1.83,0,0,1-1.84,1.82H11A1.83,1.83,0,0,1,9.12,75V69.69Z"/>
        <path style="fill: #fadc0f;" d="M70.65,36c-.08-.94-.15-1.88-.24-2.8-.14-1.5-.29-3-.47-4.46-1-8.94-2.53-12.59-4.6-21a6.23,6.23,0,0,0-6.06-4.68H20.72a6.22,6.22,0,0,0-6.06,4.68c-2.08,8.36-3.6,12-4.61,21-.17,1.47-.32,3-.46,4.46-.09.92-.17,1.86-.25,2.8-.15,1.93-.22,3.88-.22,5.81V63H70.87V41.85C70.87,39.92,70.81,38,70.65,36ZM13.74,35.1l2.8-18a3.48,3.48,0,0,1,3.55-2.92q19.91.75,39.81,0a3.47,3.47,0,0,1,3.55,2.92l2.82,18a2.3,2.3,0,0,1-2,2.63,242.41,242.41,0,0,1-48.48,0A2.28,2.28,0,0,1,13.74,35.1Zm-.85,20.64V50.59h7.32s2.75,5.7,3.6,7.93C14.53,58.73,12.89,55.74,12.89,55.74ZM48.8,59.87H31.19l-4.94-9.28h27.5Zm18.31-4.13s-1.65,3-10.93,2.78c.86-2.23,3.61-7.93,3.61-7.93h7.32Z"/>
        <polygon style="fill: #fff;" points="53.75 50.59 48.8 59.87 31.19 59.87 26.25 50.59 53.75 50.59"/>
        <path style="fill: #fff;" d="M67.11,50.59v5.15s-1.65,3-10.93,2.78c.86-2.23,3.61-7.93,3.61-7.93Z"/>
        <path style="fill: #fff;" d="M79.41,25.43v7.68A1.41,1.41,0,0,1,78,34.51H74.08V31.7l-3.67,1.54c-.14-1.5-.29-3-.47-4.46h4.14V24H78A1.41,1.41,0,0,1,79.41,25.43Z"/>
      </g>
      <circle style="fill: #fff;" cx="16.17" cy="66.21" r="1.1"/>
      <circle style="fill: #fff;" cx="19.76" cy="66.21" r="1.1"/>
      <circle style="fill: #fff;" cx="60.12" cy="66.21" r="1.1"/>
      <circle style="fill: #fff;" cx="63.71" cy="66.21" r="1.1"/>
    </g>
    <g>
      <g>
        <path style="fill: none; stroke: #414042; stroke-linecap: round; stroke-linejoin: round;" d="M64.24,37.73a242.41,242.41,0,0,1-48.48,0,2.3,2.3,0,0,1-2-2.63l2.81-18a3.46,3.46,0,0,1,3.55-2.91q19.91.72,39.81,0a3.44,3.44,0,0,1,3.55,2.91l2.81,18A2.28,2.28,0,0,1,64.24,37.73Z"/>
        <path style="fill: none; stroke: #414042; stroke-linecap: round; stroke-linejoin: round;" d="M12.89,50.59v5.15s1.65,3,10.92,2.78c-.85-2.23-3.6-7.93-3.6-7.93Z"/>
        <polyline style="fill: none; stroke: #414042; stroke-linecap: round; stroke-linejoin: round;" points="40 59.87 31.19 59.87 26.25 50.59 40 50.59"/>
        <path style="fill: none; stroke: #414042; stroke-linecap: round; stroke-linejoin: round;" d="M2,24H5.92V34.51H2a1.4,1.4,0,0,1-1.4-1.4V25.42A1.4,1.4,0,0,1,2,24Z"/>
        <line style="fill: none; stroke: #414042; stroke-linecap: round; stroke-linejoin: round;" x1="5.92" y1="28.78" x2="10.05" y2="28.78"/>
        <line style="fill: none; stroke: #414042; stroke-linecap: round; stroke-linejoin: round;" x1="5.92" y1="31.7" x2="9.59" y2="33.24"/>
        <path style="fill: none; stroke: #414042; stroke-linecap: round; stroke-linejoin: round;" d="M40,69.69H61.59V75a1.83,1.83,0,0,0,1.83,1.83H69A1.83,1.83,0,0,0,70.87,75V41.85c0-1.94-.06-3.88-.22-5.82C69.72,24.5,68,18.42,65.34,7.83a6.22,6.22,0,0,0-6.06-4.68H20.72a6.21,6.21,0,0,0-6.06,4.68C12,18.42,10.28,24.5,9.35,36c-.16,1.94-.22,3.88-.22,5.82V75A1.83,1.83,0,0,0,11,76.85h5.61A1.83,1.83,0,0,0,18.4,75V69.69Z"/>
        <path style="fill: none; stroke: #414042; stroke-linecap: round; stroke-linejoin: round;" d="M67.1,50.59v5.15s-1.64,3-10.92,2.78c.86-2.23,3.6-7.93,3.6-7.93Z"/>
        <polyline style="fill: none; stroke: #414042; stroke-linecap: round; stroke-linejoin: round;" points="40 59.87 48.8 59.87 53.74 50.59 40 50.59"/>
        <path style="fill: none; stroke: #414042; stroke-linecap: round; stroke-linejoin: round;" d="M75.48,24h3.92V34.51H75.48a1.4,1.4,0,0,1-1.4-1.4V25.42A1.4,1.4,0,0,1,75.48,24Z" transform="translate(153.49 58.53) rotate(-180)"/>
        <line style="fill: none; stroke: #414042; stroke-linecap: round; stroke-linejoin: round;" x1="74.08" y1="28.78" x2="69.95" y2="28.78"/>
        <line style="fill: none; stroke: #414042; stroke-linecap: round; stroke-linejoin: round;" x1="74.08" y1="31.7" x2="70.41" y2="33.24"/>
        <line style="fill: none; stroke: #414042; stroke-linecap: round; stroke-linejoin: round;" x1="18.4" y1="69.69" x2="9.13" y2="69.69"/>
        <line style="fill: none; stroke: #414042; stroke-linecap: round; stroke-linejoin: round;" x1="61.59" y1="69.69" x2="70.87" y2="69.69"/>
      </g>
      <line style="fill: none; stroke: #414042; stroke-linecap: round; stroke-linejoin: round;" x1="9.13" y1="62.95" x2="70.87" y2="62.95"/>
      <circle style="fill: none; stroke: #414042; stroke-linecap: round; stroke-linejoin: round;" cx="16.17" cy="66.21" r="1.1"/>
      <circle style="fill: none; stroke: #414042; stroke-linecap: round; stroke-linejoin: round;" cx="19.76" cy="66.21" r="1.1"/>
      <circle style="fill: none; stroke: #414042; stroke-linecap: round; stroke-linejoin: round;" cx="60.12" cy="66.21" r="1.1"/>
      <circle style="fill: none; stroke: #414042; stroke-linecap: round; stroke-linejoin: round;" cx="63.71" cy="66.21" r="1.1"/>
      <path style="fill: none; stroke: #414042; stroke-linecap: round; stroke-linejoin: round;" d="M12.84,41.41a190.85,190.85,0,0,0,54.32,0"/>
    </g>
  </g>
</svg>
