<svg id="e9abc0e3-bdb4-44d5-9b4a-dc5221201c95" data-name="Layer 1" xmlns="http://www.w3.org/2000/svg" viewBox="0 0 80 80">
  <title>83</title>
  <g>
    <g>
      <g>
        <path style="fill: #fff;" d="M43.85,47.07,43.71,43l-.19-5.5-11.11-7-12.34-7.8L2.37,32.82v4.71l-1.62,1V43l.65.25V64.78l25,14.35,18.23-10.5Zm-18.73,1c-2,0-3.67-.81-3.67-1.81l.07-.34v0l.92-4.72L22.69,40c0-.48.56-.89,1.38-1.09a4.9,4.9,0,0,1,1.05-.11c1.35,0,2.44.54,2.44,1.2l.51,2.59.65,3.32v0l.07.34C28.79,47.31,27.14,48.12,25.12,48.12Z"/>
        <path style="fill: #fff;" d="M67.55,29.41v4.34l-.84.48V55.9L50.47,65.25,49.68,43.8l-.15-4.14L49.32,34,38.74,26.85h0l-11.93-8,14.44-8.29,13.14,7.37v4.27l.07,0-1,5.18.22.13,3.26,1.91,0,.72c2,0,3.64-.82,3.64-1.81L60.51,28,60,25.23Z"/>
        <polygon style="fill: #fadc0f;" points="50.47 65.25 44.59 68.64 43.85 47.07 43.71 42.98 43.52 37.48 32.41 30.46 20.07 22.66 26.8 18.8 38.73 26.84 38.74 26.84 49.33 33.98 49.53 39.66 49.68 43.8 50.47 65.25"/>
        <path style="fill: #fff;" d="M28.79,46.31c0,1-1.65,1.81-3.67,1.81s-3.67-.81-3.67-1.81l.07-.34v0l.92-4.72L22.69,40c0-.48.56-.89,1.38-1.09a4.9,4.9,0,0,1,1.05-.11c1.35,0,2.44.54,2.44,1.2l.51,2.59.65,3.32v0Z"/>
        <path style="fill: #fff;" d="M60.58,28.32c0,1-1.63,1.8-3.64,1.81l0-.72L53.65,27.5l-.22-.13,1-5.18.06,0a.57.57,0,0,1,0-.18c0-.66,1.08-1.2,2.43-1.2s2.44.54,2.44,1.2L60,25.23,60.51,28Z"/>
      </g>
      <g>
        <polyline style="fill: none; stroke: #414042; stroke-linecap: round; stroke-linejoin: round;" points="54.38 21.98 54.38 17.88 41.24 10.51 2.38 32.82 2.38 37.53 0.74 38.52 0.74 42.98 1.4 43.23 1.4 64.78 26.36 79.13 66.71 55.9 66.71 34.23 67.55 33.75 67.55 29.41 60.03 25.26"/>
        <line style="fill: none; stroke: #414042; stroke-linecap: round; stroke-linejoin: round;" x1="49.87" y1="43.69" x2="66.71" y2="34.23"/>
        <polyline style="fill: none; stroke: #414042; stroke-linecap: round; stroke-linejoin: round;" points="1.4 43.23 26.07 57.07 43.78 47.12"/>
        <line style="fill: none; stroke: #414042; stroke-linecap: round; stroke-linejoin: round;" x1="49.71" y1="39.57" x2="67.55" y2="29.41"/>
        <polyline style="fill: none; stroke: #414042; stroke-linecap: round; stroke-linejoin: round;" points="0.74 38.52 26.14 52.98 43.61 43.04"/>
        <line style="fill: none; stroke: #414042; stroke-linecap: round; stroke-linejoin: round;" x1="26.07" y1="57.07" x2="26.36" y2="79.13"/>
        <line style="fill: none; stroke: #414042; stroke-linecap: round; stroke-linejoin: round;" x1="38.74" y1="26.84" x2="54.38" y2="17.88"/>
        <polyline style="fill: none; stroke: #414042; stroke-linecap: round; stroke-linejoin: round;" points="15.52 45.17 15.52 40.14 32.41 30.46"/>
        <line style="fill: none; stroke: #414042; stroke-linecap: round; stroke-linejoin: round;" x1="2.37" y1="32.82" x2="15.52" y2="40.14"/>
        <polyline style="fill: none; stroke: #414042; stroke-linecap: round; stroke-linejoin: round;" points="28.3 42.76 36.2 47.26 36.2 41.89 24.19 35.17 24.07 38.77"/>
        <polyline style="fill: none; stroke: #414042; stroke-linecap: round; stroke-linejoin: round;" points="2.38 37.53 15.52 45.17 22.18 41.37"/>
        <polyline style="fill: none; stroke: #414042; stroke-linecap: round; stroke-linejoin: round;" points="45.72 22.84 56.91 29.41 57.17 35.32"/>
        <line style="fill: none; stroke: #414042; stroke-linecap: round; stroke-linejoin: round;" x1="49.47" y1="33.89" x2="56.91" y2="29.41"/>
        <line style="fill: none; stroke: #414042; stroke-linecap: round; stroke-linejoin: round;" x1="36.2" y1="41.89" x2="43.31" y2="37.61"/>
        <line style="fill: none; stroke: #414042; stroke-linecap: round; stroke-linejoin: round;" x1="54.38" y1="22.15" x2="49.33" y2="24.96"/>
        <g>
          <ellipse style="fill: none; stroke: #414042; stroke-linecap: round; stroke-linejoin: round;" cx="25.12" cy="40.03" rx="2.44" ry="1.2"/>
          <path style="fill: none; stroke: #414042; stroke-linecap: round; stroke-linejoin: round;" d="M28.79,46.3c0,1-1.65,1.82-3.67,1.82s-3.67-.81-3.67-1.82"/>
          <line style="fill: none; stroke: #414042; stroke-linecap: round; stroke-linejoin: round;" x1="22.68" y1="40.03" x2="21.45" y2="46.3"/>
          <line style="fill: none; stroke: #414042; stroke-linecap: round; stroke-linejoin: round;" x1="27.55" y1="40.03" x2="28.79" y2="46.3"/>
        </g>
        <g>
          <ellipse style="fill: none; stroke: #414042; stroke-linecap: round; stroke-linejoin: round;" cx="56.91" cy="22.04" rx="2.44" ry="1.2"/>
          <path style="fill: none; stroke: #414042; stroke-linecap: round; stroke-linejoin: round;" d="M60.58,28.32c0,1-1.6,1.79-3.58,1.81"/>
          <line style="fill: none; stroke: #414042; stroke-linecap: round; stroke-linejoin: round;" x1="54.47" y1="22.04" x2="53.43" y2="27.37"/>
          <line style="fill: none; stroke: #414042; stroke-linecap: round; stroke-linejoin: round;" x1="59.35" y1="22.04" x2="60.58" y2="28.32"/>
        </g>
        <polyline style="fill: none; stroke: #414042; stroke-linecap: round; stroke-linejoin: round;" points="20.07 22.66 43.52 37.48 44.59 68.64"/>
        <polyline style="fill: none; stroke: #414042; stroke-linecap: round; stroke-linejoin: round;" points="26.8 18.8 49.33 33.98 50.47 65.25"/>
      </g>
      <line style="fill: none; stroke: #414042; stroke-linecap: round; stroke-linejoin: round;" x1="32.41" y1="61.06" x2="36.62" y2="58.69"/>
      <line style="fill: none; stroke: #414042; stroke-linecap: round; stroke-linejoin: round;" x1="34.52" y1="57.02" x2="34.52" y2="62.74"/>
      <line style="fill: none; stroke: #414042; stroke-linecap: round; stroke-linejoin: round;" x1="59.49" y1="46" x2="63.71" y2="43.64"/>
    </g>
    <polygon style="fill: #fadc0f;" points="79.47 4.79 66.54 17.73 63.21 21.06 59.77 17.63 54.16 12.01 57.49 8.68 63.1 14.29 76.04 1.37 79.47 4.79"/>
    <polygon style="fill: none; stroke: #414042; stroke-linecap: round; stroke-linejoin: round;" points="79.47 4.79 66.54 17.73 63.21 21.06 59.77 17.63 54.16 12.01 57.49 8.68 63.1 14.29 76.04 1.37 79.47 4.79"/>
  </g>
</svg>
