<svg id="f66f556a-fb4f-4641-81fd-916e80ba7f2b" data-name="Layer 1" xmlns="http://www.w3.org/2000/svg" viewBox="0 0 80 80">
  <title>84</title>
  <g>
    <g>
      <path style="fill:#fff;" d="M79.2.71V79.29H72.61a2.55,2.55,0,0,1-2.55-2.56V69.3h-17V63.09a.6.6,0,0,0-.59-.6H27.3a.6.6,0,0,0-.6.6V69.3H9.75v7.43A2.55,2.55,0,0,1,7.2,79.29H.85V.71Z"/>
      <path style="fill:#fadc0f;" d="M53.11,63.09v9.32a.59.59,0,0,1-.59.6H27.3a.59.59,0,0,1-.6-.6V63.09a.6.6,0,0,1,.6-.6H52.52A.6.6,0,0,1,53.11,63.09Z"/>
      <rect style="fill:#fff;" x="40.29" y="66.88" width="1.85" height="1.85"/>
      <rect style="fill:#fff;" x="43.45" y="66.88" width="1.85" height="1.85"/>
      <rect style="fill:#fff;" x="31.65" y="66.88" width="1.85" height="1.85"/>
      <rect style="fill:#fff;" x="34.81" y="66.88" width="1.85" height="1.85"/>
      <rect style="fill:#fff;" x="46.61" y="66.88" width="1.85" height="1.85"/>
    </g>
    <g>
      <g>
        <g>
          <path style="fill:none;stroke:#414042;stroke-linecap:round;stroke-linejoin:round;" d="M73.41.71,76.58,21a3.22,3.22,0,0,1-2.83,3.68,340.25,340.25,0,0,1-67.69,0A3.2,3.2,0,0,1,3.23,21L6.4.71"/>
          <path style="fill:none;stroke:#414042;stroke-linecap:round;stroke-linejoin:round;" d="M2.05,42.62v7.2S4.35,54,17.3,53.7c-1.19-3.11-5-11.08-5-11.08Z"/>
          <polyline style="fill:none;stroke:#414042;stroke-linecap:round;stroke-linejoin:round;" points="39.9 55.58 27.61 55.58 20.71 42.62 39.9 42.62"/>
          <path style="fill:none;stroke:#414042;stroke-linecap:round;stroke-linejoin:round;" d="M53.22,69.3H70.06v7.44a2.55,2.55,0,0,0,2.55,2.55h6.58"/>
          <path style="fill:none;stroke:#414042;stroke-linecap:round;stroke-linejoin:round;" d="M.85,79.29H7.19a2.56,2.56,0,0,0,2.56-2.55V69.3H26.59"/>
          <path style="fill:none;stroke:#414042;stroke-linecap:round;stroke-linejoin:round;" d="M77.75,42.62v7.2S75.45,54,62.5,53.7c1.2-3.11,5-11.08,5-11.08Z"/>
          <polyline style="fill:none;stroke:#414042;stroke-linecap:round;stroke-linejoin:round;" points="39.9 55.58 52.2 55.58 59.1 42.62 39.9 42.62"/>
          <line style="fill:none;stroke:#414042;stroke-linecap:round;stroke-linejoin:round;" x1="9.75" y1="69.3" x2="0.8" y2="69.3"/>
          <line style="fill:none;stroke:#414042;stroke-linecap:round;stroke-linejoin:round;" x1="70.06" y1="69.3" x2="79.19" y2="69.3"/>
        </g>
        <line style="fill:none;stroke:#414042;stroke-linecap:round;stroke-linejoin:round;" x1="0.8" y1="59.89" x2="79.19" y2="59.89"/>
        <circle style="fill:none;stroke:#414042;stroke-linecap:round;stroke-linejoin:round;" cx="6.64" cy="64.43" r="1.53"/>
        <circle style="fill:none;stroke:#414042;stroke-linecap:round;stroke-linejoin:round;" cx="11.65" cy="64.43" r="1.53"/>
        <circle style="fill:none;stroke:#414042;stroke-linecap:round;stroke-linejoin:round;" cx="68" cy="64.43" r="1.53"/>
        <circle style="fill:none;stroke:#414042;stroke-linecap:round;stroke-linejoin:round;" cx="73.01" cy="64.43" r="1.53"/>
      </g>
      <g>
        <rect style="fill:none;stroke:#414042;stroke-linecap:round;stroke-linejoin:round;" x="26.69" y="62.49" width="26.42" height="10.52" rx="0.6"/>
        <circle style="fill:#414042;" cx="28.15" cy="64.04" r="0.48"/>
        <circle style="fill:#414042;" cx="28.15" cy="71.64" r="0.48"/>
        <circle style="fill:#414042;" cx="51.71" cy="63.95" r="0.48"/>
        <circle style="fill:#414042;" cx="51.71" cy="71.55" r="0.48"/>
        <rect style="fill:none;stroke:#414042;stroke-linecap:round;stroke-linejoin:round;" x="40.29" y="66.88" width="1.85" height="1.85"/>
        <rect style="fill:none;stroke:#414042;stroke-linecap:round;stroke-linejoin:round;" x="43.45" y="66.88" width="1.85" height="1.85"/>
        <rect style="fill:none;stroke:#414042;stroke-linecap:round;stroke-linejoin:round;" x="31.65" y="66.88" width="1.85" height="1.85"/>
        <rect style="fill:none;stroke:#414042;stroke-linecap:round;stroke-linejoin:round;" x="34.81" y="66.88" width="1.85" height="1.85"/>
        <rect style="fill:none;stroke:#414042;stroke-linecap:round;stroke-linejoin:round;" x="46.61" y="66.88" width="1.85" height="1.85"/>
      </g>
    </g>
  </g>
</svg>
