<svg id="ec6b6fbf-6e1c-4221-b828-c2c1f1b53abf" data-name="Layer 1" xmlns="http://www.w3.org/2000/svg" viewBox="0 0 80 80">
  <title>9</title>
  <g>
    <g>
      <path style="fill: #fff;" d="M79.05,24.39l-18.84,32a1.51,1.51,0,0,1-2,.55,38.49,38.49,0,0,0-36.38,0,1.51,1.51,0,0,1-2-.55L1,24.39a1.5,1.5,0,0,1,.56-2.08,79.63,79.63,0,0,1,77,0A1.5,1.5,0,0,1,79.05,24.39Z"/>
      <path style="fill: none; stroke: #414042; stroke-linecap: round; stroke-linejoin: round;" d="M79.05,24.39l-18.84,32a1.51,1.51,0,0,1-2,.55,38.49,38.49,0,0,0-36.38,0,1.51,1.51,0,0,1-2-.55L1,24.39a1.5,1.5,0,0,1,.56-2.08,79.63,79.63,0,0,1,77,0A1.5,1.5,0,0,1,79.05,24.39Z"/>
    </g>
    <g>
      <line style="fill: none; stroke: #414042; stroke-linecap: round; stroke-linejoin: round;" x1="29.66" y1="58.28" x2="31.16" y2="43.67"/>
      <circle style="fill: #fff; stroke: #414042; stroke-linecap: round; stroke-linejoin: round;" cx="29.36" cy="61.22" r="2.96"/>
      <line style="fill: none; stroke: #414042; stroke-linecap: round; stroke-linejoin: round;" x1="50.84" y1="58.28" x2="52.34" y2="43.67"/>
      <circle style="fill: #fff; stroke: #414042; stroke-linecap: round; stroke-linejoin: round;" cx="50.54" cy="61.22" r="2.96"/>
    </g>
    <rect style="fill: #fadc0f; stroke: #414042; stroke-linecap: round; stroke-linejoin: round;" x="21.12" y="35.93" width="29.63" height="2.77" transform="translate(-15.84 38.75) rotate(-47.66)"/>
    <rect style="fill: #fadc0f; stroke: #414042; stroke-linecap: round; stroke-linejoin: round;" x="43.96" y="35.49" width="29.63" height="2.77" transform="translate(-8.07 55.48) rotate(-47.66)"/>
  </g>
</svg>
