<svg id="fb0b5a39-22bd-4062-9971-86816aa56816" data-name="Layer 1" xmlns="http://www.w3.org/2000/svg" viewBox="0 0 80 80">
  <defs>
    <style>
      .a09d5968-1b05-42c1-8ce5-2a12707da54f {
        fill: #fff;
      }

      .b0211139-f84f-46a3-b411-2e747203380f {
        fill: #fadc0f;
      }

      .b833219e-f42b-485b-ae08-d9f74b01452a {
        fill: none;
        stroke: #414042;
        stroke-linecap: round;
        stroke-linejoin: round;
      }
    </style>
  </defs>
  <title>85-v1</title>
  <g>
    <g>
      <path class="a09d5968-1b05-42c1-8ce5-2a12707da54f" d="M79.25,57.72H1.53a38.86,38.86,0,0,1,77.72,0Z"/>
      <path class="b0211139-f84f-46a3-b411-2e747203380f" d="M43.33,62.51a5.76,5.76,0,0,1-6.7-9.32L40.3,32.61a.09.09,0,0,1,.18,0l3.68,20.58a5.69,5.69,0,0,1,1.19,1.42A5.78,5.78,0,0,1,43.33,62.51Z"/>
    </g>
    <g>
      <path class="b833219e-f42b-485b-ae08-d9f74b01452a" d="M43.33,62.51a5.76,5.76,0,0,1-6.7-9.32L40.3,32.61a.09.09,0,0,1,.18,0l3.68,20.58a5.69,5.69,0,0,1,1.19,1.42A5.78,5.78,0,0,1,43.33,62.51Z"/>
      <line class="b833219e-f42b-485b-ae08-d9f74b01452a" x1="6.74" y1="38.29" x2="14.36" y2="42.69"/>
      <line class="b833219e-f42b-485b-ae08-d9f74b01452a" x1="20.96" y1="24.06" x2="25.36" y2="31.68"/>
      <line class="b833219e-f42b-485b-ae08-d9f74b01452a" x1="40.39" y1="18.86" x2="40.39" y2="27.65"/>
      <line class="b833219e-f42b-485b-ae08-d9f74b01452a" x1="59.82" y1="24.06" x2="55.42" y2="31.68"/>
      <line class="b833219e-f42b-485b-ae08-d9f74b01452a" x1="74.05" y1="38.29" x2="66.43" y2="42.69"/>
      <path class="b833219e-f42b-485b-ae08-d9f74b01452a" d="M70.46,57.72h8.79a38.86,38.86,0,0,0-77.72,0h8.8"/>
    </g>
  </g>
</svg>
