<svg id="a1ff21f2-d734-4f34-99a9-bdd2fca4708e" data-name="Layer 1" xmlns="http://www.w3.org/2000/svg" viewBox="0 0 80 80">
  <defs>
    <style>
      .f35f0a75-6a56-4e69-8e63-5a5828484f9f {
        fill: #fadc0f;
      }

      .ebc94a45-2d86-4cf0-b412-ed3752ecd8ec {
        fill: #fff;
      }

      .a31a28ee-2247-42dd-bccc-9a4ddc1269e7 {
        fill: none;
        stroke: #414042;
        stroke-linecap: round;
        stroke-linejoin: round;
      }
    </style>
  </defs>
  <title>Accident-22</title>
  <g>
    <g>
      <path class="f35f0a75-6a56-4e69-8e63-5a5828484f9f" d="M42.79,8.11A17.5,17.5,0,0,0,25.85,30a16.89,16.89,0,0,0,2,4.7c.2.34.41.67.64,1l.3.41,14,20.12L53.3,41.08l3.43-4.93.07-.09.63-.91a14.25,14.25,0,0,0,.75-1.25A17.5,17.5,0,0,0,42.79,8.11Zm0,25.12a7.63,7.63,0,1,1,7.63-7.63A7.63,7.63,0,0,1,42.79,33.23Z"/>
      <path class="ebc94a45-2d86-4cf0-b412-ed3752ecd8ec" d="M79.28,59.79,54.4,71.88,25.68,67l-25,2.52,5-37.36L25.68,30l.17,0a16.89,16.89,0,0,0,2,4.7c.2.34.41.67.64,1l.3.41,14,20.12L53.3,41.08l3.43-4.93.07-.09.63-.91a14.25,14.25,0,0,0,.75-1.25l.15,0,17.1-9.29Z"/>
    </g>
    <g>
      <circle class="a31a28ee-2247-42dd-bccc-9a4ddc1269e7" cx="42.79" cy="25.6" r="7.63"/>
      <path class="a31a28ee-2247-42dd-bccc-9a4ddc1269e7" d="M60.27,25.61a17.37,17.37,0,0,1-2.84,9.54l-.63.91-.07.09-13.94,20-14-20.12-.3-.41a17.48,17.48,0,1,1,31.79-10Z"/>
      <polyline class="a31a28ee-2247-42dd-bccc-9a4ddc1269e7" points="25.68 30.01 5.75 32.17 0.72 69.53 25.68 67.02 54.4 71.88 79.28 59.8 75.43 24.56 58.33 33.86"/>
      <line class="a31a28ee-2247-42dd-bccc-9a4ddc1269e7" x1="54.4" y1="71.88" x2="53.3" y2="41.08"/>
      <line class="a31a28ee-2247-42dd-bccc-9a4ddc1269e7" x1="25.68" y1="67.02" x2="27.78" y2="35.16"/>
    </g>
  </g>
</svg>
