<svg id="b7c76050-bf2f-44bf-8126-29003a436d28" data-name="Layer 1" xmlns="http://www.w3.org/2000/svg" viewBox="0 0 80 80">
  <defs>
    <style>
      .eb1771b3-f1f9-48be-a336-0d5551c026d6 {
        fill: #fff;
      }

      .edddf288-7689-4a74-8113-6e18af4c9a09 {
        fill: #fadc0f;
      }

      .b4952036-9ae1-4863-a731-93fef85fc25d {
        fill: none;
        stroke: #414042;
        stroke-linecap: round;
        stroke-linejoin: round;
      }

      .a522ab0d-ebc2-4b16-805b-92eeb447f3f4 {
        fill: #414042;
      }
    </style>
  </defs>
  <title>Accident-29</title>
  <g>
    <g>
      <path class="eb1771b3-f1f9-48be-a336-0d5551c026d6" d="M24,59.64v2.8a2,2,0,0,1-2.05,2h-5a2,2,0,0,1-2.05-2V59.62h0v0Z"/>
      <path class="edddf288-7689-4a74-8113-6e18af4c9a09" d="M20.31,34.23v4.26H17a2.13,2.13,0,1,1,0-4.26Z"/>
      <path class="eb1771b3-f1f9-48be-a336-0d5551c026d6" d="M59.5,38.5v0H20.34v0a25.14,25.14,0,0,1,3.42-7.79A6.66,6.66,0,0,1,28.09,28a82.48,82.48,0,0,1,11.24-.83A95.31,95.31,0,0,1,51.71,28,6.66,6.66,0,0,1,56,30.7a25.42,25.42,0,0,1,3.42,7.79Z"/>
      <path class="eb1771b3-f1f9-48be-a336-0d5551c026d6" d="M65,59.62v2.82a2,2,0,0,1-2.05,2h-5a2,2,0,0,1-2-2v-2.8H65v0Z"/>
      <path class="edddf288-7689-4a74-8113-6e18af4c9a09" d="M65.09,40.28a2.15,2.15,0,0,1-1.68.81,2.12,2.12,0,0,1-1.32-.46l-2.23-1.76a4,4,0,0,0-.37-.35v0l2.6-3.3,2.63,2.08A2.13,2.13,0,0,1,65.09,40.28Z"/>
      <path class="edddf288-7689-4a74-8113-6e18af4c9a09" d="M63.08,53.75l.71-2.39-.71-2.08.21-5.79a16.73,16.73,0,0,0-3.43-4.62l-.4-.32,0,0H20.33a16.57,16.57,0,0,0-3.81,5,15.9,15.9,0,0,0-1.68,7.31v8.84H65V57.91Zm-35-4a1.53,1.53,0,0,1-1.28.7H21.16a2.15,2.15,0,0,1-1.87-1.1l-.91-1.64a.8.8,0,0,1,.88-1.16l9.4,2.3Zm32.4-.39a2.08,2.08,0,0,1-1.88,1.07H53a1.6,1.6,0,0,1-1.27-.66l-.56-.92L54.7,48l1.63,1,.76-1.16,1,.45,2.89.21Z"/>
      <path class="eb1771b3-f1f9-48be-a336-0d5551c026d6" d="M28.66,48.82l-.57.9a1.53,1.53,0,0,1-1.28.7H21.16a2.15,2.15,0,0,1-1.87-1.1l-.91-1.64a.8.8,0,0,1,.88-1.16Z"/>
      <path class="eb1771b3-f1f9-48be-a336-0d5551c026d6" d="M61,48.47l-.51.86a2.08,2.08,0,0,1-1.88,1.07H53a1.6,1.6,0,0,1-1.27-.66l-.56-.92L54.7,48l1.63,1,.76-1.16,1,.45Z"/>
    </g>
    <g>
      <polyline class="b4952036-9ae1-4863-a731-93fef85fc25d" points="0.7 33.04 0.7 19.29 15.34 19.29"/>
      <polyline class="b4952036-9ae1-4863-a731-93fef85fc25d" points="14.45 71.98 0.7 71.98 0.7 57.35"/>
      <polyline class="b4952036-9ae1-4863-a731-93fef85fc25d" points="65.55 19.29 79.3 19.29 79.3 33.92"/>
      <polyline class="b4952036-9ae1-4863-a731-93fef85fc25d" points="79.3 58.23 79.3 71.98 64.66 71.98"/>
      <g>
        <line class="b4952036-9ae1-4863-a731-93fef85fc25d" x1="5.73" y1="8.02" x2="74.27" y2="8.02"/>
        <polygon class="a522ab0d-ebc2-4b16-805b-92eeb447f3f4" points="6.75 11.51 0.7 8.02 6.75 4.53 6.75 11.51"/>
        <polygon class="a522ab0d-ebc2-4b16-805b-92eeb447f3f4" points="73.25 11.51 79.3 8.02 73.25 4.53 73.25 11.51"/>
      </g>
      <g>
        <path class="b4952036-9ae1-4863-a731-93fef85fc25d" d="M14.82,59.62v2.82a2.05,2.05,0,0,0,2.05,2h5a2.05,2.05,0,0,0,2.05-2V59.62"/>
        <path class="b4952036-9ae1-4863-a731-93fef85fc25d" d="M18.38,47.68l.91,1.63a2.15,2.15,0,0,0,1.87,1.1h5.65a1.51,1.51,0,0,0,1.28-.7l.57-.9-9.4-2.29A.79.79,0,0,0,18.38,47.68Z"/>
        <path class="b4952036-9ae1-4863-a731-93fef85fc25d" d="M17,34.22h3.36a0,0,0,0,1,0,0v4.27a0,0,0,0,1,0,0H17a2.13,2.13,0,0,1-2.13-2.13v0A2.13,2.13,0,0,1,17,34.22Z"/>
        <path class="b4952036-9ae1-4863-a731-93fef85fc25d" d="M65,57.91v1.72H14.84V50.8a15.87,15.87,0,0,1,1.68-7.31,16.33,16.33,0,0,1,3.81-5H59.48a16.49,16.49,0,0,1,3.81,5l-.21,5.79.71,2.08-.71,2.38Z"/>
        <path class="b4952036-9ae1-4863-a731-93fef85fc25d" d="M59.46,38.49A25.52,25.52,0,0,0,56,30.69,6.68,6.68,0,0,0,51.71,28a96.05,96.05,0,0,0-12.38-.84A83.24,83.24,0,0,0,28.09,28a6.68,6.68,0,0,0-4.33,2.74,25.24,25.24,0,0,0-3.42,7.8"/>
        <path class="b4952036-9ae1-4863-a731-93fef85fc25d" d="M56.13,59.62h0a4.53,4.53,0,0,0-4.53-4.53H28.2a4.52,4.52,0,0,0-4.53,4.53h0"/>
        <path class="b4952036-9ae1-4863-a731-93fef85fc25d" d="M65,59.62v2.82a2.05,2.05,0,0,1-2.05,2h-5a2.05,2.05,0,0,1-2-2V59.62"/>
        <path class="b4952036-9ae1-4863-a731-93fef85fc25d" d="M61,48.46l-.51.87a2.08,2.08,0,0,1-1.88,1.06H53a1.57,1.57,0,0,1-1.27-.66l-.56-.91L54.7,48l1.63,1,.76-1.17,1,.46Z"/>
        <path class="b4952036-9ae1-4863-a731-93fef85fc25d" d="M62.32,36.44h3.36a0,0,0,0,1,0,0v4.27a0,0,0,0,1,0,0H62.32a2.13,2.13,0,0,1-2.13-2.13v0A2.13,2.13,0,0,1,62.32,36.44Z" transform="translate(88.46 107.83) rotate(-141.74)"/>
        <polyline class="b4952036-9ae1-4863-a731-93fef85fc25d" points="49.27 30.22 50.54 31.71 51.81 31.71 52.72 32.82"/>
        <polyline class="b4952036-9ae1-4863-a731-93fef85fc25d" points="50.54 31.71 50.54 33.89 49.27 34.68"/>
      </g>
    </g>
  </g>
</svg>
