<svg id="e96af85b-9560-4107-bbb2-d6af6040b0a5" data-name="Layer 1" xmlns="http://www.w3.org/2000/svg" viewBox="0 0 80 80">
  <defs>
    <style>
      .f8cf5116-1895-455d-a9ef-299bf40303d6 {
        fill: #fff;
      }

      .a0867acb-843e-470b-9c2c-017eae38d6a9 {
        fill: none;
        stroke-linecap: round;
        stroke-linejoin: round;
      }

      .a0867acb-843e-470b-9c2c-017eae38d6a9, .eb1644b3-5cf2-4b29-81c0-f3cf03b34292 {
        stroke: #414042;
      }

      .eb1644b3-5cf2-4b29-81c0-f3cf03b34292 {
        fill: #fadc0f;
        stroke-miterlimit: 10;
      }
    </style>
  </defs>
  <title>Accident-6</title>
  <g>
    <g>
      <path class="f8cf5116-1895-455d-a9ef-299bf40303d6" d="M79.36,17.75V62.24a3.61,3.61,0,0,1-1,2.48,3.58,3.58,0,0,1-2.62,1.14H4.25a3.6,3.6,0,0,1-2.63-1.14,3.57,3.57,0,0,1-1-2.48V17.75a3.58,3.58,0,0,1,.62-2,3.64,3.64,0,0,1,3-1.59h71.5a3.61,3.61,0,0,1,3.61,3.62Z"/>
      <g>
        <rect class="a0867acb-843e-470b-9c2c-017eae38d6a9" x="0.63" y="14.14" width="78.74" height="51.73" rx="3.62"/>
        <line class="a0867acb-843e-470b-9c2c-017eae38d6a9" x1="1.62" y1="64.72" x2="27.15" y2="40"/>
        <path class="a0867acb-843e-470b-9c2c-017eae38d6a9" d="M78.75,15.73,44.23,48.09a6.21,6.21,0,0,1-8.46,0L1.25,15.73"/>
        <line class="a0867acb-843e-470b-9c2c-017eae38d6a9" x1="78.38" y1="64.72" x2="52.85" y2="40"/>
      </g>
    </g>
    <path class="eb1644b3-5cf2-4b29-81c0-f3cf03b34292" d="M47.71,32.91l-1.3,11a17.14,17.14,0,0,0-.14,2.21c0,1.06.37,1.59,1.13,1.59q1.82,0,3.48-2.49a10.63,10.63,0,0,0,1.67-6,10.52,10.52,0,0,0-3.7-8.32,13.23,13.23,0,0,0-9-3.2,13.15,13.15,0,0,0-9.71,4,13.33,13.33,0,0,0-3.93,9.77,13.44,13.44,0,0,0,3.69,9.43q3.69,4,10.38,4a23,23,0,0,0,10.6-2.79l1.39,3.21a26,26,0,0,1-12,3q-8.25,0-13.09-5a16.35,16.35,0,0,1-4.85-11.86,16,16,0,0,1,5.09-12A17.25,17.25,0,0,1,39.8,24.5a16.42,16.42,0,0,1,11.42,4.17,13.52,13.52,0,0,1,4.63,10.51,13.7,13.7,0,0,1-2.6,8.21Q50.66,51,46.93,51a4,4,0,0,1-4-2.46A6.12,6.12,0,0,1,38,51.08a6.54,6.54,0,0,1-5.14-2.5A9.82,9.82,0,0,1,30.68,42a9.74,9.74,0,0,1,2.41-6.83,7.51,7.51,0,0,1,5.74-2.63,5.24,5.24,0,0,1,4.63,2l.18-1.65ZM38.26,47.23a4.39,4.39,0,0,0,3.41-1.83,7.13,7.13,0,0,0,1.53-4.75,4.32,4.32,0,0,0-1.17-3,3.73,3.73,0,0,0-5.92.3,6.87,6.87,0,0,0-1.2,4.19,6.54,6.54,0,0,0,.93,3.63A2.8,2.8,0,0,0,38.26,47.23Z"/>
  </g>
</svg>
