<svg id="bc4246e7-64bc-4935-81f6-65965a1e07cf" data-name="Layer 1" xmlns="http://www.w3.org/2000/svg" viewBox="0 0 80 80">
  <defs>
    <style>
      .accf0086-4391-452e-9d5c-8e6fadf220c0 {
        fill: #fadc0f;
      }

      .aff9b554-c90b-440b-9bc4-037a796beede {
        fill: #fff;
      }

      .f28434e9-d993-4ab3-93de-98607ba296c1 {
        fill: none;
        stroke: #414042;
        stroke-linecap: round;
        stroke-linejoin: round;
      }

      .ad82b8e0-d90f-4a73-8551-8c1f2459b5c0 {
        fill: #414042;
      }
    </style>
  </defs>
  <title>Accident-28</title>
  <g>
    <g>
      <path class="accf0086-4391-452e-9d5c-8e6fadf220c0" d="M46,44.74l1.08-3.62L46,38l.31-8.78a25,25,0,0,0-5.22-7l-.59-.47,0-.05H15.66a27.8,27.8,0,0,0-5.13,25.14,27.16,27.16,0,0,0,3,6.9h0l21.47,0H48.88V51.05ZM42.1,38a3.18,3.18,0,0,1-2.85,1.61H30.7a2.38,2.38,0,0,1-1.92-1l-.85-1.38L33.32,36l2.46,1.54,1.16-1.77,1.54.69,4.39.31Z"/>
      <path class="aff9b554-c90b-440b-9bc4-037a796beede" d="M40.59,21.62l0,0H15.66A27.69,27.69,0,0,1,36.4,11.34l.16.33a40.5,40.5,0,0,1,4,9.93Z"/>
      <path class="aff9b554-c90b-440b-9bc4-037a796beede" d="M48.9,53.64v4.29A3.1,3.1,0,0,1,45.79,61H38.15A3.1,3.1,0,0,1,35,57.93V53.67H48.88v0Z"/>
      <path class="aff9b554-c90b-440b-9bc4-037a796beede" d="M42.87,36.73,42.1,38a3.18,3.18,0,0,1-2.85,1.61H30.7a2.38,2.38,0,0,1-1.92-1l-.85-1.38L33.32,36l2.46,1.54,1.16-1.77,1.54.69Z"/>
      <path class="accf0086-4391-452e-9d5c-8e6fadf220c0" d="M49.07,24.3a3.23,3.23,0,0,1-4.55.54l-3.4-2.68c-.18-.19-.36-.35-.55-.52l0,0,3.94-5,4,3.15A3.24,3.24,0,0,1,49.07,24.3Z"/>
    </g>
    <g>
      <g>
        <line class="f28434e9-d993-4ab3-93de-98607ba296c1" x1="0.67" y1="3.77" x2="36.22" y2="3.77"/>
        <polygon class="ad82b8e0-d90f-4a73-8551-8c1f2459b5c0" points="35.2 7.26 41.24 3.77 35.2 0.28 35.2 7.26"/>
      </g>
      <g>
        <line class="f28434e9-d993-4ab3-93de-98607ba296c1" x1="46.27" y1="3.77" x2="79.33" y2="3.77"/>
        <polygon class="ad82b8e0-d90f-4a73-8551-8c1f2459b5c0" points="47.29 7.26 41.24 3.77 47.29 0.28 47.29 7.26"/>
      </g>
      <circle class="f28434e9-d993-4ab3-93de-98607ba296c1" cx="37.27" cy="39.13" r="27.81"/>
      <line class="f28434e9-d993-4ab3-93de-98607ba296c1" x1="58.3" y1="57.68" x2="79.33" y2="76.23"/>
      <polyline class="f28434e9-d993-4ab3-93de-98607ba296c1" points="0.67 27.79 0.67 14.02 15.31 14.02"/>
      <polyline class="f28434e9-d993-4ab3-93de-98607ba296c1" points="14.43 66.77 0.67 66.77 0.67 52.12"/>
      <g>
        <path class="f28434e9-d993-4ab3-93de-98607ba296c1" d="M16.54,21.63h24a25.15,25.15,0,0,1,5.77,7.55L46,38l1.07,3.16L46,44.74l2.85,6.31v2.62H13.56"/>
        <path class="f28434e9-d993-4ab3-93de-98607ba296c1" d="M40.52,21.6a40.23,40.23,0,0,0-4-9.93"/>
        <path class="f28434e9-d993-4ab3-93de-98607ba296c1" d="M35.48,53.65h0a6.86,6.86,0,0,0-6.87-6.87h-18"/>
        <path class="f28434e9-d993-4ab3-93de-98607ba296c1" d="M48.9,53.65v4.28A3.11,3.11,0,0,1,45.79,61H38.14A3.1,3.1,0,0,1,35,57.93V53.65"/>
        <path class="f28434e9-d993-4ab3-93de-98607ba296c1" d="M42.87,36.73,42.1,38a3.19,3.19,0,0,1-2.85,1.62H30.7a2.43,2.43,0,0,1-1.93-1l-.84-1.38L33.32,36l2.46,1.54,1.16-1.77,1.54.69Z"/>
        <path class="f28434e9-d993-4ab3-93de-98607ba296c1" d="M44.87,18.49H50a0,0,0,0,1,0,0V25a0,0,0,0,1,0,0H44.87a3.24,3.24,0,0,1-3.24-3.24v0A3.24,3.24,0,0,1,44.87,18.49Z" transform="translate(68.3 67.15) rotate(-141.74)"/>
      </g>
      <polyline class="f28434e9-d993-4ab3-93de-98607ba296c1" points="79.33 27.79 79.33 14.02 64.69 14.02"/>
      <polyline class="f28434e9-d993-4ab3-93de-98607ba296c1" points="74.96 66.77 79.33 66.77 79.33 52.12"/>
    </g>
  </g>
</svg>
