<svg id="fa767de8-b8ee-4680-9233-e406167cbf02" data-name="Layer 1" xmlns="http://www.w3.org/2000/svg" viewBox="0 0 80 80">
  <defs>
    <style>
      .a409860d-b653-457d-9f89-6f37ac20e653 {
        fill: #fadc0f;
      }

      .aae85f8a-f920-4824-ad89-51c3137d49e1 {
        fill: #fff;
      }

      .ff620527-3cf9-4583-8b4f-cd43eb6a0bc8 {
        fill: none;
        stroke: #414042;
        stroke-linecap: round;
        stroke-linejoin: round;
      }
    </style>
  </defs>
  <title>Accident-25</title>
  <g>
    <g>
      <g>
        <path class="a409860d-b653-457d-9f89-6f37ac20e653" d="M48.83,35.19c0,.13,0,.25,0,.38l-31.89-5.5a16.08,16.08,0,0,1,3-5.34,16.3,16.3,0,0,1,12.57-5.9,15.9,15.9,0,0,1,2.31.17,16.27,16.27,0,0,1,6,2.07h0a16.63,16.63,0,0,1,4.48,3.87,16.32,16.32,0,0,1,3.6,10.25Z"/>
        <path class="aae85f8a-f920-4824-ad89-51c3137d49e1" d="M48.82,35.57a16.36,16.36,0,1,1-31.89-5.5Z"/>
        <path class="aae85f8a-f920-4824-ad89-51c3137d49e1" d="M62.19,77.89C61.41,63.22,48.4,51.54,32.47,51.54S3.57,63.18,2.75,77.83Z"/>
        <line class="aae85f8a-f920-4824-ad89-51c3137d49e1" x1="34.79" y1="18.99" x2="34.78" y2="19"/>
      </g>
      <path class="a409860d-b653-457d-9f89-6f37ac20e653" d="M57.62,32.88l-.12-1.67c-.39-3.47.77-7.25,4-11.1,2.89-3.4,4.5-5.9,4.5-8.79,0-3.27-2.06-5.45-6.1-5.52a11.39,11.39,0,0,0-6.48,2l-1.54-4A16.82,16.82,0,0,1,61,1.18c7.37,0,10.71,4.56,10.71,9.43,0,4.37-2.44,7.51-5.52,11.17-2.82,3.33-3.85,6.16-3.65,9.43l.06,1.67Zm-1.41,9a3.79,3.79,0,0,1,3.85-4,3.74,3.74,0,0,1,3.79,4,3.82,3.82,0,1,1-7.64,0Z"/>
    </g>
    <g>
      <g>
        <circle class="ff620527-3cf9-4583-8b4f-cd43eb6a0bc8" cx="32.47" cy="35.18" r="16.36"/>
        <path class="ff620527-3cf9-4583-8b4f-cd43eb6a0bc8" d="M2.75,77.83c.82-14.65,13.81-26.29,29.72-26.29S61.41,63.22,62.19,77.89"/>
        <line class="ff620527-3cf9-4583-8b4f-cd43eb6a0bc8" x1="17.02" y1="30.08" x2="48.83" y2="35.57"/>
        <line class="ff620527-3cf9-4583-8b4f-cd43eb6a0bc8" x1="19.89" y1="24.72" x2="47.83" y2="29.54"/>
        <line class="ff620527-3cf9-4583-8b4f-cd43eb6a0bc8" x1="26.73" y1="25.9" x2="34.78" y2="18.99"/>
        <line class="ff620527-3cf9-4583-8b4f-cd43eb6a0bc8" x1="33.86" y1="27.13" x2="40.75" y2="21.07"/>
        <line class="ff620527-3cf9-4583-8b4f-cd43eb6a0bc8" x1="40.8" y1="28.33" x2="45.23" y2="24.94"/>
      </g>
      <path class="ff620527-3cf9-4583-8b4f-cd43eb6a0bc8" d="M57.62,32.88l-.12-1.67c-.39-3.47.77-7.25,4-11.1,2.89-3.4,4.5-5.9,4.5-8.79,0-3.27-2.06-5.45-6.1-5.52a11.39,11.39,0,0,0-6.48,2l-1.54-4A16.82,16.82,0,0,1,61,1.18c7.37,0,10.71,4.56,10.71,9.43,0,4.37-2.44,7.51-5.52,11.17-2.82,3.33-3.85,6.16-3.65,9.43l.06,1.67Zm-1.41,9a3.79,3.79,0,0,1,3.85-4,3.74,3.74,0,0,1,3.79,4,3.82,3.82,0,1,1-7.64,0Z"/>
    </g>
  </g>
</svg>
