<svg id="a4051d37-be4c-4224-abf5-08bac5f81056" data-name="Layer 1" xmlns="http://www.w3.org/2000/svg" viewBox="0 0 80 80">
  <defs>
    <style>
      .bc66a8b9-7409-4cdf-878f-35831d131a9d {
        fill: #fff;
      }

      .a30d5aed-696f-4b87-9248-4ebf0049c558 {
        fill: #fadc0f;
      }

      .bb780e5f-6ec6-47d1-b6fa-7714b359e1a0 {
        fill: none;
        stroke: #414042;
        stroke-linecap: round;
        stroke-linejoin: round;
      }

      .a3776d0a-dd10-4304-8d17-6a00cc6c2dbd {
        fill: #414042;
      }
    </style>
  </defs>
  <title>Accident-27</title>
  <g>
    <g>
      <path class="bc66a8b9-7409-4cdf-878f-35831d131a9d" d="M8.39,52.72v1.7a1.24,1.24,0,0,1-1.24,1.26H4.07a1.25,1.25,0,0,1-1.26-1.26V52.7h0v0Z"/>
      <path class="bc66a8b9-7409-4cdf-878f-35831d131a9d" d="M6.17,37.19V39.8H4.11a1.31,1.31,0,0,1,0-2.61Z"/>
      <path class="a30d5aed-696f-4b87-9248-4ebf0049c558" d="M32.29,49.12l.44-1.47-.44-1.27.12-3.52A9.81,9.81,0,0,0,30.3,40h0l-.22-.18v0H6.18a9.85,9.85,0,0,0-2.33,3,9.58,9.58,0,0,0-1,4.46v5.4H33.43V51.66ZM10.92,46.65a.93.93,0,0,1-.79.43H6.68a1.32,1.32,0,0,1-1.14-.67l-.55-1a.49.49,0,0,1,.53-.72l5.74,1.41Zm19.79-.23a1.3,1.3,0,0,1-1.16.65H26.12a1,1,0,0,1-.78-.41L25,46.11l2.17-.53.87-.09h.59l.61.27,1.78.13Z"/>
      <path class="bc66a8b9-7409-4cdf-878f-35831d131a9d" d="M11.26,46.11l-.34.54a.93.93,0,0,1-.79.43H6.68a1.32,1.32,0,0,1-1.14-.67l-.55-1a.49.49,0,0,1,.53-.72Z"/>
      <path class="bc66a8b9-7409-4cdf-878f-35831d131a9d" d="M30.08,39.81H6.19A15.68,15.68,0,0,1,8.26,35a4.15,4.15,0,0,1,2.66-1.68,51.43,51.43,0,0,1,6.86-.51,59.36,59.36,0,0,1,7.56.51A4.12,4.12,0,0,1,28,35a15.56,15.56,0,0,1,2.08,4.76Z"/>
      <path class="bc66a8b9-7409-4cdf-878f-35831d131a9d" d="M33.44,52.7v1.72a1.25,1.25,0,0,1-1.25,1.26H29.12a1.25,1.25,0,0,1-1.26-1.26v-1.7h5.57v0Z"/>
      <path class="bc66a8b9-7409-4cdf-878f-35831d131a9d" d="M31,45.89l-.31.53a1.3,1.3,0,0,1-1.16.65H26.12a1,1,0,0,1-.78-.41L25,46.11l2.17-.53.87-.09h.59l.61.27Z"/>
      <path class="bc66a8b9-7409-4cdf-878f-35831d131a9d" d="M33.51,40.88a1.33,1.33,0,0,1-1,.5,1.26,1.26,0,0,1-.8-.28L30.3,40h0l-.19-.2,1.59-2,1.6,1.27A1.28,1.28,0,0,1,33.51,40.88Z"/>
      <g>
        <path class="a30d5aed-696f-4b87-9248-4ebf0049c558" d="M77.16,47.16v5.52H73a3.73,3.73,0,0,0,.14-1,4,4,0,1,0-8,0,3.38,3.38,0,0,0,.14,1H42.54a3.73,3.73,0,0,0,.14-1,4,4,0,1,0-8,0,3.73,3.73,0,0,0,.14,1h-1l.87-4.46-.37-1.4,1.34-1.37-1-1.39A25.75,25.75,0,0,1,41.5,42a9.82,9.82,0,0,0,1.72-.42s.43,2.17,4.3,2.22,24.23.45,24.24-5.31a17.12,17.12,0,0,1,2.7,2.18,9,9,0,0,1,2.07,3.15h-3a3.72,3.72,0,0,0,3.54,2.25h0A8.27,8.27,0,0,1,77.16,47.16Z"/>
        <path class="bc66a8b9-7409-4cdf-878f-35831d131a9d" d="M71.76,38.47c0,5.76-20.36,5.35-24.24,5.31s-4.3-2.22-4.3-2.22a11.06,11.06,0,0,0,2.27-1l2.42-1.43a19.54,19.54,0,0,1,9.44-2.73c3.87-.09,8.89,0,11.59.74A10.8,10.8,0,0,1,71.76,38.47Z"/>
        <path class="bc66a8b9-7409-4cdf-878f-35831d131a9d" d="M77.09,46.05h0a3.72,3.72,0,0,1-3.54-2.25h3A8.73,8.73,0,0,1,77.09,46.05Z"/>
        <path class="bc66a8b9-7409-4cdf-878f-35831d131a9d" d="M42.68,51.67a3.73,3.73,0,0,1-.14,1,4,4,0,0,1-7.75,0,3.73,3.73,0,0,1-.14-1,4,4,0,1,1,8,0Z"/>
        <path class="bc66a8b9-7409-4cdf-878f-35831d131a9d" d="M73.13,51.67a3.73,3.73,0,0,1-.14,1,4,4,0,0,1-7.75,0,3.38,3.38,0,0,1-.14-1,4,4,0,1,1,8,0Z"/>
      </g>
    </g>
    <g>
      <polyline class="bb780e5f-6ec6-47d1-b6fa-7714b359e1a0" points="0.62 33.03 0.62 19.25 15.29 19.25"/>
      <polyline class="bb780e5f-6ec6-47d1-b6fa-7714b359e1a0" points="14.4 72.05 0.62 72.05 0.62 57.39"/>
      <polyline class="bb780e5f-6ec6-47d1-b6fa-7714b359e1a0" points="65.6 19.25 79.38 19.25 79.38 33.91"/>
      <polyline class="bb780e5f-6ec6-47d1-b6fa-7714b359e1a0" points="79.38 58.27 79.38 72.05 64.71 72.05"/>
      <g>
        <line class="bb780e5f-6ec6-47d1-b6fa-7714b359e1a0" x1="5.64" y1="7.95" x2="74.36" y2="7.95"/>
        <polygon class="a3776d0a-dd10-4304-8d17-6a00cc6c2dbd" points="6.67 11.44 0.62 7.95 6.67 4.46 6.67 11.44"/>
        <polygon class="a3776d0a-dd10-4304-8d17-6a00cc6c2dbd" points="73.33 11.44 79.38 7.95 73.33 4.46 73.33 11.44"/>
      </g>
      <g>
        <path class="bb780e5f-6ec6-47d1-b6fa-7714b359e1a0" d="M2.81,52.7v1.73a1.25,1.25,0,0,0,1.25,1.25H7.14a1.25,1.25,0,0,0,1.25-1.25V52.7"/>
        <path class="bb780e5f-6ec6-47d1-b6fa-7714b359e1a0" d="M5,45.41l.56,1a1.32,1.32,0,0,0,1.14.67h3.46a.91.91,0,0,0,.77-.43l.35-.55L5.52,44.7A.49.49,0,0,0,5,45.41Z"/>
        <path class="bb780e5f-6ec6-47d1-b6fa-7714b359e1a0" d="M4.11,37.19H6.16a0,0,0,0,1,0,0V39.8a0,0,0,0,1,0,0H4.11a1.3,1.3,0,0,1-1.3-1.3v0a1.3,1.3,0,0,1,1.3-1.3Z"/>
        <path class="bb780e5f-6ec6-47d1-b6fa-7714b359e1a0" d="M33.43,51.66v1.05H2.82V47.32a9.68,9.68,0,0,1,1-4.47,10.05,10.05,0,0,1,2.32-3H30.08a10.1,10.1,0,0,1,2.33,3l-.12,3.54.43,1.27-.43,1.46Z"/>
        <path class="bb780e5f-6ec6-47d1-b6fa-7714b359e1a0" d="M30.07,39.8A15.45,15.45,0,0,0,28,35a4.09,4.09,0,0,0-2.65-1.68,59.36,59.36,0,0,0-7.56-.51,51.33,51.33,0,0,0-6.86.51A4.06,4.06,0,0,0,8.27,35,15.61,15.61,0,0,0,6.18,39.8"/>
        <path class="bb780e5f-6ec6-47d1-b6fa-7714b359e1a0" d="M28,52.7h0a2.76,2.76,0,0,0-2.76-2.76H11A2.76,2.76,0,0,0,8.21,52.7h0"/>
        <path class="bb780e5f-6ec6-47d1-b6fa-7714b359e1a0" d="M33.44,52.7v1.73a1.25,1.25,0,0,1-1.25,1.25H29.11a1.25,1.25,0,0,1-1.25-1.25V52.7"/>
        <path class="bb780e5f-6ec6-47d1-b6fa-7714b359e1a0" d="M31,45.89l-.32.53a1.27,1.27,0,0,1-1.14.65H26.12a1,1,0,0,1-.78-.4L25,46.11l2.17-.53.87-.09h.59l.62.28Z"/>
        <path class="bb780e5f-6ec6-47d1-b6fa-7714b359e1a0" d="M31.82,38.55h2.05a0,0,0,0,1,0,0v2.61a0,0,0,0,1,0,0H31.82a1.3,1.3,0,0,1-1.3-1.3v0A1.3,1.3,0,0,1,31.82,38.55Z" transform="translate(32.8 91.08) rotate(-141.74)"/>
        <g>
          <line class="bb780e5f-6ec6-47d1-b6fa-7714b359e1a0" x1="65.1" y1="52.68" x2="42.68" y2="52.68"/>
          <path class="bb780e5f-6ec6-47d1-b6fa-7714b359e1a0" d="M34.23,52.68h-.45l.86-4.46-.37-1.4,1.33-1.36-1-1.4A24.93,24.93,0,0,1,41.5,42a10.89,10.89,0,0,0,4-1.45l2.42-1.43a19.36,19.36,0,0,1,9.42-2.73c3.88-.09,8.91,0,11.6.74a14.13,14.13,0,0,1,5.52,3.54,9.11,9.11,0,0,1,2.7,6.51v5.52h-4"/>
          <circle class="bb780e5f-6ec6-47d1-b6fa-7714b359e1a0" cx="38.67" cy="51.66" r="4.01"/>
          <circle class="bb780e5f-6ec6-47d1-b6fa-7714b359e1a0" cx="69.12" cy="51.66" r="4.01"/>
          <path class="bb780e5f-6ec6-47d1-b6fa-7714b359e1a0" d="M43.22,41.57s.43,2.17,4.3,2.21,24.23.45,24.24-5.31"/>
          <path class="bb780e5f-6ec6-47d1-b6fa-7714b359e1a0" d="M76.52,43.8h-3a3.72,3.72,0,0,0,3.54,2.25"/>
        </g>
        <polyline class="bb780e5f-6ec6-47d1-b6fa-7714b359e1a0" points="23.85 34.75 24.63 35.66 25.4 35.66 25.96 36.34"/>
        <polyline class="bb780e5f-6ec6-47d1-b6fa-7714b359e1a0" points="24.63 35.66 24.63 36.99 23.85 37.48"/>
        <polyline class="bb780e5f-6ec6-47d1-b6fa-7714b359e1a0" points="47.06 41.69 48.53 40.71 49.99 40.96 52.34 39.31"/>
        <line class="bb780e5f-6ec6-47d1-b6fa-7714b359e1a0" x1="49.99" y1="40.96" x2="50.39" y2="41.96"/>
      </g>
    </g>
  </g>
</svg>
