<svg id="b0c0be05-551e-4306-b8bd-1961024c6b9b" data-name="Layer 1" xmlns="http://www.w3.org/2000/svg" viewBox="0 0 80 80">
  <defs>
    <style>
      .fb4eb9e5-1a76-4ec9-9fbc-99d25421e87d {
        fill: #fff;
      }

      .ff61ca67-5cfb-4433-b74f-e1670a7df181 {
        fill: #fadc0f;
      }

      .b6358975-dc08-4740-987d-dc1c7c6e46c6 {
        fill: none;
        stroke: #414042;
        stroke-linecap: round;
        stroke-linejoin: round;
      }
    </style>
  </defs>
  <title>Accident-5</title>
  <g>
    <g>
      <rect class="fb4eb9e5-1a76-4ec9-9fbc-99d25421e87d" x="17.46" y="0.6" width="45.07" height="78.81" rx="6.52"/>
      <path class="ff61ca67-5cfb-4433-b74f-e1670a7df181" d="M36.82,56c-2.33-2.4-5.22-7.37-5.22-17.26s2.89-14.86,5.22-17.26A6.2,6.2,0,0,1,43.63,20a9.69,9.69,0,0,1,2.08,1.15,1.52,1.52,0,0,1,.61,1.57,29.09,29.09,0,0,1-2.44,6.42,2.58,2.58,0,0,1-2.32,1.43h-3s-1,1.63-1,8.15,1,8.14,1,8.14h3a2.58,2.58,0,0,1,2.32,1.43,29.09,29.09,0,0,1,2.44,6.42,1.52,1.52,0,0,1-.61,1.57,9.69,9.69,0,0,1-2.08,1.15A6.22,6.22,0,0,1,36.82,56Z"/>
    </g>
    <g>
      <rect class="b6358975-dc08-4740-987d-dc1c7c6e46c6" x="17.46" y="0.6" width="45.07" height="78.81" rx="6.52"/>
      <line class="b6358975-dc08-4740-987d-dc1c7c6e46c6" x1="17.46" y1="11.53" x2="62.54" y2="11.53"/>
      <line class="b6358975-dc08-4740-987d-dc1c7c6e46c6" x1="17.46" y1="65.94" x2="62.54" y2="65.94"/>
      <line class="b6358975-dc08-4740-987d-dc1c7c6e46c6" x1="38.98" y1="6.28" x2="45.7" y2="6.28"/>
      <circle class="b6358975-dc08-4740-987d-dc1c7c6e46c6" cx="34.88" cy="6.28" r="1.09"/>
      <circle class="b6358975-dc08-4740-987d-dc1c7c6e46c6" cx="40" cy="72.3" r="2.27"/>
      <path class="b6358975-dc08-4740-987d-dc1c7c6e46c6" d="M36.82,56c-2.33-2.4-5.22-7.37-5.22-17.26s2.89-14.86,5.22-17.26A6.2,6.2,0,0,1,43.63,20a9.69,9.69,0,0,1,2.08,1.15,1.52,1.52,0,0,1,.61,1.57,29.09,29.09,0,0,1-2.44,6.42,2.58,2.58,0,0,1-2.32,1.43h-3s-1,1.63-1,8.15,1,8.14,1,8.14h3a2.58,2.58,0,0,1,2.32,1.43,29.09,29.09,0,0,1,2.44,6.42,1.52,1.52,0,0,1-.61,1.57,9.69,9.69,0,0,1-2.08,1.15A6.22,6.22,0,0,1,36.82,56Z"/>
    </g>
  </g>
</svg>
