<svg id="efe7ce2c-a433-4629-9ecf-d57ef67a083b" data-name="Layer 1" xmlns="http://www.w3.org/2000/svg" viewBox="0 0 80 80">
  <defs>
    <style>
      .bab2db9d-2a04-4bb5-a443-e3ee91dc5d26 {
        fill: #fff;
      }

      .a150be00-1a71-4417-a4d2-be8ce3b28520 {
        fill: none;
        stroke: #414042;
        stroke-linecap: round;
        stroke-linejoin: round;
      }

      .bf3ebd09-546c-4d7d-8fe4-a1d744cc8abd {
        fill: #fadc0f;
      }
    </style>
  </defs>
  <title>Accident-2</title>
  <g>
    <path class="bab2db9d-2a04-4bb5-a443-e3ee91dc5d26" d="M55.9,64.28C39.64,73,27.59,72.83,27.59,72.83c.54-7.13-8.32-12.41-8.68-12.61-3.52,1-6.28,2.55-9.07,1.78-2.5-.63-4.28-2-3.54-4.83s0-3.45-1.37-5.09,1.63-3.78,1.5-4.78S3.65,45.3,2,44.45a2,2,0,0,1-.89-2.62A49.87,49.87,0,0,1,4.7,36.42a8.43,8.43,0,0,0,1.69-4.13c.17-2.37-1.1-25,25.84-24.81,25.6.17,25.31,25.09,17.41,38.66a12.67,12.67,0,0,0-1.86,7.33C48.13,58,51.12,60.59,55.9,64.28Z"/>
    <g>
      <path class="a150be00-1a71-4417-a4d2-be8ce3b28520" d="M55.9,64.27c-4.78-3.68-7.77-6.27-8.12-10.8a12.67,12.67,0,0,1,1.86-7.33c7.9-13.57,8.19-38.48-17.41-38.66C5.29,7.3,6.57,29.92,6.38,32.28A8.47,8.47,0,0,1,4.7,36.42a52.1,52.1,0,0,0-3.65,5.4A2,2,0,0,0,2,44.45c1.7.86,4.39,1.75,4.48,2.85s-2.91,3.14-1.5,4.78S7,54.35,6.29,57.18s1,4.18,3.55,4.82c3.25.89,6.46-1.37,10.88-2.23s4.87-4.87,4.5-7.42"/>
      <path class="a150be00-1a71-4417-a4d2-be8ce3b28520" d="M18.9,60.21s9.24,5.34,8.69,12.62"/>
    </g>
    <polygon class="bf3ebd09-546c-4d7d-8fe4-a1d744cc8abd" points="78.08 35.55 72.11 31.01 74.09 28.4 61.38 26.79 66.34 38.6 68.22 36.12 74.19 40.66 78.08 35.55"/>
    <polygon class="bf3ebd09-546c-4d7d-8fe4-a1d744cc8abd" points="74.69 45.07 69.09 50.07 66.91 47.63 62.92 59.8 75.46 57.18 73.38 54.86 78.97 49.86 74.69 45.07"/>
    <polygon class="a150be00-1a71-4417-a4d2-be8ce3b28520" points="78.08 35.55 72.11 31.01 74.09 28.4 61.38 26.79 66.34 38.6 68.22 36.12 74.19 40.66 78.08 35.55"/>
    <polygon class="a150be00-1a71-4417-a4d2-be8ce3b28520" points="74.69 45.07 69.09 50.07 66.91 47.63 62.92 59.8 75.46 57.18 73.38 54.86 78.97 49.86 74.69 45.07"/>
  </g>
</svg>
