<svg id="a045c14c-8f6d-4247-b3a4-1c6ca21a8a34" data-name="Layer 1" xmlns="http://www.w3.org/2000/svg" viewBox="0 0 80 80">
  <defs>
    <style>
      .ab28698f-5b28-42aa-aeac-aba2f17c2dfa {
        fill: #fff;
      }

      .bdf8ffe3-d126-4686-8590-ea4f131b2929, .e56acb26-3b81-4021-a929-44727e9e9f24 {
        fill: none;
      }

      .a163abdf-7e57-4c94-bb3c-dcdfb60b6b58, .bdf8ffe3-d126-4686-8590-ea4f131b2929, .e56acb26-3b81-4021-a929-44727e9e9f24 {
        stroke: #414042;
        stroke-linecap: round;
        stroke-linejoin: round;
      }

      .e56acb26-3b81-4021-a929-44727e9e9f24 {
        stroke-dasharray: 4;
      }

      .a163abdf-7e57-4c94-bb3c-dcdfb60b6b58 {
        fill: #ff0;
      }
    </style>
  </defs>
  <title>Accident-4</title>
  <g>
    <g>
      <polygon class="ab28698f-5b28-42aa-aeac-aba2f17c2dfa" points="50.7 40.69 50.7 72.6 54.84 72.6 54.84 36.09 50.7 40.69"/>
      <polygon class="ab28698f-5b28-42aa-aeac-aba2f17c2dfa" points="28.13 36.09 28.13 72.6 32.27 72.6 32.27 40.69 28.13 36.09"/>
      <path class="ab28698f-5b28-42aa-aeac-aba2f17c2dfa" d="M52.79,26.72v2.84a17.62,17.62,0,0,0,2.05.93v-1A2.91,2.91,0,0,0,52.79,26.72Z"/>
      <path class="ab28698f-5b28-42aa-aeac-aba2f17c2dfa" d="M48,25.62a13.81,13.81,0,0,0,4.82,3.94V26.72A39.4,39.4,0,0,0,48,25.62Z"/>
      <path class="ab28698f-5b28-42aa-aeac-aba2f17c2dfa" d="M28.13,29.53v1a17.62,17.62,0,0,0,2.05-.93V26.72A2.93,2.93,0,0,0,28.13,29.53Z"/>
      <path class="ab28698f-5b28-42aa-aeac-aba2f17c2dfa" d="M30.18,26.72v2.84A13.86,13.86,0,0,0,35,25.62,39.83,39.83,0,0,0,30.18,26.72Z"/>
      <path class="ab28698f-5b28-42aa-aeac-aba2f17c2dfa" d="M28.13,30.49v5.6a31.88,31.88,0,0,1,26.71,0v-5.6a17.62,17.62,0,0,1-2.05-.93A13.81,13.81,0,0,1,48,25.62a38.17,38.17,0,0,0-13,0,13.86,13.86,0,0,1-4.82,3.94A17.62,17.62,0,0,1,28.13,30.49Z"/>
      <path class="ab28698f-5b28-42aa-aeac-aba2f17c2dfa" d="M28.13,72.6v4a2.5,2.5,0,0,0,2.5,2.5H52.34a2.5,2.5,0,0,0,2.5-2.5v-4H50.7V40.69a32.3,32.3,0,0,0-18.43,0V72.6ZM34.4,47.72a1.06,1.06,0,0,1,1.06-1H46.31a1.06,1.06,0,0,1,1.06,1v3.5a1.06,1.06,0,0,1-1.06,1.05H35.46a1.06,1.06,0,0,1-1.06-1.05Z"/>
      <path class="ab28698f-5b28-42aa-aeac-aba2f17c2dfa" d="M28.13,36.09l4.14,4.6a32.3,32.3,0,0,1,18.43,0l4.14-4.6A31.88,31.88,0,0,0,28.13,36.09Z"/>
      <path class="ab28698f-5b28-42aa-aeac-aba2f17c2dfa" d="M34.4,47.72v3.5a1.06,1.06,0,0,0,1.06,1.05H46.31a1.06,1.06,0,0,0,1.06-1.05v-3.5a1.06,1.06,0,0,0-1.06-1H35.46A1.06,1.06,0,0,0,34.4,47.72Z"/>
    </g>
    <g>
      <path class="bdf8ffe3-d126-4686-8590-ea4f131b2929" d="M30.63,79.14H52.34a2.5,2.5,0,0,0,2.5-2.5V29.53a2.92,2.92,0,0,0-2.05-2.81,39.38,39.38,0,0,0-22.61,0,2.94,2.94,0,0,0-2.05,2.81V76.64A2.5,2.5,0,0,0,30.63,79.14Z"/>
      <path class="bdf8ffe3-d126-4686-8590-ea4f131b2929" d="M32.27,40.69a32.3,32.3,0,0,1,18.43,0l4.14-4.6a32,32,0,0,0-26.71,0Z"/>
      <polyline class="bdf8ffe3-d126-4686-8590-ea4f131b2929" points="32.27 40.69 32.27 49.1 28.14 49.1"/>
      <polyline class="bdf8ffe3-d126-4686-8590-ea4f131b2929" points="50.7 40.69 50.7 49.1 54.84 49.1"/>
      <path class="bdf8ffe3-d126-4686-8590-ea4f131b2929" d="M54.84,30.49S50.25,28.86,48,25.61"/>
      <path class="bdf8ffe3-d126-4686-8590-ea4f131b2929" d="M28.13,30.49s4.6-1.63,6.88-4.88"/>
      <line class="bdf8ffe3-d126-4686-8590-ea4f131b2929" x1="54.84" y1="35.26" x2="57.6" y2="37.23"/>
      <line class="bdf8ffe3-d126-4686-8590-ea4f131b2929" x1="28.13" y1="35.26" x2="25.38" y2="37.23"/>
      <rect class="bdf8ffe3-d126-4686-8590-ea4f131b2929" x="34.41" y="46.67" width="12.96" height="5.6" rx="1.05" transform="translate(81.77 98.94) rotate(-180)"/>
      <polyline class="bdf8ffe3-d126-4686-8590-ea4f131b2929" points="50.7 49.1 50.7 72.59 53.85 72.59"/>
      <line class="bdf8ffe3-d126-4686-8590-ea4f131b2929" x1="50.7" y1="62.85" x2="54.84" y2="62.85"/>
      <polyline class="bdf8ffe3-d126-4686-8590-ea4f131b2929" points="32.27 49.1 32.27 72.59 29.12 72.59"/>
      <line class="bdf8ffe3-d126-4686-8590-ea4f131b2929" x1="32.27" y1="62.85" x2="28.13" y2="62.85"/>
    </g>
    <line class="bdf8ffe3-d126-4686-8590-ea4f131b2929" x1="22.4" y1="65.01" x2="22.4" y2="5.35"/>
  </g>
  <line class="e56acb26-3b81-4021-a929-44727e9e9f24" x1="60.1" y1="5.35" x2="60.1" y2="65.17"/>
  <path class="a163abdf-7e57-4c94-bb3c-dcdfb60b6b58" d="M38.77,22.92l-1.92.56c-.08-.28-2-6.64-11.46-6.58A9.71,9.71,0,0,1,16,11.07l-2.14.9-.45-9L19.5,9.59l-1.64.69c.43,1.07,2.27,4.62,7.53,4.62h.15C36.37,14.9,38.75,22.84,38.77,22.92Z"/>
</svg>
