<svg id="e2d7cc4a-2287-4c6e-85d7-f2ed5832d620" data-name="Layer 1" xmlns="http://www.w3.org/2000/svg" viewBox="0 0 80 80">
  <defs>
    <style>
      .b6f99b0a-b5f8-402c-a6bf-22c0f3ddfa07 {
        fill: #fff;
      }

      .be217b12-f0f2-475a-974a-9879769e2f46 {
        fill: #fadc0f;
      }

      .eaca98e3-e5c5-4e42-90c3-96ada3fc6cfb {
        fill: none;
        stroke: #414042;
        stroke-linecap: round;
        stroke-linejoin: round;
      }
    </style>
  </defs>
  <title>Accident-7</title>
  <g>
    <g>
      <rect class="b6f99b0a-b5f8-402c-a6bf-22c0f3ddfa07" x="4.2" y="6.25" width="57.24" height="73.02" rx="1.93"/>
      <g>
        <polygon class="be217b12-f0f2-475a-974a-9879769e2f46" points="75.8 61.27 71.83 69.28 67.86 61.27 75.8 61.27"/>
        <rect class="b6f99b0a-b5f8-402c-a6bf-22c0f3ddfa07" x="67.86" y="30.4" width="7.94" height="30.86"/>
        <path class="be217b12-f0f2-475a-974a-9879769e2f46" d="M75.8,27.15V30.4H67.86V27.15a2.71,2.71,0,0,1,2.71-2.71h2.52A2.71,2.71,0,0,1,75.8,27.15Z"/>
      </g>
    </g>
    <g>
      <rect class="eaca98e3-e5c5-4e42-90c3-96ada3fc6cfb" x="4.2" y="6.25" width="57.24" height="73.02" rx="1.93"/>
      <line class="eaca98e3-e5c5-4e42-90c3-96ada3fc6cfb" x1="18.05" y1="0.73" x2="18.05" y2="11.63"/>
      <line class="eaca98e3-e5c5-4e42-90c3-96ada3fc6cfb" x1="32.82" y1="0.8" x2="32.82" y2="11.7"/>
      <line class="eaca98e3-e5c5-4e42-90c3-96ada3fc6cfb" x1="47.87" y1="1.31" x2="47.87" y2="12.21"/>
      <g>
        <line class="eaca98e3-e5c5-4e42-90c3-96ada3fc6cfb" x1="13.93" y1="25.89" x2="40.36" y2="25.89"/>
        <line class="eaca98e3-e5c5-4e42-90c3-96ada3fc6cfb" x1="13.93" y1="37.71" x2="40.36" y2="37.71"/>
        <line class="eaca98e3-e5c5-4e42-90c3-96ada3fc6cfb" x1="13.93" y1="49.52" x2="40.36" y2="49.52"/>
        <line class="eaca98e3-e5c5-4e42-90c3-96ada3fc6cfb" x1="13.93" y1="61.34" x2="40.36" y2="61.34"/>
      </g>
      <polyline class="eaca98e3-e5c5-4e42-90c3-96ada3fc6cfb" points="47.38 25.22 48.96 26.8 53.66 22.1"/>
      <polyline class="eaca98e3-e5c5-4e42-90c3-96ada3fc6cfb" points="47.38 36.59 48.96 38.17 53.66 33.47"/>
      <g>
        <path class="eaca98e3-e5c5-4e42-90c3-96ada3fc6cfb" d="M75.8,61.27l-4,8-4-8V27.16a2.71,2.71,0,0,1,2.71-2.71h2.52a2.71,2.71,0,0,1,2.71,2.71Z"/>
        <line class="eaca98e3-e5c5-4e42-90c3-96ada3fc6cfb" x1="67.86" y1="30.41" x2="75.8" y2="30.41"/>
        <line class="eaca98e3-e5c5-4e42-90c3-96ada3fc6cfb" x1="67.86" y1="61.27" x2="75.8" y2="61.27"/>
      </g>
    </g>
  </g>
</svg>
