<svg id="fab2abfb-87c2-4ff2-a428-f0ee2a980fe8" data-name="Layer 1" xmlns="http://www.w3.org/2000/svg" viewBox="0 0 80 80">
  <defs>
    <style>
      .ab192c39-cc28-4eaa-9bb1-37785e546342 {
        fill: #fff;
      }

      .f7c8d089-d387-49cc-a394-7925c60d5aeb {
        fill: #fadc0f;
      }

      .ec9c5381-97b4-4147-8c39-f2aec6d6ccfa {
        fill: none;
        stroke: #414042;
        stroke-linecap: round;
        stroke-linejoin: round;
      }
    </style>
  </defs>
  <title>Accident-17</title>
  <g>
    <g>
      <path class="ab192c39-cc28-4eaa-9bb1-37785e546342" d="M63.5,44.07V77.4a1.94,1.94,0,0,1-1.94,1.93H8.09A1.94,1.94,0,0,1,6.16,77.4V8.12A1.94,1.94,0,0,1,8.09,6.19H61.56A1.94,1.94,0,0,1,63.5,8.12v36"/>
      <g>
        <polygon class="f7c8d089-d387-49cc-a394-7925c60d5aeb" points="48.97 58.48 40.49 61.38 43.33 52.87 48.97 58.48"/>
        <rect class="ab192c39-cc28-4eaa-9bb1-37785e546342" x="41.59" y="40.73" width="30.91" height="7.95" transform="translate(-14.88 53.66) rotate(-45.18)"/>
        <path class="f7c8d089-d387-49cc-a394-7925c60d5aeb" d="M73.05,34.25l-2.29,2.3L65.12,31l2.29-2.31a2.72,2.72,0,0,1,3.84,0L73,30.4A2.73,2.73,0,0,1,73.05,34.25Z"/>
        <line class="f7c8d089-d387-49cc-a394-7925c60d5aeb" x1="65.12" y1="30.95" x2="65.11" y2="30.94"/>
      </g>
    </g>
    <g>
      <path class="ec9c5381-97b4-4147-8c39-f2aec6d6ccfa" d="M63.5,44.07V77.4a1.94,1.94,0,0,1-1.94,1.93H8.09A1.94,1.94,0,0,1,6.16,77.4V8.12A1.94,1.94,0,0,1,8.09,6.19H61.56A1.94,1.94,0,0,1,63.5,8.12V32.35"/>
      <line class="ec9c5381-97b4-4147-8c39-f2aec6d6ccfa" x1="20.04" y1="0.67" x2="20.04" y2="11.59"/>
      <line class="ec9c5381-97b4-4147-8c39-f2aec6d6ccfa" x1="34.83" y1="0.73" x2="34.83" y2="11.65"/>
      <line class="ec9c5381-97b4-4147-8c39-f2aec6d6ccfa" x1="49.9" y1="1.24" x2="49.9" y2="12.16"/>
      <line class="ec9c5381-97b4-4147-8c39-f2aec6d6ccfa" x1="15.9" y1="25.87" x2="50.75" y2="25.87"/>
      <line class="ec9c5381-97b4-4147-8c39-f2aec6d6ccfa" x1="15.9" y1="37.7" x2="50.75" y2="37.7"/>
      <line class="ec9c5381-97b4-4147-8c39-f2aec6d6ccfa" x1="15.9" y1="49.54" x2="41.47" y2="49.54"/>
      <line class="ec9c5381-97b4-4147-8c39-f2aec6d6ccfa" x1="15.9" y1="61.37" x2="37.28" y2="61.37"/>
      <g>
        <path class="ec9c5381-97b4-4147-8c39-f2aec6d6ccfa" d="M49,58.48l-8.48,2.89,2.84-8.5L67.41,28.63a2.72,2.72,0,0,1,3.84,0L73,30.4a2.72,2.72,0,0,1,0,3.84Z"/>
        <line class="ec9c5381-97b4-4147-8c39-f2aec6d6ccfa" x1="65.11" y1="30.94" x2="70.76" y2="36.55"/>
        <line class="ec9c5381-97b4-4147-8c39-f2aec6d6ccfa" x1="43.33" y1="52.87" x2="48.97" y2="58.48"/>
      </g>
    </g>
  </g>
</svg>
