<svg id="e72ddfea-1b71-4bc6-ae2e-c1a1f2f1c536" data-name="Layer 1" xmlns="http://www.w3.org/2000/svg" viewBox="0 0 80 80">
  <defs>
    <style>
      .eadc879c-b155-4007-a8fe-d42ad5326e55 {
        fill: #fadc0f;
      }

      .b223e861-297b-4471-9c80-50a4a86c7287 {
        fill: #fff;
      }

      .a31e0c48-4a6b-4efc-a5da-04fa23b1c013 {
        fill: none;
        stroke: #414042;
        stroke-linecap: round;
        stroke-linejoin: round;
      }

      .b5eaa611-6957-45ed-8e69-ea2619c9ee51 {
        fill: #e41414;
      }

      .a49b4567-21ef-4092-9468-2f8bfecafee7 {
        font-size: 16.01px;
        fill: #414042;
        font-family: Averta-Thin;
        font-weight: 200;
      }
    </style>
  </defs>
  <title>Accident-3</title>
  <g>
    <g>
      <g>
        <path class="eadc879c-b155-4007-a8fe-d42ad5326e55" d="M22.68,31.48,21.4,32.77v0L11.67,10.54a21.6,21.6,0,0,1,2.63-.61,3.43,3.43,0,0,1,3.45,1.53,66.06,66.06,0,0,1,6.32,14.07A5.81,5.81,0,0,1,22.68,31.48Z"/>
        <path class="b223e861-297b-4471-9c80-50a4a86c7287" d="M69.48,68.34a20.62,20.62,0,0,1-.89,2.49,14,14,0,0,1-13.11,8.51c-7.51-.11-20-3.41-35.69-19.12S.78,32.06.67,24.54A14,14,0,0,1,9.18,11.42a20.64,20.64,0,0,1,2.49-.88l9.72,22.21v0l-3.56,3.54s1,4.13,11.38,14.49S43.7,62.17,43.7,62.17l3.56-3.56,22.21,9.73Z"/>
        <path class="eadc879c-b155-4007-a8fe-d42ad5326e55" d="M70.07,65.7a21.82,21.82,0,0,1-.59,2.64h0L47.26,58.61l1.27-1.27a5.81,5.81,0,0,1,5.95-1.42,67.07,67.07,0,0,1,14.06,6.32A3.44,3.44,0,0,1,70.07,65.7Z"/>
      </g>
      <g>
        <line class="a31e0c48-4a6b-4efc-a5da-04fa23b1c013" x1="11.67" y1="10.53" x2="21.39" y2="32.75"/>
        <g>
          <path class="a31e0c48-4a6b-4efc-a5da-04fa23b1c013" d="M55.48,79.35c-7.51-.12-20-3.42-35.69-19.12S.78,32.05.67,24.54A14,14,0,0,1,9.18,11.42,22.17,22.17,0,0,1,14.3,9.93a3.45,3.45,0,0,1,3.45,1.53,65.78,65.78,0,0,1,6.32,14.06,5.81,5.81,0,0,1-1.39,6l-4.84,4.84s1,4.13,11.38,14.47S43.7,62.17,43.7,62.17l4.83-4.83a5.78,5.78,0,0,1,5.95-1.41,66.56,66.56,0,0,1,14.06,6.32,3.41,3.41,0,0,1,1.53,3.45,22.51,22.51,0,0,1-1.48,5.14A14,14,0,0,1,55.48,79.35Z"/>
          <line class="a31e0c48-4a6b-4efc-a5da-04fa23b1c013" x1="69.47" y1="68.34" x2="47.26" y2="58.62"/>
        </g>
        <path class="a31e0c48-4a6b-4efc-a5da-04fa23b1c013" d="M35.07,32.48A12.35,12.35,0,0,1,50.55,46.19"/>
        <path class="a31e0c48-4a6b-4efc-a5da-04fa23b1c013" d="M35.21,22.05A22.55,22.55,0,0,1,60.86,45.33"/>
        <path class="a31e0c48-4a6b-4efc-a5da-04fa23b1c013" d="M35.67,12A32.49,32.49,0,0,1,70.79,43.14"/>
      </g>
    </g>
    <rect class="b5eaa611-6957-45ed-8e69-ea2619c9ee51" x="49.65" y="3.64" width="27.76" height="27.76" rx="3.05"/>
    <text class="a49b4567-21ef-4092-9468-2f8bfecafee7" transform="translate(49.89 23.2)">999</text>
  </g>
</svg>
