<svg id="fae84f7d-1e62-4e1b-bee9-fc39fabf57c4" data-name="Layer 1" xmlns="http://www.w3.org/2000/svg" viewBox="0 0 80 80">
  <defs>
    <style>
      .a06c8d55-1259-455b-933a-914451a33e74 {
        fill: #fff;
      }

      .a49a1be0-0a0d-4ecb-8c8c-35742544224d {
        fill: #fadc0f;
      }

      .eb613344-730f-4333-9cde-b32674c51570 {
        fill: none;
        stroke: #414042;
        stroke-linecap: round;
        stroke-linejoin: round;
      }
    </style>
  </defs>
  <title>Accident-18</title>
  <g>
    <g>
      <path class="a06c8d55-1259-455b-933a-914451a33e74" d="M58.88,20A18.89,18.89,0,1,1,40,1.11,18.88,18.88,0,0,1,58.88,20Z"/>
      <path class="a06c8d55-1259-455b-933a-914451a33e74" d="M66,76.3a12.85,12.85,0,0,1-2.86-.91c-6.51-3-2.81-10.15-1.8-10.76h0a22.82,22.82,0,0,0-42.82,0h0c1,.62,4.87,8.08-2.25,11h0a13.21,13.21,0,0,1-2.4.7c-10.32,2.07-8.27-7.07-8.27-7.07C6.64,52.32,21.63,38.88,40,38.88S73.36,52.32,74.31,69.23C74.31,69.23,76.36,78.37,66,76.3Z"/>
      <path class="a49a1be0-0a0d-4ecb-8c8c-35742544224d" d="M61.38,64.63h0a22.82,22.82,0,0,0-42.82,0h0c1,.62,4.87,8.08-2.25,11a11.49,11.49,0,0,0,6.86,1.24,17.59,17.59,0,0,1-.55-4.33A17.22,17.22,0,0,1,26.27,62l7.94,7.89a6.05,6.05,0,0,0-.59,2.65,6.38,6.38,0,1,0,12.75,0,6.07,6.07,0,0,0-.61-2.69l7.87-8a17.26,17.26,0,0,1,3.2,14.75s4,.39,6.35-1.21C56.67,72.38,60.37,65.24,61.38,64.63ZM42.63,66.71A6.31,6.31,0,0,0,40,66.14a6.2,6.2,0,0,0-2.69.6l-7.94-7.89a17.3,17.3,0,0,1,21.13-.1Z"/>
    </g>
    <g>
      <circle class="eb613344-730f-4333-9cde-b32674c51570" cx="40" cy="19.99" r="18.89"/>
      <path class="eb613344-730f-4333-9cde-b32674c51570" d="M40,38.88c-18.37,0-33.37,13.44-34.31,30.35,0,0-2.05,9.14,8.27,7.07s5.8-11,4.66-11.66"/>
      <path class="eb613344-730f-4333-9cde-b32674c51570" d="M40,38.88c18.37,0,33.37,13.44,34.31,30.35,0,0,2,9.14-8.27,7.07s-5.8-11-4.66-11.66"/>
      <path class="eb613344-730f-4333-9cde-b32674c51570" d="M37.31,66.74l-7.94-7.89a17.3,17.3,0,0,1,21.13-.1l-7.87,8A6.32,6.32,0,0,0,40,66.14,6.2,6.2,0,0,0,37.31,66.74Z"/>
      <path class="eb613344-730f-4333-9cde-b32674c51570" d="M61.41,64.63a22.81,22.81,0,0,0-42.81,0M40,55.2a17.2,17.2,0,0,1,10.5,3.55l-7.87,8A6.32,6.32,0,0,0,40,66.14a6.2,6.2,0,0,0-2.69.6l-7.94-7.89A17.16,17.16,0,0,1,40,55.2Z"/>
      <path class="eb613344-730f-4333-9cde-b32674c51570" d="M37.31,66.74l-7.94-7.89a17.3,17.3,0,0,1,21.13-.1l-7.87,8A6.32,6.32,0,0,0,40,66.14,6.2,6.2,0,0,0,37.31,66.74Z"/>
      <path class="eb613344-730f-4333-9cde-b32674c51570" d="M23.23,76.84a17.28,17.28,0,0,1,3-14.87l7.94,7.89a6.05,6.05,0,0,0-.59,2.65,6.38,6.38,0,1,0,12.75,0,6.07,6.07,0,0,0-.61-2.69l7.87-8a17.28,17.28,0,0,1,3.2,14.76"/>
    </g>
  </g>
</svg>
