<svg id="b5c8551b-cbbd-4e9a-853c-0a5df36232d5" data-name="Layer 1" xmlns="http://www.w3.org/2000/svg" viewBox="0 0 80 80">
  <defs>
    <style>
      .aaae74c8-6de7-453c-be08-dbd11d0d9969 {
        fill: #fadc0f;
      }

      .b825767f-3702-4a30-8b16-804d4816f5f3 {
        fill: #fff;
      }

      .f9e54147-499b-465f-a2ef-523d1c5498f0 {
        font-size: 15.5px;
        fill: #414042;
        font-family: AvertaCY-Light;
        font-weight: 300;
      }

      .eea2bf50-0d97-42d6-abd5-d27a1bc29d5a {
        fill: none;
        stroke: #414042;
        stroke-linecap: round;
        stroke-linejoin: round;
      }
    </style>
  </defs>
  <title>Accident-14</title>
  <g>
    <g>
      <path class="aaae74c8-6de7-453c-be08-dbd11d0d9969" d="M23.54,48.83a3.63,3.63,0,1,1-3.62-3.62A3.62,3.62,0,0,1,23.54,48.83Z"/>
      <path class="aaae74c8-6de7-453c-be08-dbd11d0d9969" d="M50.52,48.83a3.62,3.62,0,1,1-3.62-3.62A3.62,3.62,0,0,1,50.52,48.83Z"/>
      <path class="b825767f-3702-4a30-8b16-804d4816f5f3" d="M54.13,41.05v7.78H50.52a3.62,3.62,0,0,0-7.24,0H23.54a3.63,3.63,0,0,0-7.25,0H11.51V47.36c0-2.06,1-4.38,3-4.88C20.38,41,31.24,33.83,37,34.23,44.3,33.93,54.13,41.05,54.13,41.05Z"/>
    </g>
    <g>
      <text class="f9e54147-499b-465f-a2ef-523d1c5498f0" transform="translate(11.63 11.31)">MAKE</text>
      <g>
        <circle class="eea2bf50-0d97-42d6-abd5-d27a1bc29d5a" cx="33.04" cy="43.23" r="26.93"/>
        <line class="eea2bf50-0d97-42d6-abd5-d27a1bc29d5a" x1="53.41" y1="61.2" x2="73.78" y2="79.17"/>
        <circle class="eea2bf50-0d97-42d6-abd5-d27a1bc29d5a" cx="19.91" cy="48.83" r="3.62"/>
        <circle class="eea2bf50-0d97-42d6-abd5-d27a1bc29d5a" cx="46.9" cy="48.83" r="3.62"/>
        <line class="eea2bf50-0d97-42d6-abd5-d27a1bc29d5a" x1="16.05" y1="48.83" x2="11.51" y2="48.83"/>
        <line class="eea2bf50-0d97-42d6-abd5-d27a1bc29d5a" x1="43.12" y1="48.83" x2="23.78" y2="48.83"/>
        <path class="eea2bf50-0d97-42d6-abd5-d27a1bc29d5a" d="M11.51,48.67V47.36c0-2.06,1-4.38,3-4.88C20.38,41,31.24,33.83,37,34.23c7.28-.3,17.1,6.82,17.1,6.82v7.78H50.74"/>
      </g>
    </g>
  </g>
</svg>
