<svg id="a5d66be2-7652-4599-a854-814271fd613b" data-name="Layer 1" xmlns="http://www.w3.org/2000/svg" viewBox="0 0 80 80">
  <defs>
    <style>
      .aaebcbc0-81dc-42a6-a124-3aebf0677d1a {
        fill: #fadc0f;
      }

      .bef3310d-2372-4cc4-b52c-c8c17a7a3276 {
        fill: #fff;
      }

      .a95ab0be-5682-4e27-93af-b3b769baf983, .e34be8d3-553a-4e2c-b93b-b782bd9c9cd1 {
        fill: #414042;
      }

      .a0848593-6375-4a98-86e5-d0a5e42c8dc4 {
        fill: #e41414;
      }

      .ba414eb1-531e-475e-95db-5bc7b9da39a9 {
        fill: none;
        stroke: #414042;
        stroke-linecap: round;
        stroke-linejoin: round;
      }

      .e34be8d3-553a-4e2c-b93b-b782bd9c9cd1 {
        font-size: 15.09px;
        font-family: AvertaCY-Light;
        font-weight: 300;
      }

      .a0e3059b-8489-43b6-a37c-6f3a316dd31c {
        letter-spacing: -0.03em;
      }
    </style>
  </defs>
  <title>Accident-16</title>
  <g>
    <g>
      <g>
        <path class="aaebcbc0-81dc-42a6-a124-3aebf0677d1a" d="M26.1,48.49a3.63,3.63,0,1,1-3.62-3.62A3.62,3.62,0,0,1,26.1,48.49Z"/>
        <path class="aaebcbc0-81dc-42a6-a124-3aebf0677d1a" d="M53.08,48.49a3.62,3.62,0,1,1-3.62-3.62A3.62,3.62,0,0,1,53.08,48.49Z"/>
        <path class="bef3310d-2372-4cc4-b52c-c8c17a7a3276" d="M56.69,40.71v7.78H53.08a3.62,3.62,0,1,0-7.24,0H26.1a3.63,3.63,0,0,0-7.25,0H14.07V47c0-2.06,1-4.38,3-4.88,5.87-1.48,16.73-8.65,22.51-8.25C46.86,33.59,56.69,40.71,56.69,40.71Z"/>
      </g>
      <path class="bef3310d-2372-4cc4-b52c-c8c17a7a3276" d="M26.56,64.9a7.26,7.26,0,0,1-7.26,7.26l-.46,0h-.3a5.73,5.73,0,0,0-1.8.14,2.37,2.37,0,0,0-1.66,3.21c.12.18.28.34.41.52a2,2,0,0,1,0,2.12,2.08,2.08,0,0,1-1.65,1h-.2a12.62,12.62,0,1,1,.1-25.24,13,13,0,0,1,12.06,7.89,0,0,0,0,0,0,0,12.83,12.83,0,0,1,.57,1.72A7.15,7.15,0,0,1,26.56,64.9Z"/>
      <circle class="aaebcbc0-81dc-42a6-a124-3aebf0677d1a" cx="10.11" cy="58.78" r="2.08"/>
      <circle class="a95ab0be-5682-4e27-93af-b3b769baf983" cx="17.29" cy="58.78" r="2.08"/>
      <circle class="a0848593-6375-4a98-86e5-d0a5e42c8dc4" cx="21.44" cy="64.41" r="2.08"/>
    </g>
    <g>
      <path class="ba414eb1-531e-475e-95db-5bc7b9da39a9" d="M26.56,64.9a7.26,7.26,0,0,1-7.26,7.26l-.46,0h-.3a5.73,5.73,0,0,0-1.8.14,2.37,2.37,0,0,0-1.66,3.21c.12.18.28.34.41.52a2,2,0,0,1,0,2.12,2.08,2.08,0,0,1-1.65,1h-.2a12.62,12.62,0,1,1,.1-25.24,13,13,0,0,1,12.06,7.89,0,0,0,0,0,0,0,12.83,12.83,0,0,1,.57,1.72A7.15,7.15,0,0,1,26.56,64.9Z"/>
      <circle class="ba414eb1-531e-475e-95db-5bc7b9da39a9" cx="5.96" cy="64.41" r="2.08"/>
      <circle class="ba414eb1-531e-475e-95db-5bc7b9da39a9" cx="10.11" cy="58.78" r="2.08"/>
      <circle class="ba414eb1-531e-475e-95db-5bc7b9da39a9" cx="17.29" cy="58.78" r="2.08"/>
      <circle class="ba414eb1-531e-475e-95db-5bc7b9da39a9" cx="21.44" cy="64.41" r="2.08"/>
      <g>
        <text class="e34be8d3-553a-4e2c-b93b-b782bd9c9cd1" transform="translate(3.66 10.97)">CO<tspan class="a0e3059b-8489-43b6-a37c-6f3a316dd31c" x="23.29" y="0">L</tspan><tspan x="31.04" y="0">OUR</tspan></text>
        <g>
          <path class="ba414eb1-531e-475e-95db-5bc7b9da39a9" d="M11.06,54a26.87,26.87,0,1,1,15,14.11"/>
          <line class="ba414eb1-531e-475e-95db-5bc7b9da39a9" x1="55.98" y1="60.86" x2="76.34" y2="78.82"/>
          <circle class="ba414eb1-531e-475e-95db-5bc7b9da39a9" cx="22.48" cy="48.49" r="3.62"/>
          <circle class="ba414eb1-531e-475e-95db-5bc7b9da39a9" cx="49.46" cy="48.49" r="3.62"/>
          <line class="ba414eb1-531e-475e-95db-5bc7b9da39a9" x1="18.61" y1="48.49" x2="14.08" y2="48.49"/>
          <line class="ba414eb1-531e-475e-95db-5bc7b9da39a9" x1="45.69" y1="48.49" x2="26.35" y2="48.49"/>
          <path class="ba414eb1-531e-475e-95db-5bc7b9da39a9" d="M14.08,48.33V47c0-2.06,1-4.38,3-4.88,5.88-1.49,16.74-8.65,22.51-8.25,7.28-.3,17.11,6.82,17.11,6.82v7.78H53.31"/>
        </g>
      </g>
    </g>
  </g>
</svg>
