<svg id="fc4f0837-5d21-4b17-8f2f-c53afb45efd2" data-name="Layer 1" xmlns="http://www.w3.org/2000/svg" viewBox="0 0 80 80">
  <defs>
    <style>
      .b4ec89ee-9610-4f1c-9aae-0e95f5aa447e {
        fill: #fadc0f;
      }

      .a2ef949a-1eb9-4ed4-b778-412d2a87e7f9, .ed989d51-ed0c-419f-b79d-c26263656e2e {
        fill: #fff;
      }

      .ef56d7e5-102d-4cca-83a3-01a476a75cef {
        font-size: 13.29px;
        fill: #414042;
        font-family: AvertaCY-Light;
        font-weight: 300;
      }

      .b7cd5dfb-fa42-477f-92e2-e7de292dac3f {
        letter-spacing: -0.06em;
      }

      .f416bb07-8856-44aa-b549-08097582eb40 {
        fill: none;
      }

      .ed989d51-ed0c-419f-b79d-c26263656e2e, .f416bb07-8856-44aa-b549-08097582eb40 {
        stroke: #414042;
        stroke-linecap: round;
        stroke-linejoin: round;
      }
    </style>
  </defs>
  <title>Accident-15(2)</title>
  <g>
    <g>
      <path class="b4ec89ee-9610-4f1c-9aae-0e95f5aa447e" d="M23.92,49.16a3.63,3.63,0,1,1-3.62-3.62A3.62,3.62,0,0,1,23.92,49.16Z"/>
      <path class="b4ec89ee-9610-4f1c-9aae-0e95f5aa447e" d="M50.9,49.16a3.62,3.62,0,1,1-3.62-3.62A3.62,3.62,0,0,1,50.9,49.16Z"/>
      <path class="a2ef949a-1eb9-4ed4-b778-412d2a87e7f9" d="M54.5,41.38v7.78H50.9a3.62,3.62,0,0,0-7.24,0H23.92a3.63,3.63,0,0,0-7.25,0H11.89V47.69c0-2.06,1-4.38,3-4.88,5.86-1.48,16.73-8.65,22.51-8.25C44.68,34.26,54.5,41.38,54.5,41.38Z"/>
    </g>
    <g>
      <text class="ef56d7e5-102d-4cca-83a3-01a476a75cef" transform="translate(0 11.59)">OCCU<tspan class="b7cd5dfb-fa42-477f-92e2-e7de292dac3f" x="39.29" y="0">P</tspan><tspan x="46.44" y="0">ANTS</tspan></text>
      <g>
        <circle class="f416bb07-8856-44aa-b549-08097582eb40" cx="33.42" cy="43.56" r="26.93"/>
        <line class="f416bb07-8856-44aa-b549-08097582eb40" x1="53.79" y1="61.53" x2="74.16" y2="79.49"/>
        <circle class="f416bb07-8856-44aa-b549-08097582eb40" cx="20.29" cy="49.16" r="3.62"/>
        <circle class="f416bb07-8856-44aa-b549-08097582eb40" cx="47.28" cy="49.16" r="3.62"/>
        <line class="f416bb07-8856-44aa-b549-08097582eb40" x1="16.42" y1="49.16" x2="11.89" y2="49.16"/>
        <line class="f416bb07-8856-44aa-b549-08097582eb40" x1="43.5" y1="49.16" x2="24.16" y2="49.16"/>
        <path class="f416bb07-8856-44aa-b549-08097582eb40" d="M11.89,49V47.69c0-2.06,1-4.38,3-4.88,5.88-1.49,16.74-8.66,22.52-8.26,7.27-.3,17.1,6.83,17.1,6.83v7.78H51.12"/>
      </g>
    </g>
    <g>
      <circle class="ed989d51-ed0c-419f-b79d-c26263656e2e" cx="6.43" cy="71.68" r="2.28"/>
      <path class="ed989d51-ed0c-419f-b79d-c26263656e2e" d="M2.3,77.61A4,4,0,0,1,6.43,74a4,4,0,0,1,4.13,3.66"/>
    </g>
    <g>
      <circle class="ed989d51-ed0c-419f-b79d-c26263656e2e" cx="16.77" cy="71.68" r="2.28"/>
      <path class="ed989d51-ed0c-419f-b79d-c26263656e2e" d="M12.64,77.61A4,4,0,0,1,16.77,74a4,4,0,0,1,4.13,3.66"/>
    </g>
    <g>
      <circle class="ed989d51-ed0c-419f-b79d-c26263656e2e" cx="27.11" cy="71.68" r="2.28"/>
      <path class="ed989d51-ed0c-419f-b79d-c26263656e2e" d="M23,77.61a4.17,4.17,0,0,1,8.27,0"/>
    </g>
    <g>
      <circle class="ed989d51-ed0c-419f-b79d-c26263656e2e" cx="37.45" cy="71.68" r="2.28"/>
      <path class="ed989d51-ed0c-419f-b79d-c26263656e2e" d="M33.32,77.61a4.17,4.17,0,0,1,8.27,0"/>
    </g>
  </g>
</svg>
