<svg id="fba5ba6b-763d-4499-8faf-07c1a0fad1b0" data-name="Layer 1" xmlns="http://www.w3.org/2000/svg" viewBox="0 0 80 80">
  <defs>
    <style>
      .eeec3278-d448-40c8-9eb1-e7fb3672b009 {
        fill: #fff;
      }

      .ae87c42e-55c7-410b-bfe7-faf0fb848c9e {
        fill: #fadc0f;
      }

      .ac128fd4-3d8f-4e48-9780-1d446b2e2208 {
        fill: none;
        stroke: #414042;
        stroke-linecap: round;
        stroke-linejoin: round;
      }
    </style>
  </defs>
  <title>Accident-23</title>
  <g>
    <g>
      <path class="eeec3278-d448-40c8-9eb1-e7fb3672b009" d="M67.12,59.47A13.6,13.6,0,0,1,53.53,73.06l-37-.33a15.79,15.79,0,0,1,0-31.58,14.9,14.9,0,0,1,4.75.74,19.52,19.52,0,0,1,8.63-6.73,19.18,19.18,0,0,1,7.17-1.37A19.48,19.48,0,0,1,55.15,46a13.58,13.58,0,0,1,12,13.47Z"/>
      <path class="ae87c42e-55c7-410b-bfe7-faf0fb848c9e" d="M67.89,37.38a19,19,0,0,1-4.62,12.45l-.09.09a13.55,13.55,0,0,0-8-3.92A19.48,19.48,0,0,0,37.07,33.79a19.18,19.18,0,0,0-7.17,1.37l0-.1a19.08,19.08,0,0,1,38,2.32Z"/>
    </g>
    <g>
      <path class="ac128fd4-3d8f-4e48-9780-1d446b2e2208" d="M67.12,59.47A13.59,13.59,0,0,1,53.53,73.06l-37-.33a15.79,15.79,0,0,1,0-31.58,15.3,15.3,0,0,1,4.76.74A19.47,19.47,0,0,1,55.15,46,13.56,13.56,0,0,1,67.12,59.47Z"/>
      <path class="ac128fd4-3d8f-4e48-9780-1d446b2e2208" d="M29.88,35.06A19.08,19.08,0,1,1,63.27,49.83"/>
      <line class="ac128fd4-3d8f-4e48-9780-1d446b2e2208" x1="48.81" y1="11.86" x2="48.81" y2="6.94"/>
      <line class="ac128fd4-3d8f-4e48-9780-1d446b2e2208" x1="36.05" y1="15.28" x2="33.59" y2="11.02"/>
      <line class="ac128fd4-3d8f-4e48-9780-1d446b2e2208" x1="26.7" y1="24.62" x2="22.44" y2="22.16"/>
      <line class="ac128fd4-3d8f-4e48-9780-1d446b2e2208" x1="70.92" y1="50.15" x2="75.18" y2="52.61"/>
      <line class="ac128fd4-3d8f-4e48-9780-1d446b2e2208" x1="74.34" y1="37.39" x2="79.26" y2="37.39"/>
      <line class="ac128fd4-3d8f-4e48-9780-1d446b2e2208" x1="70.92" y1="24.62" x2="75.18" y2="22.16"/>
      <line class="ac128fd4-3d8f-4e48-9780-1d446b2e2208" x1="61.58" y1="15.28" x2="64.04" y2="11.02"/>
    </g>
  </g>
</svg>
