<svg id="af452dd4-121a-49cb-aba5-5da104f96f59" data-name="Layer 1" xmlns="http://www.w3.org/2000/svg" viewBox="0 0 80 80">
  <defs>
    <style>
      .b1398ac4-7ce2-44b6-9eba-c29b8e738106 {
        fill: #fff;
      }

      .b206f4fb-3149-4e0f-a0eb-61679e449b20 {
        fill: #fadc0f;
      }

      .f6ba16ac-a6e8-4037-a1bc-93139e2896a5 {
        fill: none;
        stroke: #414042;
        stroke-linecap: round;
        stroke-linejoin: round;
      }

      .bd498100-e1c7-4174-a21b-8d62c8bee3df {
        font-size: 7.08px;
        fill: #414042;
        font-family: Averta-Regular;
      }

      .a404ffde-8b7f-4085-9520-0bf6ee57dc48 {
        letter-spacing: -0.01em;
      }

      .a2c13961-4d4b-48af-bac3-ca23778e8525 {
        letter-spacing: -0.01em;
      }
    </style>
  </defs>
  <title>Accident-1</title>
  <g>
    <g>
      <path class="b1398ac4-7ce2-44b6-9eba-c29b8e738106" d="M24.49,43.4v18H21.77V42.87l.3.3a1.79,1.79,0,0,0,2.41.11Z"/>
      <path class="b1398ac4-7ce2-44b6-9eba-c29b8e738106" d="M78.16,72.73a6.38,6.38,0,0,1-6.39,6.39H43V61.29a1.7,1.7,0,0,0-1.69-1.7H24.6l-.11,0V49.12l.11.11H59.17a12.83,12.83,0,0,1,11.46,7.06l6.85,13.57A6.37,6.37,0,0,1,78.16,72.73Z"/>
      <path class="b1398ac4-7ce2-44b6-9eba-c29b8e738106" d="M21.77,49.34V59.5l0,0a5.19,5.19,0,0,1-2.92-1.79,5.13,5.13,0,0,1-1.17-3.28,5.18,5.18,0,0,1,4.06-5.06Z"/>
      <path class="b206f4fb-3149-4e0f-a0eb-61679e449b20" d="M66.13,34.09v1H43.6v-1a2.08,2.08,0,0,1,1.25-1.91v0c0-.1,0-.22,0-.34a9.82,9.82,0,0,1,7.83-9.61h0v-1.1h3.93V22.2h0a9.81,9.81,0,0,1,7.82,9.61v.24A2.08,2.08,0,0,1,66.13,34.09Z"/>
      <path class="b206f4fb-3149-4e0f-a0eb-61679e449b20" d="M44.31,23.46,24.6,43.17l-.12.11a1.79,1.79,0,0,1-2.41-.11l-.3-.3L2.37,23.46a1.79,1.79,0,0,1,0-2.53l19.7-19.7a1.8,1.8,0,0,1,2.53,0l19.71,19.7A1.79,1.79,0,0,1,44.31,23.46Z"/>
      <path class="b1398ac4-7ce2-44b6-9eba-c29b8e738106" d="M65.64,37.64a10.77,10.77,0,0,1-21.54,0,11.18,11.18,0,0,1,.28-2.46l0-.1H65.3l.06.14A10.75,10.75,0,0,1,65.64,37.64Z"/>
    </g>
    <g>
      <path class="f6ba16ac-a6e8-4037-a1bc-93139e2896a5" d="M65.36,35.22A10.77,10.77,0,1,1,44.1,37.65a11,11,0,0,1,.28-2.46"/>
      <path class="f6ba16ac-a6e8-4037-a1bc-93139e2896a5" d="M24.6,49.24H59.17a12.82,12.82,0,0,1,11.46,7l6.85,13.58a6.38,6.38,0,0,1-.25,6.19h0a6.39,6.39,0,0,1-7.75,2.64L56.72,73.77A5,5,0,0,1,54,67.15h0a5,5,0,0,1,6.23-2.73l8.43,3"/>
      <path class="f6ba16ac-a6e8-4037-a1bc-93139e2896a5" d="M21.73,59.48a5.18,5.18,0,0,1-4.09-5.06h0a5.18,5.18,0,0,1,4.06-5.06"/>
      <path class="f6ba16ac-a6e8-4037-a1bc-93139e2896a5" d="M43,79.29v-18a1.69,1.69,0,0,0-1.69-1.69H24.6"/>
      <g>
        <path class="f6ba16ac-a6e8-4037-a1bc-93139e2896a5" d="M56.65,22.2a9.83,9.83,0,0,1,7.82,9.62V32"/>
        <path class="f6ba16ac-a6e8-4037-a1bc-93139e2896a5" d="M44.84,32.16c0-.11,0-.23,0-.34a9.83,9.83,0,0,1,7.83-9.62"/>
        <path class="f6ba16ac-a6e8-4037-a1bc-93139e2896a5" d="M47.19,32h-1.5A2.09,2.09,0,0,0,43.6,34.1v1H66.13v-1A2.08,2.08,0,0,0,64,32H62.49"/>
        <polyline class="f6ba16ac-a6e8-4037-a1bc-93139e2896a5" points="52.69 29.04 52.69 21.12 56.62 21.12 56.62 29.04"/>
      </g>
      <rect class="f6ba16ac-a6e8-4037-a1bc-93139e2896a5" x="7.61" y="6.48" width="31.45" height="31.45" rx="1.79" transform="translate(-8.87 23.01) rotate(-45)"/>
      <polyline class="f6ba16ac-a6e8-4037-a1bc-93139e2896a5" points="24.49 43.41 24.49 61.35 21.77 61.35 21.77 43.16"/>
      <text class="bd498100-e1c7-4174-a21b-8d62c8bee3df" transform="translate(10.43 22.03)"><tspan class="a404ffde-8b7f-4085-9520-0bf6ee57dc48">S</tspan><tspan x="4.02" y="0">AFETY</tspan><tspan x="3.39" y="8.49">FIR</tspan><tspan class="a2c13961-4d4b-48af-bac3-ca23778e8525" x="13.96" y="8.49">S</tspan><tspan x="17.97" y="8.49">T</tspan></text>
    </g>
  </g>
</svg>
