<svg width="24" height="24" viewBox="0 0 24 24" fill="none" xmlns="http://www.w3.org/2000/svg">
<g id="clear">
<mask id="mask0_837_51" style="mask-type:alpha" maskUnits="userSpaceOnUse" x="0" y="0" width="24" height="24">
<rect id="Bounding box" width="24" height="24" fill="#D9D9D9"/>
</mask>
<g mask="url(#mask0_837_51)">
<path id="clear_day" d="M11.9992 5.423C11.8574 5.423 11.7387 5.37508 11.6432 5.27925C11.5477 5.18341 11.5 5.06466 11.5 4.923V2.5385C11.5 2.39683 11.548 2.27808 11.644 2.18225C11.74 2.08641 11.8589 2.0385 12.0007 2.0385C12.1426 2.0385 12.2612 2.08641 12.3567 2.18225C12.4522 2.27808 12.5 2.39683 12.5 2.5385V4.923C12.5 5.06466 12.452 5.18341 12.356 5.27925C12.26 5.37508 12.1411 5.423 11.9992 5.423ZM16.6423 7.35775C16.5487 7.26408 16.5052 7.15025 16.5115 7.01625C16.518 6.88242 16.568 6.76033 16.6615 6.65L18.3115 4.95575C18.4123 4.84558 18.5321 4.7905 18.6707 4.7905C18.8094 4.7905 18.9353 4.847 19.0485 4.96C19.152 5.06367 19.2038 5.18017 19.2038 5.3095C19.2038 5.439 19.1506 5.557 19.0443 5.6635L17.35 7.35775C17.2437 7.46408 17.1257 7.51725 16.9962 7.51725C16.8667 7.51725 16.7487 7.46408 16.6423 7.35775ZM19.077 12.5C18.9353 12.5 18.8166 12.452 18.7208 12.356C18.6249 12.26 18.577 12.1411 18.577 11.9992C18.577 11.8574 18.6249 11.7387 18.7208 11.6432C18.8166 11.5477 18.9353 11.5 19.077 11.5H21.4615C21.6032 11.5 21.7219 11.548 21.8178 11.644C21.9136 11.74 21.9615 11.8589 21.9615 12.0007C21.9615 12.1426 21.9136 12.2612 21.8178 12.3567C21.7219 12.4522 21.6032 12.5 21.4615 12.5H19.077ZM11.9992 21.9615C11.8574 21.9615 11.7387 21.9136 11.6432 21.8178C11.5477 21.7219 11.5 21.6032 11.5 21.4615V19.0963C11.5 18.9546 11.548 18.8358 11.644 18.74C11.74 18.6442 11.8589 18.5963 12.0007 18.5963C12.1426 18.5963 12.2612 18.6442 12.3567 18.74C12.4522 18.8358 12.5 18.9546 12.5 19.0963V21.4615C12.5 21.6032 12.452 21.7219 12.356 21.8178C12.26 21.9136 12.1411 21.9615 11.9992 21.9615ZM6.66925 7.35775L4.95575 5.6885C4.84558 5.58883 4.7905 5.46842 4.7905 5.32725C4.7905 5.18608 4.84558 5.06225 4.95575 4.95575C5.06225 4.86225 5.1845 4.8155 5.3225 4.8155C5.4605 4.8155 5.57416 4.86225 5.6635 4.95575L7.377 6.66925C7.4705 6.75858 7.51725 6.87225 7.51725 7.01025C7.51725 7.14825 7.47175 7.26408 7.38075 7.35775C7.28141 7.45125 7.16558 7.498 7.03325 7.498C6.90075 7.498 6.77941 7.45125 6.66925 7.35775ZM18.3307 19.0443L16.6615 17.35C16.568 17.2397 16.518 17.1176 16.5115 16.9838C16.5052 16.8498 16.5475 16.7359 16.6385 16.6423C16.7295 16.5487 16.8432 16.502 16.9797 16.502C17.1163 16.502 17.2397 16.5552 17.35 16.6615L19.0443 18.3307C19.1418 18.4244 19.1895 18.5392 19.1875 18.675C19.1855 18.8108 19.1358 18.9339 19.0385 19.0443C18.932 19.1544 18.8097 19.2095 18.6717 19.2095C18.5337 19.2095 18.4201 19.1544 18.3307 19.0443ZM2.5385 12.5C2.39683 12.5 2.27808 12.452 2.18225 12.356C2.08641 12.26 2.0385 12.1411 2.0385 11.9992C2.0385 11.8574 2.08641 11.7387 2.18225 11.6432C2.27808 11.5477 2.39683 11.5 2.5385 11.5H4.923C5.06466 11.5 5.18341 11.548 5.27925 11.644C5.37508 11.74 5.423 11.8589 5.423 12.0007C5.423 12.1426 5.37508 12.2612 5.27925 12.3567C5.18341 12.4522 5.06466 12.5 4.923 12.5H2.5385ZM4.975 19.0443C4.88133 18.9377 4.83133 18.8166 4.825 18.6807C4.81866 18.5449 4.86225 18.4302 4.95575 18.3365L6.63075 16.6615C6.73725 16.5552 6.85425 16.502 6.98175 16.502C7.10925 16.502 7.22817 16.5537 7.3385 16.6572C7.44867 16.7704 7.50375 16.894 7.50375 17.028C7.50375 17.1618 7.44867 17.2839 7.3385 17.3942L5.6885 19.0443C5.57816 19.1544 5.454 19.2095 5.316 19.2095C5.178 19.2095 5.06433 19.1544 4.975 19.0443ZM12.0045 17C10.6168 17 9.43583 16.5143 8.4615 15.543C7.48716 14.5717 7 13.3922 7 12.0045C7 10.6168 7.48566 9.43583 8.457 8.4615C9.42833 7.48717 10.6078 7 11.9955 7C13.3832 7 14.5642 7.48567 15.5385 8.457C16.5128 9.42833 17 10.6078 17 11.9955C17 13.3832 16.5143 14.5642 15.543 15.5385C14.5717 16.5128 13.3922 17 12.0045 17ZM12 16C13.1 16 14.0417 15.6083 14.825 14.825C15.6083 14.0417 16 13.1 16 12C16 10.9 15.6083 9.95833 14.825 9.175C14.0417 8.39167 13.1 8 12 8C10.9 8 9.95833 8.39167 9.175 9.175C8.39166 9.95833 8 10.9 8 12C8 13.1 8.39166 14.0417 9.175 14.825C9.95833 15.6083 10.9 16 12 16Z" fill="#1C1B1B"/>
</g>
</g>
</svg>
