<svg width="24" height="24" viewBox="0 0 24 24" fill="none" xmlns="http://www.w3.org/2000/svg">
<g id="drizzle">
<mask id="mask0_837_38" style="mask-type:alpha" maskUnits="userSpaceOnUse" x="0" y="0" width="24" height="24">
<rect id="Bounding box" width="24" height="24" fill="#D9D9D9"/>
</mask>
<g mask="url(#mask0_837_38)">
<path id="rainy" d="M6.99083 20.2745C7.12733 20.3213 7.2565 20.3101 7.37833 20.2407C7.5 20.1716 7.58425 20.0719 7.63108 19.9417C7.67792 19.8115 7.66667 19.6855 7.59733 19.5637L6.97403 18.2972C6.90487 18.1753 6.8052 18.0878 6.67503 18.0347C6.54487 17.9815 6.41895 17.9895 6.29728 18.0587C6.17545 18.1278 6.08795 18.2275 6.03478 18.3577C5.98145 18.4878 5.98945 18.6138 6.05878 18.7357L6.68208 20.0215C6.75125 20.1433 6.85417 20.2276 6.99083 20.2745Z" fill="#1C1B1B"/>
<path id="rainy_2" d="M11.9908 18.2745C12.1273 18.3213 12.2565 18.3101 12.3783 18.2407C12.5 18.1716 12.5843 18.0719 12.6311 17.9417C12.6779 17.8115 12.6667 17.6855 12.5973 17.5637L11.974 16.2972C11.9049 16.1753 11.8052 16.0878 11.675 16.0347C11.5449 15.9815 11.4189 15.9895 11.2973 16.0587C11.1754 16.1278 11.0879 16.2275 11.0348 16.3577C10.9814 16.4878 10.9894 16.6138 11.0588 16.7357L11.6821 18.0215C11.7512 18.1433 11.8542 18.2276 11.9908 18.2745Z" fill="#1C1B1B"/>
<path id="rainy_3" d="M16.9908 21.2745C17.1273 21.3213 17.2565 21.3101 17.3783 21.2407C17.5 21.1716 17.5843 21.0719 17.6311 20.9417C17.6779 20.8115 17.6667 20.6855 17.5973 20.5637L16.974 19.2972C16.9049 19.1753 16.8052 19.0878 16.675 19.0347C16.5449 18.9815 16.4189 18.9895 16.2973 19.0587C16.1754 19.1278 16.0879 19.2275 16.0348 19.3577C15.9814 19.4878 15.9894 19.6138 16.0588 19.7357L16.6821 21.0215C16.7512 21.1433 16.8542 21.2276 16.9908 21.2745Z" fill="#1C1B1B"/>
<path id="rainy_4" d="M18.9908 18.2745C19.1273 18.3213 19.2565 18.3101 19.3783 18.2407C19.5 18.1716 19.5843 18.0719 19.6311 17.9417C19.6779 17.8115 19.6667 17.6855 19.5973 17.5637L18.974 16.2972C18.9049 16.1753 18.8052 16.0878 18.675 16.0347C18.5449 15.9815 18.4189 15.9895 18.2973 16.0587C18.1754 16.1278 18.0879 16.2275 18.0348 16.3577C17.9814 16.4878 17.9894 16.6138 18.0588 16.7357L18.6821 18.0215C18.7512 18.1433 18.8542 18.2276 18.9908 18.2745Z" fill="#1C1B1B"/>
<path id="rainy_5" d="M7.5 15.5C6.1115 15.5 4.93108 15.0138 3.95875 14.0413C2.98625 13.0689 2.5 11.8885 2.5 10.5C2.5 9.20633 2.93592 8.08775 3.80775 7.14425C4.67958 6.20058 5.77125 5.65633 7.08275 5.5115C7.57758 4.57433 8.25542 3.83817 9.11625 3.303C9.97725 2.76767 10.9385 2.5 12 2.5C13.4358 2.5 14.6695 2.976 15.701 3.928C16.7323 4.87983 17.3327 6.066 17.502 7.4865C18.7288 7.56083 19.7019 7.98775 20.4212 8.76725C21.1404 9.54675 21.5 10.4577 21.5 11.5C21.5 12.609 21.1106 13.5529 20.3318 14.3317C19.5529 15.1106 18.609 15.5 17.5 15.5H7.5ZM7.5 14.5H17.5C18.3282 14.5 19.0352 14.2071 19.6213 13.6213C20.2071 13.0352 20.5 12.3282 20.5 11.5C20.5 10.6718 20.2071 9.96475 19.6213 9.37875C19.0352 8.79292 18.3282 8.5 17.5 8.5H16.5V8C16.5 6.759 16.0603 5.69875 15.1807 4.81925C14.3012 3.93975 13.241 3.5 12 3.5C11.0975 3.5 10.2754 3.7455 9.53375 4.2365C8.79208 4.7275 8.23533 5.38458 7.8635 6.20775L7.748 6.5H7.45C6.359 6.53333 5.42792 6.93558 4.65675 7.70675C3.88558 8.47792 3.5 9.409 3.5 10.5C3.5 11.6077 3.88975 12.5513 4.66925 13.3308C5.44875 14.1103 6.39233 14.5 7.5 14.5Z" fill="#1C1B1B"/>
</g>
</g>
</svg>
