<svg width="24" height="24" viewBox="0 0 24 24" fill="none" xmlns="http://www.w3.org/2000/svg">
<g id="snow">
<mask id="mask0_837_53" style="mask-type:alpha" maskUnits="userSpaceOnUse" x="0" y="0" width="24" height="24">
<rect id="Bounding box" width="24" height="24" fill="#D9D9D9"/>
</mask>
<g mask="url(#mask0_837_53)">
<path id="ac_unit" d="M11.5 16.6578L8.07875 20.0288C7.98525 20.1224 7.8715 20.1693 7.7375 20.1693C7.6035 20.1693 7.48975 20.1141 7.39625 20.0038C7.28592 19.9103 7.23075 19.7965 7.23075 19.6625C7.23075 19.5285 7.28592 19.4064 7.39625 19.2962L11.5 15.1923V12.5H8.80775L4.67875 16.6288C4.58525 16.7224 4.4715 16.7693 4.3375 16.7693C4.2035 16.7693 4.08142 16.7141 3.97125 16.6038C3.87758 16.5103 3.83075 16.3965 3.83075 16.2625C3.83075 16.1285 3.87758 16.0147 3.97125 15.9212L7.34225 12.5H2.975C2.8455 12.5 2.734 12.4522 2.6405 12.3567C2.54683 12.2612 2.5 12.1423 2.5 12C2.5 11.8705 2.54775 11.7548 2.64325 11.653C2.73875 11.551 2.85767 11.5 3 11.5H7.34225L3.97125 8.10375C3.87758 8.01025 3.83075 7.8965 3.83075 7.7625C3.83075 7.6285 3.88592 7.50642 3.99625 7.39625C4.08975 7.30258 4.2035 7.25575 4.3375 7.25575C4.4715 7.25575 4.59358 7.30258 4.70375 7.39625L8.80775 11.5H11.5V8.80775L7.37125 4.70375C7.27758 4.61025 7.23075 4.4965 7.23075 4.3625C7.23075 4.2285 7.28592 4.10642 7.39625 3.99625C7.48975 3.90258 7.6035 3.85575 7.7375 3.85575C7.8715 3.85575 7.98525 3.90258 8.07875 3.99625L11.5 7.34225V3C11.5 2.8705 11.5478 2.75483 11.6433 2.653C11.7388 2.551 11.8577 2.5 12 2.5C12.1295 2.5 12.2452 2.551 12.347 2.653C12.449 2.75483 12.5 2.8705 12.5 3V7.34225L15.8962 3.99625C15.9897 3.90258 16.1035 3.85575 16.2375 3.85575C16.3715 3.85575 16.4936 3.90258 16.6038 3.99625C16.6974 4.10642 16.7443 4.2285 16.7443 4.3625C16.7443 4.4965 16.6974 4.61025 16.6038 4.70375L12.5 8.80775V11.5H15.1923L19.2962 7.39625C19.3897 7.30258 19.5035 7.25575 19.6375 7.25575C19.7715 7.25575 19.8936 7.31092 20.0038 7.42125C20.0974 7.51475 20.1443 7.6285 20.1443 7.7625C20.1443 7.8965 20.0974 8.01025 20.0038 8.10375L16.6578 11.5H21C21.1295 11.5 21.2452 11.551 21.347 11.653C21.449 11.7548 21.5 11.8705 21.5 12C21.5 12.1423 21.449 12.2612 21.347 12.3567C21.2452 12.4522 21.1295 12.5 21 12.5H16.6578L20.0038 15.9212C20.0974 16.0147 20.1443 16.1285 20.1443 16.2625C20.1443 16.3965 20.0974 16.5103 20.0038 16.6038C19.8936 16.7141 19.7715 16.7693 19.6375 16.7693C19.5035 16.7693 19.3897 16.7141 19.2962 16.6038L15.1923 12.5H12.5V15.1923L16.6038 19.3212C16.6974 19.4147 16.7443 19.5285 16.7443 19.6625C16.7443 19.7965 16.6891 19.9186 16.5788 20.0288C16.4853 20.1224 16.3715 20.1693 16.2375 20.1693C16.1035 20.1693 15.9897 20.1224 15.8962 20.0288L12.5 16.6578V21.025C12.5 21.1545 12.449 21.266 12.347 21.3595C12.2452 21.4532 12.1295 21.5 12 21.5C11.8577 21.5 11.7388 21.4523 11.6433 21.3568C11.5478 21.2612 11.5 21.1423 11.5 21V16.6578Z" fill="#1C1B1B"/>
</g>
</g>
</svg>
