       <svg width="16" height="16" viewBox="0 0 16 16" fill="none" xmlns="http://www.w3.org/2000/svg">
                <path d="M14.6006 9.30779C14.7806 10.4211 14.4673 11.6145 13.5139 12.4545C12.8539 13.0611 11.9873 13.3945 11.0873 13.3878H3.69395C0.580612 13.1611 0.573946 8.62779 3.69395 8.40113H3.72728C2.26728 4.31446 6.06061 1.91446 8.92061 2.83446" stroke="currentColor" stroke-width="1.5" stroke-miterlimit="10" stroke-linecap="round" stroke-linejoin="round" />
                <path d="M4.8399 8.67372C4.49323 8.50039 4.11323 8.40706 3.72656 8.40039" stroke="currentColor" stroke-width="1.5" stroke-miterlimit="10" stroke-linecap="round" stroke-linejoin="round" />
                <path d="M14.6462 5.66732C14.6462 6.40065 14.3062 7.06065 13.7662 7.48732C13.3728 7.80732 12.8595 8.00065 12.3128 8.00065C11.0262 8.00065 9.97949 6.95398 9.97949 5.66732C9.97949 5.02732 10.2395 4.44732 10.6662 4.02732V4.02065C11.0862 3.59398 11.6728 3.33398 12.3128 3.33398C13.5995 3.33398 14.6462 4.38065 14.6462 5.66732Z" stroke="currentColor" stroke-width="1.5" stroke-miterlimit="10" stroke-linecap="round" stroke-linejoin="round" />
              </svg>