<svg width="24" height="24" viewBox="0 0 24 24" fill="none" xmlns="http://www.w3.org/2000/svg">
<g id="thunderstorm">
<mask id="mask0_837_19" style="mask-type:alpha" maskUnits="userSpaceOnUse" x="0" y="0" width="24" height="24">
<rect id="Bounding box" width="24" height="24" fill="#D9D9D9"/>
</mask>
<g mask="url(#mask0_837_19)">
<path id="thunderstorm_2" d="M13.3655 22.677L14.7078 21.1712L13.6462 20.6308C13.4012 20.5064 13.2518 20.318 13.198 20.0655C13.1442 19.8128 13.2063 19.5872 13.3845 19.3885L14.8845 17.677C14.9295 17.6243 14.9843 17.5817 15.049 17.549C15.1138 17.5163 15.1808 17.5 15.25 17.5C15.4653 17.5 15.6188 17.5955 15.7105 17.7865C15.8022 17.9775 15.7768 18.1563 15.6345 18.323L14.2923 19.8288L15.3538 20.3693C15.5988 20.4936 15.7482 20.682 15.802 20.9345C15.8558 21.1872 15.7937 21.4128 15.6155 21.6115L14.1155 23.323C14.0705 23.3757 14.0157 23.4183 13.951 23.451C13.8862 23.4837 13.8192 23.5 13.75 23.5C13.5347 23.5 13.3812 23.4045 13.2895 23.2135C13.1978 23.0225 13.2232 22.8437 13.3655 22.677ZM7.3655 22.677L8.70775 21.1712L7.64625 20.6308C7.40125 20.5064 7.25183 20.318 7.198 20.0655C7.14417 19.8128 7.20633 19.5872 7.3845 19.3885L8.8845 17.677C8.9295 17.6243 8.98433 17.5817 9.049 17.549C9.11383 17.5163 9.18083 17.5 9.25 17.5C9.46533 17.5 9.61883 17.5955 9.7105 17.7865C9.80217 17.9775 9.77683 18.1563 9.6345 18.323L8.29225 19.8288L9.35375 20.3693C9.59875 20.4936 9.74817 20.682 9.802 20.9345C9.85583 21.1872 9.79367 21.4128 9.6155 21.6115L8.1155 23.323C8.0705 23.3757 8.01567 23.4183 7.951 23.451C7.88617 23.4837 7.81917 23.5 7.75 23.5C7.53467 23.5 7.38117 23.4045 7.2895 23.2135C7.19783 23.0225 7.22317 22.8437 7.3655 22.677ZM7.5 15.5C6.1115 15.5 4.93108 15.0138 3.95875 14.0413C2.98625 13.0689 2.5 11.8885 2.5 10.5C2.5 9.20633 2.93592 8.08775 3.80775 7.14425C4.67958 6.20058 5.77125 5.65633 7.08275 5.5115C7.57758 4.57433 8.25542 3.83817 9.11625 3.303C9.97725 2.76767 10.9385 2.5 12 2.5C13.4358 2.5 14.6695 2.976 15.701 3.928C16.7323 4.87983 17.3327 6.066 17.502 7.4865C18.7288 7.56083 19.7019 7.98775 20.4212 8.76725C21.1404 9.54675 21.5 10.4577 21.5 11.5C21.5 12.609 21.1106 13.5529 20.3318 14.3317C19.5529 15.1106 18.609 15.5 17.5 15.5H7.5ZM7.5 14.5H17.5C18.3282 14.5 19.0352 14.2071 19.6213 13.6213C20.2071 13.0352 20.5 12.3282 20.5 11.5C20.5 10.6718 20.2071 9.96475 19.6213 9.37875C19.0352 8.79292 18.3282 8.5 17.5 8.5H16.5V8C16.5 6.759 16.0603 5.69875 15.1807 4.81925C14.3012 3.93975 13.241 3.5 12 3.5C11.0975 3.5 10.2754 3.7455 9.53375 4.2365C8.79208 4.7275 8.23533 5.38458 7.8635 6.20775L7.748 6.5H7.45C6.359 6.53333 5.42792 6.93558 4.65675 7.70675C3.88558 8.47792 3.5 9.409 3.5 10.5C3.5 11.6077 3.88975 12.5513 4.66925 13.3308C5.44875 14.1103 6.39233 14.5 7.5 14.5Z" fill="#1C1B1B"/>
</g>
</g>
</svg>
