<svg width="20" height="20" viewBox="0 0 20 20" fill="none" xmlns="http://www.w3.org/2000/svg">
<path d="M4.62695 13.0395C4.62968 12.7417 4.72378 12.452 4.89653 12.2095C5.06928 11.967 5.31233 11.7834 5.59283 11.6835L6.3773 9.65853C6.44718 9.49341 6.56296 9.3518 6.7109 9.25051C6.85884 9.14921 8.80853 9.08704 8.80853 9.08704C9.24802 9.79158 10.127 9.79158 10.5665 9.08704C10.5665 9.08704 12.5099 9.14921 12.6579 9.25051C12.8058 9.3518 12.9216 9.49341 12.9915 9.65853L13.7766 11.6835C14.057 11.7835 14.2999 11.9672 14.4725 12.2097C14.6451 12.4522 14.7391 12.7418 14.7418 13.0395V15.0831C14.7416 15.1734 14.7057 15.2599 14.6418 15.3237C14.578 15.3876 14.4915 15.4235 14.4012 15.4237H13.9201V16.4828C13.9199 16.5731 13.8839 16.6596 13.8201 16.7234C13.7563 16.7873 13.6697 16.8232 13.5795 16.8234H12.8782C12.7879 16.8232 12.7014 16.7873 12.6375 16.7234C12.5737 16.6596 12.5378 16.5731 12.5376 16.4828V15.4237H6.8312V16.4828C6.83101 16.5731 6.79506 16.6596 6.73123 16.7234C6.66739 16.7873 6.58087 16.8232 6.49059 16.8234H5.78931C5.69903 16.8232 5.61251 16.7873 5.54867 16.7234C5.48484 16.6596 5.44889 16.5731 5.4487 16.4828V15.4237H4.96756C4.87728 15.4235 4.79076 15.3876 4.72692 15.3237C4.66309 15.2599 4.62714 15.1734 4.62695 15.0831V13.0395ZM6.87852 13.0438C6.87852 12.8977 6.83521 12.7549 6.75405 12.6334C6.6729 12.512 6.55755 12.4173 6.42259 12.3614C6.28763 12.3055 6.13913 12.2909 5.99586 12.3194C5.85259 12.3479 5.72099 12.4182 5.6177 12.5215C5.51441 12.6248 5.44407 12.7564 5.41557 12.8997C5.38707 13.043 5.4017 13.1915 5.4576 13.3264C5.5135 13.4614 5.60816 13.5767 5.72962 13.6579C5.85108 13.739 5.99387 13.7823 6.13995 13.7823C6.23694 13.7823 6.33298 13.7632 6.42259 13.7261C6.5122 13.689 6.59362 13.6346 6.6622 13.566C6.73078 13.4974 6.78519 13.416 6.8223 13.3264C6.85942 13.2368 6.87852 13.1408 6.87852 13.0438ZM6.47912 11.5932H12.8882L12.25 9.94607C12.2273 9.91385 12.1937 9.89093 12.1554 9.88154H7.21196C7.17418 9.89124 7.14112 9.91413 7.11874 9.94607L6.47912 11.5932ZM13.9659 13.0438C13.9659 12.8977 13.9226 12.7548 13.8414 12.6334C13.7602 12.5119 13.6448 12.4172 13.5098 12.3614C13.3748 12.3055 13.2263 12.2909 13.083 12.3194C12.9397 12.348 12.8081 12.4184 12.7049 12.5218C12.6016 12.6251 12.5313 12.7568 12.5029 12.9001C12.4745 13.0434 12.4892 13.192 12.5452 13.3269C12.6012 13.4619 12.696 13.5772 12.8176 13.6582C12.9391 13.7393 13.082 13.7825 13.2281 13.7823C13.424 13.7823 13.6118 13.7045 13.7503 13.566C13.8889 13.4275 13.9659 13.2397 13.9659 13.0438Z" fill="#14A54D"/>
<g clip-path="url(#clip0_3239_3849)">
<path d="M9.11631 7.92764C9.19136 7.85271 9.28044 7.7933 9.37845 7.75279C9.47647 7.71228 9.5815 7.69148 9.68756 7.69156C9.79361 7.69165 9.89861 7.71262 9.99656 7.75329C10.0945 7.79395 10.1835 7.85351 10.2584 7.92857C10.3334 8.00362 10.3928 8.0927 10.4333 8.19071C10.4738 8.28873 10.4946 8.39376 10.4945 8.49982C10.4944 8.60587 10.4734 8.71087 10.4328 8.80882C10.3921 8.90677 10.3326 8.99576 10.2575 9.07069C10.1059 9.22202 9.90032 9.30692 9.68609 9.3067C9.47186 9.30648 9.26649 9.22117 9.11515 9.06953C8.96382 8.9179 8.87893 8.71235 8.87914 8.49812C8.87936 8.28389 8.96467 8.07898 9.11631 7.92764ZM6.64148 6.65631C8.32121 4.97659 11.0531 4.97659 12.7328 6.65631L11.9714 7.41773C11.3652 6.81266 10.5436 6.47283 9.68714 6.47283C8.83063 6.47283 8.00911 6.81266 7.40289 7.41773L6.64148 6.65631ZM5.11865 5.13349C7.63824 2.61436 11.736 2.61436 14.2556 5.13349L13.4942 5.8949C11.3946 3.79524 7.97972 3.79524 5.88007 5.8949L5.11865 5.13349Z" fill="#14A54D"/>
</g>
<defs>
<clipPath id="clip0_3239_3849">
<rect width="9.625" height="7" fill="white" transform="translate(4.87451 3)"/>
</clipPath>
</defs>
</svg>
